<svg xmlns="http://www.w3.org/2000/svg" xmlns:xlink="http://www.w3.org/1999/xlink" width="540.097" height="316.854" viewBox="0 0 540.097 316.854">
  <defs>
    <linearGradient id="linear-gradient" x1="0.5" y1="1" x2="0.5" gradientUnits="objectBoundingBox">
      <stop offset="0" stop-color="#5b39a6"/>
      <stop offset="1" stop-color="#8454ee"/>
    </linearGradient>
  </defs>
  <g id="Grupo_1177108" data-name="Grupo 1177108" transform="translate(-530.051 -1752.164)">
    <path id="Trazado_1032432" data-name="Trazado 1032432" d="M15.2,0H122.895a15.2,15.2,0,0,1,15.2,15.2V71.651a15.2,15.2,0,0,1-15.2,15.2H15.2A15.2,15.2,0,0,1,0,71.651V15.2A15.2,15.2,0,0,1,15.2,0Z" transform="translate(530.051 1817.164)" fill="url(#linear-gradient)"/>
    <path id="Trazado_1032433" data-name="Trazado 1032433" d="M15.2,0H122.895a15.2,15.2,0,0,1,15.2,15.2V71.651a15.2,15.2,0,0,1-15.2,15.2H15.2A15.2,15.2,0,0,1,0,71.651V15.2A15.2,15.2,0,0,1,15.2,0Z" transform="translate(739.051 1817.164)" fill="url(#linear-gradient)"/>
    <path id="Trazado_1032434" data-name="Trazado 1032434" d="M15.2,0H122.895a15.2,15.2,0,0,1,15.2,15.2V71.651a15.2,15.2,0,0,1-15.2,15.2H15.2A15.2,15.2,0,0,1,0,71.651V15.2A15.2,15.2,0,0,1,15.2,0Z" transform="translate(932.051 1817.164)" fill="url(#linear-gradient)"/>
    <g id="Grupo_54920" data-name="Grupo 54920" transform="translate(572.051 1854.164)">
      <path id="Trazado_102637" data-name="Trazado 102637" d="M616.383,1277.084H613.66l-5.3-8.7v8.7h-2.724v-13.222h2.724l5.312,8.718v-8.718h2.715Z" transform="translate(-605.632 -1263.681)" fill="#fff"/>
      <path id="Trazado_102638" data-name="Trazado 102638" d="M621.348,1277.084h-2.724v-13.222h2.724Z" transform="translate(-605.321 -1263.681)" fill="#fff"/>
      <path id="Trazado_102639" data-name="Trazado 102639" d="M634.138,1272.683a4.682,4.682,0,0,1-1.576,3.36,5.536,5.536,0,0,1-3.745,1.226,4.972,4.972,0,0,1-4-1.712,7.011,7.011,0,0,1-1.458-4.7v-.808a7.915,7.915,0,0,1,.673-3.359,5.027,5.027,0,0,1,1.92-2.229,6,6,0,0,1,6.588.448,5.033,5.033,0,0,1,1.616,3.441h-2.724a2.76,2.76,0,0,0-.713-1.856,2.639,2.639,0,0,0-1.867-.577,2.316,2.316,0,0,0-2.039.976,5.481,5.481,0,0,0-.694,3.029v1a5.863,5.863,0,0,0,.649,3.133,2.272,2.272,0,0,0,2.048.989,2.69,2.69,0,0,0,1.884-.577,2.6,2.6,0,0,0,.713-1.785Z" transform="translate(-605.208 -1263.685)" fill="#fff"/>
      <path id="Trazado_102640" data-name="Trazado 102640" d="M642.557,1269.315h1.4a1.974,1.974,0,0,0,1.481-.5,1.832,1.832,0,0,0,.481-1.326,1.621,1.621,0,0,0-.477-1.244,1.851,1.851,0,0,0-1.313-.444,1.935,1.935,0,0,0-1.261.413,1.323,1.323,0,0,0-.509,1.076h-2.624a3.226,3.226,0,0,1,.559-1.857,3.736,3.736,0,0,1,1.561-1.285,5.22,5.22,0,0,1,2.211-.463,4.947,4.947,0,0,1,3.288,1,3.425,3.425,0,0,1,1.19,2.765,2.784,2.784,0,0,1-.554,1.671,3.6,3.6,0,0,1-1.453,1.172,3.294,3.294,0,0,1,1.666,1.2,3.255,3.255,0,0,1,.55,1.888,3.482,3.482,0,0,1-1.285,2.824,5.167,5.167,0,0,1-3.4,1.063,4.9,4.9,0,0,1-3.237-1.044,3.41,3.41,0,0,1-1.257-2.761h2.624a1.517,1.517,0,0,0,.558,1.216,2.333,2.333,0,0,0,2.842-.021,1.71,1.71,0,0,0,.531-1.313q0-1.98-2.18-1.979h-1.389Z" transform="translate(-604.82 -1263.685)" fill="#fff"/>
      <path id="Trazado_102641" data-name="Trazado 102641" d="M659.368,1277.088h-9.062v-1.8l4.277-4.559a10.539,10.539,0,0,0,1.3-1.68,2.7,2.7,0,0,0,.423-1.362,2.022,2.022,0,0,0-.444-1.384,1.609,1.609,0,0,0-1.272-.5,1.731,1.731,0,0,0-1.4.612,2.429,2.429,0,0,0-.513,1.612h-2.633a4.33,4.33,0,0,1,.576-2.206,4.066,4.066,0,0,1,1.63-1.567,4.958,4.958,0,0,1,2.388-.567,4.691,4.691,0,0,1,3.173.981,3.466,3.466,0,0,1,1.13,2.77,4.442,4.442,0,0,1-.508,2,11.076,11.076,0,0,1-1.744,2.37l-3.005,3.169h5.684Z" transform="translate(-604.569 -1263.685)" fill="#fff"/>
    </g>
    <g id="Grupo_54921" data-name="Grupo 54921" transform="translate(977.051 1854.164)">
      <path id="Trazado_102642" data-name="Trazado 102642" d="M1012.422,1277.084H1009.7l-5.3-8.7v8.7h-2.725v-13.222h2.725l5.311,8.718v-8.718h2.714Z" transform="translate(-1001.672 -1263.862)" fill="#fff"/>
      <path id="Trazado_102643" data-name="Trazado 102643" d="M1017.388,1277.084h-2.724v-13.222h2.724Z" transform="translate(-1001.361 -1263.862)" fill="#fff"/>
      <path id="Trazado_102644" data-name="Trazado 102644" d="M1022.682,1277.084h-2.724v-13.222h2.724Z" transform="translate(-1001.234 -1263.862)" fill="#fff"/>
      <path id="Trazado_102645" data-name="Trazado 102645" d="M1033.038,1271.681h-5.23v5.4h-2.725v-13.222h8.608v2.207h-5.883v3.414h5.23Z" transform="translate(-1001.112 -1263.862)" fill="#fff"/>
      <path id="Trazado_102646" data-name="Trazado 102646" d="M1048.278,1265.327l-5.113,11.757h-2.77l5.122-11.106h-6.575v-2.116h9.335Z" transform="translate(-1000.78 -1263.862)" fill="#fff"/>
    </g>
    <g id="Grupo_54922" data-name="Grupo 54922" transform="translate(781.051 1842.164)">
      <path id="Trazado_102647" data-name="Trazado 102647" d="M822.954,1263.064H820.23l-5.3-8.7v8.7H812.2v-13.221h2.724l5.312,8.717v-8.717h2.715Z" transform="translate(-808.59 -1249.662)" fill="#fff"/>
      <path id="Trazado_102648" data-name="Trazado 102648" d="M827.919,1263.064h-2.725v-13.221h2.725Z" transform="translate(-808.279 -1249.662)" fill="#fff"/>
      <path id="Trazado_102649" data-name="Trazado 102649" d="M833.213,1263.064h-2.724v-13.221h2.724Z" transform="translate(-808.152 -1249.662)" fill="#fff"/>
      <path id="Trazado_102650" data-name="Trazado 102650" d="M843.569,1257.661h-5.23v5.4h-2.725v-13.221h8.608v2.207h-5.883v3.414h5.23Z" transform="translate(-808.029 -1249.662)" fill="#fff"/>
      <path id="Trazado_102651" data-name="Trazado 102651" d="M855.952,1257.783a3.31,3.31,0,0,1-2.4,1.009,3.545,3.545,0,0,1-2.806-1.2,4.753,4.753,0,0,1-1.054-3.246,5.074,5.074,0,0,1,.567-2.385,4.175,4.175,0,0,1,1.585-1.688,4.4,4.4,0,0,1,2.289-.6,4.21,4.21,0,0,1,2.324.653,4.3,4.3,0,0,1,1.58,1.88,6.774,6.774,0,0,1,.572,2.806v.972a7.64,7.64,0,0,1-1.644,5.193,6.212,6.212,0,0,1-4.658,2.016l-.644.009v-2.188l.581-.009Q855.671,1260.843,855.952,1257.783Zm-1.752-1a1.845,1.845,0,0,0,1.095-.327,2.193,2.193,0,0,0,.694-.789v-1.081a3.609,3.609,0,0,0-.509-2.07,1.577,1.577,0,0,0-1.362-.735,1.531,1.531,0,0,0-1.3.722,3.07,3.07,0,0,0-.509,1.811,2.992,2.992,0,0,0,.495,1.775A1.614,1.614,0,0,0,854.2,1256.784Z" transform="translate(-807.692 -1249.666)" fill="#fff"/>
      <path id="Trazado_102652" data-name="Trazado 102652" d="M819.424,1284.858H816.7l-5.3-8.7v8.7h-2.724v-13.221H811.4l5.312,8.717v-8.717h2.714Z" transform="translate(-808.674 -1249.14)" fill="#fff"/>
      <path id="Trazado_102653" data-name="Trazado 102653" d="M824.39,1284.858h-2.725v-13.221h2.725Z" transform="translate(-808.363 -1249.14)" fill="#fff"/>
      <path id="Trazado_102654" data-name="Trazado 102654" d="M837.179,1280.458a4.678,4.678,0,0,1-1.576,3.359,5.532,5.532,0,0,1-3.746,1.225,4.974,4.974,0,0,1-4-1.712,7.017,7.017,0,0,1-1.457-4.7v-.808a7.915,7.915,0,0,1,.672-3.359,5.029,5.029,0,0,1,1.921-2.229,6,6,0,0,1,6.587.449,5.033,5.033,0,0,1,1.617,3.441h-2.725a2.763,2.763,0,0,0-.713-1.857,2.64,2.64,0,0,0-1.866-.576,2.315,2.315,0,0,0-2.039.976,5.462,5.462,0,0,0-.694,3.029v1a5.861,5.861,0,0,0,.648,3.132,2.274,2.274,0,0,0,2.048.989,2.684,2.684,0,0,0,1.884-.576,2.6,2.6,0,0,0,.714-1.784Z" transform="translate(-808.25 -1249.145)" fill="#fff"/>
      <path id="Trazado_102655" data-name="Trazado 102655" d="M845.6,1277.09H847a1.974,1.974,0,0,0,1.481-.5,1.832,1.832,0,0,0,.481-1.326,1.621,1.621,0,0,0-.477-1.244,1.851,1.851,0,0,0-1.313-.444,1.936,1.936,0,0,0-1.261.413,1.323,1.323,0,0,0-.509,1.076h-2.624a3.23,3.23,0,0,1,.559-1.856,3.721,3.721,0,0,1,1.561-1.285,5.205,5.205,0,0,1,2.211-.463,4.941,4.941,0,0,1,3.288,1,3.424,3.424,0,0,1,1.19,2.765,2.783,2.783,0,0,1-.554,1.67,3.592,3.592,0,0,1-1.453,1.171,3.288,3.288,0,0,1,1.666,1.2,3.255,3.255,0,0,1,.55,1.888,3.484,3.484,0,0,1-1.285,2.825,5.172,5.172,0,0,1-3.4,1.062,4.9,4.9,0,0,1-3.237-1.044,3.408,3.408,0,0,1-1.257-2.76h2.624a1.517,1.517,0,0,0,.558,1.216,2.327,2.327,0,0,0,2.842-.022,1.707,1.707,0,0,0,.531-1.312q0-1.98-2.18-1.979H845.6Z" transform="translate(-807.862 -1249.145)" fill="#fff"/>
      <path id="Trazado_102656" data-name="Trazado 102656" d="M859.482,1279.577a3.31,3.31,0,0,1-2.4,1.009,3.544,3.544,0,0,1-2.806-1.2,4.753,4.753,0,0,1-1.054-3.246,5.074,5.074,0,0,1,.567-2.385,4.175,4.175,0,0,1,1.585-1.688,4.395,4.395,0,0,1,2.287-.6,4.213,4.213,0,0,1,2.325.653,4.292,4.292,0,0,1,1.579,1.88,6.757,6.757,0,0,1,.573,2.806v.972a7.645,7.645,0,0,1-1.644,5.193,6.212,6.212,0,0,1-4.658,2.016l-.645.009V1282.8l.582-.009Q859.2,1282.637,859.482,1279.577Zm-1.753-1a1.84,1.84,0,0,0,1.095-.327,2.183,2.183,0,0,0,.7-.79v-1.08a3.609,3.609,0,0,0-.509-2.07,1.577,1.577,0,0,0-1.362-.735,1.53,1.53,0,0,0-1.3.722,3.064,3.064,0,0,0-.509,1.811,2.992,2.992,0,0,0,.495,1.776A1.612,1.612,0,0,0,857.729,1278.578Z" transform="translate(-807.608 -1249.145)" fill="#fff"/>
    </g>
    <path id="Trazado_1032435" data-name="Trazado 1032435" d="M15.2,0H122.895a15.2,15.2,0,0,1,15.2,15.2V71.651a15.2,15.2,0,0,1-15.2,15.2H15.2A15.2,15.2,0,0,1,0,71.651V15.2A15.2,15.2,0,0,1,15.2,0Z" transform="translate(530.051 1982.164)" fill="url(#linear-gradient)"/>
    <path id="Trazado_1032436" data-name="Trazado 1032436" d="M15.2,0H163.309a15.2,15.2,0,0,1,15.2,15.2V71.651a15.2,15.2,0,0,1-15.2,15.2H15.2A15.2,15.2,0,0,1,0,71.651V15.2A15.2,15.2,0,0,1,15.2,0Z" transform="translate(719.051 1982.164)" fill="url(#linear-gradient)"/>
    <path id="Trazado_1032437" data-name="Trazado 1032437" d="M15.2,0H122.895a15.2,15.2,0,0,1,15.2,15.2V71.651a15.2,15.2,0,0,1-15.2,15.2H15.2A15.2,15.2,0,0,1,0,71.651V15.2A15.2,15.2,0,0,1,15.2,0Z" transform="translate(932.051 1982.164)" fill="url(#linear-gradient)"/>
    <g id="Grupo_54923" data-name="Grupo 54923" transform="translate(551.051 2007.164)">
      <path id="Trazado_102657" data-name="Trazado 102657" d="M607.459,1421.625h-4.777l-.908,2.725h-2.9l4.922-13.221h2.524l4.949,13.221h-2.9Zm-4.041-2.207h3.306l-1.663-4.949Z" transform="translate(-586.466 -1410.402)" fill="#fff"/>
      <path id="Trazado_102658" data-name="Trazado 102658" d="M614.786,1424.367h-2.633v-13.948h2.633Z" transform="translate(-586.148 -1410.419)" fill="#fff"/>
      <path id="Trazado_102659" data-name="Trazado 102659" d="M620.931,1422.341a1.716,1.716,0,0,0,1.181-.4,1.4,1.4,0,0,0,.472-1.062h2.461a3.384,3.384,0,0,1-.545,1.83,3.6,3.6,0,0,1-1.467,1.289,4.584,4.584,0,0,1-2.056.459,4.265,4.265,0,0,1-3.324-1.339,5.3,5.3,0,0,1-1.216-3.7v-.172a5.239,5.239,0,0,1,1.207-3.623,4.215,4.215,0,0,1,3.314-1.354,4.139,4.139,0,0,1,2.956,1.049,3.715,3.715,0,0,1,1.13,2.792h-2.461a1.8,1.8,0,0,0-.472-1.246,1.755,1.755,0,0,0-2.583.189,3.878,3.878,0,0,0-.468,2.169v.273a3.92,3.92,0,0,0,.464,2.183A1.6,1.6,0,0,0,620.931,1422.341Z" transform="translate(-586.046 -1410.327)" fill="#fff"/>
      <path id="Trazado_102660" data-name="Trazado 102660" d="M632.009,1424.275a2.926,2.926,0,0,1-.263-.882,3.175,3.175,0,0,1-2.479,1.063,3.489,3.489,0,0,1-2.393-.836,2.685,2.685,0,0,1-.949-2.106,2.776,2.776,0,0,1,1.158-2.4,5.715,5.715,0,0,1,3.346-.845h1.207v-.563a1.617,1.617,0,0,0-.349-1.09,1.376,1.376,0,0,0-1.1-.408,1.563,1.563,0,0,0-1.039.317,1.081,1.081,0,0,0-.377.871h-2.624a2.643,2.643,0,0,1,.526-1.58,3.493,3.493,0,0,1,1.49-1.139,5.424,5.424,0,0,1,2.16-.414,4.288,4.288,0,0,1,2.883.913,3.194,3.194,0,0,1,1.067,2.566V1422a4.689,4.689,0,0,0,.391,2.116v.155Zm-2.17-1.826a2.266,2.266,0,0,0,1.071-.258,1.7,1.7,0,0,0,.726-.7v-1.689h-.981q-1.969,0-2.1,1.362l-.009.155a1.053,1.053,0,0,0,.345.809A1.34,1.34,0,0,0,629.839,1422.449Z" transform="translate(-585.819 -1410.327)" fill="#fff"/>
      <path id="Trazado_102661" data-name="Trazado 102661" d="M638.461,1414.449l.081,1.135a3.431,3.431,0,0,1,2.824-1.317,2.854,2.854,0,0,1,2.325.917,4.282,4.282,0,0,1,.78,2.742v6.347h-2.624v-6.284a1.706,1.706,0,0,0-.362-1.212,1.63,1.63,0,0,0-1.208-.377,1.806,1.806,0,0,0-1.662.944v6.929h-2.623v-9.826Z" transform="translate(-585.578 -1410.327)" fill="#fff"/>
      <path id="Trazado_102662" data-name="Trazado 102662" d="M650.311,1422.341a1.718,1.718,0,0,0,1.181-.4,1.4,1.4,0,0,0,.472-1.062h2.461a3.367,3.367,0,0,1-.545,1.83,3.591,3.591,0,0,1-1.466,1.289,4.586,4.586,0,0,1-2.057.459,4.265,4.265,0,0,1-3.323-1.339,5.3,5.3,0,0,1-1.217-3.7v-.172a5.234,5.234,0,0,1,1.208-3.623,4.214,4.214,0,0,1,3.313-1.354,4.136,4.136,0,0,1,2.956,1.049,3.716,3.716,0,0,1,1.13,2.792h-2.461a1.808,1.808,0,0,0-.472-1.246,1.755,1.755,0,0,0-2.583.189,3.87,3.87,0,0,0-.468,2.169v.273a3.921,3.921,0,0,0,.464,2.183A1.6,1.6,0,0,0,650.311,1422.341Z" transform="translate(-585.343 -1410.327)" fill="#fff"/>
      <path id="Trazado_102663" data-name="Trazado 102663" d="M660.217,1424.456a4.825,4.825,0,0,1-3.519-1.326,4.711,4.711,0,0,1-1.358-3.531v-.255a5.943,5.943,0,0,1,.572-2.647,4.205,4.205,0,0,1,1.621-1.8,4.549,4.549,0,0,1,2.393-.631,4.079,4.079,0,0,1,3.173,1.271,5.169,5.169,0,0,1,1.158,3.605v1.072H658a2.432,2.432,0,0,0,.767,1.543,2.319,2.319,0,0,0,1.621.582,2.832,2.832,0,0,0,2.369-1.1l1.29,1.443a3.934,3.934,0,0,1-1.6,1.3A5.229,5.229,0,0,1,660.217,1424.456Zm-.3-8.073a1.641,1.641,0,0,0-1.267.529,2.735,2.735,0,0,0-.622,1.514h3.65v-.21a1.949,1.949,0,0,0-.472-1.355A1.691,1.691,0,0,0,659.917,1416.383Z" transform="translate(-585.115 -1410.327)" fill="#fff"/>
      <path id="Trazado_102664" data-name="Trazado 102664" d="M666.2,1427.408l-1.371-.718.327-.591a4.707,4.707,0,0,0,.627-2.207v-2.033H668l-.008,1.815a4.737,4.737,0,0,1-.509,2.035A5.215,5.215,0,0,1,666.2,1427.408Z" transform="translate(-584.888 -1410.145)" fill="#fff"/>
      <path id="Trazado_102665" data-name="Trazado 102665" d="M586.756,1441.175a5.921,5.921,0,0,1,1.03-3.659,3.346,3.346,0,0,1,2.82-1.362,3.011,3.011,0,0,1,2.37,1.072v-5.013h2.633v13.948h-2.37l-.127-1.044a3.087,3.087,0,0,1-2.524,1.226,3.335,3.335,0,0,1-2.783-1.367A6.109,6.109,0,0,1,586.756,1441.175Zm2.624.2a3.869,3.869,0,0,0,.481,2.118,1.565,1.565,0,0,0,1.4.736,1.758,1.758,0,0,0,1.717-1.027v-3.883a1.733,1.733,0,0,0-1.7-1.028Q589.381,1438.288,589.38,1441.371Z" transform="translate(-586.756 -1409.897)" fill="#fff"/>
      <path id="Trazado_102666" data-name="Trazado 102666" d="M601.919,1446.25a4.82,4.82,0,0,1-3.518-1.326,4.708,4.708,0,0,1-1.359-3.532v-.255a5.932,5.932,0,0,1,.573-2.647,4.2,4.2,0,0,1,1.62-1.8,4.549,4.549,0,0,1,2.393-.631,4.082,4.082,0,0,1,3.174,1.271,5.173,5.173,0,0,1,1.157,3.605v1.072H599.7a2.442,2.442,0,0,0,.767,1.543,2.318,2.318,0,0,0,1.621.58,2.834,2.834,0,0,0,2.37-1.1l1.289,1.443a3.922,3.922,0,0,1-1.6,1.3A5.233,5.233,0,0,1,601.919,1446.25Zm-.3-8.073a1.637,1.637,0,0,0-1.267.529,2.734,2.734,0,0,0-.623,1.514h3.65v-.21a1.949,1.949,0,0,0-.472-1.355A1.69,1.69,0,0,0,601.619,1438.177Z" transform="translate(-586.51 -1409.805)" fill="#fff"/>
      <path id="Trazado_102667" data-name="Trazado 102667" d="M607.94,1446.165v-7.9h-1.462v-1.925h1.462v-.835a3.391,3.391,0,0,1,.949-2.566,3.673,3.673,0,0,1,2.656-.912,6.151,6.151,0,0,1,1.334.181l-.027,2.035a3.361,3.361,0,0,0-.8-.082q-1.481,0-1.479,1.39v.789h1.952v1.925h-1.952v7.9Z" transform="translate(-586.284 -1409.902)" fill="#fff"/>
      <path id="Trazado_102668" data-name="Trazado 102668" d="M613.7,1433.789a1.292,1.292,0,0,1,.4-.973,1.7,1.7,0,0,1,2.147,0,1.387,1.387,0,0,1-.005,1.953,1.681,1.681,0,0,1-2.134,0A1.287,1.287,0,0,1,613.7,1433.789Zm2.787,12.367h-2.633v-9.826h2.633Z" transform="translate(-586.111 -1409.892)" fill="#fff"/>
      <path id="Trazado_102669" data-name="Trazado 102669" d="M620.947,1436.243l.081,1.135a3.431,3.431,0,0,1,2.824-1.317,2.853,2.853,0,0,1,2.325.917,4.281,4.281,0,0,1,.78,2.742v6.347h-2.624v-6.284a1.7,1.7,0,0,0-.362-1.212,1.63,1.63,0,0,0-1.208-.377,1.806,1.806,0,0,0-1.662.944v6.929h-2.623v-9.826Z" transform="translate(-585.997 -1409.805)" fill="#fff"/>
      <path id="Trazado_102670" data-name="Trazado 102670" d="M628.684,1433.789a1.3,1.3,0,0,1,.394-.973,1.7,1.7,0,0,1,2.147,0,1.386,1.386,0,0,1,0,1.953,1.681,1.681,0,0,1-2.134,0A1.287,1.287,0,0,1,628.684,1433.789Zm2.787,12.367h-2.634v-9.826h2.634Z" transform="translate(-585.753 -1409.892)" fill="#fff"/>
      <path id="Trazado_102671" data-name="Trazado 102671" d="M637.612,1444.134a1.718,1.718,0,0,0,1.181-.4,1.4,1.4,0,0,0,.472-1.062h2.461a3.366,3.366,0,0,1-.545,1.83,3.59,3.59,0,0,1-1.466,1.289,4.6,4.6,0,0,1-2.057.459,4.264,4.264,0,0,1-3.323-1.339,5.3,5.3,0,0,1-1.217-3.7v-.172a5.238,5.238,0,0,1,1.208-3.624,4.218,4.218,0,0,1,3.314-1.353,4.13,4.13,0,0,1,2.955,1.049,3.711,3.711,0,0,1,1.13,2.792h-2.461a1.8,1.8,0,0,0-.472-1.246,1.755,1.755,0,0,0-2.583.189,3.878,3.878,0,0,0-.468,2.169v.273a3.932,3.932,0,0,0,.463,2.183A1.6,1.6,0,0,0,637.612,1444.134Z" transform="translate(-585.647 -1409.805)" fill="#fff"/>
      <path id="Trazado_102672" data-name="Trazado 102672" d="M642.588,1441.065a5.82,5.82,0,0,1,.563-2.606,4.122,4.122,0,0,1,1.621-1.77,4.728,4.728,0,0,1,2.456-.627,4.474,4.474,0,0,1,3.246,1.216,4.885,4.885,0,0,1,1.4,3.305l.018.672a5.132,5.132,0,0,1-1.262,3.628,4.892,4.892,0,0,1-6.778.005,5.225,5.225,0,0,1-1.267-3.7Zm2.624.186a3.673,3.673,0,0,0,.527,2.142,1.893,1.893,0,0,0,3,.009,4.018,4.018,0,0,0,.536-2.342,3.636,3.636,0,0,0-.536-2.129,1.743,1.743,0,0,0-1.507-.755,1.712,1.712,0,0,0-1.489.75A4.084,4.084,0,0,0,645.212,1441.251Z" transform="translate(-585.42 -1409.805)" fill="#fff"/>
      <path id="Trazado_102673" data-name="Trazado 102673" d="M655.673,1436.243l.082,1.135a3.431,3.431,0,0,1,2.824-1.317,2.85,2.85,0,0,1,2.324.917,4.276,4.276,0,0,1,.781,2.742v6.347H659.06v-6.284a1.7,1.7,0,0,0-.363-1.212,1.625,1.625,0,0,0-1.207-.377,1.8,1.8,0,0,0-1.662.944v6.929H653.2v-9.826Z" transform="translate(-585.166 -1409.805)" fill="#fff"/>
      <path id="Trazado_102674" data-name="Trazado 102674" d="M667.958,1446.25a4.821,4.821,0,0,1-3.518-1.326,4.711,4.711,0,0,1-1.358-3.532v-.255a5.945,5.945,0,0,1,.572-2.647,4.2,4.2,0,0,1,1.621-1.8,4.549,4.549,0,0,1,2.393-.631,4.079,4.079,0,0,1,3.173,1.271,5.169,5.169,0,0,1,1.158,3.605v1.072h-6.256a2.432,2.432,0,0,0,.767,1.543,2.316,2.316,0,0,0,1.621.58,2.832,2.832,0,0,0,2.369-1.1l1.289,1.443a3.925,3.925,0,0,1-1.6,1.3A5.234,5.234,0,0,1,667.958,1446.25Zm-.3-8.073a1.64,1.64,0,0,0-1.268.529,2.742,2.742,0,0,0-.622,1.514h3.65v-.21a1.958,1.958,0,0,0-.472-1.355A1.691,1.691,0,0,0,667.659,1438.177Z" transform="translate(-584.93 -1409.805)" fill="#fff"/>
      <path id="Trazado_102675" data-name="Trazado 102675" d="M678.577,1443.353a.843.843,0,0,0-.476-.758,5.391,5.391,0,0,0-1.53-.5q-3.5-.736-3.5-2.979a2.7,2.7,0,0,1,1.085-2.183,4.373,4.373,0,0,1,2.837-.876,4.715,4.715,0,0,1,2.992.881,2.776,2.776,0,0,1,1.121,2.288h-2.624a1.267,1.267,0,0,0-.363-.931,1.534,1.534,0,0,0-1.135-.368,1.575,1.575,0,0,0-1.026.3.947.947,0,0,0-.364.763.806.806,0,0,0,.414.7,4.22,4.22,0,0,0,1.394.464,11.5,11.5,0,0,1,1.653.44,2.717,2.717,0,0,1,2.08,2.642,2.562,2.562,0,0,1-1.154,2.175,4.972,4.972,0,0,1-2.979.831,5.208,5.208,0,0,1-2.192-.44,3.685,3.685,0,0,1-1.5-1.207,2.814,2.814,0,0,1-.545-1.658h2.488a1.367,1.367,0,0,0,.517,1.071,2.051,2.051,0,0,0,1.29.373,1.905,1.905,0,0,0,1.14-.286A.891.891,0,0,0,678.577,1443.353Z" transform="translate(-584.698 -1409.805)" fill="#fff"/>
    </g>
    <g id="Grupo_54924" data-name="Grupo 54924" transform="translate(744.051 2007.164)">
      <path id="Trazado_102676" data-name="Trazado 102676" d="M803.463,1408.044l3.4,9.588,3.378-9.588h3.578v13.221h-2.733v-3.615l.272-6.238-3.568,9.852h-1.871l-3.559-9.843.272,6.229v3.615H799.9v-13.221Z" transform="translate(-773.158 -1407.317)" fill="#fff"/>
      <path id="Trazado_102677" data-name="Trazado 102677" d="M820.175,1421.371a4.824,4.824,0,0,1-3.519-1.326,4.711,4.711,0,0,1-1.358-3.531v-.255a5.93,5.93,0,0,1,.572-2.647,4.207,4.207,0,0,1,1.621-1.8,4.547,4.547,0,0,1,2.393-.631,4.08,4.08,0,0,1,3.173,1.271,5.169,5.169,0,0,1,1.158,3.605v1.072h-6.257a2.438,2.438,0,0,0,.768,1.543,2.314,2.314,0,0,0,1.621.582,2.832,2.832,0,0,0,2.369-1.1l1.29,1.443a3.935,3.935,0,0,1-1.6,1.3A5.239,5.239,0,0,1,820.175,1421.371Zm-.3-8.073a1.64,1.64,0,0,0-1.267.529,2.738,2.738,0,0,0-.623,1.514h3.65v-.21a1.954,1.954,0,0,0-.472-1.355A1.691,1.691,0,0,0,819.875,1413.3Z" transform="translate(-772.79 -1407.242)" fill="#fff"/>
      <path id="Trazado_102678" data-name="Trazado 102678" d="M825.062,1416.3a5.921,5.921,0,0,1,1.03-3.66,3.346,3.346,0,0,1,2.82-1.362,3.011,3.011,0,0,1,2.37,1.072v-5.013h2.633v13.948h-2.369l-.127-1.044a3.09,3.09,0,0,1-2.525,1.226,3.337,3.337,0,0,1-2.783-1.366A6.112,6.112,0,0,1,825.062,1416.3Zm2.624.2a3.87,3.87,0,0,0,.481,2.119,1.566,1.566,0,0,0,1.4.737,1.758,1.758,0,0,0,1.717-1.028v-3.883a1.732,1.732,0,0,0-1.7-1.028Q827.687,1413.409,827.686,1416.492Z" transform="translate(-772.556 -1407.334)" fill="#fff"/>
      <path id="Trazado_102679" data-name="Trazado 102679" d="M835.677,1408.91a1.3,1.3,0,0,1,.394-.973,1.7,1.7,0,0,1,2.148,0,1.388,1.388,0,0,1,0,1.953,1.681,1.681,0,0,1-2.134,0A1.287,1.287,0,0,1,835.677,1408.91Zm2.787,12.367h-2.633v-9.825h2.633Z" transform="translate(-772.302 -1407.328)" fill="#fff"/>
      <path id="Trazado_102680" data-name="Trazado 102680" d="M844.606,1419.256a1.718,1.718,0,0,0,1.181-.4,1.4,1.4,0,0,0,.472-1.062h2.461a3.375,3.375,0,0,1-.545,1.83,3.591,3.591,0,0,1-1.466,1.289,4.586,4.586,0,0,1-2.057.459,4.266,4.266,0,0,1-3.324-1.339,5.3,5.3,0,0,1-1.216-3.7v-.172a5.233,5.233,0,0,1,1.208-3.623,4.214,4.214,0,0,1,3.313-1.354,4.137,4.137,0,0,1,2.956,1.049,3.715,3.715,0,0,1,1.13,2.792h-2.461a1.807,1.807,0,0,0-.472-1.246,1.755,1.755,0,0,0-2.583.189,3.871,3.871,0,0,0-.468,2.169v.273a3.931,3.931,0,0,0,.463,2.183A1.6,1.6,0,0,0,844.606,1419.256Z" transform="translate(-772.196 -1407.242)" fill="#fff"/>
      <path id="Trazado_102681" data-name="Trazado 102681" d="M849.964,1408.91a1.292,1.292,0,0,1,.4-.973,1.7,1.7,0,0,1,2.147,0,1.387,1.387,0,0,1-.005,1.953,1.681,1.681,0,0,1-2.134,0A1.286,1.286,0,0,1,849.964,1408.91Zm2.787,12.367h-2.633v-9.825h2.633Z" transform="translate(-771.96 -1407.328)" fill="#fff"/>
      <path id="Trazado_102682" data-name="Trazado 102682" d="M854.4,1416.279a5.821,5.821,0,0,1,.563-2.607,4.115,4.115,0,0,1,1.621-1.77,4.724,4.724,0,0,1,2.455-.627,4.476,4.476,0,0,1,3.247,1.216,4.89,4.89,0,0,1,1.4,3.305l.017.673a5.134,5.134,0,0,1-1.261,3.628,4.893,4.893,0,0,1-6.778,0,5.224,5.224,0,0,1-1.267-3.7Zm2.623.185a3.672,3.672,0,0,0,.527,2.142,1.891,1.891,0,0,0,3,.009,4.018,4.018,0,0,0,.537-2.342,3.632,3.632,0,0,0-.537-2.128,1.739,1.739,0,0,0-1.507-.756,1.715,1.715,0,0,0-1.489.751A4.084,4.084,0,0,0,857.021,1416.464Zm2.534-9.13h2.86l-2.515,2.816h-2.134Z" transform="translate(-771.854 -1407.334)" fill="#fff"/>
      <path id="Trazado_102683" data-name="Trazado 102683" d="M867.483,1411.365l.081,1.135a3.433,3.433,0,0,1,2.825-1.317,2.853,2.853,0,0,1,2.324.917,4.277,4.277,0,0,1,.78,2.742v6.347h-2.624v-6.284a1.706,1.706,0,0,0-.362-1.212,1.63,1.63,0,0,0-1.208-.377,1.8,1.8,0,0,0-1.661.944v6.929h-2.624v-9.825Z" transform="translate(-771.6 -1407.242)" fill="#fff"/>
      <path id="Trazado_102684" data-name="Trazado 102684" d="M779.3,1435.62a7.021,7.021,0,0,0-.945-.073,1.921,1.921,0,0,0-1.952,1.007v6.429h-2.624v-9.826h2.479l.073,1.172a2.431,2.431,0,0,1,2.188-1.354,2.774,2.774,0,0,1,.817.118Z" transform="translate(-773.783 -1406.72)" fill="#fff"/>
      <path id="Trazado_102685" data-name="Trazado 102685" d="M784.769,1443.165a4.824,4.824,0,0,1-3.518-1.326,4.711,4.711,0,0,1-1.358-3.531v-.255a5.93,5.93,0,0,1,.572-2.647,4.2,4.2,0,0,1,1.621-1.8,4.544,4.544,0,0,1,2.393-.631,4.079,4.079,0,0,1,3.173,1.271,5.168,5.168,0,0,1,1.158,3.605v1.072h-6.257a2.437,2.437,0,0,0,.768,1.543,2.314,2.314,0,0,0,1.621.582,2.832,2.832,0,0,0,2.369-1.1l1.289,1.443a3.922,3.922,0,0,1-1.6,1.3A5.231,5.231,0,0,1,784.769,1443.165Zm-.3-8.073a1.641,1.641,0,0,0-1.267.53,2.734,2.734,0,0,0-.622,1.514h3.65v-.21a1.959,1.959,0,0,0-.472-1.355A1.693,1.693,0,0,0,784.469,1435.092Z" transform="translate(-773.637 -1406.72)" fill="#fff"/>
      <path id="Trazado_102686" data-name="Trazado 102686" d="M794.151,1441.05a1.718,1.718,0,0,0,1.181-.4,1.4,1.4,0,0,0,.472-1.062h2.46a3.357,3.357,0,0,1-.545,1.83,3.584,3.584,0,0,1-1.466,1.289,4.583,4.583,0,0,1-2.056.459,4.265,4.265,0,0,1-3.324-1.339,5.3,5.3,0,0,1-1.216-3.7v-.172a5.239,5.239,0,0,1,1.207-3.623,4.217,4.217,0,0,1,3.314-1.354,4.134,4.134,0,0,1,2.955,1.048,3.708,3.708,0,0,1,1.13,2.792H795.8a1.8,1.8,0,0,0-.472-1.246,1.755,1.755,0,0,0-2.583.189,3.878,3.878,0,0,0-.467,2.169v.274a3.922,3.922,0,0,0,.463,2.183A1.6,1.6,0,0,0,794.151,1441.05Z" transform="translate(-773.403 -1406.72)" fill="#fff"/>
      <path id="Trazado_102687" data-name="Trazado 102687" d="M799.127,1437.98a5.833,5.833,0,0,1,.563-2.606,4.128,4.128,0,0,1,1.621-1.77,4.731,4.731,0,0,1,2.456-.627,4.476,4.476,0,0,1,3.247,1.216,4.89,4.89,0,0,1,1.4,3.305l.017.672a5.136,5.136,0,0,1-1.261,3.628,4.892,4.892,0,0,1-6.778.005,5.225,5.225,0,0,1-1.268-3.7Zm2.624.186a3.673,3.673,0,0,0,.527,2.142,1.891,1.891,0,0,0,3,.009,4.018,4.018,0,0,0,.536-2.342,3.638,3.638,0,0,0-.536-2.129,1.743,1.743,0,0,0-1.507-.755,1.713,1.713,0,0,0-1.489.751A4.084,4.084,0,0,0,801.751,1438.166Z" transform="translate(-773.177 -1406.72)" fill="#fff"/>
      <path id="Trazado_102688" data-name="Trazado 102688" d="M812.213,1433.158l.081,1.135a3.431,3.431,0,0,1,2.824-1.317,2.853,2.853,0,0,1,2.325.917,4.282,4.282,0,0,1,.78,2.742v6.347H815.6V1436.7a1.7,1.7,0,0,0-.362-1.212,1.629,1.629,0,0,0-1.208-.377,1.806,1.806,0,0,0-1.662.944v6.929h-2.623v-9.826Z" transform="translate(-772.923 -1406.72)" fill="#fff"/>
      <path id="Trazado_102689" data-name="Trazado 102689" d="M819.568,1437.98a5.82,5.82,0,0,1,.563-2.606,4.122,4.122,0,0,1,1.621-1.77,4.728,4.728,0,0,1,2.456-.627,4.474,4.474,0,0,1,3.246,1.216,4.886,4.886,0,0,1,1.4,3.305l.018.672a5.132,5.132,0,0,1-1.263,3.628,4.892,4.892,0,0,1-6.778.005,5.224,5.224,0,0,1-1.267-3.7Zm2.624.186a3.681,3.681,0,0,0,.526,2.142,1.892,1.892,0,0,0,3,.009,4.018,4.018,0,0,0,.535-2.342,3.638,3.638,0,0,0-.535-2.129,1.743,1.743,0,0,0-1.507-.755,1.715,1.715,0,0,0-1.49.751A4.093,4.093,0,0,0,822.192,1438.166Z" transform="translate(-772.688 -1406.72)" fill="#fff"/>
      <path id="Trazado_102690" data-name="Trazado 102690" d="M834.332,1441.05a1.719,1.719,0,0,0,1.181-.4,1.4,1.4,0,0,0,.472-1.062h2.461a3.366,3.366,0,0,1-.545,1.83,3.591,3.591,0,0,1-1.466,1.289,4.587,4.587,0,0,1-2.057.459,4.264,4.264,0,0,1-3.323-1.339,5.3,5.3,0,0,1-1.217-3.7v-.172a5.234,5.234,0,0,1,1.208-3.623,4.214,4.214,0,0,1,3.313-1.354,4.135,4.135,0,0,1,2.956,1.048,3.716,3.716,0,0,1,1.13,2.792h-2.461a1.808,1.808,0,0,0-.472-1.246,1.755,1.755,0,0,0-2.583.189,3.87,3.87,0,0,0-.468,2.169v.274a3.921,3.921,0,0,0,.464,2.183A1.6,1.6,0,0,0,834.332,1441.05Z" transform="translate(-772.442 -1406.72)" fill="#fff"/>
      <path id="Trazado_102691" data-name="Trazado 102691" d="M839.69,1430.7a1.292,1.292,0,0,1,.4-.973,1.7,1.7,0,0,1,2.147,0,1.387,1.387,0,0,1-.005,1.953,1.682,1.682,0,0,1-2.134,0A1.287,1.287,0,0,1,839.69,1430.7Zm2.787,12.367h-2.633v-9.826h2.633Z" transform="translate(-772.206 -1406.807)" fill="#fff"/>
      <path id="Trazado_102692" data-name="Trazado 102692" d="M846.984,1433.158l.082,1.1a3.454,3.454,0,0,1,2.824-1.28,2.621,2.621,0,0,1,2.606,1.5,3.375,3.375,0,0,1,2.951-1.5,2.934,2.934,0,0,1,2.38.931,4.281,4.281,0,0,1,.78,2.8v6.275h-2.633v-6.265a1.869,1.869,0,0,0-.328-1.222,1.449,1.449,0,0,0-1.153-.386,1.636,1.636,0,0,0-1.634,1.126l.008,6.747h-2.623v-6.257a1.854,1.854,0,0,0-.336-1.235,1.466,1.466,0,0,0-1.145-.381,1.7,1.7,0,0,0-1.616.927v6.946h-2.624v-9.826Z" transform="translate(-772.09 -1406.72)" fill="#fff"/>
      <path id="Trazado_102693" data-name="Trazado 102693" d="M860.228,1430.7a1.3,1.3,0,0,1,.4-.973,1.7,1.7,0,0,1,2.147,0,1.386,1.386,0,0,1,0,1.953,1.682,1.682,0,0,1-2.134,0A1.287,1.287,0,0,1,860.228,1430.7Zm2.788,12.367h-2.633v-9.826h2.633Z" transform="translate(-771.715 -1406.807)" fill="#fff"/>
      <path id="Trazado_102694" data-name="Trazado 102694" d="M869.592,1443.165a4.826,4.826,0,0,1-3.519-1.326,4.714,4.714,0,0,1-1.357-3.531v-.255a5.944,5.944,0,0,1,.571-2.647,4.212,4.212,0,0,1,1.621-1.8,4.549,4.549,0,0,1,2.393-.631,4.078,4.078,0,0,1,3.173,1.271,5.168,5.168,0,0,1,1.158,3.605v1.072h-6.256a2.432,2.432,0,0,0,.767,1.543,2.318,2.318,0,0,0,1.621.582,2.835,2.835,0,0,0,2.37-1.1l1.289,1.443a3.936,3.936,0,0,1-1.6,1.3A5.231,5.231,0,0,1,869.592,1443.165Zm-.3-8.073a1.641,1.641,0,0,0-1.267.53,2.741,2.741,0,0,0-.622,1.514h3.65v-.21a1.949,1.949,0,0,0-.472-1.355A1.691,1.691,0,0,0,869.292,1435.092Z" transform="translate(-771.607 -1406.72)" fill="#fff"/>
      <path id="Trazado_102695" data-name="Trazado 102695" d="M877.295,1433.158l.082,1.135a3.431,3.431,0,0,1,2.824-1.317,2.85,2.85,0,0,1,2.324.917,4.275,4.275,0,0,1,.781,2.742v6.347h-2.624V1436.7a1.7,1.7,0,0,0-.363-1.212,1.625,1.625,0,0,0-1.207-.377,1.806,1.806,0,0,0-1.662.944v6.929h-2.624v-9.826Z" transform="translate(-771.365 -1406.72)" fill="#fff"/>
      <path id="Trazado_102696" data-name="Trazado 102696" d="M888.213,1430.8v2.414h1.68v1.925h-1.68v4.9a1.172,1.172,0,0,0,.209.781,1.052,1.052,0,0,0,.8.236,4.127,4.127,0,0,0,.771-.064v1.988a5.4,5.4,0,0,1-1.589.237,2.506,2.506,0,0,1-2.815-2.788v-5.294h-1.435v-1.925h1.435V1430.8Z" transform="translate(-771.142 -1406.773)" fill="#fff"/>
      <path id="Trazado_102697" data-name="Trazado 102697" d="M890.521,1437.98a5.833,5.833,0,0,1,.563-2.606,4.116,4.116,0,0,1,1.621-1.77,4.731,4.731,0,0,1,2.456-.627,4.474,4.474,0,0,1,3.246,1.216,4.881,4.881,0,0,1,1.4,3.305l.018.672a5.132,5.132,0,0,1-1.263,3.628,4.892,4.892,0,0,1-6.778.005,5.229,5.229,0,0,1-1.267-3.7Zm2.624.186a3.666,3.666,0,0,0,.527,2.142,1.891,1.891,0,0,0,3,.009,4.018,4.018,0,0,0,.535-2.342,3.638,3.638,0,0,0-.535-2.129,1.742,1.742,0,0,0-1.507-.755,1.712,1.712,0,0,0-1.489.751A4.076,4.076,0,0,0,893.145,1438.166Z" transform="translate(-770.99 -1406.72)" fill="#fff"/>
    </g>
    <g id="Grupo_54925" data-name="Grupo 54925" transform="translate(956.051 2018.164)">
      <path id="Trazado_102698" data-name="Trazado 102698" d="M985.992,1433.53h-2.17v4.839H981.1v-13.22h4.912a5.546,5.546,0,0,1,3.614,1.044,3.6,3.6,0,0,1,1.271,2.95,4.07,4.07,0,0,1-.585,2.257,4,4,0,0,1-1.775,1.44l2.86,5.4v.127h-2.923Zm-2.17-2.207h2.2a2.25,2.25,0,0,0,1.589-.522,1.867,1.867,0,0,0,.562-1.44,1.994,1.994,0,0,0-.531-1.47,2.2,2.2,0,0,0-1.63-.537h-2.187Z" transform="translate(-981.098 -1424.422)" fill="#fff"/>
      <path id="Trazado_102699" data-name="Trazado 102699" d="M997.05,1438.475a4.823,4.823,0,0,1-3.518-1.325,4.712,4.712,0,0,1-1.358-3.533v-.254a5.927,5.927,0,0,1,.572-2.647,4.2,4.2,0,0,1,1.621-1.8,4.545,4.545,0,0,1,2.392-.631,4.08,4.08,0,0,1,3.174,1.271,5.17,5.17,0,0,1,1.157,3.605v1.071h-6.256a2.438,2.438,0,0,0,.768,1.544,2.319,2.319,0,0,0,1.621.582,2.832,2.832,0,0,0,2.369-1.1l1.29,1.444a3.943,3.943,0,0,1-1.6,1.3A5.239,5.239,0,0,1,997.05,1438.475Zm-.3-8.072a1.64,1.64,0,0,0-1.267.529,2.735,2.735,0,0,0-.622,1.513h3.65v-.21a1.954,1.954,0,0,0-.472-1.354A1.692,1.692,0,0,0,996.751,1430.4Z" transform="translate(-980.833 -1424.347)" fill="#fff"/>
      <path id="Trazado_102700" data-name="Trazado 102700" d="M1005.92,1435.085l1.826-6.62h2.742l-3.314,9.825h-2.507l-3.313-9.825h2.742Z" transform="translate(-980.613 -1424.343)" fill="#fff"/>
      <path id="Trazado_102701" data-name="Trazado 102701" d="M1015.815,1438.475a4.821,4.821,0,0,1-3.518-1.325,4.712,4.712,0,0,1-1.358-3.533v-.254a5.927,5.927,0,0,1,.572-2.647,4.192,4.192,0,0,1,1.621-1.8,4.543,4.543,0,0,1,2.392-.631,4.082,4.082,0,0,1,3.174,1.271,5.17,5.17,0,0,1,1.157,3.605v1.071H1013.6a2.438,2.438,0,0,0,.768,1.544,2.319,2.319,0,0,0,1.621.582,2.833,2.833,0,0,0,2.369-1.1l1.289,1.444a3.93,3.93,0,0,1-1.6,1.3A5.23,5.23,0,0,1,1015.815,1438.475Zm-.3-8.072a1.642,1.642,0,0,0-1.267.529,2.742,2.742,0,0,0-.623,1.513h3.65v-.21a1.945,1.945,0,0,0-.472-1.354A1.69,1.69,0,0,0,1015.515,1430.4Z" transform="translate(-980.384 -1424.347)" fill="#fff"/>
      <path id="Trazado_102702" data-name="Trazado 102702" d="M1023.868,1438.386h-2.634v-13.947h2.634Z" transform="translate(-980.138 -1424.439)" fill="#fff"/>
      <path id="Trazado_102703" data-name="Trazado 102703" d="M1031.619,1438.294a2.907,2.907,0,0,1-.263-.881,3.174,3.174,0,0,1-2.479,1.062,3.489,3.489,0,0,1-2.393-.834,2.69,2.69,0,0,1-.948-2.107,2.78,2.78,0,0,1,1.157-2.4,5.728,5.728,0,0,1,3.346-.845h1.208v-.562a1.621,1.621,0,0,0-.35-1.09,1.374,1.374,0,0,0-1.1-.408,1.565,1.565,0,0,0-1.04.317,1.081,1.081,0,0,0-.376.871h-2.624a2.639,2.639,0,0,1,.526-1.58,3.482,3.482,0,0,1,1.489-1.14,5.445,5.445,0,0,1,2.161-.413,4.291,4.291,0,0,1,2.883.912,3.2,3.2,0,0,1,1.067,2.565v4.259a4.691,4.691,0,0,0,.389,2.116v.154Zm-2.17-1.825a2.254,2.254,0,0,0,1.071-.259,1.694,1.694,0,0,0,.727-.694v-1.69h-.981q-1.971,0-2.1,1.363l-.008.154a1.048,1.048,0,0,0,.345.808A1.338,1.338,0,0,0,1029.449,1436.469Z" transform="translate(-980.035 -1424.347)" fill="#fff"/>
      <path id="Trazado_102704" data-name="Trazado 102704" d="M1039.75,1436.361a1.718,1.718,0,0,0,1.179-.4,1.4,1.4,0,0,0,.472-1.062h2.461a3.362,3.362,0,0,1-.546,1.829,3.6,3.6,0,0,1-1.466,1.29,4.584,4.584,0,0,1-2.057.458,4.264,4.264,0,0,1-3.323-1.338,5.3,5.3,0,0,1-1.216-3.7v-.172a5.243,5.243,0,0,1,1.207-3.624,4.214,4.214,0,0,1,3.315-1.353,4.135,4.135,0,0,1,2.956,1.049,3.719,3.719,0,0,1,1.13,2.792H1041.4a1.8,1.8,0,0,0-.472-1.246,1.755,1.755,0,0,0-2.583.189,3.875,3.875,0,0,0-.468,2.169v.272a3.916,3.916,0,0,0,.464,2.183A1.6,1.6,0,0,0,1039.75,1436.361Z" transform="translate(-979.802 -1424.347)" fill="#fff"/>
      <path id="Trazado_102705" data-name="Trazado 102705" d="M1045.107,1426.014a1.293,1.293,0,0,1,.4-.972,1.7,1.7,0,0,1,2.147,0,1.388,1.388,0,0,1,0,1.953,1.685,1.685,0,0,1-2.134,0A1.289,1.289,0,0,1,1045.107,1426.014Zm2.788,12.367h-2.633v-9.825h2.633Z" transform="translate(-979.566 -1424.433)" fill="#fff"/>
      <path id="Trazado_102706" data-name="Trazado 102706" d="M1049.541,1433.383a5.833,5.833,0,0,1,.563-2.606,4.122,4.122,0,0,1,1.621-1.77,4.73,4.73,0,0,1,2.457-.627,4.474,4.474,0,0,1,3.246,1.216,4.879,4.879,0,0,1,1.4,3.305l.018.673a5.134,5.134,0,0,1-1.263,3.627,4.893,4.893,0,0,1-6.778,0,5.226,5.226,0,0,1-1.267-3.7Zm2.624.186a3.66,3.66,0,0,0,.527,2.141,1.89,1.89,0,0,0,3,.01,4.019,4.019,0,0,0,.536-2.342,3.638,3.638,0,0,0-.536-2.129,1.742,1.742,0,0,0-1.507-.755,1.71,1.71,0,0,0-1.489.751A4.074,4.074,0,0,0,1052.165,1433.569Zm2.533-9.13h2.861l-2.515,2.815h-2.134Z" transform="translate(-979.46 -1424.439)" fill="#fff"/>
      <path id="Trazado_102707" data-name="Trazado 102707" d="M1062.626,1428.469l.082,1.135a3.429,3.429,0,0,1,2.824-1.317,2.853,2.853,0,0,1,2.324.917,4.284,4.284,0,0,1,.781,2.743v6.346h-2.624v-6.283a1.7,1.7,0,0,0-.363-1.212,1.625,1.625,0,0,0-1.207-.377,1.806,1.806,0,0,0-1.662.944v6.928h-2.624v-9.825Z" transform="translate(-979.206 -1424.347)" fill="#fff"/>
    </g>
    <path id="Trazado_1032438" data-name="Trazado 1032438" d="M0,0V78.291" transform="translate(1001.551 1904.018)" fill="none" stroke="#412976" stroke-width="4"/>
    <path id="Trazado_1032439" data-name="Trazado 1032439" d="M0,0V78.291" transform="translate(808.551 1904.018)" fill="none" stroke="#412976" stroke-width="4"/>
    <path id="Trazado_1032440" data-name="Trazado 1032440" d="M0,0V78.291" transform="translate(599.551 1904.018)" fill="none" stroke="#412976" stroke-width="4"/>
    <path id="Trazado_1032441" data-name="Trazado 1032441" d="M10,0H530a10,10,0,0,1,10,10V39a10,10,0,0,1-10,10H10A10,10,0,0,1,0,39V10A10,10,0,0,1,10,0Z" transform="translate(530.051 1752.164)" fill="#fed401"/>
    <path id="Trazado_1032442" data-name="Trazado 1032442" d="M48.078,17H45.734L41.172,9.516V17H38.828V5.625h2.344l4.57,7.5v-7.5h2.336Zm1.547-4.3a5.013,5.013,0,0,1,.484-2.242A3.546,3.546,0,0,1,51.5,8.93a4.069,4.069,0,0,1,2.113-.539A3.849,3.849,0,0,1,56.41,9.438a4.2,4.2,0,0,1,1.207,2.844l.016.578a4.418,4.418,0,0,1-1.086,3.121,4.209,4.209,0,0,1-5.832,0,4.5,4.5,0,0,1-1.09-3.187Zm2.258.16a3.16,3.16,0,0,0,.453,1.843,1.628,1.628,0,0,0,2.578.008,3.457,3.457,0,0,0,.461-2.015,3.128,3.128,0,0,0-.461-1.831,1.5,1.5,0,0,0-1.3-.649,1.474,1.474,0,0,0-1.281.646A3.516,3.516,0,0,0,51.883,12.856Zm11.891-2.192a6.134,6.134,0,0,0-.812-.062,1.654,1.654,0,0,0-1.68.867V17H59.023V8.547h2.133l.063,1.008A2.092,2.092,0,0,1,63.1,8.391a2.366,2.366,0,0,1,.7.1Zm3.2-2.117.07.945a2.971,2.971,0,0,1,2.43-1.1A2.255,2.255,0,0,1,71.719,9.68a2.9,2.9,0,0,1,2.539-1.289,2.521,2.521,0,0,1,2.047.8,3.681,3.681,0,0,1,.672,2.41V17H74.711V11.609a1.61,1.61,0,0,0-.281-1.051,1.246,1.246,0,0,0-.992-.332,1.409,1.409,0,0,0-1.406.969l.008,5.8H69.781V11.617a1.59,1.59,0,0,0-.289-1.062,1.259,1.259,0,0,0-.984-.328,1.463,1.463,0,0,0-1.391.8V17H64.859V8.547ZM83.609,17a2.507,2.507,0,0,1-.227-.758,2.732,2.732,0,0,1-2.133.914,3,3,0,0,1-2.059-.719,2.312,2.312,0,0,1-.816-1.812,2.389,2.389,0,0,1,1-2.062,4.915,4.915,0,0,1,2.879-.727h1.039v-.484a1.393,1.393,0,0,0-.3-.937,1.183,1.183,0,0,0-.949-.352,1.345,1.345,0,0,0-.895.273.929.929,0,0,0-.324.75H78.563a2.268,2.268,0,0,1,.453-1.359,3,3,0,0,1,1.281-.98,4.669,4.669,0,0,1,1.859-.355,3.689,3.689,0,0,1,2.48.785,2.747,2.747,0,0,1,.918,2.207v3.664a4.041,4.041,0,0,0,.336,1.82V17Zm-1.867-1.57a1.945,1.945,0,0,0,.922-.223,1.462,1.462,0,0,0,.625-.6V13.156h-.844q-1.7,0-1.8,1.172l-.008.133a.9.9,0,0,0,.3.7A1.153,1.153,0,0,0,81.742,15.43Zm8.25-8.961V8.547h1.445V10.2H89.992v4.219a1.007,1.007,0,0,0,.18.672.9.9,0,0,0,.688.2,3.6,3.6,0,0,0,.664-.055v1.711a4.648,4.648,0,0,1-1.367.2,2.156,2.156,0,0,1-2.422-2.4V10.2H86.5V8.547h1.234V6.469ZM95.078,17H92.813V8.547h2.266ZM92.68,6.359a1.112,1.112,0,0,1,.34-.836,1.465,1.465,0,0,1,1.848,0,1.105,1.105,0,0,1,.344.836,1.108,1.108,0,0,1-.348.844,1.448,1.448,0,0,1-1.836,0A1.108,1.108,0,0,1,92.68,6.359Zm7.422,7.883,1.57-5.7h2.359L101.18,17H99.023L96.172,8.547h2.359ZM109.8,17a2.507,2.507,0,0,1-.227-.758,2.732,2.732,0,0,1-2.133.914,3,3,0,0,1-2.059-.719,2.312,2.312,0,0,1-.816-1.812,2.389,2.389,0,0,1,1-2.062,4.915,4.915,0,0,1,2.879-.727h1.039v-.484a1.393,1.393,0,0,0-.3-.937,1.183,1.183,0,0,0-.949-.352,1.345,1.345,0,0,0-.895.273.929.929,0,0,0-.324.75h-2.258a2.268,2.268,0,0,1,.453-1.359,3,3,0,0,1,1.281-.98,4.669,4.669,0,0,1,1.859-.355,3.689,3.689,0,0,1,2.48.785,2.747,2.747,0,0,1,.918,2.207v3.664a4.041,4.041,0,0,0,.336,1.82V17Zm-1.867-1.57a1.945,1.945,0,0,0,.922-.223,1.462,1.462,0,0,0,.625-.6V13.156h-.844q-1.7,0-1.8,1.172l-.008.133a.9.9,0,0,0,.3.7A1.153,1.153,0,0,0,107.938,15.43Zm17.141-2.578a5.07,5.07,0,0,1-.887,3.129,2.843,2.843,0,0,1-2.395,1.176,2.633,2.633,0,0,1-2.07-.891V20.25h-2.258V8.547h2.094l.078.828a2.654,2.654,0,0,1,2.141-.984,2.862,2.862,0,0,1,2.43,1.156,5.207,5.207,0,0,1,.867,3.188Zm-2.258-.164a3.327,3.327,0,0,0-.418-1.82,1.361,1.361,0,0,0-1.215-.641,1.478,1.478,0,0,0-1.461.813V14.5a1.5,1.5,0,0,0,1.477.836Q122.82,15.336,122.82,12.688ZM131.375,17a2.507,2.507,0,0,1-.227-.758,2.732,2.732,0,0,1-2.133.914,3,3,0,0,1-2.059-.719,2.312,2.312,0,0,1-.816-1.812,2.389,2.389,0,0,1,1-2.062,4.915,4.915,0,0,1,2.879-.727h1.039v-.484a1.393,1.393,0,0,0-.3-.937,1.183,1.183,0,0,0-.949-.352,1.345,1.345,0,0,0-.895.273.929.929,0,0,0-.324.75h-2.258a2.268,2.268,0,0,1,.453-1.359,3,3,0,0,1,1.281-.98,4.669,4.669,0,0,1,1.859-.355,3.689,3.689,0,0,1,2.48.785,2.747,2.747,0,0,1,.918,2.207v3.664a4.041,4.041,0,0,0,.336,1.82V17Zm-1.867-1.57a1.945,1.945,0,0,0,.922-.223,1.462,1.462,0,0,0,.625-.6V13.156h-.844q-1.7,0-1.8,1.172l-.008.133a.9.9,0,0,0,.3.7A1.153,1.153,0,0,0,129.508,15.43Zm10.3-4.766a6.134,6.134,0,0,0-.812-.062,1.654,1.654,0,0,0-1.68.867V17h-2.258V8.547h2.133l.063,1.008a2.092,2.092,0,0,1,1.883-1.164,2.366,2.366,0,0,1,.7.1ZM145.555,17a2.507,2.507,0,0,1-.227-.758,2.732,2.732,0,0,1-2.133.914,3,3,0,0,1-2.059-.719,2.312,2.312,0,0,1-.816-1.812,2.389,2.389,0,0,1,1-2.062,4.915,4.915,0,0,1,2.879-.727h1.039v-.484a1.393,1.393,0,0,0-.3-.937,1.183,1.183,0,0,0-.949-.352,1.345,1.345,0,0,0-.895.273.929.929,0,0,0-.324.75h-2.258a2.268,2.268,0,0,1,.453-1.359,3,3,0,0,1,1.281-.98,4.669,4.669,0,0,1,1.859-.355,3.689,3.689,0,0,1,2.48.785,2.747,2.747,0,0,1,.918,2.207v3.664a4.041,4.041,0,0,0,.336,1.82V17Zm-1.867-1.57a1.945,1.945,0,0,0,.922-.223,1.462,1.462,0,0,0,.625-.6V13.156h-.844q-1.7,0-1.8,1.172l-.008.133a.9.9,0,0,0,.3.7A1.153,1.153,0,0,0,143.688,15.43ZM155.6,17h-2.266V5H155.6Zm6.758,0a2.507,2.507,0,0,1-.227-.758,2.732,2.732,0,0,1-2.133.914,3,3,0,0,1-2.059-.719,2.312,2.312,0,0,1-.816-1.812,2.389,2.389,0,0,1,1-2.062A4.915,4.915,0,0,1,161,11.836h1.039v-.484a1.393,1.393,0,0,0-.3-.937,1.183,1.183,0,0,0-.949-.352,1.345,1.345,0,0,0-.895.273.929.929,0,0,0-.324.75h-2.258a2.268,2.268,0,0,1,.453-1.359,3,3,0,0,1,1.281-.98,4.669,4.669,0,0,1,1.859-.355,3.689,3.689,0,0,1,2.48.785,2.747,2.747,0,0,1,.918,2.207v3.664a4.041,4.041,0,0,0,.336,1.82V17Zm-1.867-1.57a1.945,1.945,0,0,0,.922-.223,1.462,1.462,0,0,0,.625-.6V13.156H161.2q-1.7,0-1.8,1.172l-.008.133a.9.9,0,0,0,.3.7A1.153,1.153,0,0,0,160.492,15.43ZM174.922,17a2.507,2.507,0,0,1-.227-.758,2.732,2.732,0,0,1-2.133.914,3,3,0,0,1-2.059-.719,2.312,2.312,0,0,1-.816-1.812,2.389,2.389,0,0,1,1-2.062,4.915,4.915,0,0,1,2.879-.727H174.6v-.484a1.393,1.393,0,0,0-.3-.937,1.183,1.183,0,0,0-.949-.352,1.345,1.345,0,0,0-.895.273.929.929,0,0,0-.324.75h-2.258a2.268,2.268,0,0,1,.453-1.359,3,3,0,0,1,1.281-.98,4.669,4.669,0,0,1,1.859-.355,3.689,3.689,0,0,1,2.48.785,2.747,2.747,0,0,1,.918,2.207v3.664a4.041,4.041,0,0,0,.336,1.82V17Zm-1.867-1.57a1.945,1.945,0,0,0,.922-.223,1.462,1.462,0,0,0,.625-.6V13.156h-.844q-1.7,0-1.8,1.172l-.008.133a.9.9,0,0,0,.3.7A1.153,1.153,0,0,0,173.055,15.43Zm13.156-2.578a5.07,5.07,0,0,1-.887,3.129,2.843,2.843,0,0,1-2.395,1.176,2.633,2.633,0,0,1-2.07-.891V20.25H178.6V8.547H180.7l.078.828a2.654,2.654,0,0,1,2.141-.984,2.862,2.862,0,0,1,2.43,1.156,5.207,5.207,0,0,1,.867,3.188Zm-2.258-.164a3.327,3.327,0,0,0-.418-1.82,1.361,1.361,0,0,0-1.215-.641,1.479,1.479,0,0,0-1.461.813V14.5a1.5,1.5,0,0,0,1.477.836Q183.953,15.336,183.953,12.688ZM189.992,17h-2.266V5h2.266Zm4.242,0h-2.266V8.547h2.266Zm-2.4-10.641a1.112,1.112,0,0,1,.34-.836,1.465,1.465,0,0,1,1.848,0,1.105,1.105,0,0,1,.344.836,1.109,1.109,0,0,1-.348.844,1.448,1.448,0,0,1-1.836,0A1.109,1.109,0,0,1,191.836,6.359Zm7.773,8.977a1.481,1.481,0,0,0,1.016-.344,1.2,1.2,0,0,0,.406-.914h2.117a2.9,2.9,0,0,1-.469,1.574,3.093,3.093,0,0,1-1.262,1.109,3.949,3.949,0,0,1-1.77.395A3.67,3.67,0,0,1,196.789,16a4.56,4.56,0,0,1-1.047-3.184v-.148a4.508,4.508,0,0,1,1.039-3.117,3.627,3.627,0,0,1,2.852-1.164,3.555,3.555,0,0,1,2.543.9,3.2,3.2,0,0,1,.973,2.4h-2.117a1.551,1.551,0,0,0-.406-1.072,1.51,1.51,0,0,0-2.223.163,3.333,3.333,0,0,0-.4,1.866v.235a3.375,3.375,0,0,0,.4,1.878A1.377,1.377,0,0,0,199.609,15.336ZM209.336,17a2.507,2.507,0,0,1-.227-.758,2.732,2.732,0,0,1-2.133.914,3,3,0,0,1-2.059-.719,2.312,2.312,0,0,1-.816-1.812,2.389,2.389,0,0,1,1-2.062,4.915,4.915,0,0,1,2.879-.727h1.039v-.484a1.393,1.393,0,0,0-.3-.937,1.183,1.183,0,0,0-.949-.352,1.345,1.345,0,0,0-.895.273.929.929,0,0,0-.324.75h-2.258a2.268,2.268,0,0,1,.453-1.359,3,3,0,0,1,1.281-.98,4.669,4.669,0,0,1,1.859-.355,3.689,3.689,0,0,1,2.48.785,2.747,2.747,0,0,1,.918,2.207v3.664a4.041,4.041,0,0,0,.336,1.82V17Zm-1.867-1.57a1.945,1.945,0,0,0,.922-.223,1.462,1.462,0,0,0,.625-.6V13.156h-.844q-1.7,0-1.8,1.172l-.008.133a.9.9,0,0,0,.3.7A1.153,1.153,0,0,0,207.469,15.43Zm9.063-.094a1.481,1.481,0,0,0,1.016-.344,1.2,1.2,0,0,0,.406-.914h2.117a2.9,2.9,0,0,1-.469,1.574,3.093,3.093,0,0,1-1.262,1.109,3.949,3.949,0,0,1-1.77.395A3.67,3.67,0,0,1,213.711,16a4.56,4.56,0,0,1-1.047-3.184v-.148A4.508,4.508,0,0,1,213.7,9.555a3.627,3.627,0,0,1,2.852-1.164,3.555,3.555,0,0,1,2.543.9,3.2,3.2,0,0,1,.973,2.4h-2.117a1.551,1.551,0,0,0-.406-1.072,1.51,1.51,0,0,0-2.223.163,3.333,3.333,0,0,0-.4,1.866v.235a3.375,3.375,0,0,0,.4,1.878A1.377,1.377,0,0,0,216.531,15.336ZM223.742,17h-2.266V8.547h2.266Zm-2.4-10.641a1.112,1.112,0,0,1,.34-.836,1.465,1.465,0,0,1,1.848,0,1.105,1.105,0,0,1,.344.836,1.109,1.109,0,0,1-.348.844,1.448,1.448,0,0,1-1.836,0A1.109,1.109,0,0,1,221.344,6.359ZM225.25,12.7a5.013,5.013,0,0,1,.484-2.242,3.546,3.546,0,0,1,1.395-1.523,4.069,4.069,0,0,1,2.113-.539,3.849,3.849,0,0,1,2.793,1.047,4.2,4.2,0,0,1,1.207,2.844l.016.578a4.418,4.418,0,0,1-1.086,3.121,4.209,4.209,0,0,1-5.832,0,4.5,4.5,0,0,1-1.09-3.187Zm2.258.16a3.16,3.16,0,0,0,.453,1.843,1.628,1.628,0,0,0,2.578.008A3.457,3.457,0,0,0,231,12.691a3.128,3.128,0,0,0-.461-1.831,1.5,1.5,0,0,0-1.3-.649,1.474,1.474,0,0,0-1.281.646A3.516,3.516,0,0,0,227.508,12.856ZM229.688,5h2.461l-2.164,2.422h-1.836Zm7.039,3.547.07.977a2.951,2.951,0,0,1,2.43-1.133,2.453,2.453,0,0,1,2,.789,3.682,3.682,0,0,1,.672,2.359V17h-2.258V11.594a1.465,1.465,0,0,0-.312-1.043,1.4,1.4,0,0,0-1.039-.324,1.553,1.553,0,0,0-1.43.813V17H234.6V8.547Zm10.516,4.164a5.094,5.094,0,0,1,.887-3.148,2.877,2.877,0,0,1,2.426-1.172,2.589,2.589,0,0,1,2.039.922V5h2.266V17H252.82l-.109-.9a2.657,2.657,0,0,1-2.172,1.055,2.869,2.869,0,0,1-2.395-1.176A5.258,5.258,0,0,1,247.242,12.711Zm2.258.168a3.337,3.337,0,0,0,.414,1.823,1.349,1.349,0,0,0,1.2.634,1.511,1.511,0,0,0,1.477-.884V11.111a1.489,1.489,0,0,0-1.461-.884Q249.5,10.227,249.5,12.879Zm11,4.277a4.15,4.15,0,0,1-3.027-1.141,4.054,4.054,0,0,1-1.168-3.039v-.219a5.106,5.106,0,0,1,.492-2.277,3.612,3.612,0,0,1,1.395-1.547,3.914,3.914,0,0,1,2.059-.543,3.508,3.508,0,0,1,2.73,1.094,4.444,4.444,0,0,1,1,3.1v.922h-5.383a2.1,2.1,0,0,0,.66,1.328,2,2,0,0,0,1.395.5,2.437,2.437,0,0,0,2.039-.945l1.109,1.242a3.389,3.389,0,0,1-1.375,1.121A4.511,4.511,0,0,1,260.5,17.156Zm-.258-6.945a1.411,1.411,0,0,0-1.09.455,2.357,2.357,0,0,0-.535,1.3h3.141v-.181a1.681,1.681,0,0,0-.406-1.165A1.456,1.456,0,0,0,260.242,10.211ZM271.625,17h-2.266V8.547h2.266Zm-2.4-10.641a1.112,1.112,0,0,1,.34-.836,1.465,1.465,0,0,1,1.848,0,1.105,1.105,0,0,1,.344.836,1.108,1.108,0,0,1-.348.844,1.448,1.448,0,0,1-1.836,0A1.108,1.108,0,0,1,269.227,6.359Zm6.336,2.188.07.977a2.951,2.951,0,0,1,2.43-1.133,2.453,2.453,0,0,1,2,.789,3.681,3.681,0,0,1,.672,2.359V17h-2.258V11.594a1.465,1.465,0,0,0-.312-1.043,1.4,1.4,0,0,0-1.039-.324,1.553,1.553,0,0,0-1.43.813V17h-2.258V8.547Zm11.461,6.117a.727.727,0,0,0-.41-.652,4.659,4.659,0,0,0-1.316-.426q-3.016-.633-3.016-2.562a2.323,2.323,0,0,1,.934-1.879,3.766,3.766,0,0,1,2.441-.754,4.053,4.053,0,0,1,2.574.758,2.388,2.388,0,0,1,.965,1.969h-2.258a1.092,1.092,0,0,0-.312-.8,1.322,1.322,0,0,0-.977-.316,1.351,1.351,0,0,0-.883.258.814.814,0,0,0-.312.656.7.7,0,0,0,.355.605,3.657,3.657,0,0,0,1.2.4,9.8,9.8,0,0,1,1.422.379,2.336,2.336,0,0,1,1.789,2.273,2.2,2.2,0,0,1-.992,1.871,4.28,4.28,0,0,1-2.562.715,4.47,4.47,0,0,1-1.887-.379,3.166,3.166,0,0,1-1.293-1.039,2.414,2.414,0,0,1-.469-1.426h2.141a1.179,1.179,0,0,0,.445.922,1.766,1.766,0,0,0,1.109.32,1.635,1.635,0,0,0,.98-.246A.766.766,0,0,0,287.023,14.664Zm6.352-8.2V8.547h1.445V10.2h-1.445v4.219a1.007,1.007,0,0,0,.18.672.9.9,0,0,0,.688.2,3.6,3.6,0,0,0,.664-.055v1.711a4.648,4.648,0,0,1-1.367.2,2.156,2.156,0,0,1-2.422-2.4V10.2h-1.234V8.547h1.234V6.469Zm7.453,4.2a6.134,6.134,0,0,0-.812-.062,1.654,1.654,0,0,0-1.68.867V17h-2.258V8.547h2.133l.063,1.008a2.092,2.092,0,0,1,1.883-1.164,2.366,2.366,0,0,1,.7.1Zm6.148,5.477a2.831,2.831,0,0,1-2.312,1.016,2.67,2.67,0,0,1-2.074-.781,3.335,3.335,0,0,1-.73-2.289V8.547h2.258v5.467q0,1.322,1.2,1.322a1.63,1.63,0,0,0,1.578-.8V8.547h2.266V17h-2.125Zm6.008-7.594.07.945a2.971,2.971,0,0,1,2.43-1.1,2.255,2.255,0,0,1,2.242,1.289,2.9,2.9,0,0,1,2.539-1.289,2.521,2.521,0,0,1,2.047.8,3.681,3.681,0,0,1,.672,2.41V17h-2.266V11.609a1.61,1.61,0,0,0-.281-1.051,1.246,1.246,0,0,0-.992-.332,1.409,1.409,0,0,0-1.406.969l.008,5.8h-2.258V11.617a1.59,1.59,0,0,0-.289-1.062,1.259,1.259,0,0,0-.984-.328,1.463,1.463,0,0,0-1.391.8V17h-2.258V8.547Zm15.625,8.609a4.15,4.15,0,0,1-3.027-1.141,4.054,4.054,0,0,1-1.168-3.039v-.219a5.106,5.106,0,0,1,.492-2.277A3.612,3.612,0,0,1,326.3,8.934a3.914,3.914,0,0,1,2.059-.543,3.508,3.508,0,0,1,2.73,1.094,4.444,4.444,0,0,1,1,3.1v.922H326.7a2.1,2.1,0,0,0,.66,1.328,2,2,0,0,0,1.395.5,2.437,2.437,0,0,0,2.039-.945l1.109,1.242a3.389,3.389,0,0,1-1.375,1.121A4.511,4.511,0,0,1,328.609,17.156Zm-.258-6.945a1.411,1.411,0,0,0-1.09.455,2.357,2.357,0,0,0-.535,1.3h3.141v-.181a1.681,1.681,0,0,0-.406-1.165A1.456,1.456,0,0,0,328.352,10.211Zm7.094-1.664.07.977a2.951,2.951,0,0,1,2.43-1.133,2.453,2.453,0,0,1,2,.789,3.681,3.681,0,0,1,.672,2.359V17h-2.258V11.594a1.465,1.465,0,0,0-.312-1.043,1.4,1.4,0,0,0-1.039-.324,1.553,1.553,0,0,0-1.43.813V17H333.32V8.547Zm9.586-2.078V8.547h1.445V10.2h-1.445v4.219a1.007,1.007,0,0,0,.18.672.9.9,0,0,0,.688.2,3.6,3.6,0,0,0,.664-.055v1.711a4.648,4.648,0,0,1-1.367.2,2.156,2.156,0,0,1-2.422-2.4V10.2h-1.234V8.547h1.234V6.469Zm2.117,6.227a5.013,5.013,0,0,1,.484-2.242,3.546,3.546,0,0,1,1.395-1.523,4.069,4.069,0,0,1,2.113-.539,3.849,3.849,0,0,1,2.793,1.047,4.2,4.2,0,0,1,1.207,2.844l.016.578a4.418,4.418,0,0,1-1.086,3.121,4.209,4.209,0,0,1-5.832,0,4.5,4.5,0,0,1-1.09-3.187Zm2.258.16a3.16,3.16,0,0,0,.453,1.843,1.628,1.628,0,0,0,2.578.008,3.458,3.458,0,0,0,.461-2.015,3.128,3.128,0,0,0-.461-1.831,1.5,1.5,0,0,0-1.3-.649,1.474,1.474,0,0,0-1.281.646A3.516,3.516,0,0,0,349.406,12.856Zm11.719,1.808a.727.727,0,0,0-.41-.652,4.659,4.659,0,0,0-1.316-.426q-3.016-.633-3.016-2.562a2.323,2.323,0,0,1,.934-1.879,3.766,3.766,0,0,1,2.441-.754,4.053,4.053,0,0,1,2.574.758,2.388,2.388,0,0,1,.965,1.969h-2.258a1.092,1.092,0,0,0-.312-.8A1.322,1.322,0,0,0,359.75,10a1.351,1.351,0,0,0-.883.258.814.814,0,0,0-.312.656.7.7,0,0,0,.355.605,3.657,3.657,0,0,0,1.2.4,9.8,9.8,0,0,1,1.422.379,2.336,2.336,0,0,1,1.789,2.273,2.2,2.2,0,0,1-.992,1.871,4.28,4.28,0,0,1-2.562.715,4.47,4.47,0,0,1-1.887-.379,3.166,3.166,0,0,1-1.293-1.039,2.414,2.414,0,0,1-.469-1.426h2.141a1.179,1.179,0,0,0,.445.922,1.766,1.766,0,0,0,1.109.32,1.635,1.635,0,0,0,.98-.246A.766.766,0,0,0,361.125,14.664ZM369.3,17V10.2h-1.258V8.547H369.3V8.156a3.17,3.17,0,0,1,.98-2.457,3.945,3.945,0,0,1,2.723-.863,9.031,9.031,0,0,1,2.563.461l-.328,1.867a10,10,0,0,0-1.187-.293,5.835,5.835,0,0,0-.906-.066q-1.578,0-1.578,1.4v.344h1.664V10.2H371.57V17Zm7.32,0h-2.266V8.547h2.266Zm3.945-8.453.07.977a2.951,2.951,0,0,1,2.43-1.133,2.453,2.453,0,0,1,2,.789,3.681,3.681,0,0,1,.672,2.359V17h-2.258V11.594a1.465,1.465,0,0,0-.312-1.043,1.4,1.4,0,0,0-1.039-.324,1.553,1.553,0,0,0-1.43.813V17h-2.258V8.547ZM392.352,17a2.508,2.508,0,0,1-.227-.758,2.732,2.732,0,0,1-2.133.914,3,3,0,0,1-2.059-.719,2.312,2.312,0,0,1-.816-1.812,2.389,2.389,0,0,1,1-2.062,4.915,4.915,0,0,1,2.879-.727h1.039v-.484a1.393,1.393,0,0,0-.3-.937,1.183,1.183,0,0,0-.949-.352,1.345,1.345,0,0,0-.895.273.929.929,0,0,0-.324.75H387.3a2.268,2.268,0,0,1,.453-1.359,3,3,0,0,1,1.281-.98,4.669,4.669,0,0,1,1.859-.355,3.689,3.689,0,0,1,2.48.785,2.747,2.747,0,0,1,.918,2.207v3.664a4.041,4.041,0,0,0,.336,1.82V17Zm-1.867-1.57a1.945,1.945,0,0,0,.922-.223,1.462,1.462,0,0,0,.625-.6V13.156h-.844q-1.7,0-1.8,1.172l-.008.133a.9.9,0,0,0,.3.7A1.153,1.153,0,0,0,390.484,15.43Zm7.625-6.883.07.977a2.951,2.951,0,0,1,2.43-1.133,2.453,2.453,0,0,1,2,.789,3.681,3.681,0,0,1,.672,2.359V17h-2.258V11.594a1.465,1.465,0,0,0-.312-1.043,1.4,1.4,0,0,0-1.039-.324,1.553,1.553,0,0,0-1.43.813V17h-2.258V8.547Zm10.4,6.789a1.481,1.481,0,0,0,1.016-.344,1.2,1.2,0,0,0,.406-.914h2.117a2.9,2.9,0,0,1-.469,1.574,3.093,3.093,0,0,1-1.262,1.109,3.949,3.949,0,0,1-1.77.395A3.67,3.67,0,0,1,405.688,16a4.56,4.56,0,0,1-1.047-3.184v-.148a4.508,4.508,0,0,1,1.039-3.117,3.627,3.627,0,0,1,2.852-1.164,3.555,3.555,0,0,1,2.543.9,3.2,3.2,0,0,1,.973,2.4H409.93a1.551,1.551,0,0,0-.406-1.072,1.51,1.51,0,0,0-2.223.163,3.333,3.333,0,0,0-.4,1.866v.235a3.375,3.375,0,0,0,.4,1.878A1.377,1.377,0,0,0,408.508,15.336ZM415.719,17h-2.266V8.547h2.266Zm-2.4-10.641a1.112,1.112,0,0,1,.34-.836,1.465,1.465,0,0,1,1.848,0,1.105,1.105,0,0,1,.344.836,1.108,1.108,0,0,1-.348.844,1.448,1.448,0,0,1-1.836,0A1.108,1.108,0,0,1,413.32,6.359Zm8.148,10.8a4.15,4.15,0,0,1-3.027-1.141,4.054,4.054,0,0,1-1.168-3.039v-.219a5.106,5.106,0,0,1,.492-2.277,3.612,3.612,0,0,1,1.395-1.547,3.914,3.914,0,0,1,2.059-.543,3.508,3.508,0,0,1,2.73,1.094,4.444,4.444,0,0,1,1,3.1v.922h-5.383a2.1,2.1,0,0,0,.66,1.328,2,2,0,0,0,1.395.5,2.437,2.437,0,0,0,2.039-.945l1.109,1.242a3.389,3.389,0,0,1-1.375,1.121A4.511,4.511,0,0,1,421.469,17.156Zm-.258-6.945a1.411,1.411,0,0,0-1.09.455,2.357,2.357,0,0,0-.535,1.3h3.141v-.181a1.681,1.681,0,0,0-.406-1.165A1.456,1.456,0,0,0,421.211,10.211Zm9.766.453a6.134,6.134,0,0,0-.812-.062,1.654,1.654,0,0,0-1.68.867V17h-2.258V8.547h2.133l.063,1.008A2.092,2.092,0,0,1,430.3,8.391a2.366,2.366,0,0,1,.7.1Zm.453,2.031a5.013,5.013,0,0,1,.484-2.242,3.546,3.546,0,0,1,1.395-1.523,4.069,4.069,0,0,1,2.113-.539,3.849,3.849,0,0,1,2.793,1.047,4.2,4.2,0,0,1,1.207,2.844l.016.578a4.418,4.418,0,0,1-1.086,3.121,4.209,4.209,0,0,1-5.832,0,4.5,4.5,0,0,1-1.09-3.187Zm2.258.16a3.16,3.16,0,0,0,.453,1.843,1.628,1.628,0,0,0,2.578.008,3.458,3.458,0,0,0,.461-2.015,3.128,3.128,0,0,0-.461-1.831,1.5,1.5,0,0,0-1.3-.649,1.474,1.474,0,0,0-1.281.646A3.516,3.516,0,0,0,433.688,12.856Zm11.719,1.808a.727.727,0,0,0-.41-.652,4.659,4.659,0,0,0-1.316-.426q-3.016-.633-3.016-2.562a2.323,2.323,0,0,1,.934-1.879,3.766,3.766,0,0,1,2.441-.754,4.053,4.053,0,0,1,2.574.758,2.388,2.388,0,0,1,.965,1.969H445.32a1.092,1.092,0,0,0-.312-.8,1.322,1.322,0,0,0-.977-.316,1.351,1.351,0,0,0-.883.258.814.814,0,0,0-.312.656.7.7,0,0,0,.355.605,3.657,3.657,0,0,0,1.2.4,9.8,9.8,0,0,1,1.422.379A2.336,2.336,0,0,1,447.6,14.57a2.2,2.2,0,0,1-.992,1.871,4.28,4.28,0,0,1-2.562.715,4.47,4.47,0,0,1-1.887-.379,3.166,3.166,0,0,1-1.293-1.039,2.414,2.414,0,0,1-.469-1.426h2.141a1.179,1.179,0,0,0,.445.922,1.766,1.766,0,0,0,1.109.32,1.635,1.635,0,0,0,.98-.246A.766.766,0,0,0,445.406,14.664Z" transform="translate(557.051 1766.164)" fill="#12263f"/>
  </g>
</svg>
