<svg xmlns="http://www.w3.org/2000/svg" xmlns:xlink="http://www.w3.org/1999/xlink" width="173.5" height="173.5" viewBox="0 0 173.5 173.5">
  <defs>
    <filter id="Trazado_896985" x="0" y="0" width="173.5" height="173.5" filterUnits="userSpaceOnUse">
      <feOffset dy="3" input="SourceAlpha"/>
      <feGaussianBlur stdDeviation="3" result="blur"/>
      <feFlood flood-opacity="0.161"/>
      <feComposite operator="in" in2="blur"/>
      <feComposite in="SourceGraphic"/>
    </filter>
  </defs>
  <g id="Grupo_1176951" data-name="Grupo 1176951" transform="translate(-1198.07 -621.047)">
    <g id="Grupo_1111788" data-name="Grupo 1111788" transform="translate(927.019 -3941.953)">
      <g id="Grupo_1111318" data-name="Grupo 1111318" transform="translate(280.051 4569)">
        <g id="Grupo_1109826" data-name="Grupo 1109826" transform="translate(0 0)">
          <g id="Grupo_1098742" data-name="Grupo 1098742">
            <g transform="matrix(1, 0, 0, 1, -9, -6)" filter="url(#Trazado_896985)">
              <g id="Trazado_896985-2" data-name="Trazado 896985" transform="translate(9 6)" fill="#fd9826" opacity="0.859">
                <path d="M 77.74990081787109 154 C 67.45556640625 154 57.46996307373047 151.9841613769531 48.07046508789062 148.0085144042969 C 43.55267333984375 146.0976715087891 39.19512939453125 143.7324523925781 35.11890029907227 140.9786071777344 C 31.08102607727051 138.2506713867188 27.28392219543457 135.1177673339844 23.83308792114258 131.6669311523438 C 20.38225555419922 128.2161102294922 17.24933815002441 124.4189987182617 14.52140045166016 120.381103515625 C 11.76754665374756 116.3048782348633 9.402359008789062 111.9473571777344 7.49148416519165 107.4295654296875 C 3.515838384628296 98.03004455566406 1.500005006790161 88.04444122314453 1.500005006790161 77.75010681152344 C 1.500005006790161 67.45555877685547 3.515838384628296 57.4699592590332 7.49148416519165 48.07045745849609 C 9.402359008789062 43.55266571044922 11.76754665374756 39.19512557983398 14.52140045166016 35.118896484375 C 17.24933815002441 31.08102035522461 20.38225555419922 27.28391647338867 23.83308792114258 23.83308410644531 C 27.28392219543457 20.38224983215332 31.08102607727051 17.24933242797852 35.11890029907227 14.52139568328857 C 39.19512939453125 11.76754188537598 43.55267333984375 9.40235424041748 48.07046508789062 7.491479396820068 C 57.46996307373047 3.515833377838135 67.45556640625 1.5 77.74990081787109 1.5 C 88.04423522949219 1.5 98.02983856201172 3.515833377838135 107.4293365478516 7.491479396820068 C 111.9471282958984 9.40235424041748 116.3046722412109 11.76754188537598 120.3808975219727 14.52139568328857 C 124.4187774658203 17.24933242797852 128.2158813476562 20.38224983215332 131.6667175292969 23.83308410644531 C 135.1175537109375 27.28391647338867 138.2504577636719 31.08102035522461 140.9783935546875 35.118896484375 C 143.7322540283203 39.19512557983398 146.0974426269531 43.55266571044922 148.0083160400391 48.07045745849609 C 151.9839630126953 57.4699592590332 153.9998016357422 67.45555877685547 153.9998016357422 77.74989318847656 C 153.9998016357422 88.04444122314453 151.9839630126953 98.03004455566406 148.0083160400391 107.4295654296875 C 146.0974426269531 111.9473571777344 143.7322540283203 116.3048782348633 140.9783935546875 120.381103515625 C 138.2504577636719 124.4189987182617 135.1175537109375 128.2161102294922 131.6667175292969 131.6669311523438 C 128.2158813476562 135.1177673339844 124.4187774658203 138.2506713867188 120.3808975219727 140.9786071777344 C 116.3046722412109 143.7324523925781 111.9471282958984 146.0976715087891 107.4293365478516 148.0085144042969 C 98.02983856201172 151.9841613769531 88.04423522949219 154 77.74990081787109 154 Z" stroke="none"/>
                <path d="M 77.74990081787109 3 C 67.65740203857422 3 57.86840057373047 4.9759521484375 48.65479278564453 8.87298583984375 C 44.22618103027344 10.74612426757812 39.95457458496094 13.064697265625 35.95859527587891 15.76432800292969 C 31.99983215332031 18.43882751464844 28.27707672119141 21.51040649414062 24.89372253417969 24.89373779296875 C 21.51040649414062 28.27706146240234 18.43881225585938 31.99982452392578 15.76431274414062 35.95861053466797 C 13.06471252441406 39.95456695556641 10.74612426757812 44.2261962890625 8.872970581054688 48.65478515625 C 4.975936889648438 57.86839294433594 2.999984741210938 67.65739440917969 2.999984741210938 77.75010681152344 C 2.999984741210938 87.84260559082031 4.975936889648438 97.63160705566406 8.872970581054688 106.84521484375 C 10.74612426757812 111.2738037109375 13.06471252441406 115.5454330444336 15.76431274414062 119.541389465332 C 18.43881225585938 123.5001754760742 21.51040649414062 127.2229309082031 24.89372253417969 130.6062622070312 C 28.27707672119141 133.9895935058594 31.99983215332031 137.0611724853516 35.95859527587891 139.7356719970703 C 39.95457458496094 142.435302734375 44.22618103027344 144.7538757324219 48.65479278564453 146.6270141601562 C 57.86840057373047 150.5240478515625 67.65740203857422 152.5 77.74990081787109 152.5 C 87.84239959716797 152.5 97.63140106201172 150.5240478515625 106.8450088500977 146.6270141601562 C 111.2736206054688 144.7538757324219 115.5452270507812 142.435302734375 119.5411834716797 139.7356719970703 C 123.4999694824219 137.0611724853516 127.2227249145508 133.9895935058594 130.6060485839844 130.6062622070312 C 133.9893798828125 127.2229309082031 137.0609741210938 123.5001754760742 139.7354736328125 119.541389465332 C 142.4350891113281 115.5454330444336 144.753662109375 111.2738265991211 146.6268157958984 106.84521484375 C 150.5238342285156 97.63160705566406 152.4997863769531 87.84260559082031 152.4997863769531 77.74989318847656 C 152.4997863769531 67.65739440917969 150.5238342285156 57.86839294433594 146.6268157958984 48.65478515625 C 144.753662109375 44.22617340087891 142.4350891113281 39.95456695556641 139.7354736328125 35.95861053466797 C 137.0609741210938 31.99982452392578 133.9893798828125 28.27706146240234 130.6060485839844 24.89373779296875 C 127.2227249145508 21.51040649414062 123.4999694824219 18.43882751464844 119.5411834716797 15.76432800292969 C 115.5452270507812 13.064697265625 111.2736206054688 10.74612426757812 106.8450088500977 8.87298583984375 C 97.63140106201172 4.9759521484375 87.84239959716797 3 77.74990081787109 3 M 77.74990081787109 0 C 120.6899871826172 0 155.4997863769531 34.80980682373047 155.4997863769531 77.74989318847656 L 155.4997863769531 77.75010681152344 C 155.4997863769531 120.6902008056641 120.6899871826172 155.5 77.74990081787109 155.5 C 34.809814453125 155.5 -1.52587890625e-05 120.6902008056641 -1.52587890625e-05 77.75010681152344 L -1.52587890625e-05 77.74989318847656 C -1.52587890625e-05 34.80980682373047 34.809814453125 0 77.74990081787109 0 Z" stroke="none" fill="#fff"/>
              </g>
            </g>
          </g>
        </g>
      </g>
    </g>
    <g id="money-management_12316750" transform="translate(1235.042 634.137)">
      <g id="Grupo_1176930" data-name="Grupo 1176930" transform="translate(21.859 65.105)">
        <path id="Trazado_1032181" data-name="Trazado 1032181" d="M121.777,245.407h-1.216V233.319h8.306a1.042,1.042,0,0,0,1.045-1.045,1.055,1.055,0,0,0-1.045-1.045h-8.306v-3.383a1.055,1.055,0,0,0-1.045-1.045,1.042,1.042,0,0,0-1.045,1.045v3.383c-12.411-.7-12.411,16.973,0,16.269v12.164h-8.325a1.045,1.045,0,1,0,0,2.091h8.325v3.383a1.031,1.031,0,0,0,1.045,1.045,1.042,1.042,0,0,0,1.045-1.045v-3.383C132.136,262.589,133.352,246.072,121.777,245.407Zm-3.307,0c-9.655.741-9.655-12.829,0-12.088Zm3.307,14.255h-1.216V247.5C129.361,246.623,130.577,259.092,121.777,259.662Z" transform="translate(-109.1 -226.8)" fill="#231f20"/>
      </g>
      <g id="Grupo_1176931" data-name="Grupo 1176931" transform="translate(62.665 79.682)">
        <path id="Trazado_1032182" data-name="Trazado 1032182" d="M334.367,303.5A10.585,10.585,0,0,0,323.8,314.086c.532,14.046,20.66,14.027,21.192,0A10.647,10.647,0,0,0,334.367,303.5Zm5.569,17.011c-5.341,4.79-14.179.741-14.065-6.424a8.489,8.489,0,0,1,8.477-8.5C342.16,305.553,345.866,315.436,339.936,320.511Z" transform="translate(-323.8 -303.5)" fill="#231f20"/>
      </g>
      <g id="Grupo_1176932" data-name="Grupo 1176932" transform="translate(1.386 27.161)">
        <path id="Trazado_1032183" data-name="Trazado 1032183" d="M95.089,84.738c-.019,0-4.352-.456-4.371-.456a19.912,19.912,0,0,0-.893-2.167L92.6,78.732a2.232,2.232,0,0,0-.152-3.041l-4.6-4.619a2.273,2.273,0,0,0-3.041-.152l-3.421,2.756a15.691,15.691,0,0,0-2.167-.893l-.456-4.39A2.265,2.265,0,0,0,76.5,66.378H69.982a2.221,2.221,0,0,0-2.243,2.015l-.456,4.39a16.468,16.468,0,0,0-2.148.893l-3.4-2.756a2.3,2.3,0,0,0-3.06.152l-1.121,1.121L42.746,51.857c5.588-.57,4.752-8.591-.836-8.135,1.958-3.174,3.915-6.348,5.911-9.541a2.323,2.323,0,0,0-.1-2.623,2.471,2.471,0,0,0-2.528-.969,17.293,17.293,0,0,1-12.164-1.559,15.9,15.9,0,0,0-15.243.152c-2.186,1.159-1.273,3.421-.152,5.037,1.958,3.174,3.934,6.348,5.892,9.522-5.588-.437-6.424,7.545-.836,8.135q-7.583,10.349-15.11,20.7C-1.082,83.047-.778,96.883,9.238,106.481a25.942,25.942,0,0,0,18.436,7.66H37.691a25.964,25.964,0,0,0,18.227-7.431l2.737,2.737a2.319,2.319,0,0,0,3.06.171l3.4-2.775a19,19,0,0,0,2.148.893l.456,4.371a2.256,2.256,0,0,0,2.262,2.053H76.5a2.282,2.282,0,0,0,2.262-2.034l.456-4.371a16.469,16.469,0,0,0,2.148-.893l3.421,2.775a2.3,2.3,0,0,0,3.06-.152l4.6-4.618a2.275,2.275,0,0,0,.152-3.041L89.806,98.4a21.87,21.87,0,0,0,.893-2.167l4.333-.456A2.269,2.269,0,0,0,97.1,93.538V87.019a2.255,2.255,0,0,0-2.015-2.281Zm-75.7-51.621a14.156,14.156,0,0,1-.855-1.578.344.344,0,0,1,.171-.475,15.032,15.032,0,0,1,8.5-1.749c4.143.532,5.854,2.718,10.206,3.516a19.464,19.464,0,0,0,8.23-.19.334.334,0,0,1,.361.152.32.32,0,0,1,.019.342c-2.2,3.535-4.39,7.089-6.576,10.624H35.657l1.349-4.105a1.052,1.052,0,0,0-2-.665l-1.578,4.752h-1.92l-2.794-8a1.046,1.046,0,0,0-1.977.684l2.547,7.317H25.964c-2.186-3.535-4.371-7.089-6.576-10.624Zm1.54,14.711a2.008,2.008,0,0,1,2-2h1.1v1.1a1.042,1.042,0,0,0,1.045,1.045,1.055,1.055,0,0,0,1.045-1.045v-1.1h2.7v1.1A1.055,1.055,0,0,0,29.86,47.98a1.042,1.042,0,0,0,1.045-1.045v-1.1h2.718v1.1a1.045,1.045,0,0,0,2.091,0v-1.1h2.718v1.1a1.045,1.045,0,0,0,2.091,0v-1.1h1.939a2,2,0,0,1,0,3.991H22.923a2.02,2.02,0,0,1-2-2ZM37.691,112.05H27.674C9.162,112.05-3.952,90.858,8.06,75.463Q16.641,63.689,25.223,51.9h14.92L56.032,73.7l-2,1.977a2.272,2.272,0,0,0-.152,3.041l2.775,3.4a19,19,0,0,0-.893,2.148l-4.39.456a2.282,2.282,0,0,0-2.034,2.262V93.5a2.254,2.254,0,0,0,2.053,2.243l4.371.456a16.4,16.4,0,0,0,.893,2.167l-2.775,3.4a2.4,2.4,0,0,0,.551,3.44,23.7,23.7,0,0,1-16.744,6.842ZM95.032,93.519a.182.182,0,0,1-.171.171l-5.037.532a1.04,1.04,0,0,0-.893.741,18.817,18.817,0,0,1-.912,2.376c-.266.57-.779,1.273-.247,1.882L91,103.155a.179.179,0,0,1-.038.228L86.366,108a.178.178,0,0,1-.247,0l-3.934-3.193a1.042,1.042,0,0,0-1.159-.114,17.314,17.314,0,0,1-3.06,1.273,1.092,1.092,0,0,0-.741.893L76.71,111.9a.187.187,0,0,1-.19.171H70a.16.16,0,0,1-.171-.171l-.532-5.037a1.063,1.063,0,0,0-.741-.893,17.928,17.928,0,0,1-3.06-1.273,1.035,1.035,0,0,0-1.159.114L60.4,108.021a.179.179,0,0,1-.247-.019l-4.619-4.6a.179.179,0,0,1-.019-.247l3.193-3.934a1.015,1.015,0,0,0,.133-1.121,18.291,18.291,0,0,1-1.273-3.079,1.034,1.034,0,0,0-.893-.76L51.6,93.728a.2.2,0,0,1-.152-.171V87.038a.2.2,0,0,1,.171-.19l5.056-.532a1.018,1.018,0,0,0,.893-.741,14.846,14.846,0,0,1,1.254-3.06,1.074,1.074,0,0,0-.114-1.159l-3.193-3.934a.2.2,0,0,1,.019-.247l2.623-2.623a.019.019,0,0,1,.019-.019l2-2a.2.2,0,0,1,.247,0l3.934,3.193a1.074,1.074,0,0,0,1.159.114,15.994,15.994,0,0,1,3.06-1.273,1.04,1.04,0,0,0,.741-.893l.532-5.075a.166.166,0,0,1,.171-.133h6.519a.155.155,0,0,1,.171.152l.532,5.056a1.04,1.04,0,0,0,.741.893,16.2,16.2,0,0,1,3.06,1.273,1.042,1.042,0,0,0,1.159-.114l3.953-3.193a.179.179,0,0,1,.247.019l4.618,4.618a.2.2,0,0,1,.019.228l-3.212,3.934a1.035,1.035,0,0,0-.114,1.159,15.044,15.044,0,0,1,1.273,3.06,1.092,1.092,0,0,0,.893.741l5.037.532a.2.2,0,0,1,.171.19v6.5Z" transform="translate(-1.386 -27.161)" fill="#231f20"/>
      </g>
      <g id="Grupo_1176933" data-name="Grupo 1176933" transform="translate(20.956 45.832)">
        <path id="Trazado_1032184" data-name="Trazado 1032184" d="M127.851,127.4a2.02,2.02,0,0,1-2,2H106.317a2,2,0,0,1,0-3.991h1.1v1.1a1.042,1.042,0,0,0,1.045,1.045,1.055,1.055,0,0,0,1.045-1.045v-1.1h2.7v1.1a1.055,1.055,0,0,0,1.045,1.045A1.042,1.042,0,0,0,114.3,126.5v-1.1h2.718v1.1a1.045,1.045,0,0,0,2.091,0v-1.1h2.718v1.1a1.045,1.045,0,1,0,2.091,0v-1.1h1.939A2.008,2.008,0,0,1,127.851,127.4Z" transform="translate(-104.35 -125.4)" fill="#e76a81"/>
      </g>
      <g id="Grupo_1176934" data-name="Grupo 1176934" transform="translate(18.473 29.218)">
        <path id="Trazado_1032185" data-name="Trazado 1032185" d="M118.809,41.883c-2.2,3.535-4.39,7.089-6.576,10.624H108.45L109.8,48.4a1.052,1.052,0,0,0-2-.665l-1.578,4.752h-1.92l-2.794-8a1.046,1.046,0,0,0-1.977.684l2.547,7.317H98.757c-2.452-4.086-5.151-8.04-7.431-12.2a.344.344,0,0,1,.171-.475,15.032,15.032,0,0,1,8.5-1.749c4.162.551,5.873,2.737,10.225,3.535a19.464,19.464,0,0,0,8.23-.19A.325.325,0,0,1,118.809,41.883Z" transform="translate(-91.285 -37.984)" fill="#f7d787"/>
      </g>
      <g id="Grupo_1176935" data-name="Grupo 1176935" transform="translate(3.437 51.933)">
        <path id="Trazado_1032186" data-name="Trazado 1032186" d="M62.621,207.372l2.775-3.4A17.528,17.528,0,0,1,64.5,201.8l-4.371-.456a2.268,2.268,0,0,1-2.053-2.243v-6.519a2.282,2.282,0,0,1,2.034-2.262l4.39-.456a18.991,18.991,0,0,1,.893-2.148l-2.775-3.4a2.272,2.272,0,0,1,.152-3.041l2-1.977L48.9,157.5H33.979Q26,168.448,18.033,179.4c-8.078,9.712-7.983,22.18,1.406,31.17a23.808,23.808,0,0,0,16.973,7.07H46.428a23.862,23.862,0,0,0,16.744-6.8,2.43,2.43,0,0,1-.551-3.459ZM43.273,189.278c11.594.665,10.339,17.182-1.216,16.345v3.383a1.042,1.042,0,0,1-1.045,1.045,1.031,1.031,0,0,1-1.045-1.045v-3.383H31.641a1.045,1.045,0,1,1,0-2.091h8.325V191.369c-12.411.7-12.411-16.973,0-16.269v-3.383a1.042,1.042,0,0,1,1.045-1.045,1.055,1.055,0,0,1,1.045,1.045V175.1h8.306a1.055,1.055,0,0,1,1.045,1.045,1.042,1.042,0,0,1-1.045,1.045H42.057v12.088Z" transform="translate(-12.174 -157.5)" fill="#f7d787"/>
      </g>
      <g id="Grupo_1176936" data-name="Grupo 1176936" transform="translate(33.319 85.776)">
        <path id="Trazado_1032187" data-name="Trazado 1032187" d="M176.66,341.726c-.019,3.953-3.459,6.443-7.26,6.044V335.606C173.22,335.187,176.641,337.677,176.66,341.726Z" transform="translate(-169.4 -335.56)" fill="#f7d787"/>
      </g>
      <g id="Grupo_1176937" data-name="Grupo 1176937" transform="translate(23.987 71.594)">
        <path id="Trazado_1032188" data-name="Trazado 1032188" d="M127.541,260.975v12.088C117.886,273.8,117.886,260.234,127.541,260.975Z" transform="translate(-120.3 -260.946)" fill="#f7d787"/>
      </g>
      <g id="Grupo_1176938" data-name="Grupo 1176938" transform="translate(51.413 68.469)">
        <path id="Trazado_1032189" data-name="Trazado 1032189" d="M308.029,262.86l-5.037-.532a1.014,1.014,0,0,1-.893-.741,15.7,15.7,0,0,0-1.273-3.06,1.07,1.07,0,0,1,.114-1.159l3.212-3.934a.175.175,0,0,0-.019-.228l-4.6-4.618a.231.231,0,0,0-.247-.019l-3.953,3.193a1.078,1.078,0,0,1-1.159.114,15.7,15.7,0,0,0-3.06-1.273,1.04,1.04,0,0,1-.741-.893l-.532-5.056a.168.168,0,0,0-.171-.152H283.15a.154.154,0,0,0-.171.133l-.532,5.075a1.04,1.04,0,0,1-.741.893,16,16,0,0,0-3.06,1.273,1.074,1.074,0,0,1-1.159-.114l-3.915-3.174a.2.2,0,0,0-.247,0l-2,2a.019.019,0,0,0-.019.019l-2.623,2.623a.231.231,0,0,0-.019.247l3.193,3.934a1.035,1.035,0,0,1,.114,1.159,14.847,14.847,0,0,0-1.254,3.06,1.04,1.04,0,0,1-.893.741l-5.056.532a.2.2,0,0,0-.171.19v6.519a.2.2,0,0,0,.152.171l5.075.532a1.013,1.013,0,0,1,.893.76,17.663,17.663,0,0,0,1.273,3.079,1.007,1.007,0,0,1-.133,1.121l-3.193,3.934a.179.179,0,0,0,.019.247l4.619,4.6a.231.231,0,0,0,.247.019l3.934-3.212a1.071,1.071,0,0,1,1.159-.114,17.071,17.071,0,0,0,3.06,1.273,1.092,1.092,0,0,1,.741.893l.532,5.037c.019.076.076.171.171.171h6.519a.188.188,0,0,0,.19-.171l.513-5.037a1.063,1.063,0,0,1,.741-.893,17.552,17.552,0,0,0,3.06-1.273,1.009,1.009,0,0,1,1.159.114l3.934,3.193a.178.178,0,0,0,.247,0l4.6-4.619a.207.207,0,0,0,.038-.228l-3.231-3.934c-.608-.7.114-1.5.38-2.167.627-.988.456-2.585,1.673-2.813l5.037-.532a.2.2,0,0,0,.171-.171v-6.519C308.219,262.917,308.124,262.86,308.029,262.86ZM293.356,274.3c-6.728,5.93-17.619.95-17.524-8.021A10.585,10.585,0,0,1,286.4,255.695c9.75-.019,14.331,12.278,6.956,18.607Z" transform="translate(-264.6 -244.5)" fill="#56778f"/>
      </g>
      <g id="Grupo_1176939" data-name="Grupo 1176939" transform="translate(51.337 29.487)">
        <path id="Trazado_1032190" data-name="Trazado 1032190" d="M305.291,39.4H269.94a5.747,5.747,0,0,0-5.74,5.74V63.88a5.735,5.735,0,0,0,5.74,5.74h35.352a5.735,5.735,0,0,0,5.74-5.74V45.14a5.747,5.747,0,0,0-5.74-5.74Zm3.649,24.48a3.65,3.65,0,0,1-3.649,3.649H269.94a3.65,3.65,0,0,1-3.649-3.649V45.14a3.65,3.65,0,0,1,3.649-3.649h35.352a3.65,3.65,0,0,1,3.649,3.649Z" transform="translate(-264.2 -39.4)" fill="#231f20"/>
      </g>
      <g id="Grupo_1176940" data-name="Grupo 1176940" transform="translate(53.428 31.578)">
        <path id="Trazado_1032191" data-name="Trazado 1032191" d="M314.2,50.4H278.849a3.65,3.65,0,0,0-3.649,3.649v18.74a3.65,3.65,0,0,0,3.649,3.649H314.2a3.65,3.65,0,0,0,3.649-3.649V54.049A3.675,3.675,0,0,0,314.2,50.4Zm1.825,22.389a1.825,1.825,0,0,1-1.825,1.825H278.849a1.825,1.825,0,0,1-1.825-1.825V54.049a1.825,1.825,0,0,1,1.825-1.825H314.2a1.825,1.825,0,0,1,1.825,1.825Z" transform="translate(-275.2 -50.4)" fill="#56778f"/>
      </g>
      <g id="Grupo_1176941" data-name="Grupo 1176941" transform="translate(55.252 33.402)">
        <path id="Trazado_1032192" data-name="Trazado 1032192" d="M321.976,60H286.625a1.825,1.825,0,0,0-1.825,1.825v18.74a1.825,1.825,0,0,0,1.825,1.825h35.352a1.825,1.825,0,0,0,1.825-1.825V61.825A1.825,1.825,0,0,0,321.976,60Zm-.266,20.3H286.891V62.091H321.71Z" transform="translate(-284.8 -60)" fill="#231f20"/>
      </g>
      <g id="Grupo_1176942" data-name="Grupo 1176942" transform="translate(57.343 35.493)">
        <path id="Trazado_1032193" data-name="Trazado 1032193" d="M295.8,71V89.208h34.819V71Zm8.477,15.148a1.042,1.042,0,0,1-1.045,1.045H299.62a1.042,1.042,0,0,1-1.045-1.045V82.176a1.042,1.042,0,0,1,1.045-1.045h3.611a1.042,1.042,0,0,1,1.045,1.045Zm7.774,0A1.055,1.055,0,0,1,311,87.193h-3.63a1.055,1.055,0,0,1-1.045-1.045v-9.5a1.042,1.042,0,0,1,1.045-1.045H311a1.042,1.042,0,0,1,1.045,1.045Zm7.774,0a1.042,1.042,0,0,1-1.045,1.045h-3.611a1.042,1.042,0,0,1-1.045-1.045v-6.5a1.042,1.042,0,0,1,1.045-1.045h3.611a1.042,1.042,0,0,1,1.045,1.045Zm7.773,0a1.055,1.055,0,0,1-1.045,1.045h-3.63a1.055,1.055,0,0,1-1.045-1.045V74.06a1.042,1.042,0,0,1,1.045-1.045h3.63A1.042,1.042,0,0,1,327.6,74.06Z" transform="translate(-295.8 -71)" fill="#e5e8f3"/>
      </g>
      <g id="Grupo_1176943" data-name="Grupo 1176943" transform="translate(60.118 45.623)">
        <path id="Trazado_1032194" data-name="Trazado 1032194" d="M315.057,124.3h-3.611a1.042,1.042,0,0,0-1.045,1.045v3.972a1.042,1.042,0,0,0,1.045,1.045h3.611a1.042,1.042,0,0,0,1.045-1.045v-3.972A1.042,1.042,0,0,0,315.057,124.3Zm-1.045,3.972h-1.521v-1.882h1.521Z" transform="translate(-310.4 -124.3)" fill="#231f20"/>
      </g>
      <g id="Grupo_1176944" data-name="Grupo 1176944" transform="translate(62.19 47.714)">
        <path id="Trazado_1032195" data-name="Trazado 1032195" d="M321.3,135.3h1.521v1.882H321.3Z" transform="translate(-321.3 -135.3)" fill="#e76a81"/>
      </g>
      <g id="Grupo_1176945" data-name="Grupo 1176945" transform="translate(67.873 40.093)">
        <path id="Trazado_1032196" data-name="Trazado 1032196" d="M355.876,95.2h-3.63a1.042,1.042,0,0,0-1.045,1.045v9.5a1.055,1.055,0,0,0,1.045,1.045h3.63a1.055,1.055,0,0,0,1.045-1.045v-9.5A1.042,1.042,0,0,0,355.876,95.2Zm-1.045,9.5h-1.54V97.291h1.54Z" transform="translate(-351.2 -95.2)" fill="#231f20"/>
      </g>
      <g id="Grupo_1176946" data-name="Grupo 1176946" transform="translate(69.963 42.183)">
        <path id="Trazado_1032197" data-name="Trazado 1032197" d="M362.2,106.2h1.54v7.412H362.2Z" transform="translate(-362.2 -106.2)" fill="#e76a81"/>
      </g>
      <g id="Grupo_1176947" data-name="Grupo 1176947" transform="translate(75.665 43.095)">
        <path id="Trazado_1032198" data-name="Trazado 1032198" d="M396.857,111h-3.611a1.042,1.042,0,0,0-1.045,1.045v6.5a1.042,1.042,0,0,0,1.045,1.045h3.611a1.042,1.042,0,0,0,1.045-1.045v-6.5A1.03,1.03,0,0,0,396.857,111Zm-1.045,6.5h-1.521v-4.409h1.521Z" transform="translate(-392.2 -111)" fill="#231f20"/>
      </g>
      <g id="Grupo_1176948" data-name="Grupo 1176948" transform="translate(77.756 45.186)">
        <path id="Trazado_1032199" data-name="Trazado 1032199" d="M403.2,122h1.521v4.409H403.2Z" transform="translate(-403.2 -122)" fill="#e76a81"/>
      </g>
      <g id="Grupo_1176949" data-name="Grupo 1176949" transform="translate(83.42 37.508)">
        <path id="Trazado_1032200" data-name="Trazado 1032200" d="M437.676,81.6h-3.63A1.042,1.042,0,0,0,433,82.645V94.733a1.055,1.055,0,0,0,1.045,1.045h3.63a1.055,1.055,0,0,0,1.045-1.045V82.645A1.03,1.03,0,0,0,437.676,81.6ZM436.63,93.688h-1.539v-10h1.539Z" transform="translate(-433 -81.6)" fill="#231f20"/>
      </g>
      <g id="Grupo_1176950" data-name="Grupo 1176950" transform="translate(85.51 39.598)">
        <path id="Trazado_1032201" data-name="Trazado 1032201" d="M444,92.6h1.54v10H444Z" transform="translate(-444 -92.6)" fill="#e76a81"/>
      </g>
    </g>
  </g>
</svg>
