<svg xmlns="http://www.w3.org/2000/svg" xmlns:xlink="http://www.w3.org/1999/xlink" width="173.5" height="173.5" viewBox="0 0 173.5 173.5">
  <defs>
    <filter id="Trazado_896985" x="0" y="0" width="173.5" height="173.5" filterUnits="userSpaceOnUse">
      <feOffset dy="3" input="SourceAlpha"/>
      <feGaussianBlur stdDeviation="3" result="blur"/>
      <feFlood flood-opacity="0.161"/>
      <feComposite operator="in" in2="blur"/>
      <feComposite in="SourceGraphic"/>
    </filter>
  </defs>
  <g id="Grupo_1177023" data-name="Grupo 1177023" transform="translate(8983.98 253.953)">
    <g id="Grupo_1176849" data-name="Grupo 1176849" transform="translate(-9255.031 -4816.953)">
      <g id="Grupo_1111318" data-name="Grupo 1111318" transform="translate(280.051 4569)">
        <g id="Grupo_1109826" data-name="Grupo 1109826" transform="translate(0 0)">
          <g id="Grupo_1098742" data-name="Grupo 1098742">
            <g transform="matrix(1, 0, 0, 1, -9, -6)" filter="url(#Trazado_896985)">
              <g id="Trazado_896985-2" data-name="Trazado 896985" transform="translate(9 6)" fill="#fd9826" opacity="0.859">
                <path d="M 77.74990081787109 154 C 67.45556640625 154 57.46996307373047 151.9841613769531 48.07046508789062 148.0085144042969 C 43.55267333984375 146.0976715087891 39.19512939453125 143.7324523925781 35.11890029907227 140.9786071777344 C 31.08102607727051 138.2506713867188 27.28392219543457 135.1177673339844 23.83308792114258 131.6669311523438 C 20.38225555419922 128.2161102294922 17.24933815002441 124.4189987182617 14.52140045166016 120.381103515625 C 11.76754665374756 116.3048782348633 9.402359008789062 111.9473571777344 7.49148416519165 107.4295654296875 C 3.515838384628296 98.03004455566406 1.500005006790161 88.04444122314453 1.500005006790161 77.75010681152344 C 1.500005006790161 67.45555877685547 3.515838384628296 57.4699592590332 7.49148416519165 48.07045745849609 C 9.402359008789062 43.55266571044922 11.76754665374756 39.19512557983398 14.52140045166016 35.118896484375 C 17.24933815002441 31.08102035522461 20.38225555419922 27.28391647338867 23.83308792114258 23.83308410644531 C 27.28392219543457 20.38224983215332 31.08102607727051 17.24933242797852 35.11890029907227 14.52139568328857 C 39.19512939453125 11.76754188537598 43.55267333984375 9.40235424041748 48.07046508789062 7.491479396820068 C 57.46996307373047 3.515833377838135 67.45556640625 1.5 77.74990081787109 1.5 C 88.04423522949219 1.5 98.02983856201172 3.515833377838135 107.4293365478516 7.491479396820068 C 111.9471282958984 9.40235424041748 116.3046722412109 11.76754188537598 120.3808975219727 14.52139568328857 C 124.4187774658203 17.24933242797852 128.2158813476562 20.38224983215332 131.6667175292969 23.83308410644531 C 135.1175537109375 27.28391647338867 138.2504577636719 31.08102035522461 140.9783935546875 35.118896484375 C 143.7322540283203 39.19512557983398 146.0974426269531 43.55266571044922 148.0083160400391 48.07045745849609 C 151.9839630126953 57.4699592590332 153.9998016357422 67.45555877685547 153.9998016357422 77.74989318847656 C 153.9998016357422 88.04444122314453 151.9839630126953 98.03004455566406 148.0083160400391 107.4295654296875 C 146.0974426269531 111.9473571777344 143.7322540283203 116.3048782348633 140.9783935546875 120.381103515625 C 138.2504577636719 124.4189987182617 135.1175537109375 128.2161102294922 131.6667175292969 131.6669311523438 C 128.2158813476562 135.1177673339844 124.4187774658203 138.2506713867188 120.3808975219727 140.9786071777344 C 116.3046722412109 143.7324523925781 111.9471282958984 146.0976715087891 107.4293365478516 148.0085144042969 C 98.02983856201172 151.9841613769531 88.04423522949219 154 77.74990081787109 154 Z" stroke="none"/>
                <path d="M 77.74990081787109 3 C 67.65740203857422 3 57.86840057373047 4.9759521484375 48.65479278564453 8.87298583984375 C 44.22618103027344 10.74612426757812 39.95457458496094 13.064697265625 35.95859527587891 15.76432800292969 C 31.99983215332031 18.43882751464844 28.27707672119141 21.51040649414062 24.89372253417969 24.89373779296875 C 21.51040649414062 28.27706146240234 18.43881225585938 31.99982452392578 15.76431274414062 35.95861053466797 C 13.06471252441406 39.95456695556641 10.74612426757812 44.2261962890625 8.872970581054688 48.65478515625 C 4.975936889648438 57.86839294433594 2.999984741210938 67.65739440917969 2.999984741210938 77.75010681152344 C 2.999984741210938 87.84260559082031 4.975936889648438 97.63160705566406 8.872970581054688 106.84521484375 C 10.74612426757812 111.2738037109375 13.06471252441406 115.5454330444336 15.76431274414062 119.541389465332 C 18.43881225585938 123.5001754760742 21.51040649414062 127.2229309082031 24.89372253417969 130.6062622070312 C 28.27707672119141 133.9895935058594 31.99983215332031 137.0611724853516 35.95859527587891 139.7356719970703 C 39.95457458496094 142.435302734375 44.22618103027344 144.7538757324219 48.65479278564453 146.6270141601562 C 57.86840057373047 150.5240478515625 67.65740203857422 152.5 77.74990081787109 152.5 C 87.84239959716797 152.5 97.63140106201172 150.5240478515625 106.8450088500977 146.6270141601562 C 111.2736206054688 144.7538757324219 115.5452270507812 142.435302734375 119.5411834716797 139.7356719970703 C 123.4999694824219 137.0611724853516 127.2227249145508 133.9895935058594 130.6060485839844 130.6062622070312 C 133.9893798828125 127.2229309082031 137.0609741210938 123.5001754760742 139.7354736328125 119.541389465332 C 142.4350891113281 115.5454330444336 144.753662109375 111.2738265991211 146.6268157958984 106.84521484375 C 150.5238342285156 97.63160705566406 152.4997863769531 87.84260559082031 152.4997863769531 77.74989318847656 C 152.4997863769531 67.65739440917969 150.5238342285156 57.86839294433594 146.6268157958984 48.65478515625 C 144.753662109375 44.22617340087891 142.4350891113281 39.95456695556641 139.7354736328125 35.95861053466797 C 137.0609741210938 31.99982452392578 133.9893798828125 28.27706146240234 130.6060485839844 24.89373779296875 C 127.2227249145508 21.51040649414062 123.4999694824219 18.43882751464844 119.5411834716797 15.76432800292969 C 115.5452270507812 13.064697265625 111.2736206054688 10.74612426757812 106.8450088500977 8.87298583984375 C 97.63140106201172 4.9759521484375 87.84239959716797 3 77.74990081787109 3 M 77.74990081787109 0 C 120.6899871826172 0 155.4997863769531 34.80980682373047 155.4997863769531 77.74989318847656 L 155.4997863769531 77.75010681152344 C 155.4997863769531 120.6902008056641 120.6899871826172 155.5 77.74990081787109 155.5 C 34.809814453125 155.5 -1.52587890625e-05 120.6902008056641 -1.52587890625e-05 77.75010681152344 L -1.52587890625e-05 77.74989318847656 C -1.52587890625e-05 34.80980682373047 34.809814453125 0 77.74990081787109 0 Z" stroke="none" fill="#fff"/>
              </g>
            </g>
          </g>
        </g>
      </g>
    </g>
    <g id="market-analysis_6151844" transform="translate(-8942.615 -215.588)">
      <g id="Grupo_1177020" data-name="Grupo 1177020" transform="translate(1.464 1.464)">
        <g id="Grupo_1177001" data-name="Grupo 1177001" transform="translate(32.209 76.13)">
          <path id="Trazado_1032275" data-name="Trazado 1032275" d="M184,424h8.784v11.712H184Z" transform="translate(-184 -424)" fill="#ffeaa7"/>
        </g>
        <g id="Grupo_1177002" data-name="Grupo 1177002" transform="translate(17.568 66.907)">
          <path id="Trazado_1032276" data-name="Trazado 1032276" d="M112.784,373.6v20.936H104V373.6a22.18,22.18,0,0,0,8.784,0Z" transform="translate(-104 -373.6)" fill="#ffeaa7"/>
        </g>
        <g id="Grupo_1177003" data-name="Grupo 1177003" transform="translate(2.928 73.202)">
          <path id="Trazado_1032277" data-name="Trazado 1032277" d="M24,408h8.784v14.64H24Z" transform="translate(-24 -408)" fill="#ffeaa7"/>
        </g>
        <g id="Grupo_1177004" data-name="Grupo 1177004" transform="translate(52.705)">
          <path id="Trazado_1032278" data-name="Trazado 1032278" d="M325.281,18.248a4.39,4.39,0,0,1-2.266,3.843c-.016-.02-.037-.038-.055-.059a2.926,2.926,0,0,0-2.072-.856h-5.856a4.393,4.393,0,0,1-4.392-4.392,4.393,4.393,0,0,1-4.392,4.392h-5.856a2.916,2.916,0,0,0-2.126.915,4.392,4.392,0,0,1,2.126-8.235,4.391,4.391,0,0,1,6.546-3.827,4.391,4.391,0,0,1,7.4,0,4.391,4.391,0,0,1,6.546,3.827A4.393,4.393,0,0,1,325.281,18.248Z" transform="translate(-296 -8)" fill="#b27946"/>
        </g>
        <g id="Grupo_1177005" data-name="Grupo 1177005" transform="translate(70.274 81.986)">
          <path id="Trazado_1032279" data-name="Trazado 1032279" d="M400.706,459.574l.079.818a1.462,1.462,0,0,1-1.464,1.464h-5.856A1.464,1.464,0,0,1,392,460.392a4.391,4.391,0,0,1,8.706-.818Z" transform="translate(-392 -456)" fill="#969faa"/>
        </g>
        <g id="Grupo_1177006" data-name="Grupo 1177006" transform="translate(55.633 81.986)">
          <path id="Trazado_1032280" data-name="Trazado 1032280" d="M320.784,460.392a1.462,1.462,0,0,1-1.464,1.464h-5.856A1.464,1.464,0,0,1,312,460.392l.079-.818a4.391,4.391,0,0,1,8.706.818Z" transform="translate(-312 -456)" fill="#969faa"/>
        </g>
        <g id="Grupo_1177007" data-name="Grupo 1177007" transform="translate(55.712 55.633)">
          <path id="Trazado_1032281" data-name="Trazado 1032281" d="M324.064,319.32l-2.928,23.425a4.391,4.391,0,0,0-8.706-.818L315.279,312h17.568l2.849,29.927a4.391,4.391,0,0,0-8.706.818Z" transform="translate(-312.43 -312)" fill="#d3a06c"/>
        </g>
        <g id="Grupo_1177008" data-name="Grupo 1177008" transform="translate(58.562 49.777)">
          <path id="Trazado_1032282" data-name="Trazado 1032282" d="M345.568,282.928v2.928H328v-2.928A2.927,2.927,0,0,0,330.928,280H342.64A2.927,2.927,0,0,0,345.568,282.928Z" transform="translate(-328 -280)" fill="#ef7385"/>
        </g>
        <g id="Grupo_1177009" data-name="Grupo 1177009" transform="translate(52.705 30.461)">
          <path id="Trazado_1032283" data-name="Trazado 1032283" d="M325.281,183.057v1.925H296v-1.925a8.784,8.784,0,0,1,6.654-8.523l.335-.084,3.259,7.6,4.392-4.392,4.392,4.392,3.259-7.6.335.084A8.784,8.784,0,0,1,325.281,183.057Z" transform="translate(-296 -174.45)" fill="#ef7385"/>
        </g>
        <g id="Grupo_1177010" data-name="Grupo 1177010" transform="translate(67.346 29.281)">
          <path id="Trazado_1032284" data-name="Trazado 1032284" d="M383.651,169.18l-3.259,7.6L376,172.392,378.928,168Z" transform="translate(-376 -168)" fill="#ed5565"/>
        </g>
        <g id="Grupo_1177011" data-name="Grupo 1177011" transform="translate(59.694 29.281)">
          <path id="Trazado_1032285" data-name="Trazado 1032285" d="M338.913,168l2.928,4.392-4.392,4.392-3.259-7.6Z" transform="translate(-334.19 -168)" fill="#ed5565"/>
        </g>
        <g id="Grupo_1177012" data-name="Grupo 1177012" transform="translate(43.482 40.993)">
          <path id="Trazado_1032286" data-name="Trazado 1032286" d="M289.96,234.928v2.928a2.927,2.927,0,0,1-2.928,2.928H284.1V239.32a1.464,1.464,0,0,0-1.464-1.464h-5.856a1.464,1.464,0,0,0-1.464,1.464v1.464H263.608V239.32a1.464,1.464,0,0,0-1.464-1.464h-5.856a1.464,1.464,0,0,0-1.464,1.464v1.464H245.6a22.18,22.18,0,0,0,0-8.784h41.432A2.927,2.927,0,0,1,289.96,234.928Z" transform="translate(-245.6 -232)" fill="#ccd1d9"/>
        </g>
        <g id="Grupo_1177013" data-name="Grupo 1177013" transform="translate(0 23.425)">
          <path id="Trazado_1032287" data-name="Trazado 1032287" d="M51.482,153.568A21.963,21.963,0,1,1,29.961,136,22.124,22.124,0,0,1,51.482,153.568Z" transform="translate(-8 -136)" fill="#aab2bd"/>
        </g>
        <g id="Grupo_1177014" data-name="Grupo 1177014" transform="translate(5.856 29.281)">
          <path id="Trazado_1032288" data-name="Trazado 1032288" d="M72.209,181.176v5.856l-2,1a14.551,14.551,0,0,1-1.352,3.265l.708,2.123-4.141,4.141-2.123-.708a14.55,14.55,0,0,1-3.265,1.352l-1,2H53.176l-1-2a14.549,14.549,0,0,1-3.265-1.352l-2.123.708-4.141-4.141.708-2.123A14.551,14.551,0,0,1,42,188.034l-2-1v-5.856l2-1a14.551,14.551,0,0,1,1.352-3.265l-.708-2.123,4.141-4.141,2.123.708A14.55,14.55,0,0,1,52.175,170l1-2h5.856l1,2a14.55,14.55,0,0,1,3.265,1.352l2.123-.708,4.141,4.141-.708,2.123a14.552,14.552,0,0,1,1.352,3.265Z" transform="translate(-40 -168)" fill="#fcd770"/>
        </g>
        <g id="Grupo_1177015" data-name="Grupo 1177015" transform="translate(52.705 46.849)">
          <path id="Trazado_1032289" data-name="Trazado 1032289" d="M304.784,265.464v1.464a2.927,2.927,0,0,1-2.928,2.928h-2.928A2.927,2.927,0,0,1,296,266.928v-1.464A1.464,1.464,0,0,1,297.464,264h5.856A1.464,1.464,0,0,1,304.784,265.464Z" transform="translate(-296 -264)" fill="#f0d0b4"/>
        </g>
        <g id="Grupo_1177016" data-name="Grupo 1177016" transform="translate(73.202 46.849)">
          <path id="Trazado_1032290" data-name="Trazado 1032290" d="M416.784,265.464v1.464a2.927,2.927,0,0,1-2.928,2.928h-2.928A2.927,2.927,0,0,1,408,266.928v-1.464A1.464,1.464,0,0,1,409.464,264h5.856A1.464,1.464,0,0,1,416.784,265.464Z" transform="translate(-408 -264)" fill="#f0d0b4"/>
        </g>
        <g id="Grupo_1177017" data-name="Grupo 1177017" transform="translate(74.666 13.176)">
          <path id="Trazado_1032291" data-name="Trazado 1032291" d="M421.055,80.915a2.928,2.928,0,0,1-2.127,4.941H416V80h2.928a2.926,2.926,0,0,1,2.072.856C421.018,80.877,421.038,80.895,421.055,80.915Z" transform="translate(-416 -80)" fill="#f0d0b4"/>
        </g>
        <g id="Grupo_1177018" data-name="Grupo 1177018" transform="translate(60.026 8.784)">
          <path id="Trazado_1032292" data-name="Trazado 1032292" d="M350.64,66.248v.474a7.315,7.315,0,0,1-3.259,6.09l-.481.322a1.464,1.464,0,0,0-.651,1.217V76.5l-2.928,4.392L340.392,76.5V74.352a1.464,1.464,0,0,0-.651-1.217l-.481-.322A7.315,7.315,0,0,1,336,66.722v-.474l.005-5.856h2.923A4.393,4.393,0,0,0,343.32,56a4.393,4.393,0,0,0,4.392,4.392h2.928Z" transform="translate(-336 -56)" fill="#f0d0b4"/>
        </g>
        <g id="Grupo_1177019" data-name="Grupo 1177019" transform="translate(54.169 13.176)">
          <path id="Trazado_1032293" data-name="Trazado 1032293" d="M309.862,80l-.005,5.856h-2.928a2.928,2.928,0,1,1,0-5.856Z" transform="translate(-304 -80)" fill="#f0d0b4"/>
        </g>
      </g>
      <g id="Grupo_1177021" data-name="Grupo 1177021" transform="translate(0 0)">
        <path id="Trazado_1032294" data-name="Trazado 1032294" d="M100.392,205.856h2.928a1.466,1.466,0,0,1,1.464,1.464h2.928a4.4,4.4,0,0,0-4.392-4.392V200h-2.928v2.928a4.392,4.392,0,0,0,0,8.784h2.928a1.464,1.464,0,0,1,0,2.928h-2.928a1.466,1.466,0,0,1-1.464-1.464H96a4.4,4.4,0,0,0,4.392,4.392V220.5h2.928v-2.928a4.392,4.392,0,1,0,0-8.784h-2.928a1.464,1.464,0,0,1,0-2.928Z" transform="translate(-78.432 -163.399)"/>
        <path id="Trazado_1032295" data-name="Trazado 1032295" d="M59.281,162.435l-2.383.794a16.018,16.018,0,0,0-2.374-.984L53.4,160H45.735l-1.123,2.246a16.038,16.038,0,0,0-2.374.984l-2.383-.794-5.421,5.421.794,2.383a16.04,16.04,0,0,0-.984,2.374L32,173.736V181.4l2.246,1.123a16.058,16.058,0,0,0,.984,2.374l-.794,2.383,5.421,5.421,2.383-.794a16.039,16.039,0,0,0,2.374.984l1.123,2.246H53.4l1.123-2.246a16.061,16.061,0,0,0,2.374-.984l2.383.794,5.421-5.421-.794-2.383a16.039,16.039,0,0,0,.984-2.374l2.246-1.123v-7.666l-2.246-1.123a16.06,16.06,0,0,0-.984-2.374l.794-2.383Zm4.928,13.11v4.046l-1.774.887-.174.626a13.1,13.1,0,0,1-1.217,2.936l-.32.566.628,1.883-2.861,2.861-1.883-.628-.566.32a13.1,13.1,0,0,1-2.936,1.217l-.626.174-.887,1.774H47.545l-.887-1.774-.626-.174a13.1,13.1,0,0,1-2.936-1.217l-.566-.32-1.883.628-2.861-2.861.628-1.883-.32-.566a13.093,13.093,0,0,1-1.217-2.936l-.174-.626-1.774-.887v-4.046l1.774-.887.174-.626a13.111,13.111,0,0,1,1.217-2.936l.32-.566-.628-1.883,2.861-2.861,1.883.628.566-.32a13.094,13.094,0,0,1,2.936-1.217l.626-.174.887-1.774h4.046l.887,1.774.626.174a13.111,13.111,0,0,1,2.936,1.217l.566.32,1.883-.628,2.861,2.861-.628,1.883.32.566a13.1,13.1,0,0,1,1.217,2.936l.174.626Z" transform="translate(-26.144 -130.719)"/>
        <path id="Trazado_1032296" data-name="Trazado 1032296" d="M86.378,40.993H84.914v-.462a10.234,10.234,0,0,0-7.763-9.942L73.2,29.6v-1l.48-.32a8.762,8.762,0,0,0,3.854-6.319h1.522a4.39,4.39,0,0,0,4.07-6.039A5.856,5.856,0,0,0,80.373,6,5.856,5.856,0,0,0,72.956,1.72a5.858,5.858,0,0,0-8.292,0A5.856,5.856,0,0,0,57.246,6a5.856,5.856,0,0,0-2.755,9.916,4.39,4.39,0,0,0,4.07,6.039h1.522a8.762,8.762,0,0,0,3.854,6.319l.481.32v1l-3.95.987a10.233,10.233,0,0,0-7.763,9.942v.462h-6.6a23.426,23.426,0,1,0-28.54,28.54v18.31H14.64V73.2H2.928V90.77H43.921V76.13H32.209V87.842H29.281V69.533A23.512,23.512,0,0,0,46.108,52.705h6.849a4.4,4.4,0,0,0,4.14,2.928h1.464v1.394l-2.838,29.8a5.862,5.862,0,0,0-.09,1.017,2.931,2.931,0,0,0,2.928,2.928h5.856a2.929,2.929,0,0,0,2.92-2.775L68.81,76.221,70.282,88A2.929,2.929,0,0,0,73.2,90.77h5.856a2.931,2.931,0,0,0,2.928-2.928,5.862,5.862,0,0,0-.09-1.017l-2.838-29.8V55.633h1.464a4.4,4.4,0,0,0,4.14-2.928h1.716a4.4,4.4,0,0,0,4.392-4.392V45.385A4.4,4.4,0,0,0,86.378,40.993ZM11.712,87.842H5.856V76.13h5.856Zm23.425-8.784h5.856v8.784H35.137ZM81.986,40.531v.462H74.167L77.293,33.7A7.308,7.308,0,0,1,81.986,40.531ZM68.81,37.207,72.6,40.993H65.024Zm5.628-4.278-1.73,4.036L70.694,34.95l1.69-2.535Zm4.62-13.9H77.594V16.1h1.464a1.464,1.464,0,1,1,0,2.928ZM57.1,17.568A1.466,1.466,0,0,1,58.562,16.1h1.469l0,2.928H58.562A1.466,1.466,0,0,1,57.1,17.568Zm4.4-4.392H58.562a4.364,4.364,0,0,0-2.124.549,2.926,2.926,0,0,1,2.124-4.941h1.464V7.32a2.927,2.927,0,0,1,4.363-2.552l1.206.681.746-1.167a2.927,2.927,0,0,1,4.937,0l.746,1.167,1.206-.681A2.928,2.928,0,0,1,77.594,7.32V8.784h1.464a2.926,2.926,0,0,1,2.124,4.941,4.365,4.365,0,0,0-2.124-.549H73.2a2.931,2.931,0,0,1-2.928-2.928H67.346a2.931,2.931,0,0,1-2.928,2.928Zm1.458,7.8,0-4.868h1.459a5.842,5.842,0,0,0,4.392-1.989A5.842,5.842,0,0,0,73.2,16.1h1.464v4.867a5.844,5.844,0,0,1-2.608,4.873l-.48.32a2.923,2.923,0,0,0-1.3,2.436v1.7L68.81,32.5l-1.464-2.2V28.6a2.923,2.923,0,0,0-1.3-2.436l-.481-.32A5.844,5.844,0,0,1,62.954,20.973Zm2.282,11.443,1.69,2.535-2.014,2.014-1.73-4.036Zm-9.6,8.116A7.308,7.308,0,0,1,60.326,33.7l3.126,7.294H55.633ZM26.353,87.842H20.5V70.091a23.563,23.563,0,0,0,5.856,0Zm-2.928-20.5a20.5,20.5,0,1,1,20.5-20.5A20.52,20.52,0,0,1,23.425,67.346Zm32.209-16.1V49.777H61.49v1.464a1.466,1.466,0,0,1-1.464,1.464H57.1A1.466,1.466,0,0,1,55.633,51.241Zm8.532,1.464h9.288a4.413,4.413,0,0,0,2.676,2.676v.252H61.49v-.252A4.413,4.413,0,0,0,64.166,52.705Zm.252,35.137h-5.85l.058-.609a2.929,2.929,0,0,1,5.793.609Zm8.209-4.69L70.274,64.327V61.49H67.346v2.837L64.993,83.152a5.841,5.841,0,0,0-5.917-.643l2.281-23.947H76.263l2.281,23.947a5.841,5.841,0,0,0-5.917.643Zm3.5,1.762a2.935,2.935,0,0,1,2.863,2.312l.059.616H73.2a2.932,2.932,0,0,1,2.928-2.928Zm5.856-33.673a1.466,1.466,0,0,1-1.464,1.464H77.594a1.466,1.466,0,0,1-1.464-1.464V49.777h5.856Zm5.856-2.928a1.466,1.466,0,0,1-1.464,1.464H84.914a2.931,2.931,0,0,0-2.928-2.928H76.13A2.932,2.932,0,0,0,73.2,49.777H64.418a2.931,2.931,0,0,0-2.928-2.928H55.633a2.931,2.931,0,0,0-2.928,2.928H46.667a23.563,23.563,0,0,0,0-5.856H86.378a1.466,1.466,0,0,1,1.464,1.464Z" transform="translate(0 0)"/>
      </g>
    </g>
  </g>
</svg>
