<svg xmlns="http://www.w3.org/2000/svg" xmlns:xlink="http://www.w3.org/1999/xlink" width="505" height="221" viewBox="0 0 505 221">
  <defs>
    <clipPath id="clip-path">
      <rect id="Rectángulo_404704" data-name="Rectángulo 404704" width="505" height="221" rx="14" transform="translate(915.051 5819)" fill="#5ab4f9"/>
    </clipPath>
  </defs>
  <g id="Enmascarar_grupo_1098732" data-name="Enmascarar grupo 1098732" transform="translate(-915.051 -5819)" clip-path="url(#clip-path)">
    <g id="Grupo_1111609" data-name="Grupo 1111609" transform="translate(735 4892)">
      <rect id="Rectángulo_404528" data-name="Rectángulo 404528" width="505" height="221" rx="14" transform="translate(180.051 927)" fill="#5ab4f9"/>
      <g id="Grupo_63680" data-name="Grupo 63680" transform="translate(-6095.676 -5077.72)">
        <g id="freepik--background-complete--inject-63" transform="translate(6519.32 6020.258)">
          <path id="Trazado_138026" data-name="Trazado 138026" d="M2190.81,6015.307a10.883,10.883,0,0,1-2.172,1.447,11.361,11.361,0,0,1-2.282,1.264,6.841,6.841,0,0,1,2.072-1.608A7.282,7.282,0,0,1,2190.81,6015.307Z" transform="translate(-2186.353 -5999.464)" fill="#fafafa"/>
          <path id="Trazado_138027" data-name="Trazado 138027" d="M2197.889,6042.355a32.71,32.71,0,0,1-7.209,0,16.249,16.249,0,0,1,3.6-.205A15.872,15.872,0,0,1,2197.889,6042.355Z" transform="translate(-2188.52 -6012.912)" fill="#fafafa"/>
          <path id="Trazado_138028" data-name="Trazado 138028" d="M2190.983,6067.9a24.682,24.682,0,0,1-4.488-4.489,12.734,12.734,0,0,1,2.392,2.1A12.358,12.358,0,0,1,2190.983,6067.9Z" transform="translate(-2186.422 -6023.557)" fill="#fafafa"/>
          <path id="Trazado_138029" data-name="Trazado 138029" d="M2529.951,6244.059s-7.37,5.612-.31,13.032a.61.61,0,0,0,.465.194l64.406-.364s5.492-6.166.934-13.27Z" transform="translate(-2356.715 -6113.809)" fill="#6595bf"/>
          <path id="Trazado_138030" data-name="Trazado 138030" d="M2598.177,6256.1c0,.068-8.018.129-17.9.129s-17.9-.061-17.9-.129,7.988-.131,17.9-.131S2598.177,6256.016,2598.177,6256.1Z" transform="translate(-2374.635 -6119.977)" fill="#e0e0e0"/>
          <path id="Trazado_138031" data-name="Trazado 138031" d="M2597.115,6260.739c0,.07-3.765.13-8.418.13s-8.417-.06-8.417-.13,3.769-.129,8.417-.129S2597.115,6260.669,2597.115,6260.739Z" transform="translate(-2383.604 -6122.3)" fill="#e0e0e0"/>
          <path id="Trazado_138032" data-name="Trazado 138032" d="M2647.139,6256.515c-.04,0,.145-.738.344-1.932a26.783,26.783,0,0,0-.09-9.386c-.219-1.188-.419-1.913-.379-1.927a2.012,2.012,0,0,1,.19.5c.1.32.235.8.37,1.393a22.867,22.867,0,0,1,.09,9.457c-.125.594-.245,1.074-.344,1.4A2.1,2.1,0,0,1,2647.139,6256.515Z" transform="translate(-2417.017 -6113.618)" fill="#e0e0e0"/>
          <path id="Trazado_138033" data-name="Trazado 138033" d="M2656.9,6243.47a2.529,2.529,0,0,1,.285.469,5.1,5.1,0,0,1,.29.574c.1.229.225.5.325.789a13.265,13.265,0,0,1,.614,2.137,14.966,14.966,0,0,1,.28,2.707,15.382,15.382,0,0,1-.235,2.715,13.825,13.825,0,0,1-.579,2.147c-.095.3-.22.56-.315.789a6.106,6.106,0,0,1-.279.584,1.973,1.973,0,0,1-.28.469c-.045,0,.315-.714.7-1.9a16.121,16.121,0,0,0,.5-2.126,15.435,15.435,0,0,0-.594-7.459C2657.221,6244.179,2656.851,6243.49,2656.9,6243.47Z" transform="translate(-2421.966 -6113.717)" fill="#e0e0e0"/>
          <path id="Trazado_138034" data-name="Trazado 138034" d="M2551.8,6257.367a1.926,1.926,0,0,1-.3-.43,3.5,3.5,0,0,1-.3-.539,6.594,6.594,0,0,1-.345-.739,11.082,11.082,0,0,1-.629-2.032,11.916,11.916,0,0,1,.07-5.177,11.383,11.383,0,0,1,.684-2,6.031,6.031,0,0,1,.365-.733,3.75,3.75,0,0,1,.314-.529,2.1,2.1,0,0,1,.309-.419c.045,0-.369.649-.819,1.752a12.511,12.511,0,0,0-.12,9.072A17.694,17.694,0,0,1,2551.8,6257.367Z" transform="translate(-2368.43 -6114.369)" fill="#e0e0e0"/>
          <path id="Trazado_138035" data-name="Trazado 138035" d="M2537.585,6258.778a2.522,2.522,0,0,1-.33-.5,5.476,5.476,0,0,1-.339-.6c-.115-.244-.265-.5-.389-.829a13.881,13.881,0,0,1-.734-2.276,14.281,14.281,0,0,1-.129-5.822,13.559,13.559,0,0,1,.634-2.3c.11-.325.245-.6.355-.85a6.1,6.1,0,0,1,.309-.619,2.239,2.239,0,0,1,.31-.5c.045,0-.37.753-.8,2.026a14.968,14.968,0,0,0-.574,2.282,16.217,16.217,0,0,0-.209,2.871,16.7,16.7,0,0,0,.339,2.86,15.419,15.419,0,0,0,.669,2.257C2537.211,6258.04,2537.63,6258.754,2537.585,6258.778Z" transform="translate(-2361.144 -6114.224)" fill="#e0e0e0"/>
          <path id="Trazado_138036" data-name="Trazado 138036" d="M2633.95,6309.48V6321.8H2610.11V6309.48Z" transform="translate(-2398.54 -6146.772)" fill="#6595bf"/>
          <path id="Trazado_138037" data-name="Trazado 138037" d="M2503.61,6314.444v.324a7.055,7.055,0,0,0,7.09,6.61h70.981v-.888h-16.825a6.156,6.156,0,0,1-6.161-6.161h0a6.161,6.161,0,0,1,6.161-6.162h16.85v-1.307l-71.016.239a7.105,7.105,0,0,0-7.1,7.11A1.9,1.9,0,0,1,2503.61,6314.444Z" transform="translate(-2345.202 -6145.46)" fill="#e0e0e0"/>
          <path id="Trazado_138038" data-name="Trazado 138038" d="M2635.9,6322.02c0,.07-4.9.13-10.949.13s-10.944-.061-10.944-.13,4.9-.129,10.944-.129S2635.9,6321.944,2635.9,6322.02Z" transform="translate(-2400.493 -6152.985)" fill="#e0e0e0"/>
          <path id="Trazado_138039" data-name="Trazado 138039" d="M2636.39,6327.58c0,.07-4.638.129-10.36.129s-10.36-.059-10.36-.129,4.638-.13,10.36-.13S2636.39,6327.509,2636.39,6327.58Z" transform="translate(-2401.324 -6155.769)" fill="#e0e0e0"/>
          <path id="Trazado_138040" data-name="Trazado 138040" d="M2639.178,6332.665c0,.071-4.169.13-9.312.13s-9.316-.06-9.316-.13,4.169-.135,9.316-.135S2639.178,6332.59,2639.178,6332.665Z" transform="translate(-2403.768 -6158.313)" fill="#e0e0e0"/>
          <path id="Trazado_138041" data-name="Trazado 138041" d="M2636.349,6317.02c0,.075-4.8.13-10.724.13s-10.724-.055-10.724-.13,4.8-.129,10.724-.129S2636.349,6316.944,2636.349,6317.02Z" transform="translate(-2400.939 -6150.481)" fill="#e0e0e0"/>
          <path id="Trazado_138042" data-name="Trazado 138042" d="M2638.021,6312.03c0,.069-4.273.13-9.546.13s-9.546-.061-9.546-.13,4.273-.13,9.546-.13S2638.021,6311.95,2638.021,6312.03Z" transform="translate(-2402.957 -6147.983)" fill="#e0e0e0"/>
          <path id="Trazado_138043" data-name="Trazado 138043" d="M2517.5,6307.759a15.5,15.5,0,0,0-1.5,1.792,9.1,9.1,0,0,0,.125,10.554,16.114,16.114,0,0,0,1.548,1.758,2.259,2.259,0,0,1-.5-.375,8.23,8.23,0,0,1-1.188-1.273,8.987,8.987,0,0,1-.125-10.769,7.9,7.9,0,0,1,1.153-1.3,2.161,2.161,0,0,1,.484-.39Z" transform="translate(-2350.483 -6145.909)" fill="#f5f5f5"/>
          <path id="Trazado_138044" data-name="Trazado 138044" d="M2512.7,6307.23a15.4,15.4,0,0,0-1.5,1.792,9.14,9.14,0,0,0,.125,10.559,15.7,15.7,0,0,0,1.553,1.758,2.641,2.641,0,0,1-.5-.379,8.254,8.254,0,0,1-1.188-1.273,8.986,8.986,0,0,1-.125-10.769,8.418,8.418,0,0,1,1.153-1.3A2.386,2.386,0,0,1,2512.7,6307.23Z" transform="translate(-2348.079 -6145.645)" fill="#f5f5f5"/>
          <path id="Trazado_138045" data-name="Trazado 138045" d="M2609.32,6307.759a15.451,15.451,0,0,0-1.5,1.792,9.121,9.121,0,0,0,.125,10.554,15.664,15.664,0,0,0,1.553,1.757,2,2,0,0,1-.5-.374,7.944,7.944,0,0,1-1.183-1.273,8.986,8.986,0,0,1-.13-10.769,7.68,7.68,0,0,1,1.158-1.3,2.365,2.365,0,0,1,.474-.39Z" transform="translate(-2396.462 -6145.909)" fill="#f5f5f5"/>
          <path id="Trazado_138046" data-name="Trazado 138046" d="M2604.52,6307.23a15.422,15.422,0,0,0-1.5,1.792,9.141,9.141,0,0,0,.125,10.559,16.257,16.257,0,0,0,1.553,1.758,2.641,2.641,0,0,1-.5-.379,7.712,7.712,0,0,1-1.183-1.273,8.987,8.987,0,0,1-.13-10.77,7.976,7.976,0,0,1,1.158-1.3,2.324,2.324,0,0,1,.475-.389Z" transform="translate(-2394.059 -6145.645)" fill="#f5f5f5"/>
          <path id="Trazado_138047" data-name="Trazado 138047" d="M2533.3,6318.335l-.065-4.992a3.669,3.669,0,0,0-.175-1.293,1.238,1.238,0,0,0-.954-.8,1.9,1.9,0,0,0-2.042.969,4.694,4.694,0,0,0-.5,2.455,34.793,34.793,0,0,0,.195,3.955,4.488,4.488,0,0,0,.464,1.813,1.682,1.682,0,0,0,1.528.918,1.712,1.712,0,0,0,1.333-1.168,5.054,5.054,0,0,0,.215-1.853Z" transform="translate(-2358.206 -6147.618)" fill="#f5f5f5"/>
          <path id="Trazado_138048" data-name="Trazado 138048" d="M2569.257,6322.5c0,.075-5.132.13-11.483.13s-11.483-.055-11.483-.13,5.133-.129,11.483-.129S2569.257,6322.43,2569.257,6322.5Z" transform="translate(-2366.584 -6153.226)" fill="#f5f5f5"/>
          <path id="Trazado_138049" data-name="Trazado 138049" d="M2898.405,6507.718l-.135-11.678h6.361l.22,11.678Z" transform="translate(-2728.06 -6346.362)" fill="#f5f5f5"/>
          <path id="Trazado_138050" data-name="Trazado 138050" d="M2533.326,6287.408a33.375,33.375,0,0,1-5.906,0A33.282,33.282,0,0,1,2533.326,6287.408Z" transform="translate(-2357.135 -6135.653)" fill="#e0e0e0"/>
          <path id="Trazado_138051" data-name="Trazado 138051" d="M2533.326,6291.018a33.421,33.421,0,0,1-5.906,0A33.421,33.421,0,0,1,2533.326,6291.018Z" transform="translate(-2357.135 -6137.461)" fill="#e0e0e0"/>
          <path id="Trazado_138052" data-name="Trazado 138052" d="M2533.326,6294.628a33.328,33.328,0,0,1-5.906,0A33.236,33.236,0,0,1,2533.326,6294.628Z" transform="translate(-2357.135 -6139.269)" fill="#e0e0e0"/>
          <path id="Trazado_138053" data-name="Trazado 138053" d="M2533.326,6298.239a33.421,33.421,0,0,1-5.906,0A33.328,33.328,0,0,1,2533.326,6298.239Z" transform="translate(-2357.135 -6141.077)" fill="#e0e0e0"/>
          <path id="Trazado_138054" data-name="Trazado 138054" d="M2533.326,6301.868a33.19,33.19,0,0,1-5.906,0,33.421,33.421,0,0,1,5.906,0Z" transform="translate(-2357.135 -6142.894)" fill="#e0e0e0"/>
          <path id="Trazado_138055" data-name="Trazado 138055" d="M2526.63,6282.76h70.437a33.069,33.069,0,0,1,0,12.622h-70.152v-.859h4.289a2,2,0,0,0,2.022-1.972v-7.016a2.027,2.027,0,0,0-2-2.027h-4.578Z" transform="translate(-2356.739 -6133.392)" fill="#6595bf"/>
          <path id="Trazado_138056" data-name="Trazado 138056" d="M2558.316,6292.951h1.173a.285.285,0,0,1,.13.03.238.238,0,0,1,.125.219v.075a1.194,1.194,0,0,1-.08.3,3.371,3.371,0,0,1-.733,1.328,1.4,1.4,0,0,1-1,.5h-.14a1.131,1.131,0,0,1-.8-.579,2.6,2.6,0,0,1-.355-1.413,3.55,3.55,0,0,1,.14-1,3.38,3.38,0,0,1,.7-1.364,1.422,1.422,0,0,1,1.059-.563,1.045,1.045,0,0,1,.445.1,1.46,1.46,0,0,1,.689.86.512.512,0,0,1,0,.119.214.214,0,0,1-.035.125.234.234,0,0,1-.215.125h-.1a.216.216,0,0,1-.16-.16h0a1.466,1.466,0,0,0-.139-.28.628.628,0,0,0-.954-.193,2.092,2.092,0,0,0-.639.923,3.283,3.283,0,0,0-.28,1.323,2.348,2.348,0,0,0,.2,1.043.682.682,0,0,0,.614.46.841.841,0,0,0,.569-.341,3.18,3.18,0,0,0,.6-1.093h-.813c-.185-.03-.28-.125-.28-.284a.128.128,0,0,1,0-.085A.264.264,0,0,1,2558.316,6292.951Z" transform="translate(-2371.764 -6137.262)" fill="#fafafa"/>
          <path id="Trazado_138057" data-name="Trazado 138057" d="M2565.473,6290.646l.03.086q.075.261.834,4.369v.06a.239.239,0,0,1-.035.13.234.234,0,0,1-.21.13h-.04a.226.226,0,0,1-.194-.175l-.28-1.447h-1.448l-.7,1.458v.045a.278.278,0,0,1-.219.124.248.248,0,0,1-.135-.04.252.252,0,0,1-.12-.214.188.188,0,0,1,0-.076c.04-.1.115-.259.215-.5q1.5-3.314,1.817-3.915a.266.266,0,0,1,.314-.2.289.289,0,0,1,.186.15Zm-.315,1-.784,1.643h1.1Z" transform="translate(-2374.927 -6137.254)" fill="#fafafa"/>
          <path id="Trazado_138058" data-name="Trazado 138058" d="M2573.471,6295.458h-2.1a.261.261,0,0,1-.135-.04.358.358,0,0,1-.125-.271h0c0-.085.2-1.538.589-4.349a.277.277,0,0,1,0-.09.245.245,0,0,1,.229-.16.272.272,0,0,1,.121.03.241.241,0,0,1,.13.226c0,.194-.065.589-.145,1.193-.24,1.852-.37,2.835-.379,2.936h1.807a.566.566,0,0,1,.135,0,.243.243,0,0,1,.16.239v.08a.3.3,0,0,1-.285.206Z" transform="translate(-2379.011 -6137.292)" fill="#fafafa"/>
          <path id="Trazado_138059" data-name="Trazado 138059" d="M2579.127,6290.674l.03.085c.05.175.324,1.627.829,4.369a.115.115,0,0,1,0,.06.261.261,0,0,1-.245.26h-.04a.226.226,0,0,1-.195-.175l-.28-1.448h-1.448l-.649,1.452a.218.218,0,0,1-.024.046.279.279,0,0,1-.215.125.283.283,0,0,1-.14-.04.254.254,0,0,1-.115-.215.2.2,0,0,1,0-.076l.215-.5c1-2.212,1.623-3.5,1.817-3.915a.278.278,0,0,1,.244-.175.286.286,0,0,1,.215.146Zm-.319,1-.779,1.643h1.1Z" transform="translate(-2381.777 -6137.282)" fill="#fafafa"/>
          <path id="Trazado_138060" data-name="Trazado 138060" d="M2586.386,6293.2l.384,1.064q.33.9.33.958a.25.25,0,0,1-.255.246h0a.229.229,0,0,1-.209-.169l-.04-.111q-.18-.4-.569-1.5l-1.2,1.642a.312.312,0,0,1-.225.136.255.255,0,0,1-.135-.035.227.227,0,0,1-.12-.214v-.05a.586.586,0,0,1,.125-.206c.4-.524.849-1.148,1.338-1.862-.055-.139-.1-.274-.15-.4-.449-1.213-.674-1.837-.674-1.877a.287.287,0,0,1,.031-.13.214.214,0,0,1,.2-.125.256.256,0,0,1,.24.14l.709,1.913,1.413-1.933a.3.3,0,0,1,.224-.12.236.236,0,0,1,.24.229v.025a.242.242,0,0,1,0,.12Z" transform="translate(-2385.641 -6137.302)" fill="#fafafa"/>
          <path id="Trazado_138061" data-name="Trazado 138061" d="M2595.345,6290.6a.224.224,0,0,1,.115.03.243.243,0,0,1,.135.214c-.344,2.747-.539,4.229-.574,4.455a2.719,2.719,0,0,1-.454,1.158,1.643,1.643,0,0,1-2.087.5,1.464,1.464,0,0,1-.749-.655.273.273,0,0,1-.03-.124.22.22,0,0,1,.035-.125.242.242,0,0,1,.215-.131.277.277,0,0,1,.194.1,1.342,1.342,0,0,0,1.088.619,1.077,1.077,0,0,0,.844-.424,2.4,2.4,0,0,0,.469-1.338,1.249,1.249,0,0,1-.314.335,1.288,1.288,0,0,1-.764.25h-.14a1.153,1.153,0,0,1-.809-.58,2.612,2.612,0,0,1-.349-1.417,6.307,6.307,0,0,1,.035-.794c.04-.429.135-1.039.285-1.833a.145.145,0,0,1,0-.069.227.227,0,0,1,.107-.143.229.229,0,0,1,.177-.022l.065.025a.223.223,0,0,1,.125.2c0,.13-.04.455-.115.968a12.558,12.558,0,0,0-.17,1.5,2.936,2.936,0,0,0,.19,1.153.673.673,0,0,0,.629.5.238.238,0,0,0,.085,0,1.127,1.127,0,0,0,.634-.5,3.338,3.338,0,0,0,.529-1.173l.32-2.421a.387.387,0,0,1,.03-.1A.229.229,0,0,1,2595.345,6290.6Z" transform="translate(-2389.322 -6137.315)" fill="#fafafa"/>
          <path id="Trazado_138062" data-name="Trazado 138062" d="M2662.28,6295.351c-.07,0-.13-2.9-.13-6.49s.06-6.491.13-6.491.13,2.9.13,6.491S2662.349,6295.351,2662.28,6295.351Z" transform="translate(-2424.598 -6133.196)" fill="#f5f5f5"/>
          <path id="Trazado_138063" data-name="Trazado 138063" d="M2546.81,6295.351c-.075,0-.13-2.9-.13-6.49s.055-6.491.13-6.491.13,2.9.13,6.491S2546.88,6295.351,2546.81,6295.351Z" transform="translate(-2366.779 -6133.196)" fill="#e0e0e0"/>
          <path id="Trazado_138064" data-name="Trazado 138064" d="M2664.75,6295.351c-.07,0-.13-2.9-.13-6.49s.06-6.491.13-6.491.134,2.9.134,6.491S2664.81,6295.351,2664.75,6295.351Z" transform="translate(-2425.835 -6133.196)" fill="#f5f5f5"/>
          <path id="Trazado_138065" data-name="Trazado 138065" d="M2544.5,6295.351c-.07,0-.13-2.9-.13-6.49s.06-6.491.13-6.491.13,2.9.13,6.491S2544.57,6295.351,2544.5,6295.351Z" transform="translate(-2365.622 -6133.196)" fill="#e0e0e0"/>
          <path id="Trazado_138066" data-name="Trazado 138066" d="M2620.434,6286.7h0l7.449,5.992.065.055h-.085l-1,.26-6.286,1.653h-.025l-5.707-2.417-1.613-.69-.424-.184-.11-.05h0l.11.044.43.176,1.622.668,5.712,2.387h0l6.286-1.637,1-.26v.073l-7.434-6.031h0" transform="translate(-2399.837 -6135.365)" fill="#e0e0e0"/>
          <path id="Trazado_138067" data-name="Trazado 138067" d="M3012.189,6509.479l.4.38.544-.114-.239.5.285.479-.554-.069-.37.414-.1-.545-.515-.225.489-.27Z" transform="translate(-2784.828 -6353.092)" fill="#e0e0e0"/>
          <path id="Trazado_138068" data-name="Trazado 138068" d="M2998.109,6514.22l.28.229.345-.1-.135.335.2.3-.36-.024-.22.284-.09-.35-.34-.125.3-.2Z" transform="translate(-2777.892 -6355.466)" fill="#e0e0e0"/>
          <path id="Trazado_138069" data-name="Trazado 138069" d="M2982.63,6507.414l.439.025.274-.349.11.429.42.155-.375.234-.02.445-.34-.28-.424.119.16-.414Z" transform="translate(-2770.302 -6351.895)" fill="#e0e0e0"/>
          <path id="Trazado_138070" data-name="Trazado 138070" d="M3019.42,6499.229l.444.03.275-.349.11.429.414.155-.375.234-.015.444-.339-.284-.43.125.165-.415Z" transform="translate(-2788.723 -6347.8)" fill="#e0e0e0"/>
          <path id="Trazado_138071" data-name="Trazado 138071" d="M2998.47,6498.765l.285.019.169-.224.075.274.265.1-.24.149-.01.28-.22-.181-.27.081.1-.265Z" transform="translate(-2778.233 -6347.625)" fill="#e0e0e0"/>
          <path id="Trazado_138072" data-name="Trazado 138072" d="M2638.844,6287.042c0,.03-2.411-.05-5.382-.175s-5.377-.254-5.373-.284,2.407.05,5.377.18S2638.844,6287.017,2638.844,6287.042Z" transform="translate(-2407.543 -6135.302)" fill="#e0e0e0"/>
          <path id="Trazado_138073" data-name="Trazado 138073" d="M2582.65,6276.576h-71.441c-.934-2.122-1.163-4.139,0-5.946h71.456A6.928,6.928,0,0,1,2582.65,6276.576Z" transform="translate(-2348.623 -6127.318)" fill="#e0e0e0"/>
          <rect id="Rectángulo_14672" data-name="Rectángulo 14672" width="38.709" height="2.167" transform="translate(177.37 145.009)" fill="#6595bf"/>
          <path id="Trazado_138074" data-name="Trazado 138074" d="M2516.223,6276.761a2.151,2.151,0,0,1-.564-.724,5.251,5.251,0,0,1-.375-4.3,2,2,0,0,1,.429-.809,8.579,8.579,0,0,1-.255.864,5.915,5.915,0,0,0-.189,2.112,6.081,6.081,0,0,0,.554,2.046,6.773,6.773,0,0,1,.4.81Z" transform="translate(-2350.911 -6127.467)" fill="#e0e0e0"/>
          <path id="Trazado_138075" data-name="Trazado 138075" d="M2519.318,6276.761a2.159,2.159,0,0,1-.564-.724,5.227,5.227,0,0,1-.379-4.3,2.183,2.183,0,0,1,.43-.81,6.4,6.4,0,0,1-.255.864,6.146,6.146,0,0,0-.19,2.112,5.859,5.859,0,0,0,.559,2.046,6.74,6.74,0,0,1,.4.81Z" transform="translate(-2352.458 -6127.467)" fill="#e0e0e0"/>
          <path id="Trazado_138076" data-name="Trazado 138076" d="M2649.3,6276.49a8.985,8.985,0,0,0,.03-5.821,5.161,5.161,0,0,1,.729,2.917,5.259,5.259,0,0,1-.758,2.9Z" transform="translate(-2418.164 -6127.338)" fill="#f5f5f5"/>
          <path id="Trazado_138077" data-name="Trazado 138077" d="M2646.611,6276.585c-.075,0,.225-1.273.215-2.85s-.3-2.826-.219-2.847a8.772,8.772,0,0,1,0,5.7Z" transform="translate(-2416.808 -6127.447)" fill="#f5f5f5"/>
          <rect id="Rectángulo_14673" data-name="Rectángulo 14673" width="5.702" height="28.359" transform="matrix(1, -0.005, 0.005, 1, 194.013, 12.008)" fill="#e0e0e0"/>
          <rect id="Rectángulo_14674" data-name="Rectángulo 14674" width="14.758" height="15.657" transform="translate(144.929 11.097) rotate(-0.573)" fill="#6595bf"/>
          <rect id="Rectángulo_14675" data-name="Rectángulo 14675" width="14.758" height="15.657" transform="matrix(1, -0.005, 0.005, 1, 159.334, 12.056)" fill="#f5f5f5"/>
          <path id="Trazado_138078" data-name="Trazado 138078" d="M2475.955,6016.09c9.805.08,19.641,0,29.457-.135a.158.158,0,0,0,.13-.184.166.166,0,0,0-.129-.129q-14.724-.081-29.457.18a.134.134,0,1,0,0,.269Z" transform="translate(-2331.297 -5999.628)" fill="#e0e0e0"/>
          <rect id="Rectángulo_14676" data-name="Rectángulo 14676" width="26.816" height="12.761" transform="matrix(1, -0.005, 0.005, 1, 135.438, 27.602)" fill="#6595bf"/>
          <rect id="Rectángulo_14677" data-name="Rectángulo 14677" width="26.816" height="12.756" transform="matrix(1, -0.005, 0.005, 1, 162.128, 27.453)" fill="#f5f5f5"/>
          <path id="Trazado_138079" data-name="Trazado 138079" d="M2457.495,6045.37c17.814.2,35.688,0,53.5-.265a.16.16,0,0,0,.13-.184.165.165,0,0,0-.13-.13c-17.814-.095-35.693-.084-53.5.31a.135.135,0,1,0,0,.27Z" transform="translate(-2322.054 -6014.209)" fill="#e0e0e0"/>
          <rect id="Rectángulo_14678" data-name="Rectángulo 14678" width="103.888" height="4.573" transform="translate(125.42 40.357)" fill="#e0e0e0"/>
          <rect id="Rectángulo_14679" data-name="Rectángulo 14679" width="4.219" height="15.597" transform="translate(142.43 42.554)" fill="#e0e0e0"/>
          <rect id="Rectángulo_14680" data-name="Rectángulo 14680" width="4.219" height="15.597" transform="translate(205.389 42.554)" fill="#e0e0e0"/>
          <rect id="Rectángulo_14681" data-name="Rectángulo 14681" width="5.702" height="39.003" transform="matrix(1, -0.01, 0.01, 1, 199.605, 0.057)" fill="#6595bf"/>
          <rect id="Rectángulo_14682" data-name="Rectángulo 14682" width="8.857" height="31.609" transform="matrix(1, -0.005, 0.005, 1, 205.328, 8.711)" fill="#f5f5f5"/>
          <path id="Trazado_138080" data-name="Trazado 138080" d="M2606.326,6013a65.489,65.489,0,0,1-8.857,0,31.938,31.938,0,0,1,4.428-.155A33.965,33.965,0,0,1,2606.326,6013Z" transform="translate(-2392.211 -5998.235)" fill="#e0e0e0"/>
          <path id="Trazado_138081" data-name="Trazado 138081" d="M2606.326,6010.335a63.428,63.428,0,0,1-8.857,0,63.428,63.428,0,0,1,8.857,0Z" transform="translate(-2392.211 -5996.903)" fill="#e0e0e0"/>
          <path id="Trazado_138082" data-name="Trazado 138082" d="M2606.326,6054.58a63.628,63.628,0,0,1-8.857,0,65.7,65.7,0,0,1,8.857,0Z" transform="translate(-2392.211 -6019.061)" fill="#e0e0e0"/>
          <path id="Trazado_138083" data-name="Trazado 138083" d="M2606.326,6051.92a64.032,64.032,0,0,1-8.857,0A65.542,65.542,0,0,1,2606.326,6051.92Z" transform="translate(-2392.211 -6017.729)" fill="#e0e0e0"/>
          <path id="Trazado_138084" data-name="Trazado 138084" d="M2606.475,6031.943c-.085,0-.155-3.189-.155-7.119s.07-7.125.155-7.125.149,3.19.149,7.125S2606.56,6031.943,2606.475,6031.943Z" transform="translate(-2396.643 -6000.668)" fill="#e0e0e0"/>
          <rect id="Rectángulo_14683" data-name="Rectángulo 14683" width="9.641" height="23.86" transform="translate(214.211 16.432)" fill="#6595bf"/>
          <path id="Trazado_138085" data-name="Trazado 138085" d="M2591.615,5998.107a1.638,1.638,0,1,1-1.638-1.637h0A1.638,1.638,0,0,1,2591.615,5998.107Z" transform="translate(-2387.639 -5990.039)" fill="#e0e0e0"/>
          <rect id="Rectángulo_14684" data-name="Rectángulo 14684" width="1.014" height="23.201" transform="translate(201.829 12.573)" fill="#e0e0e0"/>
        </g>
        <g id="freepik--Character--inject-63" transform="translate(6524.146 6046.652)">
          <path id="Trazado_138086" data-name="Trazado 138086" d="M2604.007,6559.24h0l-36.987,8.208,41.065,2.562,30.805-9.112h-3.061Z" transform="translate(-2567.02 -6404.402)" fill="#e0e0e0"/>
          <path id="Trazado_138087" data-name="Trazado 138087" d="M2606.351,6555.14l-33.721,8.1v1.663l40.451,1.173,25.014-6.645.08-2.637Z" transform="translate(-2569.829 -6402.35)" fill="#fafafa"/>
          <path id="Trazado_138088" data-name="Trazado 138088" d="M2572.63,6573.033v-1.664l40.042.829.409,2.007Z" transform="translate(-2569.829 -6410.476)" fill="#6595bf"/>
          <path id="Trazado_138089" data-name="Trazado 138089" d="M2652.83,6565.734l25.5-7.274-.08,2.636-25.013,6.645Z" transform="translate(-2609.987 -6404.012)" fill="#e0e0e0"/>
          <path id="Trazado_138090" data-name="Trazado 138090" d="M2235.24,6342.48h.579l1.688.07,6.45.3,23.126,1.158h.11v.11c-.025.808-.05,1.716-.08,2.636v.09l-.085.025-25.008,6.66h-.061l-8.208-.24-32.233-.953h-.11v-1.848h.09l24.464-5.827,6.855-1.618,1.812-.414.464-.1.155-.03-.155.049-.464.121-1.8.45-6.845,1.657-24.464,5.917.09-.11v1.644l-.11-.115,32.243.918,8.2.24h0l25.019-6.63-.085.1c.03-.918.06-1.822.085-2.636l.1.115-23.126-1.244-6.441-.365-1.692-.1C2235.44,6342.5,2235.24,6342.48,2235.24,6342.48Z" transform="translate(-2198.719 -6189.69)" fill="#344154"/>
          <path id="Trazado_138091" data-name="Trazado 138091" d="M2252.01,6356.7a1.276,1.276,0,0,1-.28,0h-.8l-2.966-.045-9.775-.164c-3.82-.066-7.275-.146-9.776-.235-1.253-.045-2.267-.089-2.966-.129l-.8-.05a1.02,1.02,0,0,1-.28-.035,1.351,1.351,0,0,1,.284,0h.8l2.965.045,9.776.16c3.819.064,7.275.15,9.776.239,1.253.046,2.261.085,2.961.125l.8.055a.861.861,0,0,1,.28.035Z" transform="translate(-2210.21 -6196.477)" fill="#344154"/>
          <path id="Trazado_138092" data-name="Trazado 138092" d="M2263,6354.612a.928.928,0,0,1-.28,0h-3.764l-9.776-.161c-3.819-.064-7.28-.149-9.781-.238-1.248-.046-2.262-.085-2.961-.126l-.8-.05a1.736,1.736,0,0,1-.28-.035,1.34,1.34,0,0,1,.28,0h.809l2.961.045,9.781.159c3.815.065,7.275.145,9.775.235,1.249.044,2.262.09,2.961.129l.8.05A1.268,1.268,0,0,1,2263,6354.612Z" transform="translate(-2215.719 -6195.455)" fill="#344154"/>
          <path id="Trazado_138093" data-name="Trazado 138093" d="M2271,6352.256a1.337,1.337,0,0,1-.28,0h-.809l-2.96-.045-9.776-.16c-3.82-.065-7.279-.145-9.781-.234-1.249-.045-2.262-.09-2.961-.129l-.8-.05a1.084,1.084,0,0,1-.28-.035,1.307,1.307,0,0,1,.28,0h.809l2.961.044,9.781.161c3.814.064,7.274.145,9.776.239,1.248.045,2.261.085,2.96.125l.8.049A1.8,1.8,0,0,1,2271,6352.256Z" transform="translate(-2219.719 -6194.253)" fill="#344154"/>
          <path id="Trazado_138094" data-name="Trazado 138094" d="M2279.269,6350.406a.869.869,0,0,1-.284,0h-.8l-2.966-.044-9.775-.159c-3.82-.065-7.274-.151-9.776-.24-1.253-.045-2.262-.084-2.96-.125l-.8-.049a1.631,1.631,0,0,1-.28-.036,1.337,1.337,0,0,1,.28,0h.8l2.966.041,9.776.165c3.819.065,7.274.145,9.776.234,1.253.045,2.267.09,2.965.13l.8.05A1.1,1.1,0,0,1,2279.269,6350.406Z" transform="translate(-2223.86 -6193.328)" fill="#344154"/>
          <path id="Trazado_138095" data-name="Trazado 138095" d="M2330.917,6168.083s19.507-4.768,28.688,2.307c7.324,5.646,12.622,14.917,12.622,14.917l-15.952,20.346,8.9,45.094h-68.945l-11.213-30.16-17.564-20.265s16.161-18.473,20.969-20.735S2330.917,6168.083,2330.917,6168.083Z" transform="translate(-2231.787 -6101.577)" fill="#fd9826"/>
          <path id="Trazado_138096" data-name="Trazado 138096" d="M2419.8,6263.055l.08.064.225.194.854.729,3.145,2.706h.03v.04c-.18,1.578-.4,3.494-.649,5.637l-.155-.1,4.872-2.9.055-.03h.055l5.153,2.377-.18.146-1.238-5.532c0-.055-.035.114.03-.12h0l.03-.035.06-.064.125-.135.249-.265.5-.529.974-1.048,1.9-2.048.08.21-5.647-.539h-.06l-.03-.056-2.751-4.963h.19l-2.277,5.2v.035h-.03l-4.079.753-1.1.2-.29.05h0l.27-.06,1.068-.229,4.124-.864-.055.045,2.227-5.213.085-.194.1.185c.849,1.5,1.777,3.176,2.776,4.948l-.095-.064,5.647.529h.26l-.18.188-1.9,2.053-1,1.048-.5.529-.249.265-.12.136-.065.064-.03.035h0c.065-.23,0-.061.03-.115l1.238,5.536.055.25-.235-.1-5.142-2.4h.11l-4.888,2.876-.185.109.03-.21c.264-2.146.5-4.054.7-5.631v.069l-3.125-2.82-.814-.739-.2-.189Z" transform="translate(-2308.073 -6146.64)" fill="#fafafa"/>
          <path id="Trazado_138097" data-name="Trazado 138097" d="M2236.358,6229.38s-20.97,24.119-29.287,31.01-6.77,20.335-2.167,22.117c1.8.694,28.164-.294,28.164-.294l18.743-30.145Z" transform="translate(-2198.584 -6133.057)" fill="#fd9826"/>
          <g id="Grupo_63192" data-name="Grupo 63192" transform="translate(112.435 100.936)" opacity="0.2">
            <path id="Trazado_138098" data-name="Trazado 138098" d="M2421.224,6272.016c-.239-4.718,6.715-8.048,10.141-7.194-.654-7.129-1.5-19.321.5-26.2,2.192,10.181,3.27,20.97,7.089,30.65" transform="translate(-2421.218 -6238.62)"/>
          </g>
          <path id="Trazado_138099" data-name="Trazado 138099" d="M2432.279,6224.87l6.615,27.809s-11.044-6.824-17.555,2.247l4.993,14.8,44.69.154s3.415-13.385-.634-24.125c-1.7-4.493-21.089-41.594-21.089-41.594L2435.355,6209Z" transform="translate(-2308.844 -6120.428)" fill="#fd9826"/>
          <path id="Trazado_138100" data-name="Trazado 138100" d="M2426.143,6315.782a2.369,2.369,0,0,1-.12-.284l-.3-.83-1.083-3.11c-.914-2.675-2.187-6.4-3.65-10.7v-.055l.035-.05a9.773,9.773,0,0,1,1.683-2.072,8.737,8.737,0,0,1,2.376-1.5,12.462,12.462,0,0,1,4.214-1,19.744,19.744,0,0,1,2.047-.03,10.312,10.312,0,0,1,1.957.229,11.148,11.148,0,0,1,5.906,3.17,13.783,13.783,0,0,1,2.886,3.494,4.743,4.743,0,0,1,.5,1.589,8.437,8.437,0,0,0-.614-1.538,14.057,14.057,0,0,0-2.926-3.43,11.044,11.044,0,0,0-5.827-3.071,9.833,9.833,0,0,0-1.912-.214,18.176,18.176,0,0,0-2,.035,12.346,12.346,0,0,0-4.1.948,8.517,8.517,0,0,0-2.307,1.468,9.4,9.4,0,0,0-1.663,2v-.105c1.428,4.3,2.671,8.044,3.56,10.73.43,1.318.769,2.376,1,3.135l.264.839A2.108,2.108,0,0,1,2426.143,6315.782Z" transform="translate(-2308.669 -6166.486)" fill="#344154"/>
          <path id="Trazado_138101" data-name="Trazado 138101" d="M2463.992,6300.781c-.035.035-.4-.389-1.124-.913a7.555,7.555,0,0,0-3.16-1.328,7.289,7.289,0,0,0-1.893-.041,6.416,6.416,0,0,0-1.5.379c-.829.324-1.273.669-1.3.625s.095-.1.295-.26a4.974,4.974,0,0,1,.938-.534,6.071,6.071,0,0,1,1.538-.444,6.725,6.725,0,0,1,5.192,1.458,5.415,5.415,0,0,1,.779.739C2463.932,6300.657,2464.017,6300.771,2463.992,6300.781Z" transform="translate(-2325.704 -6167.517)" fill="#344154"/>
          <path id="Trazado_138102" data-name="Trazado 138102" d="M2449.144,6268.7a2.38,2.38,0,0,1-.115-.309c-.07-.23-.164-.524-.284-.889-.24-.779-.574-1.9-1-3.3-.8-2.8-1.847-6.671-2.886-10.984s-1.872-8.243-2.427-11.1c-.28-1.423-.5-2.582-.634-3.38-.06-.379-.11-.689-.15-.924a1.767,1.767,0,0,1-.04-.324,1.612,1.612,0,0,1,.09.314c.05.234.12.539.2.913.175.824.42,1.968.714,3.365.6,2.842,1.463,6.761,2.5,11.075s2.052,8.187,2.811,10.983c.375,1.378.679,2.5.9,3.32.095.375.175.674.235.909A1.255,1.255,0,0,1,2449.144,6268.7Z" transform="translate(-2318.993 -6137.118)" fill="#344154"/>
          <path id="Trazado_138103" data-name="Trazado 138103" d="M2443.048,6230.39a9.192,9.192,0,0,1-.724,2.1,1.114,1.114,0,1,1-.24-.109A9.278,9.278,0,0,1,2443.048,6230.39Z" transform="translate(-2318.869 -6133.563)" fill="#344154"/>
          <g id="Grupo_63193" data-name="Grupo 63193" transform="translate(45.494 104.441)" opacity="0.2">
            <path id="Trazado_138104" data-name="Trazado 138104" d="M2290.026,6245.64c-.958,8.487-1.922,18.533-2.886,27.025l7.754-12.482" transform="translate(-2287.14 -6245.64)"/>
          </g>
          <path id="Trazado_138105" data-name="Trazado 138105" d="M2292.128,6244c.07,0,2.272,6.016,4.918,13.481s4.743,13.555,4.673,13.58-2.266-5.991-4.917-13.48S2292.064,6244,2292.128,6244Z" transform="translate(-2244.143 -6140.376)" fill="#344154"/>
          <path id="Trazado_138106" data-name="Trazado 138106" d="M2298.243,6212.229v1.522c0,1-.04,2.387-.07,4.15v.04h-.035c-1.328.874-2.936,1.922-4.748,3.106v-.185l5.347,1.892h.06v.06l1.468,5.492-.225-.044,3.46-4.494.11-.055h.724l.724.041,1.428.081,2.786.149-.11.2-3.2-4.688-.035-.05v-.06c.739-1.893,1.428-3.665,2.057-5.282l.125.134-5.447,1.573h-.07l-3.19-2.557-.859-.719-.224-.19-.08-.069.07.049.22.17.859.678,3.3,2.617h-.07l5.437-1.622.2-.061-.075.2c-.619,1.623-1.3,3.4-2.027,5.3v-.115l3.21,4.678.145.215h-.254l-2.791-.15-1.428-.075-.724-.04h-.724l.11-.05-3.465,4.494-.155.205-.07-.25c-.5-1.921-1-3.769-1.448-5.492l.075.085-5.338-1.922-.2-.07.175-.115,4.778-3.061-.035.065c.07-1.789.13-3.21.17-4.209,0-.465.035-.829.05-1.093v-.28a.626.626,0,0,1,0-.194Z" transform="translate(-2244.631 -6124.469)" fill="#fafafa"/>
          <path id="Trazado_138107" data-name="Trazado 138107" d="M2273.46,6253.529a.512.512,0,0,1-.065.085l-.2.219-.749.834-2.786,3.071-.03.03h-.04l-5.617-.794.11-.154,2.771,4.948.03.055v.055c-.789,1.593-1.633,3.3-2.5,5.088l-.14-.185,5.567-1.094.115.034h0l.035.03.065.065.13.13.26.25.5.5,1,1,2,1.952-.215.074c.24-1.962.469-3.844.689-5.626v-.065h.054l5.033-2.621v.185l-5.137-2.411h-.035v-.041c-.279-1.747-.5-3.131-.649-4.1-.07-.5-.13-.839-.17-1.108a1.685,1.685,0,0,0-.045-.29v-.025a2.6,2.6,0,0,0,.055.274c.045.259.115.619.2,1.079.18,1,.435,2.376.754,4.144l-.04-.061,5.152,2.362.2.09-.19.1-5.018,2.646.065-.09c-.215,1.783-.439,3.665-.669,5.633l-.035.254-.185-.18-2-1.953-1-1-.5-.5-.259-.254-.135-.13-.065-.059-.03-.035h0l.115.035-5.567,1.094-.255.049.115-.234,2.526-5.077v.06l-2.746-4.963-.1-.184.2.029,5.612.854h-.07l2.9-3.051.759-.793.195-.2C2273.441,6253.55,2273.466,6253.529,2273.46,6253.529Z" transform="translate(-2229.974 -6145.149)" fill="#fafafa"/>
          <path id="Trazado_138108" data-name="Trazado 138108" d="M2346.06,6249.209l.085.071.225.189.854.728,3.146,2.707.03.024v.03c-.185,1.578-.4,3.495-.654,5.637l-.155-.105c1.5-.873,3.121-1.857,4.874-2.9l.055-.03h.06l5.142,2.392-.179.144-1.213-5.492c0-.055-.03.115.03-.119h0l.035-.034.06-.066.125-.134.25-.27.5-.529.974-1.049,1.9-2.046.085.209-5.652-.579h-.065l-.03-.055c-1-1.778-1.907-3.44-2.746-4.963h.185c-.874,2-1.633,3.735-2.277,5.2v.036h-.04l-4.1.784-1.1.2-.29.05h0l.27-.06,1.073-.229,4.124-.864-.055.05c.624-1.5,1.373-3.221,2.227-5.218l.08-.195.1.185,2.776,4.947-.094-.06,5.671.5h.255l-.175.189-1.9,2.053q-.5.5-.974,1.049l-.5.529-.244.265-.125.135-.06.065-.03.035h0l.03-.121c.424,1.9.833,3.75,1.233,5.537l.06.25-.234-.1-5.143-2.392h.11l-4.893,2.875-.18.11.025-.209c.27-2.147.5-4.054.7-5.627l.025.065-3.125-2.82-.839-.689-.2-.189Z" transform="translate(-2271.149 -6139.736)" fill="#fafafa"/>
          <path id="Trazado_138109" data-name="Trazado 138109" d="M2385.63,6211.69l.08.064.225.195.844.738,3.146,2.707.03.026v.039c-.179,1.578-.4,3.5-.649,5.637l-.155-.1,4.873-2.9.055-.03.055.025,5.153,2.376-.18.145-1.238-5.532c0-.055-.035.114.03-.12h0l.03-.035.06-.07.125-.129.25-.27.5-.529,1-1.043,1.9-2.047.08.21-5.646-.541h-.08l-.03-.054c-1-1.778-1.907-3.445-2.75-4.963h.185l-2.272,5.2v.035h-.04l-4.079.719-1.1.2-.29.05h0l.27-.061,1.068-.23,4.125-.863-.055.044,2.226-5.212.085-.194.1.185,2.771,4.948-.09-.065,5.647.529h.26l-.18.191-1.9,2.051-1,1.048-.5.53-.25.264-.12.135-.065.064-.03.035h0c.065-.23,0-.061.03-.115l1.238,5.537.055.25-.235-.1-5.143-2.4h.06l-4.868,2.921-.185.1.03-.205c.265-2.146.5-4.054.7-5.632l.03.07-3.125-2.826-.814-.738-.2-.19Z" transform="translate(-2290.963 -6120.934)" fill="#fafafa"/>
          <path id="Trazado_138110" data-name="Trazado 138110" d="M2385.63,6303.84l.08.065.225.19.854.729,3.145,2.705h.03v.045c-.18,1.578-.4,3.495-.649,5.632l-.154-.1,4.858-2.851.055-.035.055.03,5.167,2.387-.17.125-1.248-5.542c0-.05-.035.114.03-.115h0l.03-.036.06-.064.125-.135.25-.264.5-.53,1-1.048,1.9-2.046.08.214-5.647-.544h-.075l-.03-.055-2.751-4.957h.185l-2.262,5.137v.04h-.04l-4.089.764-1.1.2-.289.055h0l.269-.055,1.068-.229,4.125-.863-.055.044c.629-1.468,1.373-3.22,2.226-5.217l.085-.2.1.185,2.771,4.948-.09-.06,5.646.523.26.025-.18.19-1.9,2.046c-.324.35-.644.7-1,1.049l-.5.529-.25.27-.12.13-.065.07-.03.045h0c.065-.234,0-.065.03-.115l1.238,5.531.055.255-.235-.11-5.142-2.392h.06l-4.888,2.875-.185.1.03-.209c.264-2.147.5-4.049.7-5.626l.03.064-3.125-2.821-.814-.739-.2-.185Z" transform="translate(-2290.963 -6167.076)" fill="#fafafa"/>
          <path id="Trazado_138111" data-name="Trazado 138111" d="M2317.389,6299.554l.085.065.224.19.854.729,3.146,2.706.03.03v.041c-.185,1.577-.4,3.494-.654,5.631l-.155-.1,4.873-2.9.055-.03.055.024,5.153,2.377-.18.145-1.238-5.537c0-.049-.03.12.03-.115h0l.03-.029.065-.07.125-.129.244-.27.5-.53,1-1.048c.644-.694,1.283-1.373,1.9-2.047l.085.214-5.647-.539h-.064l-.03-.05-2.746-4.963h.185c-.874,2-1.637,3.73-2.277,5.192v.04H2323l-4.084.749-1.1.2-.29.055h0l.27-.06,1.073-.229,4.124-.864-.06.045c.629-1.468,1.378-3.215,2.232-5.217l.08-.19.1.185,2.776,4.943-.095-.06,5.647.524h.26l-.175.189-1.9,2.052-.969,1.048-.5.529-.245.265-.125.135-.06.065-.035.035h0c.065-.23,0-.066.035-.115.419,1.9.834,3.75,1.233,5.537l.055.25-.235-.11-5.142-2.391h.115l-4.933,2.85-.18.1.025-.209c.27-2.142.5-4.048.7-5.626l.025.07-3.125-2.821-.814-.738-.2-.19Z" transform="translate(-2256.793 -6164.947)" fill="#fafafa"/>
          <path id="Trazado_138112" data-name="Trazado 138112" d="M2449.906,6179.207a1.108,1.108,0,0,1,0,.254l-.1.744v-.03l3.994,4.024.13.13-.185.024-5.626.689.084-.06c-.8,1.538-1.7,3.235-2.631,5.027l-.12.225-.1-.235c-.754-1.627-1.558-3.36-2.381-5.147l.095.076-.265-.045-5.322-.923-.254-.04.189-.175,4.174-3.845-.04.1c-.29-2.072-.555-3.964-.79-5.617l-.024-.184.165.089,4.923,2.816h-.045l1-.569a3.774,3.774,0,0,1,.344-.18,2.093,2.093,0,0,1-.324.22l-1,.6h0l-4.993-2.726.135-.094c.245,1.647.524,3.534.833,5.612v.06l-.045.04-4.159,3.86-.065-.22,5.322.913.27.05h.07v.06c.824,1.788,1.623,3.52,2.372,5.152h-.225l2.656-4.992.025-.056h.06l5.652-.639-.055.15-3.919-4.1h0c.06-.31.1-.555.135-.739A1.55,1.55,0,0,1,2449.906,6179.207Z" transform="translate(-2316.795 -6105.426)" fill="#fafafa"/>
          <path id="Trazado_138113" data-name="Trazado 138113" d="M2457.11,6230a.357.357,0,0,1,0,.1,2.275,2.275,0,0,0,.05.294c.04.264.1.633.174,1.108.155.968.37,2.351.644,4.094v.04l-.03.03-4.144,3.869-.055-.175,5.592.944h.06l.03.06,2.381,5.147h-.229l2.641-5.022.1-.07h.36l.364-.045.714-.084,1.424-.166,2.771-.33-.075.215-3.949-4.069-.045-.044v-.06c.4-2,.774-3.859,1.118-5.562l.15.115-5.1,2.5h-.069l-3.6-2.072-.969-.564-.255-.145-.09-.06.08.04.245.131.964.5,3.7,2h-.07l5.073-2.526.19-.1-.04.205c-.335,1.707-.7,3.575-1.093,5.567l-.031-.1c1.258,1.283,2.581,2.645,3.964,4.058l.18.186-.26.03-2.771.329-1.423.17-.714.085-.359.044h-.365l.1-.064c-.9,1.717-1.788,3.395-2.646,4.992l-.12.229-.1-.234-2.372-5.152.09.064-5.547-.918-.209-.04.155-.14,4.184-3.834v.069c-.234-1.777-.419-3.185-.549-4.173-.06-.464-.11-.823-.145-1.089a.755.755,0,0,0-.03-.274A.6.6,0,0,1,2457.11,6230Z" transform="translate(-2324.963 -6133.367)" fill="#fafafa"/>
          <path id="Trazado_138114" data-name="Trazado 138114" d="M2480.732,6285.664l-.055.089-.155.255-.589.954-2.2,3.5v.035h-.04l-5.672.214.08-.169,3.61,4.374.035.05v.06c-.5,1.707-1,3.544-1.568,5.451l-.165-.154,5.277-2.067h.125l.035.03.08.05.15.1.3.2.6.4,1.183.8,2.312,1.569-.2.115c-.115-2-.219-3.869-.325-5.667v-.075l.05-.041,4.493-3.469.035.179-5.492-1.458h-.04v-.04c-.584-1.667-1.043-3-1.368-3.92-.155-.449-.275-.8-.365-1.058l-.094-.28-.03-.1.035.08a.916.916,0,0,0,.1.254l.384,1.029c.354.928.854,2.261,1.5,3.944h-.055l5.492,1.408.205.055-.17.13-4.464,3.495.045-.1c.1,1.792.219,3.685.339,5.663v.254l-.215-.145-2.311-1.563-1.188-.8-.594-.4-.3-.206-.15-.1-.075-.05-.035-.024h.12l-5.282,2.067-.24.09.07-.245,1.583-5.447v.1c-1.293-1.578-2.5-3.065-3.584-4.393l-.135-.165h.21l5.672-.16-.065.034c1-1.5,1.767-2.685,2.311-3.52l.609-.913.155-.229C2480.707,6285.684,2480.732,6285.659,2480.732,6285.664Z" transform="translate(-2334.116 -6161.207)" fill="#fafafa"/>
          <path id="Trazado_138115" data-name="Trazado 138115" d="M2209.266,6295.88v.1a.894.894,0,0,1-.04.294l-.165,1.109c-.149.973-.359,2.356-.624,4.1v.051h-.04l-5.122,2.435v-.185l5.043,2.592.06.03v.064c.224,1.757.469,3.655.719,5.623l-.215-.076,4.029-3.993.119-.035h.175l.179.035.354.07.714.134,1.4.271,2.741.5-.135.185-2.536-5.073-.03-.06.03-.055c1-1.777,1.907-3.44,2.746-4.963l.11.156-5.612.828h-.04l-.03-.03-2.806-3-.754-.829-.194-.22-.07-.08.065.061.189.2.764.784,2.921,3.04h-.07l5.592-.917.21-.035-.1.189-2.721,4.993v-.111l2.556,5.068.115.229-.254-.049-2.746-.5-1.4-.27-.708-.134-.36-.07-.174-.03h-.175l.115-.035-4.034,3.994-.185.179-.035-.254-.7-5.677.065.1-5.033-2.621-.19-.1.195-.09,5.143-2.391-.045.061c.314-1.768.559-3.166.734-4.149.086-.459.151-.82.194-1.079l.05-.275A.29.29,0,0,1,2209.266,6295.88Z" transform="translate(-2199.505 -6166.35)" fill="#fafafa"/>
          <path id="Trazado_138116" data-name="Trazado 138116" d="M2398.041,6102.822a9.159,9.159,0,0,0,4.548-10.331c-.5-1.768-1.543-3.369-1.852-5.182-.5-2.816.858-5.566,1.732-8.288s1.118-6.105-1-8.028c-1.373-1.243-3.375-1.5-4.923-2.5a13.173,13.173,0,0,1-3.5-4.1,8.166,8.166,0,0,0-3.994-3.55c-1.743-.554-3.994.355-4.269,2.147" transform="translate(-2290.543 -6048.587)" fill="#344154"/>
          <path id="Trazado_138117" data-name="Trazado 138117" d="M2309.808,6049.057c2.366-2.336,2.162-6.525.05-9.1s-5.652-3.644-8.987-3.494a15.3,15.3,0,0,0-11.982,7.053c-1.378,2.208-2.3,4.9-4.523,6.251-1.952,1.189-4.434,1.029-6.591,1.8a10.2,10.2,0,0,0-5.951,6.6,22.378,22.378,0,0,0-.659,9.107c.264,2.8.7,5.847-.764,8.248s-4.264,3.384-6.26,5.268a9.9,9.9,0,0,0-.025,13.835c1.193,1.127,2.761,2.066,3.215,3.649.415,1.444-.254,2.956-.395,4.448a6.68,6.68,0,0,0,7.334,6.906c1.933-.3,3.815-1.5,5.707-1s2.951,2.391,4.373,3.714a8.358,8.358,0,0,0,10.51.424c1.258-1,2.336-2.411,3.915-2.646s3.09.833,4.688.8c2.087-.044,3.67-1.932,4.494-3.844s1.243-4.049,2.5-5.732c1.613-2.207,4.324-3.25,6.665-4.664a21.148,21.148,0,0,0,7.124-29.048,21.891,21.891,0,0,0-1.7-2.407" transform="translate(-2228.711 -6036.453)" fill="#344154"/>
          <path id="Trazado_138118" data-name="Trazado 138118" d="M2337.685,6065.393a4.493,4.493,0,0,1,4.878,3.616h0l10.16,59.854c1.4,7.025-7.988,13.166-15.518,14.608h0c-7.609,1.452-8.652-2.207-10.185-8.848-2.556-11.094-3.445-15.278-3.435-15.213s-9.911.455-14.559-11.613c-2.307-5.991-4.169-16.246-5.417-24.678-1.129-7.6,1.877-17.845,9.486-18.649Z" transform="translate(-2249.778 -6050.482)" fill="#b78876"/>
          <path id="Trazado_138119" data-name="Trazado 138119" d="M2312.816,6114.982a1.638,1.638,0,0,0,1.887,1.288,1.564,1.564,0,0,0,1.348-1.748v-.05a1.638,1.638,0,0,0-1.887-1.288,1.567,1.567,0,0,0-1.348,1.762.083.083,0,0,0,0,.035Z" transform="translate(-2254.496 -6074.862)" fill="#344154"/>
          <path id="Trazado_138120" data-name="Trazado 138120" d="M2310.476,6111.146c.244.169,1.268-1,3-1.353s3.17.229,3.315,0c.07-.115-.215-.445-.849-.729a4.552,4.552,0,0,0-2.706-.24,4.339,4.339,0,0,0-2.327,1.333C2310.461,6110.661,2310.361,6111.075,2310.476,6111.146Z" transform="translate(-2253.31 -6072.639)" fill="#344154"/>
          <path id="Trazado_138121" data-name="Trazado 138121" d="M2347.2,6107.583a1.638,1.638,0,0,0,1.887,1.3,1.564,1.564,0,0,0,1.348-1.758v-.04a1.639,1.639,0,0,0-1.888-1.289,1.564,1.564,0,0,0-1.353,1.752A.139.139,0,0,0,2347.2,6107.583Z" transform="translate(-2271.712 -6071.162)" fill="#344154"/>
          <path id="Trazado_138122" data-name="Trazado 138122" d="M2344.571,6103.423c.245.17,1.268-1,3-1.353s3.17.23,3.31,0c.075-.11-.209-.444-.844-.729a4.49,4.49,0,0,0-2.711-.241,4.325,4.325,0,0,0-2.322,1.338C2344.531,6102.939,2344.432,6103.354,2344.571,6103.423Z" transform="translate(-2270.375 -6068.77)" fill="#344154"/>
          <path id="Trazado_138123" data-name="Trazado 138123" d="M2332.819,6118.588a11.719,11.719,0,0,0-2.906.09c-.449.05-.884.05-1-.235a2.282,2.282,0,0,1,0-1.369c.19-1.148.385-2.361.589-3.625.789-5.157,1.258-9.36,1.054-9.391s-1,4.128-1.808,9.281c-.185,1.273-.359,2.5-.529,3.64a2.6,2.6,0,0,0,.14,1.772,1.14,1.14,0,0,0,.864.5,2.66,2.66,0,0,0,.769-.055A11.5,11.5,0,0,0,2332.819,6118.588Z" transform="translate(-2262.172 -6070.305)" fill="#344154"/>
          <path id="Trazado_138124" data-name="Trazado 138124" d="M2343.85,6166.458a32.495,32.495,0,0,0,15.772-8.029s-2.342,9.717-15.088,11.215Z" transform="translate(-2270.043 -6097.529)" fill="#aa6550"/>
          <path id="Trazado_138125" data-name="Trazado 138125" d="M2340.637,6139.4a3.161,3.161,0,0,1,2.537-1.748,2.918,2.918,0,0,1,2.182.629,1.853,1.853,0,0,1,.574,2.027,2.124,2.124,0,0,1-2.136,1.053,6.721,6.721,0,0,1-2.5-.844,1.972,1.972,0,0,1-.6-.4.594.594,0,0,1-.135-.644" transform="translate(-2268.373 -6087.113)" fill="#aa6550"/>
          <path id="Trazado_138126" data-name="Trazado 138126" d="M2343.658,6133.376c-.285.045.109,1.912-1.208,3.585s-3.35,1.887-3.311,2.152c0,.125.5.27,1.368.11a4.733,4.733,0,0,0,2.787-1.687,4.155,4.155,0,0,0,.893-3C2344.092,6133.756,2343.783,6133.336,2343.658,6133.376Z" transform="translate(-2267.684 -6084.984)" fill="#344154"/>
          <path id="Trazado_138127" data-name="Trazado 138127" d="M2341.724,6097.061c.27.43,1.942-.159,3.994-.344s3.83,0,3.994-.465c.074-.225-.3-.6-1.058-.918a6.993,6.993,0,0,0-6.112.615C2341.9,6096.382,2341.6,6096.826,2341.724,6097.061Z" transform="translate(-2268.965 -6065.718)" fill="#344154"/>
          <path id="Trazado_138128" data-name="Trazado 138128" d="M2309.553,6104.835c.389.329,1.5-.33,2.911-.655s2.691-.3,2.886-.768c.08-.226-.195-.58-.8-.834a4.317,4.317,0,0,0-4.668,1.148C2309.473,6104.235,2309.393,6104.654,2309.553,6104.835Z" transform="translate(-2252.831 -6069.432)" fill="#344154"/>
          <path id="Trazado_138129" data-name="Trazado 138129" d="M2352.161,6057.693a12.457,12.457,0,0,1,9.486-3.995c3.525.229,6.94,2.646,7.784,5.992.549,2.191.1,4.737,1.5,6.49s3.8,1.968,5.722,3a7.629,7.629,0,0,1,3.665,8.637c-.824,2.8-3.3,5.249-2.926,8.124.35,2.706,3.071,4.463,4.179,6.959,1.223,2.757.27,6.081-1.6,8.487s-4.538,4.085-7.145,5.708c-2.032,1.268-4.219,2.586-6.615,2.556a7.177,7.177,0,0,1-6.4-4.743,9.694,9.694,0,0,1,1-8.1c1.223-2.107,3.15-4.094,3.031-6.491-.18-3.76-5.148-5.811-5.672-9.536-.275-1.923.724-3.774,1.5-5.568s1.323-3.959.259-5.586c-1.383-2.117-4.548-2.067-6.745-3.365a5.737,5.737,0,0,1-2.756-5.343,5.917,5.917,0,0,1,3.695-4.838" transform="translate(-2273.326 -6045.077)" fill="#344154"/>
          <path id="Trazado_138130" data-name="Trazado 138130" d="M2321.217,6053.289a8.748,8.748,0,0,1-6.675,10.411,8.9,8.9,0,0,1-1.583.194c-2,.06-4.279-.454-5.712.919s-1,4.074-2.266,5.742c-1.787,2.386-5.672,1.348-8.289,2.78-2,1.1-2.92,3.455-3.994,5.492s-2.851,4.159-5.147,4a26.068,26.068,0,0,1-.385-5.941,8.705,8.705,0,0,1,2.257-5.392,31.477,31.477,0,0,0,2.416-2.2c1.5-1.833,1.348-4.438,2.022-6.694a9.573,9.573,0,0,1,6.107-6.266c2.4-.778,5.092-.589,7.354-1.707,1.672-.83,2.97-2.307,4.688-3.036,3.35-1.418,7.135.389,10.2,2.336" transform="translate(-2241.644 -6043.773)" fill="#344154"/>
          <path id="Trazado_138131" data-name="Trazado 138131" d="M2353.718,6136.183c-.05.05-.2,0-.334-.15s-.2-.279-.15-.334.2,0,.334.15S2353.767,6136.134,2353.718,6136.183Z" transform="translate(-2274.733 -6086.138)" fill="#344154"/>
          <path id="Trazado_138132" data-name="Trazado 138132" d="M2270.08,6112.672h.2l.609.04a15.83,15.83,0,0,0,2.322-.094,14.446,14.446,0,0,0,3.555-.913,13.9,13.9,0,0,0,4.128-2.528,13.659,13.659,0,0,0,3.435-4.728,14.251,14.251,0,0,0,1.184-6.581,30.044,30.044,0,0,0-1.863-7.234,22.925,22.925,0,0,1-1-3.87,11.7,11.7,0,0,1,.11-4.123,6.931,6.931,0,0,1,1.952-3.62,6.121,6.121,0,0,1,1.708-1.113,11.484,11.484,0,0,1,1.9-.614c1.273-.31,2.546-.5,3.72-.894a7.235,7.235,0,0,0,1.642-.794,5.418,5.418,0,0,0,1.273-1.237,10.066,10.066,0,0,0,1.418-3.136c.324-1.083.584-2.162.934-3.175a10.032,10.032,0,0,1,3.4-4.824,9.737,9.737,0,0,1,4.493-1.932,10.121,10.121,0,0,1,3.694.14,9.572,9.572,0,0,1,2.2.793,6.129,6.129,0,0,1,.7.4s-.245-.135-.729-.359a10.4,10.4,0,0,0-2.2-.739,10.1,10.1,0,0,0-3.649-.094,9.513,9.513,0,0,0-4.394,1.937,9.827,9.827,0,0,0-3.315,4.744c-.34,1-.589,2.077-.914,3.17a10.283,10.283,0,0,1-1.448,3.216,5.739,5.739,0,0,1-1.323,1.292,7.493,7.493,0,0,1-1.7.829c-1.2.409-2.5.6-3.74.909a10.981,10.981,0,0,0-1.852.6,5.855,5.855,0,0,0-1.638,1.069,6.663,6.663,0,0,0-1.872,3.494,11.353,11.353,0,0,0-.11,4.024,24.064,24.064,0,0,0,1,3.83,29.914,29.914,0,0,1,1.863,7.3,14.377,14.377,0,0,1-1.229,6.685,13.853,13.853,0,0,1-13.63,8.228l-.6-.064A1.367,1.367,0,0,1,2270.08,6112.672Z" transform="translate(-2233.104 -6048.842)" fill="#455a64"/>
          <path id="Trazado_138133" data-name="Trazado 138133" d="M2318.85,6043.627a.946.946,0,0,1,.175-.165,5.418,5.418,0,0,1,.535-.428,10.21,10.21,0,0,1,2.212-1.229,11.279,11.279,0,0,1,14.349,5.208,10.35,10.35,0,0,1,.9,2.362,6.132,6.132,0,0,1,.14.668.777.777,0,0,1,0,.24,15.249,15.249,0,0,0-1.233-3.186,11.613,11.613,0,0,0-2.261-2.9,10.858,10.858,0,0,0-8.258-3,11.59,11.59,0,0,0-3.6.778A14.765,14.765,0,0,0,2318.85,6043.627Z" transform="translate(-2257.524 -6038.696)" fill="#455a64"/>
          <path id="Trazado_138134" data-name="Trazado 138134" d="M2374.168,6111.061l.15-.08.454-.215a15,15,0,0,0,1.648-.959,13.64,13.64,0,0,0,4.588-5.217,15.03,15.03,0,0,0,.844-2.152,13.715,13.715,0,0,0,.45-2.466,13.485,13.485,0,0,0-.684-5.458,13.106,13.106,0,0,0-3.215-5.132c-.754-.749-1.593-1.448-2.4-2.212a10.819,10.819,0,0,1-2.132-2.631,14.843,14.843,0,0,1-1.462-6.46c-.06-1.073-.08-2.122-.15-3.146a20.609,20.609,0,0,0-.415-2.97,11.284,11.284,0,0,0-.954-2.672,6.856,6.856,0,0,0-1.647-2.076,10.305,10.305,0,0,0-4.379-1.888,20.956,20.956,0,0,1-3.864-1.113,7.334,7.334,0,0,1-2.5-1.727,4.149,4.149,0,0,1-.944-1.668,2.459,2.459,0,0,1-.1-.5.482.482,0,0,1,0-.169,3.92,3.92,0,0,0,.165.643,4.283,4.283,0,0,0,.969,1.619,7.456,7.456,0,0,0,2.5,1.658,21.507,21.507,0,0,0,3.849,1.068,10.587,10.587,0,0,1,4.494,1.9,7.082,7.082,0,0,1,1.638,2.137,11.816,11.816,0,0,1,1,2.721,20.936,20.936,0,0,1,.424,3c.075,1.033.1,2.082.16,3.151a14.665,14.665,0,0,0,1.433,6.351c1.088,1.977,2.971,3.27,4.493,4.788a13.248,13.248,0,0,1,3.26,5.238,13.876,13.876,0,0,1,.664,5.571,14.211,14.211,0,0,1-.5,2.5,15.029,15.029,0,0,1-.874,2.182,13.567,13.567,0,0,1-4.673,5.217,12.89,12.89,0,0,1-1.683.923l-.459.189A.883.883,0,0,1,2374.168,6111.061Z" transform="translate(-2276.855 -6048.318)" fill="#455a64"/>
          <path id="Trazado_138135" data-name="Trazado 138135" d="M2387.706,6080.49a.194.194,0,0,0-.095.045,1.007,1.007,0,0,1-.29.095,3.9,3.9,0,0,1-1.168.11,5.532,5.532,0,0,1-3.735-2,9.34,9.34,0,0,1-1.5-2.571,28.038,28.038,0,0,1-1.028-3.245,22.514,22.514,0,0,0-1.208-3.525,7.939,7.939,0,0,0-2.457-3.06,11.129,11.129,0,0,0-3.579-1.692,24.1,24.1,0,0,0-3.665-.7,60.718,60.718,0,0,1-6.306-.809,12.317,12.317,0,0,1-3.994-1.5,6.831,6.831,0,0,1-1.243-.963,14.852,14.852,0,0,0,1.3.874,12.662,12.662,0,0,0,3.994,1.427c1.762.375,3.91.5,6.3.75a24.094,24.094,0,0,1,3.7.693,11.262,11.262,0,0,1,3.665,1.728,8.185,8.185,0,0,1,2.531,3.161,21.962,21.962,0,0,1,1.208,3.569,29.566,29.566,0,0,0,1,3.231,9.393,9.393,0,0,0,1.443,2.531,5.5,5.5,0,0,0,3.6,2A4.617,4.617,0,0,0,2387.706,6080.49Z" transform="translate(-2276.848 -6048.583)" fill="#455a64"/>
          <path id="Trazado_138136" data-name="Trazado 138136" d="M2380.541,6305.509l-11.323,4.184a54.71,54.71,0,0,0-5.167-1.807c-1.128-.149-9.591,2.681-15.692,4.793-3.994,1.383-7.1,3.924-8.388,7.948h0l45.6-.154Z" transform="translate(-2268.1 -6171.177)" fill="#b78876"/>
          <path id="Trazado_138137" data-name="Trazado 138137" d="M2595.17,6485.247l3.625-2.527,19.163,33.392,1.278,5.631-5.562-2.79Z" transform="translate(-2581.115 -6366.086)" fill="#455a64"/>
          <path id="Trazado_138138" data-name="Trazado 138138" d="M2639.78,6558.028l1.353-1.048.439,1.946Z" transform="translate(-2603.453 -6403.271)" fill="#344154"/>
          <path id="Trazado_138139" data-name="Trazado 138139" d="M2265.515,6336.722c0,.035-.2-.044-.5-.05a.58.58,0,0,0-.459.195,1.054,1.054,0,0,0-.185.639v.16l-.155-.041a1.15,1.15,0,0,0-.963.12,1.45,1.45,0,0,0-.5.814l-.025.1h-.1a1.5,1.5,0,0,0-.709.1.943.943,0,0,0-.429.344c-.18.265-.2.5-.235.47s-.06-.22.11-.55a1.072,1.072,0,0,1,.464-.454,1.694,1.694,0,0,1,.814-.145l-.129.1a1.587,1.587,0,0,1,.6-1,1.348,1.348,0,0,1,1.178-.14l-.149.115a1.173,1.173,0,0,1,.274-.779.719.719,0,0,1,.614-.209A.832.832,0,0,1,2265.515,6336.722Z" transform="translate(-2228.674 -6186.698)" fill="#344154"/>
          <path id="Trazado_138140" data-name="Trazado 138140" d="M2223.985,6271.953a2.151,2.151,0,0,1,.729-2.631,2.08,2.08,0,0,1,2.9.1Z" transform="translate(-2209.931 -6152.793)" fill="#344154"/>
          <path id="Trazado_138141" data-name="Trazado 138141" d="M2225.7,6271.048l19.117,34.255a1.1,1.1,0,0,1,1.627-1l-19.781-34.205Z" transform="translate(-2210.881 -6153.446)" fill="#344154"/>
          <path id="Trazado_138142" data-name="Trazado 138142" d="M2254.521,6301.731a7.34,7.34,0,0,0-2.691-.864,2.5,2.5,0,0,0-2.4,1.2,2.4,2.4,0,0,0,0,1.852,5.991,5.991,0,0,0,.974,1.628,7.123,7.123,0,0,0,1.967,1.917,2.577,2.577,0,0,0,3.6-.564,2.606,2.606,0,0,0,.439-2.042,4.986,4.986,0,0,0-1.867-3.13" transform="translate(-2222.673 -6168.846)" fill="#b78876"/>
          <path id="Trazado_138143" data-name="Trazado 138143" d="M2223.82,6293.329s-3-.829-4.044,1.867c0,0-4.354,2.5-4.354,6.426a8.886,8.886,0,0,0-1.752,5.078v1.5a5.49,5.49,0,0,0,2.3,4.458,13.741,13.741,0,0,0,3.695,2.031,8.8,8.8,0,0,0,2.557.27,1.224,1.224,0,0,0,1-1.873l-.409-.529s2.366,1.633,4.124,1.5c0,0,2.406-.08,3.1-1.553.255-.549,4.768,1.243,5.282-1.144,0,0,2.592.209,3.111-1.034s-.1-3.11-1.139-4.253S2223.82,6293.329,2223.82,6293.329Z" transform="translate(-2204.858 -6165.018)" fill="#b78876"/>
          <path id="Trazado_138144" data-name="Trazado 138144" d="M2231.52,6305.789a4.316,4.316,0,0,1,.5.459c.345.345.789.784,1.313,1.313,1.114,1.1,2.666,2.611,4.429,4.224s3.415,3.02,4.613,4.024L2243.8,6317a3.335,3.335,0,0,1,.5.459,3.148,3.148,0,0,1-.57-.379c-.354-.26-.858-.645-1.5-1.128-1.233-.974-2.9-2.361-4.673-3.995s-3.305-3.146-4.384-4.288c-.539-.57-.969-1.039-1.259-1.369A3.257,3.257,0,0,1,2231.52,6305.789Z" transform="translate(-2213.796 -6171.317)" fill="#aa6550"/>
          <path id="Trazado_138145" data-name="Trazado 138145" d="M2236.665,6324.192c-.04.055-2.247-1.562-4.923-3.609s-4.818-3.76-4.773-3.815,2.252,1.558,4.928,3.609S2236.71,6324.132,2236.665,6324.192Z" transform="translate(-2211.517 -6176.813)" fill="#aa6550"/>
          <path id="Trazado_138146" data-name="Trazado 138146" d="M2227.282,6327.826a5.636,5.636,0,0,1-.959-.619c-.579-.4-1.368-.973-2.211-1.637a22.464,22.464,0,0,1-2.077-1.818,4.154,4.154,0,0,1-.754-.863,6.09,6.09,0,0,1,.879.729c.5.465,1.268,1.089,2.112,1.748a31.584,31.584,0,0,1,3.01,2.462Z" transform="translate(-2208.669 -6179.879)" fill="#aa6550"/>
          <path id="Trazado_138147" data-name="Trazado 138147" d="M2336.6,6184.546c2.561,4.494,8.1,6.8,13.28,6.455a22.659,22.659,0,0,0,13.92-6.37c2.227-2.142,2.94-6.94,4.908-6.49,1.832.409,3.25,6.49,3.445,8.373a11.612,11.612,0,0,1-2.467,7.953,25.112,25.112,0,0,1-6.336,5.631c-4.493,2.971-9.516,5.357-14.878,5.607s-11.054-2-13.88-6.536-1.852-11.428,2.741-14.2" transform="translate(-2264.612 -6107.385)" fill="#d87e19"/>
          <path id="Trazado_138148" data-name="Trazado 138148" d="M2356.193,6214.6a2.144,2.144,0,0,1,.32-.23l.948-.613,3.495-2.207v.174l-5.307-2h-.06v-.059c-.409-1.707-.864-3.57-1.333-5.492l.224.05h0l-.03.034-.06.076-.115.144-.235.285-.464.573-.909,1.119-1.738,2.137-.04.05h-.09l-5.652-.469.09-.145,2.222,3.5.594.958a2.509,2.509,0,0,1,.195.35,1.851,1.851,0,0,1-.24-.314c-.16-.239-.375-.549-.639-.933l-2.272-3.5-.11-.164h.195l5.657.415-.1.045,1.728-2.143.909-1.124.459-.569.235-.29.12-.145.055-.075.03-.035h0c-.05,0,.43.1.23.05.464,1.947.909,3.809,1.318,5.517l-.075-.085,5.287,2.057.185.07-.17.1-3.56,2.137-.973.569a2.083,2.083,0,0,1-.319.18Z" transform="translate(-2270.613 -6120.353)" fill="#fafafa"/>
          <path id="Trazado_138149" data-name="Trazado 138149" d="M2338.394,6210.146a6.258,6.258,0,0,0-.18-.964,5.2,5.2,0,0,0-1.528-2.186,17.573,17.573,0,0,0-3.415-2.133,11.069,11.069,0,0,1-2-1.358,7.335,7.335,0,0,1-2.307-6.959,11.978,11.978,0,0,1,1.588-3.754,8.368,8.368,0,0,1,1.768-2.082,4.072,4.072,0,0,1,.629-.415.976.976,0,0,1,.234-.105c0,.026-.309.18-.8.6a9.032,9.032,0,0,0-1.7,2.1,12.141,12.141,0,0,0-1.5,3.7,7.237,7.237,0,0,0,2.237,6.735,11.558,11.558,0,0,0,1.952,1.338,16.951,16.951,0,0,1,3.425,2.207,4.986,4.986,0,0,1,1.5,2.292A2.494,2.494,0,0,1,2338.394,6210.146Z" transform="translate(-2262.515 -6113.433)" fill="#344154"/>
          <path id="Trazado_138150" data-name="Trazado 138150" d="M2379.77,6170.919a.544.544,0,0,1,.125.025l.359.11a7.558,7.558,0,0,1,1.338.559,8.871,8.871,0,0,1,1.843,1.358,9.576,9.576,0,0,1,1.852,2.4,11.764,11.764,0,0,1,1.338,7.682,13.852,13.852,0,0,1-1.623,4.375,17.63,17.63,0,0,1-3.1,3.934,22.517,22.517,0,0,1-3.994,3.031,26.925,26.925,0,0,1-4.2,2.026,27.628,27.628,0,0,1-7.678,1.713,26.239,26.239,0,0,1-5.308-.121c-.624-.074-1.1-.159-1.428-.224l-.365-.074a.525.525,0,0,1-.125-.03h.13l.369.049c.325.051.809.115,1.428.175a28.71,28.71,0,0,0,5.283.04,28.042,28.042,0,0,0,7.609-1.758,24.148,24.148,0,0,0,8.088-5.017,17.788,17.788,0,0,0,3.056-3.874,13.6,13.6,0,0,0,1.6-4.288,11.675,11.675,0,0,0-1.258-7.54,9.673,9.673,0,0,0-1.782-2.4,9.432,9.432,0,0,0-1.792-1.378,8.555,8.555,0,0,0-1.3-.594l-.349-.134Z" transform="translate(-2277.534 -6103.784)" fill="#344154"/>
          <path id="Trazado_138151" data-name="Trazado 138151" d="M2368.87,6228.375a4.837,4.837,0,0,0,.185-1.362,4.775,4.775,0,0,0-.444-1.3.9.9,0,0,1,.334.29,2.071,2.071,0,0,1,.194,2.027C2369.024,6228.276,2368.9,6228.392,2368.87,6228.375Z" transform="translate(-2282.441 -6131.219)" fill="#344154"/>
          <path id="Trazado_138152" data-name="Trazado 138152" d="M2401.787,6219.524a1.44,1.44,0,0,1-.819-.136,3.069,3.069,0,0,1-2-3.22,1.5,1.5,0,0,1,.244-.789c.041,0-.054.314-.06.8a3.211,3.211,0,0,0,1.877,3.035A7.465,7.465,0,0,1,2401.787,6219.524Z" transform="translate(-2297.634 -6126.047)" fill="#344154"/>
          <path id="Trazado_138153" data-name="Trazado 138153" d="M2372.384,6182.77a2.088,2.088,0,0,1-.145.3c-.11.19-.244.5-.469.833a19.373,19.373,0,0,1-2.1,2.827,20.37,20.37,0,0,1-21.239,5.931,18.621,18.621,0,0,1-3.26-1.333c-.375-.185-.644-.365-.834-.469a1.518,1.518,0,0,1-.279-.184,1.851,1.851,0,0,1,.3.139c.2.09.474.254.854.425a21.191,21.191,0,0,0,3.265,1.243,20.849,20.849,0,0,0,23.2-8.632c.235-.339.385-.625.5-.8a1.35,1.35,0,0,1,.2-.273Z" transform="translate(-2270.148 -6109.717)" fill="#344154"/>
          <g id="Grupo_63194" data-name="Grupo 63194" transform="translate(84.308 74.819)" opacity="0.2">
            <path id="Trazado_138154" data-name="Trazado 138154" d="M2365.22,6206.015a.954.954,0,0,0-.115,1.343,2.551,2.551,0,0,0,1.283.759,21.379,21.379,0,0,0,25.153-9.367c1.922-3.25,2.956-7.31,1.563-10.819-.354-.9-1.2-1.887-2.117-1.557s-.943,1.522-.954,2.466c-.04,5.437-3.744,10.365-8.432,13.125s-10.23,3.674-15.657,4.039" transform="translate(-2364.881 -6186.31)"/>
          </g>
        </g>
        <g id="freepik--Table--inject-63" transform="translate(6250.945 6195.972)">
          <path id="Trazado_138155" data-name="Trazado 138155" d="M2165.471,6335.7c0,.09-115.671.17-258.318.17s-258.333-.08-258.333-.17,115.636-.174,258.338-.174S2165.471,6335.609,2165.471,6335.7Z" transform="translate(-1648.82 -6335.53)" fill="#141e2b"/>
        </g>
        <g id="freepik--Plant--inject-63" transform="translate(6691.442 6078.299)">
          <path id="Trazado_138156" data-name="Trazado 138156" d="M2531.1,6355.141c.549,3.5,3.7,6.181,7.12,7.15s7.064.539,10.56-.095c2-.36,4.274-1.03,4.993-2.916a4.153,4.153,0,0,0-1.183-4.244,12.252,12.252,0,0,0-3.994-2.367" transform="translate(-2531.1 -6226.439)" fill="#f5f5f5"/>
          <path id="Trazado_138157" data-name="Trazado 138157" d="M2591.94,6201.6a1.385,1.385,0,0,1,.105-.255l.344-.729a18.018,18.018,0,0,0,1-2.911,25.659,25.659,0,0,0-.09-11.248,60.589,60.589,0,0,0-2.077-7.539c-.884-2.681-1.912-5.527-2.751-8.6a33.315,33.315,0,0,1-1.352-9.89,38.964,38.964,0,0,1,2.3-10.485,51.163,51.163,0,0,0,2.666-10.3,15.72,15.72,0,0,0-1.9-9.526c-1.5-2.781-3.405-5.158-4.823-7.619a26.325,26.325,0,0,1-2.9-7.319,27.2,27.2,0,0,1-.185-11.339,20.969,20.969,0,0,1,1.183-3.994,1.55,1.55,0,0,1-.07.27l-.239.764a27.97,27.97,0,0,0-.734,3,27.589,27.589,0,0,0,.28,11.243,26.223,26.223,0,0,0,2.906,7.229c1.418,2.432,3.325,4.8,4.863,7.609a16.066,16.066,0,0,1,1.947,9.716,50.717,50.717,0,0,1-2.671,10.385,38.858,38.858,0,0,0-2.292,10.37,33,33,0,0,0,1.323,9.792c.824,3.06,1.838,5.905,2.711,8.591a60.782,60.782,0,0,1,2.072,7.6,25.487,25.487,0,0,1-.03,11.333,17.082,17.082,0,0,1-1.073,2.911c-.16.3-.285.534-.375.715a1.264,1.264,0,0,1-.14.234Z" transform="translate(-2556.472 -6099.84)" fill="#344154"/>
          <path id="Trazado_138158" data-name="Trazado 138158" d="M2592.037,6135.326s-2.881-9.222,2.287-14.619a.32.32,0,0,1,.449,0,.36.36,0,0,1,.1.18C2595.148,6122.389,2595.492,6127.027,2592.037,6135.326Z" transform="translate(-2561.212 -6110.243)" fill="#5ab4f9"/>
          <path id="Trazado_138159" data-name="Trazado 138159" d="M2594.46,6127a8.868,8.868,0,0,1-.194,1.7c-.19,1.174-.415,2.546-.659,4.065s-.459,2.9-.644,4.069a10.046,10.046,0,0,1-.3,1.682,6.785,6.785,0,0,1,.05-1.713c.095-1.053.28-2.5.545-4.094s.534-3.025.764-4.054A7.588,7.588,0,0,1,2594.46,6127Z" transform="translate(-2561.908 -6113.439)" fill="#344154"/>
          <path id="Trazado_138160" data-name="Trazado 138160" d="M2599.629,6181.725s1.763-9.487,8.857-11.853a.324.324,0,0,1,.414.4C2608.427,6171.745,2606.564,6176,2599.629,6181.725Z" transform="translate(-2565.414 -6134.899)" fill="#5ab4f9"/>
          <path id="Trazado_138161" data-name="Trazado 138161" d="M2606.495,6174.8a8.011,8.011,0,0,1-.964,1.413l-2.461,3.3-2.5,3.29a9.131,9.131,0,0,1-1.054,1.343,7.267,7.267,0,0,1,.844-1.5c.579-.889,1.418-2.082,2.4-3.367s1.887-2.421,2.572-3.225A7.688,7.688,0,0,1,2606.495,6174.8Z" transform="translate(-2565.36 -6137.375)" fill="#344154"/>
          <path id="Trazado_138162" data-name="Trazado 138162" d="M2595.708,6227.334s-1.068-9.6,5.038-13.911a.32.32,0,0,1,.24-.048.317.317,0,0,1,.2.134.314.314,0,0,1,.055.174C2601.23,6215.231,2600.686,6219.85,2595.708,6227.334Z" transform="translate(-2563.415 -6156.687)" fill="#5ab4f9"/>
          <path id="Trazado_138163" data-name="Trazado 138163" d="M2599.624,6219.31a8.76,8.76,0,0,1-.5,1.628c-.409,1.118-.894,2.421-1.423,3.869s-1,2.751-1.408,3.869a9.053,9.053,0,0,1-.664,1.577,6.866,6.866,0,0,1,.38-1.672c.295-1,.754-2.4,1.313-3.914s1.1-2.866,1.523-3.835A7.727,7.727,0,0,1,2599.624,6219.31Z" transform="translate(-2563.411 -6159.662)" fill="#344154"/>
          <path id="Trazado_138164" data-name="Trazado 138164" d="M2606.464,6275.524s-.729-9.63,5.527-13.72a.32.32,0,0,1,.444.085.365.365,0,0,1,.055.19C2612.415,6263.626,2611.711,6268.22,2606.464,6275.524Z" transform="translate(-2568.824 -6180.912)" fill="#5ab4f9"/>
          <path id="Trazado_138165" data-name="Trazado 138165" d="M2610.708,6267.6a8.4,8.4,0,0,1-.574,1.612c-.449,1.1-1,2.387-1.557,3.81l-1.549,3.814a9.537,9.537,0,0,1-.679,1.573,7.066,7.066,0,0,1,.439-1.657c.33-1,.839-2.377,1.453-3.865s1.2-2.826,1.658-3.779A7.819,7.819,0,0,1,2610.708,6267.6Z" transform="translate(-2568.78 -6183.843)" fill="#344154"/>
          <path id="Trazado_138166" data-name="Trazado 138166" d="M2575.787,6121.542s-8.562-4.494-8.727-11.942a.32.32,0,0,1,.5-.275C2568.843,6110.2,2572.337,6113.244,2575.787,6121.542Z" transform="translate(-2549.106 -6104.561)" fill="#5ab4f9"/>
          <path id="Trazado_138167" data-name="Trazado 138167" d="M2570.63,6115.069a8.879,8.879,0,0,1,1.063,1.338l2.417,3.34,2.421,3.33a9.234,9.234,0,0,1,1,1.4,6.982,6.982,0,0,1-1.174-1.248c-.679-.81-1.573-1.967-2.5-3.276s-1.757-2.5-2.331-3.4A7.251,7.251,0,0,1,2570.63,6115.069Z" transform="translate(-2550.894 -6107.465)" fill="#344154"/>
          <path id="Trazado_138168" data-name="Trazado 138168" d="M2593.528,6161.72s-8.822-3.944-9.441-11.394a.321.321,0,0,1,.063-.237.317.317,0,0,1,.212-.123.333.333,0,0,1,.225.055C2585.854,6150.821,2589.574,6153.632,2593.528,6161.72Z" transform="translate(-2557.631 -6124.938)" fill="#5ab4f9"/>
          <path id="Trazado_138169" data-name="Trazado 138169" d="M2587.92,6155.609a8.915,8.915,0,0,1,1.143,1.268l2.611,3.186,2.621,3.176a9.784,9.784,0,0,1,1.059,1.342,7,7,0,0,1-1.249-1.173c-.729-.77-1.692-1.868-2.711-3.116s-1.907-2.406-2.531-3.256a7.47,7.47,0,0,1-.944-1.427Z" transform="translate(-2559.551 -6127.766)" fill="#344154"/>
          <path id="Trazado_138170" data-name="Trazado 138170" d="M2588.807,6203.054s-6.052-7.524-3.216-14.439a.32.32,0,0,1,.409-.186.344.344,0,0,1,.16.13C2586.974,6189.878,2588.992,6194.067,2588.807,6203.054Z" transform="translate(-2558.007 -6144.189)" fill="#5ab4f9"/>
          <path id="Trazado_138171" data-name="Trazado 138171" d="M2587.56,6195a8.62,8.62,0,0,1,.439,1.657c.255,1.158.549,2.5.874,4.024s.634,2.861.888,3.995a9.555,9.555,0,0,1,.33,1.677,6.912,6.912,0,0,1-.579-1.612c-.295-1-.654-2.431-1-3.995s-.609-3-.774-4.054A7.375,7.375,0,0,1,2587.56,6195Z" transform="translate(-2559.371 -6147.489)" fill="#344154"/>
          <path id="Trazado_138172" data-name="Trazado 138172" d="M2595.529,6257.85s-8.747-4.088-9.241-11.547a.32.32,0,0,1,.5-.3C2588.08,6246.827,2591.74,6249.7,2595.529,6257.85Z" transform="translate(-2558.733 -6173)" fill="#5ab4f9"/>
          <path id="Trazado_138173" data-name="Trazado 138173" d="M2590.07,6251.64a8.662,8.662,0,0,1,1.123,1.288l2.556,3.231c.964,1.2,1.827,2.291,2.566,3.22a9.556,9.556,0,0,1,1.039,1.358,6.728,6.728,0,0,1-1.228-1.193c-.714-.778-1.658-1.9-2.656-3.16s-1.873-2.437-2.5-3.3a7.428,7.428,0,0,1-.9-1.443Z" transform="translate(-2560.628 -6175.851)" fill="#344154"/>
          <path id="Trazado_138174" data-name="Trazado 138174" d="M2622.965,6193.729a.5.5,0,0,1,0,.214v.615c-.024.58-.06,1.363-.1,2.342-.115,2.062-.269,4.932-.459,8.363h0a32.464,32.464,0,0,1-4.793,11.134c-1.752,2.77-3.594,5.287-5.177,7.628a53.865,53.865,0,0,0-3.885,6.421,27.478,27.478,0,0,0-1.817,4.708c-.15.58-.27,1.029-.335,1.334a2.12,2.12,0,0,1-.13.464,2.485,2.485,0,0,1,.06-.474c.045-.315.135-.774.27-1.359a24.673,24.673,0,0,1,1.723-4.788,51.42,51.42,0,0,1,3.834-6.49c1.578-2.357,3.405-4.883,5.153-7.639a32.907,32.907,0,0,0,4.793-10.984h0c.239-3.436.444-6.3.589-8.358.074-.974.14-1.757.185-2.337a4.488,4.488,0,0,1,.065-.613A.74.74,0,0,1,2622.965,6193.729Z" transform="translate(-2568.74 -6146.854)" fill="#344154"/>
          <path id="Trazado_138175" data-name="Trazado 138175" d="M2627.333,6222.8s3.7-8.921-.959-14.763a.319.319,0,0,0-.45-.055.3.3,0,0,0-.11.159C2625.4,6209.634,2624.641,6214.222,2627.333,6222.8Z" transform="translate(-2578.314 -6153.955)" fill="#5ab4f9"/>
          <path id="Trazado_138176" data-name="Trazado 138176" d="M2627.9,6214.389a7.776,7.776,0,0,1,.29,1.688c.135,1.048.28,2.5.394,4.1s.17,3.071.17,4.13a6.985,6.985,0,0,1-.1,1.707,9.714,9.714,0,0,1-.15-1.7c-.08-1.184-.175-2.571-.275-4.108s-.2-2.921-.29-4.11A8.132,8.132,0,0,1,2627.9,6214.389Z" transform="translate(-2579.556 -6157.198)" fill="#344154"/>
          <g id="Grupo_63195" data-name="Grupo 63195" transform="translate(47.077 53.958)" opacity="0.3">
            <path id="Trazado_138177" data-name="Trazado 138177" d="M2627.333,6222.8s3.7-8.921-.959-14.763a.319.319,0,0,0-.45-.055.3.3,0,0,0-.11.159C2625.4,6209.634,2624.641,6214.222,2627.333,6222.8Z" transform="translate(-2625.391 -6207.914)"/>
          </g>
          <path id="Trazado_138178" data-name="Trazado 138178" d="M2603.4,6266.005s3-9.191-2.152-14.639a.325.325,0,0,0-.455,0,.308.308,0,0,0-.094.175C2600.406,6253.04,2600.017,6257.672,2603.4,6266.005Z" transform="translate(-2565.857 -6175.667)" fill="#5ab4f9"/>
          <path id="Trazado_138179" data-name="Trazado 138179" d="M2603.05,6257.63a7.613,7.613,0,0,1,.429,1.657c.215,1.034.5,2.466.724,4.059s.42,3.045.5,4.1a7.259,7.259,0,0,1,.035,1.711,9.15,9.15,0,0,1-.29-1.682c-.175-1.173-.379-2.551-.6-4.074s-.445-2.9-.619-4.069A8.087,8.087,0,0,1,2603.05,6257.63Z" transform="translate(-2567.127 -6178.851)" fill="#344154"/>
          <g id="Grupo_63196" data-name="Grupo 63196" transform="translate(34.656 75.606)" opacity="0.3">
            <path id="Trazado_138180" data-name="Trazado 138180" d="M2603.4,6266.005s3-9.191-2.152-14.639a.325.325,0,0,0-.455,0,.308.308,0,0,0-.094.175C2600.406,6253.04,2600.017,6257.672,2603.4,6266.005Z" transform="translate(-2600.513 -6251.273)"/>
          </g>
          <path id="Trazado_138181" data-name="Trazado 138181" d="M2638.73,6202.579s7.913-5.536,7.115-12.98a.324.324,0,0,0-.35-.29.344.344,0,0,0-.18.08C2644.172,6190.437,2641.062,6193.9,2638.73,6202.579Z" transform="translate(-2584.993 -6144.639)" fill="#5ab4f9"/>
          <g id="Grupo_63197" data-name="Grupo 63197" transform="translate(53.737 44.668)" opacity="0.3">
            <path id="Trazado_138182" data-name="Trazado 138182" d="M2638.73,6202.579s7.913-5.536,7.115-12.98a.324.324,0,0,0-.35-.29.344.344,0,0,0-.18.08C2644.172,6190.437,2641.062,6193.9,2638.73,6202.579Z" transform="translate(-2638.73 -6189.308)"/>
          </g>
          <path id="Trazado_138183" data-name="Trazado 138183" d="M2644.5,6195.47a7.833,7.833,0,0,1-.654,1.582c-.454.954-1.108,2.257-1.872,3.675s-1.5,2.682-2.072,3.575a7.6,7.6,0,0,1-1,1.388,8.882,8.882,0,0,1,.783-1.5c.569-1.042,1.233-2.266,2-3.613l1.962-3.62A8.229,8.229,0,0,1,2644.5,6195.47Z" transform="translate(-2585.079 -6147.725)" fill="#344154"/>
          <path id="Trazado_138184" data-name="Trazado 138184" d="M2612.68,6253.564s9.541-1.5,12.1-8.513a.315.315,0,0,0-.175-.409.322.322,0,0,0-.2,0C2622.91,6245.058,2618.6,6246.81,2612.68,6253.564Z" transform="translate(-2571.949 -6172.339)" fill="#5ab4f9"/>
          <g id="Grupo_63198" data-name="Grupo 63198" transform="translate(40.73 72.287)" opacity="0.3">
            <path id="Trazado_138185" data-name="Trazado 138185" d="M2612.68,6253.564s9.541-1.5,12.1-8.513a.315.315,0,0,0-.175-.409.322.322,0,0,0-.2,0C2622.91,6245.058,2618.6,6246.81,2612.68,6253.564Z" transform="translate(-2612.68 -6244.626)"/>
          </g>
          <path id="Trazado_138186" data-name="Trazado 138186" d="M2622.346,6249.229a7.626,7.626,0,0,1-1.288,1.128c-.823.66-2,1.543-3.3,2.5s-2.531,1.748-3.435,2.3a7.065,7.065,0,0,1-1.5.8,9.066,9.066,0,0,1,1.373-1l3.365-2.377,3.355-2.387a8.411,8.411,0,0,1,1.423-.963Z" transform="translate(-2572.024 -6174.643)" fill="#344154"/>
          <path id="Trazado_138187" data-name="Trazado 138187" d="M2962.651,6510.37l-2.781,18.738h17.35l-2.252-18.738Z" transform="translate(-2931.027 -6411.579)" fill="#455a64"/>
          <path id="Trazado_138188" data-name="Trazado 138188" d="M2606.479,6309.16a136.409,136.409,0,0,1-13.979,0,136.039,136.039,0,0,1,13.979,0Z" transform="translate(-2561.844 -6204.562)" fill="#344154"/>
          <path id="Trazado_138189" data-name="Trazado 138189" d="M2606.7,6312.139a144.534,144.534,0,0,1-14.449,0c0-.1,3.23-.179,7.225-.179S2606.7,6312.039,2606.7,6312.139Z" transform="translate(-2561.719 -6206.055)" fill="#344154"/>
        </g>
        <g id="freepik--Drink--inject-63" transform="translate(6689.725 6175.089)">
          <path id="Trazado_138190" data-name="Trazado 138190" d="M2544.432,6357.568a42.426,42.426,0,0,1-8.917-.04,3.913,3.913,0,0,1-3.5-3.9h15.967a3.949,3.949,0,0,1-3.555,3.939Z" transform="translate(-2529.843 -6323.71)" fill="#e0e0e0"/>
          <path id="Trazado_138191" data-name="Trazado 138191" d="M2544.84,6327.273a32.889,32.889,0,0,1-14.095.035,3.945,3.945,0,0,1-3.085-3.854v-24.314a3.94,3.94,0,0,1,3.94-3.94H2544a3.939,3.939,0,0,1,3.939,3.94h0v24.279A3.939,3.939,0,0,1,2544.84,6327.273Z" transform="translate(-2527.66 -6294.453)" fill="#5ab4f9"/>
          <path id="Trazado_138192" data-name="Trazado 138192" d="M2547.875,6296.193c.314,1-.449,2.3-2.141,3.379a14.979,14.979,0,0,1-14.519.091c-1.708-1.063-2.5-2.337-2.182-3.355s1.567-1.663,3.255-2.047a30.233,30.233,0,0,1,6.151-.549,29.645,29.645,0,0,1,6.156.5C2546.272,6294.55,2547.555,6295.154,2547.875,6296.193Z" transform="translate(-2528.314 -6293.703)" fill="#5ab4f9"/>
          <g id="Grupo_63199" data-name="Grupo 63199" transform="translate(0.651 0)" opacity="0.5">
            <path id="Trazado_138193" data-name="Trazado 138193" d="M2547.875,6296.193c.314,1-.449,2.3-2.141,3.379a14.979,14.979,0,0,1-14.519.091c-1.708-1.063-2.5-2.337-2.182-3.355s1.567-1.663,3.255-2.047a30.233,30.233,0,0,1,6.151-.549,29.645,29.645,0,0,1,6.156.5C2546.272,6294.55,2547.555,6295.154,2547.875,6296.193Z" transform="translate(-2528.964 -6293.703)"/>
          </g>
          <path id="Trazado_138194" data-name="Trazado 138194" d="M2555.738,6297.9a6.046,6.046,0,0,0-2.781.235c-.4.13-.854.4-.829.823s.379.584.7.72a5.652,5.652,0,0,0,4.518-.11c.325-.15.684-.449.584-.794a.743.743,0,0,0-.38-.4,4.089,4.089,0,0,0-2-.57" transform="translate(-2539.912 -6295.759)" fill="#344154"/>
          <path id="Trazado_138195" data-name="Trazado 138195" d="M2549.013,6319.211a2.272,2.272,0,0,1-.5.459,4.06,4.06,0,0,1-1.847.679,4.626,4.626,0,0,1-3.03-.694,3.8,3.8,0,0,1-1.328-1.468,1.717,1.717,0,0,1-.175-1.113,1.123,1.123,0,0,1,.834-.87,1.506,1.506,0,0,1,1.168.439,5.528,5.528,0,0,1,.859.919,5.785,5.785,0,0,1,1.039,2.426,5.529,5.529,0,0,1-.2,2.821,5.1,5.1,0,0,1-1.807,2.4,5.423,5.423,0,0,1-3,1.073,4.584,4.584,0,0,1-3.135-1,5.321,5.321,0,0,1-1.848-2.866,4.5,4.5,0,0,1-.084-1.772,2,2,0,0,1,.928-1.6,1.056,1.056,0,0,1,1.128.164,2.308,2.308,0,0,1,.6.879,9.04,9.04,0,0,1,.449,1.926,10.955,10.955,0,0,1-.185,3.8,10.745,10.745,0,0,1-1.4,3.371,5.025,5.025,0,0,1-2.686,2.206,3.4,3.4,0,0,1-3.13-.829,5.344,5.344,0,0,1-1.6-2.561,6.492,6.492,0,0,1,.6-5.073l.13-.21.09.226a7.407,7.407,0,0,1,.544,3.221,7.752,7.752,0,0,1-.5,2.377,5.662,5.662,0,0,1-1.028,1.747,10.492,10.492,0,0,0,.9-1.8,7.585,7.585,0,0,0,.449-2.333,7.352,7.352,0,0,0-.579-3.121h.22a6.207,6.207,0,0,0-.525,4.859,5.029,5.029,0,0,0,1.523,2.4,3.06,3.06,0,0,0,2.811.738,4.671,4.671,0,0,0,2.5-2.067,10.27,10.27,0,0,0,1.338-3.255,10.706,10.706,0,0,0,.17-3.675,8.808,8.808,0,0,0-.424-1.828,1.857,1.857,0,0,0-.5-.719.65.65,0,0,0-.714-.116,1.66,1.66,0,0,0-.719,1.324,4.134,4.134,0,0,0,.08,1.623,4.89,4.89,0,0,0,1.708,2.656,4.256,4.256,0,0,0,2.88.918,5.075,5.075,0,0,0,2.771-1,4.763,4.763,0,0,0,1.7-2.221,5.136,5.136,0,0,0,.2-2.651,5.48,5.48,0,0,0-.963-2.306,5.27,5.27,0,0,0-.8-.875,1.238,1.238,0,0,0-.938-.39.865.865,0,0,0-.624.66,1.494,1.494,0,0,0,.145.949,3.594,3.594,0,0,0,1.223,1.388,4.5,4.5,0,0,0,2.891.729,4.058,4.058,0,0,0,1.822-.6C2548.833,6319.346,2549,6319.167,2549.013,6319.211Z" transform="translate(-2528.732 -6304.969)" fill="#fafafa"/>
          <path id="Trazado_138196" data-name="Trazado 138196" d="M2547.511,6295.915a1.261,1.261,0,0,1,.195.169,2.043,2.043,0,0,1,.559,1.788,3.119,3.119,0,0,1-.639,1.417,7.035,7.035,0,0,1-3.365,2.172,14.248,14.248,0,0,1-4.863.749,15.514,15.514,0,0,1-4.838-.869,9.673,9.673,0,0,1-1.967-.889,4.494,4.494,0,0,1-1.393-1.273,2.836,2.836,0,0,1-.35-2.642,1.956,1.956,0,0,1,.409-.619.684.684,0,0,1,.2-.16,2.664,2.664,0,0,0-.5.819,2.782,2.782,0,0,0,.4,2.5,6.35,6.35,0,0,0,3.285,2.043,15.992,15.992,0,0,0,4.768.833,14.366,14.366,0,0,0,4.778-.714,6.988,6.988,0,0,0,3.3-2.056,3.108,3.108,0,0,0,.649-1.333,2.1,2.1,0,0,0-.095-1.108,3.781,3.781,0,0,0-.54-.823Z" transform="translate(-2529.168 -6294.733)" fill="#344154"/>
        </g>
        <g id="Grupo_63204" data-name="Grupo 63204" transform="translate(6424.621 6056.226)">
          <path id="Trazado_138213" data-name="Trazado 138213" d="M2367.68,6268.29h71.446v65.564a8.1,8.1,0,0,1-8.1,8.1H2367.68Z" transform="translate(-2367.68 -6268.29)" fill="#f2f1f1"/>
          <g id="Grupo_63203" data-name="Grupo 63203" transform="translate(7.864 21.653)">
            <path id="Trazado_138214" data-name="Trazado 138214" d="M2070.151,6099.27c0,.149-12.911.27-28.838.27s-28.843-.12-28.843-.27,12.911-.27,28.843-.27S2070.151,6099.12,2070.151,6099.27Z" transform="translate(-2012.45 -6099)" fill="#5e6178"/>
            <path id="Trazado_138215" data-name="Trazado 138215" d="M2042.3,6109.265c0,.145-6.375.269-14.244.269s-14.254-.124-14.254-.269,6.38-.275,14.254-.275S2042.3,6109.115,2042.3,6109.265Z" transform="translate(-2013.116 -6104.002)" fill="#5e6178"/>
            <path id="Trazado_138216" data-name="Trazado 138216" d="M2086.149,6108.339a26.563,26.563,0,1,1-3.775-.27A13.461,13.461,0,0,1,2086.149,6108.339Z" transform="translate(-2045.563 -6103.541)" fill="#5e6178"/>
            <path id="Trazado_138217" data-name="Trazado 138217" d="M2116.028,6107.729a103.986,103.986,0,0,1-14.978,0,51.94,51.94,0,0,1,7.489-.27A51.1,51.1,0,0,1,2116.028,6107.729Z" transform="translate(-2056.804 -6103.236)" fill="#5e6178"/>
            <path id="Trazado_138218" data-name="Trazado 138218" d="M2039.236,6118.83c0,.149-5.991.27-13.4.27s-13.405-.12-13.405-.27,5.991-.27,13.405-.27S2039.236,6118.679,2039.236,6118.83Z" transform="translate(-2012.43 -6108.795)" fill="#5e6178"/>
            <path id="Trazado_138219" data-name="Trazado 138219" d="M2101.7,6118.549c0,.149-6.555.275-14.633.275s-14.634-.126-14.634-.275,6.551-.27,14.634-.27S2101.7,6118.4,2101.7,6118.549Z" transform="translate(-2042.474 -6108.654)" fill="#5e6178"/>
            <path id="Trazado_138220" data-name="Trazado 138220" d="M2117.981,6128.18a78.889,78.889,0,0,1-13.031,0,78.889,78.889,0,0,1,13.031,0Z" transform="translate(-2058.757 -6113.476)" fill="#5e6178"/>
          </g>
          <path id="Trazado_138221" data-name="Trazado 138221" d="M2045.379,6088.559c0,.15-7.069.27-15.787.27s-15.792-.119-15.792-.27,7.07-.269,15.792-.269S2045.379,6088.409,2045.379,6088.559Z" transform="translate(-2005.252 -6071.983)" fill="#5ab4f9"/>
        </g>
        <g id="Grupo_63207" data-name="Grupo 63207" transform="translate(6361.244 6097.486)">
          <g id="Grupo_63205" data-name="Grupo 63205" transform="translate(0 0)">
            <rect id="Rectángulo_14685" data-name="Rectángulo 14685" width="148.418" height="98.147" rx="14.57" transform="translate(6.001)" fill="#344154"/>
            <path id="Trazado_138222" data-name="Trazado 138222" d="M2240.74,6533h160.8a8.588,8.588,0,0,1-8.587,8.588H2249.327a8.588,8.588,0,0,1-8.587-8.588Z" transform="translate(-2240.74 -6442.098)" fill="#344154"/>
            <rect id="Rectángulo_14686" data-name="Rectángulo 14686" width="140.036" height="82.884" transform="translate(10.19 3.899)" fill="#5e6178"/>
            <path id="Trazado_138223" data-name="Trazado 138223" d="M2001.5,6320.234h2.452l6.785-.03,22.687-.044h.169l-.084.144c-.285.5-.594,1-.9,1.543l-.953,1.627-.03.05h-.055l-28.074-.055h0l-1.468-2.393c-.159-.259-.284-.459-.369-.6s-.12-.2-.12-.2.05.07.14.209.224.345.394.61l1.5,2.331h-.035l28.074-.054-.08.05c.3-.529.629-1.078.948-1.633l.9-1.542.08.145-22.592-.049h-9.332Z" transform="translate(-1935.716 -6229.348)" fill="#5e6178"/>
          </g>
          <g id="Grupo_63206" data-name="Grupo 63206" transform="translate(5.991 90.797)">
            <line id="Línea_1157" data-name="Línea 1157" x2="148.413" transform="translate(0.01 0.09)" fill="#344154"/>
            <path id="Trazado_138224" data-name="Trazado 138224" d="M2030.153,6320.22c0,.05-33.227.09-74.207.09s-74.206-.04-74.206-.09,33.216-.09,74.206-.09S2030.153,6320.17,2030.153,6320.22Z" transform="translate(-1881.74 -6320.129)" fill="#5e6178"/>
          </g>
        </g>
        <g id="Grupo_63209" data-name="Grupo 63209" transform="translate(6399.194 6084.716)">
          <path id="Trazado_138225" data-name="Trazado 138225" d="M2090.993,6112.91h0a4.143,4.143,0,0,1,4.144,4.144v8.487h-12.4v-7.848a4.8,4.8,0,0,1,4.8-4.8Z" transform="translate(-2014.345 -6112.791)" fill="#344154"/>
          <path id="Trazado_138226" data-name="Trazado 138226" d="M2046.869,6112.811c0,.05-11.7.08-26.122.065s-26.127-.065-26.127-.115,11.693-.08,26.127-.065S2046.869,6112.761,2046.869,6112.811Z" transform="translate(-1970.22 -6112.692)" fill="#344154"/>
          <path id="Trazado_138227" data-name="Trazado 138227" d="M2022.509,6112.871l-5.173-.041-7.489.05h-55.169a8.488,8.488,0,0,0-8.488,8.487v91.152h71.451v-94.992C2017.835,6112.88,2022.509,6112.871,2022.509,6112.871Z" transform="translate(-1945.97 -6112.761)" fill="#fafafa"/>
          <path id="Trazado_138228" data-name="Trazado 138228" d="M2022.288,6112.813l-43.082.09h-24.229c-.454,0-.894,0-1.338.039a9,9,0,0,0-1.3.24,8.3,8.3,0,0,0-5.711,5.167,5.766,5.766,0,0,0-.215.629l-.165.644a8.379,8.379,0,0,0-.155,1.319c-.04,1.781,0,3.584,0,5.377l.06,86.164-.175-.174,71.451.045-.13.129.035-51.245.045-25.623V6118a5.358,5.358,0,0,1,.03-.8,4.628,4.628,0,0,1,.125-.789,4.273,4.273,0,0,1,1.733-2.612,5.034,5.034,0,0,1,1.438-.693,5.941,5.941,0,0,1,1.587-.294Zm0,0a5.783,5.783,0,0,0-1.573.28,5.04,5.04,0,0,0-1.433.694,4.235,4.235,0,0,0-1.713,2.606,4.168,4.168,0,0,0-.12.789,5.288,5.288,0,0,0-.03.8V6135.6l.04,25.618.035,51.245v.125h-.125l-71.451.045h-.17v-.17l.06-86.165v-5.387a9.525,9.525,0,0,1,.16-1.353l.17-.658c.055-.226.15-.429.224-.645a8.466,8.466,0,0,1,1.353-2.357,8.582,8.582,0,0,1,4.493-2.891,9.286,9.286,0,0,1,1.338-.244c.454-.026.909-.05,1.358-.041h24.23Z" transform="translate(-1945.75 -6112.704)" fill="#344154"/>
          <path id="Trazado_138229" data-name="Trazado 138229" d="M2038.82,6147.39c0,.15-6.875.269-15.357.269s-15.363-.119-15.363-.269,6.875-.27,15.363-.27S2038.82,6147.239,2038.82,6147.39Z" transform="translate(-1976.97 -6129.931)" fill="#5ab4f9"/>
          <path id="Trazado_138230" data-name="Trazado 138230" d="M2021.213,6157.22a65.619,65.619,0,0,1-11.883,0,65.619,65.619,0,0,1,11.883,0Z" transform="translate(-1977.587 -6134.854)" fill="#5e6178"/>
          <path id="Trazado_138231" data-name="Trazado 138231" d="M1980.517,6187.209c0,.149-5.052.27-11.278.27s-11.279-.121-11.279-.27,5.048-.269,11.279-.269S1980.517,6187.06,1980.517,6187.209Z" transform="translate(-1951.864 -6149.871)" fill="#5e6178"/>
          <path id="Trazado_138232" data-name="Trazado 138232" d="M2031.677,6187.209c0,.149-5.048.27-11.279.27s-11.279-.121-11.279-.27,5.048-.269,11.279-.269S2031.677,6187.06,2031.677,6187.209Z" transform="translate(-1977.481 -6149.871)" fill="#5ab4f9"/>
          <path id="Trazado_138233" data-name="Trazado 138233" d="M1980.517,6195.219c0,.15-5.052.27-11.278.27s-11.279-.12-11.279-.27,5.048-.269,11.279-.269S1980.517,6195.069,1980.517,6195.219Z" transform="translate(-1951.864 -6153.881)" fill="#5e6178"/>
          <path id="Trazado_138234" data-name="Trazado 138234" d="M1980.517,6203.224c0,.149-5.052.27-11.278.27s-11.279-.121-11.279-.27,5.048-.274,11.279-.274S1980.517,6203.074,1980.517,6203.224Z" transform="translate(-1951.864 -6157.886)" fill="#5ab4f9"/>
          <path id="Trazado_138235" data-name="Trazado 138235" d="M2021.213,6173.529a64.457,64.457,0,0,1-11.883,0,65.619,65.619,0,0,1,11.883,0Z" transform="translate(-1977.587 -6143.021)" fill="#5e6178"/>
          <path id="Trazado_138236" data-name="Trazado 138236" d="M2066.438,6187.209a29.265,29.265,0,1,1-3.959-.269A14.734,14.734,0,0,1,2066.438,6187.209Z" transform="translate(-2002.217 -6149.871)" fill="#5e6178"/>
          <path id="Trazado_138237" data-name="Trazado 138237" d="M2058.19,6157.22a192.765,192.765,0,0,1-20.38,0,192.765,192.765,0,0,1,20.38,0Z" transform="translate(-1991.847 -6134.854)" fill="#5e6178"/>
          <path id="Trazado_138238" data-name="Trazado 138238" d="M2043.011,6165.029c0,.15-7.539.27-16.84.27s-16.841-.12-16.841-.27,7.539-.27,16.841-.27S2043.011,6164.879,2043.011,6165.029Z" transform="translate(-1977.587 -6138.764)" fill="#5e6178"/>
          <path id="Trazado_138239" data-name="Trazado 138239" d="M2041.7,6195.219c0,.15-7.295.27-16.291.27s-16.292-.12-16.292-.27,7.294-.269,16.292-.269S2041.7,6195.069,2041.7,6195.219Z" transform="translate(-1977.481 -6153.881)" fill="#5e6178"/>
          <path id="Trazado_138240" data-name="Trazado 138240" d="M2043.715,6218.4c0,.15-6.845.269-15.282.269s-15.293-.119-15.293-.269,6.845-.27,15.293-.27S2043.715,6218.249,2043.715,6218.4Z" transform="translate(-1979.494 -6165.488)" fill="#5ab4f9"/>
          <path id="Trazado_138241" data-name="Trazado 138241" d="M2043.715,6226.2c0,.149-6.845.27-15.282.27s-15.293-.12-15.293-.27,6.845-.27,15.293-.27S2043.715,6226.05,2043.715,6226.2Z" transform="translate(-1979.494 -6169.394)" fill="#5e6178"/>
          <path id="Trazado_138242" data-name="Trazado 138242" d="M2043.715,6233.989c0,.15-6.845.27-15.282.27s-15.293-.12-15.293-.27,6.845-.27,15.293-.27S2043.715,6233.86,2043.715,6233.989Z" transform="translate(-1979.494 -6173.294)" fill="#5e6178"/>
          <path id="Trazado_138243" data-name="Trazado 138243" d="M2043.715,6241.784c0,.145-6.845.271-15.282.271s-15.293-.126-15.293-.271,6.845-.274,15.293-.274S2043.715,6241.635,2043.715,6241.784Z" transform="translate(-1979.494 -6177.195)" fill="#5e6178"/>
          <path id="Trazado_138244" data-name="Trazado 138244" d="M2030.744,6249.579a12.2,12.2,0,0,1-2.576.189c-1.578.045-3.794.08-6.226.08s-4.628-.03-6.221-.08a1.3,1.3,0,1,1,0-.38c1.583-.05,3.79-.08,6.221-.08s4.634.03,6.226.08A12.363,12.363,0,0,1,2030.744,6249.579Z" transform="translate(-1979.494 -6181.1)" fill="#5e6178"/>
          <path id="Trazado_138245" data-name="Trazado 138245" d="M2036.877,6203.645c0,.145-5.9.269-13.166.269s-13.171-.124-13.171-.269,5.9-.275,13.171-.275S2036.877,6203.495,2036.877,6203.645Z" transform="translate(-1978.193 -6158.097)" fill="#5e6178"/>
          <g id="Grupo_63208" data-name="Grupo 63208" transform="translate(32.338 90.292)">
            <path id="Trazado_138246" data-name="Trazado 138246" d="M2011.758,6294.159a.619.619,0,1,1-.619-.619.614.614,0,0,1,.619.619Z" transform="translate(-2010.52 -6293.54)" fill="#344154"/>
            <path id="Trazado_138247" data-name="Trazado 138247" d="M2019.1,6294.159a.614.614,0,1,1-.178-.437A.614.614,0,0,1,2019.1,6294.159Z" transform="translate(-2014.2 -6293.54)" fill="#344154"/>
            <path id="Trazado_138248" data-name="Trazado 138248" d="M2026.418,6294.159a.614.614,0,1,1-.178-.437.618.618,0,0,1,.178.438Z" transform="translate(-2017.86 -6293.54)" fill="#344154"/>
          </g>
          <path id="Trazado_138249" data-name="Trazado 138249" d="M2032.022,6265.818c0,.151-5.053.27-11.279.27s-11.284-.119-11.284-.27,5.052-.269,11.284-.269S2032.022,6265.669,2032.022,6265.818Z" transform="translate(-1977.652 -6189.232)" fill="#5ab4f9"/>
          <path id="Trazado_138250" data-name="Trazado 138250" d="M2042.047,6273.829c0,.149-7.294.271-16.291.271s-16.3-.121-16.3-.271,7.294-.27,16.3-.27S2042.047,6273.68,2042.047,6273.829Z" transform="translate(-1977.652 -6193.243)" fill="#5e6178"/>
        </g>
        <g id="Grupo_63235" data-name="Grupo 63235" transform="translate(6293.855 6130.778)">
          <g id="Grupo_63232" data-name="Grupo 63232" transform="translate(0 14.724)">
            <rect id="Rectángulo_14697" data-name="Rectángulo 14697" width="17.934" height="49.068" fill="#f3f0ea"/>
            <rect id="Rectángulo_14698" data-name="Rectángulo 14698" width="11.284" height="21.309" transform="translate(3.325 3.225)" fill="#aed3f2"/>
            <path id="Trazado_138300" data-name="Trazado 138300" d="M1734.687,6307.494a4.433,4.433,0,1,1-4.433-4.433,4.434,4.434,0,0,1,4.433,4.433Z" transform="translate(-1721.286 -6268.8)" fill="#aed3f2"/>
            <rect id="Rectángulo_14699" data-name="Rectángulo 14699" width="7.055" height="1.812" transform="translate(5.442 7.155)" fill="#6595bf"/>
            <rect id="Rectángulo_14700" data-name="Rectángulo 14700" width="7.055" height="1.812" transform="translate(5.442 10.984)" fill="#6595bf"/>
          </g>
          <g id="Grupo_63233" data-name="Grupo 63233" transform="translate(19.437 6.59)">
            <rect id="Rectángulo_14701" data-name="Rectángulo 14701" width="17.934" height="57.207" fill="#f3f0ea"/>
            <rect id="Rectángulo_14702" data-name="Rectángulo 14702" width="11.284" height="21.309" transform="translate(3.325 3.225)" fill="#aed3f2"/>
            <path id="Trazado_138301" data-name="Trazado 138301" d="M1773.627,6307.553a4.433,4.433,0,1,1-4.433-4.434A4.434,4.434,0,0,1,1773.627,6307.553Z" transform="translate(-1760.222 -6260.697)" fill="#aed3f2"/>
            <rect id="Rectángulo_14703" data-name="Rectángulo 14703" width="7.055" height="1.812" transform="translate(5.442 7.155)" fill="#6595bf"/>
            <rect id="Rectángulo_14704" data-name="Rectángulo 14704" width="7.055" height="1.812" transform="translate(5.442 10.984)" fill="#6595bf"/>
          </g>
          <g id="Grupo_63234" data-name="Grupo 63234" transform="translate(38.878 0)">
            <path id="Trazado_1031840" data-name="Trazado 1031840" d="M0,0H17.934V63.8H0Z" fill="#f3f0ea"/>
            <rect id="Rectángulo_14706" data-name="Rectángulo 14706" width="11.284" height="21.309" transform="translate(3.325 3.22)" fill="#aed3f2"/>
            <path id="Trazado_138302" data-name="Trazado 138302" d="M1812.557,6307.553a4.429,4.429,0,1,1-1.3-3.136A4.434,4.434,0,0,1,1812.557,6307.553Z" transform="translate(-1799.156 -6254.105)" fill="#aed3f2"/>
            <rect id="Rectángulo_14707" data-name="Rectángulo 14707" width="7.055" height="1.812" transform="translate(5.442 7.15)" fill="#6595bf"/>
            <rect id="Rectángulo_14708" data-name="Rectángulo 14708" width="7.055" height="1.812" transform="translate(5.442 10.979)" fill="#6595bf"/>
          </g>
        </g>
        <g id="Grupo_63236" data-name="Grupo 63236" transform="translate(6593.64 6152.542)">
          <path id="Trazado_138303" data-name="Trazado 138303" d="M2711.013,6517.193l-4.8-55.993h103.614l-6.865,56.687Z" transform="translate(-2706.21 -6461.2)" fill="#344154"/>
          <path id="Trazado_138304" data-name="Trazado 138304" d="M2438.95,6301.735a6.6,6.6,0,1,1-6.6-6.6A6.6,6.6,0,0,1,2438.95,6301.735Z" transform="translate(-2380.545 -6271.874)" fill="#fafafa"/>
        </g>
      </g>
    </g>
  </g>
</svg>
