<svg xmlns="http://www.w3.org/2000/svg" xmlns:xlink="http://www.w3.org/1999/xlink" width="505.051" height="490" viewBox="0 0 505.051 490">
  <defs>
    <clipPath id="clip-path">
      <rect id="Rectángulo_404709" data-name="Rectángulo 404709" width="505" height="490" transform="translate(810.051 8732)" fill="#fff" stroke="#707070" stroke-width="1"/>
    </clipPath>
    <clipPath id="clip-path-2">
      <rect id="Rectángulo_6575" data-name="Rectángulo 6575" width="343.012" height="247.724" fill="#fd9826"/>
    </clipPath>
  </defs>
  <g id="Grupo_1176968" data-name="Grupo 1176968" transform="translate(-810 -8732)">
    <rect id="Rectángulo_404823" data-name="Rectángulo 404823" width="505" height="276.121" rx="12" transform="translate(810 8836.379)" fill="#fed6a8"/>
    <g id="Enmascarar_grupo_1098733" data-name="Enmascarar grupo 1098733" clip-path="url(#clip-path)">
      <g id="Grupo_1176752" data-name="Grupo 1176752" transform="translate(526.509 4970.33)">
        <g id="freepik--Page--inject-276" transform="translate(402.476 3823.154)">
          <path id="Trazado_101048" data-name="Trazado 101048" d="M498.978,3839.595l-9.607-15.31H404.856V4099.9H752.735v-260.3Z" transform="translate(-404.856 -3824.285)" fill="#344154"/>
          <rect id="Rectángulo_6571" data-name="Rectángulo 6571" width="343.012" height="247.724" transform="translate(2.584 22.333)" fill="#fff"/>
          <g id="Grupo_53901" data-name="Grupo 53901" transform="translate(2.584 22.333)">
            <g id="Grupo_53900" data-name="Grupo 53900" clip-path="url(#clip-path-2)">
              <g id="Grupo_53899" data-name="Grupo 53899" transform="translate(-1.36 -3.342)">
                <rect id="Rectángulo_6572" data-name="Rectángulo 6572" width="7.966" height="251.727" transform="translate(338.087 1.224)" fill="#fd9826" opacity="0.17" style="isolation: isolate"/>
                <rect id="Rectángulo_6573" data-name="Rectángulo 6573" width="7.966" height="97.483" transform="translate(338.087 153.418)" fill="#fd9826" opacity="0.17" style="isolation: isolate"/>
                <rect id="Rectángulo_6574" data-name="Rectángulo 6574" width="344.819" height="13.474" fill="#fd9826" stroke="#263238" stroke-miterlimit="10" stroke-width="1"/>
              </g>
            </g>
          </g>
          <rect id="Rectángulo_6576" data-name="Rectángulo 6576" width="343.012" height="247.724" transform="translate(2.584 22.333)" fill="none" stroke="#263238" stroke-linecap="round" stroke-linejoin="round" stroke-width="1"/>
          <g id="Grupo_53902" data-name="Grupo 53902" transform="translate(155.185 41.217)" opacity="0.17">
            <path id="Trazado_101049" data-name="Trazado 101049" d="M590.718,3870.95H566.724a2.118,2.118,0,0,1-2.118-2.118h0a2.118,2.118,0,0,1,2.118-2.118h23.994a2.128,2.128,0,0,1,2.118,2.118h0A2.127,2.127,0,0,1,590.718,3870.95Z" transform="translate(-564.606 -3866.715)"/>
            <path id="Trazado_101050" data-name="Trazado 101050" d="M640.118,3870.95H616.124a2.128,2.128,0,0,1-2.118-2.118h0a2.129,2.129,0,0,1,2.118-2.118h23.994a2.118,2.118,0,0,1,2.118,2.118h0A2.118,2.118,0,0,1,640.118,3870.95Z" transform="translate(-566.017 -3866.715)"/>
            <path id="Trazado_101051" data-name="Trazado 101051" d="M689.558,3870.95H665.564a2.118,2.118,0,0,1-2.118-2.118h0a2.118,2.118,0,0,1,2.118-2.118h23.994a2.128,2.128,0,0,1,2.118,2.118h0A2.127,2.127,0,0,1,689.558,3870.95Z" transform="translate(-567.43 -3866.715)"/>
            <path id="Trazado_101052" data-name="Trazado 101052" d="M738.928,3870.95H714.934a2.128,2.128,0,0,1-2.118-2.118h0a2.129,2.129,0,0,1,2.118-2.118h23.994a2.118,2.118,0,0,1,2.118,2.118h0A2.118,2.118,0,0,1,738.928,3870.95Z" transform="translate(-568.84 -3866.715)"/>
          </g>
          <line id="Línea_221" data-name="Línea 221" x2="308.983" transform="translate(21.294 231.375)" fill="none" stroke="#263238" stroke-miterlimit="10" stroke-width="0.5"/>
          <line id="Línea_222" data-name="Línea 222" y1="2.39" transform="translate(21.294 228.985)" fill="none" stroke="#263238" stroke-miterlimit="10" stroke-width="0.5"/>
          <line id="Línea_223" data-name="Línea 223" y1="2.39" transform="translate(59.918 228.985)" fill="none" stroke="#263238" stroke-miterlimit="10" stroke-width="0.5"/>
          <line id="Línea_224" data-name="Línea 224" y1="2.39" transform="translate(98.542 228.985)" fill="none" stroke="#263238" stroke-miterlimit="10" stroke-width="0.5"/>
          <line id="Línea_225" data-name="Línea 225" y1="2.39" transform="translate(137.166 228.985)" fill="none" stroke="#263238" stroke-miterlimit="10" stroke-width="0.5"/>
          <line id="Línea_226" data-name="Línea 226" y1="2.39" transform="translate(175.78 228.985)" fill="none" stroke="#263238" stroke-miterlimit="10" stroke-width="0.5"/>
          <line id="Línea_227" data-name="Línea 227" y1="2.39" transform="translate(214.404 228.985)" fill="none" stroke="#263238" stroke-miterlimit="10" stroke-width="0.5"/>
          <line id="Línea_228" data-name="Línea 228" y1="2.39" transform="translate(253.028 228.985)" fill="none" stroke="#263238" stroke-miterlimit="10" stroke-width="0.5"/>
          <line id="Línea_229" data-name="Línea 229" y1="2.39" transform="translate(291.652 228.985)" fill="none" stroke="#263238" stroke-miterlimit="10" stroke-width="0.5"/>
          <line id="Línea_230" data-name="Línea 230" y1="2.39" transform="translate(330.277 228.985)" fill="none" stroke="#263238" stroke-miterlimit="10" stroke-width="0.5"/>
          <line id="Línea_231" data-name="Línea 231" x1="38.624" y2="11.949" transform="translate(40.606 156.633)" fill="none" stroke="#263238" stroke-linecap="round" stroke-miterlimit="10" stroke-width="2"/>
          <line id="Línea_232" data-name="Línea 232" x1="38.624" y2="26.277" transform="translate(79.23 130.356)" fill="none" stroke="#263238" stroke-linecap="round" stroke-miterlimit="10" stroke-width="2"/>
          <line id="Línea_233" data-name="Línea 233" x1="38.614" y2="35.826" transform="translate(117.854 94.53)" fill="none" stroke="#263238" stroke-linecap="round" stroke-miterlimit="10" stroke-width="2"/>
          <line id="Línea_234" data-name="Línea 234" x1="38.624" y2="3.585" transform="translate(156.468 90.945)" fill="none" stroke="#263238" stroke-linecap="round" stroke-miterlimit="10" stroke-width="2"/>
          <line id="Línea_235" data-name="Línea 235" x1="38.624" y1="26.277" transform="translate(195.092 90.945)" fill="none" stroke="#263238" stroke-linecap="round" stroke-miterlimit="10" stroke-width="2"/>
          <line id="Línea_236" data-name="Línea 236" x1="38.624" y1="25.082" transform="translate(233.716 117.222)" fill="none" stroke="#263238" stroke-linecap="round" stroke-miterlimit="10" stroke-width="2"/>
          <line id="Línea_237" data-name="Línea 237" x1="38.624" y2="52.554" transform="translate(272.34 89.75)" fill="none" stroke="#263238" stroke-linecap="round" stroke-miterlimit="10" stroke-width="2"/>
          <path id="Trazado_101053" data-name="Trazado 101053" d="M446.511,3992.755h0a4.926,4.926,0,0,1,4.926,4.925h0a4.925,4.925,0,0,1-4.926,4.915h0a4.925,4.925,0,0,1-4.925-4.915h0a4.925,4.925,0,0,1,4.925-4.925Z" transform="translate(-405.906 -3829.098)" fill="#d9a171" stroke="#263238" stroke-miterlimit="10" stroke-width="1"/>
          <path id="Trazado_101054" data-name="Trazado 101054" d="M486.271,3980.455h0a4.925,4.925,0,0,1,4.925,4.925h0a4.924,4.924,0,0,1-4.924,4.925h0a4.925,4.925,0,0,1-4.925-4.925h0a4.925,4.925,0,0,1,4.925-4.925Z" transform="translate(-407.042 -3828.747)" fill="#fd9826" stroke="#263238" stroke-miterlimit="10" stroke-width="1"/>
          <path id="Trazado_101055" data-name="Trazado 101055" d="M526.032,3953.415h0a4.915,4.915,0,0,1,4.914,4.916h0a4.914,4.914,0,0,1-4.9,4.925h-.01a4.925,4.925,0,0,1-4.926-4.925h0A4.926,4.926,0,0,1,526.032,3953.415Z" transform="translate(-408.178 -3827.974)" fill="#fd9826" stroke="#263238" stroke-miterlimit="10" stroke-width="1"/>
          <path id="Trazado_101056" data-name="Trazado 101056" d="M565.782,3916.525h0a4.925,4.925,0,0,1,4.925,4.925h0a4.925,4.925,0,0,1-4.925,4.925h0a4.924,4.924,0,0,1-4.915-4.925h0A4.925,4.925,0,0,1,565.782,3916.525Z" transform="translate(-409.314 -3826.921)" fill="#fd9826" stroke="#263238" stroke-miterlimit="10" stroke-width="1"/>
          <path id="Trazado_101057" data-name="Trazado 101057" d="M605.541,3912.845h0a4.916,4.916,0,0,1,4.925,4.906v.01h0a4.925,4.925,0,0,1-4.925,4.925h0a4.916,4.916,0,0,1-4.915-4.916v-.01h0a4.907,4.907,0,0,1,4.9-4.916Z" transform="translate(-410.45 -3826.815)" fill="#fd9826" stroke="#263238" stroke-miterlimit="10" stroke-width="1"/>
          <path id="Trazado_101058" data-name="Trazado 101058" d="M645.3,3939.885h0a4.925,4.925,0,0,1,4.925,4.925h0a4.924,4.924,0,0,1-4.925,4.925h0a4.925,4.925,0,0,1-4.925-4.925h0a4.925,4.925,0,0,1,4.925-4.925Z" transform="translate(-411.585 -3827.588)" fill="#fd9826" stroke="#263238" stroke-miterlimit="10" stroke-width="1"/>
          <path id="Trazado_101059" data-name="Trazado 101059" d="M685.056,3965.7h0a4.92,4.92,0,0,1,4.92,4.92h0a4.919,4.919,0,0,1-4.92,4.92h0a4.92,4.92,0,0,1-4.92-4.92h0A4.921,4.921,0,0,1,685.056,3965.7Z" transform="translate(-412.721 -3828.325)" fill="#fd9826" stroke="#263238" stroke-miterlimit="10" stroke-width="1"/>
          <path id="Trazado_101060" data-name="Trazado 101060" d="M724.822,3911.615h0a4.906,4.906,0,0,1,4.915,4.9v.019h0a4.916,4.916,0,0,1-4.906,4.925h-.01a4.925,4.925,0,0,1-4.925-4.925h0a4.915,4.915,0,0,1,4.914-4.915Z" transform="translate(-413.857 -3826.78)" fill="#fd9826" stroke="#263238" stroke-miterlimit="10" stroke-width="1"/>
          <path id="Trazado_101061" data-name="Trazado 101061" d="M446.646,4025.362l39.731-10.1,37.711,1.35,37.711,8.073,39.732-22.217,39.061,17.505,37.721,1.35,39.051-10.773" transform="translate(-406.05 -3829.376)" fill="none" stroke="#787878" stroke-linecap="round" stroke-miterlimit="10" stroke-width="2"/>
          <path id="Trazado_101062" data-name="Trazado 101062" d="M446.511,4021.175h0a4.925,4.925,0,0,1,4.926,4.925h0a4.925,4.925,0,0,1-4.925,4.925h0a4.925,4.925,0,0,1-4.925-4.925h0A4.925,4.925,0,0,1,446.511,4021.175Z" transform="translate(-405.906 -3829.91)" fill="#344154" stroke="#263238" stroke-miterlimit="10" stroke-width="1"/>
          <path id="Trazado_101063" data-name="Trazado 101063" d="M486.271,4011h0a4.925,4.925,0,0,1,4.925,4.916h0a4.924,4.924,0,0,1-4.924,4.925h0a4.924,4.924,0,0,1-4.945-4.9v-.079h0A4.927,4.927,0,0,1,486.271,4011Z" transform="translate(-407.041 -3829.62)" fill="#344154" stroke="#263238" stroke-miterlimit="10" stroke-width="1"/>
          <path id="Trazado_101064" data-name="Trazado 101064" d="M526.032,4011.645h0a4.917,4.917,0,0,1,4.915,4.915v.01h0a4.915,4.915,0,0,1-4.914,4.916h0a4.925,4.925,0,0,1-4.926-4.916h0a4.925,4.925,0,0,1,4.925-4.925Z" transform="translate(-408.178 -3829.638)" fill="#344154" stroke="#263238" stroke-miterlimit="10" stroke-width="1"/>
          <path id="Trazado_101065" data-name="Trazado 101065" d="M565.782,4019.825h0a4.926,4.926,0,0,1,4.925,4.916h0a4.926,4.926,0,0,1-4.877,4.973h-.049a4.923,4.923,0,0,1-4.915-4.925h0a4.923,4.923,0,0,1,4.885-4.963Z" transform="translate(-409.314 -3829.872)" fill="#344154" stroke="#263238" stroke-miterlimit="10" stroke-width="1"/>
          <path id="Trazado_101066" data-name="Trazado 101066" d="M605.541,3997.415h0a4.925,4.925,0,0,1,4.925,4.925h0a4.915,4.915,0,0,1-4.915,4.915h-.01a4.906,4.906,0,0,1-4.915-4.9v-.019h0a4.917,4.917,0,0,1,4.906-4.925Z" transform="translate(-410.45 -3829.231)" fill="#344154" stroke="#263238" stroke-miterlimit="10" stroke-width="1"/>
          <path id="Trazado_101067" data-name="Trazado 101067" d="M645.3,4014.065h0a4.925,4.925,0,0,1,4.925,4.925h0a4.915,4.915,0,0,1-4.915,4.916h-.01a4.915,4.915,0,0,1-4.925-4.906v-.01h0a4.925,4.925,0,0,1,4.925-4.925Z" transform="translate(-411.585 -3829.707)" fill="#344154" stroke="#263238" stroke-miterlimit="10" stroke-width="1"/>
          <path id="Trazado_101068" data-name="Trazado 101068" d="M685.056,4015.615h0a4.92,4.92,0,0,1,4.92,4.92h0a4.919,4.919,0,0,1-4.92,4.92h0a4.92,4.92,0,0,1-4.92-4.92h0A4.921,4.921,0,0,1,685.056,4015.615Z" transform="translate(-412.721 -3829.751)" fill="#344154" stroke="#263238" stroke-miterlimit="10" stroke-width="1"/>
          <path id="Trazado_101069" data-name="Trazado 101069" d="M724.822,4005.895h0a4.916,4.916,0,0,1,4.915,4.916v.048h0a4.915,4.915,0,0,1-4.906,4.925h-.01a4.925,4.925,0,0,1-4.925-4.925h0a4.925,4.925,0,0,1,4.885-4.964Z" transform="translate(-413.857 -3829.474)" fill="#344154" stroke="#263238" stroke-miterlimit="10" stroke-width="1"/>
          <line id="Línea_238" data-name="Línea 238" x2="39.032" transform="translate(98.892 40.732)" fill="none" stroke="#263238" stroke-miterlimit="10" stroke-width="1"/>
          <line id="Línea_239" data-name="Línea 239" x2="39.032" transform="translate(98.892 47.377)" fill="none" stroke="#263238" stroke-miterlimit="10" stroke-width="1"/>
          <line id="Línea_240" data-name="Línea 240" x2="39.032" transform="translate(98.892 54.021)" fill="none" stroke="#263238" stroke-miterlimit="10" stroke-width="1"/>
          <line id="Línea_241" data-name="Línea 241" x2="39.032" transform="translate(98.892 60.666)" fill="none" stroke="#263238" stroke-miterlimit="10" stroke-width="1"/>
          <rect id="Rectángulo_6577" data-name="Rectángulo 6577" width="93.831" height="33.67" transform="translate(205.331 61.968)" fill="#344154" stroke="#263238" stroke-linecap="round" stroke-linejoin="round" stroke-width="1"/>
          <path id="Trazado_101070" data-name="Trazado 101070" d="M695.516,3903.325h27.618v10.783" transform="translate(-413.161 -3826.543)" fill="none" stroke="#263238" stroke-linecap="round" stroke-linejoin="round" stroke-width="1"/>
          <line id="Línea_242" data-name="Línea 242" x2="45.113" transform="translate(237.243 100.359)" fill="none" stroke="#263238" stroke-linecap="round" stroke-linejoin="round" stroke-width="1"/>
          <line id="Línea_243" data-name="Línea 243" x2="45.113" transform="translate(237.243 103.72)" fill="none" stroke="#263238" stroke-linecap="round" stroke-linejoin="round" stroke-width="1"/>
          <line id="Línea_244" data-name="Línea 244" x2="45.113" transform="translate(237.243 107.09)" fill="none" stroke="#263238" stroke-linecap="round" stroke-linejoin="round" stroke-width="1"/>
          <rect id="Rectángulo_6578" data-name="Rectángulo 6578" width="103.838" height="33.67" transform="translate(180.257 207.429)" fill="#6e6e6e" stroke="#263238" stroke-linecap="round" stroke-linejoin="round" stroke-width="1"/>
          <path id="Trazado_101071" data-name="Trazado 101071" d="M695.516,4052.094h27.618v-33" transform="translate(-413.161 -3829.851)" fill="none" stroke="#263238" stroke-linecap="round" stroke-linejoin="round" stroke-width="1"/>
          <line id="Línea_245" data-name="Línea 245" x2="45.113" transform="translate(237.243 245.82)" fill="none" stroke="#263238" stroke-linecap="round" stroke-linejoin="round" stroke-width="1"/>
          <line id="Línea_246" data-name="Línea 246" x2="45.113" transform="translate(237.243 249.182)" fill="none" stroke="#263238" stroke-linecap="round" stroke-linejoin="round" stroke-width="1"/>
          <line id="Línea_247" data-name="Línea 247" x2="45.113" transform="translate(237.243 252.552)" fill="none" stroke="#263238" stroke-linecap="round" stroke-linejoin="round" stroke-width="1"/>
          <g id="Grupo_53903" data-name="Grupo 53903" transform="translate(198.826 217.382)">
            <path id="Trazado_101072" data-name="Trazado 101072" d="M612.092,4056.288v4.38H609.53v-12.431h4.849a5.623,5.623,0,0,1,2.464.512,3.78,3.78,0,0,1,1.635,1.456,4.053,4.053,0,0,1,.572,2.147,3.569,3.569,0,0,1-1.251,2.882,5.21,5.21,0,0,1-3.462,1.054Zm0-2.075h2.288a2.249,2.249,0,0,0,1.549-.478,1.736,1.736,0,0,0,.534-1.366,2.053,2.053,0,0,0-.538-1.478,2.009,2.009,0,0,0-1.485-.58h-2.348Z" transform="translate(-609.53 -4048.066)" fill="#f2e9e4"/>
            <path id="Trazado_101073" data-name="Trazado 101073" d="M626.563,4058.107h-4.491l-.853,2.562h-2.724l4.628-12.431H625.5l4.653,12.431h-2.724Zm-3.8-2.075h3.109l-1.563-4.653Z" transform="translate(-609.786 -4048.066)" fill="#f2e9e4"/>
            <path id="Trazado_101074" data-name="Trazado 101074" d="M638.118,4057.4a1.316,1.316,0,0,0-.512-1.114,6.749,6.749,0,0,0-1.845-.819,13.085,13.085,0,0,1-2.109-.85,3.445,3.445,0,0,1-2.117-3.083,3,3,0,0,1,.567-1.8,3.7,3.7,0,0,1,1.631-1.233,6.118,6.118,0,0,1,2.386-.444,5.588,5.588,0,0,1,2.374.483,3.771,3.771,0,0,1,1.617,1.362,3.558,3.558,0,0,1,.576,2h-2.561a1.678,1.678,0,0,0-.538-1.328,2.211,2.211,0,0,0-1.512-.473,2.368,2.368,0,0,0-1.46.4,1.254,1.254,0,0,0-.521,1.046,1.2,1.2,0,0,0,.611,1.017,6.888,6.888,0,0,0,1.8.768,7.762,7.762,0,0,1,3.184,1.631,3.246,3.246,0,0,1,1,2.425,2.99,2.99,0,0,1-1.22,2.531,5.343,5.343,0,0,1-3.287.918,6.35,6.35,0,0,1-2.613-.526,4.132,4.132,0,0,1-1.8-1.438,3.681,3.681,0,0,1-.619-2.118h2.57q0,2.057,2.459,2.058a2.394,2.394,0,0,0,1.426-.372A1.21,1.21,0,0,0,638.118,4057.4Z" transform="translate(-610.148 -4048.061)" fill="#f2e9e4"/>
            <path id="Trazado_101075" data-name="Trazado 101075" d="M645.481,4060.668H642.92v-12.431h2.561Z" transform="translate(-610.484 -4048.066)" fill="#f2e9e4"/>
            <path id="Trazado_101076" data-name="Trazado 101076" d="M652.562,4057.586l2.818-9.349h2.851l-4.329,12.431H651.23l-4.311-12.431h2.842Z" transform="translate(-610.598 -4048.066)" fill="#f2e9e4"/>
            <path id="Trazado_101077" data-name="Trazado 101077" d="M669.855,4054.729a7.509,7.509,0,0,1-.649,3.219,4.9,4.9,0,0,1-1.857,2.134,5.484,5.484,0,0,1-5.528.009,4.937,4.937,0,0,1-1.878-2.122,7.291,7.291,0,0,1-.675-3.171v-.615a7.465,7.465,0,0,1,.662-3.232,4.936,4.936,0,0,1,1.87-2.143,5.48,5.48,0,0,1,5.525,0,4.935,4.935,0,0,1,1.87,2.143,7.443,7.443,0,0,1,.662,3.223Zm-2.6-.563a5.223,5.223,0,0,0-.7-2.971,2.472,2.472,0,0,0-3.987-.013,5.165,5.165,0,0,0-.709,2.941v.606a5.29,5.29,0,0,0,.7,2.954,2.452,2.452,0,0,0,4,.039,5.265,5.265,0,0,0,.7-2.95Z" transform="translate(-610.951 -4048.061)" fill="#f2e9e4"/>
            <path id="Trazado_101078" data-name="Trazado 101078" d="M678.512,4057.4a1.313,1.313,0,0,0-.512-1.114,6.722,6.722,0,0,0-1.844-.819,13.086,13.086,0,0,1-2.109-.85,3.446,3.446,0,0,1-2.118-3.083,3,3,0,0,1,.568-1.8,3.7,3.7,0,0,1,1.63-1.233,6.127,6.127,0,0,1,2.387-.444,5.584,5.584,0,0,1,2.373.483,3.78,3.78,0,0,1,1.618,1.362,3.566,3.566,0,0,1,.576,2h-2.562a1.677,1.677,0,0,0-.537-1.328,2.213,2.213,0,0,0-1.512-.473,2.364,2.364,0,0,0-1.46.4,1.254,1.254,0,0,0-.521,1.046,1.2,1.2,0,0,0,.61,1.017,6.9,6.9,0,0,0,1.8.768,7.774,7.774,0,0,1,3.185,1.631,3.25,3.25,0,0,1,1,2.425,2.991,2.991,0,0,1-1.221,2.531,5.343,5.343,0,0,1-3.287.918,6.347,6.347,0,0,1-2.612-.526,4.127,4.127,0,0,1-1.8-1.438,3.682,3.682,0,0,1-.619-2.118h2.569q0,2.057,2.459,2.058a2.392,2.392,0,0,0,1.426-.372A1.207,1.207,0,0,0,678.512,4057.4Z" transform="translate(-611.302 -4048.061)" fill="#f2e9e4"/>
          </g>
          <g id="Grupo_53904" data-name="Grupo 53904" transform="translate(215.125 73.206)">
            <path id="Trazado_101079" data-name="Trazado 101079" d="M634.377,3909.689h-4.491l-.854,2.562h-2.724l4.628-12.431h2.373l4.653,12.431h-2.723Zm-3.8-2.074h3.108l-1.562-4.654Z" transform="translate(-626.308 -3899.649)" fill="#f2e9e4"/>
            <path id="Trazado_101080" data-name="Trazado 101080" d="M649.064,3908.1a4.4,4.4,0,0,1-1.482,3.159,5.2,5.2,0,0,1-3.521,1.153,4.677,4.677,0,0,1-3.761-1.609,6.6,6.6,0,0,1-1.371-4.418v-.76a7.448,7.448,0,0,1,.632-3.159,4.729,4.729,0,0,1,1.806-2.1,5.64,5.64,0,0,1,6.194.423,4.729,4.729,0,0,1,1.52,3.236H646.52a2.6,2.6,0,0,0-.67-1.746,2.48,2.48,0,0,0-1.754-.543,2.176,2.176,0,0,0-1.917.918,5.141,5.141,0,0,0-.654,2.847v.939a5.5,5.5,0,0,0,.611,2.945,2.135,2.135,0,0,0,1.925.931,2.528,2.528,0,0,0,1.771-.542,2.441,2.441,0,0,0,.67-1.678Z" transform="translate(-626.669 -3899.644)" fill="#f2e9e4"/>
            <path id="Trazado_101081" data-name="Trazado 101081" d="M660.173,3901.9h-3.808v10.356H653.8V3901.9h-3.756v-2.075h10.125Z" transform="translate(-626.986 -3899.649)" fill="#f2e9e4"/>
            <path id="Trazado_101082" data-name="Trazado 101082" d="M664.7,3912.251h-2.562V3899.82H664.7Z" transform="translate(-627.332 -3899.649)" fill="#f2e9e4"/>
            <path id="Trazado_101083" data-name="Trazado 101083" d="M671.784,3909.169l2.817-9.349h2.852l-4.329,12.431h-2.672l-4.312-12.431h2.843Z" transform="translate(-627.446 -3899.649)" fill="#f2e9e4"/>
            <path id="Trazado_101084" data-name="Trazado 101084" d="M689.076,3906.313a7.494,7.494,0,0,1-.649,3.218,4.882,4.882,0,0,1-1.856,2.134,5.486,5.486,0,0,1-5.528.009,4.938,4.938,0,0,1-1.879-2.122,7.292,7.292,0,0,1-.674-3.172v-.615a7.468,7.468,0,0,1,.661-3.232,4.929,4.929,0,0,1,1.87-2.143,5.479,5.479,0,0,1,5.524,0,4.921,4.921,0,0,1,1.87,2.143,7.447,7.447,0,0,1,.662,3.223Zm-2.595-.564a5.233,5.233,0,0,0-.7-2.97,2.473,2.473,0,0,0-3.988-.013,5.173,5.173,0,0,0-.708,2.941v.606a5.293,5.293,0,0,0,.7,2.954,2.451,2.451,0,0,0,4,.038,5.269,5.269,0,0,0,.7-2.949Z" transform="translate(-627.799 -3899.644)" fill="#f2e9e4"/>
            <path id="Trazado_101085" data-name="Trazado 101085" d="M697.734,3908.985a1.313,1.313,0,0,0-.512-1.114,6.711,6.711,0,0,0-1.845-.82,13.169,13.169,0,0,1-2.109-.85,3.444,3.444,0,0,1-2.117-3.082,3.006,3.006,0,0,1,.567-1.8,3.706,3.706,0,0,1,1.631-1.234,6.151,6.151,0,0,1,2.387-.444,5.587,5.587,0,0,1,2.373.483,3.771,3.771,0,0,1,1.617,1.362,3.56,3.56,0,0,1,.577,2h-2.562a1.676,1.676,0,0,0-.538-1.327,2.205,2.205,0,0,0-1.511-.474,2.358,2.358,0,0,0-1.46.4,1.249,1.249,0,0,0-.521,1.045,1.2,1.2,0,0,0,.61,1.016,6.91,6.91,0,0,0,1.8.769,7.753,7.753,0,0,1,3.184,1.631,3.247,3.247,0,0,1,1,2.425,2.992,2.992,0,0,1-1.221,2.531,5.345,5.345,0,0,1-3.287.918,6.333,6.333,0,0,1-2.612-.525,4.133,4.133,0,0,1-1.8-1.439,3.688,3.688,0,0,1-.619-2.117h2.57q0,2.057,2.459,2.057a2.392,2.392,0,0,0,1.426-.372A1.207,1.207,0,0,0,697.734,3908.985Z" transform="translate(-628.15 -3899.644)" fill="#f2e9e4"/>
          </g>
        </g>
        <g id="freepik--Plants--inject-276" transform="translate(691.472 4066.339)">
          <path id="Trazado_101086" data-name="Trazado 101086" d="M723.039,4190.381s-25.733-45.191-19.8-56.683,21.119,9.189,21.119,9.189-13.2-42.131-5.934-60.511,19.787,0,20.448,13.017-2.633,35.244-2.633,35.244,5.275-45.968,17.816-32.174-15.844,59.743-15.844,59.743,19.138-10.686,18.457,3.07-23.09,26.043-23.09,26.043" transform="translate(-702.351 -4074.622)" fill="#fd9826"/>
          <path id="Trazado_101087" data-name="Trazado 101087" d="M723.423,4182.543s-23.849-22.217-12.191-32.164,17.7,10.686,17.7,10.686-12.823-63.58,7.946-65.882,5.44,55.2,5.44,55.2,17.71-24.51,16.514-4.6-27.482,36.769-27.482,36.769" transform="translate(-702.513 -4075.208)" fill="none" stroke="#263238" stroke-miterlimit="10" stroke-width="1"/>
          <line id="Línea_248" data-name="Línea 248" x1="16.097" y1="17.437" transform="translate(16.51 85.858)" fill="none" stroke="#263238" stroke-miterlimit="10" stroke-width="1"/>
          <line id="Línea_249" data-name="Línea 249" y1="50.971" x2="4.352" transform="translate(29.255 53.664)" fill="none" stroke="#263238" stroke-miterlimit="10" stroke-width="1"/>
          <line id="Línea_250" data-name="Línea 250" y1="19.108" x2="14.416" transform="translate(28.585 81.836)" fill="none" stroke="#263238" stroke-miterlimit="10" stroke-width="1"/>
          <path id="Trazado_101088" data-name="Trazado 101088" d="M751.937,4174.875H707.417l4.449,52.506h35.613Z" transform="translate(-702.496 -4077.487)" fill="#344154"/>
        </g>
        <g id="freepik--Character--inject-276" transform="translate(321.542 3863.956)">
          <path id="Trazado_101089" data-name="Trazado 101089" d="M369.21,4043.555s2.4,52.943,4.537,71.391a279.384,279.384,0,0,1,1.768,48.455c-.758,16.641,3.021,45.833,3.021,46.512v3.886s-5.829,8.84-9.054,11.657-4.954,5.605-3.886,7.111,4.09,3.886,12.493,1.72,11.657-4.527,13.6-7.325a19.2,19.2,0,0,1,5.168-4.741,94.427,94.427,0,0,1,10.987,3.022c5.605,1.942,10.132,4.089,16.592,4.089s7.772-4.089,6.246-6.032-12.279-7.325-14-10.773-.865-6.246-.865-14.008,1.885-27.706,2.487-38.08,13.367-42.889,15.65-59.161,5.391-33.242,5.663-41.451.155-15.543.155-15.543.175-.864-.631-4.5-1.029-3.624-21.225-1.835a339.447,339.447,0,0,1-39.829,1.369C371.814,4039.116,369.735,4040.942,369.21,4043.555Z" transform="translate(-322.792 -3871.159)" fill="#fd9826" stroke="#263238" stroke-linecap="round" stroke-linejoin="round" stroke-width="1"/>
          <path id="Trazado_101090" data-name="Trazado 101090" d="M412.26,4074.195s-2.8,47.6-6.975,64.8-6.2,46.726-6.2,56.227-.641,16.592-.641,16.592" transform="translate(-323.739 -3872.228)" fill="none" stroke="#263238" stroke-linecap="round" stroke-linejoin="round" stroke-width="1"/>
          <line id="Línea_251" data-name="Línea 251" y1="10.113" x2="9.034" transform="translate(88.298 201.142)" fill="none" stroke="#263238" stroke-linecap="round" stroke-linejoin="round" stroke-width="1"/>
          <line id="Línea_252" data-name="Línea 252" x1="2.516" y2="15.29" transform="translate(60.981 178.08)" fill="none" stroke="#263238" stroke-linecap="round" stroke-linejoin="round" stroke-width="1"/>
          <line id="Línea_253" data-name="Línea 253" x2="0.233" y2="2.594" transform="translate(69.248 195.906)" fill="none" stroke="#263238" stroke-linecap="round" stroke-linejoin="round" stroke-width="1"/>
          <line id="Línea_254" data-name="Línea 254" x2="1.243" y2="13.522" transform="translate(67.674 178.818)" fill="none" stroke="#263238" stroke-linecap="round" stroke-linejoin="round" stroke-width="1"/>
          <path id="Trazado_101091" data-name="Trazado 101091" d="M415.17,4046.905l-.2,15.64,5.362-3.458.826-12" transform="translate(-324.211 -3871.448)" fill="none" stroke="#263238" stroke-linecap="round" stroke-linejoin="round" stroke-width="1"/>
          <line id="Línea_255" data-name="Línea 255" x2="1.564" y2="14.183" transform="translate(112.127 175.875)" fill="none" stroke="#263238" stroke-linecap="round" stroke-linejoin="round" stroke-width="1"/>
          <line id="Línea_256" data-name="Línea 256" x1="2.73" y2="10.695" transform="translate(107.085 175.525)" fill="none" stroke="#263238" stroke-linecap="round" stroke-linejoin="round" stroke-width="1"/>
          <path id="Trazado_101092" data-name="Trazado 101092" d="M445.712,3950.52c-1.37-3.245-20.8-8.423-29.541-11.463s-19.011-3.264-21.556-1.642c0,0-15.038,8.4-25.879,12.337s-17.6,6.44-18.457,9.374c-.67,2.361-4.012,34.972-5.275,47.386-.486,2.283-1.282,5.828-1.943,8.024-1.088,3.352,2.914,10.744,9.413,13.338s9.131-2.205,10.88-6.139c1.3-2.915,2.73-6.383,3.361-8.141.253,1.457,2.477,14.659,1.03,19.924-1.593,5.576-1.117,9.821,2.38,11.3s66.747-3.992,67.748-3.079,5.061-.913,6.538-4.7a13.41,13.41,0,0,0,0-9.229,33,33,0,0,1-1.224-5.722s5.2,2.244,9.841,1.34,9.2-6.615,9.4-14.338S447.1,3953.764,445.712,3950.52Z" transform="translate(-322.152 -3868.292)" fill="#344154" stroke="#263238" stroke-linecap="round" stroke-linejoin="round" stroke-width="1"/>
          <path id="Trazado_101093" data-name="Trazado 101093" d="M362.115,3980.424c-.408-2.788-.68-4.711-.729-5.11" transform="translate(-322.68 -3869.403)" fill="none" stroke="#828282" stroke-linecap="round" stroke-linejoin="round" stroke-width="1"/>
          <path id="Trazado_101094" data-name="Trazado 101094" d="M367.2,4015.038s-2.448-16.456-4.167-28.113" transform="translate(-322.728 -3869.734)" fill="none" stroke="#828282" stroke-linecap="round" stroke-linejoin="round" stroke-width="1"/>
          <line id="Línea_257" data-name="Línea 257" x1="0.573" y1="58.092" transform="translate(120.452 95.722)" fill="none" stroke="#828282" stroke-linecap="round" stroke-linejoin="round" stroke-width="1"/>
          <path id="Trazado_1031849" data-name="Trazado 1031849" d="M20.293,0A20.293,20.293,0,1,1,0,20.293,20.293,20.293,0,0,1,20.293,0Z" transform="translate(67.567 110.394)" fill="#fd9826"/>
          <path id="Trazado_101095" data-name="Trazado 101095" d="M417.441,3939.057c-8.811-3.041-19.011-3.264-21.556-1.642,0,0-3.5,1.943-8.325,4.41-.233,1.7-.369,3.886.214,4.915,1.049,1.875,19.429,23.761,22.935,22.916s14.484-23.79,14.882-27.113a5.6,5.6,0,0,1,.107-.835C422.541,3940.738,419.637,3939.824,417.441,3939.057Z" transform="translate(-323.423 -3868.292)" fill="#fff" stroke="#263238" stroke-linecap="round" stroke-linejoin="round" stroke-width="1"/>
          <path id="Trazado_101096" data-name="Trazado 101096" d="M342.841,4002.9a43.054,43.054,0,0,0,9.471,5.353c4.478,1.593,9.51,6.178,10.249,10.278s1.2,8.345-3.449,12.143-10.987.5-16.184-4.643-6.421-17.058-7.771-19.477S337.051,3999.726,342.841,4002.9Z" transform="translate(-321.922 -3870.159)" fill="#fff" stroke="#263238" stroke-linecap="round" stroke-linejoin="round" stroke-width="1"/>
          <path id="Trazado_101097" data-name="Trazado 101097" d="M344.407,4006.225s1.545-5.294-.35-7.694-6.363-6.6-7.121-11.24-1.331-7.927-3.235-7.567-3.031,6.062-2.205,9.19,1.807,6.392,1.6,7.917-2.633,2.594-2.914,5.634,3.041,12.4,5.207,14.639,8.4,0,10.035-3.487S344.407,4006.225,344.407,4006.225Z" transform="translate(-321.789 -3869.528)" fill="#fff" stroke="#263238" stroke-linecap="round" stroke-linejoin="round" stroke-width="1"/>
          <path id="Trazado_101098" data-name="Trazado 101098" d="M329.086,4013.12s0,2.749,3.487,3.973,8.043-1.885,6.421-7.179a14.367,14.367,0,0,0-3.546.845C334.108,4011.372,331.466,4013.888,329.086,4013.12Z" transform="translate(-321.758 -3870.391)" fill="#fff" stroke="#263238" stroke-linecap="round" stroke-linejoin="round" stroke-width="1"/>
          <path id="Trazado_101099" data-name="Trazado 101099" d="M326.776,4009.119a7.939,7.939,0,0,0,1.438,4.206c1.311,1.457,5.43,1.409,8.529-.116a4.866,4.866,0,0,0,2.05-6.421c-.738-1.069-.971-.505-2.2.233s-5.168,1.477-6.8,1.555A6.061,6.061,0,0,0,326.776,4009.119Z" transform="translate(-321.692 -3870.285)" fill="#fff" stroke="#263238" stroke-linecap="round" stroke-linejoin="round" stroke-width="1"/>
          <path id="Trazado_101100" data-name="Trazado 101100" d="M325.8,4003.972s-2.234,2.438-.612,4.712,6.722,2.448,9.714,1.35,3.691-3.147,3.6-5.09-1.6-2.128-2.71-2.079S325.8,4003.972,325.8,4003.972Z" transform="translate(-321.629 -3870.19)" fill="#fff" stroke="#263238" stroke-linecap="round" stroke-linejoin="round" stroke-width="1"/>
          <path id="Trazado_101101" data-name="Trazado 101101" d="M333.407,3997.4s-7.723-.194-9.87.865a3.731,3.731,0,0,0-1.566,5.038c.046.087.1.173.148.257,1.03,1.466,7.771,1.165,10.491.631s3.662-1.273,3.565-3.468A3.885,3.885,0,0,0,333.407,3997.4Z" transform="translate(-321.542 -3870.033)" fill="#fff" stroke="#263238" stroke-linecap="round" stroke-linejoin="round" stroke-width="1"/>
          <path id="Trazado_101102" data-name="Trazado 101102" d="M474.916,3981.709s-15.154,11.978-21.061,15.281-6.081,17.768-3.662,22.469,8.5,5.129,14.921.972,16.514-21.955,19.205-28.832,3.6-8.558,3.6-8.558,5.663.291,9.3-1.525,4.284-8.743,4.255-12.454.971-6.236-2.38-6.8-8.481,1.068-8.481,1.068a45.667,45.667,0,0,0,.146-8.82c-.447-3.827-3.041-3.3-3.886-1.749s-1.03,7.626-2.759,12.114a112.35,112.35,0,0,1-6.528,13.785A18.57,18.57,0,0,1,474.916,3981.709Z" transform="translate(-325.176 -3868.725)" fill="#fff" stroke="#263238" stroke-linecap="round" stroke-linejoin="round" stroke-width="1"/>
          <path id="Trazado_101103" data-name="Trazado 101103" d="M502.3,3975.424s.408,2.73-.641,4.021-6.392,1.661-7.771.768-1.438-4.342,2.127-4.644A50.287,50.287,0,0,1,502.3,3975.424Z" transform="translate(-326.441 -3869.405)" fill="#fff" stroke="#263238" stroke-linecap="round" stroke-linejoin="round" stroke-width="1"/>
          <path id="Trazado_101104" data-name="Trazado 101104" d="M503.771,3970.115s1.506,2.681.494,4.653-5.109,2.71-7.771,2.011-1.709-4.333-.923-5.2,2.866-.544,3.828-.583A42.388,42.388,0,0,0,503.771,3970.115Z" transform="translate(-326.49 -3869.254)" fill="#fff" stroke="#263238" stroke-linecap="round" stroke-linejoin="round" stroke-width="1"/>
          <path id="Trazado_101105" data-name="Trazado 101105" d="M504.724,3966.235a2.913,2.913,0,0,1,.835,3.273c-.874,1.827-3.449,2.769-6.188,3.167s-3.788-1.613-3.886-3.536a2.294,2.294,0,0,1,1.981-2.567,2.249,2.249,0,0,1,.38-.018Z" transform="translate(-326.511 -3869.144)" fill="#fff" stroke="#263238" stroke-linecap="round" stroke-linejoin="round" stroke-width="1"/>
          <path id="Trazado_101106" data-name="Trazado 101106" d="M496.727,3962.167s-1.029,4.585.787,5.2,8.519-.388,9.277-1.807,1.146-5.139-.515-5.343-8.878,1.505-8.878,1.505S497.66,3961.429,496.727,3962.167Z" transform="translate(-326.539 -3868.971)" fill="#fff" stroke="#263238" stroke-linecap="round" stroke-linejoin="round" stroke-width="1"/>
          <path id="Trazado_101107" data-name="Trazado 101107" d="M491.846,3963.715a9.936,9.936,0,0,0,.7,3.274c.6,1.214,2.38,3.886.322,7.15" transform="translate(-326.408 -3869.071)" fill="#fff" stroke="#263238" stroke-linecap="round" stroke-linejoin="round" stroke-width="1"/>
          <path id="Trazado_101108" data-name="Trazado 101108" d="M392.524,4221s-2.147-4.954-7.1-6.032-6.9,3.886-6.9,3.886-5.829,8.84-9.054,11.657-4.953,5.6-3.886,7.11,4.09,3.886,12.493,1.72,11.657-4.527,13.6-7.325a19.207,19.207,0,0,1,5.168-4.741l.651-11.414Z" transform="translate(-322.791 -3876.245)" fill="#fff" stroke="#263238" stroke-linecap="round" stroke-linejoin="round" stroke-width="1"/>
          <path id="Trazado_101109" data-name="Trazado 101109" d="M388.445,4230.762c-2.584,3.662-5.168,6.032-13.785,6.46-4.857.243-7.665-.612-9.19-1.4a2.218,2.218,0,0,0,.136,2.05c1.078,1.505,4.09,3.886,12.493,1.719s11.657-4.527,13.6-7.325a19.19,19.19,0,0,1,5.168-4.74l.175-2.992C396.546,4224.739,390.922,4227.255,388.445,4230.762Z" transform="translate(-322.792 -3876.523)" fill="#fff" stroke="#263238" stroke-linecap="round" stroke-linejoin="round" stroke-width="1"/>
          <path id="Trazado_101110" data-name="Trazado 101110" d="M425.355,4234.311c6.46,0,7.771-4.09,6.246-6.033s-12.279-7.324-14-10.773a10.2,10.2,0,0,1-1.059-4.313c-6.382-.962-9.491,5.644-9.491,5.644l-8.617-3.012-.651,11.415a94.423,94.423,0,0,1,10.987,3.021C414.368,4232.154,418.9,4234.311,425.355,4234.311Z" transform="translate(-323.72 -3876.196)" fill="#fff" stroke="#263238" stroke-linecap="round" stroke-linejoin="round" stroke-width="1"/>
          <path id="Trazado_101111" data-name="Trazado 101111" d="M410.274,4228.605a81.832,81.832,0,0,0-12.318-4.07h0v3.03a96.548,96.548,0,0,1,10.783,2.982c5.605,1.943,10.132,4.09,16.592,4.09,4.2,0,6.2-1.719,6.693-3.458C424.593,4235.677,414.509,4230.626,410.274,4228.605Z" transform="translate(-323.725 -3876.523)" fill="#fff" stroke="#263238" stroke-linecap="round" stroke-linejoin="round" stroke-width="1"/>
          <path id="Trazado_101112" data-name="Trazado 101112" d="M391.506,3929.865s1.224,11.784,1.885,14.231,14.125,20.011,16.2,17.3,10.19-18.224,10.686-19.9.078-10.336.078-10.336a20.144,20.144,0,0,1-15.446,2.351C395.975,3931.312,391.506,3929.865,391.506,3929.865Z" transform="translate(-323.541 -3868.104)" fill="#fff" stroke="#263238" stroke-linecap="round" stroke-linejoin="round" stroke-width="1"/>
          <path id="Trazado_101113" data-name="Trazado 101113" d="M386.3,3908.292s-3.138-4.537-6.615-3.293-2.419,7.538.068,10.686,6.246,3.983,7.159,0A12.7,12.7,0,0,0,386.3,3908.292Z" transform="translate(-323.14 -3867.388)" fill="#fff" stroke="#263238" stroke-linecap="round" stroke-linejoin="round" stroke-width="1"/>
          <path id="Trazado_101114" data-name="Trazado 101114" d="M423.866,3902.647s2.37-5.479,4.6-1.584.466,10.161-.874,11.055-2.914.262-3.274-2.332Q423.916,3906.232,423.866,3902.647Z" transform="translate(-324.465 -3867.241)" fill="#fff" stroke="#263238" stroke-linecap="round" stroke-linejoin="round" stroke-width="1"/>
          <path id="Trazado_101115" data-name="Trazado 101115" d="M378.934,3889.628c-.641-6.013,4.546-14.941,11.21-16.893a31.476,31.476,0,0,1,11.919-1.234s-.631-4.789,5.411-5.2,11.055,6.926,9.287,10.316-3.973,3.488-3.973,3.488l11.424,27.2s1.525,3.245,2.021,11.2-2.739,12.386-9.044,16.116-15.776,1.4-22.673-1.865-8.082-8.306-8.442-13.114.573-14.572-2.176-20.556S379.41,3894.184,378.934,3889.628Z" transform="translate(-323.18 -3866.288)" fill="#344154" stroke="#263238" stroke-linecap="round" stroke-linejoin="round" stroke-width="1"/>
          <path id="Trazado_101116" data-name="Trazado 101116" d="M414.981,3878.8s-9.122-3.711-17.4-.972-12.542,8.811-11.542,12.774,2.846,8,3.157,14.863,1.613,17.282,8.636,20.4,8.675,3.05,9.287,1.37,1.214-3.77,3.808-4.167,2.613,3.05,3.769,4.1,4.313-1.943,7.83-6.411,2.361-11.657.835-17.942-1.574-10.394-2.487-15.446S416.807,3879.545,414.981,3878.8Z" transform="translate(-323.381 -3866.589)" fill="#fff" stroke="#263238" stroke-linecap="round" stroke-linejoin="round" stroke-width="1"/>
          <path id="Trazado_101117" data-name="Trazado 101117" d="M406.026,3895.719a48.08,48.08,0,0,0-10.87.214c-5.741.816-6.509,2.225-6.46,3.187s.466,7.276,5.09,9.131,12.629-.709,13.6-2.817.8-9.714.8-9.714Z" transform="translate(-323.461 -3867.123)" fill="#fd9826" stroke="#263238" stroke-linecap="round" stroke-linejoin="round" stroke-width="1"/>
          <path id="Trazado_101118" data-name="Trazado 101118" d="M413.664,3894.746A47.943,47.943,0,0,1,424.175,3892c5.741-.8,6.869.35,7.091,1.282s1.555,7.13-2.39,10.19-12.347,2.788-13.891,1.04-3.429-9.083-3.429-9.083Z" transform="translate(-324.114 -3867.015)" fill="#d9a171" stroke="#263238" stroke-linecap="round" stroke-linejoin="round" stroke-width="1"/>
          <line id="Línea_258" data-name="Línea 258" y1="0.262" x2="2.671" transform="translate(84.771 28.373)" fill="none" stroke="#263238" stroke-linecap="round" stroke-linejoin="round" stroke-width="1"/>
          <line id="Línea_259" data-name="Línea 259" x1="2.905" y2="6.975" transform="translate(62.302 31.452)" fill="none" stroke="#fff" stroke-linecap="round" stroke-linejoin="round" stroke-width="1"/>
          <path id="Trazado_101119" data-name="Trazado 101119" d="M411.693,3899.595s4.022,9.715,2.827,10.618-5.829,2.467-7,.447" transform="translate(-323.998 -3867.24)" fill="none" stroke="#263238" stroke-linecap="round" stroke-linejoin="round" stroke-width="1"/>
          <path id="Trazado_101120" data-name="Trazado 101120" d="M399.946,3915.964s10.083,3.818,18.826-1.4" transform="translate(-323.782 -3867.667)" fill="none" stroke="#263238" stroke-linecap="round" stroke-linejoin="round" stroke-width="1"/>
          <path id="Trazado_101121" data-name="Trazado 101121" d="M391.556,3893.452s2.128-4.634,9.19-3.72" transform="translate(-323.542 -3866.954)" fill="none" stroke="#263238" stroke-linecap="round" stroke-linejoin="round" stroke-width="2"/>
          <path id="Trazado_101122" data-name="Trazado 101122" d="M412.616,3892.118s3.963-3.624,8.043-1.739" transform="translate(-324.144 -3866.961)" fill="none" stroke="#263238" stroke-linecap="round" stroke-linejoin="round" stroke-width="2"/>
          <path id="Trazado_101123" data-name="Trazado 101123" d="M423.263,3895.324s-.486,4.993.583,7.2" transform="translate(-324.445 -3867.117)" fill="none" stroke="#263238" stroke-linecap="round" stroke-linejoin="round" stroke-width="1"/>
          <path id="Trazado_101124" data-name="Trazado 101124" d="M401.184,3902.389c0,1.263-.447,2.312-1.117,2.351s-1.273-.971-1.331-2.234.447-2.312,1.117-2.341S401.126,3901.127,401.184,3902.389Z" transform="translate(-323.747 -3867.256)" fill="#344154"/>
          <path id="Trazado_101125" data-name="Trazado 101125" d="M418.084,3900.529c.058,1.263-.447,2.312-1.117,2.341s-1.263-.971-1.321-2.234.437-2.312,1.117-2.341S418.026,3899.256,418.084,3900.529Z" transform="translate(-324.23 -3867.202)" fill="#344154"/>
        </g>
        <g id="Grupo_53905" data-name="Grupo 53905" transform="translate(398.945 3974.209)">
          <path id="Trazado_101126" data-name="Trazado 101126" d="M416.631,4008.571a4.043,4.043,0,0,0-1-2.881,9.113,9.113,0,0,0-3.411-1.976,40.264,40.264,0,0,1-4.151-1.8,13.215,13.215,0,0,1-2.991-2.054,8.243,8.243,0,0,1-1.943-2.726,9.153,9.153,0,0,1-.7-3.731,8.275,8.275,0,0,1,2.385-6.115,10.059,10.059,0,0,1,6.336-2.782v-4.724h3.532v4.79a9.22,9.22,0,0,1,6.115,3.257,10.727,10.727,0,0,1,2.208,7.009h-6.38a6.09,6.09,0,0,0-1.093-3.963,3.609,3.609,0,0,0-2.925-1.313,3.719,3.719,0,0,0-2.8,1.026,3.909,3.909,0,0,0-.994,2.837,3.732,3.732,0,0,0,.971,2.693,10.7,10.7,0,0,0,3.61,2.075,40.261,40.261,0,0,1,4.337,2,12.524,12.524,0,0,1,2.871,2.12,8.2,8.2,0,0,1,1.787,2.693,9.264,9.264,0,0,1,.619,3.521,8.243,8.243,0,0,1-2.34,6.094,10.264,10.264,0,0,1-6.446,2.759v4.394h-3.511V4017.4a10.612,10.612,0,0,1-7.009-3.213,10.349,10.349,0,0,1-2.484-7.252h6.38a5.869,5.869,0,0,0,1.247,4.029,4.551,4.551,0,0,0,3.587,1.4,4.386,4.386,0,0,0,3.069-1.027A3.564,3.564,0,0,0,416.631,4008.571Z" transform="translate(-401.221 -3979.783)" fill="#344154"/>
        </g>
      </g>
    </g>
  </g>
</svg>
