<svg xmlns="http://www.w3.org/2000/svg" xmlns:xlink="http://www.w3.org/1999/xlink" width="173.5" height="173.5" viewBox="0 0 173.5 173.5">
  <defs>
    <filter id="Trazado_896985" x="0" y="0" width="173.5" height="173.5" filterUnits="userSpaceOnUse">
      <feOffset dy="3" input="SourceAlpha"/>
      <feGaussianBlur stdDeviation="3" result="blur"/>
      <feFlood flood-opacity="0.161"/>
      <feComposite operator="in" in2="blur"/>
      <feComposite in="SourceGraphic"/>
    </filter>
  </defs>
  <g id="Grupo_1176960" data-name="Grupo 1176960" transform="translate(5896.981 11074.953)">
    <g id="Grupo_1176695" data-name="Grupo 1176695" transform="translate(-6168.032 -15637.953)">
      <g id="Grupo_1111318" data-name="Grupo 1111318" transform="translate(280.051 4569)">
        <g id="Grupo_1109826" data-name="Grupo 1109826" transform="translate(0 0)">
          <g id="Grupo_1098742" data-name="Grupo 1098742">
            <g transform="matrix(1, 0, 0, 1, -9, -6)" filter="url(#Trazado_896985)">
              <g id="Trazado_896985-2" data-name="Trazado 896985" transform="translate(9 6)" fill="#fd9826" opacity="0.859">
                <path d="M 77.74990081787109 154 C 67.45556640625 154 57.46996307373047 151.9841613769531 48.07046508789062 148.0085144042969 C 43.55267333984375 146.0976715087891 39.19512939453125 143.7324523925781 35.11890029907227 140.9786071777344 C 31.08102607727051 138.2506713867188 27.28392219543457 135.1177673339844 23.83308792114258 131.6669311523438 C 20.38225555419922 128.2161102294922 17.24933815002441 124.4189987182617 14.52140045166016 120.381103515625 C 11.76754665374756 116.3048782348633 9.402359008789062 111.9473571777344 7.49148416519165 107.4295654296875 C 3.515838384628296 98.03004455566406 1.500005006790161 88.04444122314453 1.500005006790161 77.75010681152344 C 1.500005006790161 67.45555877685547 3.515838384628296 57.4699592590332 7.49148416519165 48.07045745849609 C 9.402359008789062 43.55266571044922 11.76754665374756 39.19512557983398 14.52140045166016 35.118896484375 C 17.24933815002441 31.08102035522461 20.38225555419922 27.28391647338867 23.83308792114258 23.83308410644531 C 27.28392219543457 20.38224983215332 31.08102607727051 17.24933242797852 35.11890029907227 14.52139568328857 C 39.19512939453125 11.76754188537598 43.55267333984375 9.40235424041748 48.07046508789062 7.491479396820068 C 57.46996307373047 3.515833377838135 67.45556640625 1.5 77.74990081787109 1.5 C 88.04423522949219 1.5 98.02983856201172 3.515833377838135 107.4293365478516 7.491479396820068 C 111.9471282958984 9.40235424041748 116.3046722412109 11.76754188537598 120.3808975219727 14.52139568328857 C 124.4187774658203 17.24933242797852 128.2158813476562 20.38224983215332 131.6667175292969 23.83308410644531 C 135.1175537109375 27.28391647338867 138.2504577636719 31.08102035522461 140.9783935546875 35.118896484375 C 143.7322540283203 39.19512557983398 146.0974426269531 43.55266571044922 148.0083160400391 48.07045745849609 C 151.9839630126953 57.4699592590332 153.9998016357422 67.45555877685547 153.9998016357422 77.74989318847656 C 153.9998016357422 88.04444122314453 151.9839630126953 98.03004455566406 148.0083160400391 107.4295654296875 C 146.0974426269531 111.9473571777344 143.7322540283203 116.3048782348633 140.9783935546875 120.381103515625 C 138.2504577636719 124.4189987182617 135.1175537109375 128.2161102294922 131.6667175292969 131.6669311523438 C 128.2158813476562 135.1177673339844 124.4187774658203 138.2506713867188 120.3808975219727 140.9786071777344 C 116.3046722412109 143.7324523925781 111.9471282958984 146.0976715087891 107.4293365478516 148.0085144042969 C 98.02983856201172 151.9841613769531 88.04423522949219 154 77.74990081787109 154 Z" stroke="none"/>
                <path d="M 77.74990081787109 3 C 67.65740203857422 3 57.86840057373047 4.9759521484375 48.65479278564453 8.87298583984375 C 44.22618103027344 10.74612426757812 39.95457458496094 13.064697265625 35.95859527587891 15.76432800292969 C 31.99983215332031 18.43882751464844 28.27707672119141 21.51040649414062 24.89372253417969 24.89373779296875 C 21.51040649414062 28.27706146240234 18.43881225585938 31.99982452392578 15.76431274414062 35.95861053466797 C 13.06471252441406 39.95456695556641 10.74612426757812 44.2261962890625 8.872970581054688 48.65478515625 C 4.975936889648438 57.86839294433594 2.999984741210938 67.65739440917969 2.999984741210938 77.75010681152344 C 2.999984741210938 87.84260559082031 4.975936889648438 97.63160705566406 8.872970581054688 106.84521484375 C 10.74612426757812 111.2738037109375 13.06471252441406 115.5454330444336 15.76431274414062 119.541389465332 C 18.43881225585938 123.5001754760742 21.51040649414062 127.2229309082031 24.89372253417969 130.6062622070312 C 28.27707672119141 133.9895935058594 31.99983215332031 137.0611724853516 35.95859527587891 139.7356719970703 C 39.95457458496094 142.435302734375 44.22618103027344 144.7538757324219 48.65479278564453 146.6270141601562 C 57.86840057373047 150.5240478515625 67.65740203857422 152.5 77.74990081787109 152.5 C 87.84239959716797 152.5 97.63140106201172 150.5240478515625 106.8450088500977 146.6270141601562 C 111.2736206054688 144.7538757324219 115.5452270507812 142.435302734375 119.5411834716797 139.7356719970703 C 123.4999694824219 137.0611724853516 127.2227249145508 133.9895935058594 130.6060485839844 130.6062622070312 C 133.9893798828125 127.2229309082031 137.0609741210938 123.5001754760742 139.7354736328125 119.541389465332 C 142.4350891113281 115.5454330444336 144.753662109375 111.2738265991211 146.6268157958984 106.84521484375 C 150.5238342285156 97.63160705566406 152.4997863769531 87.84260559082031 152.4997863769531 77.74989318847656 C 152.4997863769531 67.65739440917969 150.5238342285156 57.86839294433594 146.6268157958984 48.65478515625 C 144.753662109375 44.22617340087891 142.4350891113281 39.95456695556641 139.7354736328125 35.95861053466797 C 137.0609741210938 31.99982452392578 133.9893798828125 28.27706146240234 130.6060485839844 24.89373779296875 C 127.2227249145508 21.51040649414062 123.4999694824219 18.43882751464844 119.5411834716797 15.76432800292969 C 115.5452270507812 13.064697265625 111.2736206054688 10.74612426757812 106.8450088500977 8.87298583984375 C 97.63140106201172 4.9759521484375 87.84239959716797 3 77.74990081787109 3 M 77.74990081787109 0 C 120.6899871826172 0 155.4997863769531 34.80980682373047 155.4997863769531 77.74989318847656 L 155.4997863769531 77.75010681152344 C 155.4997863769531 120.6902008056641 120.6899871826172 155.5 77.74990081787109 155.5 C 34.809814453125 155.5 -1.52587890625e-05 120.6902008056641 -1.52587890625e-05 77.75010681152344 L -1.52587890625e-05 77.74989318847656 C -1.52587890625e-05 34.80980682373047 34.809814453125 0 77.74990081787109 0 Z" stroke="none" fill="#fff"/>
              </g>
            </g>
          </g>
        </g>
      </g>
    </g>
    <g id="term-loan_2846103" transform="translate(-5858.05 -11041.531)">
      <g id="Grupo_1176958" data-name="Grupo 1176958" transform="translate(2.529 23.659)">
        <g id="Grupo_1176952" data-name="Grupo 1176952" transform="translate(37.931 12.085)">
          <path id="Trazado_1032202" data-name="Trazado 1032202" d="M76.113,46.931a25.019,25.019,0,0,0-3.248-7.825l1.752-3.489L68.2,29.2l-3.489,1.752A25.019,25.019,0,0,0,56.884,27.7L55.645,24H46.581l-1.239,3.7a25.019,25.019,0,0,0-7.825,3.248L34.028,29.2l-6.42,6.42,1.752,3.489a24.765,24.765,0,0,0-2.251,4.577L30.176,47.9a8.95,8.95,0,0,1,1.39,2.855l1.6,9.894L34.5,69.318a19.689,19.689,0,0,1-3.142,4.215l2.674,2.674,3.489-1.752A25.019,25.019,0,0,0,45.343,77.7l1.239,3.7h9.064l1.239-3.7a25.019,25.019,0,0,0,7.825-3.248L68.2,76.206l6.42-6.42L72.866,66.3a25.019,25.019,0,0,0,3.248-7.825l3.7-1.239V48.169Z" transform="translate(-27.11 -24)" fill="#fcd770"/>
        </g>
        <g id="Grupo_1176953" data-name="Grupo 1176953" transform="translate(42.296 21.148)">
          <circle id="Elipse_13107" data-name="Elipse 13107" cx="19.638" cy="19.638" r="19.638" fill="#ffeaa7"/>
        </g>
        <g id="Grupo_1176954" data-name="Grupo 1176954" transform="translate(57.402 36.254)">
          <circle id="Elipse_13108" data-name="Elipse 13108" cx="4.532" cy="4.532" r="4.532" fill="#ff826e"/>
        </g>
        <g id="Grupo_1176955" data-name="Grupo 1176955" transform="translate(12.085 15.106)">
          <path id="Trazado_1032203" data-name="Trazado 1032203" d="M28.127,26a3.03,3.03,0,0,1,3.021,3.021,3.043,3.043,0,0,1-3.021,3.021H13.021A3.03,3.03,0,0,1,10,29.021,3.043,3.043,0,0,1,13.021,26Z" transform="translate(-10 -26)" fill="#cf9e76"/>
        </g>
        <g id="Grupo_1176956" data-name="Grupo 1176956" transform="translate(9.064)">
          <path id="Trazado_1032204" data-name="Trazado 1032204" d="M29.148,31.106H14.042l-5.6-9.8A3.33,3.33,0,0,1,8,19.641v-.287A3.346,3.346,0,0,1,11.353,16h11.42a3.349,3.349,0,0,1,3.338,3.021h5.725a3.352,3.352,0,0,1,2.613,5.453Z" transform="translate(-8 -16)" fill="#a0d468"/>
        </g>
        <g id="Grupo_1176957" data-name="Grupo 1176957" transform="translate(0 21.148)">
          <path id="Trazado_1032205" data-name="Trazado 1032205" d="M44.176,70.469c-3.338,3.489-9.5,7.87-19.517,7.87C8.042,78.339,2,66.254,2,66.254L4.689,48.792A8.877,8.877,0,0,1,6.32,44.834L17.106,30H32.212l7.719,10.619L43,44.834a8.95,8.95,0,0,1,1.39,2.855V47.7a9.361,9.361,0,0,1,.242,1.088l.136.846,1.224,7.946,1.329,8.671A19.689,19.689,0,0,1,44.176,70.469Z" transform="translate(-2 -30)" fill="#b4dd7f"/>
        </g>
      </g>
      <g id="Grupo_1176959" data-name="Grupo 1176959" transform="translate(0.963 1)">
        <path id="Trazado_1032206" data-name="Trazado 1032206" d="M26.389,48.307l1.086,7.063a16.283,16.283,0,0,1-2.112,2.094l1.926,2.328a19.011,19.011,0,0,0,2.979-3.077l.393-.512-1.286-8.355Z" transform="translate(11.495 22.92)"/>
        <path id="Trazado_1032207" data-name="Trazado 1032207" d="M21.676,56.676l.977,2.86a21.389,21.389,0,0,0,3.254-1.424l-1.441-2.656a18.368,18.368,0,0,1-2.79,1.221Z" transform="translate(9.613 26.804)"/>
        <path id="Trazado_1032208" data-name="Trazado 1032208" d="M38.434,7.97V30.988h3.021V7.97l4.882,5.858,2.32-1.934L39.945,1.438,31.232,11.894l2.32,1.934Z" transform="translate(14.492 -0.776)"/>
        <path id="Trazado_1032209" data-name="Trazado 1032209" d="M60.658,21.6l-2.32-1.934-4.882,5.858V1H50.434V25.529l-4.882-5.858L43.232,21.6l8.713,10.456Z" transform="translate(20.619 -1)"/>
        <path id="Trazado_1032210" data-name="Trazado 1032210" d="M90.739,50.364a26.967,26.967,0,0,0-2.8-6.737L89.8,39.91l-7.949-7.949-3.718,1.858a26.967,26.967,0,0,0-6.737-2.8l-1.313-3.938H58.844l-1.313,3.937a26.967,26.967,0,0,0-6.737,2.8l-3.718-1.858-7.949,7.949,1.86,3.721c-.3.521-.58,1.073-.852,1.628l-4.955-6.813a4.518,4.518,0,0,0,.086-7.567l3.961-4.952a4.865,4.865,0,0,0-3.8-7.9H30.862A4.868,4.868,0,0,0,26.365,15H14.946a4.871,4.871,0,0,0-4.864,4.866v.285a4.874,4.874,0,0,0,.64,2.414l4.663,8.162a4.5,4.5,0,0,0-.19,7.718L5.623,51.608a10.622,10.622,0,0,0-1.9,4.612L.963,74.159l.215.431c.264.526,6.66,12.919,24.011,12.919,9.577,0,15.8-3.775,19.515-7.246l2.372,2.372,3.718-1.858a26.967,26.967,0,0,0,6.737,2.8l1.313,3.937h11.24L71.4,83.571a26.967,26.967,0,0,0,6.737-2.8l3.718,1.858L89.8,74.685l-1.858-3.718a26.967,26.967,0,0,0,2.8-6.737l3.938-1.313V51.677Zm-73.1-14.216a1.511,1.511,0,0,1,0-3.021H32.741a1.511,1.511,0,1,1,0,3.021Zm-4.532-16v-.285a1.847,1.847,0,0,1,1.844-1.844H26.367a1.847,1.847,0,0,1,1.843,1.844v7.219h3.021V21.042h4.2a1.844,1.844,0,0,1,1.44,3l-4.852,6.067h-13.5l-5.165-9.038a1.862,1.862,0,0,1-.243-.917Zm-9,53.484L6.709,56.679a7.6,7.6,0,0,1,1.357-3.295L18.4,39.169H31.972L42.311,53.385a7.6,7.6,0,0,1,1.357,3.293l2.609,16.956c-1.19,2.038-7.15,10.852-21.088,10.852S5.286,75.664,4.1,73.635Zm42.95-14.828H58.636a6.034,6.034,0,0,0,4.317,4.317v12.23a18.142,18.142,0,0,1-14.982-10.57Zm17.413-4.532A3.021,3.021,0,1,1,61.442,57.3,3.024,3.024,0,0,1,64.463,54.275Zm1.511,8.849a6.034,6.034,0,0,0,4.317-4.317H82.513A18.136,18.136,0,0,1,65.974,75.346Zm4.317-7.338a6.034,6.034,0,0,0-4.317-4.317V39.246A18.136,18.136,0,0,1,82.513,55.786Zm-7.338-4.317a6.034,6.034,0,0,0-4.317,4.317H46.56c-.032-.16-.063-.32-.1-.477a18.025,18.025,0,0,1,16.5-16.068Zm28.7,9.27-3.465,1.156L88,62.721a23.974,23.974,0,0,1-3.06,7.373l-.45.719,1.636,3.275-4.869,4.869-3.275-1.636-.719.45a23.937,23.937,0,0,1-7.373,3.06l-.826.189-1.157,3.467H61.019l-1.156-3.465-.826-.189a23.974,23.974,0,0,1-7.373-3.06l-.719-.45L47.67,78.958l-.885-.885A20,20,0,0,0,49.2,74.59l.215-.431-.373-2.426a21.132,21.132,0,1,0-4.751-20.766l-2.1-2.885a23.842,23.842,0,0,1,1.8-3.583l.45-.719L42.8,40.5l4.869-4.869,3.275,1.636.719-.45a23.937,23.937,0,0,1,7.373-3.06l.826-.189,1.154-3.467h6.887l1.156,3.465.826.189a23.974,23.974,0,0,1,7.373,3.06l.719.45,3.275-1.636L86.125,40.5l-1.636,3.275.45.719A23.937,23.937,0,0,1,88,51.87l.189.826,3.465,1.157Z" transform="translate(-0.963 6.148)"/>
        <path id="Trazado_1032211" data-name="Trazado 1032211" d="M20.553,46.042a1.513,1.513,0,0,1,1.511,1.511h3.021a4.537,4.537,0,0,0-4.532-4.532V40H17.532v3.021H13v4.532a4.537,4.537,0,0,0,4.532,4.532h3.021A1.513,1.513,0,0,1,22.064,53.6v1.511H17.532A1.513,1.513,0,0,1,16.021,53.6H13a4.537,4.537,0,0,0,4.532,4.532v3.021h3.021V58.127h4.532V53.6a4.537,4.537,0,0,0-4.532-4.532H17.532a1.513,1.513,0,0,1-1.511-1.511V46.042Z" transform="translate(5.183 18.913)"/>
      </g>
    </g>
  </g>
</svg>
