<svg xmlns="http://www.w3.org/2000/svg" xmlns:xlink="http://www.w3.org/1999/xlink" width="99.896" height="99.896" viewBox="0 0 99.896 99.896">
  <defs>
    <filter id="Trazado_896985" x="0" y="0" width="99.896" height="99.896" filterUnits="userSpaceOnUse">
      <feOffset dy="3" input="SourceAlpha"/>
      <feGaussianBlur stdDeviation="3" result="blur"/>
      <feFlood flood-opacity="0.161"/>
      <feComposite operator="in" in2="blur"/>
      <feComposite in="SourceGraphic"/>
    </filter>
  </defs>
  <g id="Grupo_1176963" data-name="Grupo 1176963" transform="translate(-200.853 -1488.552)">
    <g id="Grupo_1176700" data-name="Grupo 1176700" transform="translate(-70.198 -3074.448)">
      <g id="Grupo_1111318" data-name="Grupo 1111318" transform="translate(280.051 4569)">
        <g id="Grupo_1109826" data-name="Grupo 1109826" transform="translate(0 0)">
          <g id="Grupo_1098742" data-name="Grupo 1098742">
            <g transform="matrix(1, 0, 0, 1, -9, -6)" filter="url(#Trazado_896985)">
              <g id="Trazado_896985-2" data-name="Trazado 896985" transform="translate(9 6)" fill="#fd9826" opacity="0.859">
                <path d="M 40.94818878173828 80.39647674560547 C 35.6220588684082 80.39647674560547 30.45603561401367 79.35368347167969 25.59363555908203 77.29705810546875 C 20.89635276794434 75.31027221679688 16.67744827270508 72.46570587158203 13.05410671234131 68.84237670898438 C 9.430765151977539 65.21903991699219 6.586200714111328 61.0001335144043 4.599423885345459 56.30284881591797 C 2.542800664901733 51.44044876098633 1.500000596046448 46.2744255065918 1.500000596046448 40.94829559326172 C 1.500000596046448 35.62206268310547 2.542800664901733 30.4560375213623 4.599423885345459 25.59363746643066 C 6.586200714111328 20.8963565826416 9.430765151977539 16.67745018005371 13.05410671234131 13.05410861968994 C 16.67744827270508 9.430768013000488 20.89635276794434 6.586203098297119 25.59363555908203 4.599426746368408 C 30.45603561401367 2.542803049087524 35.6220588684082 1.500003099441528 40.94818878173828 1.500003099441528 C 46.27431869506836 1.500003099441528 51.44034194946289 2.542803049087524 56.30274200439453 4.599426746368408 C 61.00002288818359 6.586203098297119 65.21893310546875 9.430768013000488 68.84226989746094 13.05410861968994 C 72.46561431884766 16.67745018005371 75.3101806640625 20.8963565826416 77.29695129394531 25.59363746643066 C 79.35357666015625 30.4560375213623 80.39637756347656 35.62206268310547 80.39637756347656 40.94819259643555 C 80.39637756347656 46.2744255065918 79.35357666015625 51.44044876098633 77.29695129394531 56.30284881591797 C 75.3101806640625 61.0001335144043 72.46561431884766 65.21903991699219 68.84226989746094 68.84237670898438 C 65.21893310546875 72.46570587158203 61.00002288818359 75.31027221679688 56.30274200439453 77.29705810546875 C 51.44034194946289 79.35368347167969 46.27431869506836 80.39647674560547 40.94818878173828 80.39647674560547 Z" stroke="none"/>
                <path d="M 40.94818878173828 3 C 35.82389450073242 3 30.85446929931641 4.0029296875 26.17796325683594 5.980918884277344 C 21.65948104858398 7.892074584960938 17.600830078125 10.62870788574219 14.11477661132812 14.11476898193359 C 10.62870788574219 17.60082244873047 7.892082214355469 21.65947723388672 5.980918884277344 26.17795944213867 C 4.002937316894531 30.85446548461914 3 35.82389068603516 3 40.94829177856445 C 3 46.07258605957031 4.002937316894531 51.04201126098633 5.980918884277344 55.71852111816406 C 7.892082214355469 60.23701095581055 10.62870788574219 64.295654296875 14.11477661132812 67.78171539306641 C 17.600830078125 71.26776885986328 21.65948104858398 74.00439453125 26.17796325683594 75.91555786132812 C 30.85446929931641 77.89354705810547 35.82389450073242 78.89647674560547 40.94818878173828 78.89647674560547 C 46.07248306274414 78.89647674560547 51.04190826416016 77.89354705810547 55.71841430664062 75.91555786132812 C 60.23689270019531 74.00439453125 64.29554748535156 71.26776885986328 67.78160095214844 67.78171539306641 C 71.26766967773438 64.295654296875 74.00429534912109 60.23701095581055 75.91545867919922 55.71852111816406 C 77.89344024658203 51.04201126098633 78.89637756347656 46.07258605957031 78.89637756347656 40.94818496704102 C 78.89637756347656 35.82389068603516 77.89344024658203 30.85446548461914 75.91545867919922 26.17795944213867 C 74.00429534912109 21.65947723388672 71.26766967773438 17.60082244873047 67.78160095214844 14.11476898193359 C 64.29554748535156 10.62870788574219 60.23689270019531 7.892074584960938 55.71841430664062 5.980918884277344 C 51.04190826416016 4.0029296875 46.07248306274414 3 40.94818878173828 3 M 40.94818878173828 0 C 63.56324005126953 0 81.89637756347656 18.3331298828125 81.89637756347656 40.94818496704102 L 81.89637756347656 40.94829177856445 C 81.89637756347656 63.56335830688477 63.56324005126953 81.89647674560547 40.94818878173828 81.89647674560547 C 18.33313369750977 81.89647674560547 0 63.56335830688477 0 40.94829177856445 L 0 40.94818496704102 C 0 18.3331298828125 18.33313369750977 0 40.94818878173828 0 Z" stroke="none" fill="#fff"/>
              </g>
            </g>
          </g>
        </g>
      </g>
    </g>
    <g id="money-economy-business-finance-file-globe-invoice" transform="translate(222.2 1511)">
      <path id="Trazado_1032227" data-name="Trazado 1032227" d="M57.283,7.142v4.142H49V7.142a4.142,4.142,0,1,1,8.283,0Z" transform="translate(-8.068 -0.172)" fill="#48a3d2"/>
      <path id="Trazado_1032228" data-name="Trazado 1032228" d="M46.619,3a4.129,4.129,0,0,0-4.142,4.142V35.305H11V7.142A4.129,4.129,0,0,1,15.142,3Z" transform="translate(-1.545 -0.172)" fill="#5bcbfa"/>
      <path id="Trazado_1032229" data-name="Trazado 1032229" d="M21.224,42v7.455H7.142A4.142,4.142,0,0,1,3,45.313V42Z" transform="translate(-0.172 -6.866)" fill="#48a3d2"/>
      <circle id="Elipse_13110" data-name="Elipse 13110" cx="18.224" cy="18.224" r="18.224" transform="translate(14.425 14.425)" fill="#a4dec2"/>
      <circle id="Elipse_13111" data-name="Elipse 13111" cx="6.627" cy="6.627" r="6.627" transform="translate(26.022 26.022)" fill="#f8d251"/>
      <path id="Trazado_1032230" data-name="Trazado 1032230" d="M15,7h8.283V8.657H15Z" transform="translate(-2.232 -0.858)"/>
      <path id="Trazado_1032231" data-name="Trazado 1032231" d="M15,11H28.253v1.657H15Z" transform="translate(-2.232 -1.545)"/>
      <path id="Trazado_1032232" data-name="Trazado 1032232" d="M41.76,15.924V11.94h7.455a.828.828,0,0,0,.828-.828V6.97A4.97,4.97,0,0,0,45.074,2H13.6a4.97,4.97,0,0,0-4.97,4.97V34.305h-5.8A.828.828,0,0,0,2,35.134v3.313a4.97,4.97,0,0,0,4.97,4.97h9.973A19.045,19.045,0,1,0,41.76,15.924Zm0-8.954a3.313,3.313,0,1,1,6.627,0v3.313H41.76Zm4.258,14.562A17.3,17.3,0,0,1,50,31.82H42.581a33.364,33.364,0,0,0-1.243-8.549,23.375,23.375,0,0,0,4.68-1.74ZM44.85,20.273A22.849,22.849,0,0,1,40.833,21.7a16.544,16.544,0,0,0-3.322-5.74,17.467,17.467,0,0,1,7.339,4.316Zm-4.8,11.547a7.466,7.466,0,0,0-6.577-6.577v-.9a35.752,35.752,0,0,0,6.213-.679,32.01,32.01,0,0,1,1.226,8.159Zm.861,1.657a32.01,32.01,0,0,1-1.226,8.159,35.752,35.752,0,0,0-6.213-.679v-.9a7.466,7.466,0,0,0,6.577-6.577ZM33.477,22.684V15.345c2.286.505,4.324,3.057,5.691,6.734a33.082,33.082,0,0,1-5.691.6ZM10.283,6.97A3.313,3.313,0,0,1,13.6,3.657H41.379A4.953,4.953,0,0,0,40.1,6.97v8.151A18.831,18.831,0,0,0,32.649,13.6,19.076,19.076,0,0,0,13.6,32.649c0,.555.033,1.11.075,1.657H10.283ZM20.447,20.265a17.451,17.451,0,0,1,7.339-4.307,16.621,16.621,0,0,0-3.322,5.74,22.2,22.2,0,0,1-4.017-1.433Zm3.512,3.007a33.364,33.364,0,0,0-1.243,8.548H15.295a17.3,17.3,0,0,1,3.984-10.288,23.186,23.186,0,0,0,4.68,1.74Zm1.648.389a35.574,35.574,0,0,0,6.213.679v.9a7.466,7.466,0,0,0-6.577,6.577h-.861a32.01,32.01,0,0,1,1.226-8.159Zm.522-1.582c1.367-3.678,3.4-6.229,5.691-6.734v7.339a33.081,33.081,0,0,1-5.691-.6ZM6.97,41.76a3.313,3.313,0,0,1-3.313-3.313V35.962H13.9a18.643,18.643,0,0,0,2.029,5.8Zm8.325-8.283h7.422a33.364,33.364,0,0,0,1.243,8.549,23.186,23.186,0,0,0-4.68,1.74,17.3,17.3,0,0,1-3.984-10.288Zm5.152,11.555A22.2,22.2,0,0,1,24.465,43.6a16.622,16.622,0,0,0,3.322,5.74,17.451,17.451,0,0,1-7.339-4.307Zm11.373,4.92c-2.286-.505-4.324-3.057-5.691-6.734a33.082,33.082,0,0,1,5.691-.6Zm0-9a35.575,35.575,0,0,0-6.213.679,32.01,32.01,0,0,1-1.226-8.159h.861a7.466,7.466,0,0,0,6.577,6.577Zm-4.97-8.308a5.8,5.8,0,1,1,5.8,5.8,5.8,5.8,0,0,1-5.8-5.8Zm6.627,17.3V42.614a33.082,33.082,0,0,1,5.691.6C37.8,46.9,35.763,49.447,33.477,49.953Zm4.034-.613a16.544,16.544,0,0,0,3.322-5.74,22.849,22.849,0,0,1,4.017,1.425A17.467,17.467,0,0,1,37.511,49.34Zm8.507-5.575a23.375,23.375,0,0,0-4.68-1.74,33.364,33.364,0,0,0,1.243-8.549H50a17.3,17.3,0,0,1-3.984,10.288Z"/>
      <path id="Trazado_1032233" data-name="Trazado 1032233" d="M40.142,33.828h-.828V33H37.657v.828h-.828a.828.828,0,0,0-.828.828V37.97a.828.828,0,0,0,.828.828h2.485v1.657H37.657v-.828H36v1.657a.828.828,0,0,0,.828.828h.828v.828h1.657v-.828h.828a.828.828,0,0,0,.828-.828V37.97a.828.828,0,0,0-.828-.828H37.657V35.485h1.657v.828H40.97V34.657A.828.828,0,0,0,40.142,33.828Z" transform="translate(-5.836 -5.321)"/>
      <path id="Trazado_1032234" data-name="Trazado 1032234" d="M15,15h2.485v1.657H15Z" transform="translate(-2.232 -2.232)"/>
      <path id="Trazado_1032235" data-name="Trazado 1032235" d="M20,15h4.142v1.657H20Z" transform="translate(-3.09 -2.232)"/>
    </g>
  </g>
</svg>
