<svg xmlns="http://www.w3.org/2000/svg" xmlns:xlink="http://www.w3.org/1999/xlink" width="173.5" height="173.5" viewBox="0 0 173.5 173.5">
  <defs>
    <filter id="Trazado_896985" x="0" y="0" width="173.5" height="173.5" filterUnits="userSpaceOnUse">
      <feOffset dy="3" input="SourceAlpha"/>
      <feGaussianBlur stdDeviation="3" result="blur"/>
      <feFlood flood-opacity="0.161"/>
      <feComposite operator="in" in2="blur"/>
      <feComposite in="SourceGraphic"/>
    </filter>
  </defs>
  <g id="Grupo_1177109" data-name="Grupo 1177109" transform="translate(5896.981 10748.953)">
    <g id="Grupo_1176698" data-name="Grupo 1176698" transform="translate(-6168.032 -15311.953)">
      <g id="Grupo_1111318" data-name="Grupo 1111318" transform="translate(280.051 4569)">
        <g id="Grupo_1109826" data-name="Grupo 1109826" transform="translate(0 0)">
          <g id="Grupo_1098742" data-name="Grupo 1098742">
            <g transform="matrix(1, 0, 0, 1, -9, -6)" filter="url(#Trazado_896985)">
              <g id="Trazado_896985-2" data-name="Trazado 896985" transform="translate(9 6)" fill="#fd9826" opacity="0.859">
                <path d="M 77.74990081787109 154 C 67.45556640625 154 57.46996307373047 151.9841613769531 48.07046508789062 148.0085144042969 C 43.55267333984375 146.0976715087891 39.19512939453125 143.7324523925781 35.11890029907227 140.9786071777344 C 31.08102607727051 138.2506713867188 27.28392219543457 135.1177673339844 23.83308792114258 131.6669311523438 C 20.38225555419922 128.2161102294922 17.24933815002441 124.4189987182617 14.52140045166016 120.381103515625 C 11.76754665374756 116.3048782348633 9.402359008789062 111.9473571777344 7.49148416519165 107.4295654296875 C 3.515838384628296 98.03004455566406 1.500005006790161 88.04444122314453 1.500005006790161 77.75010681152344 C 1.500005006790161 67.45555877685547 3.515838384628296 57.4699592590332 7.49148416519165 48.07045745849609 C 9.402359008789062 43.55266571044922 11.76754665374756 39.19512557983398 14.52140045166016 35.118896484375 C 17.24933815002441 31.08102035522461 20.38225555419922 27.28391647338867 23.83308792114258 23.83308410644531 C 27.28392219543457 20.38224983215332 31.08102607727051 17.24933242797852 35.11890029907227 14.52139568328857 C 39.19512939453125 11.76754188537598 43.55267333984375 9.40235424041748 48.07046508789062 7.491479396820068 C 57.46996307373047 3.515833377838135 67.45556640625 1.5 77.74990081787109 1.5 C 88.04423522949219 1.5 98.02983856201172 3.515833377838135 107.4293365478516 7.491479396820068 C 111.9471282958984 9.40235424041748 116.3046722412109 11.76754188537598 120.3808975219727 14.52139568328857 C 124.4187774658203 17.24933242797852 128.2158813476562 20.38224983215332 131.6667175292969 23.83308410644531 C 135.1175537109375 27.28391647338867 138.2504577636719 31.08102035522461 140.9783935546875 35.118896484375 C 143.7322540283203 39.19512557983398 146.0974426269531 43.55266571044922 148.0083160400391 48.07045745849609 C 151.9839630126953 57.4699592590332 153.9998016357422 67.45555877685547 153.9998016357422 77.74989318847656 C 153.9998016357422 88.04444122314453 151.9839630126953 98.03004455566406 148.0083160400391 107.4295654296875 C 146.0974426269531 111.9473571777344 143.7322540283203 116.3048782348633 140.9783935546875 120.381103515625 C 138.2504577636719 124.4189987182617 135.1175537109375 128.2161102294922 131.6667175292969 131.6669311523438 C 128.2158813476562 135.1177673339844 124.4187774658203 138.2506713867188 120.3808975219727 140.9786071777344 C 116.3046722412109 143.7324523925781 111.9471282958984 146.0976715087891 107.4293365478516 148.0085144042969 C 98.02983856201172 151.9841613769531 88.04423522949219 154 77.74990081787109 154 Z" stroke="none"/>
                <path d="M 77.74990081787109 3 C 67.65740203857422 3 57.86840057373047 4.9759521484375 48.65479278564453 8.87298583984375 C 44.22618103027344 10.74612426757812 39.95457458496094 13.064697265625 35.95859527587891 15.76432800292969 C 31.99983215332031 18.43882751464844 28.27707672119141 21.51040649414062 24.89372253417969 24.89373779296875 C 21.51040649414062 28.27706146240234 18.43881225585938 31.99982452392578 15.76431274414062 35.95861053466797 C 13.06471252441406 39.95456695556641 10.74612426757812 44.2261962890625 8.872970581054688 48.65478515625 C 4.975936889648438 57.86839294433594 2.999984741210938 67.65739440917969 2.999984741210938 77.75010681152344 C 2.999984741210938 87.84260559082031 4.975936889648438 97.63160705566406 8.872970581054688 106.84521484375 C 10.74612426757812 111.2738037109375 13.06471252441406 115.5454330444336 15.76431274414062 119.541389465332 C 18.43881225585938 123.5001754760742 21.51040649414062 127.2229309082031 24.89372253417969 130.6062622070312 C 28.27707672119141 133.9895935058594 31.99983215332031 137.0611724853516 35.95859527587891 139.7356719970703 C 39.95457458496094 142.435302734375 44.22618103027344 144.7538757324219 48.65479278564453 146.6270141601562 C 57.86840057373047 150.5240478515625 67.65740203857422 152.5 77.74990081787109 152.5 C 87.84239959716797 152.5 97.63140106201172 150.5240478515625 106.8450088500977 146.6270141601562 C 111.2736206054688 144.7538757324219 115.5452270507812 142.435302734375 119.5411834716797 139.7356719970703 C 123.4999694824219 137.0611724853516 127.2227249145508 133.9895935058594 130.6060485839844 130.6062622070312 C 133.9893798828125 127.2229309082031 137.0609741210938 123.5001754760742 139.7354736328125 119.541389465332 C 142.4350891113281 115.5454330444336 144.753662109375 111.2738265991211 146.6268157958984 106.84521484375 C 150.5238342285156 97.63160705566406 152.4997863769531 87.84260559082031 152.4997863769531 77.74989318847656 C 152.4997863769531 67.65739440917969 150.5238342285156 57.86839294433594 146.6268157958984 48.65478515625 C 144.753662109375 44.22617340087891 142.4350891113281 39.95456695556641 139.7354736328125 35.95861053466797 C 137.0609741210938 31.99982452392578 133.9893798828125 28.27706146240234 130.6060485839844 24.89373779296875 C 127.2227249145508 21.51040649414062 123.4999694824219 18.43882751464844 119.5411834716797 15.76432800292969 C 115.5452270507812 13.064697265625 111.2736206054688 10.74612426757812 106.8450088500977 8.87298583984375 C 97.63140106201172 4.9759521484375 87.84239959716797 3 77.74990081787109 3 M 77.74990081787109 0 C 120.6899871826172 0 155.4997863769531 34.80980682373047 155.4997863769531 77.74989318847656 L 155.4997863769531 77.75010681152344 C 155.4997863769531 120.6902008056641 120.6899871826172 155.5 77.74990081787109 155.5 C 34.809814453125 155.5 -1.52587890625e-05 120.6902008056641 -1.52587890625e-05 77.75010681152344 L -1.52587890625e-05 77.74989318847656 C -1.52587890625e-05 34.80980682373047 34.809814453125 0 77.74990081787109 0 Z" stroke="none" fill="#fff"/>
              </g>
            </g>
          </g>
        </g>
      </g>
    </g>
    <g id="benefits_2726562" transform="translate(-5862.513 -10720.513)">
      <circle id="Elipse_13109" data-name="Elipse 13109" cx="20" cy="20" r="20" transform="translate(32.513 2.513)" fill="#f5b95b"/>
      <path id="Trazado_1032212" data-name="Trazado 1032212" d="M20,21.94a19.9,19.9,0,0,0,8.48,16.3c14-1.854,24.754-12.521,24.754-25.441a22.947,22.947,0,0,0-.977-6.522A19.921,19.921,0,0,0,20,21.94Z" transform="translate(12.572 0.662)" fill="#f9d18f"/>
      <path id="Trazado_1032213" data-name="Trazado 1032213" d="M45.234,57.294l34.824-9.5a6.414,6.414,0,0,1,8.38,6.175v1.662L35.264,73.911l-9.97-3.323H12V44H31.94Z" transform="translate(7.279 28.453)" fill="#efbe9c"/>
      <path id="Trazado_1032214" data-name="Trazado 1032214" d="M6,42h9.97V75.234H6Z" transform="translate(3.308 27.13)" fill="#698ec0"/>
      <path id="Trazado_1032215" data-name="Trazado 1032215" d="M2,31.294,15.294,18,28.587,31.294Z" transform="translate(0.662 11.249)" fill="#669e54"/>
      <path id="Trazado_1032216" data-name="Trazado 1032216" d="M2,26H28.587V45.94H2Z" transform="translate(0.662 16.542)" fill="#ebf7fe"/>
      <g id="Grupo_1176961" data-name="Grupo 1176961" transform="translate(10.97 30.911)">
        <path id="Trazado_1032217" data-name="Trazado 1032217" d="M7,43.294V34.985a4.985,4.985,0,0,1,9.97,0v8.309Z" transform="translate(-7 -11.721)" fill="#669e54"/>
        <path id="Trazado_1032218" data-name="Trazado 1032218" d="M48,23h6.647V41.279H48Z" transform="translate(20.13 -16.353)" fill="#669e54"/>
        <path id="Trazado_1032219" data-name="Trazado 1032219" d="M56,19h6.647V43.925H56Z" transform="translate(25.423 -19)" fill="#669e54"/>
        <path id="Trazado_1032220" data-name="Trazado 1032220" d="M40,27h6.647V38.632H40Z" transform="translate(14.836 -13.706)" fill="#669e54"/>
      </g>
      <g id="Grupo_1176962" data-name="Grupo 1176962" transform="translate(1 1)">
        <path id="Trazado_1032221" data-name="Trazado 1032221" d="M84.253,48.177,50.207,57.462a6.388,6.388,0,0,0-.828-1.022L37.747,44.809a1.663,1.663,0,0,0-1.175-.485H18.294V42.662A1.661,1.661,0,0,0,16.632,41H6.662A1.661,1.661,0,0,0,5,42.662V75.9a1.661,1.661,0,0,0,1.662,1.662h9.97A1.661,1.661,0,0,0,18.294,75.9V74.234H29.656l9.714,3.237a1.64,1.64,0,0,0,1.065,0L93.61,59.187a1.659,1.659,0,0,0,1.122-1.57V55.955a8.074,8.074,0,0,0-10.479-7.778ZM14.97,74.234H8.323V44.323H14.97Zm76.438-17.8L39.887,74.141,30.451,71a1.711,1.711,0,0,0-.525-.085H18.294V47.647H35.884L47.029,58.792a3.039,3.039,0,0,1-4.3,4.3L34.424,54.78l-2.35,2.35,8.309,8.308a6.338,6.338,0,0,0,10.828-4.8l33.917-9.251a4.755,4.755,0,0,1,6.281,4.571Z" transform="translate(1.647 25.468)"/>
        <path id="Trazado_1032222" data-name="Trazado 1032222" d="M30.911,51.9V31.955H30.9a1.641,1.641,0,0,0-.472-1.175L17.13,17.487a1.66,1.66,0,0,0-2.35,0L1.487,30.781a1.654,1.654,0,0,0-.472,1.175H1V51.9a1.661,1.661,0,0,0,1.662,1.662H29.249A1.661,1.661,0,0,0,30.911,51.9ZM15.955,21.012l9.282,9.282H6.673Zm3.323,29.223H12.632V43.587a3.323,3.323,0,1,1,6.647,0Zm3.323,0V43.587a6.647,6.647,0,0,0-13.294,0v6.647H4.323V33.617H27.587V50.234Z" transform="translate(-1 9.587)"/>
        <path id="Trazado_1032223" data-name="Trazado 1032223" d="M34.647,28.264a3.327,3.327,0,0,1-3.323-3.323H28a6.64,6.64,0,0,0,4.985,6.411v3.559h3.323V31.351a6.633,6.633,0,0,0-1.662-13.058A3.323,3.323,0,1,1,37.97,14.97h3.323a6.64,6.64,0,0,0-4.985-6.411V5H32.985V8.559a6.633,6.633,0,0,0,1.662,13.058,3.323,3.323,0,0,1,0,6.647Z" transform="translate(16.866 1.647)"/>
        <path id="Trazado_1032224" data-name="Trazado 1032224" d="M40.6,44.2A21.6,21.6,0,1,0,19,22.6,21.627,21.627,0,0,0,40.6,44.2Zm0-39.881A18.279,18.279,0,1,1,22.323,22.6,18.3,18.3,0,0,1,40.6,4.323Z" transform="translate(10.911 -1)"/>
        <path id="Trazado_1032225" data-name="Trazado 1032225" d="M41.263,37.487l-9.97,9.97,2.35,2.35,9.483-9.483H83.981V37H42.438A1.657,1.657,0,0,0,41.263,37.487Z" transform="translate(19.045 22.821)"/>
        <path id="Trazado_1032226" data-name="Trazado 1032226" d="M76.881,42.925V19.662A1.661,1.661,0,0,0,75.219,18H68.572a1.661,1.661,0,0,0-1.662,1.662V42.925H63.587V26.308a1.661,1.661,0,0,0-1.662-1.662H55.279a1.661,1.661,0,0,0-1.662,1.662V42.925H50.294v-9.97a1.661,1.661,0,0,0-1.662-1.662H41.985a1.661,1.661,0,0,0-1.662,1.662v9.97H37v3.323H80.2V42.925Zm-6.647-21.6h3.323v21.6H70.234ZM56.94,27.97h3.323V42.925H56.94ZM43.647,34.617H46.97v8.309H43.647Z" transform="translate(22.821 10.249)"/>
      </g>
    </g>
  </g>
</svg>
