<svg xmlns="http://www.w3.org/2000/svg" width="505" height="434.001" viewBox="0 0 505 434.001">
  <g id="Grupo_1176741" data-name="Grupo 1176741" transform="translate(0)">
    <rect id="Rectángulo_404708" data-name="Rectángulo 404708" width="325" height="434" rx="14" transform="translate(90)" fill="#fed6a8"/>
    <g id="Grupo_1176740" data-name="Grupo 1176740" transform="translate(0 39.429)">
      <g id="freepik--background-complete--inject-257">
        <rect id="Rectángulo_6495" data-name="Rectángulo 6495" width="505" height="0.389" transform="translate(0 357.822)" fill="#ccb6b6"/>
        <rect id="Rectángulo_6496" data-name="Rectángulo 6496" width="36.198" height="0.273" transform="translate(54.755 375.407)" fill="#ebebeb"/>
        <rect id="Rectángulo_6497" data-name="Rectángulo 6497" width="9.497" height="0.273" transform="translate(184.463 378.38)" fill="#ebebeb"/>
        <rect id="Rectángulo_6498" data-name="Rectángulo 6498" width="20.973" height="0.273" transform="translate(92.046 365.265)" fill="#ebebeb"/>
        <rect id="Rectángulo_6499" data-name="Rectángulo 6499" width="47.203" height="0.273" transform="translate(441.923 367.101)" fill="#ebebeb"/>
        <rect id="Rectángulo_6500" data-name="Rectángulo 6500" width="6.918" height="0.273" transform="translate(425.267 367.101)" fill="#ebebeb"/>
        <rect id="Rectángulo_6501" data-name="Rectángulo 6501" width="102.385" height="0.273" transform="translate(300.389 371.713)" fill="#ebebeb"/>
        <path id="Trazado_100867" data-name="Trazado 100867" d="M414.5,4149.854H625.528a6.241,6.241,0,0,0,6.23-6.241V3846.961a6.24,6.24,0,0,0-6.23-6.186H414.5a6.241,6.241,0,0,0-6.241,6.24h0v296.6A6.241,6.241,0,0,0,414.5,4149.854Zm211.032-308.86a5.967,5.967,0,0,1,5.956,5.967v296.652a5.969,5.969,0,0,1-5.956,5.968H414.5a5.98,5.98,0,0,1-5.967-5.968V3846.961a5.978,5.978,0,0,1,5.967-5.967Z" transform="translate(-127.057 -3840.776)" fill="#ebebeb"/>
        <path id="Trazado_100868" data-name="Trazado 100868" d="M630.764,4149.854H841.807a6.252,6.252,0,0,0,6.241-6.241V3846.961a6.25,6.25,0,0,0-6.241-6.186H630.764a6.239,6.239,0,0,0-6.219,6.186v296.652A6.241,6.241,0,0,0,630.764,4149.854Zm211.043-308.86a5.977,5.977,0,0,1,5.967,5.967v296.652a5.979,5.979,0,0,1-5.967,5.968H630.764a5.98,5.98,0,0,1-5.967-5.968V3846.961a5.978,5.978,0,0,1,5.967-5.967Z" transform="translate(-579.735 -3840.776)" fill="#ebebeb"/>
        <rect id="Rectángulo_6502" data-name="Rectángulo 6502" width="167.49" height="138.058" transform="translate(316.259 57.608)" fill="#d1d1d1"/>
        <rect id="Rectángulo_6503" data-name="Rectángulo 6503" width="21.738" height="21.738" transform="translate(450.732 71.138)" fill="#f5f5f5"/>
        <rect id="Rectángulo_6504" data-name="Rectángulo 6504" width="21.738" height="21.738" transform="translate(325.548 127.063)" fill="#f5f5f5"/>
        <rect id="Rectángulo_6505" data-name="Rectángulo 6505" width="21.738" height="21.738" transform="translate(423.813 82.592)" fill="#f5f5f5"/>
        <rect id="Rectángulo_6506" data-name="Rectángulo 6506" width="21.738" height="21.738" transform="translate(350.063 133.905)" fill="#f5f5f5"/>
        <rect id="Rectángulo_6507" data-name="Rectángulo 6507" width="31.29" height="41.575" transform="translate(434.688 134.407)" fill="#f5f5f5"/>
        <rect id="Rectángulo_6508" data-name="Rectángulo 6508" width="31.29" height="41.575" transform="translate(398.96 134.724)" fill="#f5f5f5"/>
        <rect id="Rectángulo_6509" data-name="Rectángulo 6509" width="31.29" height="41.575" transform="translate(336.423 72.679)" fill="#f5f5f5"/>
        <rect id="Rectángulo_6510" data-name="Rectángulo 6510" width="111.172" height="233.087" transform="translate(55.641 27.825)" fill="#ebebeb"/>
        <rect id="Rectángulo_6511" data-name="Rectángulo 6511" width="116.309" height="10.973" transform="translate(53.072 24.787)" fill="#e0e0e0"/>
        <rect id="Rectángulo_6512" data-name="Rectángulo 6512" width="116.309" height="5.486" transform="translate(53.072 40.252)" fill="#e0e0e0"/>
        <rect id="Rectángulo_6513" data-name="Rectángulo 6513" width="116.309" height="5.486" transform="translate(53.072 48.394)" fill="#e0e0e0"/>
        <rect id="Rectángulo_6514" data-name="Rectángulo 6514" width="116.309" height="5.486" transform="translate(53.072 56.537)" fill="#e0e0e0"/>
        <rect id="Rectángulo_6515" data-name="Rectángulo 6515" width="116.309" height="5.486" transform="translate(53.072 64.679)" fill="#e0e0e0"/>
        <rect id="Rectángulo_6516" data-name="Rectángulo 6516" width="116.309" height="5.486" transform="translate(53.072 72.81)" fill="#e0e0e0"/>
        <rect id="Rectángulo_6517" data-name="Rectángulo 6517" width="116.309" height="5.486" transform="translate(53.072 80.953)" fill="#e0e0e0"/>
        <rect id="Rectángulo_6518" data-name="Rectángulo 6518" width="116.309" height="5.486" transform="translate(53.072 89.095)" fill="#e0e0e0"/>
        <rect id="Rectángulo_6519" data-name="Rectángulo 6519" width="116.309" height="5.486" transform="translate(53.072 97.237)" fill="#e0e0e0"/>
        <rect id="Rectángulo_6520" data-name="Rectángulo 6520" width="116.309" height="5.486" transform="translate(53.072 105.379)" fill="#e0e0e0"/>
        <rect id="Rectángulo_6521" data-name="Rectángulo 6521" width="116.309" height="5.486" transform="translate(53.072 113.511)" fill="#e0e0e0"/>
        <rect id="Rectángulo_6522" data-name="Rectángulo 6522" width="116.309" height="5.486" transform="translate(53.072 121.653)" fill="#e0e0e0"/>
        <rect id="Rectángulo_6523" data-name="Rectángulo 6523" width="116.309" height="5.486" transform="translate(53.072 129.795)" fill="#e0e0e0"/>
        <rect id="Rectángulo_6524" data-name="Rectángulo 6524" width="116.309" height="5.486" transform="translate(53.072 137.937)" fill="#e0e0e0"/>
        <rect id="Rectángulo_6525" data-name="Rectángulo 6525" width="116.309" height="5.486" transform="translate(53.072 146.08)" fill="#e0e0e0"/>
        <rect id="Rectángulo_6526" data-name="Rectángulo 6526" width="116.309" height="5.486" transform="translate(53.072 154.222)" fill="#e0e0e0"/>
        <rect id="Rectángulo_6527" data-name="Rectángulo 6527" width="116.309" height="5.486" transform="translate(53.072 162.353)" fill="#e0e0e0"/>
        <rect id="Rectángulo_6528" data-name="Rectángulo 6528" width="116.309" height="5.486" transform="translate(53.072 170.496)" fill="#e0e0e0"/>
        <rect id="Rectángulo_6529" data-name="Rectángulo 6529" width="116.309" height="5.486" transform="translate(53.072 178.638)" fill="#e0e0e0"/>
        <rect id="Rectángulo_6530" data-name="Rectángulo 6530" width="116.309" height="5.486" transform="translate(53.072 186.78)" fill="#e0e0e0"/>
        <rect id="Rectángulo_6531" data-name="Rectángulo 6531" width="116.309" height="5.486" transform="translate(53.072 194.922)" fill="#e0e0e0"/>
        <rect id="Rectángulo_6532" data-name="Rectángulo 6532" width="116.309" height="5.486" transform="translate(53.072 203.054)" fill="#e0e0e0"/>
        <rect id="Rectángulo_6533" data-name="Rectángulo 6533" width="116.309" height="5.486" transform="translate(53.072 211.196)" fill="#e0e0e0"/>
        <rect id="Rectángulo_6534" data-name="Rectángulo 6534" width="116.309" height="5.486" transform="translate(53.072 219.338)" fill="#e0e0e0"/>
        <rect id="Rectángulo_6535" data-name="Rectángulo 6535" width="116.309" height="5.486" transform="translate(53.072 227.481)" fill="#e0e0e0"/>
        <rect id="Rectángulo_6536" data-name="Rectángulo 6536" width="116.309" height="5.486" transform="translate(53.072 235.623)" fill="#e0e0e0"/>
        <rect id="Rectángulo_6537" data-name="Rectángulo 6537" width="116.309" height="5.486" transform="translate(53.072 243.765)" fill="#e0e0e0"/>
        <rect id="Rectángulo_6538" data-name="Rectángulo 6538" width="116.309" height="5.486" transform="translate(53.072 251.896)" fill="#e0e0e0"/>
        <path id="Trazado_100869" data-name="Trazado 100869" d="M469.5,4139.436c.164-1.093,3.989-27.508-3.672-36.624a8.28,8.28,0,0,0-6.415-3.125c-15.465-.372-17.585,12.022-17.607,12.186l1.825.285c.076-.449,1.9-10.929,15.738-10.635a6.481,6.481,0,0,1,4.995,2.481c7.126,8.481,3.279,34.9,3.279,35.159Z" transform="translate(-2.576 -3816.718)" fill="#9d978d"/>
        <path id="Trazado_100870" data-name="Trazado 100870" d="M412.858,4137.722l1.836-.054c0-.241-.612-24.318,11.257-29.291,11.618-4.875,16.853,5.137,17.071,5.574l1.65-.831c-.066-.121-6.2-12.023-19.443-6.448C412.2,4112.137,412.826,4136.684,412.858,4137.722Z" transform="translate(55.01 -3816.206)" fill="#9d978d"/>
        <path id="Trazado_100871" data-name="Trazado 100871" d="M418.812,4141.636c0-.383.109-38.46,7.53-49.6,7.126-10.689,18.58-5.662,19.115-5.465l.765-1.683c-.142-.065-13.41-5.924-21.41,6.1-7.738,11.6-7.847,49.028-7.847,50.612Z" transform="translate(48.958 -3818.23)" fill="#9d978d"/>
        <path id="Trazado_100872" data-name="Trazado 100872" d="M472.116,4100.981s6.776,2.47,4.776,8.372-23.356,15.552-23.356,15.552-8.94-8.2-.732-21.53S471.963,4096.773,472.116,4100.981Z" transform="translate(-17.461 -3817.105)" fill="#d1d1d1"/>
        <path id="Trazado_100873" data-name="Trazado 100873" d="M416.333,4090.193s-4.8-.514-4.372-3.443,18.6-10.437,29.367,1.727c0,0-6.9,11.836-16.864,12.022S416.333,4090.193,416.333,4090.193Z" transform="translate(59.35 -3818.383)" fill="#d1d1d1"/>
        <path id="Trazado_100874" data-name="Trazado 100874" d="M412.855,4107.7s-3.279-2.678.262-3.979,21.093-.93,21.279,16.394c0,0-20.416,3.389-22.951-3.224S412.855,4107.7,412.855,4107.7Z" transform="translate(67.746 -3816.384)" fill="#d1d1d1"/>
        <path id="Trazado_100875" data-name="Trazado 100875" d="M428.645,4171.363h31.673l3.421-34.678h-38.5Z" transform="translate(22.404 -3813.279)" fill="#e2dacc"/>
        <rect id="Rectángulo_6539" data-name="Rectángulo 6539" width="41.881" height="7.65" transform="translate(445.945 319.581)" fill="#d1d1d1"/>
        <path id="Trazado_100876" data-name="Trazado 100876" d="M786.721,4147.713s6.175-13.476-.874-26.755-9.1-16.394-4.6-19.126,6.557,10.623,6.557,10.623,3.792-9.181.656-18.787-5.093-25.257-.809-26.93.809,19.52,4.525,26.744a62.255,62.255,0,0,0,3.628-15.76c.5-7.716-.3-20.044,3.082-23.2s5.541-.973,2.186,16.055a178.6,178.6,0,0,0-3.279,30.875s7.323-22.339,12.241-22.951,4.918,6.557.7,12.863-12.317,17.487-13.651,23.3c0,0,8.044-16.82,15.3-11.661s-6.306,15.3-12.328,18.974-10.219,26.666-10.219,26.666Z" transform="translate(-714.807 -3821.028)" fill="#d1d1d1"/>
        <path id="Trazado_100877" data-name="Trazado 100877" d="M819.384,4152.82s-6.011-13.563,1.2-26.732,9.3-16.274,4.831-19.061-6.689,10.524-6.689,10.524-3.672-9.235-.426-18.787,5.388-25.137,1.093-26.929-1.093,19.508-4.842,26.678a62.568,62.568,0,0,1-3.443-15.815c-.415-7.716.525-20.022-2.809-23.235s-5.519-1.093-2.415,16.023a178.364,178.364,0,0,1,2.929,30.918s-7.06-22.448-11.968-23.17-4.995,6.5-.864,12.843,12.121,17.694,13.377,23.5c0,0-7.836-16.929-15.126-11.881s6.109,15.4,12.1,19.16,9.891,26.809,9.891,26.809Z" transform="translate(-742.596 -3820.572)" fill="#e7e7e7"/>
        <path id="Trazado_100878" data-name="Trazado 100878" d="M779.715,4135.9h49.662l-4.011,35.542H783.737Z" transform="translate(-730.654 -3813.352)" fill="#e2dacc"/>
        <path id="Trazado_100879" data-name="Trazado 100879" d="M727.443,4136.7l3.279-.469c-.59-4.088-4-11.814-12.743-11.814-10.361,0-15.509,5.979-16.033,11.9l3.279.283c.394-4.437,4.481-8.907,12.765-8.907C726.011,4127.694,727.334,4136.328,727.443,4136.7Z" transform="translate(-547.002 -3814.419)" fill="#e0e0e0"/>
        <path id="Trazado_1031846" data-name="Trazado 1031846" d="M58.986,0H4.83A4.83,4.83,0,0,0,0,4.83V33.269A4.83,4.83,0,0,0,4.83,38.1H58.986a4.83,4.83,0,0,0,4.83-4.83V4.83A4.83,4.83,0,0,0,58.986,0Z" transform="translate(136.801 319.395)" fill="#fff"/>
        <path id="Trazado_100880" data-name="Trazado 100880" d="M722.081,4171.382c45.094,0,47.28-30.94,47.28-31.3l-1.836-3.584c-.066,1.146-3.618,31.563-45.5,31.563-17.224,0-32.11,0-33.618-3.279-1.322-2.908,5.148-10.339,15.5-22.263v-4.568c-13.192,15.192-20.678,23.367-18.481,28.187C687.774,4171.174,697.742,4171.382,722.081,4171.382Z" transform="translate(-567.171 -3813.297)" fill="#e0e0e0"/>
      </g>
      <g id="freepik--Chart--inject-257" transform="translate(176.037 39.072)">
        <path id="Trazado_100881" data-name="Trazado 100881" d="M484.172,3877.979a5.465,5.465,0,0,0-5.465,5.464v178.4a5.465,5.465,0,0,0,5.465,5.464H723.708a5.465,5.465,0,0,0,5.465-5.464V3883.356a5.464,5.464,0,0,0-5.465-5.464H484.172m0-1.366H723.708a6.786,6.786,0,0,1,6.787,6.787v178.529a6.787,6.787,0,0,1-6.787,6.787H484.172a6.787,6.787,0,0,1-6.787-6.787V3883.356a6.787,6.787,0,0,1,6.787-6.787Z" transform="translate(-477.385 -3876.526)" fill="#6595bf"/>
        <rect id="Rectángulo_6541" data-name="Rectángulo 6541" width="253.11" height="192.015" rx="6.21" transform="translate(0 0.087)" fill="#fff" opacity="0.7" style="isolation: isolate"/>
        <rect id="Rectángulo_6542" data-name="Rectángulo 6542" width="3.137" height="2.612" transform="translate(28.241 20)" fill="#6595bf"/>
        <path id="Trazado_100882" data-name="Trazado 100882" d="M680.265,4040.561h3.126v-5.137h-3.126Zm0-10.274h3.126v-5.136h-3.126Zm0-10.262h3.126v-5.137h-3.126Zm0-10.273h3.126v-5.126h-3.126Zm0-10.263h3.126v-5.137h-3.126Zm0-10.273h3.126v-5.126h-3.126Zm0-10.263h3.126v-5.136h-3.126Zm0-10.263h3.126v-5.137h-3.126Zm0-10.273h3.126v-5.137h-3.126Zm0-10.263h3.126v-5.137h-3.126Zm0-10.273h3.126v-5.126h-3.126Zm0-10.263h3.126v-5.137h-3.126Zm0-10.273h3.126v-5.125h-3.126Zm0-10.263h3.126v-5.137h-3.126Z" transform="translate(-652.013 -3874.163)" fill="#6595bf"/>
        <rect id="Rectángulo_6543" data-name="Rectángulo 6543" width="3.137" height="2.612" transform="translate(28.241 171.479)" fill="#6595bf"/>
        <path id="Trazado_100883" data-name="Trazado 100883" d="M506.915,4029.213h3.137v-5.137h-3.137Z" transform="translate(-289.216 -3862.815)" fill="#6595bf"/>
        <rect id="Rectángulo_6544" data-name="Rectángulo 6544" width="3.137" height="2.612" transform="translate(217.699 171.479)" fill="#6595bf"/>
        <path id="Trazado_100884" data-name="Trazado 100884" d="M541.585,4031.831h3.137v-5.137h-3.137Zm0-10.273h3.137v-5.137h-3.137Zm0-10.263h3.137v-5.137h-3.137Zm0-10.273h3.137V3995.9h-3.137Z" transform="translate(-361.777 -3865.434)" fill="#6595bf"/>
        <rect id="Rectángulo_6545" data-name="Rectángulo 6545" width="3.137" height="2.612" transform="translate(179.808 171.479)" fill="#6595bf"/>
        <path id="Trazado_100885" data-name="Trazado 100885" d="M576.255,4032.7h3.137v-5.137h-3.137Zm0-10.273h3.137v-5.136h-3.137Zm0-10.263h3.137v-5.137h-3.137Zm0-10.273h3.137v-5.126h-3.137Zm0-10.263h3.137V3986.5h-3.137Z" transform="translate(-434.339 -3866.307)" fill="#6595bf"/>
        <rect id="Rectángulo_6546" data-name="Rectángulo 6546" width="3.137" height="2.612" transform="translate(141.916 171.479)" fill="#6595bf"/>
        <path id="Trazado_100886" data-name="Trazado 100886" d="M610.925,4035.323h3.137v-5.137h-3.137Zm0-10.273h3.137v-5.137h-3.137Zm0-10.263h3.137v-5.137h-3.137Zm0-10.273h3.137v-5.126h-3.137Zm0-10.263h3.137v-5.136h-3.137Zm0-10.273h3.137v-5.126h-3.137Zm0-10.263h3.137v-5.136h-3.137Zm0-10.262h3.137v-5.137h-3.137Z" transform="translate(-506.901 -3868.925)" fill="#6595bf"/>
        <rect id="Rectángulo_6547" data-name="Rectángulo 6547" width="3.137" height="2.612" transform="translate(104.024 171.479)" fill="#6595bf"/>
        <path id="Trazado_100887" data-name="Trazado 100887" d="M645.595,4037.069h3.137v-5.137h-3.137Zm0-10.274h3.137v-5.136h-3.137Zm0-10.262h3.137V4011.4h-3.137Zm0-10.273h3.137v-5.126h-3.137Zm0-10.263h3.137v-5.136h-3.137Zm0-10.273h3.137V3980.6h-3.137Zm0-10.263h3.137v-5.136h-3.137Zm0-10.263h3.137v-5.137h-3.137Zm0-10.273h3.137v-5.137h-3.137Zm0-10.263h3.137v-5.137h-3.137Z" transform="translate(-579.462 -3870.671)" fill="#6595bf"/>
        <rect id="Rectángulo_6548" data-name="Rectángulo 6548" width="3.137" height="2.612" transform="translate(66.133 171.479)" fill="#6595bf"/>
        <g id="Grupo_53888" data-name="Grupo 53888" transform="translate(28.241 20)" opacity="0.7">
          <rect id="Rectángulo_6549" data-name="Rectángulo 6549" width="3.137" height="2.612" transform="translate(0)" fill="#fff"/>
          <path id="Trazado_100888" data-name="Trazado 100888" d="M680.265,4040.561h3.126v-5.137h-3.126Zm0-10.274h3.126v-5.136h-3.126Zm0-10.262h3.126v-5.137h-3.126Zm0-10.273h3.126v-5.126h-3.126Zm0-10.263h3.126v-5.137h-3.126Zm0-10.273h3.126v-5.126h-3.126Zm0-10.263h3.126v-5.136h-3.126Zm0-10.263h3.126v-5.137h-3.126Zm0-10.273h3.126v-5.137h-3.126Zm0-10.263h3.126v-5.137h-3.126Zm0-10.273h3.126v-5.126h-3.126Zm0-10.263h3.126v-5.137h-3.126Zm0-10.273h3.126v-5.125h-3.126Zm0-10.263h3.126v-5.137h-3.126Z" transform="translate(-680.254 -3894.163)" fill="#fff"/>
          <rect id="Rectángulo_6550" data-name="Rectángulo 6550" width="3.137" height="2.612" transform="translate(0 151.479)" fill="#fff"/>
          <path id="Trazado_100889" data-name="Trazado 100889" d="M506.915,4029.213h3.137v-5.137h-3.137Z" transform="translate(-317.457 -3882.815)" fill="#fff"/>
          <rect id="Rectángulo_6551" data-name="Rectángulo 6551" width="3.137" height="2.612" transform="translate(189.458 151.479)" fill="#fff"/>
          <path id="Trazado_100890" data-name="Trazado 100890" d="M541.585,4031.831h3.137v-5.137h-3.137Zm0-10.273h3.137v-5.137h-3.137Zm0-10.263h3.137v-5.137h-3.137Zm0-10.273h3.137V3995.9h-3.137Z" transform="translate(-390.019 -3885.434)" fill="#fff"/>
          <rect id="Rectángulo_6552" data-name="Rectángulo 6552" width="3.137" height="2.612" transform="translate(151.566 151.479)" fill="#fff"/>
          <path id="Trazado_100891" data-name="Trazado 100891" d="M576.255,4032.7h3.137v-5.137h-3.137Zm0-10.273h3.137v-5.136h-3.137Zm0-10.263h3.137v-5.137h-3.137Zm0-10.273h3.137v-5.126h-3.137Zm0-10.263h3.137V3986.5h-3.137Z" transform="translate(-462.58 -3886.307)" fill="#fff"/>
          <rect id="Rectángulo_6553" data-name="Rectángulo 6553" width="3.137" height="2.612" transform="translate(113.675 151.479)" fill="#fff"/>
          <path id="Trazado_100892" data-name="Trazado 100892" d="M610.925,4035.323h3.137v-5.137h-3.137Zm0-10.273h3.137v-5.137h-3.137Zm0-10.263h3.137v-5.137h-3.137Zm0-10.273h3.137v-5.126h-3.137Zm0-10.263h3.137v-5.136h-3.137Zm0-10.273h3.137v-5.126h-3.137Zm0-10.263h3.137v-5.136h-3.137Zm0-10.262h3.137v-5.137h-3.137Z" transform="translate(-535.142 -3888.925)" fill="#fff"/>
          <rect id="Rectángulo_6554" data-name="Rectángulo 6554" width="3.137" height="2.612" transform="translate(75.783 151.479)" fill="#fff"/>
          <path id="Trazado_100893" data-name="Trazado 100893" d="M645.595,4037.069h3.137v-5.137h-3.137Zm0-10.274h3.137v-5.136h-3.137Zm0-10.262h3.137V4011.4h-3.137Zm0-10.273h3.137v-5.126h-3.137Zm0-10.263h3.137v-5.136h-3.137Zm0-10.273h3.137V3980.6h-3.137Zm0-10.263h3.137v-5.136h-3.137Zm0-10.263h3.137v-5.137h-3.137Zm0-10.273h3.137v-5.137h-3.137Zm0-10.263h3.137v-5.137h-3.137Z" transform="translate(-607.703 -3890.671)" fill="#fff"/>
          <rect id="Rectángulo_6555" data-name="Rectángulo 6555" width="3.137" height="2.612" transform="translate(37.892 151.479)" fill="#fff"/>
        </g>
        <path id="Trazado_100894" data-name="Trazado 100894" d="M687.995,3953.526l-36.284,6.819H613.895" transform="translate(-584.08 -3869.371)" fill="none" stroke="#5b39a6" stroke-miterlimit="10" stroke-width="4"/>
        <path id="Trazado_100895" data-name="Trazado 100895" d="M508.4,3890.025a5.236,5.236,0,0,1,4.765,7.4l31.269,33.072a5.224,5.224,0,0,1,7.126,4.875,4.223,4.223,0,0,1,0,.524l29.421,15.76a5.162,5.162,0,0,1,3.279-1.213,5.245,5.245,0,0,1,5.235,5.235,5.389,5.389,0,0,1-.23,1.454l30.372,24.2a5.129,5.129,0,0,1,2.536-.688,5.235,5.235,0,0,1,5.18,4.612l28.624,7.847a5.213,5.213,0,0,1,9.355,3.191,5.013,5.013,0,0,1-.23,1.454L695.477,4022a5.105,5.105,0,0,1,2.536-.688,5.246,5.246,0,1,1-5.235,5.257v-.022a5.413,5.413,0,0,1,.23-1.454l-30.383-24.2a5.115,5.115,0,0,1-2.536.688,5.235,5.235,0,0,1-5.169-4.6l-28.624-7.858a5.213,5.213,0,0,1-9.366-3.191,5.412,5.412,0,0,1,.23-1.454l-30.372-24.2a5.161,5.161,0,0,1-2.536.689,5.247,5.247,0,0,1-5.246-5.235,1.786,1.786,0,0,1,.055-.536l-29.422-15.749a5.213,5.213,0,0,1-8.077-6.175l-31.279-33.083a5.115,5.115,0,0,1-1.88.372,5.246,5.246,0,0,1,0-10.481Z" transform="translate(-478.587 -3875.271)" fill="#6595bf"/>
        <path id="Trazado_100896" data-name="Trazado 100896" d="M540.72,3970.427a1.517,1.517,0,0,1,1.388.885h31a2.044,2.044,0,0,0,2.044-2.044v-32.493h1.312v32.514a3.355,3.355,0,0,1-3.355,3.344h-31a1.53,1.53,0,1,1-1.388-2.186Z" transform="translate(-390.902 -3870.927)" fill="#6595bf"/>
        <rect id="Rectángulo_6556" data-name="Rectángulo 6556" width="42.045" height="15.946" rx="2.59" transform="translate(163.884 56.788)" fill="#6595bf"/>
        <g id="Grupo_53889" data-name="Grupo 53889" transform="translate(148.293 56.788)" opacity="0.4">
          <path id="Trazado_100897" data-name="Trazado 100897" d="M540.72,3970.427a1.517,1.517,0,0,1,1.388.885h31a2.044,2.044,0,0,0,2.044-2.044v-32.493h1.312v32.514a3.355,3.355,0,0,1-3.355,3.344h-31a1.53,1.53,0,1,1-1.388-2.186Z" transform="translate(-539.195 -3927.715)" fill="#fff"/>
          <rect id="Rectángulo_6557" data-name="Rectángulo 6557" width="42.045" height="15.946" rx="2.59" transform="translate(15.591)" fill="#fff"/>
        </g>
        <path id="Trazado_100898" data-name="Trazado 100898" d="M611.781,3941.33v-46.854h1.3v46.854a1.541,1.541,0,1,1-1.3,0Z" transform="translate(-506.773 -3874.858)" fill="#6595bf"/>
        <rect id="Rectángulo_6558" data-name="Rectángulo 6558" width="79.051" height="29.981" rx="4.87" transform="translate(66.133 4.622)" fill="#5b39a6"/>
        <g id="Grupo_53890" data-name="Grupo 53890" transform="translate(104.117 29.454)" opacity="0.4">
          <path id="Trazado_100899" data-name="Trazado 100899" d="M611.781,3940.493v-37.018h1.3v37.018a1.541,1.541,0,1,1-1.3,0Z" transform="translate(-610.89 -3903.476)" fill="#fff"/>
        </g>
        <path id="Trazado_100900" data-name="Trazado 100900" d="M494.735,4042.448h216.2a4.142,4.142,0,0,0-4.131-4.143H498.877a4.142,4.142,0,0,0-4.142,4.143Z" transform="translate(-476.789 -3861.492)" fill="#6595bf"/>
        <path id="Trazado_100901" data-name="Trazado 100901" d="M494.735,4042.448h216.2a4.142,4.142,0,0,0-4.131-4.143H498.877a4.142,4.142,0,0,0-4.142,4.143Z" transform="translate(-476.789 -3861.492)" fill="#fff" opacity="0.4" style="isolation: isolate"/>
        <ellipse id="Elipse_4025" data-name="Elipse 4025" cx="3.749" cy="3.749" rx="3.749" ry="3.749" transform="translate(177.753 117.27)" fill="#fff" opacity="0.2" style="isolation: isolate"/>
        <ellipse id="Elipse_4026" data-name="Elipse 4026" cx="3.749" cy="3.749" rx="3.749" ry="3.749" transform="translate(139.828 106.866)" fill="#fff" opacity="0.4" style="isolation: isolate"/>
        <ellipse id="Elipse_4027" data-name="Elipse 4027" cx="3.749" cy="3.749" rx="3.749" ry="3.749" transform="translate(101.915 76.657)" fill="#fff" opacity="0.6" style="isolation: isolate"/>
        <g id="Grupo_53891" data-name="Grupo 53891" transform="translate(62.565 85.324)">
          <path id="Trazado_1031848" data-name="Trazado 1031848" d="M5.65,0A6.31,6.31,0,0,0,4.173.2,5.564,5.564,0,0,0,0,5.65,5.65,5.65,0,1,0,5.65,0Z" fill="#cdb9f8"/>
          <path id="Trazado_1031847" data-name="Trazado 1031847" d="M3.749,0A3.749,3.749,0,1,0,7.5,3.749,3.749,3.749,0,0,0,3.749,0Z" transform="translate(1.902 1.902)" fill="#8454ee"/>
        </g>
        <g id="Grupo_53892" data-name="Grupo 53892" transform="translate(23.633 85.324)">
          <ellipse id="Elipse_4030" data-name="Elipse 4030" cx="5.65" cy="5.65" rx="5.65" ry="5.65" fill="#cdb9f8" style="isolation: isolate"/>
          <ellipse id="Elipse_4031" data-name="Elipse 4031" cx="3.749" cy="3.749" rx="3.749" ry="3.749" transform="translate(1.902 1.902)" fill="#8454ee" style="isolation: isolate"/>
        </g>
        <ellipse id="Elipse_4032" data-name="Elipse 4032" cx="3.749" cy="3.749" rx="3.749" ry="3.749" transform="translate(63.991 56.351)" fill="#fff" opacity="0.8" style="isolation: isolate"/>
        <ellipse id="Elipse_4033" data-name="Elipse 4033" cx="3.749" cy="3.749" rx="3.749" ry="3.749" transform="translate(26.066 16.252)" fill="#fff"/>
      </g>
      <g id="freepik--character-2--inject-257" transform="translate(44.474 31.836)">
        <g id="freepik--group--inject-257">
          <path id="Trazado_100902" data-name="Trazado 100902" d="M807.588,4038.776l-4.656,12.241s-5.333,3.005-5.738,3.858-1.585,11.279-.743,12.382,11.705-1.77,11.727-2.907.536-10.448.536-10.448l6.251-13.377Z" transform="translate(-778.683 -3854.213)" fill="#e4897b"/>
          <path id="Trazado_100903" data-name="Trazado 100903" d="M801.709,3950.406c-8.1,4.853-8.962,48.93-10.263,53.05s-17.312,49.509-17.312,49.509l11.257,4.372s16.011-33.717,19.465-43.257,5.771-31.148,5.771-31.148Z" transform="translate(-750.28 -3862.425)" fill="#6595bf"/>
          <path id="Trazado_100904" data-name="Trazado 100904" d="M801.709,3950.406c-8.1,4.853-8.962,48.93-10.263,53.05s-17.312,49.509-17.312,49.509l11.257,4.372s16.011-33.717,19.465-43.257,5.771-31.148,5.771-31.148Z" transform="translate(-750.28 -3862.425)" opacity="0.2" style="isolation: isolate"/>
          <path id="Trazado_100905" data-name="Trazado 100905" d="M717.723,3945.606c12.2-6.7,27.957-5.29,27.957-5.29l14.055,19.87,19.837,70.919-2.918,2.656-1.246-5.629-53.936,5.464-.907,7.344-3.1-1.519-1.836-87.182Z" transform="translate(-655.277 -3863.373)" fill="#6595bf"/>
          <path id="Trazado_100906" data-name="Trazado 100906" d="M717.723,3945.606c12.2-6.7,27.957-5.29,27.957-5.29l14.055,19.87,19.837,70.919-2.918,2.656-1.246-5.629-53.936,5.464-.907,7.344-3.1-1.519-1.836-87.182Z" transform="translate(-655.277 -3863.373)" opacity="0.4" style="isolation: isolate"/>
          <path id="Trazado_100907" data-name="Trazado 100907" d="M684.324,3900.442l3.891-13.191a53.589,53.589,0,0,1-.689-8.416c.229-2.4,5.88-7.005,7.65-8.623s9.093,3.628,8.743,4.764-4.623,10.044-5.978,11.072l-2.186,1.235-3.377,16.613Z" transform="translate(-545.428 -3869.905)" fill="#e4897b"/>
          <path id="Trazado_100908" data-name="Trazado 100908" d="M691.265,3946.188c12.372-6.339,21.8-16.132,25.268-21.859s13.661-35.684,13.661-35.684l10.765,1.639s-6.481,36.8-9.946,44.81-35.269,37.083-35.269,37.083Z" transform="translate(-590.042 -3868.163)" fill="#6595bf"/>
          <path id="Trazado_100909" data-name="Trazado 100909" d="M691.265,3946.188c12.372-6.339,21.8-16.132,25.268-21.859s13.661-35.684,13.661-35.684l10.765,1.639s-6.481,36.8-9.946,44.81-35.269,37.083-35.269,37.083Z" transform="translate(-590.042 -3868.163)" opacity="0.2" style="isolation: isolate"/>
          <path id="Trazado_100910" data-name="Trazado 100910" d="M719.735,4195.952l8.864.94,1.672-19.126-8.875-.94Z" transform="translate(-610.468 -3841.385)" fill="#e4897b"/>
          <path id="Trazado_100911" data-name="Trazado 100911" d="M761.345,4195.428h8.59l.71-19.9h-8.6Z" transform="translate(-696.319 -3841.506)" fill="#e4897b"/>
          <path id="Trazado_100912" data-name="Trazado 100912" d="M759.2,4192.826H748.761a.752.752,0,0,0-.732.59l-1.694,7.651a1.268,1.268,0,0,0,.984,1.5,1.162,1.162,0,0,0,.273,0c3.377-.054,5.836-.262,10.077-.262,2.612,0,10.492.273,14.1.273s4.077-3.563,2.6-3.891c-6.623-1.443-11.607-3.443-13.727-5.345A2.062,2.062,0,0,0,759.2,4192.826Z" transform="translate(-684.391 -3839.899)" fill="#344154"/>
          <path id="Trazado_100913" data-name="Trazado 100913" d="M758.8,4194.392a2.577,2.577,0,0,0,1.65-.437,1.189,1.189,0,0,0,.426-1.092.6.6,0,0,0-.35-.569c-.951-.492-3.727,1.213-4.033,1.41a.2.2,0,0,0-.1.2.209.209,0,0,0,.153.175A10.712,10.712,0,0,0,758.8,4194.392Zm1.279-1.781a.42.42,0,0,1,.262.054c.055,0,.12.077.131.241a.842.842,0,0,1-.273.732,4.184,4.184,0,0,1-3.06.153A8.156,8.156,0,0,1,760.078,4192.611Z" transform="translate(-681.151 -3839.956)" fill="#6595bf"/>
          <path id="Trazado_100914" data-name="Trazado 100914" d="M758.2,4194.25h.1c.885-.481,2.6-2.371,2.426-3.279a.666.666,0,0,0-.656-.535,1.09,1.09,0,0,0-.864.262c-.995.809-1.2,3.278-1.213,3.4a.242.242,0,0,0,.1.186A.191.191,0,0,0,758.2,4194.25Zm1.727-3.442h.1c.262,0,.284.153.3.208.109.558-.984,1.989-1.869,2.656a4.823,4.823,0,0,1,1.016-2.688A.731.731,0,0,1,759.928,4190.808Z" transform="translate(-682.749 -3840.122)" fill="#6595bf"/>
          <path id="Trazado_100915" data-name="Trazado 100915" d="M718.7,4192.576H708.261a.752.752,0,0,0-.732.59l-1.694,7.65a1.169,1.169,0,0,0,1.257,1.5c3.377-.055,5.836-.262,10.077-.262,2.612,0,10.492.273,14.1.273s4.077-3.563,2.6-3.891c-6.623-1.442-11.607-3.443-13.727-5.345A2.062,2.062,0,0,0,718.7,4192.576Z" transform="translate(-599.627 -3839.922)" fill="#344154"/>
          <path id="Trazado_100916" data-name="Trazado 100916" d="M718.3,4194.142a2.58,2.58,0,0,0,1.65-.437,1.19,1.19,0,0,0,.426-1.093.6.6,0,0,0-.35-.568c-.951-.493-3.727,1.213-4.033,1.41a.2.2,0,0,0-.1.2.209.209,0,0,0,.153.175A10.68,10.68,0,0,0,718.3,4194.142Zm1.279-1.782a.418.418,0,0,1,.262.055c.055,0,.12.076.131.241a.844.844,0,0,1-.273.732,4.184,4.184,0,0,1-3.06.152A8.174,8.174,0,0,1,719.578,4192.36Z" transform="translate(-596.387 -3839.979)" fill="#6595bf"/>
          <path id="Trazado_100917" data-name="Trazado 100917" d="M717.7,4194h.1c.885-.481,2.6-2.371,2.426-3.279a.666.666,0,0,0-.656-.535,1.091,1.091,0,0,0-.863.261c-.995.81-1.2,3.279-1.213,3.4a.244.244,0,0,0,.1.186A.2.2,0,0,0,717.7,4194Zm1.727-3.487h.1c.262,0,.284.154.3.208.109.558-.984,1.99-1.869,2.657a4.818,4.818,0,0,1,1.016-2.689A.732.732,0,0,1,719.428,4190.514Z" transform="translate(-597.986 -3840.145)" fill="#6595bf"/>
          <path id="Trazado_100918" data-name="Trazado 100918" d="M720.6,4176.825l8.875.94-.874,9.869-8.864-.94Z" transform="translate(-609.67 -3841.385)" opacity="0.2" style="isolation: isolate"/>
          <path id="Trazado_100919" data-name="Trazado 100919" d="M761.716,4175.535h8.6l-.372,10.263h-8.6Z" transform="translate(-695.991 -3841.505)" opacity="0.2" style="isolation: isolate"/>
          <path id="Trazado_100920" data-name="Trazado 100920" d="M720.693,4015.775h45.6c4.372,23.685,17.913,107.467,8.175,182.114l-15.443-1.913s1.432-99.084-12.186-135.719c-1.574,19.607-3.432,40.438-5.049,51.575-3.967,27.323-12.459,87.029-12.459,87.029H713.612s3.213-57.149,4.7-84C719.929,4085.723,720.606,4021.787,720.693,4015.775Z" transform="translate(-651.417 -3856.35)" fill="#344154"/>
          <path id="Trazado_100921" data-name="Trazado 100921" d="M737.2,4057.855a122.156,122.156,0,0,1,5.093,19.727c1.279-17.486-3.825-35.946-3.825-35.946Z" transform="translate(-641.777 -3853.947)" opacity="0.2" style="isolation: isolate"/>
          <path id="Trazado_100922" data-name="Trazado 100922" d="M733.019,4186.407l-19.1-2.842.579-5.29,19.88,2.612Z" transform="translate(-608.211 -3841.251)" fill="#6595bf"/>
          <path id="Trazado_100923" data-name="Trazado 100923" d="M733.019,4186.407l-19.1-2.842.579-5.29,19.88,2.612Z" transform="translate(-608.211 -3841.251)" fill="#fff" opacity="0.6" style="isolation: isolate"/>
          <path id="Trazado_100924" data-name="Trazado 100924" d="M774.241,4183.917H755.7v-5.541l19.236-.36Z" transform="translate(-694.45 -3841.275)" fill="#6595bf"/>
          <path id="Trazado_100925" data-name="Trazado 100925" d="M774.241,4183.917H755.7v-5.541l19.236-.36Z" transform="translate(-694.45 -3841.275)" fill="#fff" opacity="0.6" style="isolation: isolate"/>
          <path id="Trazado_100926" data-name="Trazado 100926" d="M769.258,4016.295h-45.9v5.465l46.493-.557Z" transform="translate(-654.001 -3856.302)" fill="#344154"/>
          <path id="Trazado_100927" data-name="Trazado 100927" d="M769.258,4016.295h-45.9v5.465l46.493-.557Z" transform="translate(-654.001 -3856.302)" fill="#fff" opacity="0.2" style="isolation: isolate"/>
          <rect id="Rectángulo_6559" data-name="Rectángulo 6559" width="1.639" height="9.705" transform="translate(84.108 157.534)" fill="#344154"/>
          <rect id="Rectángulo_6560" data-name="Rectángulo 6560" width="1.639" height="9.705" transform="translate(107.333 157.534)" fill="#344154"/>
          <path id="Trazado_100928" data-name="Trazado 100928" d="M773.719,3941.3s-28.962,2.022-49.794,9.957c0,0,15.071,46.591,17.891,73.772l45.9-1.759S784.484,3968.422,773.719,3941.3Z" transform="translate(-672.495 -3863.271)" fill="#6595bf"/>
          <path id="Trazado_100929" data-name="Trazado 100929" d="M723.945,3951.25s3.006,9.29,6.558,21.979c1.322,4.722,2.732,9.913,4.1,15.3,3.169,12.525,6.12,25.979,7.213,36.515l45.9-1.76s-3.279-54.842-14.033-81.969C773.739,3941.294,744.776,3943.316,723.945,3951.25Z" transform="translate(-672.515 -3863.269)" fill="#fff" opacity="0.7" style="isolation: isolate"/>
          <path id="Trazado_100930" data-name="Trazado 100930" d="M751.986,3947.732c4.6,3.279,14.623.7,14.623.7s6.153-2.481,4.59-4.317c-3.814-.175-5.836-1.715-6.853-3.858a11.089,11.089,0,0,1-.874-4.24,22.238,22.238,0,0,1,0-2.416l-13.651-7.825C752.194,3931.71,755.538,3942.792,751.986,3947.732Z" transform="translate(-684.534 -3864.713)" fill="#e4897b"/>
          <path id="Trazado_100931" data-name="Trazado 100931" d="M756.315,3930.866c1.377,7.487,7.836,8.853,10.929,8.918a11.093,11.093,0,0,1-.874-4.24Z" transform="translate(-687.42 -3864.24)" opacity="0.2" style="isolation: isolate"/>
          <path id="Trazado_100932" data-name="Trazado 100932" d="M764.348,3903.6s7.88,9.016,5.027,16.23-14.7-11.367-14.7-11.367Z" transform="translate(-688.382 -3866.774)" fill="#344154"/>
          <path id="Trazado_100933" data-name="Trazado 100933" d="M763.169,3937.374a10.744,10.744,0,0,0,12.645-3.126,11.922,11.922,0,0,0,2.765-8.361,10.263,10.263,0,0,0-.131-1.268c-1.279-7.76-7.246-18.962-16.252-18.854a11.651,11.651,0,0,0-10.339,16.962C755.66,3930.368,757.507,3935.034,763.169,3937.374Z" transform="translate(-692.504 -3866.572)" fill="#e4897b"/>
          <path id="Trazado_100934" data-name="Trazado 100934" d="M761.895,3918.844c.219.645.82,1.017,1.235.831s.536-.842.273-1.476-.831-1.005-1.246-.831S761.622,3918.188,761.895,3918.844Z" transform="translate(-689.656 -3865.498)" fill="#344154"/>
          <path id="Trazado_100935" data-name="Trazado 100935" d="M755.272,3916.065c.229.645.831,1.005,1.246.83s.536-.841.273-1.475-.831-1.005-1.246-.831S755.021,3915.453,755.272,3916.065Z" transform="translate(-675.82 -3865.757)" fill="#344154"/>
          <path id="Trazado_100936" data-name="Trazado 100936" d="M753.735,3917.105a24.459,24.459,0,0,0,5.344,4.175,3.992,3.992,0,0,1-2.831,1.869Z" transform="translate(-676.436 -3865.519)" fill="#de5753"/>
          <path id="Trazado_100937" data-name="Trazado 100937" d="M764.466,3917.721a.405.405,0,0,0,.3-.295,3.279,3.279,0,0,1,1.88-2.273.405.405,0,0,0,.251-.514h0a.415.415,0,0,0-.514-.251h0a4.011,4.011,0,0,0-2.393,2.831.393.393,0,0,0,.251.5l.022.006Z" transform="translate(-695.451 -3865.773)" fill="#344154"/>
          <path id="Trazado_100938" data-name="Trazado 100938" d="M761.818,3926.1h0a6.266,6.266,0,0,1-5.749.394.219.219,0,0,1-.059-.3.217.217,0,0,1,.234-.089h0a6,6,0,0,0,5.333-.394.206.206,0,0,1,.284.055h0a.218.218,0,0,1-.055.295Z" transform="translate(-681.699 -3864.722)" fill="#344154"/>
          <path id="Trazado_100939" data-name="Trazado 100939" d="M758.109,3912.612a.532.532,0,0,0,.23-.076.415.415,0,0,0,0-.58h0a3.988,3.988,0,0,0-3.585-.973.4.4,0,0,0-.284.492h0a.416.416,0,0,0,.5.273h0a3.277,3.277,0,0,1,2.831.82A.462.462,0,0,0,758.109,3912.612Z" transform="translate(-676.603 -3866.097)" fill="#344154"/>
          <path id="Trazado_100940" data-name="Trazado 100940" d="M774.137,3910.116l2.033,3.191a2.787,2.787,0,0,0,.251,3.782c2.448,2.328,2.94,7.519,1.607,10.317,0,0-.667-1.2-1.563-.416s2.459,7.083,5.945,9.17c0,0-4.372-1.3-9.344-7.213-4.579-5.465-7.268-10.568-7.137-13.6Z" transform="translate(-713.09 -3866.168)" fill="#344154"/>
          <path id="Trazado_100941" data-name="Trazado 100941" d="M769.33,3929.044a8.058,8.058,0,0,0,5.869,1.967c2.831-.208,3.279-2.973,1.694-5.147-1.432-1.924-4.645-4.2-7.093-2.885S767.363,3927.285,769.33,3929.044Z" transform="translate(-710.644 -3865.009)" fill="#e4897b"/>
          <path id="Trazado_100942" data-name="Trazado 100942" d="M771.041,3910.309s-1.355-1.268-1.464,1.585-1.825,4.787-5.716,6.8-5.126,2.186-5.126,2.186-6.328-5.978.284-12.787c0,0-.306-3.508,3.858-5.793,7.159-3.934,16.984-2.305,20.438,1.672a5.76,5.76,0,0,1,1.246,5.957S773.26,3903.926,771.041,3910.309Z" transform="translate(-704.748 -3867.105)" fill="#344154"/>
          <path id="Trazado_100943" data-name="Trazado 100943" d="M748.57,3941.311l12.667,4.022.2-4.437,4.612,1.039a3.66,3.66,0,0,1,2.852,3.53l.066,4.831-5.038-2.033s7.508,17.618,8.492,42.624c0,0-2.863-26.951-10.645-41.946l-1.847,3.4-15.3-5.268Z" transform="translate(-679.818 -3863.308)" fill="#6595bf"/>
          <path id="Trazado_100944" data-name="Trazado 100944" d="M748.57,3941.311l12.667,4.022.2-4.437,4.612,1.039a3.66,3.66,0,0,1,2.852,3.53l.066,4.831-5.038-2.033s7.508,17.618,8.492,42.624c0,0-2.863-26.951-10.645-41.946l-1.847,3.4-15.3-5.268Z" transform="translate(-679.818 -3863.308)" fill="#fff" opacity="0.6" style="isolation: isolate"/>
          <rect id="Rectángulo_6561" data-name="Rectángulo 6561" width="8.492" height="6.12" transform="translate(94.338 159.043)" fill="#6595bf"/>
          <rect id="Rectángulo_6562" data-name="Rectángulo 6562" width="8.492" height="6.12" transform="translate(94.338 159.043)" fill="#fff" opacity="0.4" style="isolation: isolate"/>
          <path id="Trazado_100945" data-name="Trazado 100945" d="M716.045,3942.159s22.645,59.849,27.837,88.417l3.4-1.847s-13.049-65.488-22.667-87.434Z" transform="translate(-623.445 -3863.271)" fill="#6595bf"/>
          <path id="Trazado_100946" data-name="Trazado 100946" d="M777.3,3947.555s9.6,48.176,5.213,87.664l-5.213-1.159s-6.306-63.018-9.65-83.39Z" transform="translate(-716.216 -3862.689)" fill="#6595bf"/>
          <path id="Trazado_100947" data-name="Trazado 100947" d="M747.088,3949.923l-.885-7.869-4.153-1.749A11.093,11.093,0,0,0,747.088,3949.923Z" transform="translate(-651.668 -3863.363)" fill="#6595bf"/>
          <path id="Trazado_100948" data-name="Trazado 100948" d="M747.088,3949.923l-.885-7.869-4.153-1.749A11.093,11.093,0,0,0,747.088,3949.923Z" transform="translate(-651.668 -3863.363)" opacity="0.2" style="isolation: isolate"/>
          <path id="Trazado_100949" data-name="Trazado 100949" d="M775.213,3955.529a14.461,14.461,0,0,0,0-10.383l-3.88,3.442Z" transform="translate(-712.767 -3862.914)" fill="#6595bf"/>
          <path id="Trazado_100950" data-name="Trazado 100950" d="M775.213,3955.529a14.461,14.461,0,0,0,0-10.383l-3.88,3.442Z" transform="translate(-712.767 -3862.914)" opacity="0.2" style="isolation: isolate"/>
          <rect id="Rectángulo_6563" data-name="Rectángulo 6563" width="42.449" height="28.864" rx="1.19" transform="translate(41.428 236.119) rotate(-167.41)" fill="#344154"/>
          <rect id="Rectángulo_6564" data-name="Rectángulo 6564" width="42.449" height="28.864" rx="1.19" transform="translate(41.428 236.119) rotate(-167.41)" fill="#fff" opacity="0.2" style="isolation: isolate"/>
          <path id="Trazado_100951" data-name="Trazado 100951" d="M812.7,4098.829l16.11-14.842c-2.186-22.722-25.3-30-25.3-30l-5.465,24.547S816.887,4080.238,812.7,4098.829Z" transform="translate(-794.595 -3852.8)" fill="#6595bf"/>
          <path id="Trazado_100952" data-name="Trazado 100952" d="M812.7,4098.829l16.11-14.842c-2.186-22.722-25.3-30-25.3-30l-5.465,24.547S816.887,4080.238,812.7,4098.829Z" transform="translate(-794.595 -3852.8)" fill="#fff" opacity="0.7" style="isolation: isolate"/>
          <path id="Trazado_100953" data-name="Trazado 100953" d="M825.594,4070.633l1.935-8.667a1.388,1.388,0,0,0-1.045-1.662l-.048-.01-2.393-.535a1.4,1.4,0,0,0-1.667,1.065l-.006.028-1.934,8.667a1.4,1.4,0,0,0,1.067,1.667l.026.006,2.394.536a1.4,1.4,0,0,0,1.667-1.067Zm-2.186-9.6a.393.393,0,0,1,.47-.295l2.393.535a.392.392,0,0,1,.307.463v.007l-1.935,8.667a.4.4,0,0,1-.47.295l-2.4-.536a.394.394,0,0,1-.3-.47Z" transform="translate(-817.783 -3852.267)" fill="#6595bf"/>
          <g id="Grupo_53893" data-name="Grupo 53893" transform="translate(2.62 207.459)" opacity="0.4">
            <path id="Trazado_100954" data-name="Trazado 100954" d="M825.594,4070.633l1.935-8.667a1.388,1.388,0,0,0-1.045-1.662l-.048-.01-2.393-.535a1.4,1.4,0,0,0-1.667,1.065l-.006.028-1.934,8.667a1.4,1.4,0,0,0,1.067,1.667l.026.006,2.394.536a1.4,1.4,0,0,0,1.667-1.067Zm-2.186-9.6a.393.393,0,0,1,.47-.295l2.393.535a.392.392,0,0,1,.307.463v.007l-1.935,8.667a.4.4,0,0,1-.47.295l-2.4-.536a.394.394,0,0,1-.3-.47Z" transform="translate(-820.403 -4059.726)" fill="#fff"/>
          </g>
        </g>
      </g>
      <g id="freepik--character-1--inject-257" transform="translate(352.047 112.231)">
        <path id="Trazado_100955" data-name="Trazado 100955" d="M510.518,4019.242h-5.465s-3.2,1.442-4.853,1.092-12.022-6.437-11.443-7.475,22.7,1.17,22.7,1.17Z" transform="translate(-446.764 -3937.042)" fill="#d9a171"/>
        <path id="Trazado_100956" data-name="Trazado 100956" d="M475.625,4074.6s.546,8.142,1.672,20.766c.4,4.612.885,9.837,1.454,15.454,2.448,24.394,6.383,56.733,11.946,82.865l5.465-.087s4.055-39.455-2.732-65.783l.689-18.7.481-12.885.8-21.673Z" transform="translate(-418.341 -3931.283)" fill="#d9a171"/>
        <path id="Trazado_100957" data-name="Trazado 100957" d="M436.115,4078.382s1.727,7.137,4.689,18.35c.874,3.279,1.847,6.951,2.918,10.875,6.557,24.12,16.722,58.646,27.509,85.608l5.388-1.016s-2.721-39.575-13.891-64.362l-2.962-22.012-1.093-8.208-3.049-22.6Z" transform="translate(-354.414 -3931.241)" fill="#d9a171"/>
        <path id="Trazado_100958" data-name="Trazado 100958" d="M469.393,4095.771l-17.858-.886c.874,3.279,1.847,6.951,2.918,10.874l16.044-1.781Z" transform="translate(-365.146 -3929.394)" opacity="0.2" style="isolation: isolate"/>
        <path id="Trazado_100959" data-name="Trazado 100959" d="M478.145,4093.635c.4,4.613.885,9.837,1.454,15.454l15.377-1.705.481-12.885Z" transform="translate(-419.188 -3929.51)" opacity="0.2" style="isolation: isolate"/>
        <path id="Trazado_100960" data-name="Trazado 100960" d="M494.838,3985.865c3.563,1.4,2.306,34.526-3.935,43.488s-42.8-4.765-42.8-4.765l.874-8.022,32.591.1Z" transform="translate(-387.706 -3939.524)" fill="#344154"/>
        <path id="Trazado_100961" data-name="Trazado 100961" d="M496.52,4012.493l38.842,2.328-4.623-28.416a1.354,1.354,0,0,0-1.257-1.093l-36.82-2.187a.754.754,0,0,0-.787.875Z" transform="translate(-474.089 -3939.779)" fill="#344154"/>
        <path id="Trazado_100962" data-name="Trazado 100962" d="M496.52,4012.493l38.842,2.328-4.623-28.416a1.354,1.354,0,0,0-1.257-1.093l-36.82-2.187a.754.754,0,0,0-.787.875Z" transform="translate(-474.089 -3939.779)" fill="#fff" opacity="0.2" style="isolation: isolate"/>
        <path id="Trazado_100963" data-name="Trazado 100963" d="M496.06,4012.522l38.842,2.328-4.623-28.416a1.343,1.343,0,0,0-1.257-1.093l-36.82-2.186a.742.742,0,0,0-.795.687.734.734,0,0,0,.008.176Z" transform="translate(-473.125 -3939.777)" fill="#344154"/>
        <path id="Trazado_100964" data-name="Trazado 100964" d="M497.157,4011.586l36.383,2.186-4.492-27.65-36.383-2.187Z" transform="translate(-473.141 -3939.704)" fill="#6595bf"/>
        <path id="Trazado_100965" data-name="Trazado 100965" d="M497.157,4011.586l36.383,2.186-4.492-27.65-36.383-2.187Z" transform="translate(-473.141 -3939.704)" fill="#fff" opacity="0.4" style="isolation: isolate"/>
        <path id="Trazado_100966" data-name="Trazado 100966" d="M473.114,4010.025l-.076,1.4a1.422,1.422,0,0,0,1.322,1.5l56.089,3.388a1.41,1.41,0,0,0,1.5-1.316v-.006l.087-1.388Z" transform="translate(-450.18 -3937.28)" fill="#344154"/>
        <path id="Trazado_100967" data-name="Trazado 100967" d="M473.114,4010.025l-.076,1.4a1.422,1.422,0,0,0,1.322,1.5l56.089,3.388a1.41,1.41,0,0,0,1.5-1.316v-.006l.087-1.388Z" transform="translate(-450.18 -3937.28)" fill="#fff" opacity="0.2" style="isolation: isolate"/>
        <path id="Trazado_100968" data-name="Trazado 100968" d="M503.044,4010.025l-.076,1.4a1.422,1.422,0,0,0,1.322,1.5l23.367,1.4a1.41,1.41,0,0,0,1.508-1.29l.087-1.4Z" transform="translate(-480.11 -3937.28)" fill="#fff" opacity="0.2" style="isolation: isolate"/>
        <g id="Grupo_53894" data-name="Grupo 53894" transform="translate(26.071 51.073)" opacity="0.4">
          <path id="Trazado_100969" data-name="Trazado 100969" d="M497.568,4006.318l1.486.088-.623-3.563-1.486-.088Z" transform="translate(-469.403 -3989.028)" fill="#fff"/>
          <path id="Trazado_100970" data-name="Trazado 100970" d="M500.53,4006.347l1.5.087-1.005-5.771-1.5-.087Z" transform="translate(-475.196 -3989.231)" fill="#fff"/>
          <path id="Trazado_100971" data-name="Trazado 100971" d="M503.5,4006.373l1.486.088-1.388-7.979-1.486-.087Z" transform="translate(-480.989 -3989.434)" fill="#fff"/>
          <path id="Trazado_100972" data-name="Trazado 100972" d="M506.28,4006.308l1.5.087-1.585-9.082-1.5-.088Z" transform="translate(-486.596 -3989.542)" fill="#fff"/>
          <path id="Trazado_100973" data-name="Trazado 100973" d="M509.066,4006.241l1.486.087-1.771-10.186-1.5-.087Z" transform="translate(-492.203 -3989.651)" fill="#fff"/>
          <path id="Trazado_100974" data-name="Trazado 100974" d="M512.018,4006.27l1.5.088-2.164-12.394-1.486-.1Z" transform="translate(-497.985 -3989.854)" fill="#fff"/>
          <path id="Trazado_100975" data-name="Trazado 100975" d="M514.422,4006.016l1.486.087-1.967-11.29-1.486-.1Z" transform="translate(-503.209 -3989.776)" fill="#fff"/>
          <path id="Trazado_100976" data-name="Trazado 100976" d="M516.805,4005.762l1.5.087-1.781-10.186-1.486-.1Z" transform="translate(-508.423 -3989.696)" fill="#fff"/>
          <path id="Trazado_100977" data-name="Trazado 100977" d="M519.779,4005.79l1.5.087-2.164-12.394-1.5-.1Z" transform="translate(-514.216 -3989.899)" fill="#fff"/>
          <path id="Trazado_100978" data-name="Trazado 100978" d="M522.937,4005.912l1.5.087-2.732-15.716-1.5-.087Z" transform="translate(-520.205 -3990.195)" fill="#fff"/>
        </g>
        <path id="Trazado_100979" data-name="Trazado 100979" d="M451.559,4109.775C444.914,4049.5,456.4,4029,456.4,4029l32.416-5.541a146.787,146.787,0,0,1,2.721,18.142s3.115,11.148,4.109,14.208a161.008,161.008,0,0,1,7.159,53.936Z" transform="translate(-395.334 -3936.032)" fill="#6595bf"/>
        <g id="Grupo_53895" data-name="Grupo 53895" transform="translate(54.157 87.5)" opacity="0.2">
          <path id="Trazado_100980" data-name="Trazado 100980" d="M451.532,4109.768h51.247s.262-3.859.077-10.187a160.882,160.882,0,0,0-7.235-43.717c-.995-3.092-4.109-14.208-4.109-14.208q-.12-1.094-.229-2.186a131.177,131.177,0,0,0-2.492-15.946l-32.405,5.464S444.887,4049.493,451.532,4109.768Z" transform="translate(-449.464 -4023.525)"/>
        </g>
        <path id="Trazado_100981" data-name="Trazado 100981" d="M463.58,4075.733s13.115,16.656,30.941,22.711a160.881,160.881,0,0,0-7.235-43.717c-.994-3.093-4.109-14.208-4.109-14.208q-.12-1.094-.23-2.186l-33.421-2.558s12.11,12.143,25.137,15.3C474.607,4051.077,474.072,4069.1,463.58,4075.733Z" transform="translate(-386.972 -3934.887)" opacity="0.2" style="isolation: isolate"/>
        <path id="Trazado_100982" data-name="Trazado 100982" d="M479.814,3959.884c0,.689-.361,1.246-.82,1.246s-.82-.568-.82-1.268.383-1.246.831-1.246S479.814,3959.206,479.814,3959.884Z" transform="translate(-403.578 -3942.057)" fill="#344154"/>
        <path id="Trazado_100983" data-name="Trazado 100983" d="M479.986,3958.475a.416.416,0,0,1-.393-.164,3.273,3.273,0,0,0-2.59-1.377.416.416,0,0,1-.437-.383.4.4,0,0,1,.381-.426h0a4.032,4.032,0,0,1,3.279,1.694.4.4,0,0,1-.065.567h0Z" transform="translate(-402.319 -3942.288)" fill="#344154"/>
        <path id="Trazado_100984" data-name="Trazado 100984" d="M480.407,3961.356a17.357,17.357,0,0,1-2.022,4.241,2.771,2.771,0,0,0,2.328.284Z" transform="translate(-404.706 -3941.802)" fill="#de726f"/>
        <path id="Trazado_100985" data-name="Trazado 100985" d="M475.155,3974.806a1.565,1.565,0,0,1-.262.2,11.873,11.873,0,0,1-4.186,2.043c-4.426,1.028-7.454.416-9.432-1.584h0c-2.765-3.005-3.454-8.328-3.06-14.755a24.035,24.035,0,0,1,1.4-7.5v-.12a1.708,1.708,0,0,1,.109-.273,8.739,8.739,0,0,1,6.448-5.344,17.665,17.665,0,0,1,3.792-.427C482.5,3946.914,484.75,3967.658,475.155,3974.806Z" transform="translate(-382.929 -3943.131)" fill="#d9a171"/>
        <path id="Trazado_100986" data-name="Trazado 100986" d="M477.562,3973.195a11.622,11.622,0,0,1-4.23,1.759c-4.448.907-7.454.077-9.377-2.011a12.428,12.428,0,0,0,7.956-.437A6.478,6.478,0,0,1,477.562,3973.195Z" transform="translate(-385.785 -3940.799)" opacity="0.2" style="isolation: isolate"/>
        <path id="Trazado_100987" data-name="Trazado 100987" d="M473.633,3984.235c.776,3.563-3.847,5.016-3.847,5.016-7.552-3.224-8.951-7.246-8.951-7.246,6.306-3.278,4.481-12.58,4.481-12.58l1.279.634,8.995,1.76s-2.492,4.787-2.82,5.88h0C471.065,3983.437,473.633,3984.235,473.633,3984.235Z" transform="translate(-380.402 -3941.052)" fill="#d9a171"/>
        <path id="Trazado_100988" data-name="Trazado 100988" d="M452.126,3953.4s-.689,8.743,7.65,12.558c0,0,3.574,9.126,8.831,9.246,7.181.175,13.5-10.022,11.017-20.416C476.378,3941.3,455.951,3940.208,452.126,3953.4Z" transform="translate(-375.453 -3943.409)" fill="#344154"/>
        <path id="Trazado_100989" data-name="Trazado 100989" d="M469.949,3962.063c0-1.366,1.093-3.672,3.279-3.355s3.432,5.76-1.989,6.973C470.419,3965.867,469.949,3964.938,469.949,3962.063Z" transform="translate(-389.866 -3942.051)" fill="#d9a171"/>
        <path id="Trazado_100990" data-name="Trazado 100990" d="M470.188,3944.122s-8.383-2.121-13.006,1.256c-5.465,3.935-7.465,8-1.093,14.317,0,0,14.066-4.557,18.743-3.6a50.117,50.117,0,0,1,8.022,2.328C483.871,3949.138,474.865,3942.22,470.188,3944.122Z" transform="translate(-378.225 -3943.465)" fill="#344154"/>
        <path id="Trazado_100991" data-name="Trazado 100991" d="M477.221,3949.206s-3.88,2.645-2.1,6.721,7.006,4.175,7.006,4.175" transform="translate(-402.045 -3942.931)" fill="none" stroke="#263238" stroke-linecap="round" stroke-linejoin="round" stroke-width="0.5"/>
        <path id="Trazado_100992" data-name="Trazado 100992" d="M449.565,3961.352s2.186,10.12-1.246,18.754c0,0,19.891,6.9,26.809,3.147s.579-16.328.284-23.585-3.443-17.978-13.968-15.574S449.565,3961.352,449.565,3961.352Z" transform="translate(-369.482 -3943.438)" fill="#344154"/>
        <path id="Trazado_100993" data-name="Trazado 100993" d="M474.364,4201.673a10.727,10.727,0,0,1,3.421-1.858h0s3.727-3.705,5.465-14.831l4.885-1.28a4.173,4.173,0,0,1,4.437,1.739,2.306,2.306,0,0,1,.306.645,28.43,28.43,0,0,1,.525,3.618,99.955,99.955,0,0,1,.066,12.219h-.874l-.35-7.65c-.131-2.612-2.186.448-2.7,3.279s-1.781,5.792-7.5,5.923C475.447,4203.564,472.681,4203.3,474.364,4201.673Z" transform="translate(-412.697 -3921.151)" fill="#344154"/>
        <path id="Trazado_100994" data-name="Trazado 100994" d="M484.681,4185.972c.317-2.6.415-7.126.415-7.126l-10.842,1.2s1.312,5.147.23,9.017C479.949,4187.622,484.681,4185.972,484.681,4185.972Z" transform="translate(-404.577 -3921.593)" fill="#344154"/>
        <path id="Trazado_100995" data-name="Trazado 100995" d="M434,4201.673a10.726,10.726,0,0,1,3.421-1.858h0s3.727-3.705,5.465-14.831l4.885-1.28a4.173,4.173,0,0,1,4.437,1.739,2.305,2.305,0,0,1,.306.645,28.424,28.424,0,0,1,.525,3.618,99.943,99.943,0,0,1,.066,12.219h-.874l-.35-7.65c-.131-2.612-2.186.448-2.7,3.279s-1.781,5.792-7.5,5.923C435.086,4203.564,432.321,4203.3,434,4201.673Z" transform="translate(-328.227 -3921.151)" fill="#344154"/>
        <path id="Trazado_100996" data-name="Trazado 100996" d="M444.311,4185.972c.328-2.6.426-7.126.426-7.126l-10.842,1.2s1.312,5.147.23,9.017C439.589,4187.622,444.311,4185.972,444.311,4185.972Z" transform="translate(-320.106 -3921.593)" fill="#344154"/>
        <path id="Trazado_100997" data-name="Trazado 100997" d="M500.5,3986.507s-6.918-2.71-13.115-4.372a104.825,104.825,0,0,0-14.711-2.558,97.823,97.823,0,0,0-14.1-.557c.131,2.273.229,4.372.317,6.426.12,2.656.208,5.115.262,7.4.109,4.284.1,7.956,0,11.213a109.43,109.43,0,0,1-2.568,21.116l-6.995,16.973,41.935,5.345-2.372-16.711h0c6.951-20.251,9.935-30.919,11.06-36.974C501.438,3987.042,500.5,3986.507,500.5,3986.507Z" transform="translate(-393.365 -3940.165)" fill="#344154"/>
        <path id="Trazado_100998" data-name="Trazado 100998" d="M500.5,3986.507s-6.918-2.71-13.115-4.372a104.825,104.825,0,0,0-14.711-2.558,97.823,97.823,0,0,0-14.1-.557c.131,2.273.229,4.372.317,6.426.12,2.656.208,5.115.262,7.4.109,4.284.1,7.956,0,11.213a109.43,109.43,0,0,1-2.568,21.116l-6.995,16.973,41.935,5.345-2.372-16.711h0c6.951-20.251,9.935-30.919,11.06-36.974C501.438,3987.042,500.5,3986.507,500.5,3986.507Z" transform="translate(-393.365 -3940.165)" fill="#fff" opacity="0.1" style="isolation: isolate"/>
        <path id="Trazado_100999" data-name="Trazado 100999" d="M547.323,4019.776l-9.508,2.831a19.23,19.23,0,0,0-3.464-.721c-1.006,0-9.651,3.279-10.809,4.372s5.465,6.918,5.825,7.2,9.312-3.279,9.738-3.454.579-1.519.579-1.519l10.525-2.667Z" transform="translate(-523.405 -3936.374)" fill="#d9a171"/>
        <path id="Trazado_101000" data-name="Trazado 101000" d="M533.023,3978.976c-5.235,3.454-18.394,36.2-20.121,37.061s-27.323,8.208-27.323,8.208l3.191,7.979s28.022-5,30.831-6.952,14-22.295,14-22.295a51.9,51.9,0,0,0,2.361-13.629A18.078,18.078,0,0,0,533.023,3978.976Z" transform="translate(-467.825 -3940.165)" fill="#344154"/>
      </g>
      <g id="freepik--Device--inject-257" transform="translate(218.912 234.978)">
        <rect id="Rectángulo_6565" data-name="Rectángulo 6565" width="7.782" height="41.465" transform="translate(34.034 118.101)" fill="#6595bf"/>
        <rect id="Rectángulo_6566" data-name="Rectángulo 6566" width="4.503" height="41.465" transform="translate(34.034 118.101)" fill="#6595bf"/>
        <rect id="Rectángulo_6567" data-name="Rectángulo 6567" width="4.503" height="41.465" transform="translate(34.034 118.101)" opacity="0.2" style="isolation: isolate"/>
        <path id="Trazado_101001" data-name="Trazado 101001" d="M631.485,4163.835v17.083l4.5-1.531,3.279-1.114v-14.437Z" transform="translate(-597.451 -4045.735)" opacity="0.2" style="isolation: isolate"/>
        <rect id="Rectángulo_6568" data-name="Rectángulo 6568" width="7.782" height="41.465" transform="translate(1.246 118.101)" fill="#6595bf"/>
        <rect id="Rectángulo_6569" data-name="Rectángulo 6569" width="7.782" height="41.465" transform="translate(101.795 118.101)" fill="#6595bf"/>
        <rect id="Rectángulo_6570" data-name="Rectángulo 6570" width="7.782" height="41.465" transform="translate(101.795 118.101)" opacity="0.2" style="isolation: isolate"/>
        <path id="Trazado_101002" data-name="Trazado 101002" d="M569.485,4145.855v61.117H575.3v-37.718h72.056v37.718h10.667v-37.718h17.585v37.718h3.454v-61.117Z" transform="translate(-569.485 -4047.405)" fill="#6595bf"/>
        <path id="Trazado_101003" data-name="Trazado 101003" d="M591.459,4146.672h1.935v-9.607h-3.869Z" transform="translate(-505.72 -4048.222)" fill="#344154"/>
        <path id="Trazado_101004" data-name="Trazado 101004" d="M593.065,4145.855v61.117h5.814v-37.718h72.057v37.718h5.934v-61.117Z" transform="translate(-593.065 -4047.405)" opacity="0.2" style="isolation: isolate"/>
        <path id="Trazado_101005" data-name="Trazado 101005" d="M590.127,4129.591h-.066l18.842-4.557a4.592,4.592,0,0,1,1.3-.208h42.438a4.688,4.688,0,0,1,4.678,4.262l.852,9.049a4.678,4.678,0,0,1-3.2,4.875h0l-.295.077-.361.088-18.394,4.492h0a4.657,4.657,0,0,1-1.18.164H592.368a4.7,4.7,0,0,1-4.678-4.263l-.852-9.049A4.7,4.7,0,0,1,590.127,4129.591Z" transform="translate(-567.558 -4049.359)" fill="#344154"/>
        <path id="Trazado_101006" data-name="Trazado 101006" d="M590.127,4129.591h-.066l18.842-4.557a4.592,4.592,0,0,1,1.3-.208h42.438a4.688,4.688,0,0,1,4.678,4.262l.852,9.049a4.678,4.678,0,0,1-3.2,4.875h0l-.295.077-.361.088-18.394,4.492h0a4.657,4.657,0,0,1-1.18.164H592.368a4.7,4.7,0,0,1-4.678-4.263l-.852-9.049A4.7,4.7,0,0,1,590.127,4129.591Z" transform="translate(-567.558 -4049.359)" fill="#fff" opacity="0.2" style="isolation: isolate"/>
        <path id="Trazado_101007" data-name="Trazado 101007" d="M609.5,4147.424h42.416a4.712,4.712,0,0,0,4.708-4.713c0-.141-.007-.282-.02-.423l-.852-9.049a4.7,4.7,0,0,0-4.678-4.262H608.635a4.711,4.711,0,0,0-4.708,4.713c0,.141.007.283.02.424l.853,9.05A4.7,4.7,0,0,0,609.5,4147.424Z" transform="translate(-584.689 -4048.973)" fill="#fff" opacity="0.1" style="isolation: isolate"/>
        <g id="Grupo_53896" data-name="Grupo 53896" transform="translate(23.067 85.332)" opacity="0.1">
          <path id="Trazado_101008" data-name="Trazado 101008" d="M627.667,4138.49a5.345,5.345,0,0,0,5.257,4.646,4.156,4.156,0,0,0,4.3-4,4.063,4.063,0,0,0-.027-.644,5.354,5.354,0,0,0-5.257-4.634,4.144,4.144,0,0,0-4.273,4.634Z" transform="translate(-614.274 -4133.853)" fill="#fff"/>
          <path id="Trazado_101009" data-name="Trazado 101009" d="M641.805,4139.912h6.918a.624.624,0,0,0,.649-.6.664.664,0,0,0,0-.1l-.208-1.967a.807.807,0,0,0-.8-.7H641.39a.623.623,0,0,0-.649.6.66.66,0,0,0,0,.1l.208,1.967A.809.809,0,0,0,641.805,4139.912Z" transform="translate(-640.741 -4133.603)" fill="#fff"/>
          <path id="Trazado_101010" data-name="Trazado 101010" d="M611.666,4143.417h2.459l-.251-2.382h-2.459Z" transform="translate(-573.442 -4133.186)" fill="#fff"/>
          <path id="Trazado_101011" data-name="Trazado 101011" d="M614.766,4143.417h2.448l-.251-2.382h-2.448Z" transform="translate(-579.919 -4133.186)" fill="#fff"/>
        </g>
        <path id="Trazado_101012" data-name="Trazado 101012" d="M527.1,4080.383a1.157,1.157,0,0,0,.71-.251l2.678-2.263a1.093,1.093,0,1,0-1.41-1.672l-2.678,2.262a1.093,1.093,0,0,0,.7,1.923Z" transform="translate(-373.797 -4053.902)" fill="#6595bf"/>
        <path id="Trazado_101013" data-name="Trazado 101013" d="M534.051,4091.359a1.157,1.157,0,0,0,.71-.251q4.372-3.683,8.743-7.333a1.093,1.093,0,0,0-1.279-1.773,1.125,1.125,0,0,0-.12.1q-4.372,3.65-8.743,7.333a1.093,1.093,0,0,0,.7,1.923Z" transform="translate(-394.485 -4053.358)" fill="#6595bf"/>
        <path id="Trazado_101014" data-name="Trazado 101014" d="M547.379,4099.595a1.093,1.093,0,0,0,.71-.263l5.191-4.372a1.1,1.1,0,1,0-1.421-1.672l-5.18,4.372a1.093,1.093,0,0,0-.132,1.539h0A1.1,1.1,0,0,0,547.379,4099.595Z" transform="translate(-418.742 -4052.314)" fill="#6595bf"/>
        <path id="Trazado_101015" data-name="Trazado 101015" d="M556.852,4118.9a1.1,1.1,0,0,0,.7-.252q9.126-7.651,18.186-15.432l.262-.229a1.092,1.092,0,0,0,.132-1.54h0a1.092,1.092,0,0,0-1.541-.12h0l-.273.229q-9.061,7.715-18.175,15.421a1.093,1.093,0,0,0,.71,1.924Z" transform="translate(-451.811 -4051.567)" fill="#6595bf"/>
        <path id="Trazado_101016" data-name="Trazado 101016" d="M579.033,4126.333a1.1,1.1,0,0,0,.7-.251l5.235-4.372a1.092,1.092,0,0,0,.132-1.54h0a1.092,1.092,0,0,0-1.53-.131l-5.235,4.371a1.092,1.092,0,0,0-.143,1.539v0A1.1,1.1,0,0,0,579.033,4126.333Z" transform="translate(-485.02 -4049.828)" fill="#6595bf"/>
        <path id="Trazado_101017" data-name="Trazado 101017" d="M569.578,4064.39a1.093,1.093,0,0,0,.995-.634l1.475-3.279a1.093,1.093,0,0,0-1.987-.911l0,0-1.475,3.279a1.092,1.092,0,0,0,.536,1.442A1,1,0,0,0,569.578,4064.39Z" transform="translate(-461.477 -4055.482)" fill="#6595bf"/>
        <path id="Trazado_101018" data-name="Trazado 101018" d="M574,4084.361a1.093,1.093,0,0,0,.995-.633c2.317-5.094,4.372-9.509,6.383-13.487a1.1,1.1,0,1,0-1.967-.973c-1.989,4.011-4.077,8.438-6.4,13.552a1.093,1.093,0,0,0,.546,1.442A1.111,1.111,0,0,0,574,4084.361Z" transform="translate(-475.66 -4054.579)" fill="#6595bf"/>
        <path id="Trazado_101019" data-name="Trazado 101019" d="M583.09,4095.861a1.094,1.094,0,0,0,1.005-.645c.8-1.825,1.6-3.64,2.4-5.465a1.093,1.093,0,0,0-2-.875q-1.213,2.722-2.4,5.465a1.092,1.092,0,0,0,.556,1.441h0A1.113,1.113,0,0,0,583.09,4095.861Z" transform="translate(-490.672 -4052.756)" fill="#6595bf"/>
        <path id="Trazado_101020" data-name="Trazado 101020" d="M587.738,4122.694a1.094,1.094,0,0,0,.984-.612c3.585-7.246,6.929-14.71,10-21.705a1.094,1.094,0,0,0-.556-1.443h0a1.092,1.092,0,0,0-1.442.557h0c-3.06,6.973-6.394,14.415-9.956,21.618a1.093,1.093,0,0,0,.973,1.585Z" transform="translate(-507.999 -4051.774)" fill="#6595bf"/>
        <path id="Trazado_101021" data-name="Trazado 101021" d="M608.958,4069.416a1.093,1.093,0,0,0,1.093-1.093v-11.454a1.093,1.093,0,0,0-2.186,0v11.464A1.094,1.094,0,0,0,608.958,4069.416Z" transform="translate(-542.421 -4055.776)" fill="#6595bf"/>
        <path id="Trazado_101022" data-name="Trazado 101022" d="M608.958,4080.939a1.093,1.093,0,0,0,1.093-1.093l.066-5.738a1.093,1.093,0,1,0-2.186,0l-.066,5.748a1.093,1.093,0,0,0,1.093,1.093Z" transform="translate(-542.486 -4054.174)" fill="#6595bf"/>
        <path id="Trazado_101023" data-name="Trazado 101023" d="M609.092,4109.753h0a1.093,1.093,0,0,0,1.093-1.093v-23.312a1.093,1.093,0,0,0-1.093-1.093h0a1.093,1.093,0,0,0-1.093,1.093c0,7.869-.055,15.716,0,23.333A1.094,1.094,0,0,0,609.092,4109.753Z" transform="translate(-542.675 -4053.129)" fill="#6595bf"/>
        <path id="Trazado_101024" data-name="Trazado 101024" d="M609.034,4121.428h0a1.093,1.093,0,0,0,1.093-1.093c0-2.262-.055-4.514-.076-6.776a1.093,1.093,0,0,0-2.186,0c0,2.263,0,4.514.077,6.776A1.093,1.093,0,0,0,609.034,4121.428Z" transform="translate(-542.497 -4050.508)" fill="#6595bf"/>
        <path id="Trazado_101025" data-name="Trazado 101025" d="M648.956,4079.585a1.2,1.2,0,0,0,.612-.165,1.092,1.092,0,0,0,.377-1.5l-.005-.008-3.279-5.4a1.093,1.093,0,1,0-1.869,1.093l3.279,5.41A1.1,1.1,0,0,0,648.956,4079.585Z" transform="translate(-622.573 -4054.284)" fill="#6595bf"/>
        <path id="Trazado_101026" data-name="Trazado 101026" d="M643.627,4103.22a1.093,1.093,0,0,0,.94-1.651c-3.126-5.311-7.29-12.284-11.716-19.071a1.092,1.092,0,0,0-1.83,1.194l0,.007c4.372,6.744,8.547,13.684,11.661,18.984A1.094,1.094,0,0,0,643.627,4103.22Z" transform="translate(-602.205 -4053.339)" fill="#6595bf"/>
        <path id="Trazado_101027" data-name="Trazado 101027" d="M628.861,4113.069a1.146,1.146,0,0,0,.557-.153,1.092,1.092,0,0,0,.383-1.5l-3.366-5.738a1.09,1.09,0,1,0-1.881,1.1v0l3.366,5.748A1.094,1.094,0,0,0,628.861,4113.069Z" transform="translate(-580.401 -4051.188)" fill="#6595bf"/>
        <path id="Trazado_101028" data-name="Trazado 101028" d="M622.211,4122.8a1.105,1.105,0,0,0,.568-.164,1.093,1.093,0,0,0,.365-1.5l0-.006q-1.356-2.187-2.689-4.372a1.093,1.093,0,0,0-1.88,1.092c.9,1.476,1.792,2.952,2.711,4.427A1.1,1.1,0,0,0,622.211,4122.8Z" transform="translate(-567.27 -4050.151)" fill="#6595bf"/>
        <g id="Grupo_53897" data-name="Grupo 53897" transform="translate(21.985)" opacity="0.7">
          <path id="Trazado_101029" data-name="Trazado 101029" d="M527.1,4080.383a1.157,1.157,0,0,0,.71-.251l2.678-2.263a1.093,1.093,0,1,0-1.41-1.672l-2.678,2.262a1.093,1.093,0,0,0,.7,1.923Z" transform="translate(-395.782 -4053.902)" fill="#e2dacc"/>
          <path id="Trazado_101030" data-name="Trazado 101030" d="M534.051,4091.359a1.157,1.157,0,0,0,.71-.251q4.372-3.683,8.743-7.333a1.093,1.093,0,0,0-1.279-1.773,1.125,1.125,0,0,0-.12.1q-4.372,3.65-8.743,7.333a1.093,1.093,0,0,0,.7,1.923Z" transform="translate(-416.47 -4053.358)" fill="#e2dacc"/>
          <path id="Trazado_101031" data-name="Trazado 101031" d="M547.379,4099.595a1.093,1.093,0,0,0,.71-.263l5.191-4.372a1.1,1.1,0,1,0-1.421-1.672l-5.18,4.372a1.093,1.093,0,0,0-.132,1.539h0A1.1,1.1,0,0,0,547.379,4099.595Z" transform="translate(-440.727 -4052.314)" fill="#e2dacc"/>
          <path id="Trazado_101032" data-name="Trazado 101032" d="M556.852,4118.9a1.1,1.1,0,0,0,.7-.252q9.126-7.651,18.186-15.432l.262-.229a1.092,1.092,0,0,0,.132-1.54h0a1.092,1.092,0,0,0-1.541-.12h0l-.273.229q-9.061,7.715-18.175,15.421a1.093,1.093,0,0,0,.71,1.924Z" transform="translate(-473.796 -4051.567)" fill="#e2dacc"/>
          <path id="Trazado_101033" data-name="Trazado 101033" d="M579.033,4126.333a1.1,1.1,0,0,0,.7-.251l5.235-4.372a1.092,1.092,0,0,0,.132-1.54h0a1.092,1.092,0,0,0-1.53-.131l-5.235,4.371a1.092,1.092,0,0,0-.143,1.539v0A1.1,1.1,0,0,0,579.033,4126.333Z" transform="translate(-507.005 -4049.828)" fill="#e2dacc"/>
          <path id="Trazado_101034" data-name="Trazado 101034" d="M569.578,4064.39a1.093,1.093,0,0,0,.995-.634l1.475-3.279a1.093,1.093,0,0,0-1.987-.911l0,0-1.475,3.279a1.092,1.092,0,0,0,.536,1.442A1,1,0,0,0,569.578,4064.39Z" transform="translate(-483.462 -4055.482)" fill="#e2dacc"/>
          <path id="Trazado_101035" data-name="Trazado 101035" d="M574,4084.361a1.093,1.093,0,0,0,.995-.633c2.317-5.094,4.372-9.509,6.383-13.487a1.1,1.1,0,1,0-1.967-.973c-1.989,4.011-4.077,8.438-6.4,13.552a1.093,1.093,0,0,0,.546,1.442A1.111,1.111,0,0,0,574,4084.361Z" transform="translate(-497.645 -4054.579)" fill="#e2dacc"/>
          <path id="Trazado_101036" data-name="Trazado 101036" d="M583.09,4095.861a1.094,1.094,0,0,0,1.005-.645c.8-1.825,1.6-3.64,2.4-5.465a1.093,1.093,0,0,0-2-.875q-1.213,2.722-2.4,5.465a1.092,1.092,0,0,0,.556,1.441h0A1.113,1.113,0,0,0,583.09,4095.861Z" transform="translate(-512.657 -4052.756)" fill="#e2dacc"/>
          <path id="Trazado_101037" data-name="Trazado 101037" d="M587.738,4122.694a1.094,1.094,0,0,0,.984-.612c3.585-7.246,6.929-14.71,10-21.705a1.094,1.094,0,0,0-.556-1.443h0a1.092,1.092,0,0,0-1.442.557h0c-3.06,6.973-6.394,14.415-9.956,21.618a1.093,1.093,0,0,0,.973,1.585Z" transform="translate(-529.984 -4051.774)" fill="#e2dacc"/>
          <path id="Trazado_101038" data-name="Trazado 101038" d="M608.958,4069.416a1.093,1.093,0,0,0,1.093-1.093v-11.454a1.093,1.093,0,0,0-2.186,0v11.464A1.094,1.094,0,0,0,608.958,4069.416Z" transform="translate(-564.405 -4055.776)" fill="#e2dacc"/>
          <path id="Trazado_101039" data-name="Trazado 101039" d="M608.958,4080.939a1.093,1.093,0,0,0,1.093-1.093l.066-5.738a1.093,1.093,0,1,0-2.186,0l-.066,5.748a1.093,1.093,0,0,0,1.093,1.093Z" transform="translate(-564.471 -4054.174)" fill="#e2dacc"/>
          <path id="Trazado_101040" data-name="Trazado 101040" d="M609.092,4109.753h0a1.093,1.093,0,0,0,1.093-1.093v-23.312a1.093,1.093,0,0,0-1.093-1.093h0a1.093,1.093,0,0,0-1.093,1.093c0,7.869-.055,15.716,0,23.333A1.094,1.094,0,0,0,609.092,4109.753Z" transform="translate(-564.66 -4053.129)" fill="#e2dacc"/>
          <path id="Trazado_101041" data-name="Trazado 101041" d="M609.034,4121.428h0a1.093,1.093,0,0,0,1.093-1.093c0-2.262-.055-4.514-.076-6.776a1.093,1.093,0,0,0-2.186,0c0,2.263,0,4.514.077,6.776A1.093,1.093,0,0,0,609.034,4121.428Z" transform="translate(-564.482 -4050.508)" fill="#e2dacc"/>
          <path id="Trazado_101042" data-name="Trazado 101042" d="M648.956,4079.585a1.2,1.2,0,0,0,.612-.165,1.092,1.092,0,0,0,.377-1.5l-.005-.008-3.279-5.4a1.093,1.093,0,1,0-1.869,1.093l3.279,5.41A1.1,1.1,0,0,0,648.956,4079.585Z" transform="translate(-644.558 -4054.284)" fill="#e2dacc"/>
          <path id="Trazado_101043" data-name="Trazado 101043" d="M643.627,4103.22a1.093,1.093,0,0,0,.94-1.651c-3.126-5.311-7.29-12.284-11.716-19.071a1.092,1.092,0,0,0-1.83,1.194l0,.007c4.372,6.744,8.547,13.684,11.661,18.984A1.094,1.094,0,0,0,643.627,4103.22Z" transform="translate(-624.19 -4053.339)" fill="#e2dacc"/>
          <path id="Trazado_101044" data-name="Trazado 101044" d="M628.861,4113.069a1.146,1.146,0,0,0,.557-.153,1.092,1.092,0,0,0,.383-1.5l-3.366-5.738a1.09,1.09,0,1,0-1.881,1.1v0l3.366,5.748A1.094,1.094,0,0,0,628.861,4113.069Z" transform="translate(-602.385 -4051.188)" fill="#e2dacc"/>
          <path id="Trazado_101045" data-name="Trazado 101045" d="M622.211,4122.8a1.105,1.105,0,0,0,.568-.164,1.093,1.093,0,0,0,.365-1.5l0-.006q-1.356-2.187-2.689-4.372a1.093,1.093,0,0,0-1.88,1.092c.9,1.476,1.792,2.952,2.711,4.427A1.1,1.1,0,0,0,622.211,4122.8Z" transform="translate(-589.255 -4050.151)" fill="#e2dacc"/>
        </g>
      </g>
      <text id="Próximo_año" data-name="Próximo 
año" transform="translate(249.03 43.646)" fill="#fff" font-size="12" font-family="Roboto-Bold, Roboto" font-weight="700"><tspan x="-22.682" y="13">Próximo </tspan><tspan x="-9.97" y="27.4">año</tspan></text>
    </g>
  </g>
</svg>
