<svg xmlns="http://www.w3.org/2000/svg" xmlns:xlink="http://www.w3.org/1999/xlink" width="118" height="118" viewBox="0 0 118 118">
  <defs>
    <filter id="Trazado_896985" x="0" y="0" width="118" height="118" filterUnits="userSpaceOnUse">
      <feOffset dy="3" input="SourceAlpha"/>
      <feGaussianBlur stdDeviation="3" result="blur"/>
      <feFlood flood-opacity="0.161"/>
      <feComposite operator="in" in2="blur"/>
      <feComposite in="SourceGraphic"/>
    </filter>
  </defs>
  <g id="Grupo_1177106" data-name="Grupo 1177106" transform="translate(-1056.051 -4407.329)">
    <g id="Grupo_1177096" data-name="Grupo 1177096" transform="translate(1065.051 4413.329)">
      <g id="Grupo_1111320" data-name="Grupo 1111320" transform="translate(0 0)">
        <g id="Grupo_1109828" data-name="Grupo 1109828">
          <g id="Grupo_1098742" data-name="Grupo 1098742">
            <g transform="matrix(1, 0, 0, 1, -9, -6)" filter="url(#Trazado_896985)">
              <g id="Trazado_896985-2" data-name="Trazado 896985" transform="translate(9 6)" fill="#5ab4f9" opacity="0.859">
                <path d="M 49.99993515014648 98.5 C 43.45182037353516 98.5 37.10037612915039 97.21788024902344 31.12203598022461 94.68925476074219 C 25.34687805175781 92.24656677246094 20.15993499755859 88.74932098388672 15.70530700683594 84.29469299316406 C 11.25067806243896 79.84006500244141 7.753435134887695 74.65312194824219 5.310749530792236 68.87796783447266 C 2.782120943069458 62.89962387084961 1.500006556510925 56.54818344116211 1.500006556510925 50.00006866455078 C 1.500006556510925 43.45180892944336 2.782120943069458 37.10036849975586 5.310749530792236 31.12202453613281 C 7.753435134887695 25.34686851501465 11.25067806243896 20.15992546081543 15.70530700683594 15.70529651641846 C 20.15993499755859 11.25066757202148 25.34687805175781 7.753424644470215 31.12203598022461 5.310739040374756 C 37.10037612915039 2.782110452651978 43.45182037353516 1.499996185302734 49.99993515014648 1.499996185302734 C 56.54804992675781 1.499996185302734 62.89949417114258 2.782110452651978 68.87783813476562 5.310739040374756 C 74.65299224853516 7.753424644470215 79.83993530273438 11.25066757202148 84.29457855224609 15.70529651641846 C 88.74920654296875 20.15992546081543 92.24643707275391 25.34686851501465 94.68911743164062 31.12202453613281 C 97.21775054931641 37.10036849975586 98.4998779296875 43.45180892944336 98.4998779296875 49.99992370605469 C 98.4998779296875 56.54818344116211 97.21775054931641 62.89962387084961 94.68911743164062 68.87796783447266 C 92.24643707275391 74.65312194824219 88.74920654296875 79.84006500244141 84.29457855224609 84.29469299316406 C 79.83993530273438 88.74932098388672 74.65299224853516 92.24656677246094 68.87783813476562 94.68925476074219 C 62.89949417114258 97.21788024902344 56.54804992675781 98.5 49.99993515014648 98.5 Z" stroke="none"/>
                <path d="M 49.99993515014648 2.999992370605469 C 43.65365982055664 2.999992370605469 37.49881362915039 4.242256164550781 31.70636749267578 6.6922607421875 C 26.10999298095703 9.059318542480469 21.08332061767578 12.44859313964844 16.76596832275391 16.76596832275391 C 12.44859313964844 21.08332061767578 9.059318542480469 26.10999298095703 6.6922607421875 31.70636749267578 C 4.242256164550781 37.49880981445312 3 43.65365600585938 3 50.00005722045898 C 3 56.34633636474609 4.242256164550781 62.50118255615234 6.6922607421875 68.29362487792969 C 9.059318542480469 73.88999938964844 12.44859313964844 78.91667175292969 16.76596832275391 83.23402404785156 C 21.08332061767578 87.55139923095703 26.10999298095703 90.940673828125 31.70636749267578 93.30773162841797 C 37.49881362915039 95.75773620605469 43.65365982055664 97 49.99993515014648 97 C 56.34621047973633 97 62.50105667114258 95.75773620605469 68.29350280761719 93.30773162841797 C 73.88987731933594 90.940673828125 78.91654968261719 87.55139923095703 83.23390197753906 83.23402404785156 C 87.55126953125 78.91667175292969 90.9405517578125 73.88999938964844 93.30760955810547 68.29362487792969 C 95.75761413574219 62.50118255615234 96.99987030029297 56.34633636474609 96.99987030029297 49.99993515014648 C 96.99987030029297 43.65365600585938 95.75761413574219 37.49880981445312 93.30760955810547 31.70636749267578 C 90.9405517578125 26.10999298095703 87.55126953125 21.08332061767578 83.23390197753906 16.76596832275391 C 78.91654968261719 12.44859313964844 73.88987731933594 9.059318542480469 68.29350280761719 6.6922607421875 C 62.50105667114258 4.242256164550781 56.34621047973633 2.999992370605469 49.99993515014648 2.999992370605469 M 49.99993515014648 -7.62939453125e-06 C 77.6141357421875 -7.62939453125e-06 99.99987030029297 22.38573455810547 99.99987030029297 49.99993515014648 L 99.99987030029297 50.00005722045898 C 99.99987030029297 77.6142578125 77.6141357421875 100 49.99993515014648 100 C 22.38573455810547 100 0 77.6142578125 0 50.00005722045898 L 0 49.99993515014648 C 0 22.38573455810547 22.38573455810547 -7.62939453125e-06 49.99993515014648 -7.62939453125e-06 Z" stroke="none" fill="#fff"/>
              </g>
            </g>
            <g id="Rectángulo_400907" data-name="Rectángulo 400907" transform="translate(0)" fill="none" stroke="#fff" stroke-width="3">
              <rect width="100" height="100" rx="50" stroke="none"/>
              <rect x="1.5" y="1.5" width="97" height="97" rx="48.5" fill="none"/>
            </g>
          </g>
        </g>
      </g>
    </g>
    <g id="chart_6140011" transform="translate(1085.508 4433.324)">
      <path id="Trazado_1032410" data-name="Trazado 1032410" d="M0,0H35.6V1.874H0Z" transform="matrix(0.768, -0.64, 0.64, 0.768, 20.829, 26.658)" fill="#e2e7f6"/>
      <path id="Trazado_1032411" data-name="Trazado 1032411" d="M2,56H58.211v5.621H2Z" transform="translate(-0.063 -3.478)" fill="#674025"/>
      <path id="Trazado_1032412" data-name="Trazado 1032412" d="M2,56v2.811H52.59a1.874,1.874,0,0,0,1.874-1.874V56Z" transform="translate(-0.063 -3.478)" fill="#976947"/>
      <path id="Trazado_1032413" data-name="Trazado 1032413" d="M18,54.99V40h9.368V54.99" transform="translate(-1.074 -2.467)" fill="#f4a93c"/>
      <path id="Trazado_1032414" data-name="Trazado 1032414" d="M23.621,49.368V40H18V52.179h2.811A2.811,2.811,0,0,0,23.621,49.368Z" transform="translate(-1.074 -2.467)" fill="#f6b940"/>
      <path id="Trazado_1032415" data-name="Trazado 1032415" d="M28,54.484V32h9.368V54.484" transform="translate(-1.705 -1.962)" fill="#f6b940"/>
      <path id="Trazado_1032416" data-name="Trazado 1032416" d="M33.621,49.8V32H28V51.674h3.747A1.874,1.874,0,0,0,33.621,49.8Z" transform="translate(-1.705 -1.962)" fill="#f9d266"/>
      <path id="Trazado_1032417" data-name="Trazado 1032417" d="M38,53.853V22h9.368V53.853" transform="translate(-2.337 -1.331)" fill="#f9d266"/>
      <path id="Trazado_1032418" data-name="Trazado 1032418" d="M43.621,49.169V22H38V51.042h3.747A1.874,1.874,0,0,0,43.621,49.169Z" transform="translate(-2.337 -1.331)" fill="#fce797"/>
      <path id="Trazado_1032419" data-name="Trazado 1032419" d="M48,53.348V14h9.368V53.348" transform="translate(-2.968 -0.825)" fill="#fce797"/>
      <path id="Trazado_1032420" data-name="Trazado 1032420" d="M53.621,48.663V14H48V50.537h3.747A1.874,1.874,0,0,0,53.621,48.663Z" transform="translate(-2.968 -0.825)" fill="#fff2c7"/>
      <path id="Trazado_1032431" data-name="Trazado 1032431" d="M10.305,0A10.305,10.305,0,1,1,0,10.305,10.305,10.305,0,0,1,10.305,0Z" transform="translate(1.937 1.932)" fill="#d3b108"/>
      <path id="Trazado_1032421" data-name="Trazado 1032421" d="M19.8,11.369a10.3,10.3,0,0,0-5.678-9.2A10.3,10.3,0,0,0,7.678,21.5,10.263,10.263,0,0,0,19.8,11.369Z" transform="translate(-0.063 -0.068)" fill="#fed401"/>
      <g id="Grupo_1177105" data-name="Grupo 1177105" transform="translate(6.894 6.617)">
        <path id="Trazado_1032422" data-name="Trazado 1032422" d="M0,0H13.249V1.874H0Z" transform="translate(0 9.642) rotate(-45)" fill="#e2e7f6"/>
        <circle id="Elipse_13118" data-name="Elipse 13118" cx="1.874" cy="1.874" r="1.874" transform="translate(0.664)" fill="#e2e7f6"/>
        <circle id="Elipse_13119" data-name="Elipse 13119" cx="1.874" cy="1.874" r="1.874" transform="translate(6.286 7.495)" fill="#e2e7f6"/>
      </g>
      <circle id="Elipse_13120" data-name="Elipse 13120" cx="1.874" cy="1.874" r="1.874" transform="translate(47.842 1.932)" fill="#559b2d"/>
      <circle id="Elipse_13121" data-name="Elipse 13121" cx="1.874" cy="1.874" r="1.874" transform="translate(18.8 26.291)" fill="#559b2d"/>
      <path id="Trazado_1032423" data-name="Trazado 1032423" d="M2,41.621,7.621,36l5.621,5.621H10.432V50.99H4.811V41.621Z" transform="translate(-0.063 -2.215)" fill="#6bc13b"/>
      <path id="Trazado_1032424" data-name="Trazado 1032424" d="M58.148,52.348H55.337V13.937A.937.937,0,0,0,54.4,13H45.032a.937.937,0,0,0-.937.937v6.558H35.663a.937.937,0,0,0-.937.937v8.432H26.295a.937.937,0,0,0-.937.937v6.558H16.926a.937.937,0,0,0-.937.937V52.348H1.937A.937.937,0,0,0,1,53.285v5.621a.937.937,0,0,0,.937.937H58.148a.937.937,0,0,0,.937-.937V53.285A.937.937,0,0,0,58.148,52.348ZM45.969,14.874h7.495V52.348H45.969ZM36.6,22.368H44.1V52.348H36.6Zm-9.368,9.368h7.495V52.348H27.232Zm-9.368,7.495h7.495V52.348H17.863ZM57.211,57.969H2.874V54.221H57.211Z" transform="translate(0 -0.762)"/>
      <path id="Trazado_1032425" data-name="Trazado 1032425" d="M12.242,23.484A11.242,11.242,0,1,0,1,12.242,11.242,11.242,0,0,0,12.242,23.484Zm0-20.611a9.368,9.368,0,1,1-9.368,9.368,9.368,9.368,0,0,1,9.368-9.368Z" transform="translate(0 -0.004)"/>
      <path id="Trazado_1032426" data-name="Trazado 1032426" d="M0,0H13.249V1.874H0Z" transform="translate(6.894 16.259) rotate(-45)"/>
      <path id="Trazado_1032427" data-name="Trazado 1032427" d="M9.811,11.621A2.811,2.811,0,1,0,7,8.811,2.811,2.811,0,0,0,9.811,11.621Zm0-3.747a.937.937,0,1,1-.937.937A.937.937,0,0,1,9.811,7.874Z" transform="translate(-0.379 -0.32)"/>
      <path id="Trazado_1032428" data-name="Trazado 1032428" d="M15.811,14a2.811,2.811,0,1,0,2.811,2.811A2.811,2.811,0,0,0,15.811,14Zm0,3.747a.937.937,0,1,1,.937-.937A.937.937,0,0,1,15.811,17.747Z" transform="translate(-0.758 -0.825)"/>
      <path id="Trazado_1032429" data-name="Trazado 1032429" d="M23.122,25.7a2.771,2.771,0,0,0-1.312-.342A2.811,2.811,0,1,0,24.4,27.072L49.426,6.214a2.776,2.776,0,0,0,1.427.4,2.843,2.843,0,1,0-2.623-1.84ZM21.811,29.1a.937.937,0,1,1,.937-.937A.937.937,0,0,1,21.811,29.1ZM50.853,2.869a.937.937,0,1,1-.937.937A.937.937,0,0,1,50.853,2.869Z" transform="translate(-1.137 0)"/>
      <path id="Trazado_1032430" data-name="Trazado 1032430" d="M4.747,51.863h5.621a.937.937,0,0,0,.937-.937V42.495h1.874a.937.937,0,0,0,.662-1.6L8.22,35.275a.937.937,0,0,0-1.325,0L1.275,40.9a.937.937,0,0,0,.662,1.6H3.811v8.432A.937.937,0,0,0,4.747,51.863Zm2.811-14.6,3.36,3.36h-.549a.937.937,0,0,0-.937.937V49.99H5.684V41.558a.937.937,0,0,0-.937-.937H4.2Z" transform="translate(0 -2.152)"/>
    </g>
  </g>
</svg>
