<svg xmlns="http://www.w3.org/2000/svg" xmlns:xlink="http://www.w3.org/1999/xlink" width="173.5" height="173.5" viewBox="0 0 173.5 173.5">
  <defs>
    <filter id="Trazado_896985" x="0" y="0" width="173.5" height="173.5" filterUnits="userSpaceOnUse">
      <feOffset dy="3" input="SourceAlpha"/>
      <feGaussianBlur stdDeviation="3" result="blur"/>
      <feFlood flood-opacity="0.161"/>
      <feComposite operator="in" in2="blur"/>
      <feComposite in="SourceGraphic"/>
    </filter>
  </defs>
  <g id="Grupo_1176991" data-name="Grupo 1176991" transform="translate(-1198.07 -11004.047)">
    <g id="Grupo_1176845" data-name="Grupo 1176845" transform="translate(927.019 6441.047)">
      <g id="Grupo_1111318" data-name="Grupo 1111318" transform="translate(280.051 4569)">
        <g id="Grupo_1109826" data-name="Grupo 1109826" transform="translate(0 0)">
          <g id="Grupo_1098742" data-name="Grupo 1098742">
            <g transform="matrix(1, 0, 0, 1, -9, -6)" filter="url(#Trazado_896985)">
              <g id="Trazado_896985-2" data-name="Trazado 896985" transform="translate(9 6)" fill="#fd9826" opacity="0.859">
                <path d="M 77.74990081787109 154 C 67.45556640625 154 57.46996307373047 151.9841613769531 48.07046508789062 148.0085144042969 C 43.55267333984375 146.0976715087891 39.19512939453125 143.7324523925781 35.11890029907227 140.9786071777344 C 31.08102607727051 138.2506713867188 27.28392219543457 135.1177673339844 23.83308792114258 131.6669311523438 C 20.38225555419922 128.2161102294922 17.24933815002441 124.4189987182617 14.52140045166016 120.381103515625 C 11.76754665374756 116.3048782348633 9.402359008789062 111.9473571777344 7.49148416519165 107.4295654296875 C 3.515838384628296 98.03004455566406 1.500005006790161 88.04444122314453 1.500005006790161 77.75010681152344 C 1.500005006790161 67.45555877685547 3.515838384628296 57.4699592590332 7.49148416519165 48.07045745849609 C 9.402359008789062 43.55266571044922 11.76754665374756 39.19512557983398 14.52140045166016 35.118896484375 C 17.24933815002441 31.08102035522461 20.38225555419922 27.28391647338867 23.83308792114258 23.83308410644531 C 27.28392219543457 20.38224983215332 31.08102607727051 17.24933242797852 35.11890029907227 14.52139568328857 C 39.19512939453125 11.76754188537598 43.55267333984375 9.40235424041748 48.07046508789062 7.491479396820068 C 57.46996307373047 3.515833377838135 67.45556640625 1.5 77.74990081787109 1.5 C 88.04423522949219 1.5 98.02983856201172 3.515833377838135 107.4293365478516 7.491479396820068 C 111.9471282958984 9.40235424041748 116.3046722412109 11.76754188537598 120.3808975219727 14.52139568328857 C 124.4187774658203 17.24933242797852 128.2158813476562 20.38224983215332 131.6667175292969 23.83308410644531 C 135.1175537109375 27.28391647338867 138.2504577636719 31.08102035522461 140.9783935546875 35.118896484375 C 143.7322540283203 39.19512557983398 146.0974426269531 43.55266571044922 148.0083160400391 48.07045745849609 C 151.9839630126953 57.4699592590332 153.9998016357422 67.45555877685547 153.9998016357422 77.74989318847656 C 153.9998016357422 88.04444122314453 151.9839630126953 98.03004455566406 148.0083160400391 107.4295654296875 C 146.0974426269531 111.9473571777344 143.7322540283203 116.3048782348633 140.9783935546875 120.381103515625 C 138.2504577636719 124.4189987182617 135.1175537109375 128.2161102294922 131.6667175292969 131.6669311523438 C 128.2158813476562 135.1177673339844 124.4187774658203 138.2506713867188 120.3808975219727 140.9786071777344 C 116.3046722412109 143.7324523925781 111.9471282958984 146.0976715087891 107.4293365478516 148.0085144042969 C 98.02983856201172 151.9841613769531 88.04423522949219 154 77.74990081787109 154 Z" stroke="none"/>
                <path d="M 77.74990081787109 3 C 67.65740203857422 3 57.86840057373047 4.9759521484375 48.65479278564453 8.87298583984375 C 44.22618103027344 10.74612426757812 39.95457458496094 13.064697265625 35.95859527587891 15.76432800292969 C 31.99983215332031 18.43882751464844 28.27707672119141 21.51040649414062 24.89372253417969 24.89373779296875 C 21.51040649414062 28.27706146240234 18.43881225585938 31.99982452392578 15.76431274414062 35.95861053466797 C 13.06471252441406 39.95456695556641 10.74612426757812 44.2261962890625 8.872970581054688 48.65478515625 C 4.975936889648438 57.86839294433594 2.999984741210938 67.65739440917969 2.999984741210938 77.75010681152344 C 2.999984741210938 87.84260559082031 4.975936889648438 97.63160705566406 8.872970581054688 106.84521484375 C 10.74612426757812 111.2738037109375 13.06471252441406 115.5454330444336 15.76431274414062 119.541389465332 C 18.43881225585938 123.5001754760742 21.51040649414062 127.2229309082031 24.89372253417969 130.6062622070312 C 28.27707672119141 133.9895935058594 31.99983215332031 137.0611724853516 35.95859527587891 139.7356719970703 C 39.95457458496094 142.435302734375 44.22618103027344 144.7538757324219 48.65479278564453 146.6270141601562 C 57.86840057373047 150.5240478515625 67.65740203857422 152.5 77.74990081787109 152.5 C 87.84239959716797 152.5 97.63140106201172 150.5240478515625 106.8450088500977 146.6270141601562 C 111.2736206054688 144.7538757324219 115.5452270507812 142.435302734375 119.5411834716797 139.7356719970703 C 123.4999694824219 137.0611724853516 127.2227249145508 133.9895935058594 130.6060485839844 130.6062622070312 C 133.9893798828125 127.2229309082031 137.0609741210938 123.5001754760742 139.7354736328125 119.541389465332 C 142.4350891113281 115.5454330444336 144.753662109375 111.2738265991211 146.6268157958984 106.84521484375 C 150.5238342285156 97.63160705566406 152.4997863769531 87.84260559082031 152.4997863769531 77.74989318847656 C 152.4997863769531 67.65739440917969 150.5238342285156 57.86839294433594 146.6268157958984 48.65478515625 C 144.753662109375 44.22617340087891 142.4350891113281 39.95456695556641 139.7354736328125 35.95861053466797 C 137.0609741210938 31.99982452392578 133.9893798828125 28.27706146240234 130.6060485839844 24.89373779296875 C 127.2227249145508 21.51040649414062 123.4999694824219 18.43882751464844 119.5411834716797 15.76432800292969 C 115.5452270507812 13.064697265625 111.2736206054688 10.74612426757812 106.8450088500977 8.87298583984375 C 97.63140106201172 4.9759521484375 87.84239959716797 3 77.74990081787109 3 M 77.74990081787109 0 C 120.6899871826172 0 155.4997863769531 34.80980682373047 155.4997863769531 77.74989318847656 L 155.4997863769531 77.75010681152344 C 155.4997863769531 120.6902008056641 120.6899871826172 155.5 77.74990081787109 155.5 C 34.809814453125 155.5 -1.52587890625e-05 120.6902008056641 -1.52587890625e-05 77.75010681152344 L -1.52587890625e-05 77.74989318847656 C -1.52587890625e-05 34.80980682373047 34.809814453125 0 77.74990081787109 0 Z" stroke="none" fill="#fff"/>
              </g>
            </g>
          </g>
        </g>
      </g>
    </g>
    <g id="market-analysis_3045742" transform="translate(1239.311 11044.278)">
      <g id="Grupo_1176989" data-name="Grupo 1176989" transform="translate(2.436 2.565)">
        <g id="Grupo_1176973" data-name="Grupo 1176973" transform="translate(0.129 0)">
          <path id="Trazado_1032236" data-name="Trazado 1032236" d="M21.459,4.359A31.564,31.564,0,0,0,2.09,30.677h8.687a22.6,22.6,0,0,1,1.565-5.915,23.08,23.08,0,0,1,12.42-12.42,22.6,22.6,0,0,1,5.915-1.565V2.09A31.674,31.674,0,0,0,21.459,4.359Z" transform="translate(-2.09 -2.09)" fill="#fcd770"/>
        </g>
        <g id="Grupo_1176974" data-name="Grupo 1176974" transform="translate(34.459 0)">
          <path id="Trazado_1032237" data-name="Trazado 1032237" d="M48.93,15.342A31.408,31.408,0,0,0,35.2,4.373,30.817,30.817,0,0,0,26,2.09v8.687a22.6,22.6,0,0,1,5.915,1.565,22.925,22.925,0,0,1,10.223,8.342l.014.014a19.849,19.849,0,0,1,6.806-5.3v-.014Z" transform="translate(-26 -2.09)" fill="#ff826e"/>
        </g>
        <g id="Grupo_1176975" data-name="Grupo 1176975" transform="translate(0.129 34.33)">
          <path id="Trazado_1032238" data-name="Trazado 1032238" d="M17.324,39.353a22.88,22.88,0,0,1-4.982-7.437A22.6,22.6,0,0,1,10.777,26H2.09a31.919,31.919,0,0,0,2.283,9.218,31.427,31.427,0,0,0,6.849,10.237c.474.488.976.962,1.493,1.421h.014L29.944,48.1l.732.057V45.9a22.8,22.8,0,0,1-13.353-6.547Z" transform="translate(-2.09 -26)" fill="#e6e9ed"/>
        </g>
        <g id="Grupo_1176976" data-name="Grupo 1176976" transform="translate(0 54.431)">
          <path id="Trazado_1032239" data-name="Trazado 1032239" d="M12.768,40.775,29.984,42a11.493,11.493,0,0,0,0,18.981L2,62.973V40l10.754.775Z" transform="translate(-2 -40)" fill="#b4dd7f"/>
        </g>
        <g id="Grupo_1176977" data-name="Grupo 1176977" transform="translate(22.973 56.427)">
          <path id="Trazado_1032240" data-name="Trazado 1032240" d="M35.23,42.266V59.5l-12.219.876a11.493,11.493,0,0,1,0-18.981l.732.057Z" transform="translate(-18 -41.39)" fill="#a0d468"/>
        </g>
        <g id="Grupo_1176978" data-name="Grupo 1176978" transform="translate(28.716 63.046)">
          <circle id="Elipse_13113" data-name="Elipse 13113" cx="2.872" cy="2.872" r="2.872" fill="#e6e9ed"/>
        </g>
        <g id="Grupo_1176979" data-name="Grupo 1176979" transform="translate(66.047 74.532)">
          <path id="Trazado_1032241" data-name="Trazado 1032241" d="M56.615,54a2.88,2.88,0,0,1,2.872,2.872,2.893,2.893,0,0,1-2.872,2.872H50.872A2.88,2.88,0,0,1,48,56.872,2.892,2.892,0,0,1,50.872,54Z" transform="translate(-48 -54)" fill="#f0d0b4"/>
        </g>
        <g id="Grupo_1176980" data-name="Grupo 1176980" transform="translate(71.79 57.303)">
          <path id="Trazado_1032242" data-name="Trazado 1032242" d="M57.743,42a2.88,2.88,0,0,1,2.872,2.872,2.893,2.893,0,0,1-2.872,2.872H52V42Z" transform="translate(-52 -42)" fill="#f0d0b4"/>
        </g>
        <g id="Grupo_1176981" data-name="Grupo 1176981" transform="translate(66.047 63.046)">
          <path id="Trazado_1032243" data-name="Trazado 1032243" d="M56.615,46a2.88,2.88,0,0,1,2.872,2.872,2.892,2.892,0,0,1-2.872,2.872H50.872A2.88,2.88,0,0,1,48,48.872,2.892,2.892,0,0,1,50.872,46h5.743Z" transform="translate(-48 -46)" fill="#f0d0b4"/>
        </g>
        <g id="Grupo_1176982" data-name="Grupo 1176982" transform="translate(66.047 68.789)">
          <path id="Trazado_1032244" data-name="Trazado 1032244" d="M56.615,50a2.88,2.88,0,0,1,2.872,2.872,2.893,2.893,0,0,1-2.872,2.872H50.872A2.88,2.88,0,0,1,48,52.872,2.892,2.892,0,0,1,50.872,50Z" transform="translate(-48 -50)" fill="#f0d0b4"/>
        </g>
        <g id="Grupo_1176983" data-name="Grupo 1176983" transform="translate(40.202 51.559)">
          <path id="Trazado_1032245" data-name="Trazado 1032245" d="M50.1,43.743V66.716H40.194a8.581,8.581,0,0,1-5.37-1.881L30,60.973V43.743l4.824-3.862A8.581,8.581,0,0,1,40.194,38H54.409a1.44,1.44,0,0,1,1.436,1.436,4.314,4.314,0,0,1-4.307,4.307Z" transform="translate(-30 -38)" fill="#f0d0b4"/>
        </g>
        <g id="Grupo_1176984" data-name="Grupo 1176984" transform="translate(60.303 50.727)">
          <path id="Trazado_1032246" data-name="Trazado 1032246" d="M49.743,38.253a19.91,19.91,0,0,0,5.743-.833V49.739H52.615a2.892,2.892,0,0,0-2.872,2.872,2.88,2.88,0,0,0,2.872,2.872,2.892,2.892,0,0,0-2.872,2.872,2.88,2.88,0,0,0,2.872,2.872A2.892,2.892,0,0,0,49.743,64.1a2.88,2.88,0,0,0,2.872,2.872h2.872V69.84a2.88,2.88,0,0,1-2.872,2.872H46.872A2.88,2.88,0,0,1,44,69.84V44h1.436a4.314,4.314,0,0,0,4.307-4.307,1.44,1.44,0,0,0-1.436-1.436V38.2C48.781,38.238,49.255,38.253,49.743,38.253Z" transform="translate(-44 -37.42)" fill="#969faa"/>
        </g>
        <g id="Grupo_1176985" data-name="Grupo 1176985" transform="translate(45.945 11.357)">
          <path id="Trazado_1032247" data-name="Trazado 1032247" d="M59.844,49.369A19.91,19.91,0,0,1,54.1,50.2c-.488,0-.962-.014-1.436-.057a20.076,20.076,0,0,1-14-32.894,19.849,19.849,0,0,1,6.806-5.3v-.014A20.1,20.1,0,1,1,59.844,49.355Z" transform="translate(-34 -10)" fill="#ffc729"/>
        </g>
        <g id="Grupo_1176986" data-name="Grupo 1176986" transform="translate(51.689 17.1)">
          <circle id="Elipse_13114" data-name="Elipse 13114" cx="14.358" cy="14.358" r="14.358" fill="#fcd770"/>
        </g>
        <g id="Grupo_1176987" data-name="Grupo 1176987" transform="translate(33.023 22.843)">
          <path id="Trazado_1032248" data-name="Trazado 1032248" d="M25,18h5.743V38.1H25Z" transform="translate(-25 -18)" fill="#ff826e"/>
        </g>
        <g id="Grupo_1176988" data-name="Grupo 1176988" transform="translate(21.537 28.587)">
          <path id="Trazado_1032249" data-name="Trazado 1032249" d="M17,22h5.743V36.358H17Z" transform="translate(-17 -22)" fill="#ff826e"/>
        </g>
      </g>
      <g id="Grupo_1176990" data-name="Grupo 1176990" transform="translate(1 1.001)">
        <path id="Trazado_1032250" data-name="Trazado 1032250" d="M79.969,58.431H75.661V54.3A21.521,21.521,0,1,0,60.337,14.1,32.938,32.938,0,0,0,37.024,1.142L35.459,1V12.518l1.258.157a21.485,21.485,0,0,1,14.527,8.493,21.448,21.448,0,0,0,6.54,31.521H52.839a10.1,10.1,0,0,0-6.279,2.2L42.179,58.4l-9.591-.685V55.53l-1.258-.157A21.469,21.469,0,0,1,12.673,36.718l-.157-1.259H1l.141,1.565A32.789,32.789,0,0,0,9.467,56.058L1,55.453V81.51l41.179-2.942,4.382,3.506a10.1,10.1,0,0,0,6.277,2.2H61.3v1.436a4.313,4.313,0,0,0,4.307,4.307h5.743a4.313,4.313,0,0,0,4.307-4.307V84.276H77.1A4.289,4.289,0,0,0,80.285,77.1a4.241,4.241,0,0,0,0-5.743,4.235,4.235,0,0,0,.8-4.474,4.3,4.3,0,0,0-1.12-8.448ZM78.533,68.482A1.437,1.437,0,0,1,77.1,69.918H71.354a1.436,1.436,0,0,1,0-2.872H77.1A1.437,1.437,0,0,1,78.533,68.482Zm0,5.743A1.437,1.437,0,0,1,77.1,75.661H71.354a1.436,1.436,0,0,1,0-2.872H77.1A1.437,1.437,0,0,1,78.533,74.225ZM38.331,4.184A30.076,30.076,0,0,1,44.222,5.65L42,11a24.388,24.388,0,0,0-3.673-.989ZM44.66,12.1l2.213-5.341a30.125,30.125,0,0,1,10.819,8.658,21.64,21.64,0,0,0-4.543,3.511A24.392,24.392,0,0,0,44.66,12.1Zm5.157,21.926A18.665,18.665,0,1,1,68.482,52.688,18.687,18.687,0,0,1,49.817,34.023ZM26.755,57.293l-12.941-.925-.055-.052,4.06-4.06A24.269,24.269,0,0,0,26.755,57.293ZM6.768,46.867l5.317-2.2a24.341,24.341,0,0,0,3.706,5.561l-4.059,4.059a29.935,29.935,0,0,1-4.964-7.417Zm3.246-8.537a24.422,24.422,0,0,0,.959,3.687l-5.307,2.2A30.056,30.056,0,0,1,4.183,38.33ZM3.872,58.538,27.009,60.19a12.839,12.839,0,0,0,0,16.583L3.872,78.426ZM41.2,75.76,30.866,76.5a10,10,0,0,1,0-16.032L41.2,61.2ZM52.838,81.4a7.209,7.209,0,0,1-4.485-1.574l-4.279-3.424V60.558l4.28-3.424a7.205,7.205,0,0,1,4.484-1.574H67.047a2.874,2.874,0,0,1-2.872,2.872H56.4l-2.205,2.2a7.131,7.131,0,0,1-5.076,2.1H46.945V65.61h2.175a9.984,9.984,0,0,0,7.107-2.945L57.59,61.3H61.3V81.4ZM72.79,85.711a1.437,1.437,0,0,1-1.436,1.436H65.611a1.437,1.437,0,0,1-1.436-1.436V61.3a5.749,5.749,0,0,0,5.743-5.743c0-.024-.007-.047-.007-.072a21.576,21.576,0,0,0,2.879-.362v9.048H71.354a4.289,4.289,0,0,0-3.187,7.179,4.241,4.241,0,0,0,0,5.743,4.289,4.289,0,0,0,3.187,7.179H72.79ZM77.1,81.4H71.354a1.436,1.436,0,0,1,0-2.872H77.1a1.436,1.436,0,0,1,0,2.872Zm2.872-17.23H75.661V61.3h4.307a1.436,1.436,0,1,1,0,2.872Z" transform="translate(-1 -1.001)"/>
        <path id="Trazado_1032251" data-name="Trazado 1032251" d="M68.587,28.794A15.794,15.794,0,1,0,52.794,44.587,15.812,15.812,0,0,0,68.587,28.794Zm-28.716,0A12.922,12.922,0,1,1,52.794,41.716,12.937,12.937,0,0,1,39.872,28.794Z" transform="translate(14.689 4.228)"/>
        <path id="Trazado_1032252" data-name="Trazado 1032252" d="M51.179,37.1V34.23a4.307,4.307,0,0,0,0-8.615H48.307a1.436,1.436,0,0,1,0-2.872h2.872a1.437,1.437,0,0,1,1.436,1.436h2.872a4.313,4.313,0,0,0-4.307-4.307V17H48.307v2.872a4.307,4.307,0,0,0,0,8.615h2.872a1.436,1.436,0,0,1,0,2.872H48.307a1.437,1.437,0,0,1-1.436-1.436H44a4.313,4.313,0,0,0,4.307,4.307V37.1Z" transform="translate(17.739 5.971)"/>
        <path id="Trazado_1032253" data-name="Trazado 1032253" d="M21,49.307A4.307,4.307,0,1,0,25.307,45,4.313,4.313,0,0,0,21,49.307Zm4.307-1.436a1.436,1.436,0,1,1-1.436,1.436A1.437,1.437,0,0,1,25.307,47.872Z" transform="translate(7.716 18.174)"/>
        <path id="Trazado_1032254" data-name="Trazado 1032254" d="M12.673,31.329A21.468,21.468,0,0,1,31.33,12.674l1.258-.158V1l-1.565.141a32.959,32.959,0,0,0-29.88,29.88L1,32.587H12.517ZM17.82,15.79l-4.07-4.072a30.1,30.1,0,0,1,7.426-4.961l2.205,5.325A24.33,24.33,0,0,0,17.82,15.79Zm11.9-5.775a24.356,24.356,0,0,0-3.686.958l-2.2-5.31a30.03,30.03,0,0,1,5.884-1.479Zm-18,3.733,4.07,4.072a24.278,24.278,0,0,0-3.706,5.561L6.759,21.175a30.043,30.043,0,0,1,4.961-7.427ZM4.183,29.715a30.174,30.174,0,0,1,1.48-5.885l5.308,2.2a24.59,24.59,0,0,0-.958,3.687Z" transform="translate(-1 -1.001)"/>
        <path id="Trazado_1032255" data-name="Trazado 1032255" d="M28.358,17V37.1H25.486V22.743H16.872V37.1H14v2.872H39.844V37.1H36.973V17Zm2.872,2.872H34.1V37.1H31.23ZM19.743,25.615h2.872V37.1H19.743Z" transform="translate(4.665 5.971)"/>
      </g>
    </g>
  </g>
</svg>
