<svg xmlns="http://www.w3.org/2000/svg" width="298.029" height="334.265" viewBox="0 0 298.029 334.265">
  <g id="Grupo_1176841" data-name="Grupo 1176841" transform="translate(9263.029 406.869)">
    <rect id="Rectángulo_404581" data-name="Rectángulo 404581" width="183.505" height="334.265" rx="12" transform="translate(-9175.141 -406.869)" fill="#fed6a8"/>
    <g id="Grupo_1176810" data-name="Grupo 1176810" transform="translate(-10097.456 -4218.146)">
      <g id="Grupo_53907" data-name="Grupo 53907" transform="translate(895.867 3833.957)">
        <path id="Rectángulo_6579" data-name="Rectángulo 6579" d="M2.746,0H41.784a2.746,2.746,0,0,1,2.746,2.746V41.784a2.747,2.747,0,0,1-2.747,2.747H2.747A2.747,2.747,0,0,1,0,41.784V2.746A2.746,2.746,0,0,1,2.746,0Z" fill="#f0f0f0"/>
        <path id="Trazado_101127" data-name="Trazado 101127" d="M959.282,3849.333h-.054a8.866,8.866,0,0,0-2.732.215,7.7,7.7,0,0,0,2.447.212c-.139.144-.336.356-.589.633l-2.165,2.429-7.126,8.2-3.009-2.011-1.557-1.037-.159-.106-.123.145c-3.182,3.721-6,7.043-8.005,9.445l-2.353,2.847a8.494,8.494,0,0,0-.815,1.073,8.553,8.553,0,0,0,.935-.97l2.453-2.761c2.039-2.321,4.847-5.557,7.986-9.211l1.4.934,3.168,2.106.157.1.12-.143L956.4,3853l2.068-2.511c.266-.329.454-.568.572-.728h.031a7.758,7.758,0,0,0,.213,2.464,8.629,8.629,0,0,0,.215-2.678v-.215Z" transform="translate(-924.004 -3838.344)" fill="#e1e1e1"/>
      </g>
      <g id="Grupo_53908" data-name="Grupo 53908" transform="translate(1022.181 3836.584)">
        <path id="Trazado_101128" data-name="Trazado 101128" d="M1118.926,3866.85h21.784a21.784,21.784,0,1,1-22.288-21.778Z" transform="translate(-1097.141 -3839.755)" fill="#f0f0f0"/>
        <path id="Trazado_101129" data-name="Trazado 101129" d="M1135.642,3859.417l-.492-21.784a22.975,22.975,0,0,1,15.684,6.172,22.392,22.392,0,0,1,6.584,15.274Z" transform="translate(-1107.986 -3837.633)" fill="#ececec"/>
      </g>
      <g id="Grupo_53910" data-name="Grupo 53910" transform="translate(1052.799 3952.11)">
        <path id="Trazado_101130" data-name="Trazado 101130" d="M1140.02,4000.521c-.125,4,.105,16.206.105,16.206l3.6-3.6h20.09a1.277,1.277,0,0,0,1.277-1.276v-11.291a1.276,1.276,0,0,0-1.277-1.276H1141.3A1.278,1.278,0,0,0,1140.02,4000.521Z" transform="translate(-1139.983 -3999.282)" fill="#ececec"/>
        <g id="Grupo_53909" data-name="Grupo 53909" transform="translate(8.425 6)">
          <path id="Trazado_101131" data-name="Trazado 101131" d="M1153.663,4008.623a.946.946,0,1,1-.946-.946A.946.946,0,0,1,1153.663,4008.623Z" transform="translate(-1151.772 -4007.677)" fill="#e1e1e1"/>
          <path id="Trazado_101132" data-name="Trazado 101132" d="M1158.119,4008.623a.945.945,0,1,1-.945-.946A.945.945,0,0,1,1158.119,4008.623Z" transform="translate(-1153.043 -4007.677)" fill="#e1e1e1"/>
          <path id="Trazado_101133" data-name="Trazado 101133" d="M1162.575,4008.623a.945.945,0,1,1-.946-.946A.945.945,0,0,1,1162.575,4008.623Z" transform="translate(-1154.315 -4007.677)" fill="#e1e1e1"/>
        </g>
      </g>
      <path id="Trazado_101134" data-name="Trazado 101134" d="M910.816,4056.151c.533-6.958,5.655-17.722,11.939-20.759a20.456,20.456,0,0,1,19.947,1.435c3.941,2.661,6.927,6.711,11.24,8.714,8.526,3.958,18.639-1.649,24.595-8.923s9.687-16.3,16.421-22.857a34.026,34.026,0,0,1,48.663,1.216c4.582,4.931,7.586,11.08,11.263,16.718s8.407,11.05,14.8,13.159c8.787,2.9,18.7-1.358,24.92-8.209s9.444-15.849,12.136-24.7,5.068-17.969,10.016-25.787,13.09-14.287,22.339-14.534v84.26Z" transform="translate(-21.796 -39.28)" fill="#f0f0f0"/>
      <g id="Grupo_53911" data-name="Grupo 53911" transform="translate(834.427 4122.489)">
        <path id="Trazado_101135" data-name="Trazado 101135" d="M1132.456,4237.869c0,.1-66.722.187-149.007.187-82.315,0-149.022-.084-149.022-.187s66.707-.186,149.022-.186C1065.734,4237.683,1132.456,4237.767,1132.456,4237.869Z" transform="translate(-834.427 -4237.683)" fill="#344154"/>
      </g>
      <g id="Grupo_53917" data-name="Grupo 53917" transform="translate(1041.089 3892.086)">
        <g id="Grupo_53912" data-name="Grupo 53912">
          <path id="Trazado_101136" data-name="Trazado 101136" d="M1158.392,3966.149a2.609,2.609,0,0,0,.429-.085,1.415,1.415,0,0,0,.875-.86,2.514,2.514,0,0,0,.079-.931q0-.528-.009-1.152c-.005-.834-.011-1.8-.017-2.875-.014-4.339-.034-10.6-.059-18.319-.007-3.869-.014-8.1-.023-12.65q0-3.411-.009-7.048,0-1.817,0-3.685c-.01-.61.018-1.28-.022-1.851a1.259,1.259,0,0,0-1.157-1.039l-33.257.011a1.248,1.248,0,0,0-1.246,1.207q0,1.1,0,2.188,0,2.185,0,4.342,0,4.31,0,8.488c0,5.565-.008,10.933-.011,16.047s-.011,9.972-.017,14.52q0,.853,0,1.691a6.382,6.382,0,0,0,.021.806,1.281,1.281,0,0,0,.958,1.011,3.726,3.726,0,0,0,.774.038l1.6,0,6.071.012,18.318.059,4.981.035,1.3.019c.292.006.441.019.441.019s-.149.012-.441.019l-1.3.018-4.981.035-18.318.06-6.071.012-1.6,0a3.9,3.9,0,0,1-.843-.043,1.577,1.577,0,0,1-1.185-1.244,6.337,6.337,0,0,1-.029-.86q0-.838,0-1.691c0-4.548-.011-9.407-.017-14.52s-.006-10.482-.011-16.047q0-4.175,0-8.488,0-2.156,0-4.342,0-1.1,0-2.2a1.621,1.621,0,0,1,1.617-1.568l33.279.02a1.6,1.6,0,0,1,1.469,1.322c.049.686.012,1.273.023,1.909q0,1.867,0,3.685,0,3.634-.009,7.048c-.008,4.546-.016,8.782-.023,12.65-.025,7.724-.045,13.98-.059,18.319-.006,1.079-.013,2.04-.017,2.875q-.005.623-.009,1.152a2.561,2.561,0,0,1-.1.957,1.442,1.442,0,0,1-.934.87A1.114,1.114,0,0,1,1158.392,3966.149Z" transform="translate(-1123.598 -3915.293)" fill="#344154"/>
        </g>
        <g id="Grupo_53913" data-name="Grupo 53913" transform="translate(8.698 9.9)">
          <path id="Trazado_101137" data-name="Trazado 101137" d="M1147.628,3929.435c-4.861-1.078-10.2,1.563-11.561,6.57a9.585,9.585,0,0,0,18.363,5.48c1.734-5.139-1.564-10.674-6.533-12.313-.577-.19-.806.7-.249.9,4.237,1.552,7.281,6.126,6.015,10.707a8.733,8.733,0,0,1-17.042-3.7c.652-5.136,6.091-8.214,10.931-7.373.179.031.258-.236.076-.276Z" transform="translate(-1135.769 -3929.146)" fill="#344154"/>
        </g>
        <g id="Grupo_53914" data-name="Grupo 53914" transform="translate(15.526 9.428)">
          <path id="Trazado_101138" data-name="Trazado 101138" d="M1145.521,3947.405a9.835,9.835,0,0,0,12.172-6.454c1.516-5.222-1.862-10.864-6.947-12.418-1.173-.359-1.592,1.374-.5,1.8,4.307,1.686,7.161,6.354,5.459,10.935-1.514,4.074-5.979,6.041-10.111,5.572-.332-.038-.372.472-.077.563Z" transform="translate(-1145.322 -3928.485)" fill="#fd9826"/>
        </g>
        <g id="Grupo_53915" data-name="Grupo 53915" transform="translate(8.387 36.706)">
          <path id="Trazado_101139" data-name="Trazado 101139" d="M1155.091,3966.84c0,.1-4.423.187-9.878.187s-9.879-.083-9.879-.187,4.422-.186,9.879-.186S1155.091,3966.737,1155.091,3966.84Z" transform="translate(-1135.334 -3966.654)" fill="#fd9826"/>
        </g>
        <g id="Grupo_53916" data-name="Grupo 53916" transform="translate(8.387 39.703)">
          <path id="Trazado_101140" data-name="Trazado 101140" d="M1155.091,3971.033c0,.1-4.423.187-9.878.187s-9.879-.083-9.879-.187,4.422-.186,9.879-.186S1155.091,3970.931,1155.091,3971.033Z" transform="translate(-1135.334 -3970.847)" fill="#fd9826"/>
        </g>
      </g>
      <g id="Grupo_53929" data-name="Grupo 53929" transform="translate(934.558 3856.222)">
        <path id="Trazado_101141" data-name="Trazado 101141" d="M974.535,3870.067v66.079a2.658,2.658,0,0,0,2.658,2.658h88.019a2.658,2.658,0,0,0,2.658-2.658V3867.77a2.658,2.658,0,0,0-2.727-2.657l-88.019,2.3A2.658,2.658,0,0,0,974.535,3870.067Z" transform="translate(-974.535 -3865.112)" fill="#e1e1e1"/>
        <g id="Grupo_53918" data-name="Grupo 53918" transform="translate(5.336 13.911)">
          <path id="Trazado_101142" data-name="Trazado 101142" d="M1062.142,3887.183c-.033.069-1.121-.562-3.256-1.237a20.935,20.935,0,0,0-9.339-.693,20.433,20.433,0,0,0-6.159,1.979,29.041,29.041,0,0,0-6.056,4.355c-1.986,1.753-3.957,3.743-6.231,5.582a21.487,21.487,0,0,1-7.953,4.3,12.021,12.021,0,0,1-4.644.28,15.027,15.027,0,0,1-4.3-1.329,75.271,75.271,0,0,1-7.208-4.286,22.47,22.47,0,0,0-6.779-3.039,20.127,20.127,0,0,0-6.448-.495,20.765,20.765,0,0,0-8.9,2.9c-1.91,1.167-2.812,2.045-2.862,1.984a4.433,4.433,0,0,1,.647-.636,15.413,15.413,0,0,1,2.072-1.577,20.309,20.309,0,0,1,15.627-2.733,22.84,22.84,0,0,1,6.977,3.052,77.144,77.144,0,0,0,7.16,4.215,12.264,12.264,0,0,0,8.492.994,20.993,20.993,0,0,0,7.7-4.162c2.238-1.8,4.218-3.775,6.233-5.531a29.141,29.141,0,0,1,6.219-4.39,20.627,20.627,0,0,1,15.841-1.03,16.57,16.57,0,0,1,2.392,1.029A4.548,4.548,0,0,1,1062.142,3887.183Z" transform="translate(-982.002 -3884.576)" fill="#375a64"/>
        </g>
        <g id="Grupo_53921" data-name="Grupo 53921" transform="translate(9.646 18.367)">
          <g id="Grupo_53919" data-name="Grupo 53919">
            <rect id="Rectángulo_6580" data-name="Rectángulo 6580" width="8.609" height="23.284" transform="translate(11.141 13.674)" fill="#375a64"/>
            <rect id="Rectángulo_6581" data-name="Rectángulo 6581" width="8.609" height="23.284" transform="translate(47.674 13.674)" fill="#375a64"/>
            <rect id="Rectángulo_6582" data-name="Rectángulo 6582" width="8.609" height="36.958" transform="translate(59.851)" fill="#6595bf"/>
            <rect id="Rectángulo_6583" data-name="Rectángulo 6583" width="8.609" height="7.836" transform="translate(0 29.628)" fill="#375a64"/>
            <rect id="Rectángulo_6584" data-name="Rectángulo 6584" width="8.61" height="12.77" transform="translate(23.319 24.188)" fill="#375a64"/>
            <rect id="Rectángulo_6585" data-name="Rectángulo 6585" width="8.609" height="15.701" transform="translate(35.496 21.257)" fill="#aed3f2"/>
          </g>
        </g>
        <g id="Grupo_53928" data-name="Grupo 53928" transform="translate(9.727 57.723)">
          <g id="Grupo_53922" data-name="Grupo 53922" transform="translate(10.714 0.001)">
            <path id="Trazado_101144" data-name="Trazado 101144" d="M1012.44,3946.227c0,.191-2.083.345-4.651.345s-4.652-.154-4.652-.345,2.083-.346,4.652-.346S1012.44,3946.035,1012.44,3946.227Z" transform="translate(-1003.137 -3945.881)" fill="#344154"/>
          </g>
          <g id="Grupo_53923" data-name="Grupo 53923" transform="translate(0 0.001)">
            <path id="Trazado_101145" data-name="Trazado 101145" d="M997.449,3946.227c0,.191-2.083.345-4.651.345s-4.652-.154-4.652-.345,2.083-.346,4.652-.346S997.449,3946.035,997.449,3946.227Z" transform="translate(-988.146 -3945.881)" fill="#344154"/>
          </g>
          <g id="Grupo_53924" data-name="Grupo 53924" transform="translate(59.56 0.001)">
            <path id="Trazado_101146" data-name="Trazado 101146" d="M1082,3946.227c0,.191-2.354.345-5.257.345s-5.259-.154-5.259-.345,2.353-.346,5.259-.346S1082,3946.035,1082,3946.227Z" transform="translate(-1071.485 -3945.881)" fill="#344154"/>
          </g>
          <g id="Grupo_53925" data-name="Grupo 53925" transform="translate(46.77 0.001)">
            <ellipse id="Elipse_4035" data-name="Elipse 4035" cx="5.258" cy="0.346" rx="5.258" ry="0.346" fill="#344154"/>
          </g>
          <g id="Grupo_53926" data-name="Grupo 53926" transform="translate(34.722)">
            <path id="Trazado_101147" data-name="Trazado 101147" d="M1046.033,3946.227c0,.191-2.083.346-4.651.346s-4.652-.155-4.652-.346,2.083-.347,4.652-.347S1046.033,3946.035,1046.033,3946.227Z" transform="translate(-1036.73 -3945.88)" fill="#344154"/>
          </g>
          <g id="Grupo_53927" data-name="Grupo 53927" transform="translate(22.14)">
            <path id="Trazado_101148" data-name="Trazado 101148" d="M1028.428,3946.227c0,.191-2.083.346-4.651.346s-4.652-.155-4.652-.346,2.083-.347,4.652-.347S1028.428,3946.035,1028.428,3946.227Z" transform="translate(-1019.125 -3945.88)" fill="#344154"/>
          </g>
        </g>
      </g>
      <g id="Grupo_53933" data-name="Grupo 53933" transform="translate(929.111 3943.137)">
        <g id="Grupo_53930" data-name="Grupo 53930">
          <path id="Trazado_101149" data-name="Trazado 101149" d="M1041.6,3986.9a.892.892,0,0,1,.147,0,1.151,1.151,0,0,1,.422.123,1.221,1.221,0,0,1,.515.507,1.906,1.906,0,0,1,.147.986c.009,1.517.021,3.735.036,6.59s.02,6.368.032,10.433q.008,3.053.014,6.519,0,.865,0,1.755,0,.445,0,.9a1.685,1.685,0,0,1-.173.944,1.326,1.326,0,0,1-.78.615,4.184,4.184,0,0,1-.963.054l-1.9,0,.133-.133c0,2.061.006,4.287.01,6.592v.38l-.251-.284-5.838-6.585.116.053-60.191.031h-4.2c-.24,0-.447.007-.714-.006a1.381,1.381,0,0,1-1.182-.952,1.429,1.429,0,0,1-.065-.395v-4.485q0-5.484,0-10.8t.005-10.422l0-1.281a1.371,1.371,0,0,1,.75-1.167,1.426,1.426,0,0,1,.69-.149h1.881l4.939,0,34.564.039,23.3.059,6.335.035,1.647.018c.372.007.562.019.562.019s-.19.013-.562.019l-1.647.019-6.335.035-23.3.059-34.564.041-4.939,0h-1.881a1.061,1.061,0,0,0-.531.111,1.015,1.015,0,0,0-.555.866l0,1.267q0,5.107,0,10.422t0,10.8v4.135a2.061,2.061,0,0,0,.049.631,1.009,1.009,0,0,0,.863.7c.2.01.455,0,.679,0h4.2l60.191.031h.071l.046.052,5.821,6.6-.251.094c0-2.3.007-4.53.011-6.592v-.134h.134l1.9,0a4.073,4.073,0,0,0,.892-.041,1.067,1.067,0,0,0,.63-.494,1.438,1.438,0,0,0,.143-.818q0-.451,0-.9,0-.89,0-1.755.008-3.461.014-6.519c.013-4.066.024-7.568.032-10.433s.027-5.073.036-6.59a1.859,1.859,0,0,0-.123-.959,1.2,1.2,0,0,0-.482-.5A1.472,1.472,0,0,0,1041.6,3986.9Z" transform="translate(-966.913 -3986.727)" fill="#344154"/>
        </g>
        <path id="Trazado_101150" data-name="Trazado 101150" d="M972.525,4014.094a15.764,15.764,0,0,1,2.694-5.9,5.939,5.939,0,0,1,5.769-2.25c3.333.858,4.945,5.3,8.355,5.753a5.759,5.759,0,0,0,4.938-2.34,31.414,31.414,0,0,0,2.893-4.905,14.25,14.25,0,0,1,5.876-6.049,7.821,7.821,0,0,1,8.107.509c3.846,3.028,3.31,9.714,7.408,12.39a5.935,5.935,0,0,0,6.606-.2c1.817-1.347,2.751-3.678,4.662-4.886a6.4,6.4,0,0,1,7.3.836,10.944,10.944,0,0,1,3.435,6.874" transform="translate(-968.514 -3989.806)" fill="#fd9826"/>
        <g id="Grupo_53931" data-name="Grupo 53931" transform="translate(5.391 10.79)">
          <path id="Trazado_101151" data-name="Trazado 101151" d="M1039.736,4003.3a.674.674,0,0,1-.168-.064l-.474-.222a12.51,12.51,0,0,0-1.9-.64,15.2,15.2,0,0,0-7.289.212,27.811,27.811,0,0,0-4.768,1.773c-1.664.772-3.39,1.711-5.228,2.668a41.606,41.606,0,0,1-5.955,2.64,17.4,17.4,0,0,1-6.929.967,23.016,23.016,0,0,1-6.789-1.714c-2.1-.842-4.042-1.842-5.89-2.769-3.673-1.883-7.113-3.391-10.2-3.853a14.581,14.581,0,0,0-7.264.53,13.866,13.866,0,0,0-2.425,1.193c0-.006.043-.043.139-.114l.429-.3a10.036,10.036,0,0,1,1.807-.91,14.41,14.41,0,0,1,7.355-.655c3.142.435,6.631,1.938,10.316,3.806,1.854.921,3.787,1.908,5.871,2.737a22.819,22.819,0,0,0,6.682,1.682,17.122,17.122,0,0,0,6.786-.942,41.9,41.9,0,0,0,5.913-2.6c1.837-.946,3.575-1.877,5.256-2.643a27.566,27.566,0,0,1,4.833-1.748,14.986,14.986,0,0,1,7.389-.1A8.351,8.351,0,0,1,1039.736,4003.3Z" transform="translate(-974.457 -4001.825)" fill="#344154"/>
        </g>
        <g id="Grupo_53932" data-name="Grupo 53932" transform="translate(10.347 6.961)">
          <path id="Trazado_101152" data-name="Trazado 101152" d="M1020.579,3997.218a.751.751,0,1,1-.752-.751A.752.752,0,0,1,1020.579,3997.218Z" transform="translate(-992.144 -3996.467)" fill="#375a64"/>
          <path id="Trazado_101153" data-name="Trazado 101153" d="M982.894,4001.665a.751.751,0,1,1-.751-.752A.751.751,0,0,1,982.894,4001.665Z" transform="translate(-981.391 -3997.736)" fill="#375a64"/>
          <path id="Trazado_101154" data-name="Trazado 101154" d="M1057.869,4001.67a.751.751,0,1,1-.751-.751A.751.751,0,0,1,1057.869,4001.67Z" transform="translate(-1002.784 -3997.737)" fill="#375a64"/>
        </g>
      </g>
      <g id="Grupo_54006" data-name="Grupo 54006" transform="translate(942.458 3948.4)">
        <path id="Trazado_101155" data-name="Trazado 101155" d="M1108.386,4147.324h6.7c3.12,0,9.818-8.216-26.519-7.277-23.885.616-25.452,4.141-24.243,6.2a2.97,2.97,0,0,0,2.794,1.4c.583-.042,1.354-.051,2.269-.047l-.572,2.521h0l-13.3,58.759,2.318-.2,9.818-32.355,18.733-.719,1.072,34.389h2.938l.708-34.569.09,0,1.98-.075,16.607-.638,9.837,35.286h2.819Zm-39.336,24.4,6.555-21.6.742-2.446h0c2.749,0,5.957-.064,9.169-.064l.735,23.575Zm24.7-.774h0l-.726.023-1.828.058.485-23.7h10.468l6.457,23.157Z" transform="translate(-1005.542 -4035.715)" fill="#375a64"/>
        <g id="Grupo_54004" data-name="Grupo 54004" transform="translate(33.813)">
          <g id="Grupo_53947" data-name="Grupo 53947" transform="translate(0 162.552)">
            <g id="Grupo_53934" data-name="Grupo 53934">
              <path id="Trazado_101156" data-name="Trazado 101156" d="M1042.083,4229.228v-7.6l13.61-.091.113,11.357-.843.063c-3.755.242-19.105.712-21.621-.066C1030.535,4232.027,1042.083,4229.228,1042.083,4229.228Z" transform="translate(-1032.901 -4221.541)" fill="#d9a171"/>
            </g>
            <g id="Grupo_53936" data-name="Grupo 53936" transform="translate(0.118 10.428)">
              <g id="Grupo_53935" data-name="Grupo 53935">
                <path id="Trazado_101157" data-name="Trazado 101157" d="M1033.066,4236.364c0,.127,5.091.231,11.37.231s11.37-.1,11.37-.231-5.09-.232-11.37-.232S1033.066,4236.235,1033.066,4236.364Z" transform="translate(-1033.066 -4236.132)" fill="#344154"/>
              </g>
            </g>
            <g id="Grupo_53938" data-name="Grupo 53938" transform="translate(7.905 7.843)">
              <g id="Grupo_53937" data-name="Grupo 53937">
                <path id="Trazado_101158" data-name="Trazado 101158" d="M1045,4233.909c.112-.06.016-.461-.277-.856s-.647-.607-.736-.518.1.425.364.792S1044.886,4233.97,1045,4233.909Z" transform="translate(-1043.963 -4232.515)" fill="#344154"/>
              </g>
            </g>
            <g id="Grupo_53940" data-name="Grupo 53940" transform="translate(7.114 8.075)">
              <g id="Grupo_53939" data-name="Grupo 53939">
                <path id="Trazado_101159" data-name="Trazado 101159" d="M1043.815,4234.5c.119-.044.057-.495-.211-.967s-.62-.759-.719-.682.069.468.317.908S1043.694,4234.548,1043.815,4234.5Z" transform="translate(-1042.855 -4232.84)" fill="#344154"/>
              </g>
            </g>
            <g id="Grupo_53942" data-name="Grupo 53942" transform="translate(18.745 7.942)">
              <g id="Grupo_53941" data-name="Grupo 53941">
                <path id="Trazado_101160" data-name="Trazado 101160" d="M1059.143,4235.32c.053.037.256-.163.55-.5a8.945,8.945,0,0,1,1.194-1.2,3.129,3.129,0,0,1,1.472-.643c.414-.055.685.009.708-.058.024-.049-.229-.239-.719-.269a2.7,2.7,0,0,0-1.744.6,4.957,4.957,0,0,0-1.176,1.37C1059.2,4235.021,1059.091,4235.285,1059.143,4235.32Z" transform="translate(-1059.13 -4232.654)" fill="#344154"/>
              </g>
            </g>
            <g id="Grupo_53944" data-name="Grupo 53944" transform="translate(8.889 7.753)">
              <g id="Grupo_53943" data-name="Grupo 53943">
                <path id="Trazado_101161" data-name="Trazado 101161" d="M1045.35,4232.445c-.067.107.167.37.555.513s.738.093.756-.031-.256-.275-.6-.4S1045.418,4232.335,1045.35,4232.445Z" transform="translate(-1045.339 -4232.389)" fill="#344154"/>
              </g>
            </g>
            <g id="Grupo_53946" data-name="Grupo 53946" transform="translate(9.114 6.855)">
              <g id="Grupo_53945" data-name="Grupo 53945">
                <path id="Trazado_101162" data-name="Trazado 101162" d="M1045.654,4231.352c-.013.127.35.237.81.242s.825-.093.816-.22-.372-.236-.81-.242S1045.666,4231.225,1045.654,4231.352Z" transform="translate(-1045.654 -4231.132)" fill="#344154"/>
              </g>
            </g>
          </g>
          <g id="Grupo_53961" data-name="Grupo 53961" transform="translate(28.73 162.552)">
            <g id="Grupo_53948" data-name="Grupo 53948">
              <path id="Trazado_101163" data-name="Trazado 101163" d="M1082.283,4229.228v-7.6l13.61-.091.112,11.357-.843.063c-3.754.242-19.1.712-21.62-.066C1070.736,4232.027,1082.283,4229.228,1082.283,4229.228Z" transform="translate(-1073.102 -4221.541)" fill="#d9a171"/>
            </g>
            <g id="Grupo_53950" data-name="Grupo 53950" transform="translate(0.117 10.428)">
              <g id="Grupo_53949" data-name="Grupo 53949">
                <path id="Trazado_101164" data-name="Trazado 101164" d="M1073.266,4236.364c0,.127,5.091.231,11.37.231s11.37-.1,11.37-.231-5.09-.232-11.37-.232S1073.266,4236.235,1073.266,4236.364Z" transform="translate(-1073.266 -4236.132)" fill="#344154"/>
              </g>
            </g>
            <g id="Grupo_53952" data-name="Grupo 53952" transform="translate(7.905 7.843)">
              <g id="Grupo_53951" data-name="Grupo 53951">
                <path id="Trazado_101165" data-name="Trazado 101165" d="M1085.2,4233.909c.112-.06.016-.461-.277-.856s-.647-.607-.735-.518.095.425.363.792S1085.086,4233.97,1085.2,4233.909Z" transform="translate(-1084.164 -4232.515)" fill="#344154"/>
              </g>
            </g>
            <g id="Grupo_53954" data-name="Grupo 53954" transform="translate(7.113 8.075)">
              <g id="Grupo_53953" data-name="Grupo 53953">
                <path id="Trazado_101166" data-name="Trazado 101166" d="M1084.015,4234.5c.119-.044.057-.495-.211-.967s-.62-.759-.719-.682.069.468.317.908S1083.895,4234.548,1084.015,4234.5Z" transform="translate(-1083.055 -4232.84)" fill="#344154"/>
              </g>
            </g>
            <g id="Grupo_53956" data-name="Grupo 53956" transform="translate(18.744 7.942)">
              <g id="Grupo_53955" data-name="Grupo 53955">
                <path id="Trazado_101167" data-name="Trazado 101167" d="M1099.343,4235.32c.053.037.256-.163.55-.5a8.945,8.945,0,0,1,1.194-1.2,3.129,3.129,0,0,1,1.472-.643c.414-.055.685.009.709-.058.024-.049-.229-.239-.72-.269a2.7,2.7,0,0,0-1.744.6,4.968,4.968,0,0,0-1.176,1.37C1099.4,4235.021,1099.292,4235.285,1099.343,4235.32Z" transform="translate(-1099.33 -4232.654)" fill="#344154"/>
              </g>
            </g>
            <g id="Grupo_53958" data-name="Grupo 53958" transform="translate(8.889 7.753)">
              <g id="Grupo_53957" data-name="Grupo 53957">
                <path id="Trazado_101168" data-name="Trazado 101168" d="M1085.551,4232.445c-.066.107.167.37.555.513s.738.093.756-.031-.256-.275-.6-.4S1085.619,4232.335,1085.551,4232.445Z" transform="translate(-1085.54 -4232.389)" fill="#344154"/>
              </g>
            </g>
            <g id="Grupo_53960" data-name="Grupo 53960" transform="translate(9.113 6.855)">
              <g id="Grupo_53959" data-name="Grupo 53959">
                <path id="Trazado_101169" data-name="Trazado 101169" d="M1085.854,4231.352c-.012.127.35.237.81.242s.825-.093.816-.22-.372-.236-.81-.242S1085.866,4231.225,1085.854,4231.352Z" transform="translate(-1085.854 -4231.132)" fill="#344154"/>
              </g>
            </g>
          </g>
          <path id="Trazado_101170" data-name="Trazado 101170" d="M1132.284,4031.484c-.56-.125-1.255-.052-1.589-.52-.3-.424-.092-1.008.086-1.5a7.121,7.121,0,0,0,.05-4.92,5.548,5.548,0,0,0-2.048-2.581,2.327,2.327,0,0,0,.345-.444,3.082,3.082,0,0,0,.386-1.561,3.444,3.444,0,0,0-1.046-2.605,1.657,1.657,0,0,0-2.237-.029,1.138,1.138,0,0,0-.031,1.665,1.038,1.038,0,0,0,1.086.136.506.506,0,0,0,.274-.272,1.288,1.288,0,0,1-.305.2.913.913,0,0,1-.875-1.586,1.43,1.43,0,0,1,1.92.085,3.194,3.194,0,0,1,.905,2.4,2.778,2.778,0,0,1-.359,1.4,2.031,2.031,0,0,1-.35.426,4.613,4.613,0,0,0-1.228-.5,12,12,0,0,1-2.772-.606,3.363,3.363,0,0,1-1.5-1.8c0-.083-.014-.166-.013-.25a35.421,35.421,0,0,1,.513-3.706,11.365,11.365,0,0,0-.1-3.55,6.667,6.667,0,0,0-3.4-4.79,4.66,4.66,0,0,0-3.969-.071,3.61,3.61,0,0,0-.918.61c-.068.066-.108.111-.148.155a3.272,3.272,0,0,0-1.091.874l-2.205,19.853,16.15,9.87a12.044,12.044,0,0,0,3.681-.746,4.072,4.072,0,0,0,2.458-2.675A2.5,2.5,0,0,0,1132.284,4031.484Zm-10.6-20.79a6.228,6.228,0,0,0-3.28-3.567,4.261,4.261,0,0,0-3.265.056,4.15,4.15,0,0,1,.946-.548,4.578,4.578,0,0,1,3.794.174,6.441,6.441,0,0,1,3.186,4.619,11.182,11.182,0,0,1,.071,3.442c-.089.891-.339,1.794-.459,2.755a19.09,19.09,0,0,1-.151-2.044A14.9,14.9,0,0,0,1121.68,4010.694Z" transform="translate(-1055.373 -3997.516)" fill="#344154"/>
          <g id="Grupo_53968" data-name="Grupo 53968" transform="translate(40.528)">
            <path id="Trazado_101171" data-name="Trazado 101171" d="M1110.884,4007.376a1.735,1.735,0,0,0-.632-.958,2.621,2.621,0,0,0-1.932-.087l-.037-4.556-8.909-7.22-4.775,2.48a7.476,7.476,0,0,0-4.034,6.705c.035,3.673.127,8.656.37,11.482.415,4.857,5.333,5.258,5.333,5.258s.212,1.751.359,3.492c0,.009-1.081,14.387,3.981,14.258,3.731-.095,6.237-7.936,7.3-12.059l.559-2.265v-.117l.019-.095-.02,0-.111-13.644.154.156a1.057,1.057,0,0,0,1.176.143,2.177,2.177,0,0,0,1.168-1.245A2.717,2.717,0,0,0,1110.884,4007.376Z" transform="translate(-1089.882 -3994.224)" fill="#ffbf9d"/>
            <g id="Grupo_53963" data-name="Grupo 53963" transform="translate(1.206 11.62)">
              <path id="Trazado_101172" data-name="Trazado 101172" d="M1092.179,4012.124a.623.623,0,1,0,.608-.637A.623.623,0,0,0,1092.179,4012.124Z" transform="translate(-1091.548 -4010.675)" fill="#344154"/>
              <g id="Grupo_53962" data-name="Grupo 53962">
                <path id="Trazado_101173" data-name="Trazado 101173" d="M1091.308,4011.136c.082.079.532-.324,1.2-.376s1.181.258,1.248.167c.034-.042-.053-.187-.277-.333a1.653,1.653,0,0,0-1.956.167C1091.33,4010.943,1091.268,4011.1,1091.308,4011.136Z" transform="translate(-1091.297 -4010.35)" fill="#344154"/>
              </g>
            </g>
            <g id="Grupo_53965" data-name="Grupo 53965" transform="translate(8.644 11.401)">
              <path id="Trazado_101174" data-name="Trazado 101174" d="M1102.286,4011.825a.623.623,0,1,0,.607-.638A.621.621,0,0,0,1102.286,4011.825Z" transform="translate(-1101.871 -4010.37)" fill="#344154"/>
              <g id="Grupo_53964" data-name="Grupo 53964">
                <path id="Trazado_101175" data-name="Trazado 101175" d="M1101.716,4010.83c.082.078.533-.324,1.2-.376s1.181.258,1.249.167c.034-.041-.054-.187-.278-.333a1.655,1.655,0,0,0-1.955.167C1101.738,4010.636,1101.677,4010.795,1101.716,4010.83Z" transform="translate(-1101.705 -4010.044)" fill="#344154"/>
              </g>
            </g>
            <g id="Grupo_53966" data-name="Grupo 53966" transform="translate(4.63 12.096)">
              <path id="Trazado_101176" data-name="Trazado 101176" d="M1097.826,4016.866a4.191,4.191,0,0,1-1.1.087,1.127,1.127,0,0,1-.292-.018.426.426,0,0,1-.3-.238,1.089,1.089,0,0,1,.049-.708l.4-1.406a24.519,24.519,0,0,1,1.207-3.565,24.635,24.635,0,0,1-.929,3.648l-.427,1.4a.952.952,0,0,0-.083.538c.036.119.2.142.371.147A4.24,4.24,0,0,1,1097.826,4016.866Z" transform="translate(-1096.089 -4011.017)" fill="#344154"/>
            </g>
            <path id="Trazado_101177" data-name="Trazado 101177" d="M1100.443,4019.968a9.359,9.359,0,0,1-3.3,1.227,1.855,1.855,0,0,0,2.238.577A1.539,1.539,0,0,0,1100.443,4019.968Z" transform="translate(-1091.759 -4001.474)" fill="#fafafa"/>
            <path id="Trazado_101178" data-name="Trazado 101178" d="M1098.544,4029.9a12.155,12.155,0,0,0,6.393-2.333s-1.374,3.607-6.258,3.524Z" transform="translate(-1092.159 -4003.643)" fill="#ff9a6c"/>
            <path id="Trazado_101179" data-name="Trazado 101179" d="M1089.61,4004.194c2.118.294,3.681-.286,5.755-.808a6.67,6.67,0,0,0,4.765-3.9,7.314,7.314,0,0,0,1.773,3.568c.2.218.57.42.747.183a.531.531,0,0,0,.021-.446q-.214-.849-.428-1.7a13.725,13.725,0,0,0,2.824,3.538c1.183.948,4.79,2.421,4.244,1-.136-.354,1.071-11.378-9.405-11.543S1089.61,4004.194,1089.61,4004.194Z" transform="translate(-1089.61 -3994.091)" fill="#344154"/>
            <g id="Grupo_53967" data-name="Grupo 53967" transform="translate(18.561 13.003)">
              <path id="Trazado_101180" data-name="Trazado 101180" d="M1115.587,4012.524c-.029-.031.181-.251.631-.238a1.184,1.184,0,0,1,.713,2.053,1.162,1.162,0,0,1-.717.287c-.45.011-.66-.209-.63-.24.025-.052.254.053.6-.021a.924.924,0,0,0,0-1.818C1115.841,4012.472,1115.612,4012.576,1115.587,4012.524Z" transform="translate(-1115.581 -4012.285)" fill="#ff9a6c"/>
            </g>
          </g>
          <g id="Grupo_53992" data-name="Grupo 53992" transform="translate(25.503 29.469)">
            <g id="Grupo_53990" data-name="Grupo 53990">
              <path id="Trazado_101181" data-name="Trazado 101181" d="M1119.606,4053.329l1.8-.365s-3.924-17.639-17.559-17.639c-.572,0-1.113,0-1.639,0,0,0-.008.039-.019.091v.117l-.559,2.265c-1.061,4.124-3.568,11.964-7.3,12.059-4.723.121-4.1-12.379-3.994-14.066a1.178,1.178,0,0,0-.346.091s-14.831.825-21.41,13.832l11.433,8.354,2.8-1.689s.912,18.4-.659,23.4c-1.777,5.664-4.52,11.933-4.52,11.933,12.577-.979,26.873-.42,42.119.99l-10.188-37.348A34.72,34.72,0,0,0,1119.606,4053.329Z" transform="translate(-1068.586 -4035.326)" fill="#fd9826"/>
              <g id="Grupo_53988" data-name="Grupo 53988" transform="translate(8.503 4.522)">
                <g id="Grupo_53969" data-name="Grupo 53969" transform="translate(18.883 21.889)">
                  <path id="Trazado_101182" data-name="Trazado 101182" d="M1118.271,4072.7c.017.016-.089.164-.317.4a6.4,6.4,0,0,1-1.081.869,7.538,7.538,0,0,1-8.662-.315,6.367,6.367,0,0,1-1.015-.945c-.21-.251-.306-.406-.288-.42.049-.045.51.514,1.456,1.15a7.808,7.808,0,0,0,8.373.305C1117.726,4073.172,1118.226,4072.649,1118.271,4072.7Z" transform="translate(-1106.906 -4072.281)" fill="#344154"/>
                </g>
                <g id="Grupo_53970" data-name="Grupo 53970" transform="translate(29.703 9.547)">
                  <path id="Trazado_101183" data-name="Trazado 101183" d="M1129.2,4077.58a4.57,4.57,0,0,1-.311-.881c-.194-.645-.437-1.459-.729-2.43-.609-2.053-1.458-4.888-2.443-8s-1.925-5.922-2.61-7.951l-.8-2.407a4.454,4.454,0,0,1-.252-.9,4.508,4.508,0,0,1,.388.849c.228.554.541,1.364.916,2.368.749,2.01,1.727,4.806,2.717,7.926s1.8,5.97,2.343,8.043c.272,1.037.482,1.879.615,2.463A4.488,4.488,0,0,1,1129.2,4077.58Z" transform="translate(-1122.047 -4055.012)" fill="#344154"/>
                </g>
                <g id="Grupo_53971" data-name="Grupo 53971" transform="translate(28.98 2.423)">
                  <path id="Trazado_101184" data-name="Trazado 101184" d="M1124.483,4046.533a6.732,6.732,0,0,1-3.446-1.473,16.575,16.575,0,0,1,3.446,1.473Z" transform="translate(-1121.035 -4045.044)" fill="#344154"/>
                </g>
                <g id="Grupo_53972" data-name="Grupo 53972" transform="translate(35.923 5.965)">
                  <path id="Trazado_101185" data-name="Trazado 101185" d="M1130.772,4054.064a12.422,12.422,0,1,1,.851-1.973A6.349,6.349,0,0,1,1130.772,4054.064Z" transform="translate(-1130.749 -4050)" fill="#344154"/>
                </g>
                <g id="Grupo_53973" data-name="Grupo 53973" transform="translate(23.691 10.815)">
                  <path id="Trazado_101186" data-name="Trazado 101186" d="M1113.647,4060.4a16.943,16.943,0,0,1,1.75-3.611,8.085,8.085,0,0,1-1.75,3.611Z" transform="translate(-1113.634 -4056.787)" fill="#344154"/>
                </g>
                <g id="Grupo_53974" data-name="Grupo 53974" transform="translate(18.649 15.163)">
                  <path id="Trazado_101187" data-name="Trazado 101187" d="M1109.417,4066.01a7.842,7.842,0,0,1-2.83-3.135c.086-.061.7.655,1.477,1.512A8.493,8.493,0,0,1,1109.417,4066.01Z" transform="translate(-1106.578 -4062.871)" fill="#344154"/>
                </g>
                <g id="Grupo_53975" data-name="Grupo 53975" transform="translate(26.542 17.716)">
                  <path id="Trazado_101188" data-name="Trazado 101188" d="M1121.449,4066.447a6.633,6.633,0,0,1-1.53,2.043,10.64,10.64,0,0,1-1.767,1.53l-.529.323.419-.423c.1-.1.164-.148.186-.132s0,.092-.063.219l-.11-.1c.25-.305.883-.928,1.6-1.674A13.2,13.2,0,0,1,1121.449,4066.447Z" transform="translate(-1117.623 -4066.443)" fill="#344154"/>
                </g>
                <g id="Grupo_53976" data-name="Grupo 53976" transform="translate(28.627 28.316)">
                  <path id="Trazado_101189" data-name="Trazado 101189" d="M1124.171,4083.432a7.576,7.576,0,0,1-3.627-2.148,30.371,30.371,0,0,1,3.627,2.148Z" transform="translate(-1120.541 -4081.274)" fill="#344154"/>
                </g>
                <g id="Grupo_53977" data-name="Grupo 53977" transform="translate(20.855 27.558)">
                  <path id="Trazado_101190" data-name="Trazado 101190" d="M1112.119,4080.217a12.537,12.537,0,0,1-2.444,3.547,12.6,12.6,0,0,1,2.444-3.547Z" transform="translate(-1109.665 -4080.214)" fill="#344154"/>
                </g>
                <g id="Grupo_53978" data-name="Grupo 53978" transform="translate(14.668 25.968)">
                  <path id="Trazado_101191" data-name="Trazado 101191" d="M1103.772,4080.156c-.064.082-.733-.336-1.494-.932s-1.328-1.145-1.264-1.226a4.275,4.275,0,0,1,1.494.932C1103.269,4079.527,1103.835,4080.076,1103.772,4080.156Z" transform="translate(-1101.008 -4077.989)" fill="#344154"/>
                </g>
                <g id="Grupo_53979" data-name="Grupo 53979" transform="translate(11.535 19.452)">
                  <path id="Trazado_101192" data-name="Trazado 101192" d="M1099.34,4068.884c.059.084-.5.585-1.248,1.119s-1.4.9-1.463.814.5-.584,1.247-1.118S1099.28,4068.8,1099.34,4068.884Z" transform="translate(-1096.625 -4068.873)" fill="#344154"/>
                </g>
                <g id="Grupo_53980" data-name="Grupo 53980" transform="translate(11.017 12.368)">
                  <path id="Trazado_101193" data-name="Trazado 101193" d="M1097.921,4061.618c-.081.063-.6-.48-1.153-1.214s-.939-1.376-.857-1.438.6.48,1.154,1.214S1098,4061.557,1097.921,4061.618Z" transform="translate(-1095.9 -4058.96)" fill="#344154"/>
                </g>
                <g id="Grupo_53981" data-name="Grupo 53981" transform="translate(25.763)">
                  <path id="Trazado_101194" data-name="Trazado 101194" d="M1116.548,4044.957a9.514,9.514,0,1,1,1.048-1.562A4.868,4.868,0,0,1,1116.548,4044.957Z" transform="translate(-1116.533 -4041.654)" fill="#344154"/>
                </g>
                <g id="Grupo_53982" data-name="Grupo 53982" transform="translate(6.388 1.901)">
                  <path id="Trazado_101195" data-name="Trazado 101195" d="M1092.891,4046.457a11.21,11.21,0,1,1-1.634-1.224A5.714,5.714,0,0,1,1092.891,4046.457Z" transform="translate(-1089.423 -4044.314)" fill="#344154"/>
                </g>
                <g id="Grupo_53983" data-name="Grupo 53983" transform="translate(0 1.905)">
                  <path id="Trazado_101196" data-name="Trazado 101196" d="M1082,4044.323c.089.052-.176.662-.591,1.36s-.823,1.223-.91,1.171.176-.662.59-1.361S1081.915,4044.271,1082,4044.323Z" transform="translate(-1080.484 -4044.32)" fill="#344154"/>
                </g>
                <g id="Grupo_53984" data-name="Grupo 53984" transform="translate(6.927 47.992)">
                  <path id="Trazado_101197" data-name="Trazado 101197" d="M1093.437,4111a10.406,10.406,0,1,1-1.524-1.243A5.331,5.331,0,0,1,1093.437,4111Z" transform="translate(-1090.177 -4108.807)" fill="#344154"/>
                </g>
                <g id="Grupo_53985" data-name="Grupo 53985" transform="translate(31.467 47.6)">
                  <path id="Trazado_101198" data-name="Trazado 101198" d="M1127.125,4108.263a5.108,5.108,0,0,1-1.166,1.542c-.719.781-1.363,1.359-1.439,1.289a5.151,5.151,0,0,1,1.165-1.541C1126.405,4108.771,1127.05,4108.193,1127.125,4108.263Z" transform="translate(-1124.514 -4108.257)" fill="#344154"/>
                </g>
                <g id="Grupo_53986" data-name="Grupo 53986" transform="translate(17.793 47.42)">
                  <path id="Trazado_101199" data-name="Trazado 101199" d="M1105.433,4110.869c-.1-.027-.021-.659-.024-1.431s-.079-1.4.024-1.43.35.6.348,1.43S1105.528,4110.9,1105.433,4110.869Z" transform="translate(-1105.381 -4108.006)" fill="#344154"/>
                </g>
                <g id="Grupo_53987" data-name="Grupo 53987" transform="translate(22.995 48.406)">
                  <path id="Trazado_101200" data-name="Trazado 101200" d="M1115.954,4111.4a10.047,10.047,0,1,1-1.549-1.159A5.154,5.154,0,0,1,1115.954,4111.4Z" transform="translate(-1112.659 -4109.386)" fill="#344154"/>
                </g>
              </g>
              <g id="Grupo_53989" data-name="Grupo 53989" transform="translate(9.051 55.579)">
                <path id="Trazado_101201" data-name="Trazado 101201" d="M1123.37,4114.9a1.886,1.886,0,0,1-.43-.009l-1.226-.1-4.5-.4c-3.8-.331-9.057-.8-14.876-.894-5.822-.111-11.094.034-14.907.182l-4.516.192-1.229.047a1.761,1.761,0,0,1-.43-.01,1.871,1.871,0,0,1,.425-.065l1.224-.117c1.065-.09,2.607-.2,4.513-.311,3.814-.215,9.094-.4,14.927-.292s11.1.607,14.895,1.005c1.9.2,3.433.387,4.493.521l1.219.166A1.833,1.833,0,0,1,1123.37,4114.9Z" transform="translate(-1081.251 -4113.094)" fill="#344154"/>
              </g>
            </g>
            <g id="Grupo_53991" data-name="Grupo 53991" transform="translate(38.211 14.069)" opacity="0.2">
              <path id="Trazado_101202" data-name="Trazado 101202" d="M1122.052,4055.012l3.576,23.761s3.312-.029,3.914-.984Z" transform="translate(-1122.052 -4055.012)"/>
              <path id="Trazado_101203" data-name="Trazado 101203" d="M1122.052,4055.012l3.576,23.761s3.312-.029,3.914-.984Z" transform="translate(-1122.052 -4055.012)"/>
            </g>
          </g>
          <g id="Grupo_54003" data-name="Grupo 54003" transform="translate(7.537 85.18)">
            <path id="Trazado_101204" data-name="Trazado 101204" d="M1078.9,4113.513c-8.411.651-13.007.071-22.258.939a13.211,13.211,0,0,0-11.478,12.791l-1.621,69.9h17l2.685-62.671,5.013.635c-.645,23.47,1.807,62.036,1.807,62.036l18.877-.922-1.078-60.19s25.393,1.724,24.759-21.077C1112.612,4114.955,1092.614,4112.531,1078.9,4113.513Z" transform="translate(-1043.476 -4113.279)" fill="#344154"/>
            <g id="Grupo_53993" data-name="Grupo 53993" transform="translate(24.619 0.042)">
              <path id="Trazado_101205" data-name="Trazado 101205" d="M1093.789,4113.348a9.707,9.707,0,0,1-1.286.22c-.829.125-2.029.3-3.5.574a21.555,21.555,0,0,0-5.041,1.339,10.06,10.06,0,0,0-2.566,1.64,8.264,8.264,0,0,0-1.945,2.6,14.559,14.559,0,0,0-1.211,6.2c.021,1.975.074,3.768.057,5.27s-.066,2.718-.123,3.556c-.03.42-.057.744-.081.964a1.169,1.169,0,0,1-.056.334,9.57,9.57,0,0,1-.008-1.3c.013-.839.028-2.051.005-3.549-.04-1.52-.086-3.3-.137-5.271a14.6,14.6,0,0,1,1.219-6.365,8.553,8.553,0,0,1,2.037-2.711,10.271,10.271,0,0,1,2.669-1.681,20.8,20.8,0,0,1,5.136-1.286c1.484-.238,2.693-.378,3.529-.458.419-.04.744-.065.965-.077A1.172,1.172,0,0,1,1093.789,4113.348Z" transform="translate(-1077.895 -4113.338)" fill="#375a64"/>
            </g>
            <g id="Grupo_53994" data-name="Grupo 53994" transform="translate(18.226 16.813)">
              <path id="Trazado_101206" data-name="Trazado 101206" d="M1068.981,4136.8a13.853,13.853,0,0,1,.923,2.123,5.04,5.04,0,0,1,.577,2.259,13.851,13.851,0,0,1-.922-2.122A5.057,5.057,0,0,1,1068.981,4136.8Z" transform="translate(-1068.95 -4136.804)" fill="#375a64"/>
            </g>
            <g id="Grupo_53995" data-name="Grupo 53995" transform="translate(19.593 15.419)">
              <path id="Trazado_101207" data-name="Trazado 101207" d="M1070.9,4134.854a8.641,8.641,0,0,1,.495,2.876,6.21,6.21,0,0,1-.373,2.9c-.109-.021.083-1.3,0-2.882A17.066,17.066,0,0,1,1070.9,4134.854Z" transform="translate(-1070.862 -4134.854)" fill="#375a64"/>
            </g>
            <g id="Grupo_53998" data-name="Grupo 53998" transform="translate(43.071 16.724)">
              <g id="Grupo_53996" data-name="Grupo 53996" transform="translate(0 0.009)">
                <path id="Trazado_101208" data-name="Trazado 101208" d="M1103.733,4136.691a9.936,9.936,0,0,1,.826,2.976,18.438,18.438,0,0,1,.46,3.045,9.94,9.94,0,0,1-.826-2.976A18.537,18.537,0,0,1,1103.733,4136.691Z" transform="translate(-1103.714 -4136.691)" fill="#375a64"/>
              </g>
              <g id="Grupo_53997" data-name="Grupo 53997" transform="translate(1.364)">
                <path id="Trazado_101209" data-name="Trazado 101209" d="M1105.98,4136.679a11.633,11.633,0,0,1-.329,6.03,28.637,28.637,0,0,1,.191-3.014A28.293,28.293,0,0,1,1105.98,4136.679Z" transform="translate(-1105.622 -4136.679)" fill="#375a64"/>
              </g>
            </g>
            <g id="Grupo_53999" data-name="Grupo 53999" transform="translate(0 79.595)">
              <path id="Trazado_101210" data-name="Trazado 101210" d="M1060.08,4224.837c0,.1-3.724.186-8.317.186s-8.317-.083-8.317-.186,3.723-.187,8.317-.187S1060.08,4224.734,1060.08,4224.837Z" transform="translate(-1043.447 -4224.651)" fill="#375a64"/>
            </g>
            <g id="Grupo_54000" data-name="Grupo 54000" transform="translate(26.301 79.283)">
              <path id="Trazado_101211" data-name="Trazado 101211" d="M1099.17,4224.4c0,.1-4.236.186-9.459.186s-9.462-.083-9.462-.186,4.235-.186,9.462-.186S1099.17,4224.3,1099.17,4224.4Z" transform="translate(-1080.249 -4224.215)" fill="#375a64"/>
            </g>
            <g id="Grupo_54001" data-name="Grupo 54001" transform="translate(37.652 11.97)">
              <path id="Trazado_101212" data-name="Trazado 101212" d="M1125.358,4130.2a1.092,1.092,0,0,1-.241.019l-.707.018-2.717.032-9.993.049-6.9.023a16.3,16.3,0,0,0-3.771.435,5.963,5.963,0,0,0-3.309,2.05,6.855,6.855,0,0,0-1.216,3.927c-.072,1.442.081,2.925.137,4.449l.257,9.394c.359,12.872.66,24.526.768,32.964.057,4.219.075,7.633.072,9.993-.008,1.161-.014,2.072-.019,2.717-.006.294-.011.528-.015.707a1.132,1.132,0,0,1-.018.241,1.192,1.192,0,0,1-.02-.241c-.006-.179-.013-.412-.022-.707-.012-.645-.029-1.555-.051-2.716-.045-2.382-.11-5.789-.19-9.989-.177-8.435-.518-20.086-.877-32.959-.086-3.217-.169-6.357-.25-9.39-.053-1.508-.2-3-.128-4.479a7.193,7.193,0,0,1,1.3-4.119,6.288,6.288,0,0,1,3.5-2.157,16.51,16.51,0,0,1,3.85-.428l6.9.022,9.992.07,2.717.038.706.019A1.175,1.175,0,0,1,1125.358,4130.2Z" transform="translate(-1096.131 -4130.028)" fill="#375a64"/>
            </g>
            <path id="Trazado_101213" data-name="Trazado 101213" d="M1075.265,4138.141s-.66-8.471,2.519-13.34l-.5,13.595Z" transform="translate(-1052.509 -4116.566)" opacity="0.2"/>
            <g id="Grupo_54002" data-name="Grupo 54002" transform="translate(11.885 12.813)">
              <path id="Trazado_101214" data-name="Trazado 101214" d="M1072.32,4131.913a.724.724,0,0,1-.192-.022l-.557-.1c-.487-.09-1.206-.234-2.14-.337a9.14,9.14,0,0,0-3.378.2,5.784,5.784,0,0,0-1.895.89,4.759,4.759,0,0,0-1.468,1.8,13.1,13.1,0,0,0-.844,5.351c-.049,1.984-.1,4.1-.157,6.331-.119,4.462-.248,9.363-.384,14.507-.3,10.282-.58,19.587-.781,26.357-.116,3.35-.212,6.07-.279,7.985-.04.921-.071,1.646-.095,2.171-.014.23-.024.416-.034.564a.1.1,0,1,1-.038,0c0-.149,0-.335,0-.565.006-.525.015-1.252.026-2.172.038-1.917.093-4.638.16-7.989.172-6.771.41-16.077.671-26.36.146-5.145.286-10.044.414-14.507.067-2.227.131-4.346.192-6.33a13.232,13.232,0,0,1,.915-5.457,4.981,4.981,0,0,1,1.565-1.874,5.947,5.947,0,0,1,1.98-.9,9.09,9.09,0,0,1,3.448-.141,21.6,21.6,0,0,1,2.139.408l.549.137A.75.75,0,0,1,1072.32,4131.913Z" transform="translate(-1060.077 -4131.208)" fill="#375a64"/>
            </g>
          </g>
          <path id="Trazado_101215" data-name="Trazado 101215" d="M1066.245,4056.769s-17.95,18-21.375,22.024c-2.92,3.435-1.015,9.92,1.432,10.2s42.011-.258,42.011-.258l-.525-8.093s-25.624.115-26.376-.357,14.821-16.216,14.821-16.216Z" transform="translate(-1035.895 -4011.975)" fill="#ffbf9d"/>
          <path id="Trazado_101216" data-name="Trazado 101216" d="M1125.874,4060.059s5.453,16.527,6.114,18.481,4.045,10.216-2.386,10.908-40.954,0-40.954,0l-2.568-8.353s33.368-.084,33.2-1.867-5.068-16.711-5.068-16.711Z" transform="translate(-1048.074 -4012.914)" fill="#ffbf9d"/>
        </g>
        <g id="Grupo_54005" data-name="Grupo 54005" transform="translate(38.767 41.46)">
          <path id="Trazado_101217" data-name="Trazado 101217" d="M1039.834,4052.632l12.4,34.351,57.082-.024-.4-1.678-21.418-.787-10.543-32.388Z" transform="translate(-1039.834 -4052.104)" fill="#344154"/>
          <path id="Trazado_101218" data-name="Trazado 101218" d="M1073.849,4073.934a2.02,2.02,0,1,1-2.373-1.953A2.186,2.186,0,0,1,1073.849,4073.934Z" transform="translate(-1048.406 -4057.768)" fill="#fafafa"/>
        </g>
        <path id="Trazado_101219" data-name="Trazado 101219" d="M1123.363,4099.859H985.589v98.615h2.924v-92.8h134.85v92.875h34.467v-98.685Z" transform="translate(-985.589 -4024.27)" fill="#6595bf"/>
      </g>
      <g id="Grupo_54048" data-name="Grupo 54048" transform="translate(850.768 3884.13)">
        <g id="Grupo_54020" data-name="Grupo 54020" transform="translate(50.216 227.154)">
          <g id="Grupo_54007" data-name="Grupo 54007">
            <path id="Trazado_101220" data-name="Trazado 101220" d="M940.893,4229.476v-7.382l-13.227-.088-.109,11.038.82.061c3.648.236,18.567.693,21.012-.063C952.115,4232.2,940.893,4229.476,940.893,4229.476Z" transform="translate(-927.557 -4222.006)" fill="#d9a171"/>
          </g>
          <g id="Grupo_54009" data-name="Grupo 54009" transform="translate(0.044 10.133)">
            <g id="Grupo_54008" data-name="Grupo 54008">
              <path id="Trazado_101221" data-name="Trazado 101221" d="M949.719,4236.41c0,.124-4.947.225-11.05.225s-11.05-.1-11.05-.225,4.947-.225,11.05-.225S949.719,4236.287,949.719,4236.41Z" transform="translate(-927.619 -4236.185)" fill="#344154"/>
            </g>
          </g>
          <g id="Grupo_54011" data-name="Grupo 54011" transform="translate(13.525 7.621)">
            <g id="Grupo_54010" data-name="Grupo 54010">
              <path id="Trazado_101222" data-name="Trazado 101222" d="M946.526,4234.024c-.109-.058-.015-.448.269-.832s.63-.59.715-.5-.092.414-.353.77S946.636,4234.083,946.526,4234.024Z" transform="translate(-946.481 -4232.669)" fill="#344154"/>
            </g>
          </g>
          <g id="Grupo_54013" data-name="Grupo 54013" transform="translate(14.357 7.847)">
            <g id="Grupo_54012" data-name="Grupo 54012">
              <path id="Trazado_101223" data-name="Trazado 101223" d="M947.7,4234.6c-.115-.044-.056-.48.2-.94s.6-.739.7-.662-.068.453-.308.882S947.819,4234.646,947.7,4234.6Z" transform="translate(-947.646 -4232.986)" fill="#344154"/>
            </g>
          </g>
          <g id="Grupo_54015" data-name="Grupo 54015" transform="translate(0.214 7.718)">
            <g id="Grupo_54014" data-name="Grupo 54014">
              <path id="Trazado_101224" data-name="Trazado 101224" d="M931.672,4235.4c-.051.036-.249-.158-.535-.483a8.66,8.66,0,0,0-1.161-1.161,3.031,3.031,0,0,0-1.43-.625c-.4-.054-.667.008-.689-.057-.024-.048.222-.232.7-.261a2.628,2.628,0,0,1,1.694.586,4.822,4.822,0,0,1,1.143,1.331C931.619,4235.106,931.722,4235.362,931.672,4235.4Z" transform="translate(-927.856 -4232.805)" fill="#344154"/>
            </g>
          </g>
          <g id="Grupo_54017" data-name="Grupo 54017" transform="translate(12.334 7.534)">
            <g id="Grupo_54016" data-name="Grupo 54016">
              <path id="Trazado_101225" data-name="Trazado 101225" d="M946.09,4232.6c.065.1-.162.361-.54.5s-.716.091-.735-.031.249-.268.58-.391S946.025,4232.5,946.09,4232.6Z" transform="translate(-944.815 -4232.547)" fill="#344154"/>
            </g>
          </g>
          <g id="Grupo_54019" data-name="Grupo 54019" transform="translate(11.821 6.661)">
            <g id="Grupo_54018" data-name="Grupo 54018">
              <path id="Trazado_101226" data-name="Trazado 101226" d="M945.678,4231.541c.012.124-.34.229-.787.236s-.8-.091-.793-.214.361-.229.787-.235S945.666,4231.417,945.678,4231.541Z" transform="translate(-944.098 -4231.327)" fill="#344154"/>
            </g>
          </g>
        </g>
        <path id="Trazado_101227" data-name="Trazado 101227" d="M999.448,3918.6l.122-2.233a19.061,19.061,0,0,0,.282-3.75,5.5,5.5,0,0,0-.329-1.835,8.409,8.409,0,0,0-1-2.1.721.721,0,0,1,.63-1.209c.63.162,1.918,1.656,2.5,3.886s2.085-1.071,2.654-2.265,2.5-4.8,3.009-4.917c.741-.17,1.059.593.463,1.772s-2.135,4.838-1.49,5.108a3.429,3.429,0,0,1,1.409-.06.371.371,0,0,1,.292.313,4.314,4.314,0,0,0,.209,1.026s.887-.285,1.109.092a3.92,3.92,0,0,1,.289,1.243s.674-.3,1.029-.069c.768.5-.059,1.55-.059,1.55a75.2,75.2,0,0,1-5.955,7.5l-5.2-4.181" transform="translate(-897.535 -3904.162)" fill="#ffbf9d"/>
        <g id="Grupo_54021" data-name="Grupo 54021" transform="translate(32.935 6.221)">
          <path id="Trazado_101228" data-name="Trazado 101228" d="M910.95,3922.763l-.087,28.506,12.229.583.353-6.934s4.344.863,5.464-3.172c.716-2.576.537-22.492.537-22.492Z" transform="translate(-905.512 -3914.689)" fill="#ffbf9d"/>
          <path id="Trazado_101229" data-name="Trazado 101229" d="M926.609,3913.013c-3.721,1.206-4.618,1.607-6.286,1.741-1.6.128-13,.138-14.03,6.525a4.6,4.6,0,0,1-.322-.938,16.1,16.1,0,0,1-.14-1.887,2.368,2.368,0,0,0-.222,1.97,3.305,3.305,0,0,0,.122.413c-.074-.077-.146-.154-.229-.227a3.6,3.6,0,0,0-1.446-.768c-.41-.1-.673-.079-.679-.034a9.824,9.824,0,0,1,1.881,1.083,4.807,4.807,0,0,1,.961,1.141c0,.029-.006.056-.006.086,0,0-2.438-1.071-1.8,3.348s3.528,8.168,3.88,15.4c0,0,10.1,1.205,11.9-2.678l1.509-4.455s-2.431-.4-2.148-2.35c.392-2.7,2.458-2.773,4-1.569l1.772-4.749s4.49-2.945,4.746-4.82S930.329,3911.808,926.609,3913.013Z" transform="translate(-903.375 -3912.866)" fill="#344154"/>
        </g>
        <g id="Grupo_54024" data-name="Grupo 54024" transform="translate(2.751 229.107)">
          <path id="Trazado_101230" data-name="Trazado 101230" d="M862.933,4224.738l-1.792,7.974,12.347,1.526.442-7.9Z" transform="translate(-861.141 -4224.738)" fill="#d9a171"/>
          <g id="Grupo_54022" data-name="Grupo 54022" transform="translate(6.158 0.391)">
            <path id="Trazado_101231" data-name="Trazado 101231" d="M870.966,4225.285a36.386,36.386,0,0,1-1.18,7.262,36.371,36.371,0,0,1,1.18-7.262Z" transform="translate(-869.758 -4225.285)" fill="#344154"/>
          </g>
          <g id="Grupo_54023" data-name="Grupo 54023" transform="translate(0.314 6.413)">
            <path id="Trazado_101232" data-name="Trazado 101232" d="M873.662,4235.929a9.575,9.575,0,0,1-1.788-.224l-4.284-.7c-1.673-.278-3.185-.559-4.272-.8a7.985,7.985,0,0,1-1.739-.483,9.563,9.563,0,0,1,1.788.225l4.284.694c1.673.278,3.185.561,4.271.8A7.95,7.95,0,0,1,873.662,4235.929Z" transform="translate(-861.58 -4233.711)" fill="#344154"/>
          </g>
        </g>
        <g id="Grupo_54031" data-name="Grupo 54031" transform="translate(0 102.111)">
          <path id="Trazado_101233" data-name="Trazado 101233" d="M880.139,4048.675l-22.847,128.41,19.57,1.109s20.784-110.688,23.835-110.964c1.279-.116,1.791,110.089,2.818,109.855s21.141.357,21.141.357-2.721-130.4-2.674-130.4S880.139,4048.675,880.139,4048.675Z" transform="translate(-857.292 -4047.04)" fill="#344154"/>
          <g id="Grupo_54030" data-name="Grupo 54030" transform="translate(1.253 17.483)">
            <g id="Grupo_54025" data-name="Grupo 54025" transform="translate(35.278)">
              <path id="Trazado_101234" data-name="Trazado 101234" d="M923.632,4071.514c.021.1-3.37.907-7.573,1.8s-7.631,1.536-7.652,1.436,3.369-.906,7.574-1.8S923.611,4071.414,923.632,4071.514Z" transform="translate(-908.407 -4071.504)" fill="#375a64"/>
            </g>
            <g id="Grupo_54026" data-name="Grupo 54026" transform="translate(0 105.468)">
              <path id="Trazado_101235" data-name="Trazado 101235" d="M878.79,4219.742c0,.1-4.426.049-9.878-.12s-9.87-.389-9.867-.492,4.425-.048,9.878.12S878.793,4219.639,878.79,4219.742Z" transform="translate(-859.045 -4219.079)" fill="#375a64"/>
            </g>
            <g id="Grupo_54027" data-name="Grupo 54027" transform="translate(44.645 105.455)">
              <path id="Trazado_101236" data-name="Trazado 101236" d="M942.833,4219.747c0,.1-4.778.044-10.664-.132s-10.657-.4-10.654-.5,4.777-.044,10.665.132S942.836,4219.645,942.833,4219.747Z" transform="translate(-921.514 -4219.061)" fill="#375a64"/>
            </g>
            <g id="Grupo_54028" data-name="Grupo 54028" transform="translate(9.369 3.566)">
              <path id="Trazado_101237" data-name="Trazado 101237" d="M894.144,4076.493c.1.021-4.74,22.93-10.812,51.159s-11.075,51.106-11.176,51.084,4.74-22.924,10.812-51.163S894.043,4076.471,894.144,4076.493Z" transform="translate(-872.155 -4076.493)" fill="#375a64"/>
            </g>
            <g id="Grupo_54029" data-name="Grupo 54029" transform="translate(54.195 3.015)">
              <path id="Trazado_101238" data-name="Trazado 101238" d="M936.07,4178.531a1.352,1.352,0,0,1-.028-.265c-.011-.194-.025-.451-.043-.778-.03-.706-.074-1.711-.129-2.993-.107-2.6-.234-6.363-.37-11.014-.272-9.3-.537-22.152-.607-36.348s.076-27.057.258-36.359c.091-4.651.182-8.415.264-11.015.043-1.283.077-2.288.1-2.995.015-.326.027-.584.036-.778a1.379,1.379,0,0,1,.025-.265,1.4,1.4,0,0,1,.013.266c0,.194,0,.452,0,.779-.007.707-.017,1.712-.03,3-.035,2.623-.084,6.381-.146,11.016-.114,9.3-.215,22.155-.149,36.353s.294,27.043.5,36.344c.106,4.634.192,8.391.252,11.014.026,1.284.045,2.289.059,3,0,.327,0,.585.006.78A1.546,1.546,0,0,1,936.07,4178.531Z" transform="translate(-934.877 -4075.722)" fill="#375a64"/>
            </g>
          </g>
        </g>
        <g id="Grupo_54047" data-name="Grupo 54047" transform="translate(7.475 13.799)">
          <path id="Trazado_101239" data-name="Trazado 101239" d="M960.169,3923.47s-15.151,22.854-16.435,24.139-25.013,3.777-25.013,3.777c-7.285-1.644-30.84-1.1-35.289,2.175h0c-3.849,2.13-8.528,7.114-10.936,18.961-4.109,20.21-8.217,27.657,0,30.482a54.094,54.094,0,0,0,10.117,2.383l-.227,9.147,42.592-2.646-2.181-22.716c-.256-6.378-.374-13.025-.532-18.913,2.664-1.01,27.434-10.385,29.135-10.628,1.8-.257,18.014-30.255,18.014-30.255C969.927,3925.781,960.169,3923.47,960.169,3923.47Z" transform="translate(-867.752 -3923.47)" fill="#fd9826"/>
          <g id="Grupo_54032" data-name="Grupo 54032" transform="translate(14.609 41.363)">
            <path id="Trazado_101240" data-name="Trazado 101240" d="M889.609,3981.347c.1,0-.125,11.133-.509,24.856s-.779,24.85-.882,24.847.126-11.13.51-24.858S889.507,3981.344,889.609,3981.347Z" transform="translate(-888.194 -3981.347)" fill="#344154"/>
          </g>
          <g id="Grupo_54033" data-name="Grupo 54033" transform="translate(75.973 24.137)">
            <path id="Trazado_101241" data-name="Trazado 101241" d="M976.2,3962.39a7.422,7.422,0,0,1-1.241-2.508,18.772,18.772,0,0,1-.892-2.637,7.4,7.4,0,0,1,1.241,2.507A18.755,18.755,0,0,1,976.2,3962.39Z" transform="translate(-974.057 -3957.243)" fill="#344154"/>
          </g>
          <g id="Grupo_54034" data-name="Grupo 54034" transform="translate(75.977 24.134)">
            <path id="Trazado_101242" data-name="Trazado 101242" d="M977.9,3960.444a12.644,12.644,0,0,1-2.03-1.454,6.463,6.463,0,0,1-1.8-1.746,12.727,12.727,0,0,1,2.031,1.454A6.44,6.44,0,0,1,977.9,3960.444Z" transform="translate(-974.062 -3957.24)" fill="#344154"/>
          </g>
          <g id="Grupo_54035" data-name="Grupo 54035" transform="translate(90.807 2.322)">
            <path id="Trazado_101243" data-name="Trazado 101243" d="M1004.846,3932.1a9.11,9.11,0,0,1-1.436-.863c-.868-.554-2.082-1.3-3.465-2.039s-2.676-1.338-3.618-1.753a9,9,0,0,1-1.514-.716,6.448,6.448,0,0,1,1.613.472,30.146,30.146,0,0,1,7.133,3.819A6.443,6.443,0,0,1,1004.846,3932.1Z" transform="translate(-994.812 -3926.719)" fill="#344154"/>
          </g>
          <g id="Grupo_54036" data-name="Grupo 54036" transform="translate(10.367 65.192)">
            <path id="Trazado_101244" data-name="Trazado 101244" d="M887.4,4015.826a8.374,8.374,0,0,1-2.634-.271,7.037,7.037,0,0,1-2.513-.845,14.664,14.664,0,0,1,2.589.48A10.963,10.963,0,0,1,887.4,4015.826Z" transform="translate(-882.257 -4014.69)" fill="#344154"/>
          </g>
          <g id="Grupo_54037" data-name="Grupo 54037" transform="translate(46.21 27.563)">
            <path id="Trazado_101245" data-name="Trazado 101245" d="M941.06,3962.068a21.021,21.021,0,0,0-2.284.537,8.853,8.853,0,0,0-6.09,8.538,21.279,21.279,0,0,0,.236,2.334,1.9,1.9,0,0,1-.23-.6,7.676,7.676,0,0,1-.269-1.729,8.692,8.692,0,0,1,6.273-8.794,7.637,7.637,0,0,1,1.723-.309A1.86,1.86,0,0,1,941.06,3962.068Z" transform="translate(-932.41 -3962.037)" fill="#344154"/>
          </g>
          <g id="Grupo_54038" data-name="Grupo 54038" transform="translate(14.634 88.404)">
            <path id="Trazado_101246" data-name="Trazado 101246" d="M930.82,4047.182c.006.1-9.524.779-21.283,1.51s-21.3,1.24-21.309,1.137,9.522-.778,21.285-1.51S930.813,4047.08,930.82,4047.182Z" transform="translate(-888.228 -4047.169)" fill="#344154"/>
          </g>
          <g id="Grupo_54039" data-name="Grupo 54039" transform="translate(4.702 27.145)">
            <path id="Trazado_101247" data-name="Trazado 101247" d="M909.889,3961.452a3.055,3.055,0,0,1,.125.53c.031.176.086.392.118.651s.052.567.083.9a13.962,13.962,0,0,1-.923,5.658,13.363,13.363,0,0,1-5.306,6.571,8.522,8.522,0,0,1-1.086.583,9.995,9.995,0,0,1-1.161.482c-.793.287-1.615.529-2.429.818a10.94,10.94,0,0,0-2.358,1.1,8.468,8.468,0,0,0-1.935,1.825,49.294,49.294,0,0,0-2.816,4.565,9.642,9.642,0,0,1-3.5,3.641,8.071,8.071,0,0,1-4.495.832,10.741,10.741,0,0,1-3.833-1.094,17.306,17.306,0,0,1-4.617-3.406c-.48-.479-.837-.865-1.078-1.128a2.941,2.941,0,0,1-.349-.418,3.007,3.007,0,0,1,.4.366l1.125,1.076a18.061,18.061,0,0,0,4.631,3.272,10.582,10.582,0,0,0,3.744,1.025,7.809,7.809,0,0,0,4.307-.826,9.36,9.36,0,0,0,3.35-3.531,48.155,48.155,0,0,1,2.833-4.6,8.791,8.791,0,0,1,2.025-1.906,11.263,11.263,0,0,1,2.439-1.137l2.431-.809a9.518,9.518,0,0,0,1.134-.465,8.185,8.185,0,0,0,1.054-.558,13.219,13.219,0,0,0,5.239-6.375,14.36,14.36,0,0,0,1.023-5.556q-.027-.5-.048-.893c-.02-.259-.062-.475-.081-.651A2.971,2.971,0,0,1,909.889,3961.452Z" transform="translate(-874.33 -3961.452)" fill="#344154"/>
          </g>
          <g id="Grupo_54040" data-name="Grupo 54040" transform="translate(35.162 51.291)">
            <path id="Trazado_101248" data-name="Trazado 101248" d="M938.179,4023.641a5.557,5.557,0,0,1-.476-.3,4.383,4.383,0,0,0-1.474-.6,21.344,21.344,0,0,0-2.545-.227c-.993-.08-2.13-.088-3.392-.134a16.731,16.731,0,0,1-4.1-.575,13.776,13.776,0,0,1-4.291-2.064,11.991,11.991,0,0,1-3.507-3.919,11.455,11.455,0,0,1-1.438-5.457,9.89,9.89,0,0,1,5.428-8.957,8.979,8.979,0,0,1,2.345-.782,14.264,14.264,0,0,1,2.311-.189,34.011,34.011,0,0,0,4.1-.122,5.934,5.934,0,0,0,4.779-2.977,4.532,4.532,0,0,0,.444-1.53c.043-.366.037-.562.057-.562a.43.43,0,0,1,.018.144,3.159,3.159,0,0,1,0,.425,4.265,4.265,0,0,1-.387,1.586,5.064,5.064,0,0,1-1.674,1.967,6.985,6.985,0,0,1-3.2,1.209,32.832,32.832,0,0,1-4.129.168,14.14,14.14,0,0,0-2.258.2,8.72,8.72,0,0,0-2.251.767,9.576,9.576,0,0,0-5.208,8.648,11.147,11.147,0,0,0,1.385,5.283,11.709,11.709,0,0,0,3.39,3.818,13.6,13.6,0,0,0,4.174,2.045,16.715,16.715,0,0,0,4.031.608c1.254.063,2.4.089,3.4.189a19.471,19.471,0,0,1,2.558.293,4.161,4.161,0,0,1,1.484.683,3.492,3.492,0,0,1,.332.264C938.148,4023.6,938.182,4023.636,938.179,4023.641Z" transform="translate(-916.952 -3995.238)" fill="#344154"/>
          </g>
          <g id="Grupo_54041" data-name="Grupo 54041" transform="translate(15.722 63.194)">
            <path id="Trazado_101249" data-name="Trazado 101249" d="M906.745,4038.861a7.3,7.3,0,0,0-.083-1.531,5.361,5.361,0,0,0-2.2-3.386,5,5,0,0,0-1.217-.594,7.485,7.485,0,0,0-1.462-.27,15.657,15.657,0,0,1-3.348-.454,4.264,4.264,0,0,1-1.6-.969,5.2,5.2,0,0,1-1.088-1.616,7.487,7.487,0,0,1-.465-4c.4-2.75,1.605-5.116,1.817-7.445a7.346,7.346,0,0,0-.292-3.237,4.661,4.661,0,0,0-1.659-2.242,5.441,5.441,0,0,0-3.917-1,7.839,7.839,0,0,0-1.476.415,3.548,3.548,0,0,1,1.453-.557,5.479,5.479,0,0,1,4.094.933,4.9,4.9,0,0,1,1.794,2.35,7.572,7.572,0,0,1,.342,3.377c-.206,2.409-1.41,4.8-1.789,7.459a7.17,7.17,0,0,0,.432,3.8,4.851,4.851,0,0,0,1,1.506,3.931,3.931,0,0,0,1.466.9,15.832,15.832,0,0,0,3.27.471,7.721,7.721,0,0,1,1.516.3,5.2,5.2,0,0,1,1.281.652,5.4,5.4,0,0,1,2.193,3.578,4.38,4.38,0,0,1,.023,1.159A1.631,1.631,0,0,1,906.745,4038.861Z" transform="translate(-889.751 -4011.894)" fill="#344154"/>
          </g>
          <g id="Grupo_54042" data-name="Grupo 54042" transform="translate(30.095 50.272)">
            <path id="Trazado_101250" data-name="Trazado 101250" d="M911.058,3994.154c-.01-.016.148-.152.5-.258a2.387,2.387,0,0,1,1.544.1,2.419,2.419,0,0,1,.9.629,2.171,2.171,0,0,1,.52,1.162,2.5,2.5,0,0,1-1.236,2.5,2.472,2.472,0,0,1-2.753-.43,2.094,2.094,0,0,1-.63-1.107,2.316,2.316,0,0,1,.051-1.1,2.273,2.273,0,0,1,.891-1.266c.311-.2.52-.232.524-.215s-.174.106-.435.33a2.29,2.29,0,0,0-.724,1.217,1.891,1.891,0,0,0,.557,1.888,2.157,2.157,0,0,0,2.348.352,2.186,2.186,0,0,0,1.068-2.127A1.981,1.981,0,0,0,913,3994.24a2.438,2.438,0,0,0-1.408-.2C911.252,3994.094,911.073,3994.183,911.058,3994.154Z" transform="translate(-909.862 -3993.813)" fill="#344154"/>
          </g>
          <g id="Grupo_54043" data-name="Grupo 54043" transform="translate(2.072 61.132)">
            <path id="Trazado_101251" data-name="Trazado 101251" d="M878.445,4028.96c-.079-.017.257-1.256.336-3.3a14.659,14.659,0,0,0-.019-1.669c-.011-.6-.109-1.235-.189-1.9a19.844,19.844,0,0,0-3.167-8.107,19.1,19.1,0,0,0-1.151-1.529,14.328,14.328,0,0,0-1.118-1.24c-1.444-1.45-2.531-2.133-2.483-2.2a4.109,4.109,0,0,1,.767.465,7.311,7.311,0,0,1,.847.626,12.131,12.131,0,0,1,1.053.919,13.4,13.4,0,0,1,1.169,1.229,17.777,17.777,0,0,1,1.2,1.535,19.066,19.066,0,0,1,3.223,8.251,17.766,17.766,0,0,1,.159,1.941,13.538,13.538,0,0,1-.026,1.7,12.007,12.007,0,0,1-.152,1.389,7.374,7.374,0,0,1-.2,1.036A4.17,4.17,0,0,1,878.445,4028.96Z" transform="translate(-870.651 -4009.008)" fill="#344154"/>
          </g>
          <g id="Grupo_54044" data-name="Grupo 54044" transform="translate(61.732 32.503)">
            <path id="Trazado_101252" data-name="Trazado 101252" d="M976.419,3972.292a8.063,8.063,0,0,1-1.065-.471c-.678-.315-1.663-.763-2.915-1.221a21.883,21.883,0,0,0-4.518-1.142,14.946,14.946,0,0,0-5.649.279,11.308,11.308,0,0,0-4.963,2.617,9.552,9.552,0,0,0-2.551,3.809,7.714,7.714,0,0,0-.431,3.076c.055.741.172,1.142.132,1.151a.922.922,0,0,1-.1-.285,5.486,5.486,0,0,1-.175-.851,7.356,7.356,0,0,1,.326-3.174,9.574,9.574,0,0,1,2.566-3.975,11.44,11.44,0,0,1,5.106-2.728,14.911,14.911,0,0,1,5.787-.257,20.781,20.781,0,0,1,4.565,1.234,27.084,27.084,0,0,1,2.887,1.338c.329.179.583.323.751.428S976.424,3972.281,976.419,3972.292Z" transform="translate(-954.13 -3968.95)" fill="#344154"/>
          </g>
          <g id="Grupo_54045" data-name="Grupo 54045" transform="translate(79.685 3.828)">
            <path id="Trazado_101253" data-name="Trazado 101253" d="M989.436,3928.828c.009-.009.076.049.194.168a5.427,5.427,0,0,1,.492.544,8.341,8.341,0,0,1,1.324,2.357,9.587,9.587,0,0,1,.566,3.972,9.74,9.74,0,0,1-1.554,4.658,9.462,9.462,0,0,1-3.707,3.219,9.877,9.877,0,0,1-3.877,1.029,8.7,8.7,0,0,1-2.691-.248,5.591,5.591,0,0,1-.7-.224c-.157-.059-.237-.095-.233-.107a12.3,12.3,0,0,0,3.6.316,9.979,9.979,0,0,0,3.742-1.073,9.319,9.319,0,0,0,3.551-3.117,9.672,9.672,0,0,0,1.051-8.336A11.737,11.737,0,0,0,989.436,3928.828Z" transform="translate(-979.251 -3928.827)" fill="#344154"/>
          </g>
          <g id="Grupo_54046" data-name="Grupo 54046" transform="translate(30.793 26.905)">
            <path id="Trazado_101254" data-name="Trazado 101254" d="M923.255,3961.261a103.62,103.62,0,0,1-12.417.095,103.62,103.62,0,0,1,12.417-.095Z" transform="translate(-910.838 -3961.116)" fill="#344154"/>
          </g>
        </g>
      </g>
    </g>
  </g>
</svg>
