<svg xmlns="http://www.w3.org/2000/svg" xmlns:xlink="http://www.w3.org/1999/xlink" width="173.5" height="173.5" viewBox="0 0 173.5 173.5">
  <defs>
    <filter id="Trazado_896985" x="0" y="0" width="173.5" height="173.5" filterUnits="userSpaceOnUse">
      <feOffset dy="3" input="SourceAlpha"/>
      <feGaussianBlur stdDeviation="3" result="blur"/>
      <feFlood flood-opacity="0.161"/>
      <feComposite operator="in" in2="blur"/>
      <feComposite in="SourceGraphic"/>
    </filter>
  </defs>
  <g id="Grupo_1177022" data-name="Grupo 1177022" transform="translate(8983.98 253.953)">
    <g id="Grupo_1176849" data-name="Grupo 1176849" transform="translate(-9255.031 -4816.953)">
      <g id="Grupo_1111318" data-name="Grupo 1111318" transform="translate(280.051 4569)">
        <g id="Grupo_1109826" data-name="Grupo 1109826" transform="translate(0 0)">
          <g id="Grupo_1098742" data-name="Grupo 1098742">
            <g transform="matrix(1, 0, 0, 1, -9, -6)" filter="url(#Trazado_896985)">
              <g id="Trazado_896985-2" data-name="Trazado 896985" transform="translate(9 6)" fill="#fd9826" opacity="0.859">
                <path d="M 77.74990081787109 154 C 67.45556640625 154 57.46996307373047 151.9841613769531 48.07046508789062 148.0085144042969 C 43.55267333984375 146.0976715087891 39.19512939453125 143.7324523925781 35.11890029907227 140.9786071777344 C 31.08102607727051 138.2506713867188 27.28392219543457 135.1177673339844 23.83308792114258 131.6669311523438 C 20.38225555419922 128.2161102294922 17.24933815002441 124.4189987182617 14.52140045166016 120.381103515625 C 11.76754665374756 116.3048782348633 9.402359008789062 111.9473571777344 7.49148416519165 107.4295654296875 C 3.515838384628296 98.03004455566406 1.500005006790161 88.04444122314453 1.500005006790161 77.75010681152344 C 1.500005006790161 67.45555877685547 3.515838384628296 57.4699592590332 7.49148416519165 48.07045745849609 C 9.402359008789062 43.55266571044922 11.76754665374756 39.19512557983398 14.52140045166016 35.118896484375 C 17.24933815002441 31.08102035522461 20.38225555419922 27.28391647338867 23.83308792114258 23.83308410644531 C 27.28392219543457 20.38224983215332 31.08102607727051 17.24933242797852 35.11890029907227 14.52139568328857 C 39.19512939453125 11.76754188537598 43.55267333984375 9.40235424041748 48.07046508789062 7.491479396820068 C 57.46996307373047 3.515833377838135 67.45556640625 1.5 77.74990081787109 1.5 C 88.04423522949219 1.5 98.02983856201172 3.515833377838135 107.4293365478516 7.491479396820068 C 111.9471282958984 9.40235424041748 116.3046722412109 11.76754188537598 120.3808975219727 14.52139568328857 C 124.4187774658203 17.24933242797852 128.2158813476562 20.38224983215332 131.6667175292969 23.83308410644531 C 135.1175537109375 27.28391647338867 138.2504577636719 31.08102035522461 140.9783935546875 35.118896484375 C 143.7322540283203 39.19512557983398 146.0974426269531 43.55266571044922 148.0083160400391 48.07045745849609 C 151.9839630126953 57.4699592590332 153.9998016357422 67.45555877685547 153.9998016357422 77.74989318847656 C 153.9998016357422 88.04444122314453 151.9839630126953 98.03004455566406 148.0083160400391 107.4295654296875 C 146.0974426269531 111.9473571777344 143.7322540283203 116.3048782348633 140.9783935546875 120.381103515625 C 138.2504577636719 124.4189987182617 135.1175537109375 128.2161102294922 131.6667175292969 131.6669311523438 C 128.2158813476562 135.1177673339844 124.4187774658203 138.2506713867188 120.3808975219727 140.9786071777344 C 116.3046722412109 143.7324523925781 111.9471282958984 146.0976715087891 107.4293365478516 148.0085144042969 C 98.02983856201172 151.9841613769531 88.04423522949219 154 77.74990081787109 154 Z" stroke="none"/>
                <path d="M 77.74990081787109 3 C 67.65740203857422 3 57.86840057373047 4.9759521484375 48.65479278564453 8.87298583984375 C 44.22618103027344 10.74612426757812 39.95457458496094 13.064697265625 35.95859527587891 15.76432800292969 C 31.99983215332031 18.43882751464844 28.27707672119141 21.51040649414062 24.89372253417969 24.89373779296875 C 21.51040649414062 28.27706146240234 18.43881225585938 31.99982452392578 15.76431274414062 35.95861053466797 C 13.06471252441406 39.95456695556641 10.74612426757812 44.2261962890625 8.872970581054688 48.65478515625 C 4.975936889648438 57.86839294433594 2.999984741210938 67.65739440917969 2.999984741210938 77.75010681152344 C 2.999984741210938 87.84260559082031 4.975936889648438 97.63160705566406 8.872970581054688 106.84521484375 C 10.74612426757812 111.2738037109375 13.06471252441406 115.5454330444336 15.76431274414062 119.541389465332 C 18.43881225585938 123.5001754760742 21.51040649414062 127.2229309082031 24.89372253417969 130.6062622070312 C 28.27707672119141 133.9895935058594 31.99983215332031 137.0611724853516 35.95859527587891 139.7356719970703 C 39.95457458496094 142.435302734375 44.22618103027344 144.7538757324219 48.65479278564453 146.6270141601562 C 57.86840057373047 150.5240478515625 67.65740203857422 152.5 77.74990081787109 152.5 C 87.84239959716797 152.5 97.63140106201172 150.5240478515625 106.8450088500977 146.6270141601562 C 111.2736206054688 144.7538757324219 115.5452270507812 142.435302734375 119.5411834716797 139.7356719970703 C 123.4999694824219 137.0611724853516 127.2227249145508 133.9895935058594 130.6060485839844 130.6062622070312 C 133.9893798828125 127.2229309082031 137.0609741210938 123.5001754760742 139.7354736328125 119.541389465332 C 142.4350891113281 115.5454330444336 144.753662109375 111.2738265991211 146.6268157958984 106.84521484375 C 150.5238342285156 97.63160705566406 152.4997863769531 87.84260559082031 152.4997863769531 77.74989318847656 C 152.4997863769531 67.65739440917969 150.5238342285156 57.86839294433594 146.6268157958984 48.65478515625 C 144.753662109375 44.22617340087891 142.4350891113281 39.95456695556641 139.7354736328125 35.95861053466797 C 137.0609741210938 31.99982452392578 133.9893798828125 28.27706146240234 130.6060485839844 24.89373779296875 C 127.2227249145508 21.51040649414062 123.4999694824219 18.43882751464844 119.5411834716797 15.76432800292969 C 115.5452270507812 13.064697265625 111.2736206054688 10.74612426757812 106.8450088500977 8.87298583984375 C 97.63140106201172 4.9759521484375 87.84239959716797 3 77.74990081787109 3 M 77.74990081787109 0 C 120.6899871826172 0 155.4997863769531 34.80980682373047 155.4997863769531 77.74989318847656 L 155.4997863769531 77.75010681152344 C 155.4997863769531 120.6902008056641 120.6899871826172 155.5 77.74990081787109 155.5 C 34.809814453125 155.5 -1.52587890625e-05 120.6902008056641 -1.52587890625e-05 77.75010681152344 L -1.52587890625e-05 77.74989318847656 C -1.52587890625e-05 34.80980682373047 34.809814453125 0 77.74990081787109 0 Z" stroke="none" fill="#fff"/>
              </g>
            </g>
          </g>
        </g>
      </g>
    </g>
    <g id="financial-report_3958212" transform="translate(-8944.854 -215.854)">
      <g id="Grupo_1177039" data-name="Grupo 1177039" transform="translate(1.544 1.544)">
        <g id="Grupo_1177024" data-name="Grupo 1177024" transform="translate(0 64.834)">
          <path id="Trazado_1032297" data-name="Trazado 1032297" d="M41.135,43V64.611H1V43H41.135Z" transform="translate(-1 -43)" fill="#b4dd7f"/>
        </g>
        <g id="Grupo_1177025" data-name="Grupo 1177025" transform="translate(40.135 64.834)">
          <path id="Trazado_1032298" data-name="Trazado 1032298" d="M36.262,44.544V63.068a1.548,1.548,0,0,1-1.544,1.544H27V43h7.718A1.548,1.548,0,0,1,36.262,44.544Z" transform="translate(-27 -43)" fill="#8cc152"/>
        </g>
        <g id="Grupo_1177026" data-name="Grupo 1177026" transform="translate(9.416 0.154)">
          <path id="Trazado_1032299" data-name="Trazado 1032299" d="M19.295,1.1V13.295H7.1a1.254,1.254,0,0,1,.293-.448L18.847,1.393a1.254,1.254,0,0,1,.448-.293Z" transform="translate(-7.1 -1.1)" fill="#fcd770"/>
        </g>
        <g id="Grupo_1177027" data-name="Grupo 1177027" transform="translate(9.262)">
          <path id="Trazado_1032300" data-name="Trazado 1032300" d="M59.485,18.521a21.612,21.612,0,0,0,9.262,41.139H60.766a15.9,15.9,0,0,0-13.631,7.718,1.548,1.548,0,0,0-1.544-1.544H7V59.273a12.718,12.718,0,0,0,3.087.386,12.349,12.349,0,1,0,0-24.7A12.718,12.718,0,0,0,7,35.347V13.982a1.51,1.51,0,0,1,.139-.633h12.21V1.139A1.51,1.51,0,0,1,19.982,1H57.941a1.548,1.548,0,0,1,1.544,1.544Z" transform="translate(-7 -1)" fill="#e6e9ed"/>
        </g>
        <g id="Grupo_1177028" data-name="Grupo 1177028" transform="translate(67.921 64.741)">
          <path id="Trazado_1032301" data-name="Trazado 1032301" d="M53.629,42.94l.015.154a3.1,3.1,0,0,0-1.559.849,3.018,3.018,0,0,0-.911,2.177,3.1,3.1,0,0,0,3.087,3.087,3.11,3.11,0,0,0-3.087,3.087,3.1,3.1,0,0,0,3.087,3.087,3.11,3.11,0,0,0-3.087,3.087,3.1,3.1,0,0,0,3.087,3.087,3.11,3.11,0,0,0-3.087,3.087,3.1,3.1,0,0,0,3.087,3.087,3.1,3.1,0,0,1-3.087,3.087H48.087A3.1,3.1,0,0,1,45,67.731V46.4c2.13-1.806,2.671-2.547,3.087-3.365h4.631a4.446,4.446,0,0,0,.911-.093Z" transform="translate(-45 -42.94)" fill="#b27946"/>
        </g>
        <g id="Grupo_1177029" data-name="Grupo 1177029" transform="translate(49.397 58.659)">
          <path id="Trazado_1032302" data-name="Trazado 1032302" d="M51.524,62.155v7.718H44.176A15.823,15.823,0,0,1,33,65.242V46.718A15.9,15.9,0,0,1,46.631,39h15.7a1.548,1.548,0,0,1,1.544,1.544,4.62,4.62,0,0,1-1.358,3.273,4.538,4.538,0,0,1-2.362,1.266,4.446,4.446,0,0,1-.911.093H54.611c-.417.818-.957,1.559-3.087,3.365Z" transform="translate(-33 -39)" fill="#f0d0b4"/>
        </g>
        <g id="Grupo_1177030" data-name="Grupo 1177030" transform="translate(74.096 64.834)">
          <path id="Trazado_1032303" data-name="Trazado 1032303" d="M55.175,43a3.1,3.1,0,0,1,3.087,3.087,3.11,3.11,0,0,1-3.087,3.087H52.087A3.1,3.1,0,0,1,49,46.087a3.018,3.018,0,0,1,.911-2.177,3.1,3.1,0,0,1,1.559-.849A2.7,2.7,0,0,1,52.087,43Z" transform="translate(-49 -43)" fill="#f0d0b4"/>
        </g>
        <g id="Grupo_1177031" data-name="Grupo 1177031" transform="translate(74.096 71.009)">
          <path id="Trazado_1032304" data-name="Trazado 1032304" d="M55.175,47a3.1,3.1,0,0,1,3.087,3.087,3.11,3.11,0,0,1-3.087,3.087H52.087A3.1,3.1,0,0,1,49,50.087,3.11,3.11,0,0,1,52.087,47Z" transform="translate(-49 -47)" fill="#f0d0b4"/>
        </g>
        <g id="Grupo_1177032" data-name="Grupo 1177032" transform="translate(74.096 83.358)">
          <path id="Trazado_1032305" data-name="Trazado 1032305" d="M55.175,55a3.1,3.1,0,0,1,3.087,3.087,3.11,3.11,0,0,1-3.087,3.087H52.087A3.1,3.1,0,0,1,49,58.087,3.11,3.11,0,0,1,52.087,55Z" transform="translate(-49 -55)" fill="#f0d0b4"/>
        </g>
        <g id="Grupo_1177033" data-name="Grupo 1177033" transform="translate(74.096 77.183)">
          <path id="Trazado_1032306" data-name="Trazado 1032306" d="M55.175,51a3.1,3.1,0,0,1,3.087,3.087,3.11,3.11,0,0,1-3.087,3.087H52.087A3.1,3.1,0,0,1,49,54.087,3.11,3.11,0,0,1,52.087,51Z" transform="translate(-49 -51)" fill="#f0d0b4"/>
        </g>
        <g id="Grupo_1177034" data-name="Grupo 1177034" transform="translate(12.349 37.573)">
          <path id="Trazado_1032307" data-name="Trazado 1032307" d="M17.737,25.34A12.356,12.356,0,0,1,9,46.426V34.077Z" transform="translate(-9 -25.34)" fill="#ef7385"/>
        </g>
        <g id="Grupo_1177035" data-name="Grupo 1177035" transform="translate(3.612 33.961)">
          <path id="Trazado_1032308" data-name="Trazado 1032308" d="M20.814,26.612l-8.737,8.737L3.34,26.612a12.537,12.537,0,0,1,5.65-3.226A12.718,12.718,0,0,1,12.077,23,12.372,12.372,0,0,1,20.814,26.612Z" transform="translate(-3.34 -23)" fill="#b4dd7f"/>
        </g>
        <g id="Grupo_1177036" data-name="Grupo 1177036" transform="translate(0 37.573)">
          <path id="Trazado_1032309" data-name="Trazado 1032309" d="M13.349,34.077V46.426a12.718,12.718,0,0,1-3.087-.386,12.363,12.363,0,0,1-5.65-20.7Z" transform="translate(-1 -25.34)" fill="#ffeaa7"/>
        </g>
        <g id="Grupo_1177037" data-name="Grupo 1177037" transform="translate(49.397 15.437)">
          <path id="Trazado_1032310" data-name="Trazado 1032310" d="M54.611,11a21.608,21.608,0,1,1-9.262,2.084A21.615,21.615,0,0,1,54.611,11ZM70.048,32.611A15.437,15.437,0,1,0,54.611,48.048,15.442,15.442,0,0,0,70.048,32.611Z" transform="translate(-33 -11)" fill="#ffeaa7"/>
        </g>
        <g id="Grupo_1177038" data-name="Grupo 1177038" transform="translate(55.572 21.611)">
          <circle id="Elipse_13115" data-name="Elipse 13115" cx="15.5" cy="15.5" r="15.5" transform="translate(-0.262 -0.301)" fill="#fcd770"/>
        </g>
      </g>
      <g id="Grupo_1177040" data-name="Grupo 1177040">
        <path id="Trazado_1032311" data-name="Trazado 1032311" d="M50.175,21.371V18H47.087v3.087H44v4.631a4.637,4.637,0,0,0,4.631,4.631,1.546,1.546,0,0,1,1.544,1.544v1.544H48.631a1.546,1.546,0,0,1-1.544-1.544V30.349H44v1.544a4.625,4.625,0,0,0,3.087,4.347v3.371h3.087V36.524h3.087V31.893a4.637,4.637,0,0,0-4.631-4.631,1.546,1.546,0,0,1-1.544-1.544V24.175h1.544a1.546,1.546,0,0,1,1.544,1.544v1.544h3.087V25.718A4.625,4.625,0,0,0,50.175,21.371Z" transform="translate(23.921 9.786)"/>
        <path id="Trazado_1032312" data-name="Trazado 1032312" d="M52.98,14a16.98,16.98,0,1,0,16.98,16.98A17,17,0,0,0,52.98,14Zm0,30.873A13.893,13.893,0,1,1,66.873,30.98,13.91,13.91,0,0,1,52.98,44.873Z" transform="translate(19.572 7.611)"/>
        <path id="Trazado_1032313" data-name="Trazado 1032313" d="M95.707,38.592a23.091,23.091,0,0,0-30.873-21.8V3.087A3.09,3.09,0,0,0,61.747,0H23.794a3.066,3.066,0,0,0-2.183.9L10.167,12.349a3.066,3.066,0,0,0-.9,2.183V34.771a13.871,13.871,0,0,0,0,26.165v3.9H1.544v3.087H40.135V86.445H1.544v3.087H49.4a3.051,3.051,0,0,0,1.925-.693,17.208,17.208,0,0,0,10.8,3.78h6.085a4.625,4.625,0,0,0,4.347,3.087h3.087a4.625,4.625,0,0,0,4.347-3.087h1.826A4.611,4.611,0,0,0,85.241,84.9a4.56,4.56,0,0,0,0-6.175,4.56,4.56,0,0,0,0-6.175A4.594,4.594,0,0,0,82.464,64.9a6.111,6.111,0,0,0,.894-3.152,3.074,3.074,0,0,0-.96-2.228A23.163,23.163,0,0,0,95.707,38.592ZM21.611,5.27v7.079H14.532ZM15.437,48.493l7.1-7.1a10.771,10.771,0,0,1-7.1,17.141Zm-1.544-2.822L7.434,39.212a10.719,10.719,0,0,1,12.917,0ZM3.087,47.854a10.733,10.733,0,0,1,2.164-6.459l7.1,7.1V58.536A10.813,10.813,0,0,1,3.087,47.854ZM49.4,86.445H43.223V67.921H49.4ZM12.349,64.834V61.656a13.893,13.893,0,1,0,0-27.6V15.437H24.7V3.087H61.747V18.129a23.137,23.137,0,0,0-.2,40.831,17.562,17.562,0,0,0-10.63,6.292,3.05,3.05,0,0,0-1.524-.418ZM75.64,92.62H72.552a1.545,1.545,0,0,1-1.544-1.544V70.549a9.726,9.726,0,0,0,2.444-2.627h.928a4.489,4.489,0,0,0,.92,4.631,4.56,4.56,0,0,0,0,6.175,4.56,4.56,0,0,0,0,6.175,4.586,4.586,0,0,0,1.44,7.252,1.536,1.536,0,0,1-1.1.466Zm7.718-16.98a1.545,1.545,0,0,1-1.544,1.544H78.727a1.544,1.544,0,0,1,0-3.087h3.087A1.545,1.545,0,0,1,83.358,75.64Zm0,6.175a1.545,1.545,0,0,1-1.544,1.544H78.727a1.544,1.544,0,0,1,0-3.087h3.087A1.545,1.545,0,0,1,83.358,81.814Zm-1.544,7.718H78.727a1.544,1.544,0,0,1,0-3.087h3.087a1.544,1.544,0,0,1,0,3.087Zm1.544-20.068a1.545,1.545,0,0,1-1.544,1.544H78.727a1.544,1.544,0,0,1,0-3.087h3.087A1.545,1.545,0,0,1,83.358,69.465Zm-3.087-7.718a3.09,3.09,0,0,1-3.087,3.087H71.6l-.426.854a6.743,6.743,0,0,1-3.926,3.405l-1.357.452.977,2.927,1.054-.352v6.962a15.839,15.839,0,0,0-5.687-3.364l-.977,2.927a12.76,12.76,0,0,1,6.542,5l.122.184v5.707h-5.8a14.159,14.159,0,0,1-9.637-3.768V68.4a14.418,14.418,0,0,1,12.088-6.652Zm-7.718-3.087A20.068,20.068,0,1,1,92.62,38.592,20.091,20.091,0,0,1,72.552,58.659Z"/>
        <path id="Trazado_1032314" data-name="Trazado 1032314" d="M20,38h3.087v3.087H20Z" transform="translate(10.873 20.659)"/>
        <path id="Trazado_1032315" data-name="Trazado 1032315" d="M24,38h3.087v3.087H24Z" transform="translate(13.048 20.659)"/>
        <path id="Trazado_1032316" data-name="Trazado 1032316" d="M28,38h3.087v3.087H28Z" transform="translate(15.223 20.659)"/>
        <path id="Trazado_1032317" data-name="Trazado 1032317" d="M20,34H35.437v3.087H20Z" transform="translate(10.873 18.485)"/>
        <path id="Trazado_1032318" data-name="Trazado 1032318" d="M20,30H35.437v3.087H20Z" transform="translate(10.873 16.31)"/>
        <path id="Trazado_1032319" data-name="Trazado 1032319" d="M20,26h6.175v3.087H20Z" transform="translate(10.873 14.135)"/>
        <path id="Trazado_1032320" data-name="Trazado 1032320" d="M26,26h6.175v3.087H26Z" transform="translate(14.135 14.135)"/>
        <path id="Trazado_1032321" data-name="Trazado 1032321" d="M20,6h6.175V9.087H20Z" transform="translate(10.873 3.262)"/>
        <path id="Trazado_1032322" data-name="Trazado 1032322" d="M26,6H41.437V9.087H26Z" transform="translate(14.135 3.262)"/>
        <path id="Trazado_1032323" data-name="Trazado 1032323" d="M22,10H43.611v3.087H22Z" transform="translate(11.961 5.437)"/>
        <path id="Trazado_1032324" data-name="Trazado 1032324" d="M12,14H45.961v3.087H12Z" transform="translate(6.524 7.611)"/>
        <path id="Trazado_1032325" data-name="Trazado 1032325" d="M12,18H42.873v3.087H12Z" transform="translate(6.524 9.786)"/>
      </g>
    </g>
  </g>
</svg>
