<svg xmlns="http://www.w3.org/2000/svg" width="505.051" height="332" viewBox="0 0 505.051 332">
  <g id="Grupo_1111445" data-name="Grupo 1111445" transform="translate(-165.949 -5653.972)">
    <rect id="Rectángulo_404558" data-name="Rectángulo 404558" width="491" height="95" transform="translate(180 5890.973)" fill="#fed6a8"/>
    <g id="freepik--background-complete--inject-11" transform="translate(165.949 5653.972)">
      <rect id="Rectángulo_5074" data-name="Rectángulo 5074" width="211.31" height="250.167" transform="translate(14.051 0.012)" fill="#ebebeb"/>
      <rect id="Rectángulo_5075" data-name="Rectángulo 5075" width="89.231" height="111.272" transform="translate(25.568 10.033)" fill="#fff"/>
      <rect id="Rectángulo_5076" data-name="Rectángulo 5076" width="89.231" height="111.272" transform="translate(124.612 10.033)" fill="#fff"/>
      <rect id="Rectángulo_5077" data-name="Rectángulo 5077" width="89.231" height="111.272" transform="translate(25.568 97.786)" fill="#fff"/>
      <rect id="Rectángulo_5078" data-name="Rectángulo 5078" width="89.231" height="111.272" transform="translate(124.612 97.786)" fill="#fff"/>
      <rect id="Rectángulo_5079" data-name="Rectángulo 5079" width="50.055" height="331.74" transform="translate(0 0.012)" fill="#dbdbdb"/>
      <path id="Trazado_99202" data-name="Trazado 99202" d="M350.32,4056.523l.38,31.715.147,31.717.258,63.431-.258,63.432-.135,31.716-.392,31.716-.393-31.716-.135-31.716-.27-63.432.27-63.431.135-31.717Z" transform="translate(-295.707 -4039.499)" fill="#ebebeb"/>
      <path id="Trazado_99203" data-name="Trazado 99203" d="M335.488,4062.316l.392,32.182.221,32.183.184,64.364-.184,64.377-.221,32.182-.392,32.183L335.1,4287.6l-.221-32.182-.184-64.377.184-64.364.233-32.183Z" transform="translate(-303.861 -4036.313)" fill="#ebebeb"/>
      <path id="Trazado_99204" data-name="Trazado 99204" d="M342.9,4067.579l.392,32.943.135,32.932.27,65.883-.27,65.875-.135,32.941-.392,32.934-.393-32.934-.135-32.941-.27-65.875.27-65.883.135-32.932Z" transform="translate(-299.784 -4033.42)" fill="#ebebeb"/>
      <path id="Trazado_99205" data-name="Trazado 99205" d="M329.967,4057.836l.393,34.831.135,34.82.27,69.651-.27,69.652-.135,34.83-.393,34.821-.38-34.821-.147-34.83-.258-69.652.258-69.651.147-34.82Z" transform="translate(-306.889 -4038.776)" fill="#ebebeb"/>
      <path id="Trazado_1031800" data-name="Trazado 1031800" d="M329.967,4057.836l.393,34.831.135,34.82.27,69.651-.27,69.652-.135,34.83-.393,34.821-.38-34.821-.147-34.83-.258-69.652.258-69.651.147-34.82Z" transform="translate(-318.406 -4038.776)" fill="#ebebeb"/>
      <rect id="Rectángulo_5080" data-name="Rectángulo 5080" width="50.055" height="297.74" transform="translate(175.305)" fill="#dbdbdb"/>
      <path id="Trazado_99206" data-name="Trazado 99206" d="M434.318,4056.523l.392,31.715.135,31.717.27,63.431-.27,63.432-.135,31.716-.392,31.716-.38-31.716-.147-31.716-.258-63.432.258-63.431.147-31.717Z" transform="translate(-249.519 -4039.499)" fill="#ebebeb"/>
      <path id="Trazado_99207" data-name="Trazado 99207" d="M449.153,4062.316l.393,32.182.221,32.183.184,64.364-.184,64.377-.221,32.182-.393,32.183-.393-32.183-.221-32.182-.184-64.377.184-64.364.233-32.183Z" transform="translate(-241.369 -4036.313)" fill="#ebebeb"/>
      <path id="Trazado_99208" data-name="Trazado 99208" d="M441.733,4067.579l.393,32.943.135,32.932.27,65.883-.27,65.875-.135,32.941-.393,32.934-.393-32.934-.135-32.941-.258-65.875.258-65.883.147-32.932Z" transform="translate(-245.442 -4033.42)" fill="#ebebeb"/>
      <path id="Trazado_99209" data-name="Trazado 99209" d="M454.67,4057.836l.38,34.831.147,34.82.27,69.651-.27,69.652-.135,34.83-.393,34.821-.393-34.821-.135-34.83-.27-69.652.27-69.651.135-34.82Z" transform="translate(-238.336 -4038.776)" fill="#ebebeb"/>
      <path id="Trazado_99210" data-name="Trazado 99210" d="M635.822,4210.677a3.056,3.056,0,0,1,3.078,3.029v1.633a26.2,26.2,0,0,1,11.1,3.936,3.823,3.823,0,0,1,2.146,3.447,3.937,3.937,0,0,1-3.936,3.938h-.073a4.145,4.145,0,0,1-2.148-.652,26.315,26.315,0,0,0-7.358-3.151v13.762c10.892,2.723,15.552,7.091,15.552,14.719,0,7.874-6.133,13.112-15.258,13.97v4.293a3.055,3.055,0,0,1-3.017,3.09h-.062a3.116,3.116,0,0,1-3.152-3.078v-4.452a30.93,30.93,0,0,1-14.718-5.581,3.962,3.962,0,1,1,4.367-6.6,25.514,25.514,0,0,0,10.61,4.807V4243.71c-10.463-2.724-15.332-6.662-15.332-14.721,0-7.664,6.133-12.976,15.05-13.687v-1.509a3.114,3.114,0,0,1,3.115-3.116Zm-2.87,24.435v-12.684c-4.587.43-6.881,2.87-6.881,6.023s1.361,4.869,6.881,6.661Zm5.654,9.958v13.051c4.587-.5,7.1-2.8,7.1-6.232,0-3.163-1.581-5.1-7.1-6.819Z" transform="translate(-149.181 -4013.75)" fill="#ebebeb"/>
      <path id="Trazado_99211" data-name="Trazado 99211" d="M492.38,4048.752a3.053,3.053,0,0,1,3.078,3.029v1.632a26.2,26.2,0,0,1,11.1,3.937,3.855,3.855,0,0,1,2.146,3.447,3.938,3.938,0,0,1-3.936,3.938h-.074a4.142,4.142,0,0,1-2.146-.651,26.49,26.49,0,0,0-7.36-3.152v13.762c10.892,2.723,15.552,7.09,15.552,14.719,0,7.887-6.132,13.113-15.258,13.971v4.343a3.053,3.053,0,0,1-3.03,3.078H492.4a3.114,3.114,0,0,1-3.151-3.078h0v-4.453a30.9,30.9,0,0,1-14.72-5.58,3.953,3.953,0,1,1,4.33-6.6,25.508,25.508,0,0,0,10.61,4.807v-14.117c-10.463-2.723-15.332-6.66-15.332-14.718,0-7.666,6.133-12.966,15.05-13.689v-1.545a3.115,3.115,0,0,1,3.151-3.079Zm-2.87,24.433V4060.5c-4.587.429-6.881,2.87-6.881,6.022S483.989,4071.393,489.51,4073.185Zm5.654,9.958v13.039c4.587-.5,7.1-2.8,7.1-6.23C502.266,4086.8,500.684,4084.86,495.163,4083.143Z" transform="translate(-228.063 -4043.772)" fill="#ebebeb"/>
    </g>
    <g id="freepik--Plant--inject-11" transform="translate(545.096 5781.084)">
      <path id="Trazado_99212" data-name="Trazado 99212" d="M593.15,4264.794c15.22,14.9,17.769,37.945,14.563,58.129-.087.457-.8.333-.8-.1,0-4.595.142-9.142.124-13.688l-.228-.608c-3.977-2.854-7.61-6.146-9.883-10.616-2.549-5-3.548-10.634-5.489-15.856-.18-.494.352-.353.7-.1,9.255,6.829,12.2,14.173,14.858,23.99a81.642,81.642,0,0,0-1.608-15.286c-2-9.313-5.954-18.548-12.651-25.464C592.521,4264.937,592.912,4264.528,593.15,4264.794Z" transform="translate(-576.529 -4230.912)" fill="#344154"/>
      <path id="Trazado_99213" data-name="Trazado 99213" d="M592.794,4268.541c-2.615.085-4.261,4.271-6.3,5.488a1.968,1.968,0,0,1-2.764-.333c-.031-.04-.061-.08-.089-.123-2.017-2.854.751-6.3,3.358-8.247-1.9.77-3.406,2.111-5.423,2.5a1.9,1.9,0,0,1-2.387-1.24,1.954,1.954,0,0,1-.058-.233c-.885-3.806,3.939-5.555,7.249-5.632-1.607-1.123-6.2-4.147-3.757-5.641s7.866,2.853,9.626,4.262c2.588,2.1,5.708,5.241,5.793,8.562C598.178,4271.7,594.83,4269.34,592.794,4268.541Z" transform="translate(-579.027 -4232.918)" fill="#ef9548"/>
      <path id="Trazado_99214" data-name="Trazado 99214" d="M592.794,4268.541c-2.615.085-4.261,4.271-6.3,5.488a1.968,1.968,0,0,1-2.764-.333c-.031-.04-.061-.08-.089-.123-2.017-2.854.751-6.3,3.358-8.247-1.9.77-3.406,2.111-5.423,2.5a1.9,1.9,0,0,1-2.387-1.24,1.954,1.954,0,0,1-.058-.233c-.885-3.806,3.939-5.555,7.249-5.632-1.607-1.123-6.2-4.147-3.757-5.641s7.866,2.853,9.626,4.262c2.588,2.1,5.708,5.241,5.793,8.562C598.178,4271.7,594.83,4269.34,592.794,4268.541Z" transform="translate(-579.027 -4232.918)" fill="#ef9548" opacity="0.1" style="isolation: isolate"/>
      <path id="Trazado_99215" data-name="Trazado 99215" d="M592.949,4268.586c-3.347-1.521-9.779.676-10.33-.588-1.1-2.587,4.034-4.348,6.811-4.69-2.559-.695-7.448-1.8-7.305-4.262.19-3.006,7.5-.418,11.215,2.416,4.671,3.586,4.642,7.039,3.871,7.734C596.146,4270.137,593.5,4268.844,592.949,4268.586Z" transform="translate(-578.403 -4232.326)" fill="#ef9548"/>
      <path id="Trazado_99216" data-name="Trazado 99216" d="M624.638,4263.567c-15.771,14.268-19.2,37.24-16.761,57.53.067.457.78.361.8-.067.172-4.593.209-9.149.391-13.687.1-.2.171-.391.256-.6,4.082-2.729,7.858-5.85,10.284-10.236,2.729-4.9,3.947-10.463,6.088-15.628.2-.5-.343-.371-.7-.123-9.512,6.468-12.727,13.7-15.762,23.4a81.724,81.724,0,0,1,2.2-15.22c2.35-9.235,6.659-18.312,13.6-24.96A.283.283,0,0,0,624.638,4263.567Z" transform="translate(-573.346 -4231.158)" fill="#344154"/>
      <path id="Trazado_99217" data-name="Trazado 99217" d="M624.9,4267.345c2.607.191,4.09,4.432,6.078,5.708a1.97,1.97,0,0,0,2.78-.175c.047-.054.09-.109.131-.167,2.121-2.739-.513-6.326-3.043-8.372,1.835.838,3.329,2.246,5.317,2.7a1.9,1.9,0,0,0,2.441-1.131,1.811,1.811,0,0,0,.07-.24c1.028-3.8-3.728-5.706-7.03-5.915,1.647-1.047,6.354-3.91,3.968-5.489s-7.971,2.54-9.788,3.9c-2.663,2-5.869,5.013-6.107,8.294C619.425,4270.3,622.859,4268.069,624.9,4267.345Z" transform="translate(-570.815 -4233.092)" fill="#ef9548"/>
      <path id="Trazado_99218" data-name="Trazado 99218" d="M624.9,4267.345c2.607.191,4.09,4.432,6.078,5.708a1.97,1.97,0,0,0,2.78-.175c.047-.054.09-.109.131-.167,2.121-2.739-.513-6.326-3.043-8.372,1.835.838,3.329,2.246,5.317,2.7a1.9,1.9,0,0,0,2.441-1.131,1.811,1.811,0,0,0,.07-.24c1.028-3.8-3.728-5.706-7.03-5.915,1.647-1.047,6.354-3.91,3.968-5.489s-7.971,2.54-9.788,3.9c-2.663,2-5.869,5.013-6.107,8.294C619.425,4270.3,622.859,4268.069,624.9,4267.345Z" transform="translate(-570.815 -4233.092)" fill="#ef9548" opacity="0.1" style="isolation: isolate"/>
      <path id="Trazado_99219" data-name="Trazado 99219" d="M624.158,4267.376c3.4-1.4,9.74,1.036,10.33-.209,1.208-2.531-3.852-4.5-6.611-4.947,2.577-.59,7.5-1.5,7.448-3.976-.067-3.015-7.487-.7-11.292,2-4.8,3.4-4.907,6.849-4.156,7.609C620.9,4268.8,623.616,4267.642,624.158,4267.376Z" transform="translate(-570.849 -4232.504)" fill="#ef9548"/>
      <path id="Trazado_99220" data-name="Trazado 99220" d="M610.371,4303.983a154.211,154.211,0,0,1-4.9,22.62.562.562,0,0,1-1.1-.218h0c1.036-6.972,2.929-13.812,3.966-20.785a105.449,105.449,0,0,0,1.208-21.335c-.666-11.748-3.852-24.247-11.519-33.436-.172-.219.19-.523.362-.324,15.342,17.893,12.907,39.829,12.888,41.8,2.179-7.41,4.415-15.9,12.633-23.439.352-.333.627-.172.571.38-1.465,13.737-5.29,20.928-13.251,28.252C611,4299.673,610.713,4301.843,610.371,4303.983Z" transform="translate(-575.201 -4233.792)" fill="#344154"/>
      <path id="Trazado_99221" data-name="Trazado 99221" d="M600.118,4255.681c-2.758-1.227-6.564,2.292-9.293,2.53a2.258,2.258,0,0,1-2.768-1.9c-.676-3.947,3.947-6.163,7.609-6.868-2.321-.143-4.6.476-6.887-.143a2.168,2.168,0,0,1-1.863-2.437,2.274,2.274,0,0,1,.065-.312c1.018-4.442,6.879-3.805,10.359-2.207-1.1-1.959-4.347-7.429-1.065-7.742s6.734,6.905,7.847,9.273c1.626,3.482,3.254,8.294,1.722,11.757C604.094,4261.664,601.812,4257.536,600.118,4255.681Z" transform="translate(-577.439 -4236.59)" fill="#ef9548"/>
      <path id="Trazado_99222" data-name="Trazado 99222" d="M600.118,4255.681c-2.758-1.227-6.564,2.292-9.293,2.53a2.258,2.258,0,0,1-2.768-1.9c-.676-3.947,3.947-6.163,7.609-6.868-2.321-.143-4.6.476-6.887-.143a2.168,2.168,0,0,1-1.863-2.437,2.274,2.274,0,0,1,.065-.312c1.018-4.442,6.879-3.805,10.359-2.207-1.1-1.959-4.347-7.429-1.065-7.742s6.734,6.905,7.847,9.273c1.626,3.482,3.254,8.294,1.722,11.757C604.094,4261.664,601.812,4257.536,600.118,4255.681Z" transform="translate(-577.439 -4236.59)" fill="#ef9548" opacity="0.1" style="isolation: isolate"/>
      <path id="Trazado_99223" data-name="Trazado 99223" d="M600.033,4256.062c-2.711-3.262-10.464-4.233-10.406-5.821.142-3.234,6.363-2.483,9.417-1.436-2.3-2.008-6.83-5.613-5.431-8.1,1.7-3.025,8,3.339,10.416,8.161,3.044,6.06,1.274,9.626.124,9.958C602.573,4259.277,600.48,4256.6,600.033,4256.062Z" transform="translate(-576.887 -4235.915)" fill="#ef9548"/>
      <path id="Trazado_99224" data-name="Trazado 99224" d="M622.467,4298.442l6.773,51.708H588.052c.846-4.584,8.513-51.774,8.513-51.774Z" transform="translate(-577.205 -4224.114)" fill="#ef9548"/>
    </g>
    <g id="freepik--Desk--inject-11" transform="translate(221.853 5905.958)">
      <path id="Trazado_99225" data-name="Trazado 99225" d="M310.085,4341.468l50.719-.228,50.719-.085L512.972,4341l101.439.152,50.729.085,50.719.228-50.719.238-50.729.085-101.439.153-101.448-.153-50.719-.085Z" transform="translate(-310.085 -4341.003)" fill="#344154"/>
    </g>
    <g id="freepik--Invoice--inject-11" transform="translate(521.247 5653.972)">
      <rect id="Rectángulo_5081" data-name="Rectángulo 5081" width="149.704" height="191.624" transform="translate(0)" fill="#ebebeb"/>
      <rect id="Rectángulo_5082" data-name="Rectángulo 5082" width="149.704" height="11.177" transform="translate(0 10.73)" fill="#344154"/>
      <path id="Trazado_99226" data-name="Trazado 99226" d="M517.622,4063.772h81.71l-6.858,12.014H517.622Z" transform="translate(-517.622 -4041.866)" fill="#344154"/>
      <path id="Trazado_99227" data-name="Trazado 99227" d="M517.622,4052.629h81.71l-3.367,4.423H517.622Z" transform="translate(-517.622 -4044.115)" fill="#ef9548"/>
      <path id="Trazado_99228" data-name="Trazado 99228" d="M517.622,4058.066h43.661l-3.367,4.432H517.622Z" transform="translate(-517.622 -4043.018)" fill="#ef9548"/>
      <rect id="Rectángulo_5083" data-name="Rectángulo 5083" width="122.309" height="9.408" transform="translate(13.698 78.286)" fill="#fff"/>
      <rect id="Rectángulo_5084" data-name="Rectángulo 5084" width="122.309" height="9.408" transform="translate(13.698 68.878)" fill="#ef9548"/>
      <rect id="Rectángulo_5085" data-name="Rectángulo 5085" width="122.309" height="9.408" transform="translate(13.698 87.684)" fill="#dbdbdb"/>
      <rect id="Rectángulo_5086" data-name="Rectángulo 5086" width="122.309" height="9.408" transform="translate(13.698 97.092)" fill="#fff"/>
      <rect id="Rectángulo_5087" data-name="Rectángulo 5087" width="122.309" height="9.408" transform="translate(13.698 106.499)" fill="#dbdbdb"/>
      <rect id="Rectángulo_5088" data-name="Rectángulo 5088" width="122.309" height="9.408" transform="translate(13.698 115.897)" fill="#fff"/>
      <rect id="Rectángulo_5089" data-name="Rectángulo 5089" width="122.309" height="9.408" transform="translate(13.698 125.305)" fill="#dbdbdb"/>
      <rect id="Rectángulo_5090" data-name="Rectángulo 5090" width="85.639" height="9.408" transform="translate(50.367 134.713)" fill="#ef9548"/>
      <rect id="Rectángulo_5091" data-name="Rectángulo 5091" width="36.67" height="65.834" transform="translate(13.698 68.878)" fill="#c7c7c7"/>
      <path id="Trazado_99229" data-name="Trazado 99229" d="M529.019,4118.519l61.154-.115,61.154.115-61.154.123Z" transform="translate(-515.321 -4030.834)" fill="#344154"/>
      <path id="Trazado_99230" data-name="Trazado 99230" d="M529.019,4126.346l61.154-.115,61.154.115-61.154.124Z" transform="translate(-515.321 -4029.254)" fill="#344154"/>
      <path id="Trazado_99231" data-name="Trazado 99231" d="M529.019,4134.175l61.154-.124,61.154.124-61.154.114Z" transform="translate(-515.321 -4027.676)" fill="#344154"/>
      <path id="Trazado_99232" data-name="Trazado 99232" d="M529.019,4141.993l61.154-.114,61.154.114-61.154.124Z" transform="translate(-515.321 -4026.095)" fill="#344154"/>
      <path id="Trazado_99233" data-name="Trazado 99233" d="M529.019,4149.819l61.154-.114,61.154.114-61.154.124Z" transform="translate(-515.321 -4024.515)" fill="#344154"/>
      <path id="Trazado_99234" data-name="Trazado 99234" d="M529.019,4157.649l61.154-.124,61.154.124-61.154.114Z" transform="translate(-515.321 -4022.936)" fill="#344154"/>
      <path id="Trazado_99235" data-name="Trazado 99235" d="M534.472,4106.789c3.9-.191,7.809-.209,11.709-.238s7.81,0,11.72.238c-3.91.2-7.81.208-11.72.236S538.372,4107.008,534.472,4106.789Z" transform="translate(-514.22 -4033.23)" fill="#344154"/>
      <path id="Trazado_99236" data-name="Trazado 99236" d="M534.472,4114.631c2.948-.2,5.907-.209,8.856-.237s5.907,0,8.865.237c-2.958.2-5.907.21-8.865.238S537.42,4114.831,534.472,4114.631Z" transform="translate(-514.22 -4031.647)" fill="#344154"/>
      <path id="Trazado_99237" data-name="Trazado 99237" d="M534.472,4122.459c3.9-.2,7.809-.209,11.709-.237s7.81,0,11.72.237c-3.91.2-7.81.209-11.72.238S538.372,4122.648,534.472,4122.459Z" transform="translate(-514.22 -4030.066)" fill="#344154"/>
      <path id="Trazado_99238" data-name="Trazado 99238" d="M534.472,4130.277c3.205-.189,6.421-.209,9.636-.237s6.43,0,9.645.237c-3.215.2-6.43.21-9.645.238S537.677,4130.477,534.472,4130.277Z" transform="translate(-514.22 -4028.488)" fill="#344154"/>
      <path id="Trazado_99239" data-name="Trazado 99239" d="M534.472,4138.1c3.9-.2,7.809-.209,11.709-.237s7.81,0,11.72.237c-3.91.2-7.81.209-11.72.237S538.372,4138.305,534.472,4138.1Z" transform="translate(-514.22 -4026.907)" fill="#344154"/>
      <path id="Trazado_99240" data-name="Trazado 99240" d="M534.472,4145.933c3.9-.2,7.809-.209,11.709-.238s7.81,0,11.72.238c-3.91.2-7.81.209-11.72.238S538.372,4146.123,534.472,4145.933Z" transform="translate(-514.22 -4025.327)" fill="#344154"/>
      <path id="Trazado_99241" data-name="Trazado 99241" d="M534.472,4153.75c2.368-.18,4.756-.229,7.106-.237s4.756.058,7.115.237c-2.369.19-4.756.229-7.115.238S536.84,4153.94,534.472,4153.75Z" transform="translate(-514.22 -4023.747)" fill="#344154"/>
      <path id="Trazado_99242" data-name="Trazado 99242" d="M566.659,4106.789c2.93-.191,5.869-.209,8.8-.238s5.879,0,8.809.238c-2.93.2-5.869.208-8.809.236S569.608,4107.008,566.659,4106.789Z" transform="translate(-507.722 -4033.23)" fill="#344154"/>
      <path id="Trazado_99243" data-name="Trazado 99243" d="M566.659,4114.631c2.93-.2,5.869-.209,8.8-.237s5.879,0,8.809.237c-2.93.2-5.869.21-8.809.238S569.608,4114.831,566.659,4114.631Z" transform="translate(-507.722 -4031.647)" fill="#344154"/>
      <path id="Trazado_99244" data-name="Trazado 99244" d="M566.659,4122.459c2.93-.2,5.869-.209,8.8-.237s5.879,0,8.809.237c-2.93.2-5.869.209-8.809.238S569.608,4122.648,566.659,4122.459Z" transform="translate(-507.722 -4030.066)" fill="#344154"/>
      <path id="Trazado_99245" data-name="Trazado 99245" d="M566.659,4130.277c2.93-.189,5.869-.209,8.8-.237s5.879,0,8.809.237c-2.93.2-5.869.21-8.809.238S569.608,4130.477,566.659,4130.277Z" transform="translate(-507.722 -4028.488)" fill="#344154"/>
      <path id="Trazado_99246" data-name="Trazado 99246" d="M566.659,4138.1c2.93-.2,5.869-.209,8.8-.237s5.879,0,8.809.237c-2.93.2-5.869.209-8.809.237S569.608,4138.305,566.659,4138.1Z" transform="translate(-507.722 -4026.907)" fill="#344154"/>
      <path id="Trazado_99247" data-name="Trazado 99247" d="M566.659,4145.933c2.93-.2,5.869-.209,8.8-.238s5.879,0,8.809.238c-2.93.2-5.869.209-8.809.238S569.608,4146.123,566.659,4145.933Z" transform="translate(-507.722 -4025.327)" fill="#344154"/>
      <path id="Trazado_99248" data-name="Trazado 99248" d="M566.659,4153.751c2.93-.189,5.869-.208,8.8-.237s5.879,0,8.809.237c-2.93.2-5.869.209-8.809.238S569.608,4153.951,566.659,4153.751Z" transform="translate(-507.722 -4023.748)" fill="#344154"/>
      <path id="Trazado_99249" data-name="Trazado 99249" d="M587.83,4106.789c2.94-.191,5.869-.209,8.809-.238s5.869,0,8.8.238c-2.93.2-5.87.208-8.8.236S590.77,4107.008,587.83,4106.789Z" transform="translate(-503.447 -4033.23)" fill="#344154"/>
      <path id="Trazado_99250" data-name="Trazado 99250" d="M592.856,4153.75a16.713,16.713,0,0,1,5.621,0A16.713,16.713,0,0,1,592.856,4153.75Z" transform="translate(-502.432 -4023.746)" fill="#344154"/>
      <path id="Trazado_99251" data-name="Trazado 99251" d="M592.856,4145.931a16.739,16.739,0,0,1,5.621,0A16.739,16.739,0,0,1,592.856,4145.931Z" transform="translate(-502.432 -4025.325)" fill="#344154"/>
      <path id="Trazado_99252" data-name="Trazado 99252" d="M592.856,4138.1a15.476,15.476,0,0,1,2.853-.237,14.615,14.615,0,0,1,2.806.237,16.77,16.77,0,0,1-5.622,0Z" transform="translate(-502.432 -4026.906)" fill="#344154"/>
      <path id="Trazado_99253" data-name="Trazado 99253" d="M592.856,4130.276a16.739,16.739,0,0,1,5.621,0A16.739,16.739,0,0,1,592.856,4130.276Z" transform="translate(-502.432 -4028.486)" fill="#344154"/>
      <path id="Trazado_99254" data-name="Trazado 99254" d="M592.856,4122.457a16.713,16.713,0,0,1,5.621,0A16.713,16.713,0,0,1,592.856,4122.457Z" transform="translate(-502.432 -4030.064)" fill="#344154"/>
      <path id="Trazado_99255" data-name="Trazado 99255" d="M592.856,4114.63a15.518,15.518,0,0,1,2.853-.237,14.615,14.615,0,0,1,2.806.237,14.854,14.854,0,0,1-2.806.238A15.735,15.735,0,0,1,592.856,4114.63Z" transform="translate(-502.432 -4031.645)" fill="#344154"/>
      <path id="Trazado_99256" data-name="Trazado 99256" d="M594.209,4161.577a47.91,47.91,0,0,1,4.965-.237,45.647,45.647,0,0,1,4.976.237A52.094,52.094,0,0,1,594.209,4161.577Z" transform="translate(-502.159 -4022.166)" fill="#344154"/>
      <path id="Trazado_99257" data-name="Trazado 99257" d="M609,4106.789c2.939-.191,5.869-.209,8.809-.238s5.869,0,8.8.238c-2.929.2-5.869.208-8.8.236S611.94,4107.008,609,4106.789Z" transform="translate(-499.172 -4033.23)" fill="#344154"/>
      <path id="Trazado_99258" data-name="Trazado 99258" d="M609,4114.631c2.939-.2,5.869-.209,8.809-.237s5.869,0,8.8.237c-2.929.2-5.869.21-8.8.238S611.94,4114.831,609,4114.631Z" transform="translate(-499.172 -4031.647)" fill="#344154"/>
      <path id="Trazado_99259" data-name="Trazado 99259" d="M609,4122.459c2.939-.2,5.869-.209,8.809-.237s5.869,0,8.8.237c-2.929.2-5.869.209-8.8.238S611.94,4122.648,609,4122.459Z" transform="translate(-499.172 -4030.066)" fill="#344154"/>
      <path id="Trazado_99260" data-name="Trazado 99260" d="M609,4130.277c2.939-.189,5.869-.209,8.809-.237s5.869,0,8.8.237c-2.929.2-5.869.21-8.8.238S611.94,4130.477,609,4130.277Z" transform="translate(-499.172 -4028.488)" fill="#344154"/>
      <path id="Trazado_99261" data-name="Trazado 99261" d="M609,4138.1c2.939-.2,5.869-.209,8.809-.237s5.869,0,8.8.237c-2.929.2-5.869.209-8.8.237S611.94,4138.305,609,4138.1Z" transform="translate(-499.172 -4026.907)" fill="#344154"/>
      <path id="Trazado_99262" data-name="Trazado 99262" d="M609,4145.933c2.939-.2,5.869-.209,8.809-.238s5.869,0,8.8.238c-2.929.2-5.869.209-8.8.238S611.94,4146.123,609,4145.933Z" transform="translate(-499.172 -4025.327)" fill="#344154"/>
      <path id="Trazado_99263" data-name="Trazado 99263" d="M609,4153.751c2.939-.189,5.869-.208,8.809-.237s5.869,0,8.8.237c-2.929.2-5.869.209-8.8.238S611.94,4153.951,609,4153.751Z" transform="translate(-499.172 -4023.748)" fill="#344154"/>
      <path id="Trazado_99264" data-name="Trazado 99264" d="M609,4161.579c2.939-.2,5.869-.209,8.809-.237s5.869,0,8.8.237c-2.929.2-5.869.21-8.8.237S611.94,4161.779,609,4161.579Z" transform="translate(-499.172 -4022.168)" fill="#344154"/>
      <path id="Trazado_99265" data-name="Trazado 99265" d="M529.019,4069.632c3.624-.19,7.257-.285,10.892-.361s7.257-.077,10.882-.114,7.257,0,10.892.114l5.441.132c1.816.077,3.633.124,5.451.229-1.817.114-3.635.152-5.451.238l-5.441.134c-3.635.075-7.258.066-10.892.1s-7.258,0-10.882-.1S532.643,4069.841,529.019,4069.632Z" transform="translate(-515.321 -4040.781)" fill="#fff"/>
      <path id="Trazado_99266" data-name="Trazado 99266" d="M529.019,4065.785c4.119-.2,8.238-.294,12.365-.371s8.238-.066,12.366-.1,8.238,0,12.366.1l6.183.133c2.064.076,4.129.124,6.183.238-2.054.1-4.119.154-6.183.229l-6.183.133c-4.119.075-8.238.075-12.366.1s-8.247,0-12.366-.1S533.138,4065.975,529.019,4065.785Z" transform="translate(-515.321 -4041.557)" fill="#fff"/>
      <path id="Trazado_99267" data-name="Trazado 99267" d="M529.019,4089.115c3.376-.151,6.744-.219,10.121-.275s6.753,0,10.13-.077,6.745,0,10.121.077,6.745.124,10.121.275c-3.376.153-6.744.219-10.121.276s-6.754,0-10.121.076-6.753,0-10.13-.076S532.4,4089.258,529.019,4089.115Z" transform="translate(-515.321 -4036.826)" fill="#344154"/>
      <path id="Trazado_99268" data-name="Trazado 99268" d="M529.019,4092.447c2.112-.144,4.233-.219,6.345-.275s4.233,0,6.353-.077,4.233,0,6.345.077,4.233.132,6.354.275c-2.121.152-4.233.218-6.354.276s-4.233.057-6.345.085-4.232,0-6.353-.085S531.131,4092.59,529.019,4092.447Z" transform="translate(-515.321 -4036.153)" fill="#344154"/>
      <path id="Trazado_99269" data-name="Trazado 99269" d="M529.019,4095.775c2.948-.143,5.888-.209,8.836-.267s5.888-.057,8.838-.085,5.9,0,8.836.085,5.9.123,8.836.267c-2.939.153-5.887.219-8.836.277s-5.888.056-8.836.085-5.888,0-8.838-.085S531.967,4095.928,529.019,4095.775Z" transform="translate(-515.321 -4035.477)" fill="#344154"/>
      <path id="Trazado_99270" data-name="Trazado 99270" d="M529.019,4171.557c2.168-.153,4.328-.219,6.5-.277s4.338-.056,6.5-.085,4.338,0,6.506.085,4.328.124,6.5.277c-2.169.142-4.338.218-6.5.275s-4.338.048-6.506.076-4.328,0-6.5-.085S531.187,4171.737,529.019,4171.557Z" transform="translate(-515.321 -4020.178)" fill="#344154"/>
      <path id="Trazado_99271" data-name="Trazado 99271" d="M529.019,4174.877c2.5-.152,5.013-.219,7.514-.276s5,0,7.514-.085,5,0,7.516.085,5,.124,7.514.276c-2.511.151-5.013.219-7.514.275s-5.013.048-7.516.077-5.012,0-7.514-.077S531.549,4175.038,529.019,4174.877Z" transform="translate(-515.321 -4019.513)" fill="#344154"/>
      <path id="Trazado_99272" data-name="Trazado 99272" d="M529.019,4188.173c3.938-.143,7.876-.208,11.814-.267l11.805-.085,11.815.075c3.937.059,7.876.134,11.813.277-3.937.152-7.876.219-11.813.274l-11.815.086-11.805-.086C536.9,4188.354,532.956,4188.354,529.019,4188.173Z" transform="translate(-515.321 -4016.82)" fill="#344154"/>
      <path id="Trazado_99273" data-name="Trazado 99273" d="M529.019,4178.217c1.531-.142,3.053-.219,4.585-.275s3.053-.066,4.584-.075,3.054,0,4.585.075,3.053.134,4.585.275c-1.532.153-3.064.218-4.585.277s-3.062.076-4.585.085-3.062,0-4.584-.085S530.6,4178.37,529.019,4178.217Z" transform="translate(-515.321 -4018.83)" fill="#344154"/>
      <path id="Trazado_99274" data-name="Trazado 99274" d="M592.856,4181.511c3.8-.153,7.609-.219,11.415-.276l11.414-.086,11.414.086c3.805.058,7.611.124,11.414.276-3.8.143-7.609.218-11.414.275l-11.414.077-11.414-.077C600.465,4181.729,596.66,4181.654,592.856,4181.511Z" transform="translate(-502.432 -4018.166)" fill="#344154"/>
      <path id="Trazado_99275" data-name="Trazado 99275" d="M592.856,4178.218c3.091-.142,6.173-.219,9.264-.275s6.174-.048,9.266-.076,6.183,0,9.264.076,6.184.133,9.265.275c-3.082.153-6.174.218-9.265.276s-6.173.056-9.264.085-6.174,0-9.266-.085S595.9,4178.371,592.856,4178.218Z" transform="translate(-502.432 -4018.831)" fill="#344154"/>
      <path id="Trazado_99276" data-name="Trazado 99276" d="M592.856,4184.843c2.9-.143,5.8-.219,8.713-.276s5.8-.046,8.7-.076,5.811,0,8.713.076,5.8.124,8.7.276c-2.9.152-5.8.218-8.7.275s-5.811.058-8.713.085-5.8,0-8.7-.085S595.709,4185,592.856,4184.843Z" transform="translate(-502.432 -4017.494)" fill="#344154"/>
      <path id="Trazado_99277" data-name="Trazado 99277" d="M592.856,4188.175c2.083-.143,4.166-.209,6.239-.267s4.167-.056,6.25-.085,4.157,0,6.24.076,4.157.134,6.24.277c-2.083.152-4.157.219-6.24.275s-4.166.058-6.24.086-4.166,0-6.25-.086S594.891,4188.355,592.856,4188.175Z" transform="translate(-502.432 -4016.821)" fill="#344154"/>
      <path id="Trazado_99278" data-name="Trazado 99278" d="M530.058,4186.551c1.131-.78,2.3-1.521,3.5-2.207a16.731,16.731,0,0,1,3.805-1.7,3.458,3.458,0,0,1,.523-.1.552.552,0,0,1,.581.191,2,2,0,0,1,.238,1.065,12.736,12.736,0,0,1-.219,2.083c-.238,1.36-.58,2.7-.952,4.033a61.99,61.99,0,0,1-2.739,7.811,13.4,13.4,0,0,1-.952,1.9,3.538,3.538,0,0,1-.37.429.571.571,0,0,1-.362.161.347.347,0,0,1-.248-.1l-.124-.124a2.028,2.028,0,0,1-.294-1.1,13.932,13.932,0,0,1,.724-4.119,23.584,23.584,0,0,1,1.56-3.852,11.424,11.424,0,0,1,2.425-3.377,3.8,3.8,0,0,1,1.9-.951,2.179,2.179,0,0,1,1.075.1,1.655,1.655,0,0,1,.761.771,4.532,4.532,0,0,0,.571.828.867.867,0,0,0,.837.285,5.463,5.463,0,0,0,1.732-1.018c.275-.209.552-.418.837-.618a2.62,2.62,0,0,1,.447-.276c.153-.066.371-.19.571,0,.276.333.2.695.343,1a.609.609,0,0,0,.7.457,6.189,6.189,0,0,0,1.512-1.322c.466-.5.951-1.028,1.37-1.541.9-1.046,1.787-2.1,2.71-3.129.457-.513.952-1.018,1.427-1.5.257-.238.514-.467.8-.686a2.334,2.334,0,0,1,.466-.276.749.749,0,0,1,.3-.065.414.414,0,0,1,.314.17,1.9,1.9,0,0,1,.143,1.094,9.749,9.749,0,0,1-.161,1.037c-.153.685-.342,1.351-.553,2.007a20.55,20.55,0,0,1-1.655,3.806,3.93,3.93,0,0,1-.647.865.748.748,0,0,1-.608.238,1.846,1.846,0,0,1-.552-.153,2.575,2.575,0,0,1-1.436-1.693.95.95,0,0,1,.076-.647.686.686,0,0,1,.267-.256.653.653,0,0,1,.361-.077,4.018,4.018,0,0,1,1.066.248c.666.238,1.293.513,1.9.79s1.255.562,1.9.809a8.193,8.193,0,0,0,.952.342,3.283,3.283,0,0,0,.466.105.668.668,0,0,0,.37-.087c.524-.256.867-.895,1.389-1.407a1.643,1.643,0,0,1,1.046-.542.563.563,0,0,1,.429.143.551.551,0,0,1,.142.419,2.8,2.8,0,0,1-.1.561c-.095.313-.133.7-.047.713s.5,0,.79,0a5.276,5.276,0,0,0,1.74-.951,10.178,10.178,0,0,1,.875-.591,1.754,1.754,0,0,1,1.151-.275,4.308,4.308,0,0,1,1.769,1.284,4.383,4.383,0,0,0,.732.639c.124.076.238.1.267.076a3.279,3.279,0,0,0,.389-.248,18.178,18.178,0,0,0,1.56-1.3,18.572,18.572,0,0,0,2.663-3.073,3.455,3.455,0,0,0,.666-1.778c0-.619-.637-.952-1.293-1.008a11.341,11.341,0,0,0-4.043.056,9.88,9.88,0,0,0-1.95.562,3.951,3.951,0,0,0-.865.466c-.257.19-.486.457-.41.7a1.284,1.284,0,0,0,.656.6,9.858,9.858,0,0,0,.952.381,19.64,19.64,0,0,0,1.969.571,45.289,45.289,0,0,0,8.19.789h0a43.562,43.562,0,0,1-8.246-.609,18.234,18.234,0,0,1-2-.551,8.635,8.635,0,0,1-.952-.381,1.494,1.494,0,0,1-.819-.771,1.018,1.018,0,0,1,.5-1.017,4.324,4.324,0,0,1,.951-.523,9.952,9.952,0,0,1,2.007-.6,11.6,11.6,0,0,1,4.177-.114,3.068,3.068,0,0,1,1.055.351,1.294,1.294,0,0,1,.6,1.018,3.9,3.9,0,0,1-.714,2.055,16.667,16.667,0,0,1-2.72,3.167,17.318,17.318,0,0,1-1.6,1.36,3.292,3.292,0,0,1-.486.294.806.806,0,0,1-.713-.1,5.567,5.567,0,0,1-.828-.7,4.055,4.055,0,0,0-1.512-1.151c-.5-.076-1.094.4-1.636.79a5.732,5.732,0,0,1-1.9.951,1.536,1.536,0,0,1-1.227-.047.771.771,0,0,1-.238-.694,3.083,3.083,0,0,1,.114-.542,2.475,2.475,0,0,0,.085-.448v-.067c0,.02,0,0-.066,0a1.226,1.226,0,0,0-.733.391c-.465.438-.789,1.1-1.512,1.493a1.155,1.155,0,0,1-.627.123,2.837,2.837,0,0,1-.542-.123,10.138,10.138,0,0,1-1-.361c-.638-.267-1.266-.552-1.9-.828s-1.256-.551-1.9-.79a3.623,3.623,0,0,0-.952-.229c-.219,0-.341.182-.285.476a2.184,2.184,0,0,0,1.142,1.407,1.4,1.4,0,0,0,.438.124.335.335,0,0,0,.3-.141,3.834,3.834,0,0,0,.6-.771,20.122,20.122,0,0,0,1.655-3.729,18.092,18.092,0,0,0,.571-1.968,7.526,7.526,0,0,0,.171-.952,1.619,1.619,0,0,0-.076-.951c-.095-.18-.486,0-.733.229a7.043,7.043,0,0,0-.77.656c-.494.466-.951.951-1.436,1.475-.951,1.017-1.816,2.063-2.73,3.1-.457.513-.952,1.026-1.389,1.532a6.341,6.341,0,0,1-1.6,1.351.78.78,0,0,1-.885-.542c-.133-.323-.124-.733-.305-.952s-.246,0-.389.058a4.014,4.014,0,0,0-.428.266c-.276.2-.542.419-.819.628a5.613,5.613,0,0,1-1.8,1.075,1.065,1.065,0,0,1-1.036-.333,5.234,5.234,0,0,1-.609-.856c-.19-.276-.37-.58-.647-.676a2.05,2.05,0,0,0-.951-.067,3.668,3.668,0,0,0-1.761.867,11.49,11.49,0,0,0-2.331,3.32,24.271,24.271,0,0,0-1.493,3.8,13.835,13.835,0,0,0-.666,3.995,1.788,1.788,0,0,0,.219.867l.057.057h0a.252.252,0,0,0,.1-.066,1.978,1.978,0,0,0,.294-.352,13.738,13.738,0,0,0,.951-1.789,59.444,59.444,0,0,0,2.806-7.733,38.268,38.268,0,0,0,.951-3.995,11.182,11.182,0,0,0,.228-2.017,1.675,1.675,0,0,0-.18-.952c-.085-.1-.162-.133-.343-.1a3.025,3.025,0,0,0-.494.086,17.7,17.7,0,0,0-3.805,1.608c-1.208.647-2.388,1.351-3.538,2.1Z" transform="translate(-515.113 -4018.48)" fill="#344154"/>
      <g id="Grupo_53422" data-name="Grupo 53422" transform="translate(84.887 24.704)">
        <path id="Trazado_99279" data-name="Trazado 99279" d="M595.709,4073.652h-5.677v5.974h-1.784V4066.1h8.38v1.459h-6.6v4.636h5.677Z" transform="translate(-588.249 -4066.099)" fill="#344154"/>
        <path id="Trazado_99280" data-name="Trazado 99280" d="M602.765,4079.073a3.647,3.647,0,0,1-.242-1.059,3.833,3.833,0,0,1-2.861,1.244,3.547,3.547,0,0,1-2.439-.84,2.722,2.722,0,0,1-.952-2.132,2.842,2.842,0,0,1,1.194-2.438,5.623,5.623,0,0,1,3.358-.868H602.5v-.79a1.932,1.932,0,0,0-.538-1.436,2.167,2.167,0,0,0-1.589-.534,2.509,2.509,0,0,0-1.542.464,1.371,1.371,0,0,0-.622,1.125h-1.727a2.375,2.375,0,0,1,.534-1.455,3.637,3.637,0,0,1,1.45-1.109,4.864,4.864,0,0,1,2.011-.409,3.971,3.971,0,0,1,2.722.869,3.134,3.134,0,0,1,1.022,2.391v4.626a5.649,5.649,0,0,0,.353,2.2v.149Zm-2.851-1.31a3.022,3.022,0,0,0,1.532-.418,2.521,2.521,0,0,0,1.049-1.087V4074.2h-1.347q-3.157,0-3.157,1.849a1.563,1.563,0,0,0,.538,1.263A2.077,2.077,0,0,0,599.914,4077.763Z" transform="translate(-586.629 -4065.547)" fill="#344154"/>
        <path id="Trazado_99281" data-name="Trazado 99281" d="M609.228,4077.855a2.472,2.472,0,0,0,1.607-.558,1.965,1.965,0,0,0,.762-1.393h1.625a3.12,3.12,0,0,1-.595,1.644,3.914,3.914,0,0,1-1.463,1.246,4.22,4.22,0,0,1-1.936.464,4.139,4.139,0,0,1-3.266-1.371,5.456,5.456,0,0,1-1.213-3.747v-.289a6.05,6.05,0,0,1,.54-2.61,4.1,4.1,0,0,1,1.546-1.774,4.4,4.4,0,0,1,2.383-.632,4.029,4.029,0,0,1,2.81,1.013,3.617,3.617,0,0,1,1.194,2.629H611.6a2.376,2.376,0,0,0-.739-1.6,2.3,2.3,0,0,0-1.639-.627,2.4,2.4,0,0,0-2.03.943,4.432,4.432,0,0,0-.72,2.726v.326a4.34,4.34,0,0,0,.715,2.675A2.418,2.418,0,0,0,609.228,4077.855Z" transform="translate(-584.917 -4065.547)" fill="#344154"/>
        <path id="Trazado_99282" data-name="Trazado 99282" d="M615.943,4066.965v2.434h1.876v1.328h-1.876v6.242a1.392,1.392,0,0,0,.25.906,1.053,1.053,0,0,0,.855.3,4.122,4.122,0,0,0,.817-.112v1.385a4.971,4.971,0,0,1-1.318.185,2.14,2.14,0,0,1-1.737-.7,2.994,2.994,0,0,1-.585-1.979v-6.233h-1.831V4069.4h1.831v-2.434Z" transform="translate(-583.374 -4065.924)" fill="#344154"/>
        <path id="Trazado_99283" data-name="Trazado 99283" d="M624.789,4078.048a3.65,3.65,0,0,1-2.945,1.179,3.127,3.127,0,0,1-2.448-.934,4.038,4.038,0,0,1-.85-2.763v-6.539h1.719v6.493q0,2.286,1.858,2.286a2.571,2.571,0,0,0,2.619-1.467v-7.311h1.719v10.052h-1.635Z" transform="translate(-582.132 -4065.515)" fill="#344154"/>
        <path id="Trazado_99284" data-name="Trazado 99284" d="M632.161,4070.564a5.161,5.161,0,0,0-.845-.065,2.264,2.264,0,0,0-2.294,1.44v7.135H627.3v-10.052h1.672l.028,1.161a2.677,2.677,0,0,1,2.4-1.347,1.735,1.735,0,0,1,.762.131Z" transform="translate(-580.364 -4065.547)" fill="#344154"/>
        <path id="Trazado_99285" data-name="Trazado 99285" d="M638.6,4079.073a3.57,3.57,0,0,1-.242-1.059,3.836,3.836,0,0,1-2.862,1.244,3.547,3.547,0,0,1-2.437-.84,2.72,2.72,0,0,1-.953-2.132,2.84,2.84,0,0,1,1.195-2.438,5.623,5.623,0,0,1,3.358-.868h1.672v-.79a1.933,1.933,0,0,0-.54-1.436,2.162,2.162,0,0,0-1.588-.534,2.509,2.509,0,0,0-1.542.464,1.371,1.371,0,0,0-.623,1.125h-1.728a2.369,2.369,0,0,1,.535-1.455,3.637,3.637,0,0,1,1.45-1.109,4.864,4.864,0,0,1,2.011-.409,3.97,3.97,0,0,1,2.721.869,3.134,3.134,0,0,1,1.023,2.391v4.626a5.65,5.65,0,0,0,.352,2.2v.149Zm-2.852-1.31a3.021,3.021,0,0,0,1.532-.418,2.531,2.531,0,0,0,1.05-1.087V4074.2h-1.347q-3.159,0-3.159,1.849a1.567,1.567,0,0,0,.538,1.263A2.077,2.077,0,0,0,635.752,4077.763Z" transform="translate(-579.393 -4065.547)" fill="#344154"/>
      </g>
    </g>
    <g id="freepik--Character--inject-11" transform="translate(232.133 5672.616)">
      <path id="Trazado_99286" data-name="Trazado 99286" d="M390.507,4306.9a96.07,96.07,0,0,0,17.2,11.463c-8.476-15.468-3.939-48.437-3.168-43.614,3.662,23.048,17.455,49.112,23.458,50.843a.313.313,0,0,1,.1,0c16.238,3.263,31.5.609,44.527-4.48a.138.138,0,0,0,0-.076c-11.148-17.636-7.534-51.232-6.868-49.111,7.249,22.762,25.293,37.192,28.651,37.44h0c13.317-9.379,20.794-19.225,19.13-20.423-12.091-8.761-21.156-29.488-29.061-51.232h0c-7.818-21.451-10.749-52.689-22.715-72.246-10.958-17.912-35.643-23.21-50.586-15.781C371.977,4169.126,383.115,4300.757,390.507,4306.9Z" transform="translate(-305.607 -4143.078)" fill="#344154"/>
      <path id="Trazado_99287" data-name="Trazado 99287" d="M414.633,4148.17a25.037,25.037,0,0,0-8.78,5.271,53.167,53.167,0,0,0-6.763,7.315,85.108,85.108,0,0,0-9.513,16.931c-5.184,11.8-8.008,35.567-9.454,48.143a196.871,196.871,0,0,0,0,37.953c.246,3.157.713,6.3,1.065,9.446l1.388,9.417,1.808,9.358,2.1,9.3-1.474-9.38-1.246-9.407-1.056-9.408c-.238-3.149-.589-6.279-.732-9.426a214.219,214.219,0,0,1,.523-37.631c1.218-12.48,4.081-36.033,8.761-47.81a85.719,85.719,0,0,1,8.809-16.951,51.989,51.989,0,0,1,6.268-7.487,33.892,33.892,0,0,1,3.805-3.186A17.857,17.857,0,0,1,414.633,4148.17Z" transform="translate(-306.409 -4142.727)" fill="#344154"/>
      <path id="Trazado_99288" data-name="Trazado 99288" d="M503.6,4284.107a163.78,163.78,0,0,1-9.692-14.079c-3.035-4.756-5.869-9.665-8.428-14.649a163.707,163.707,0,0,1-6.983-15.219c-2.025-5.193-3.871-10.416-5.821-15.629-4.014-10.4-7.847-32.008-12.547-42.215-2.379-5.1-4.861-10.16-7.724-15.067a76.229,76.229,0,0,0-4.757-7.145,21.589,21.589,0,0,0-6.372-6.03,22.469,22.469,0,0,1,5.84,6.325,75.975,75.975,0,0,1,4.252,7.287c2.625,4.965,4.9,10.064,7.058,15.22,4.328,10.272,8.162,31.847,12,42.282,2.017,5.2,3.91,10.406,6.041,15.609a134.435,134.435,0,0,0,7.371,15.22A158.512,158.512,0,0,0,503.6,4284.107Z" transform="translate(-293.876 -4141.535)" fill="#344154"/>
      <path id="Trazado_99289" data-name="Trazado 99289" d="M416.159,4261.588c10.235,22.991,50.282,97.025,75,101.477,16.171,2.911,81-5.708,91.64-21.507,4.642-6.877-5.288-53.268-13.888-51.147s-60.488,10.929-66.956,9.3-56.437-55.17-74.852-68.223C395.308,4208.956,410.652,4249.213,416.159,4261.588Z" transform="translate(-300.677 -4127.263)" fill="#ffbf9d"/>
      <path id="Trazado_99290" data-name="Trazado 99290" d="M550.073,4288.433l3.9,70.163s-51.185,11.254-73.53,3.54c-27.12-9.37-66.814-93.383-72.293-107.194-8.922-22.669-6.449-36.384,6.192-33.036,4.909,1.265,11.416,5.136,19.292,12.109,8.285,7.267,55.874,54.418,70.894,63.322C512.966,4302.321,550.073,4288.433,550.073,4288.433Z" transform="translate(-301.638 -4127.941)" fill="#ef9548"/>
      <path id="Trazado_99291" data-name="Trazado 99291" d="M522.5,4344.159a15.516,15.516,0,0,0-3.862,2.036,15.447,15.447,0,0,0,4.251-.952,15.213,15.213,0,0,0,3.863-2.026A15.059,15.059,0,0,0,522.5,4344.159Zm-38.563-55.113a15.125,15.125,0,0,0-3.852,2.025,16.7,16.7,0,0,0,8.1-3.006A15.184,15.184,0,0,0,483.936,4289.046Zm-38.9-33.294a15.526,15.526,0,0,0-3.862,2.036,16.769,16.769,0,0,0,8.113-3.006,15.373,15.373,0,0,0-4.251.962Zm28.28,75.433a15.273,15.273,0,0,0-3.862,2.026,16.71,16.71,0,0,0,8.1-3.006,14.992,14.992,0,0,0-4.243.969Zm45.259-27.043a15.347,15.347,0,0,0-3.862,2.035,15.444,15.444,0,0,0,4.252-.951,15.272,15.272,0,0,0,3.862-2.026,15.054,15.054,0,0,0-4.252.933Zm-67.964-12.271a15.422,15.422,0,0,0-3.805,2.035,15.446,15.446,0,0,0,4.251-.952,15.151,15.151,0,0,0,3.805-2.035,15.5,15.5,0,0,0-4.251.941Zm101.781,38.743c-.162-.646-.371-1.283-.59-1.9a15.488,15.488,0,0,0-2.036-3.861,15.162,15.162,0,0,0,.952,4.253,15.952,15.952,0,0,0,1.75,3.48Zm-53.773,3.91a15.447,15.447,0,0,0-2.026-3.862,15.468,15.468,0,0,0,.952,4.251,15.21,15.21,0,0,0,2.035,3.863,15.054,15.054,0,0,0-.922-4.262Zm-33.987-60.09a15.454,15.454,0,0,0-2.035-3.852,15.454,15.454,0,0,0,.951,4.252,15.112,15.112,0,0,0,2.036,3.852A15.159,15.159,0,0,0,464.626,4274.434Zm-37.468-36.888a15.314,15.314,0,0,0-2.026-3.862,16.7,16.7,0,0,0,3.006,8.1,14.96,14.96,0,0,0-1.028-4.242Zm53.021,114.671a15.064,15.064,0,0,0-4.138-1.333,16.909,16.909,0,0,0,7.858,3.6A15.369,15.369,0,0,0,480.179,4352.217Zm46.677-28.87a15.218,15.218,0,0,0-4.167-1.286,17.005,17.005,0,0,0,7.867,3.606,15.771,15.771,0,0,0-3.7-2.359Zm-15.372,38.533a15.051,15.051,0,0,0-4.166-1.294,12.479,12.479,0,0,0,2.3,1.6l2.245-.124Zm-37.745-54.743a15.068,15.068,0,0,0-4.166-1.294,16.905,16.905,0,0,0,7.857,3.605,15.177,15.177,0,0,0-3.691-2.35Zm-57.074-49.53a15.084,15.084,0,0,0-4.166-1.294,15.253,15.253,0,0,0,3.691,2.313,15.416,15.416,0,0,0,4.166,1.293,15.374,15.374,0,0,0-3.672-2.35Zm35.387,61.106a14.855,14.855,0,0,0-1.285,4.167,15.413,15.413,0,0,0,2.311-3.7,15.729,15.729,0,0,0,1.294-4.166,15.466,15.466,0,0,0-2.3,3.663Zm-19.025-39.228a14.846,14.846,0,0,0-1.285,4.166,15.4,15.4,0,0,0,2.312-3.7,15.731,15.731,0,0,0,1.293-4.167,15.769,15.769,0,0,0-2.292,3.662Zm60.546,31.5a15.393,15.393,0,0,0-1.266,4.128,14.969,14.969,0,0,0,2.321-3.691,15.73,15.73,0,0,0,1.293-4.167,15.161,15.161,0,0,0-2.321,3.691Zm-90.091-73.605c.095.523.2,1.046.323,1.589a13.838,13.838,0,0,0,.952-3.33,11.609,11.609,0,0,0-1.246,1.7Z" transform="translate(-301.508 -4125.461)" fill="#fff"/>
      <path id="Trazado_99292" data-name="Trazado 99292" d="M518.4,4345.2c-.894-10.35-2.977-52.841-2.806-62.059,0-.637.418-.78.5-.114,3.405,30.953,2.358,51.927,2.71,62.124C518.813,4345.377,518.423,4345.435,518.4,4345.2Z" transform="translate(-278.873 -4115.587)" fill="#344154"/>
      <path id="Trazado_99293" data-name="Trazado 99293" d="M408.181,4254.935c5.422,13.813,45.135,97.834,72.293,107.194,6.659,2.312,15.981,2.919,25.682,2.664L412.7,4221.529c-2.692-.409-4.851.047-6.421,1.3C401.236,4226.818,401.722,4238.555,408.181,4254.935Z" transform="translate(-301.631 -4127.945)" fill="#ef9548" opacity="0.1" style="isolation: isolate"/>
      <path id="Trazado_99294" data-name="Trazado 99294" d="M329.839,4365.658l140.534-.372-7.772-48.321s11.11-13.489,9.008-28.119c-2.3-16.028-31.21-56.665-33.635-58.977-9.788-9.188-20.146-10.833-30.1-7.524h0C361.9,4251.3,329.839,4365.658,329.839,4365.658Z" transform="translate(-316.377 -4128.068)" fill="#ef9548"/>
      <path id="Trazado_99295" data-name="Trazado 99295" d="M339.418,4337.235a18.935,18.935,0,0,0-2.368,1.084l-.286.809a18.318,18.318,0,0,0,3.044-.838,15.01,15.01,0,0,0,3.862-2.036A15.2,15.2,0,0,0,339.418,4337.235Zm50.777-92.27A15.511,15.511,0,0,0,386.39,4247a15.4,15.4,0,0,0,4.243-.951,15.012,15.012,0,0,0,3.862-2.037,15.485,15.485,0,0,0-4.3.933Zm66.31,13.661a12.739,12.739,0,0,0-1.9,1.16,11.807,11.807,0,0,0,2.33-.38C456.819,4259.149,456.656,4258.891,456.505,4258.626Zm-36.2,21.031a15.457,15.457,0,0,0-3.862,2.026,16.779,16.779,0,0,0,8.114-3.006A15.139,15.139,0,0,0,420.3,4279.657Zm-18.073,55.029a15.36,15.36,0,0,0-3.863,2.025,15.426,15.426,0,0,0,4.252-.951,15.123,15.123,0,0,0,3.805-2.036,15.007,15.007,0,0,0-4.167.961Zm61.83-40.818a15.429,15.429,0,0,0-3.805,2.037,15.482,15.482,0,0,0,4.252-.952,15.166,15.166,0,0,0,3.8-2.035,15.474,15.474,0,0,0-4.232.951Zm-92.213,2.455a15.392,15.392,0,0,0-3.8,2.026,16.711,16.711,0,0,0,8.1-3.006,15.139,15.139,0,0,0-4.281.98Zm69.316,36.859a15.335,15.335,0,0,0-3.862,2.026,16.459,16.459,0,0,0,8.1-2.986,15.008,15.008,0,0,0-4.223.959ZM403.9,4224.449l-.286-.7c-.314.218-.618.447-.951.675.056.143.1.275.151.418a15.246,15.246,0,0,0,2.036,3.825A15.5,15.5,0,0,0,403.9,4224.449Zm-35.081,111.616a15.491,15.491,0,0,0-2.026-3.861,16.772,16.772,0,0,0,3.006,8.114A15.089,15.089,0,0,0,368.821,4336.064Zm50.528-22a15.379,15.379,0,0,0-2.025-3.8,16.7,16.7,0,0,0,3.006,8.1A15.157,15.157,0,0,0,419.349,4314.063Zm-17.874-47.427a15.428,15.428,0,0,0-2.035-3.854,17.05,17.05,0,0,0,3.006,8.1,15.468,15.468,0,0,0-.971-4.25Zm62.1,80.672a14.942,14.942,0,0,0-2.026-3.861,15.471,15.471,0,0,0,.952,4.251,15.3,15.3,0,0,0,2.035,3.853,14.959,14.959,0,0,0-.96-4.243Zm-22.991-107.754a15.281,15.281,0,0,0-2.026-3.863,16.717,16.717,0,0,0,3.006,8.1A14.957,14.957,0,0,0,440.581,4239.554ZM386.695,4317.8a15.215,15.215,0,0,0-4.167-1.285,17.01,17.01,0,0,0,7.866,3.606,15.707,15.707,0,0,0-3.7-2.321Zm49.91,45.858a11.726,11.726,0,0,0,1.55,1.141h2.264A14.265,14.265,0,0,0,436.605,4363.66Zm-82.452-8.143a15.384,15.384,0,0,0-4.167-1.292,15.016,15.016,0,0,0,3.7,2.32,15.565,15.565,0,0,0,4.156,1.293A14.979,14.979,0,0,0,354.153,4355.517Zm85.125-49.359a15.245,15.245,0,0,0-4.157-1.293,14.937,14.937,0,0,0,3.691,2.321,15.4,15.4,0,0,0,4.167,1.285,15.4,15.4,0,0,0-3.7-2.312Zm-9.122-46.609a15.051,15.051,0,0,0-4.166-1.293,15.186,15.186,0,0,0,3.69,2.311,15.421,15.421,0,0,0,4.167,1.294,15.374,15.374,0,0,0-3.691-2.284Zm-54.734,12.9a15.069,15.069,0,0,0-1.293,4.167,15.246,15.246,0,0,0,2.311-3.7,14.865,14.865,0,0,0,1.293-4.157,15.239,15.239,0,0,0-2.311,3.72Zm44.1,76.469a15.388,15.388,0,0,0-1.285,4.167,15.219,15.219,0,0,0,2.312-3.615,15.387,15.387,0,0,0,1.293-4.166,15.733,15.733,0,0,0-2.321,3.643Zm27.006-67.489a14.859,14.859,0,0,0-1.285,4.167,15.421,15.421,0,0,0,2.311-3.7,15.745,15.745,0,0,0,1.294-4.166,15.729,15.729,0,0,0-2.321,3.728Zm-60.356,71.418a15.394,15.394,0,0,0-1.293,4.233,14.958,14.958,0,0,0,2.321-3.692,15.345,15.345,0,0,0,1.284-4.166,15.372,15.372,0,0,0-2.311,3.653ZM355.656,4317.9a15.306,15.306,0,0,0-1.293,4.166,16.741,16.741,0,0,0,3.6-7.866A15.441,15.441,0,0,0,355.656,4317.9Zm42.977-22.649a14.894,14.894,0,0,0-1.293,4.157,15.236,15.236,0,0,0,2.311-3.69,15.4,15.4,0,0,0,1.293-4.167A15.429,15.429,0,0,0,398.632,4295.248Zm17.3-53.963a14.9,14.9,0,0,0-1.293,4.157,16.9,16.9,0,0,0,3.6-7.857,15.443,15.443,0,0,0-2.311,3.729Z" transform="translate(-314.978 -4127.468)" fill="#fff"/>
      <path id="Trazado_99296" data-name="Trazado 99296" d="M432.554,4244.646c2.72,4.528,5.707,8.894,8.561,13.317-1.151-3.159-2.274-6.316-3.529-9.426a.057.057,0,0,1,.037-.072.061.061,0,0,1,.058.014,65.618,65.618,0,0,1,4.861,11.757,89.549,89.549,0,0,1,5.708,10.464,41.854,41.854,0,0,1,3.8,13.754,35.305,35.305,0,0,1-2,14.154,91.563,91.563,0,0,1-7.115,14.992c-.361.637-1.245.047-.951-.59,3.986-8.5,8.389-17.445,7.99-27.081s-4.833-18.311-9.179-26.578a132.167,132.167,0,0,0-8.561-14.582C432.107,4244.636,432.43,4244.437,432.554,4244.646Z" transform="translate(-295.708 -4123.267)" fill="#344154"/>
      <path id="Trazado_99297" data-name="Trazado 99297" d="M469.919,4332.7l-2.853,15.97h88.578a10.852,10.852,0,0,0,10.292-8.7l1.274-7.268Z" transform="translate(-288.67 -4105.469)" fill="#dbdbdb"/>
      <path id="Trazado_99298" data-name="Trazado 99298" d="M461.164,4339.968l1.284-7.268h17.4l-1.285,7.268a10.832,10.832,0,0,1-10.235,8.7,7.232,7.232,0,0,1-5.707-2.548A7.476,7.476,0,0,1,461.164,4339.968Z" transform="translate(-289.893 -4105.469)" fill="#ebebeb"/>
      <path id="Trazado_99299" data-name="Trazado 99299" d="M497.235,4239.4l-22.9,129.87h79.9a10.852,10.852,0,0,0,10.226-8.7l22.9-129.871h-79.9a10.327,10.327,0,0,0-6.6,2.55A10.657,10.657,0,0,0,497.235,4239.4Z" transform="translate(-287.201 -4126.065)" fill="#dbdbdb"/>
      <path id="Trazado_99300" data-name="Trazado 99300" d="M502.68,4230.693l-4.622,26.234h97.273l3.091-17.531a7.106,7.106,0,0,0-7.162-8.7Z" transform="translate(-282.412 -4126.065)" fill="#ebebeb"/>
      <path id="Trazado_99301" data-name="Trazado 99301" d="M493.909,4239.4l-3.092,17.531h17.4l3.091-17.531a7.1,7.1,0,0,0-7.163-8.7,10.326,10.326,0,0,0-6.6,2.55A10.654,10.654,0,0,0,493.909,4239.4Z" transform="translate(-283.874 -4126.065)" fill="#dbdbdb"/>
      <path id="Trazado_99302" data-name="Trazado 99302" d="M567.174,4272.48c3.252,9.275,12.632,21.346,12.737,28.651a8.389,8.389,0,0,1-5.565,8.3s6.811,4.348,5.812,10.987c-.514,3.416-6.43,5.594-6.43,5.594s5.308,3.719,4.052,9.569c-1,4.661-6.773,6.145-6.773,6.145s3.424,5.945.885,10.369c-5.155,8.96-45.84,4.642-50.529-11.016-2.187-7.3,7.7-5.707,7.7-5.707s-13.66-5.708-12.975-14.136,13.383-5.565,13.383-5.565-13.184-5.66-11.6-14.316c1.655-9,13.878-3.976,13.878-3.976s-8.4-7.086-5.708-13.432c4.5-10.464,20.185,4.965,29.355,3.805l6.5-14.269Z" transform="translate(-278.778 -4117.628)" fill="#ffbf9d"/>
      <path id="Trazado_99303" data-name="Trazado 99303" d="M566.5,4289.395c-2.312-9.047,9.607-18.644,8.637-27.586-1.3-12.128-15.886-1.9-20.68,14.981l-1.417,13.746Z" transform="translate(-271.311 -4120.854)" fill="#ffbf9d"/>
      <path id="Trazado_99304" data-name="Trazado 99304" d="M568.082,4331.677a.1.1,0,1,1,0,.209c-13.735,1.847-29.373-.343-41.645-6.953-.409-.208-.228-.952.267-.809C540.677,4328.519,553.395,4331.3,568.082,4331.677Z" transform="translate(-276.728 -4107.205)" fill="#344154"/>
      <path id="Trazado_99305" data-name="Trazado 99305" d="M571.814,4318.946c.162,0,.153.267,0,.285-14.163,1.827-31.713-1.122-44.965-10.407-.447-.313-.542-1.055,0-.731C536.123,4313.6,558.592,4318.67,571.814,4318.946Z" transform="translate(-276.674 -4110.454)" fill="#344154"/>
      <path id="Trazado_99306" data-name="Trazado 99306" d="M528.541,4292.4c13.041,8.408,27.471,11.786,42.8,13.117.2,0,.153.3,0,.333-7.667,1.388-17.341-.485-24.732-2.578a40.763,40.763,0,0,1-18.311-10.416C528.036,4292.656,528.255,4292.228,528.541,4292.4Z" transform="translate(-276.33 -4113.614)" fill="#344154"/>
      <path id="Trazado_99307" data-name="Trazado 99307" d="M400.633,4228.3c.19,2.472,9.189,19.7,20.166,20.87,3.577.37,6.488-19.025,6.488-19.025l.552-1.379,7.609-19.4-21.259-18.778-3.1-2.52s-1.722,5.44-3.805,12.232c-.095.314-.2.638-.294.951s-.257.743-.362,1.1c-.323,1.008-.647,2.046-.952,3.083-.237.79-.465,1.551-.684,2.388s-.447,1.655-.685,2.483C402.108,4218.58,400.566,4227.3,400.633,4228.3Z" transform="translate(-302.083 -4134.67)" fill="#ffbf9d"/>
      <path id="Trazado_99308" data-name="Trazado 99308" d="M406.141,4200.283a41.792,41.792,0,0,0,20.585,28.461l7.609-19.4-21.259-18.778-3.1-2.521S408.224,4193.492,406.141,4200.283Z" transform="translate(-300.971 -4134.675)" fill="#344154"/>
      <path id="Trazado_99309" data-name="Trazado 99309" d="M468.656,4194.918c-4.814,36.221-27.054,37.429-34.862,36.384-7.088-.952-31.115-5.089-30.069-41.616s19.416-45.745,35.747-44.433S473.478,4158.686,468.656,4194.918Z" transform="translate(-301.465 -4143.34)" fill="#ffbf9d"/>
      <path id="Trazado_99310" data-name="Trazado 99310" d="M454.188,4184.079a24.445,24.445,0,0,1-2.321-1.008,4.013,4.013,0,0,1-2.159-1.475,1.283,1.283,0,0,1,.323-1.55,3.221,3.221,0,0,1,3.262-.1,4.751,4.751,0,0,1,2.578,2.235,1.389,1.389,0,0,1-1.684,1.9Z" transform="translate(-292.201 -4136.391)" fill="#344154"/>
      <path id="Trazado_99311" data-name="Trazado 99311" d="M433.243,4178.723q1.26.063,2.52,0a4.107,4.107,0,0,0,2.578-.515,1.3,1.3,0,0,0,.314-1.551,3.236,3.236,0,0,0-2.968-1.378,4.76,4.76,0,0,0-3.244,1.046,1.39,1.39,0,0,0,.8,2.4Z" transform="translate(-295.75 -4137.256)" fill="#344154"/>
      <path id="Trazado_99312" data-name="Trazado 99312" d="M436.893,4184.779c0-.1-.209.076-.228.181-.361,2.464-1.189,5.223-3.558,5.631-.066,0-.085.143,0,.143C435.875,4190.877,436.941,4187.166,436.893,4184.779Z" transform="translate(-295.538 -4135.342)" fill="#344154"/>
      <path id="Trazado_99313" data-name="Trazado 99313" d="M435.485,4182.327c-3.881-1.007-5.623,6.84-2.017,7.771S438.737,4183.174,435.485,4182.327Z" transform="translate(-295.851 -4135.849)" fill="#344154"/>
      <path id="Trazado_99314" data-name="Trazado 99314" d="M434.249,4182.586c-.78.295-1.627.951-2.464.827-.952-.114-1.523-1.1-1.97-2.025-.047-.1-.132-.048-.151.057-.362,1.5-.124,3.168,1.446,3.748,1.417.534,2.768-.561,3.481-1.987C434.724,4182.938,434.572,4182.472,434.249,4182.586Z" transform="translate(-296.251 -4136.031)" fill="#344154"/>
      <path id="Trazado_99315" data-name="Trazado 99315" d="M448.449,4186.684c0-.085.161.162.132.267-.637,2.406-.951,5.269,1.056,6.573.066.047,0,.161-.048.132C446.994,4192.64,447.46,4188.844,448.449,4186.684Z" transform="translate(-292.587 -4134.954)" fill="#344154"/>
      <path id="Trazado_99316" data-name="Trazado 99316" d="M451.153,4184.968c3.976.6,2.483,8.494-1.189,7.942S447.833,4184.473,451.153,4184.968Z" transform="translate(-292.552 -4135.301)" fill="#344154"/>
      <path id="Trazado_99317" data-name="Trazado 99317" d="M451.969,4185.671c.542.533,1.018,1.408,1.76,1.6s1.645-.515,2.35-1.227c.076-.076.124,0,.114.1-.248,1.521-1.047,3-2.549,3.015s-2.092-1.465-2.169-3.035C451.456,4185.833,451.751,4185.452,451.969,4185.671Z" transform="translate(-291.818 -4135.168)" fill="#344154"/>
      <path id="Trazado_99318" data-name="Trazado 99318" d="M433.073,4202.214c.428.714.79,1.645,1.645,1.9a6.665,6.665,0,0,0,2.74.094.086.086,0,0,1,.076.153,3.371,3.371,0,0,1-3.405.476,2.619,2.619,0,0,1-1.314-2.626C432.816,4202.11,433.026,4202.11,433.073,4202.214Z" transform="translate(-295.589 -4131.831)" fill="#344154"/>
      <path id="Trazado_99319" data-name="Trazado 99319" d="M444.549,4200.67s-.257,3.739-.619,5.46c0,.162-.465.143-1.055.058a.06.06,0,0,1-.066,0,8.354,8.354,0,0,1-7.287-4.7.181.181,0,0,1,.087-.241.179.179,0,0,1,.218.05,12.5,12.5,0,0,0,7.011,3.69c.219-.447.219-6.42.5-6.382a14.951,14.951,0,0,1,3.719,1.693c.761-7.781.267-15.62,1.142-23.353a.238.238,0,1,1,.476,0c1.094,8.18.409,17.122-.172,25.208C448.44,4203.134,445.177,4201.107,444.549,4200.67Z" transform="translate(-295.042 -4136.964)" fill="#344154"/>
      <path id="Trazado_99320" data-name="Trazado 99320" d="M406.706,4190.453c8.371,1.713,10.882-11.519,10.882-11.519s9.674.952,13.365-14.221c0,0,2.768,10.16,15.286,14.554,2.654.952-5.118-7.923-5.118-7.923s9.027,12.051,30.107,12.251c1.484,0,4.309-22.153-10.216-32.579s-31.39-8.961-43.271-.818c0,0-11.415,4.014-14.868,14.83S403.454,4189.787,406.706,4190.453Z" transform="translate(-301.898 -4143.642)" fill="#344154"/>
      <path id="Trazado_99321" data-name="Trazado 99321" d="M430.518,4200.337a12.129,12.129,0,1,1,15.392-11.416h0a12.148,12.148,0,0,1-12.366,11.834A11.847,11.847,0,0,1,430.518,4200.337Zm6.1-21.8a8.008,8.008,0,1,0,.028,0Z" transform="translate(-297.839 -4137.002)" fill="#ebebeb"/>
      <path id="Trazado_99322" data-name="Trazado 99322" d="M453.066,4203.813c-4.461-1.247-7.239-6.953-6.259-13.2a14.45,14.45,0,0,1,3.805-7.98,7.553,7.553,0,0,1,12.765,2.007,14.451,14.451,0,0,1,1.217,8.771c-1.037,6.6-5.878,11.348-10.8,10.578A5.473,5.473,0,0,1,453.066,4203.813Zm4.889-22.049a4.245,4.245,0,0,0-.6-.133,6.5,6.5,0,0,0-5.555,2.141,12.94,12.94,0,0,0-3.4,7.086c-.894,5.707,1.645,10.892,5.708,11.529s8.047-3.51,8.951-9.228a12.927,12.927,0,0,0-1.056-7.791,6.655,6.655,0,0,0-4.1-3.6Z" transform="translate(-292.8 -4136.312)" fill="#ebebeb"/>
      <path id="Trazado_99323" data-name="Trazado 99323" d="M441.484,4188.414l-.836-1.389c2.054-1.246,6.572-2.634,9.007.951l-1.34.952C446.136,4185.674,441.674,4188.3,441.484,4188.414Z" transform="translate(-294.004 -4135.152)" fill="#ebebeb"/>
      <path id="Trazado_99324" data-name="Trazado 99324" d="M396.752,4184.678l-1.3-.951c.447-.608,4.471-5.954,8.143-5.974,3.424,0,24.569,5.374,25.473,5.6l-.409,1.57c-6.06-1.55-22.411-5.565-25.055-5.556C401.175,4179.419,397.836,4183.242,396.752,4184.678Z" transform="translate(-303.13 -4136.753)" fill="#ebebeb"/>
      <path id="Trazado_99325" data-name="Trazado 99325" d="M410.607,4187.063s-5.317-12.87-10.987-11.214-3.405,19.1,2.035,22.628a6.184,6.184,0,0,0,8.657-1.234c.052-.07.1-.141.151-.211Z" transform="translate(-302.954 -4137.169)" fill="#ffbf9d"/>
      <path id="Trazado_99326" data-name="Trazado 99326" d="M399.763,4179.971a.084.084,0,0,0-.1.069.086.086,0,0,0,.032.082c3.805,2.616,5.118,6.954,5.755,11.292-.894-1.808-2.387-3.025-4.756-2.017a.134.134,0,0,0-.047.183.136.136,0,0,0,.1.065,3.8,3.8,0,0,1,3.8,2.207,17.562,17.562,0,0,1,1.227,3.738c.114.409.828.362.78-.095v-.1C407.772,4190.109,405.3,4181.768,399.763,4179.971Z" transform="translate(-302.279 -4136.307)" fill="#344154"/>
      <path id="Trazado_99327" data-name="Trazado 99327" d="M427.961,4223.925l-5.118,16.7-21.792-18.719-5.127,7.028s22.382,30.792,22.382,29.308l5.47-14.477,10.464,8.865-2.854-24.237Z" transform="translate(-303.034 -4127.838)" fill="#ebebeb"/>
      <path id="Trazado_99328" data-name="Trazado 99328" d="M433.543,4239.468c-.6-3.985-1.094-8.02-1.9-11.976,0-.134-.257-.182-.276,0-.475,3.938,1.9,19.167,2.207,22.828h0c-.437-.39-9.626-7.762-9.7-7.61-1.256,2.331-5.28,12.88-5.536,13.832-3.538-4.89-18.435-24.095-22.525-28.651a.137.137,0,1,0-.228.153c3.206,5.212,22.506,30.581,22.734,30.5a156.756,156.756,0,0,0,5.707-15.305c1.589,1.636,10.949,10.054,10.93,9.456A125.047,125.047,0,0,0,433.543,4239.468Z" transform="translate(-303.108 -4126.736)" fill="#344154"/>
      <path id="Trazado_99329" data-name="Trazado 99329" d="M409.369,4253.937c-8.466,36.469-32.447,77.268-47.628,89.263-9.246,7.3-38.838,7.362-40.16-11.786s56.778-79.161,65.33-90.833S417.017,4221.034,409.369,4253.937Z" transform="translate(-318.048 -4126.108)" fill="#ffbf9d"/>
      <path id="Trazado_99330" data-name="Trazado 99330" d="M409.369,4253.937c-8.466,36.469-32.447,77.268-47.628,89.263-9.246,7.3-38.838,7.362-40.16-11.786s56.778-79.161,65.33-90.833S417.017,4221.034,409.369,4253.937Z" transform="translate(-318.048 -4126.108)" fill="#ef9548"/>
      <path id="Trazado_99331" data-name="Trazado 99331" d="M342.487,4333.83a15.437,15.437,0,0,0-3.8,2.035,15.387,15.387,0,0,0,4.243-.951,15.074,15.074,0,0,0,3.862-2.036A15.119,15.119,0,0,0,342.487,4333.83Zm50.777-92.27a15.512,15.512,0,0,0-3.805,2.036,15.4,15.4,0,0,0,4.243-.951,15.012,15.012,0,0,0,3.862-2.037,15.468,15.468,0,0,0-4.3.933Zm-18.33,51.367a15.4,15.4,0,0,0-3.805,2.026,16.708,16.708,0,0,0,8.1-3.006,15.146,15.146,0,0,0-4.3.97Zm-14.487-16.3a15.385,15.385,0,0,0-1.988-3.9,15.463,15.463,0,0,0,.951,4.252,15.212,15.212,0,0,0,2.036,3.862A15.446,15.446,0,0,0,360.447,4276.624ZM336.8,4312.913a15.531,15.531,0,0,0-2.036-3.862,16.778,16.778,0,0,0,3.006,8.114A15.459,15.459,0,0,0,336.8,4312.913Zm33.074,15.885a13.289,13.289,0,0,0,.685,3.385l.751-.951A12.9,12.9,0,0,0,369.874,4328.8Zm34.681-65.567a15.447,15.447,0,0,0-2.035-3.854,15.074,15.074,0,0,0,.951,4.243,16.436,16.436,0,0,0,1.626,3.3c.077-.246.162-.484.238-.731h0a18.107,18.107,0,0,0-.79-2.958Zm-54.01,30.515a15.4,15.4,0,0,0-4.167-1.285,15.233,15.233,0,0,0,3.691,2.312,15.422,15.422,0,0,0,4.167,1.294A15.688,15.688,0,0,0,350.545,4293.745Zm27.947-24.732a15.075,15.075,0,0,0-1.293,4.167,15.229,15.229,0,0,0,2.311-3.7,14.881,14.881,0,0,0,1.293-4.156,15.228,15.228,0,0,0-2.311,3.748Zm-19.767,45.479a15.3,15.3,0,0,0-1.293,4.166,16.737,16.737,0,0,0,3.6-7.866A15.459,15.459,0,0,0,358.725,4314.492Zm-36.469,12.766c-.248.561-.486,1.132-.685,1.72a2.531,2.531,0,0,0,0,.382,8.957,8.957,0,0,0,.114,1.15,17.676,17.676,0,0,0,1.579-2.786,15.654,15.654,0,0,0,1.293-4.167A15.164,15.164,0,0,0,322.255,4327.257Z" transform="translate(-318.048 -4124.063)" fill="#fff"/>
      <path id="Trazado_99332" data-name="Trazado 99332" d="M333.734,4343.034a39.024,39.024,0,0,0,12.042.065,32.55,32.55,0,0,0,11.1-3.966c7.249-4.167,12.1-11.224,16.408-18.169q7.087-11.414,13.317-23.381c4.138-7.96,7.934-16.1,11.6-24.293,1.855-4.129,3.538-8.314,5.3-12.48s3.424-8.285,4.955-12.5c.391-1.066.752-2.131,1.123-3.2a.08.08,0,1,1,.153.047h0c-1.37,4.356-2.673,8.76-4.148,13.079-.19.562-.4,1.123-.6,1.684,1.531-3.261,3.1-6.5,4.756-9.71.095-.191.362,0,.285.17-1.464,3.329-2.987,6.658-4.547,9.9q-1.159,2.425-2.33,4.832c-.742,2-1.512,4-2.3,5.993q-5.107,12.786-11.358,25.027t-13.469,23.98c-4.4,7.2-9.132,14.6-16.257,19.4a31.011,31.011,0,0,1-23.257,4.691,21.5,21.5,0,0,1-2.854-.819.19.19,0,0,1,.087-.36Z" transform="translate(-315.629 -4123.164)" fill="#344154"/>
      <path id="Trazado_99333" data-name="Trazado 99333" d="M345.478,4213.519c6.041-14.7,15.838-34.854,22.42-37.935,6.925-3.205,31.723-13.479,38.258-14s29.707,6.25,33.892,10.358c3.339,3.292-2.454,11.129-15.657,10.008-12.365-1.057-15.22-1.9-18.8-1.36s-14.193,9.1-13.261,14.335c.552,3.072,7.733,8.37,13.317,7.409s8.942-6.419,15.837-9.608,16.789,0,16.666,2.855-3.8,3.271-11.281,11.167c-4.833,5.07-8.314,15.144-18.444,23.409-5.089,4.148-15.162,16.1-15.162,16.1Z" transform="translate(-313.219 -4140.025)" fill="#ffbf9d"/>
      <path id="Trazado_99334" data-name="Trazado 99334" d="M364.132,4176.33c6.811-6.364,22.744-16.894,36.242-18.434,9.121-1.057,34.11,20.222,31.866,25.464s-7.115,4.013-14.126,1.293c-2.549-.952-15.22-9.579-18.311-7.268-4.49,3.32-12.519,16.552-12.519,16.552Z" transform="translate(-309.453 -4140.771)" fill="#ffbf9d"/>
      <path id="Trazado_99335" data-name="Trazado 99335" d="M423.406,4179.929c-2.026-6.753-8.979-11.871-16.066-16.323-.114-.076-.228.095-.114.162,1.8,1.141,12.888,10.168,16.066,16.227C423.33,4180.063,423.425,4180,423.406,4179.929Z" transform="translate(-300.761 -4139.614)" fill="#344154"/>
      <path id="Trazado_99336" data-name="Trazado 99336" d="M364.132,4176.33c6.811-6.364,22.744-16.894,36.242-18.435,9.121-1.057,27.138,22.572,24.9,27.823s-9.369,3.871-16.418-.818c-2.282-1.522-9.16-9.589-12.28-7.287-4.5,3.32-15.5,11.606-15.5,11.606Z" transform="translate(-309.453 -4140.771)" fill="#ffbf9d"/>
      <path id="Trazado_99337" data-name="Trazado 99337" d="M383.653,4184.117c1.084-.95,1.465-1.35,2.568-2.33s2.216-1.9,3.386-2.854a11.1,11.1,0,0,1,3.254-2.037,5.656,5.656,0,0,1,3.606.2c2.625.951,4.613,3.271,6.554,5.174,2.168,2.112,6.839,5.84,11,6.449a8.2,8.2,0,0,0,3.4,0,5.181,5.181,0,0,0,2.311-1.037c2.511-2.521,1.2-6.477-.418-9.512-3.025-5.556-7.8-10.245-12.556-14.268-1.171-1-2.369-1.97-3.558-2.94a12.366,12.366,0,0,0-4.547-2.673c-2.806-.742-8.143.952-9.788,1.426-.124,0-.161-.16,0-.2,2-.637,7.181-3.035,11.652-1.636a14.768,14.768,0,0,1,4.309,2.8c1.341,1.036,2.778,2.225,4.119,3.4a65.787,65.787,0,0,1,7.324,7.334c2.1,2.5,4.3,5.355,5.346,8.494a8.047,8.047,0,0,1-1.589,8.209c-1.769,1.742-4.537,1.56-5.792,1.409a13.8,13.8,0,0,1-3.567-.952,57.407,57.407,0,0,1-7.183-4.27c-2.207-1.608-4-3.806-6.326-5.252a4.888,4.888,0,0,0-3.728-.7,12.731,12.731,0,0,0-3.386,1.8,39.171,39.171,0,0,0-5.975,4.243C383.529,4184.8,383.2,4184.536,383.653,4184.117Z" transform="translate(-305.555 -4140.854)" fill="#344154"/>
      <path id="Trazado_99338" data-name="Trazado 99338" d="M359.732,4183.925c2.71-3.157,9.512-17.312,13.6-21.145s21.288-16.266,27.253-14c7.5,2.854-4.129,14.688-9.645,19.368s-7.334,14.6-7.334,14.6Z" transform="translate(-310.341 -4142.659)" fill="#ffbf9d"/>
      <path id="Trazado_99339" data-name="Trazado 99339" d="M394.986,4158.2c-1.9,1.446-3.691,3.129-5.441,4.756a46.648,46.648,0,0,0-4.909,4.756,20.474,20.474,0,0,0-3.139,5.963,31.447,31.447,0,0,0-.951,3.188c-.267,1.074-.513,2.387-.846,3.548,0,.123.151.2.19.066a52.364,52.364,0,0,1,2.482-6.182,28.5,28.5,0,0,1,3.577-5.869c2.855-3.577,6.411-6.5,9.285-10.056C395.338,4158.252,395.129,4158.091,394.986,4158.2Z" transform="translate(-306.309 -4140.71)" fill="#344154"/>
      <path id="Trazado_99340" data-name="Trazado 99340" d="M393.221,4197.377a9.9,9.9,0,0,0,7.02-2.369c1.827-1.369,3.567-2.853,5.4-4.214a23.611,23.611,0,0,1,5.851-3.452,27.265,27.265,0,0,1,7.514-1.256,14.689,14.689,0,0,1,7.229,1.057c1.845.875,3.805,2.787,2.787,5.032a8.751,8.751,0,0,1-2.074,2.644,21.666,21.666,0,0,1-2.567,2.092c-1.817,1.3-3.749,2.474-5.441,3.958-2.255,1.979-3.805,4.67-5.46,7.152-.619.952-4.566,7.174-6.07,9.293a37.694,37.694,0,0,1-4.232,5.062,52.58,52.58,0,0,1-4.862,3.957,30.676,30.676,0,0,0-5.07,4.537c-.066.086-.18,0-.133-.115,1.9-3.5,5.384-5.849,8.561-8.17,4.062-3.006,13.079-18.53,14.716-20.641,2.72-3.51,6.848-5.194,9.949-8.249.714-.7,1.808-1.7,1.788-2.8a3.109,3.109,0,0,0-1.9-2.369c-2.131-1.133-4.756-1.057-7.077-.828a32.248,32.248,0,0,0-7.21,1.189,23.751,23.751,0,0,0-5.764,3.015c-2.036,1.409-3.985,2.854-6.126,4.128a9.974,9.974,0,0,1-6.887,1.541C393.05,4197.539,393.107,4197.367,393.221,4197.377Z" transform="translate(-303.603 -4135.089)" fill="#344154"/>
      <path id="Trazado_99341" data-name="Trazado 99341" d="M421.772,4169.048c-1.626-.8-3.244-1.665-4.9-2.417v-.075c1.959.78,3.976,1.426,5.945,2.187,1.56.6,3.168,1.475,3.805,3.11a4.587,4.587,0,0,1-.951,4.491,12.282,12.282,0,0,1-4.3,2.911c-.087.047-.153-.086-.067-.134,2.369-1.37,6.041-4.128,4.109-7.277A8.351,8.351,0,0,0,421.772,4169.048Z" transform="translate(-298.804 -4139.016)" fill="#344154"/>
      <path id="Trazado_99342" data-name="Trazado 99342" d="M414.37,4182.668a10.474,10.474,0,0,0,5.555-.951,3.963,3.963,0,0,0,2.026-3.006,1.98,1.98,0,0,0-.18-1.341c-.077-.1.1-.181.132-.066a6.047,6.047,0,0,0,.3.722,3.134,3.134,0,0,1,.142.647,3.509,3.509,0,0,1-.1,1.3,4.216,4.216,0,0,1-1.645,2.273c-1.855,1.332-4.156,1.208-6.249.59A.089.089,0,0,1,414.37,4182.668Z" transform="translate(-299.326 -4136.855)" fill="#344154"/>
      <path id="Trazado_99343" data-name="Trazado 99343" d="M398.545,4237.748c-4.053,14.62-34.853,92.592-43.414,103.6s-29.383,13.373-35.2-6.516S344.383,4219.874,350.774,4205C354.342,4196.721,400,4232.449,398.545,4237.748Z" transform="translate(-318.525 -4131.502)" fill="#ffbf9d"/>
      <path id="Trazado_99344" data-name="Trazado 99344" d="M405.393,4246.125l-60.44-35.052s-25.855,88.682-26.311,116.03c-.333,19.624,23.191,34.292,41.777,7.762S405.393,4246.125,405.393,4246.125Z" transform="translate(-318.638 -4130.027)" fill="#ef9548"/>
      <path id="Trazado_99345" data-name="Trazado 99345" d="M346.308,4212.007a15.87,15.87,0,0,0-2.236,3.587,15.331,15.331,0,0,0-1.284,4.165,15.222,15.222,0,0,0,2.311-3.69,15.5,15.5,0,0,0,1.274-4.062h-.066Zm-19.482,84.564a15.4,15.4,0,0,0-1.284,4.167,15.219,15.219,0,0,0,2.311-3.691,15.4,15.4,0,0,0,1.294-4.186A15.916,15.916,0,0,0,326.826,4296.571Zm-4.47,36.461a15.294,15.294,0,0,0-1.294,4.166,15.255,15.255,0,0,0,2.3-3.7,15.654,15.654,0,0,0,1.293-4.167,15.165,15.165,0,0,0-2.3,3.7Zm36.469-12.766a15.3,15.3,0,0,0-1.293,4.166,16.741,16.741,0,0,0,3.6-7.866,15.438,15.438,0,0,0-2.311,3.7Zm20.318-89.234v.266l.162-.2Zm-.552,43.842a15.089,15.089,0,0,0-1.293,4.166,15.2,15.2,0,0,0,2.311-3.7,14.893,14.893,0,0,0,1.293-4.156,15.247,15.247,0,0,0-2.311,3.662Zm-27.871-9.932a14.973,14.973,0,0,0-1.293,4.139,16.991,16.991,0,0,0,3.6-7.866,15.438,15.438,0,0,0-2.311,3.7Zm20.7-10.51a15.4,15.4,0,0,0-4.167-1.294,14.984,14.984,0,0,0,3.691,2.322,15.441,15.441,0,0,0,4.166,1.255,15.387,15.387,0,0,0-3.69-2.312Zm-20.775,45.088a15.4,15.4,0,0,0-4.167-1.285,15.232,15.232,0,0,0,3.691,2.312,15.422,15.422,0,0,0,4.167,1.294A15.688,15.688,0,0,0,350.646,4299.52Zm-9.037-55.722a15.2,15.2,0,0,0-4.166-1.294,16.747,16.747,0,0,0,7.866,3.6,15.411,15.411,0,0,0-3.7-2.273Zm-4.756,74.851a15.489,15.489,0,0,0-2.036-3.862,16.8,16.8,0,0,0,3.006,8.114,15.436,15.436,0,0,0-.922-4.213Zm23.7-36.25a15.389,15.389,0,0,0-1.988-3.9,15.462,15.462,0,0,0,.951,4.252,15.2,15.2,0,0,0,2.036,3.861A15.453,15.453,0,0,0,360.548,4282.4Zm14.487,16.333a15.435,15.435,0,0,0-3.805,2.026,16.716,16.716,0,0,0,8.1-3.005,15.12,15.12,0,0,0-4.3.94Zm-40.37-21.212a15.125,15.125,0,0,0-3.805,2.036,15.847,15.847,0,0,0,4.252-.952,15.2,15.2,0,0,0,3.805-2.036A15.149,15.149,0,0,0,334.665,4277.518Zm23.657-44.356a15.528,15.528,0,0,0-3.862,2.036,15.516,15.516,0,0,0,4.251-.95,15.266,15.266,0,0,0,3.862-2.036A15.428,15.428,0,0,0,358.322,4233.162Zm35.043,14.155a15.466,15.466,0,0,0-3.805,2.037,15.451,15.451,0,0,0,4.243-.952,15.013,15.013,0,0,0,3.862-2.037A15.522,15.522,0,0,0,393.365,4247.316Zm-50.777,92.269a15.456,15.456,0,0,0-3.8,2.036,15.424,15.424,0,0,0,4.243-.951,15.031,15.031,0,0,0,3.862-2.036,15.113,15.113,0,0,0-4.3.971Z" transform="translate(-318.149 -4129.838)" fill="#fff"/>
      <path id="Trazado_99346" data-name="Trazado 99346" d="M392.964,4254.6c-9.151-4.917-45.888-26.377-53.506-31.552-.532-.361-.428-.789.171-.485,27.814,14.04,44.775,26.331,53.545,31.647A.222.222,0,0,1,392.964,4254.6Z" transform="translate(-314.504 -4127.727)" fill="#344154"/>
      <path id="Trazado_99347" data-name="Trazado 99347" d="M368.467,4298.838c6.383-11.985,12.518-24.094,18.073-36.508q2.311-5.213,4.528-10.464c1.418-3.367,2.855-6.744,4.129-10.168-1.264-.886-6.82-4.519-7.419-5.081a.242.242,0,0,1,.248-.4c.742.275,7.191,4.015,8.561,5.032.2.142-2.549,6.82-3.805,10.016s-2.53,6.374-3.862,9.513q-3.957,9.387-8.371,18.557c-3.167,6.6-6.477,13.108-9.988,19.511C367.5,4304.365,360.22,4314.277,368.467,4298.838Z" transform="translate(-309.345 -4124.952)" fill="#344154"/>
    </g>
    <g id="freepik--Pencil--inject-11" transform="translate(438.513 5921.604)">
      <path id="Trazado_99348" data-name="Trazado 99348" d="M570.988,4373.023s11.853,1.607,12.291-6.563-11.519-7.848-11.519-7.848Z" transform="translate(-474.068 -4354.122)" fill="#dd6a57"/>
      <rect id="Rectángulo_5092" data-name="Rectángulo 5092" width="14.43" height="84.117" transform="matrix(0.054, -0.999, 0.999, 0.054, 13.426, 14.436)" fill="#ef9548"/>
      <rect id="Rectángulo_5093" data-name="Rectángulo 5093" width="16.846" height="3.339" transform="matrix(0.054, -0.999, 0.999, 0.054, 94.471, 20.015)" fill="#37474f"/>
      <rect id="Rectángulo_5094" data-name="Rectángulo 5094" width="16.846" height="3.348" transform="matrix(0.054, -0.999, 0.999, 0.054, 90.772, 19.809)" fill="#37474f"/>
      <path id="Trazado_99349" data-name="Trazado 99349" d="M504.523,4354.876l-10.654,4.861-3.519,1.589,3.329,2,10.073,5.974,2.168-1.342-2.017-1.54,2.169-1.351-2.017-1.532,2.168-1.322s-1.978-1.531-2.006-1.569l2.168-1.313-2.017-1.569,2.169-1.312Z" transform="translate(-490.349 -4354.876)" fill="#ebebeb"/>
      <path id="Trazado_99350" data-name="Trazado 99350" d="M493.869,4358.92l-3.52,1.589,3.329,2Z" transform="translate(-490.35 -4354.06)" fill="#37474f"/>
    </g>
    <g id="freepik--Calculator--inject-11" transform="translate(282.589 5913.937)">
      <path id="Trazado_99351" data-name="Trazado 99351" d="M460.744,4348.5l12.318,31.81H360.618l13.441-31.771Z" transform="translate(-360.618 -4348.498)" fill="#ef9548"/>
      <path id="Trazado_99352" data-name="Trazado 99352" d="M461.638,4350.421l11.424,29.5v5.393H360.618v-5.393l12.471-29.469Z" transform="translate(-360.618 -4348.109)" fill="#ef9548"/>
      <path id="Trazado_99353" data-name="Trazado 99353" d="M460.744,4348.5l12.318,31.81H360.618l13.441-31.771Z" transform="translate(-360.618 -4348.498)" fill="#ef9548" opacity="0.1" style="isolation: isolate"/>
      <path id="Trazado_99354" data-name="Trazado 99354" d="M399.294,4367.84l-.7,6.117h-13.66l1.313-6.117Z" transform="translate(-355.709 -4344.592)" fill="#fff"/>
      <path id="Trazado_99355" data-name="Trazado 99355" d="M399.852,4362.078l-.713,6.117H386.173l1.322-6.117Z" transform="translate(-355.458 -4345.755)" fill="#fff"/>
      <path id="Trazado_99356" data-name="Trazado 99356" d="M400.4,4356.316l-.7,6.117h-12.28l1.322-6.117Z" transform="translate(-355.207 -4346.918)" fill="#ef9548"/>
      <path id="Trazado_99357" data-name="Trazado 99357" d="M400.956,4350.556l-.713,6.106-11.576.01,1.322-6.116Z" transform="translate(-354.955 -4348.082)" fill="#ef9548"/>
      <path id="Trazado_99358" data-name="Trazado 99358" d="M411.635,4367.84l-.01,6.117h-13.66l.618-6.117Z" transform="translate(-353.077 -4344.592)" fill="#37474f"/>
      <path id="Trazado_99359" data-name="Trazado 99359" d="M411.517,4362.078v6.117H398.551l.618-6.117Z" transform="translate(-352.959 -4345.755)" fill="#37474f"/>
      <path id="Trazado_99360" data-name="Trazado 99360" d="M411.409,4356.316v6.107h-12.28l.618-6.107Z" transform="translate(-352.842 -4346.918)" fill="#37474f"/>
      <path id="Trazado_99361" data-name="Trazado 99361" d="M411.362,4350.547v6.116H399.786l.609-6.106Z" transform="translate(-352.71 -4348.083)" fill="#fff"/>
      <path id="Trazado_99362" data-name="Trazado 99362" d="M423.98,4367.84l.694,6.117h-13.66l-.086-6.117Z" transform="translate(-350.46 -4344.592)" fill="#37474f"/>
      <path id="Trazado_99363" data-name="Trazado 99363" d="M423.207,4362.078l.694,6.107-12.965.01-.086-6.117Z" transform="translate(-350.476 -4345.755)" fill="#37474f"/>
      <path id="Trazado_99364" data-name="Trazado 99364" d="M422.433,4356.309l.694,6.117H410.857l-.086-6.107Z" transform="translate(-350.492 -4346.92)" fill="#37474f"/>
      <path id="Trazado_99365" data-name="Trazado 99365" d="M421.66,4350.547l.694,6.116H410.778l-.086-6.116Z" transform="translate(-350.508 -4348.083)" fill="#fff"/>
      <path id="Trazado_99366" data-name="Trazado 99366" d="M436.437,4367.84l1.4,6.117H424.167l-.78-6.117Z" transform="translate(-347.945 -4344.592)" fill="#37474f"/>
      <path id="Trazado_99367" data-name="Trazado 99367" d="M435,4362.07l1.4,6.116H423.432l-.79-6.107Z" transform="translate(-348.095 -4345.756)" fill="#37474f"/>
      <path id="Trazado_99368" data-name="Trazado 99368" d="M433.561,4356.309l1.4,6.117H422.688l-.79-6.117Z" transform="translate(-348.245 -4346.92)" fill="#37474f"/>
      <path id="Trazado_99369" data-name="Trazado 99369" d="M432.13,4350.539l1.4,6.117-11.586.009-.78-6.116Z" transform="translate(-348.394 -4348.085)" fill="#fff"/>
      <path id="Trazado_99370" data-name="Trazado 99370" d="M448.887,4367.84l2.1,6.107-13.66.01-1.493-6.117Z" transform="translate(-345.431 -4344.592)" fill="#37474f"/>
      <path id="Trazado_99371" data-name="Trazado 99371" d="M446.791,4362.07l2.1,6.116H435.919l-1.484-6.116Z" transform="translate(-345.714 -4345.756)" fill="#37474f"/>
      <path id="Trazado_99372" data-name="Trazado 99372" d="M444.688,4356.3l2.1,6.117-12.271.009-1.493-6.116Z" transform="translate(-345.999 -4346.921)" fill="#fff"/>
      <path id="Trazado_99373" data-name="Trazado 99373" d="M442.593,4350.539l2.1,6.117H433.119l-1.493-6.117Z" transform="translate(-346.281 -4348.085)" fill="#fff"/>
      <path id="Trazado_99374" data-name="Trazado 99374" d="M389.982,4371.462h0c-.542,0-.952-.171-.952-.419s.534-.418,1.066-.418h0c.542,0,.951.161.951.418S390.5,4371.462,389.982,4371.462Zm.1-.609h0c-.314,0-.581.076-.609.19s.228.19.534.19h0c.314,0,.579-.076.6-.19S390.391,4370.853,390.086,4370.853Zm2.549.314-3.281-1.161a.082.082,0,0,1-.087-.1c.01-.038.114-.095.228-.095h.143l3.291,1.169a.092.092,0,0,1,.087.086c0,.028-.114.1-.238.1a.336.336,0,0,1-.143-.009Zm-.476-.78h0c-.542,0-.951-.172-.951-.42s.523-.418,1.046-.418h0c.534,0,.952.172.952.418s-.514.42-1.047.42Zm.1-.619h0c-.314,0-.579.087-.6.2s.228.191.523.191h0c.314,0,.581-.077.6-.191s-.228-.2-.524-.2Z" transform="translate(-354.882 -4344.247)" fill="#37474f"/>
      <path id="Trazado_99375" data-name="Trazado 99375" d="M392.725,4360.413c-1,0-1.731-.419-1.636-.951a.95.95,0,0,1,.5-.59.519.519,0,0,1,.4,0c.114.047.124.143,0,.2a.635.635,0,0,0-.343.409.439.439,0,0,0,.276.457,1.8,1.8,0,0,0,.846.191,2.152,2.152,0,0,0,.9-.191.7.7,0,0,0,.438-.457.429.429,0,0,0-.209-.409c-.076-.056-.048-.151.085-.2a.5.5,0,0,1,.391,0,.639.639,0,0,1,.3.59C394.61,4359.994,393.734,4360.413,392.725,4360.413Z" transform="translate(-354.467 -4346.41)" fill="#37474f"/>
      <path id="Trazado_99376" data-name="Trazado 99376" d="M394.535,4358.607H391.6c-.153,0-.257-.067-.248-.143h0l.153-.818c0-.076.143-.142.294-.142s.267.066.257.142l-.124.684h.952l.095-.588c0-.077.151-.143.294-.143s.267.066.257.143l-.095.588h.951l.114-.684c0-.076.143-.142.294-.142s.257.066.248.142l-.124.818h0A.451.451,0,0,1,394.535,4358.607Z" transform="translate(-354.412 -4346.679)" fill="#37474f"/>
      <path id="Trazado_99377" data-name="Trazado 99377" d="M393.793,4354.026c-.952,0-1.618-.428-1.531-.95a.949.949,0,0,1,.475-.59.464.464,0,0,1,.371,0c.114.057.114.153,0,.209a.6.6,0,0,0-.333.41.485.485,0,0,0,.257.456,1.6,1.6,0,0,0,.788.181,1.913,1.913,0,0,0,.847-.181.732.732,0,0,0,.418-.456.428.428,0,0,0-.2-.41c-.067-.056,0-.152.085-.209a.414.414,0,0,1,.371,0,.627.627,0,0,1,.275.59C395.552,4353.6,394.734,4354.026,393.793,4354.026Z" transform="translate(-354.231 -4347.701)" fill="#37474f"/>
      <path id="Trazado_99378" data-name="Trazado 99378" d="M402.609,4369.921l3.244.639c.114,0,.18.065.18.123a.115.115,0,0,1,0,.057.549.549,0,0,1-.409.076l-2.853-.552v.656c0,.077-.153.143-.323.143s-.3-.066-.3-.143l.058-.875h0l.056-.056h.371Z" transform="translate(-352.232 -4344.172)" fill="#fff"/>
      <path id="Trazado_99379" data-name="Trazado 99379" d="M404.988,4364.161c.695,0,1.246.275,1.227.608s-.59.609-1.284.609a1.758,1.758,0,0,1-1.037-.276,1.48,1.48,0,0,1-.523.085c-.476,0-.857-.19-.847-.418s.419-.418.894-.418a1.4,1.4,0,0,1,.514.086A1.893,1.893,0,0,1,404.988,4364.161Zm0,.275c-.37,0-.695.152-.7.333s.294.323.674.333.685-.152.695-.333-.3-.333-.675-.333Zm-1.6.476c.171,0,.3-.067.314-.143s-.133-.144-.3-.144-.294.067-.294.144.114.1.267.1Z" transform="translate(-352.157 -4345.334)" fill="#fff"/>
      <path id="Trazado_99380" data-name="Trazado 99380" d="M404.084,4359.6c-.675,0-1.2-.275-1.18-.618s.514-.581,1.123-.609h.294a5.956,5.956,0,0,1,1.008.086,2.029,2.029,0,0,1,.838.334.527.527,0,0,1,.219.379c0,.076-.114.143-.276.143s-.266-.058-.275-.134a.325.325,0,0,0-.133-.237,1.023,1.023,0,0,0-.342-.162h-.124a.364.364,0,0,1,.087.237C405.3,4359.327,404.75,4359.6,404.084,4359.6Zm0-.275c.361,0,.666-.153.675-.343s-.276-.333-.638-.333-.656.151-.666.333.276.343.638.343Z" transform="translate(-352.08 -4346.503)" fill="#fff"/>
      <path id="Trazado_99381" data-name="Trazado 99381" d="M404.755,4353.731c-.153,0-.276-.067-.276-.143v-.8c0-.075.143-.152.3-.152s.266.077.266.152v.8C405.04,4353.664,404.907,4353.731,404.755,4353.731Z" transform="translate(-351.762 -4347.662)" fill="#37474f"/>
      <path id="Trazado_99382" data-name="Trazado 99382" d="M417.626,4369.818c.171,0,.314.058.314.143h.418c.172,0,.305.066.315.144s-.124.142-.3.142h-.418l.056.789h0a.1.1,0,0,1-.066.086.547.547,0,0,1-.428,0l-2.617-.951h2.417C417.322,4369.876,417.456,4369.818,417.626,4369.818Zm-1.645.447,1.407.5v-.5Z" transform="translate(-349.671 -4344.193)" fill="#fff"/>
      <path id="Trazado_99383" data-name="Trazado 99383" d="M415.954,4364.378a2.059,2.059,0,0,1,.952-.191,2.32,2.32,0,0,1,.951.191c.267.125.4.285.41.447h0c0,.161-.106.324-.352.447a.547.547,0,0,1-.428,0c-.124-.057-.124-.153,0-.208s.209-.153.2-.238a.353.353,0,0,0-.228-.248,1.242,1.242,0,0,0-.5-.094,1.157,1.157,0,0,0-.5.094.286.286,0,0,0-.19.248c0,.085.076.171.219.238s.132.152,0,.208h-.248l-1.38-.077a.4.4,0,0,1-.209-.066h0a.12.12,0,0,1,0-.065v-.752c0-.086.124-.152.3-.152s.294.065.294.152v.618h.523a.3.3,0,0,1-.056-.171C415.584,4364.663,415.7,4364.5,415.954,4364.378Z" transform="translate(-349.711 -4345.334)" fill="#fff"/>
      <path id="Trazado_99384" data-name="Trazado 99384" d="M416.5,4358.366c.666,0,1.227.276,1.246.619s-.428.58-1.037.618h-.294a5.337,5.337,0,0,1-1.028-.1,2.06,2.06,0,0,1-.875-.323.612.612,0,0,1-.257-.381c0-.085.1-.142.257-.152s.276.057.294.134a.352.352,0,0,0,.153.246,1.256,1.256,0,0,0,.362.153h.133a.391.391,0,0,1-.114-.248C415.319,4358.643,415.842,4358.366,416.5,4358.366Zm0,.286c-.352,0-.647.152-.637.333s.323.333.685.333.647-.144.627-.333-.294-.333-.656-.333Z" transform="translate(-349.789 -4346.504)" fill="#fff"/>
      <path id="Trazado_99385" data-name="Trazado 99385" d="M415.84,4353.694c0,.076-.1.133-.238.133s-.248-.057-.256-.133l-.058-1.027c0-.066.1-.132.238-.132s.238.057.248.132Zm-1.274-.685h0c.171,0,.323.077.323.171s-.133.181-.305.181h0c-.171,0-.314-.076-.323-.181s.124-.171.3-.171Zm1.9,0h0c.172,0,.315.077.315.171s-.124.181-.3.181h0c-.18,0-.323-.085-.333-.181s.182-.171.352-.171Z" transform="translate(-349.787 -4347.682)" fill="#37474f"/>
      <path id="Trazado_99386" data-name="Trazado 99386" d="M427.824,4370.159H431.1c.172,0,.315.065.333.142s-.1.143-.275.143h-2.778l.143.1s.056.058.056.077,0,.1-.133.114a.547.547,0,0,1-.428,0l-.457-.314h.238Z" transform="translate(-347.103 -4344.124)" fill="#fff"/>
      <path id="Trazado_99387" data-name="Trazado 99387" d="M429.907,4364.145c.171,0,.3.066.323.143l.171.9h0a.094.094,0,0,1-.076.1.568.568,0,0,1-.418,0l-1.55-.76a1.271,1.271,0,0,0-.523-.1,1.008,1.008,0,0,0-.437.085c-.143.066-.2.152-.182.248s.085.152.209.219l.162.077c.124.057.124.142,0,.2a.565.565,0,0,1-.41,0l-.161-.076a.635.635,0,0,1-.4-.409.5.5,0,0,1,.341-.457,1.981,1.981,0,0,1,.818-.162,2.262,2.262,0,0,1,.952.209l.951.477-.1-.544A.387.387,0,0,1,429.907,4364.145Z" transform="translate(-347.293 -4345.338)" fill="#fff"/>
      <path id="Trazado_99388" data-name="Trazado 99388" d="M426.993,4358.585a1.757,1.757,0,0,1,.819-.161,2.182,2.182,0,0,1,.9.18c.267.124.419.287.447.447a.435.435,0,0,1-.275.447.485.485,0,0,1-.4,0c-.123-.056-.132-.144,0-.2a.257.257,0,0,0,.153-.248.4.4,0,0,0-.248-.237,1.03,1.03,0,0,0-.494-.1.8.8,0,0,0-.447.1c-.124.066-.172.152-.162.237s0,.076-.066.1h0a.522.522,0,0,1-.4,0l-.56-.257.066.41c0,.076-.095.143-.257.143s-.294-.067-.3-.143l-.124-.751c0-.086.1-.144.257-.144h.209l.7.324A.669.669,0,0,1,426.993,4358.585Z" transform="translate(-347.49 -4346.495)" fill="#fff"/>
      <path id="Trazado_99389" data-name="Trazado 99389" d="M425.858,4352.737l.818.306.714-.306a.435.435,0,0,1,.343,0s.066.058.066.087a.113.113,0,0,1-.076.114l-.6.256.695.247a.145.145,0,0,1,.124.1.254.254,0,0,1,0,.086.386.386,0,0,1-.333,0l-.838-.3-.713.3a.427.427,0,0,1-.343,0c-.087-.066-.077-.142,0-.19l.589-.247-.675-.256c-.114-.048-.151-.133-.085-.2A.406.406,0,0,1,425.858,4352.737Z" transform="translate(-347.516 -4347.648)" fill="#37474f"/>
      <path id="Trazado_99390" data-name="Trazado 99390" d="M442.856,4370.325c0-.1.133-.19.361-.19s.439.086.476.19-.133.191-.362.191S442.893,4370.43,442.856,4370.325Z" transform="translate(-344.014 -4344.128)" fill="#fff"/>
      <path id="Trazado_99391" data-name="Trazado 99391" d="M440.762,4365.444a4.65,4.65,0,0,1-1.322-.171c-.362-.1-.656-.276-.714-.476s.143-.361.447-.466a3.528,3.528,0,0,1,1.209-.17,4.506,4.506,0,0,1,1.3.17c.37.105.675.277.732.466s-.142.372-.447.476A3.615,3.615,0,0,1,440.762,4365.444Zm-.294-1a3.152,3.152,0,0,0-.952.114c-.2.076-.285.163-.256.238s.151.171.389.248a3.99,3.99,0,0,0,.952.124,3.17,3.17,0,0,0,.9-.124c.2-.077.276-.162.248-.248s-.143-.162-.4-.238a3.891,3.891,0,0,0-.885-.114Z" transform="translate(-344.85 -4345.335)" fill="#fff"/>
      <path id="Trazado_99392" data-name="Trazado 99392" d="M438.461,4359.482c-.151,0-.3-.066-.333-.151l-.219-.78c0-.086.087-.153.238-.153s.3.066.333.153l.228.78C438.737,4359.378,438.652,4359.482,438.461,4359.482Zm.952,0c-.172,0-.323-.066-.343-.151l-.238-.78c0-.086.095-.153.257-.153s.314.066.333.153l.238.78c.008.047-.058.151-.267.151Z" transform="translate(-345.013 -4346.498)" fill="#37474f"/>
      <path id="Trazado_99393" data-name="Trazado 99393" d="M437.336,4353.324l.114.362c0,.075-.076.133-.219.133s-.285-.058-.3-.133l-.1-.362H436.2c-.142,0-.285-.066-.3-.142s.076-.153.228-.153h.647l-.1-.361c0-.076.076-.142.219-.142s.276.066.294.142l.106.361h.656a.344.344,0,0,1,.314.144c0,.085-.077.151-.228.151Z" transform="translate(-345.419 -4347.684)" fill="#37474f"/>
      <path id="Trazado_99394" data-name="Trazado 99394" d="M390.677,4363.9c.124,0,.219.047.209.1l-.056.324c.742.132,2.683.465,3.244.542a.488.488,0,0,1,.171.056.077.077,0,0,1,.048.077s0,.066-.1.095-.743.343-1.008.447a.989.989,0,0,1-.552.066c-.029-.019,0,0,0-.057s0-.067.085-.1l.257-.114.209-.1.2-.085.209-.095-3.062-.533h-.077s-.066-.058-.056-.085l.076-.419C390.449,4363.975,390.563,4363.9,390.677,4363.9Z" transform="translate(-354.607 -4345.388)" fill="#37474f"/>
      <path id="Trazado_99395" data-name="Trazado 99395" d="M388.112,4350.556l-7.382,26.891H366.348l10.216-26.881Z" transform="translate(-359.461 -4348.082)" fill="#455a64"/>
      <path id="Trazado_99396" data-name="Trazado 99396" d="M374.3,4360.662h5.013c.266,0,.438.1.4.236s-.275.229-.542.229h-4.175l.133.172a.125.125,0,0,1,0,.123.455.455,0,0,1-.305.2.674.674,0,0,1-.618-.084l-.437-.515h.3Z" transform="translate(-357.964 -4346.041)" fill="#fff"/>
      <path id="Trazado_99397" data-name="Trazado 99397" d="M379.959,4358.612c.257,0,.418.1.381.238l-.457,1.5h0a.37.37,0,0,1-.2.17.85.85,0,0,1-.656,0l-1.846-1.265a1.321,1.321,0,0,0-.742-.172,2.312,2.312,0,0,0-.77.134.826.826,0,0,0-.5.41.3.3,0,0,0,.153.37l.19.133c.143.1.076.238-.143.333a.8.8,0,0,1-.656,0l-.19-.133a.561.561,0,0,1-.275-.685,1.5,1.5,0,0,1,.951-.751,3.816,3.816,0,0,1,1.427-.266,2.491,2.491,0,0,1,1.361.333l1.179.809.276-.9C379.465,4358.717,379.7,4358.612,379.959,4358.612Z" transform="translate(-357.872 -4346.455)" fill="#fff"/>
      <path id="Trazado_99398" data-name="Trazado 99398" d="M377.5,4356.838a3.8,3.8,0,0,1,1.523-.306,2.578,2.578,0,0,1,1.332.306.647.647,0,0,1,.37.751,1.411,1.411,0,0,1-.827.741.793.793,0,0,1-.656,0c-.153-.1-.106-.248.1-.342a.756.756,0,0,0,.447-.4.356.356,0,0,0-.191-.411,1.442,1.442,0,0,0-.732-.17,2.038,2.038,0,0,0-.828.17.878.878,0,0,0-.465.4c0,.075-.087.134-.2.18h0a.824.824,0,0,1-.656,0l-.7-.428-.238.686c0,.133-.3.238-.552.238s-.428-.1-.381-.238l.438-1.256c0-.134.3-.238.542-.238a.683.683,0,0,1,.209,0h.1l.876.542A1.841,1.841,0,0,1,377.5,4356.838Z" transform="translate(-357.748 -4346.878)" fill="#fff"/>
      <path id="Trazado_99399" data-name="Trazado 99399" d="M380.22,4354.077c.248,0,.4.1.362.238v.047h.609c.246,0,.4.1.361.229s-.256.238-.5.238h-.609l-.418,1.332h0a.266.266,0,0,1-.143.152.768.768,0,0,1-.627,0l-3.167-1.57h0v-.048h3.443v-.047C379.792,4354.191,379.983,4354.077,380.22,4354.077Zm-2.644.751,1.693.846.275-.846Z" transform="translate(-357.496 -4347.371)" fill="#fff"/>
      <path id="Trazado_99400" data-name="Trazado 99400" d="M378.972,4352.373a3.5,3.5,0,0,1,1.465-.313,2.373,2.373,0,0,1,1.256.313.625.625,0,0,1,.341.741h0a1.336,1.336,0,0,1-.8.742.724.724,0,0,1-.629,0c-.142-.1-.095-.247.1-.341a.746.746,0,0,0,.438-.41.331.331,0,0,0-.18-.4,1.263,1.263,0,0,0-.685-.172,1.907,1.907,0,0,0-.8.172.73.73,0,0,0-.438.4.335.335,0,0,0,.172.41c.143.095.085.246-.114.341l-.114.048h-.276l-2-.124a.438.438,0,0,1-.275-.114h0a.085.085,0,0,1,0-.1l.438-1.255c0-.133.275-.237.523-.237s.4.1.352.237l-.362,1.046.761.048a.763.763,0,0,1,0-.286A1.418,1.418,0,0,1,378.972,4352.373Z" transform="translate(-357.427 -4347.778)" fill="#fff"/>
    </g>
    <g id="freepik--speech-bubble--inject-11" transform="translate(399.332 5711.587)">
      <path id="Trazado_99401" data-name="Trazado 99401" d="M524.584,4135.576a31.752,31.752,0,0,1-50.681,25.5l-15.591,3.966,6.478-14.487a31.762,31.762,0,1,1,59.756-14.982Z" transform="translate(-457.637 -4103.644)" fill="#fff"/>
      <path id="Trazado_99402" data-name="Trazado 99402" d="M524.7,4135.6a31.91,31.91,0,0,1-4.708,16.675,36.055,36.055,0,0,1-2.52,3.588,35.6,35.6,0,0,1-3.035,3.166c-.561.476-1.056,1.027-1.655,1.446l-1.76,1.322c-.58.437-1.237.789-1.846,1.18l-.951.579c-.314.181-.656.333-.952.5l-1.978.95-2.064.771a14.644,14.644,0,0,1-2.1.638c-.714.171-1.417.418-2.141.523a30.933,30.933,0,0,1-4.376.532,27.063,27.063,0,0,1-4.4,0,31.822,31.822,0,0,1-16.37-6.1l.285.058-15.533,4.052-.838.218.352-.8,6.44-14.5v.4a31.452,31.452,0,0,1-3.8-13.992A31.99,31.99,0,1,1,524.7,4135.6Zm0,0a31.835,31.835,0,0,0-12.28-24.959,32.236,32.236,0,0,0-12.936-5.944,31.635,31.635,0,0,0-14.193.389,31.23,31.23,0,0,0-12.594,6.507,32.732,32.732,0,0,0-8.428,11.329,31.388,31.388,0,0,0,1.046,27.451l.1.2-.085.2-6.516,14.468-.486-.571,15.581-3.9h.153l.132.094a31.4,31.4,0,0,0,16,6.193,27.613,27.613,0,0,0,4.347.065,31.556,31.556,0,0,0,4.328-.464c.724-.106,1.417-.333,2.131-.5a14.457,14.457,0,0,0,2.093-.609l2.055-.732,1.969-.951c.333-.162.666-.305.951-.476l.952-.561c.618-.391,1.274-.722,1.855-1.151l1.76-1.3a19.618,19.618,0,0,0,1.655-1.427,36.179,36.179,0,0,0,3.044-3.139,34.727,34.727,0,0,0,2.53-3.568A31.833,31.833,0,0,0,524.7,4135.6Z" transform="translate(-457.75 -4103.667)" fill="#344154"/>
      <path id="Trazado_99403" data-name="Trazado 99403" d="M486.155,4149.452l-11.824-11.958,3.976-3.919,6.9,6.982,14.345-22.478,4.7,3Z" transform="translate(-454.402 -4100.758)" fill="#ef9548"/>
    </g>
  </g>
</svg>
