<svg xmlns="http://www.w3.org/2000/svg" width="505" height="491" viewBox="0 0 505 491">
  <g id="Grupo_1176889" data-name="Grupo 1176889" transform="translate(-915 -3193)">
    <rect id="Rectángulo_404795" data-name="Rectángulo 404795" width="327.071" height="491" rx="12" transform="translate(1000 3193)" fill="#fed6a8"/>
    <g id="Grupo_56943" data-name="Grupo 56943" transform="translate(846.815 3256.924)">
      <g id="Grupo_56942" data-name="Grupo 56942" transform="translate(68.185 28)">
        <g id="Grupo_56682" data-name="Grupo 56682" transform="translate(366.576 303.523)">
          <g id="Grupo_56681" data-name="Grupo 56681">
            <path id="Trazado_101894" data-name="Trazado 101894" d="M943.915,4998.183a17.643,17.643,0,0,1,4.316-1.877l.889-4.272,7.219-.126,1.038,4.239a17.692,17.692,0,0,1,4.38,1.723l3.648-2.393,5.194,5.017-2.261,3.729a17.617,17.617,0,0,1,1.876,4.317l4.273.89.127,7.219-4.239,1.039a17.738,17.738,0,0,1-1.723,4.379l2.39,3.647-5.014,5.2-3.729-2.262a17.7,17.7,0,0,1-4.318,1.875l-.89,4.273-7.218.126-1.039-4.238a17.724,17.724,0,0,1-4.379-1.723l-3.648,2.391-5.2-5.014,2.262-3.73a17.645,17.645,0,0,1-1.877-4.318l-4.272-.89-.127-7.218,4.239-1.038a17.7,17.7,0,0,1,1.723-4.378l-2.391-3.648,5.015-5.2,3.73,2.263Zm3.848,9.616a7.745,7.745,0,1,0,10.951-.193A7.743,7.743,0,0,0,947.763,5007.8Z" transform="translate(-931.599 -4991.907)" fill="#f5f5f5"/>
          </g>
        </g>
        <g id="Grupo_1176888" data-name="Grupo 1176888" transform="translate(-32.303 -43.997)">
          <rect id="Rectángulo_5293" data-name="Rectángulo 5293" width="292.994" height="412.511" transform="translate(244.309 21.843)" fill="#344154" opacity="0.15"/>
          <g id="Grupo_56703" data-name="Grupo 56703" transform="translate(218.395)">
            <g id="Grupo_56699" data-name="Grupo 56699" transform="translate(0)">
              <g id="Grupo_56685" data-name="Grupo 56685">
                <rect id="Rectángulo_5298" data-name="Rectángulo 5298" width="295.04" height="416.3" transform="translate(0.342 0.343)" fill="#fff"/>
                <g id="Grupo_56684" data-name="Grupo 56684">
                  <path id="Trazado_101896" data-name="Trazado 101896" d="M1119.235,5138.091c0-2.77-.127-170.367-.311-416.3l.311.311-295.006.03h-.034l.344-.34c-.024,156-.047,300.258-.065,416.3l-.279-.279c179.206.168,292.758.276,295.04.279l-295.04.277h-.277v-.277c-.018-116.041-.04-260.3-.065-416.3v-.345h.376c105.576.014,205.785.022,295.006.031h.312v.314C1119.363,4967.726,1119.238,5135.324,1119.235,5138.091Z" transform="translate(-823.853 -4721.446)" fill="#1a2e35"/>
                </g>
              </g>
              <rect id="Rectángulo_5299" data-name="Rectángulo 5299" width="125.95" height="28.878" rx="6.688" transform="translate(20.217 276.742)" fill="#f5f5f5"/>
              <rect id="Rectángulo_5300" data-name="Rectángulo 5300" width="59.141" height="28.878" rx="6.688" transform="translate(81.947 276.742)" fill="#f5f5f5"/>
              <rect id="Rectángulo_5301" data-name="Rectángulo 5301" width="259.705" height="28.877" rx="6.688" transform="translate(19.622 335.934)" fill="#f5f5f5"/>
              <g id="Grupo_56686" data-name="Grupo 56686" transform="translate(23.67 264.78)">
                <path id="Trazado_101897" data-name="Trazado 101897" d="M892.764,4884.378c0,.191-12.175.343-27.186.343s-27.19-.152-27.19-.343,12.171-.341,27.19-.341S892.764,4884.19,892.764,4884.378Z" transform="translate(-838.388 -4884.037)" fill="#1a2e35"/>
              </g>
              <g id="Grupo_56687" data-name="Grupo 56687" transform="translate(24.354 323.673)">
                <path id="Trazado_101898" data-name="Trazado 101898" d="M927.006,4920.543c0,.188-19.746.343-44.1.343s-44.1-.155-44.1-.343,19.741-.342,44.1-.342S927.006,4920.354,927.006,4920.543Z" transform="translate(-838.808 -4920.201)" fill="#1a2e35"/>
              </g>
              <rect id="Rectángulo_5302" data-name="Rectángulo 5302" width="126.941" height="31.568" rx="6.508" transform="translate(14.985 211.182)" fill="#e1e1e1"/>
              <rect id="Rectángulo_5303" data-name="Rectángulo 5303" width="264.342" height="31.568" rx="6.508" transform="translate(14.985 19.247)" fill="#e1e1e1"/>
              <g id="Grupo_56688" data-name="Grupo 56688" transform="translate(98.699 34.689)">
                <path id="Trazado_101899" data-name="Trazado 101899" d="M989.221,4743.09c0,.188-23.453.341-52.378.341s-52.384-.153-52.384-.341,23.449-.343,52.384-.343S989.221,4742.9,989.221,4743.09Z" transform="translate(-884.46 -4742.747)" fill="#1a2e35"/>
              </g>
              <g id="Grupo_56689" data-name="Grupo 56689" transform="translate(0.078 58.117)">
                <path id="Trazado_101900" data-name="Trazado 101900" d="M1119.2,4757.476c0,.19-66.111.345-147.645.345-81.562,0-147.659-.154-147.659-.345s66.1-.342,147.659-.342C1053.093,4757.134,1119.2,4757.287,1119.2,4757.476Z" transform="translate(-823.901 -4757.134)" fill="#ececec"/>
              </g>
              <g id="Grupo_56690" data-name="Grupo 56690" transform="translate(0.078 197.767)">
                <path id="Trazado_101901" data-name="Trazado 101901" d="M1119.2,4843.229c0,.188-66.111.343-147.645.343-81.562,0-147.659-.154-147.659-.343s66.1-.342,147.659-.342C1053.093,4842.887,1119.2,4843.039,1119.2,4843.229Z" transform="translate(-823.901 -4842.887)" fill="#ececec"/>
              </g>
              <rect id="Rectángulo_5304" data-name="Rectángulo 5304" width="125.95" height="28.878" rx="6.688" transform="translate(20.217 90.107)" fill="#f5f5f5"/>
              <rect id="Rectángulo_5305" data-name="Rectángulo 5305" width="59.141" height="28.878" rx="6.688" transform="translate(81.947 90.107)" fill="#f5f5f5"/>
              <rect id="Rectángulo_5306" data-name="Rectángulo 5306" width="124.714" height="28.877" rx="6.688" transform="translate(17.212 149.3)" fill="#f5f5f5"/>
              <g id="Grupo_56691" data-name="Grupo 56691" transform="translate(23.67 78.146)">
                <path id="Trazado_101902" data-name="Trazado 101902" d="M892.764,4769.774c0,.188-12.175.346-27.186.346s-27.19-.157-27.19-.346,12.171-.341,27.19-.341S892.764,4769.585,892.764,4769.774Z" transform="translate(-838.388 -4769.433)" fill="#1a2e35"/>
              </g>
              <g id="Grupo_56692" data-name="Grupo 56692" transform="translate(163.859 78.146)">
                <path id="Trazado_101903" data-name="Trazado 101903" d="M967.287,4769.774c0,.188-9.585.346-21.405.346s-21.41-.157-21.41-.346,9.584-.341,21.41-.341S967.287,4769.585,967.287,4769.774Z" transform="translate(-924.472 -4769.433)" fill="#1a2e35"/>
              </g>
              <g id="Grupo_56693" data-name="Grupo 56693" transform="translate(24.354 137.038)">
                <path id="Trazado_101904" data-name="Trazado 101904" d="M927.006,4805.939c0,.188-19.746.341-44.1.341s-44.1-.152-44.1-.341,19.741-.343,44.1-.343S927.006,4805.75,927.006,4805.939Z" transform="translate(-838.808 -4805.596)" fill="#1a2e35"/>
              </g>
              <g id="Grupo_56694" data-name="Grupo 56694" transform="translate(184.186 382.019)">
                <path id="Trazado_101905" data-name="Trazado 101905" d="M1022.983,4956.371c0,.19-19.259.343-43.012.343s-43.017-.153-43.017-.343,19.255-.343,43.017-.343S1022.983,4956.184,1022.983,4956.371Z" transform="translate(-936.954 -4956.028)" fill="#1a2e35"/>
              </g>
              <g id="Grupo_56695" data-name="Grupo 56695" transform="translate(153.584 87.679)">
                <path id="Trazado_101906" data-name="Trazado 101906" d="M927.626,4792.967a2.482,2.482,0,0,0-.617-1.771,5.577,5.577,0,0,0-2.094-1.211,25.145,25.145,0,0,1-2.549-1.106,8.267,8.267,0,0,1-1.837-1.259,5.072,5.072,0,0,1-1.194-1.676,5.631,5.631,0,0,1-.427-2.291,5.076,5.076,0,0,1,1.464-3.754,6.166,6.166,0,0,1,3.892-1.71v-2.9h2.169v2.943a5.658,5.658,0,0,1,3.755,2,6.59,6.59,0,0,1,1.355,4.3h-3.918a3.732,3.732,0,0,0-.671-2.432,2.211,2.211,0,0,0-1.8-.807,2.286,2.286,0,0,0-1.722.628,2.4,2.4,0,0,0-.611,1.743,2.3,2.3,0,0,0,.6,1.655,6.589,6.589,0,0,0,2.218,1.273,24.57,24.57,0,0,1,2.663,1.228,7.649,7.649,0,0,1,1.764,1.3,5.012,5.012,0,0,1,1.1,1.655,5.706,5.706,0,0,1,.379,2.163,5.059,5.059,0,0,1-1.437,3.74,6.294,6.294,0,0,1-3.958,1.694v2.7h-2.156v-2.683a6.526,6.526,0,0,1-4.3-1.974,6.356,6.356,0,0,1-1.526-4.453h3.918a3.607,3.607,0,0,0,.767,2.475,2.794,2.794,0,0,0,2.2.861,2.691,2.691,0,0,0,1.886-.631A2.193,2.193,0,0,0,927.626,4792.967Z" transform="translate(-918.163 -4775.286)" fill="#aed3f2"/>
                <path id="Trazado_101907" data-name="Trazado 101907" d="M941.411,4796.959h-3.918v-15.1l-4.678,1.45v-3.185l8.174-2.928h.422Z" transform="translate(-908.954 -4774.089)" fill="#aed3f2"/>
                <path id="Trazado_101908" data-name="Trazado 101908" d="M955.339,4788.893a9.994,9.994,0,0,1-1.7,6.261,6.77,6.77,0,0,1-9.9.041,9.717,9.717,0,0,1-1.749-6.1v-3.631q0-4.136,1.715-6.276a6.785,6.785,0,0,1,9.876-.021,9.677,9.677,0,0,1,1.75,6.093Zm-3.919-4a7.212,7.212,0,0,0-.671-3.575,2.269,2.269,0,0,0-2.094-1.122,2.231,2.231,0,0,0-2.04,1.066,6.774,6.774,0,0,0-.7,3.333v4.8a7.576,7.576,0,0,0,.658,3.587,2.235,2.235,0,0,0,2.107,1.175,2.2,2.2,0,0,0,2.075-1.125,7.39,7.39,0,0,0,.664-3.445Z" transform="translate(-903.182 -4774.183)" fill="#aed3f2"/>
                <path id="Trazado_101909" data-name="Trazado 101909" d="M965.121,4788.893a9.99,9.99,0,0,1-1.7,6.261,6.77,6.77,0,0,1-9.9.041,9.708,9.708,0,0,1-1.749-6.1v-3.631q0-4.136,1.715-6.276a6.785,6.785,0,0,1,9.877-.021,9.677,9.677,0,0,1,1.749,6.093Zm-3.918-4a7.208,7.208,0,0,0-.671-3.575,2.269,2.269,0,0,0-2.094-1.122,2.232,2.232,0,0,0-2.041,1.066,6.78,6.78,0,0,0-.7,3.333v4.8a7.576,7.576,0,0,0,.658,3.587,2.237,2.237,0,0,0,2.107,1.175,2.2,2.2,0,0,0,2.075-1.125,7.4,7.4,0,0,0,.664-3.445Z" transform="translate(-897.034 -4774.183)" fill="#aed3f2"/>
                <path id="Trazado_101910" data-name="Trazado 101910" d="M961.82,4788.958a1.974,1.974,0,0,1,.63-1.518,2.456,2.456,0,0,1,3.172,0,1.973,1.973,0,0,1,.63,1.518,1.939,1.939,0,0,1-.624,1.5,2.486,2.486,0,0,1-3.185,0A1.944,1.944,0,0,1,961.82,4788.958Z" transform="translate(-890.724 -4768.015)" fill="#aed3f2"/>
                <path id="Trazado_101911" data-name="Trazado 101911" d="M979.855,4788.893a10,10,0,0,1-1.694,6.261,6.771,6.771,0,0,1-9.9.041,9.707,9.707,0,0,1-1.749-6.1v-3.631q0-4.136,1.716-6.276a6.784,6.784,0,0,1,9.876-.021,9.659,9.659,0,0,1,1.749,6.093Zm-3.918-4a7.207,7.207,0,0,0-.671-3.575,2.266,2.266,0,0,0-2.094-1.122,2.232,2.232,0,0,0-2.041,1.066,6.774,6.774,0,0,0-.7,3.333v4.8a7.576,7.576,0,0,0,.658,3.587,2.239,2.239,0,0,0,2.109,1.175,2.195,2.195,0,0,0,2.073-1.125,7.389,7.389,0,0,0,.664-3.445Z" transform="translate(-887.773 -4774.183)" fill="#aed3f2"/>
                <path id="Trazado_101912" data-name="Trazado 101912" d="M986.955,4777.085v3.227h-.379a6.641,6.641,0,0,0-4.278,1.383,5.607,5.607,0,0,0-1.946,3.728,5.337,5.337,0,0,1,3.974-1.6,5.028,5.028,0,0,1,4.094,1.845,7.393,7.393,0,0,1,1.518,4.854,7.276,7.276,0,0,1-.834,3.485,5.979,5.979,0,0,1-2.358,2.425,6.871,6.871,0,0,1-3.451.867,6.4,6.4,0,0,1-5.037-2.168,8.421,8.421,0,0,1-1.919-5.79v-1.409a12.67,12.67,0,0,1,1.213-5.674,8.9,8.9,0,0,1,3.485-3.811,10.2,10.2,0,0,1,5.267-1.361Zm-3.824,9.9a3.124,3.124,0,0,0-1.721.492,2.974,2.974,0,0,0-1.14,1.306v1.19a5.279,5.279,0,0,0,.774,3.064,2.493,2.493,0,0,0,2.17,1.1,2.465,2.465,0,0,0,2.04-1,4.665,4.665,0,0,0-.006-5.175A2.566,2.566,0,0,0,983.131,4786.984Z" transform="translate(-881.599 -4774.158)" fill="#aed3f2"/>
                <path id="Trazado_101913" data-name="Trazado 101913" d="M999.419,4788.893a10,10,0,0,1-1.694,6.261,6.772,6.772,0,0,1-9.9.041,9.713,9.713,0,0,1-1.749-6.1v-3.631q0-4.136,1.716-6.276a6.784,6.784,0,0,1,9.876-.021,9.66,9.66,0,0,1,1.749,6.093Zm-3.918-4a7.21,7.21,0,0,0-.671-3.575,2.266,2.266,0,0,0-2.094-1.122,2.232,2.232,0,0,0-2.041,1.066,6.779,6.779,0,0,0-.7,3.333v4.8a7.57,7.57,0,0,0,.658,3.587,2.238,2.238,0,0,0,2.109,1.175,2.195,2.195,0,0,0,2.073-1.125,7.392,7.392,0,0,0,.664-3.445Z" transform="translate(-875.477 -4774.183)" fill="#aed3f2"/>
              </g>
              <g id="Grupo_56696" data-name="Grupo 56696" transform="translate(153.584 123.63)">
                <path id="Trazado_101914" data-name="Trazado 101914" d="M927.626,4815.043a2.493,2.493,0,0,0-.617-1.773,5.6,5.6,0,0,0-2.094-1.211,24.209,24.209,0,0,1-2.549-1.1,8.186,8.186,0,0,1-1.837-1.259,5.076,5.076,0,0,1-1.194-1.677,5.63,5.63,0,0,1-.427-2.29,5.094,5.094,0,0,1,1.464-3.757,6.187,6.187,0,0,1,3.892-1.708v-2.9h2.169v2.94a5.682,5.682,0,0,1,3.755,2,6.6,6.6,0,0,1,1.355,4.307h-3.918a3.742,3.742,0,0,0-.671-2.434,2.212,2.212,0,0,0-1.8-.808,2.284,2.284,0,0,0-1.722.632,2.4,2.4,0,0,0-.611,1.743,2.287,2.287,0,0,0,.6,1.652,6.521,6.521,0,0,0,2.218,1.275,25,25,0,0,1,2.663,1.226,7.712,7.712,0,0,1,1.764,1.3,5.094,5.094,0,0,1,1.1,1.653,5.721,5.721,0,0,1,.379,2.165,5.056,5.056,0,0,1-1.437,3.74,6.3,6.3,0,0,1-3.958,1.694v2.7h-2.156v-2.685a6.512,6.512,0,0,1-4.3-1.97,6.356,6.356,0,0,1-1.526-4.454h3.918a3.6,3.6,0,0,0,.767,2.474,2.786,2.786,0,0,0,2.2.86,2.7,2.7,0,0,0,1.886-.63A2.188,2.188,0,0,0,927.626,4815.043Z" transform="translate(-918.163 -4797.363)" fill="#aed3f2"/>
                <path id="Trazado_101915" data-name="Trazado 101915" d="M945.136,4804.639a4.59,4.59,0,0,1-.718,2.547,5.185,5.185,0,0,1-1.98,1.776,5.716,5.716,0,0,1,2.278,1.9,4.891,4.891,0,0,1,.84,2.854,5.169,5.169,0,0,1-1.79,4.156,8.533,8.533,0,0,1-9.749-.006,5.163,5.163,0,0,1-1.8-4.15,4.923,4.923,0,0,1,.84-2.86,5.62,5.62,0,0,1,2.263-1.9,5.122,5.122,0,0,1-1.972-1.776,4.622,4.622,0,0,1-.712-2.547,5.119,5.119,0,0,1,1.681-4.022,7.735,7.735,0,0,1,9.131-.013A5.1,5.1,0,0,1,945.136,4804.639Zm-3.511,8.8a2.853,2.853,0,0,0-.746-2.064,2.986,2.986,0,0,0-4,0,3.212,3.212,0,0,0-.013,4.1,3.055,3.055,0,0,0,4.032.027A2.825,2.825,0,0,0,941.626,4813.438Zm-.407-8.61a2.707,2.707,0,0,0-.611-1.852,2.479,2.479,0,0,0-3.43-.022,2.7,2.7,0,0,0-.611,1.874,2.83,2.83,0,0,0,.611,1.9,2.413,2.413,0,0,0,3.436,0A2.853,2.853,0,0,0,941.219,4804.828Z" transform="translate(-909.331 -4796.26)" fill="#aed3f2"/>
                <path id="Trazado_101916" data-name="Trazado 101916" d="M955.339,4810.967a10,10,0,0,1-1.7,6.265,6.772,6.772,0,0,1-9.9.042,9.727,9.727,0,0,1-1.749-6.1v-3.634q0-4.134,1.715-6.277a6.785,6.785,0,0,1,9.876-.022,9.686,9.686,0,0,1,1.75,6.094Zm-3.919-4a7.225,7.225,0,0,0-.671-3.575,2.274,2.274,0,0,0-2.094-1.12,2.229,2.229,0,0,0-2.04,1.066,6.77,6.77,0,0,0-.7,3.332v4.8a7.584,7.584,0,0,0,.658,3.59,2.233,2.233,0,0,0,2.107,1.175,2.2,2.2,0,0,0,2.075-1.127,7.379,7.379,0,0,0,.664-3.446Z" transform="translate(-903.182 -4796.26)" fill="#aed3f2"/>
                <path id="Trazado_101917" data-name="Trazado 101917" d="M965.121,4810.967a10,10,0,0,1-1.7,6.265,6.771,6.771,0,0,1-9.9.042,9.719,9.719,0,0,1-1.749-6.1v-3.634q0-4.134,1.715-6.277a6.785,6.785,0,0,1,9.877-.022,9.686,9.686,0,0,1,1.749,6.094Zm-3.918-4a7.22,7.22,0,0,0-.671-3.575,2.273,2.273,0,0,0-2.094-1.12,2.23,2.23,0,0,0-2.041,1.066,6.775,6.775,0,0,0-.7,3.332v4.8a7.584,7.584,0,0,0,.658,3.59,2.234,2.234,0,0,0,2.107,1.175,2.2,2.2,0,0,0,2.075-1.127,7.393,7.393,0,0,0,.664-3.446Z" transform="translate(-897.034 -4796.26)" fill="#aed3f2"/>
                <path id="Trazado_101918" data-name="Trazado 101918" d="M961.82,4811.035a1.972,1.972,0,0,1,.63-1.518,2.454,2.454,0,0,1,3.172,0,1.971,1.971,0,0,1,.63,1.518,1.942,1.942,0,0,1-.624,1.5,2.486,2.486,0,0,1-3.185,0A1.947,1.947,0,0,1,961.82,4811.035Z" transform="translate(-890.724 -4790.088)" fill="#aed3f2"/>
                <path id="Trazado_101919" data-name="Trazado 101919" d="M979.855,4810.967a10.009,10.009,0,0,1-1.694,6.265,6.773,6.773,0,0,1-9.9.042,9.718,9.718,0,0,1-1.749-6.1v-3.634q0-4.134,1.716-6.277a6.784,6.784,0,0,1,9.876-.022,9.668,9.668,0,0,1,1.749,6.094Zm-3.918-4a7.219,7.219,0,0,0-.671-3.575,2.27,2.27,0,0,0-2.094-1.12,2.23,2.23,0,0,0-2.041,1.066,6.769,6.769,0,0,0-.7,3.332v4.8a7.584,7.584,0,0,0,.658,3.59,2.236,2.236,0,0,0,2.109,1.175,2.2,2.2,0,0,0,2.073-1.127,7.379,7.379,0,0,0,.664-3.446Z" transform="translate(-887.773 -4796.26)" fill="#aed3f2"/>
                <path id="Trazado_101920" data-name="Trazado 101920" d="M989.638,4810.967a10.01,10.01,0,0,1-1.694,6.265,6.774,6.774,0,0,1-9.9.042,9.724,9.724,0,0,1-1.749-6.1v-3.634q0-4.134,1.717-6.277a6.783,6.783,0,0,1,9.875-.022,9.666,9.666,0,0,1,1.749,6.094Zm-3.918-4a7.222,7.222,0,0,0-.671-3.575,2.27,2.27,0,0,0-2.094-1.12,2.23,2.23,0,0,0-2.041,1.066,6.774,6.774,0,0,0-.7,3.332v4.8a7.582,7.582,0,0,0,.658,3.59,2.236,2.236,0,0,0,2.109,1.175,2.2,2.2,0,0,0,2.073-1.127,7.389,7.389,0,0,0,.665-3.446Z" transform="translate(-881.625 -4796.26)" fill="#aed3f2"/>
                <path id="Trazado_101921" data-name="Trazado 101921" d="M999.419,4810.967a10.01,10.01,0,0,1-1.694,6.265,6.774,6.774,0,0,1-9.9.042,9.724,9.724,0,0,1-1.749-6.1v-3.634q0-4.134,1.716-6.277a6.784,6.784,0,0,1,9.876-.022,9.669,9.669,0,0,1,1.749,6.094Zm-3.918-4a7.222,7.222,0,0,0-.671-3.575,2.271,2.271,0,0,0-2.094-1.12,2.23,2.23,0,0,0-2.041,1.066,6.775,6.775,0,0,0-.7,3.332v4.8a7.578,7.578,0,0,0,.658,3.59,2.236,2.236,0,0,0,2.109,1.175,2.2,2.2,0,0,0,2.073-1.127,7.382,7.382,0,0,0,.664-3.446Z" transform="translate(-875.477 -4796.26)" fill="#aed3f2"/>
              </g>
              <g id="Grupo_56697" data-name="Grupo 56697" transform="translate(153.584 155.251)">
                <path id="Trazado_101922" data-name="Trazado 101922" d="M927.626,4834.46a2.475,2.475,0,0,0-.617-1.771,5.564,5.564,0,0,0-2.094-1.214,24.549,24.549,0,0,1-2.549-1.1,8.228,8.228,0,0,1-1.837-1.263,5.074,5.074,0,0,1-1.194-1.674,5.625,5.625,0,0,1-.427-2.29,5.084,5.084,0,0,1,1.464-3.756,6.189,6.189,0,0,1,3.892-1.708v-2.9h2.169v2.944a5.641,5.641,0,0,1,3.755,2,6.588,6.588,0,0,1,1.355,4.3h-3.918a3.741,3.741,0,0,0-.671-2.434,2.211,2.211,0,0,0-1.8-.809,2.287,2.287,0,0,0-1.722.63,2.4,2.4,0,0,0-.611,1.741,2.3,2.3,0,0,0,.6,1.658,6.623,6.623,0,0,0,2.218,1.273,24.376,24.376,0,0,1,2.663,1.229,7.566,7.566,0,0,1,1.764,1.3,5,5,0,0,1,1.1,1.654,5.687,5.687,0,0,1,.379,2.161,5.062,5.062,0,0,1-1.437,3.742,6.316,6.316,0,0,1-3.958,1.7v2.7h-2.156v-2.687a6.518,6.518,0,0,1-4.3-1.973,6.357,6.357,0,0,1-1.526-4.455h3.918a3.6,3.6,0,0,0,.767,2.476,2.79,2.79,0,0,0,2.2.86,2.69,2.69,0,0,0,1.886-.629A2.191,2.191,0,0,0,927.626,4834.46Z" transform="translate(-918.163 -4816.778)" fill="#344154"/>
                <path id="Trazado_101923" data-name="Trazado 101923" d="M941.411,4838.455h-3.918v-15.1l-4.678,1.451v-3.186l8.174-2.929h.422Z" transform="translate(-908.954 -4815.58)" fill="#344154"/>
                <path id="Trazado_101924" data-name="Trazado 101924" d="M955.339,4830.386a10,10,0,0,1-1.7,6.263,6.771,6.771,0,0,1-9.9.041,9.717,9.717,0,0,1-1.749-6.1v-3.634q0-4.131,1.715-6.276a6.787,6.787,0,0,1,9.876-.019,9.675,9.675,0,0,1,1.75,6.093Zm-3.919-4a7.222,7.222,0,0,0-.671-3.574,2.269,2.269,0,0,0-2.094-1.119,2.227,2.227,0,0,0-2.04,1.064,6.76,6.76,0,0,0-.7,3.331v4.8a7.588,7.588,0,0,0,.658,3.59,2.232,2.232,0,0,0,2.107,1.172,2.2,2.2,0,0,0,2.075-1.125,7.39,7.39,0,0,0,.664-3.446Z" transform="translate(-903.182 -4815.674)" fill="#344154"/>
                <path id="Trazado_101925" data-name="Trazado 101925" d="M965.121,4830.386a9.991,9.991,0,0,1-1.7,6.263,6.77,6.77,0,0,1-9.9.041,9.709,9.709,0,0,1-1.749-6.1v-3.634q0-4.131,1.715-6.276a6.787,6.787,0,0,1,9.877-.019,9.675,9.675,0,0,1,1.749,6.093Zm-3.918-4a7.217,7.217,0,0,0-.671-3.574,2.269,2.269,0,0,0-2.094-1.119,2.228,2.228,0,0,0-2.041,1.064,6.765,6.765,0,0,0-.7,3.331v4.8a7.588,7.588,0,0,0,.658,3.59,2.234,2.234,0,0,0,2.107,1.172,2.2,2.2,0,0,0,2.075-1.125,7.4,7.4,0,0,0,.664-3.446Z" transform="translate(-897.034 -4815.674)" fill="#344154"/>
                <path id="Trazado_101926" data-name="Trazado 101926" d="M961.82,4830.453a1.977,1.977,0,0,1,.63-1.52,2.454,2.454,0,0,1,3.172,0,1.976,1.976,0,0,1,.63,1.52,1.94,1.94,0,0,1-.624,1.5,2.486,2.486,0,0,1-3.185,0A1.945,1.945,0,0,1,961.82,4830.453Z" transform="translate(-890.724 -4809.505)" fill="#344154"/>
                <path id="Trazado_101927" data-name="Trazado 101927" d="M979.855,4830.386a10,10,0,0,1-1.694,6.263,6.772,6.772,0,0,1-9.9.041,9.707,9.707,0,0,1-1.749-6.1v-3.634q0-4.131,1.716-6.276a6.786,6.786,0,0,1,9.876-.019,9.657,9.657,0,0,1,1.749,6.093Zm-3.918-4a7.216,7.216,0,0,0-.671-3.574,2.266,2.266,0,0,0-2.094-1.119,2.228,2.228,0,0,0-2.041,1.064,6.759,6.759,0,0,0-.7,3.331v4.8a7.588,7.588,0,0,0,.658,3.59,2.236,2.236,0,0,0,2.109,1.172,2.194,2.194,0,0,0,2.073-1.125,7.39,7.39,0,0,0,.664-3.446Z" transform="translate(-887.773 -4815.674)" fill="#344154"/>
                <path id="Trazado_101928" data-name="Trazado 101928" d="M989.638,4830.386a10,10,0,0,1-1.694,6.263,6.772,6.772,0,0,1-9.9.041,9.713,9.713,0,0,1-1.749-6.1v-3.634q0-4.131,1.717-6.276a6.785,6.785,0,0,1,9.875-.019,9.655,9.655,0,0,1,1.749,6.093Zm-3.918-4a7.218,7.218,0,0,0-.671-3.574,2.266,2.266,0,0,0-2.094-1.119,2.228,2.228,0,0,0-2.041,1.064,6.764,6.764,0,0,0-.7,3.331v4.8a7.587,7.587,0,0,0,.658,3.59,2.236,2.236,0,0,0,2.109,1.172,2.195,2.195,0,0,0,2.073-1.125,7.4,7.4,0,0,0,.665-3.446Z" transform="translate(-881.625 -4815.674)" fill="#344154"/>
                <path id="Trazado_101929" data-name="Trazado 101929" d="M999.419,4830.386a10,10,0,0,1-1.694,6.263,6.772,6.772,0,0,1-9.9.041,9.713,9.713,0,0,1-1.749-6.1v-3.634q0-4.131,1.716-6.276a6.786,6.786,0,0,1,9.876-.019,9.659,9.659,0,0,1,1.749,6.093Zm-3.918-4a7.219,7.219,0,0,0-.671-3.574,2.266,2.266,0,0,0-2.094-1.119,2.227,2.227,0,0,0-2.041,1.064,6.764,6.764,0,0,0-.7,3.331v4.8a7.582,7.582,0,0,0,.658,3.59,2.235,2.235,0,0,0,2.109,1.172,2.195,2.195,0,0,0,2.073-1.125,7.393,7.393,0,0,0,.664-3.446Z" transform="translate(-875.477 -4815.674)" fill="#344154"/>
              </g>
              <g id="Grupo_56698" data-name="Grupo 56698" transform="translate(153.584 185.011)">
                <path id="Trazado_101930" data-name="Trazado 101930" d="M927.626,4852.733a2.469,2.469,0,0,0-.617-1.768,5.525,5.525,0,0,0-2.094-1.214,24.825,24.825,0,0,1-2.549-1.105,8.2,8.2,0,0,1-1.837-1.263,5.052,5.052,0,0,1-1.194-1.674,5.635,5.635,0,0,1-.427-2.29,5.1,5.1,0,0,1,1.464-3.758,6.186,6.186,0,0,1,3.892-1.707v-2.9h2.169V4838a5.656,5.656,0,0,1,3.755,2,6.6,6.6,0,0,1,1.355,4.307h-3.918a3.755,3.755,0,0,0-.671-2.437,2.219,2.219,0,0,0-1.8-.805,2.278,2.278,0,0,0-1.722.631,2.4,2.4,0,0,0-.611,1.744,2.283,2.283,0,0,0,.6,1.65,6.527,6.527,0,0,0,2.218,1.277,24.384,24.384,0,0,1,2.663,1.228,7.611,7.611,0,0,1,1.764,1.3,5.011,5.011,0,0,1,1.1,1.651,5.722,5.722,0,0,1,.379,2.166,5.064,5.064,0,0,1-1.437,3.741,6.3,6.3,0,0,1-3.958,1.693v2.7h-2.156v-2.685a6.515,6.515,0,0,1-4.3-1.974,6.345,6.345,0,0,1-1.526-4.451h3.918a3.6,3.6,0,0,0,.767,2.473,2.8,2.8,0,0,0,2.2.862,2.7,2.7,0,0,0,1.886-.63A2.2,2.2,0,0,0,927.626,4852.733Z" transform="translate(-918.163 -4835.055)" fill="#aed3f2"/>
                <path id="Trazado_101931" data-name="Trazado 101931" d="M944.071,4849.287h2.237v3.16h-2.237v4.27h-3.918v-4.27h-8.094l-.176-2.468,8.229-13h3.959Zm-8.283,0h4.364v-6.969l-.258.45Z" transform="translate(-909.54 -4833.845)" fill="#aed3f2"/>
                <path id="Trazado_101932" data-name="Trazado 101932" d="M955.339,4848.659a10,10,0,0,1-1.7,6.265,6.772,6.772,0,0,1-9.9.04,9.72,9.72,0,0,1-1.749-6.1v-3.634q0-4.132,1.715-6.275a6.787,6.787,0,0,1,9.876-.021,9.676,9.676,0,0,1,1.75,6.094Zm-3.919-4a7.222,7.222,0,0,0-.671-3.574,2.267,2.267,0,0,0-2.094-1.121,2.228,2.228,0,0,0-2.04,1.065,6.767,6.767,0,0,0-.7,3.334v4.8a7.573,7.573,0,0,0,.658,3.589,2.232,2.232,0,0,0,2.107,1.176,2.2,2.2,0,0,0,2.075-1.128,7.381,7.381,0,0,0,.664-3.446Z" transform="translate(-903.182 -4833.951)" fill="#aed3f2"/>
                <path id="Trazado_101933" data-name="Trazado 101933" d="M965.433,4839.164l-7.633,17.552h-4.135l7.646-16.58H951.5v-3.16h13.937Z" transform="translate(-897.212 -4833.845)" fill="#aed3f2"/>
                <path id="Trazado_101934" data-name="Trazado 101934" d="M961.82,4848.727a1.968,1.968,0,0,1,.63-1.518,2.446,2.446,0,0,1,3.172,0,1.967,1.967,0,0,1,.63,1.518,1.944,1.944,0,0,1-.624,1.5,2.489,2.489,0,0,1-3.185,0A1.949,1.949,0,0,1,961.82,4848.727Z" transform="translate(-890.724 -4827.781)" fill="#aed3f2"/>
                <path id="Trazado_101935" data-name="Trazado 101935" d="M979.855,4848.659a10.008,10.008,0,0,1-1.694,6.265,6.773,6.773,0,0,1-9.9.04,9.71,9.71,0,0,1-1.749-6.1v-3.634q0-4.132,1.716-6.275a6.786,6.786,0,0,1,9.876-.021,9.658,9.658,0,0,1,1.749,6.094Zm-3.918-4a7.216,7.216,0,0,0-.671-3.574,2.264,2.264,0,0,0-2.094-1.121,2.229,2.229,0,0,0-2.041,1.065,6.766,6.766,0,0,0-.7,3.334v4.8a7.573,7.573,0,0,0,.658,3.589,2.235,2.235,0,0,0,2.109,1.176,2.2,2.2,0,0,0,2.073-1.128,7.381,7.381,0,0,0,.664-3.446Z" transform="translate(-887.773 -4833.951)" fill="#aed3f2"/>
                <path id="Trazado_101936" data-name="Trazado 101936" d="M989.638,4848.659a10.008,10.008,0,0,1-1.694,6.265,6.774,6.774,0,0,1-9.9.04,9.716,9.716,0,0,1-1.749-6.1v-3.634q0-4.132,1.717-6.275a6.785,6.785,0,0,1,9.875-.021,9.656,9.656,0,0,1,1.749,6.094Zm-3.918-4a7.218,7.218,0,0,0-.671-3.574,2.264,2.264,0,0,0-2.094-1.121,2.228,2.228,0,0,0-2.041,1.065,6.771,6.771,0,0,0-.7,3.334v4.8a7.572,7.572,0,0,0,.658,3.589,2.235,2.235,0,0,0,2.109,1.176,2.2,2.2,0,0,0,2.073-1.128,7.392,7.392,0,0,0,.665-3.446Z" transform="translate(-881.625 -4833.951)" fill="#aed3f2"/>
                <path id="Trazado_101937" data-name="Trazado 101937" d="M999.419,4848.659a10.008,10.008,0,0,1-1.694,6.265,6.774,6.774,0,0,1-9.9.04,9.716,9.716,0,0,1-1.749-6.1v-3.634q0-4.132,1.716-6.275a6.786,6.786,0,0,1,9.876-.021,9.66,9.66,0,0,1,1.749,6.094Zm-3.918-4a7.219,7.219,0,0,0-.671-3.574,2.264,2.264,0,0,0-2.094-1.121,2.228,2.228,0,0,0-2.041,1.065,6.772,6.772,0,0,0-.7,3.334v4.8a7.567,7.567,0,0,0,.658,3.589,2.235,2.235,0,0,0,2.109,1.176,2.2,2.2,0,0,0,2.073-1.128,7.384,7.384,0,0,0,.664-3.446Z" transform="translate(-875.477 -4833.951)" fill="#aed3f2"/>
              </g>
            </g>
            <g id="Grupo_56700" data-name="Grupo 56700" transform="translate(31.743 96.897)">
              <path id="Trazado_101938" data-name="Trazado 101938" d="M938.42,4791.632a15.147,15.147,0,0,1-2.039.51,24.122,24.122,0,0,1-15.2-2.177,8.7,8.7,0,0,1-2.337-1.769,5.562,5.562,0,0,1-1.406-2.807,4.156,4.156,0,0,1,.677-3.266,3.164,3.164,0,0,1,3.327-1.056,2.4,2.4,0,0,1,1.462,1.231,3.088,3.088,0,0,1,.247,1.923,6.921,6.921,0,0,1-1.821,3.379,16.53,16.53,0,0,1-6.605,4.51,15.931,15.931,0,0,1-8.528.776,9.56,9.56,0,0,1-4.171-1.834,4.959,4.959,0,0,1-2.028-4.22,4.619,4.619,0,0,1,.907-2.294,3.6,3.6,0,0,1,2.075-1.45,2.581,2.581,0,0,1,2.462.812,3.683,3.683,0,0,1,.883,2.434,4.985,4.985,0,0,1-.606,2.506,5.638,5.638,0,0,1-1.788,1.875,16.233,16.233,0,0,1-4.712,1.892c-3.2.908-6.691,1.886-10.244,1.088a9.661,9.661,0,0,1-4.713-2.557,6.767,6.767,0,0,1-2.043-5.035,4.457,4.457,0,0,1,1.426-3.2,3.263,3.263,0,0,1,3.474-.37,2.686,2.686,0,0,1,1.313,1.277,2.753,2.753,0,0,1,.156,1.817,5.17,5.17,0,0,1-2.055,2.713,26.651,26.651,0,0,1-11.849,4.5,12,12,0,0,1-6.17-.541,6.217,6.217,0,0,1-3.793-4.648,4.239,4.239,0,0,1,3.138-4.736,2.939,2.939,0,0,1,2.809,1.008,4.481,4.481,0,0,1,.987,2.736,5.459,5.459,0,0,1-.6,2.775,6.5,6.5,0,0,1-1.87,2.042,14.345,14.345,0,0,1-4.83,2.024c-3.227.858-6.628,1.459-9.637.349a8.274,8.274,0,0,1-3.661-2.667,5.942,5.942,0,0,1-1.3-4.057,5.691,5.691,0,0,1,1.759-3.578,3.883,3.883,0,0,1,3.513-1.052l.142.039,0,.14a10.183,10.183,0,0,1-2.581,7,10.664,10.664,0,0,1-4.612,3.145,8.79,8.79,0,0,1-3.457.443,10.175,10.175,0,0,1-1.182-.224,9.164,9.164,0,0,0,4.571-.41,10.6,10.6,0,0,0,4.454-3.148,9.894,9.894,0,0,0,2.423-6.785l.147.176a3.466,3.466,0,0,0-3.136.982,5.275,5.275,0,0,0-1.6,3.306c-.2,2.633,1.918,5.227,4.688,6.215,2.829,1.027,6.117.459,9.317-.415a13.9,13.9,0,0,0,4.63-1.951,6,6,0,0,0,1.69-1.854,4.854,4.854,0,0,0,.523-2.467,3.9,3.9,0,0,0-.848-2.365,2.323,2.323,0,0,0-2.227-.8,3.62,3.62,0,0,0-2.625,4.038,5.58,5.58,0,0,0,3.415,4.136,11.415,11.415,0,0,0,5.835.483,26.03,26.03,0,0,0,11.52-4.39,4.555,4.555,0,0,0,1.8-2.33,1.954,1.954,0,0,0-1.1-2.317,2.593,2.593,0,0,0-2.735.274,3.782,3.782,0,0,0-1.186,2.71,6.078,6.078,0,0,0,1.847,4.521,8.987,8.987,0,0,0,4.379,2.371c3.316.755,6.717-.161,9.9-1.07a15.71,15.71,0,0,0,4.524-1.794,5.035,5.035,0,0,0,1.585-1.646,4.348,4.348,0,0,0,.529-2.172,3.044,3.044,0,0,0-.708-2.008,1.934,1.934,0,0,0-1.849-.621,3.691,3.691,0,0,0-2.49,3.181,4.355,4.355,0,0,0,1.792,3.674,8.949,8.949,0,0,0,3.9,1.723,15.374,15.374,0,0,0,8.216-.719,15.962,15.962,0,0,0,6.408-4.332,6.4,6.4,0,0,0,1.715-3.107,2.172,2.172,0,0,0-1.353-2.605,2.7,2.7,0,0,0-2.822.877,3.724,3.724,0,0,0-.611,2.9,6.31,6.31,0,0,0,3.5,4.315,23.919,23.919,0,0,0,9.02,2.585,25.164,25.164,0,0,0,5.972-.211c.676-.111,1.192-.2,1.536-.282A3.063,3.063,0,0,1,938.42,4791.632Z" transform="translate(-843.345 -4780.947)" fill="#d9a171"/>
            </g>
            <g id="Grupo_56701" data-name="Grupo 56701" transform="translate(174.406 95.948)">
              <path id="Trazado_101939" data-name="Trazado 101939" d="M1012.143,4790.428a8.8,8.8,0,0,1-1.655.824,15.2,15.2,0,0,1-5.182,1.087,15.907,15.907,0,0,1-8.134-1.9,10.118,10.118,0,0,1-3.961-3.477,4.709,4.709,0,0,1-.71-2.862,3.988,3.988,0,0,1,1.527-2.712,2.57,2.57,0,0,1,1.6-.531,2.457,2.457,0,0,1,1.6.678,3.911,3.911,0,0,1,1.067,3.245,5.722,5.722,0,0,1-1.653,3.13,13.655,13.655,0,0,1-2.881,2.2,17.155,17.155,0,0,1-7.19,2.3,13.743,13.743,0,0,1-7.862-1.466,7.706,7.706,0,0,1-3.049-2.948,5.735,5.735,0,0,1-.7-2.1,5.078,5.078,0,0,1,.323-2.227,5.161,5.161,0,0,1,3.135-3.164,3.017,3.017,0,0,1,2.366.238,3.667,3.667,0,0,1,1.586,1.77,5.472,5.472,0,0,1-.174,4.611,9.558,9.558,0,0,1-3.135,3.448,17.2,17.2,0,0,1-8.835,3.054,17.543,17.543,0,0,1-9.141-1.964,13.8,13.8,0,0,1-3.718-2.77,6.3,6.3,0,0,1-1.845-4.227,4.173,4.173,0,0,1,2.536-3.755,2.568,2.568,0,0,1,2.363.283,3.457,3.457,0,0,1,1.306,1.921,4.969,4.969,0,0,1-.887,4.26,13.186,13.186,0,0,1-3.031,2.919,18.525,18.525,0,0,1-14.87,3.182,10.041,10.041,0,0,1-6.032-3.612,5.578,5.578,0,0,1-1.117-3.2,6.06,6.06,0,0,1,.793-3.148,4.007,4.007,0,0,1,2.432-1.938,3.447,3.447,0,0,1,2.878.643,5.286,5.286,0,0,1,1.943,4.824,6.5,6.5,0,0,1-2.326,3.941,8.778,8.778,0,0,1-3.438,1.745,16.94,16.94,0,0,1-5.29.33l-1.371-.12a2.146,2.146,0,0,1-.466-.072,3.192,3.192,0,0,1,.47,0l1.373.054a17.751,17.751,0,0,0,5.213-.451,8.508,8.508,0,0,0,3.3-1.734,6.178,6.178,0,0,0,2.158-3.745,4.894,4.894,0,0,0-1.824-4.423,3,3,0,0,0-2.508-.543,3.547,3.547,0,0,0-2.122,1.732,5.3,5.3,0,0,0,.336,5.8,9.533,9.533,0,0,0,5.727,3.366,17.986,17.986,0,0,0,14.371-3.136,12.69,12.69,0,0,0,2.875-2.779,4.311,4.311,0,0,0,.788-3.71,2.8,2.8,0,0,0-1.049-1.555,1.883,1.883,0,0,0-1.763-.205,3.523,3.523,0,0,0-2.093,3.137,5.635,5.635,0,0,0,1.674,3.76,13.149,13.149,0,0,0,3.537,2.626,16.9,16.9,0,0,0,8.782,1.883,16.525,16.525,0,0,0,8.478-2.924,8.858,8.858,0,0,0,2.922-3.193,4.793,4.793,0,0,0,.169-4.039,2.625,2.625,0,0,0-3.148-1.643,4.526,4.526,0,0,0-2.713,2.76,4.456,4.456,0,0,0-.29,1.931,5.136,5.136,0,0,0,.617,1.852,7.058,7.058,0,0,0,2.795,2.708,13.138,13.138,0,0,0,7.5,1.418,16.638,16.638,0,0,0,6.954-2.192,13.134,13.134,0,0,0,2.771-2.089,5.2,5.2,0,0,0,1.523-2.816,3.4,3.4,0,0,0-.889-2.808,1.942,1.942,0,0,0-2.564-.128,3.551,3.551,0,0,0-1.357,2.379,4.279,4.279,0,0,0,.628,2.583,9.785,9.785,0,0,0,3.768,3.367,15.9,15.9,0,0,0,13.083,1.021C1011.574,4790.716,1012.122,4790.384,1012.143,4790.428Z" transform="translate(-930.949 -4780.363)" fill="#d9a171"/>
            </g>
            <g id="Grupo_56702" data-name="Grupo 56702" transform="translate(29.114 157.223)">
              <path id="Trazado_101940" data-name="Trazado 101940" d="M945.843,4824.924a3.616,3.616,0,0,1-.505.253c-.369.169-.871.4-1.511.687-1.334.59-3.306,1.452-5.9,2.431a48.055,48.055,0,0,1-9.768,2.6,37.561,37.561,0,0,1-6.315.382,21.423,21.423,0,0,1-7.029-1.061,8.368,8.368,0,0,1-5.34-5.561,5.433,5.433,0,0,1,.518-4.2,4.764,4.764,0,0,1,3.638-2.453,4.036,4.036,0,0,1,3.78,2.44,6.218,6.218,0,0,1,.332,4.685,9.146,9.146,0,0,1-2.757,3.954,17.931,17.931,0,0,1-4.135,2.665,14.17,14.17,0,0,1-9.994,1.17,10.134,10.134,0,0,1-6.944-7.653,8.338,8.338,0,0,1-.018-2.785,5.368,5.368,0,0,1,1.132-2.61,3.543,3.543,0,0,1,2.535-1.462,2.55,2.55,0,0,1,2.431,1.7,6.807,6.807,0,0,1-.97,5.595,16.91,16.91,0,0,1-3.69,4.37,15.568,15.568,0,0,1-20.629-.315,8.792,8.792,0,0,1-2.673-4.71,5.388,5.388,0,0,1,.176-2.739,5.547,5.547,0,0,1,1.542-2.246,4.59,4.59,0,0,1,2.452-1.154,3.255,3.255,0,0,1,2.591.812,5.007,5.007,0,0,1,1.178,4.933,9.226,9.226,0,0,1-2.73,4.138,22.475,22.475,0,0,1-3.829,2.858,22.251,22.251,0,0,1-8.6,2.922,19.345,19.345,0,0,1-8.447-.758,9.419,9.419,0,0,1-3.475-2.084,6.5,6.5,0,0,1-1.884-3.4,5.929,5.929,0,0,1,.342-3.7,3.646,3.646,0,0,1,2.765-2.152,4.131,4.131,0,0,1,3.212.878,3.048,3.048,0,0,1,1.021,2.933,4.609,4.609,0,0,1-1.519,2.486,9.616,9.616,0,0,1-2.23,1.479,25.717,25.717,0,0,1-4.324,1.653,24.56,24.56,0,0,1-6.317.938,16.114,16.114,0,0,1-2.224-.095,3.4,3.4,0,0,1,.565-.014c.373.007.928.007,1.655-.031a25.933,25.933,0,0,0,10.5-2.743,9.406,9.406,0,0,0,2.135-1.448,4.271,4.271,0,0,0,1.384-2.294,2.638,2.638,0,0,0-.909-2.547,3.723,3.723,0,0,0-2.881-.765,3.2,3.2,0,0,0-2.413,1.918,5.455,5.455,0,0,0-.287,3.4c.448,2.4,2.568,4.261,5.061,5.085a18.791,18.791,0,0,0,8.2.691,21.624,21.624,0,0,0,12.068-5.665,8.626,8.626,0,0,0,2.546-3.852,4.395,4.395,0,0,0-1-4.29c-1.139-1.086-3.016-.732-4.182.359a4.858,4.858,0,0,0-1.352,1.972,4.722,4.722,0,0,0-.145,2.407,8.153,8.153,0,0,0,2.487,4.339,14.9,14.9,0,0,0,19.721.275,16.228,16.228,0,0,0,3.54-4.192,7.816,7.816,0,0,0,1.008-2.466,4.617,4.617,0,0,0-.081-2.535,1.865,1.865,0,0,0-1.777-1.266,2.88,2.88,0,0,0-2.028,1.208,6.1,6.1,0,0,0-.98,4.847,9.482,9.482,0,0,0,6.468,7.148,13.567,13.567,0,0,0,9.538-1.112c2.859-1.375,5.617-3.373,6.59-6.241a5.612,5.612,0,0,0-.286-4.231,3.447,3.447,0,0,0-3.218-2.134,4.2,4.2,0,0,0-3.2,2.163,4.888,4.888,0,0,0-.479,3.79,7.863,7.863,0,0,0,5,5.237,21,21,0,0,0,6.867,1.079,37.569,37.569,0,0,0,6.252-.325,48.894,48.894,0,0,0,9.729-2.471c2.6-.934,4.589-1.758,5.94-2.306l1.537-.622A3.418,3.418,0,0,1,945.843,4824.924Z" transform="translate(-841.731 -4817.991)" fill="#d9a171"/>
            </g>
          </g>
        </g>
        <g id="Grupo_56941" data-name="Grupo 56941" transform="translate(0 -12.096)">
          <g id="Grupo_56895" data-name="Grupo 56895" transform="translate(67.814)">
            <g id="Grupo_56891" data-name="Grupo 56891" transform="translate(0 15.773)">
              <g id="Grupo_56761" data-name="Grupo 56761" transform="translate(16.205)">
                <g id="Grupo_56760" data-name="Grupo 56760">
                  <g id="Grupo_56759" data-name="Grupo 56759">
                    <g id="Grupo_56743" data-name="Grupo 56743">
                      <g id="Grupo_56742" data-name="Grupo 56742">
                        <g id="Grupo_56741" data-name="Grupo 56741">
                          <g id="Grupo_56740" data-name="Grupo 56740">
                            <g id="Grupo_56739" data-name="Grupo 56739">
                              <g id="Grupo_56738" data-name="Grupo 56738">
                                <g id="Grupo_56737" data-name="Grupo 56737">
                                  <g id="Grupo_56736" data-name="Grupo 56736">
                                    <g id="Grupo_56735" data-name="Grupo 56735">
                                      <g id="Grupo_56734" data-name="Grupo 56734">
                                        <g id="Grupo_56733" data-name="Grupo 56733">
                                          <g id="Grupo_56732" data-name="Grupo 56732">
                                            <g id="Grupo_56731" data-name="Grupo 56731">
                                              <g id="Grupo_56730" data-name="Grupo 56730">
                                                <g id="Grupo_56729" data-name="Grupo 56729">
                                                  <path id="Trazado_101953" data-name="Trazado 101953" d="M740.307,4802.821l-1.281,103.092c-.218,17.531,3.044,43.328,30.777,42.408h0c24-2.612,30.37-25.333,30.557-41.693.088-7.762.178-14.231.239-15.029,0,0,26.274-2.144,28.493-28.1,1.071-12.539,1.176-38.55,1-62.083a48.514,48.514,0,0,0-45-47.991l-2.507-.182C755.448,4752.849,739.95,4775.68,740.307,4802.821Z" transform="translate(-739.017 -4753.242)" fill="#ffbf9d"/>
                                                </g>
                                              </g>
                                            </g>
                                          </g>
                                        </g>
                                      </g>
                                    </g>
                                  </g>
                                </g>
                              </g>
                            </g>
                          </g>
                        </g>
                      </g>
                    </g>
                    <g id="Grupo_56758" data-name="Grupo 56758" transform="translate(28.494 125.889)">
                      <g id="Grupo_56757" data-name="Grupo 56757">
                        <g id="Grupo_56756" data-name="Grupo 56756">
                          <g id="Grupo_56755" data-name="Grupo 56755">
                            <g id="Grupo_56754" data-name="Grupo 56754">
                              <g id="Grupo_56753" data-name="Grupo 56753">
                                <g id="Grupo_56752" data-name="Grupo 56752">
                                  <g id="Grupo_56751" data-name="Grupo 56751">
                                    <g id="Grupo_56750" data-name="Grupo 56750">
                                      <g id="Grupo_56749" data-name="Grupo 56749">
                                        <g id="Grupo_56748" data-name="Grupo 56748">
                                          <g id="Grupo_56747" data-name="Grupo 56747">
                                            <g id="Grupo_56746" data-name="Grupo 56746">
                                              <g id="Grupo_56745" data-name="Grupo 56745">
                                                <g id="Grupo_56744" data-name="Grupo 56744">
                                                  <path id="Trazado_101954" data-name="Trazado 101954" d="M792.463,4855.649s-16.443-.236-33.089-12.467c0,0,6.864,19.574,32.954,19.125Z" transform="translate(-759.374 -4843.182)" fill="#ff9a6c"/>
                                                </g>
                                              </g>
                                            </g>
                                          </g>
                                        </g>
                                      </g>
                                    </g>
                                  </g>
                                </g>
                              </g>
                            </g>
                          </g>
                        </g>
                      </g>
                    </g>
                  </g>
                </g>
              </g>
              <g id="Grupo_56845" data-name="Grupo 56845" transform="translate(44.874 39.204)">
                <g id="Grupo_56844" data-name="Grupo 56844">
                  <g id="Grupo_56813" data-name="Grupo 56813" transform="translate(2.074 15.018)">
                    <g id="Grupo_56812" data-name="Grupo 56812">
                      <g id="Grupo_56811" data-name="Grupo 56811">
                        <g id="Grupo_56778" data-name="Grupo 56778">
                          <g id="Grupo_56777" data-name="Grupo 56777">
                            <g id="Grupo_56776" data-name="Grupo 56776">
                              <g id="Grupo_56775" data-name="Grupo 56775">
                                <g id="Grupo_56774" data-name="Grupo 56774">
                                  <g id="Grupo_56773" data-name="Grupo 56773">
                                    <g id="Grupo_56772" data-name="Grupo 56772">
                                      <g id="Grupo_56771" data-name="Grupo 56771">
                                        <g id="Grupo_56770" data-name="Grupo 56770">
                                          <g id="Grupo_56769" data-name="Grupo 56769">
                                            <g id="Grupo_56768" data-name="Grupo 56768">
                                              <g id="Grupo_56767" data-name="Grupo 56767">
                                                <g id="Grupo_56766" data-name="Grupo 56766">
                                                  <g id="Grupo_56765" data-name="Grupo 56765">
                                                    <g id="Grupo_56764" data-name="Grupo 56764">
                                                      <g id="Grupo_56763" data-name="Grupo 56763">
                                                        <g id="Grupo_56762" data-name="Grupo 56762">
                                                          <path id="Trazado_101955" data-name="Trazado 101955" d="M776.942,4796.571c-.515.528-3.512-1.889-7.861-2-4.342-.181-7.6,2.017-8.051,1.457-.225-.248.312-1.208,1.729-2.2a10.89,10.89,0,0,1,6.465-1.836,10.51,10.51,0,0,1,6.237,2.271C776.77,4795.347,777.2,4796.337,776.942,4796.571Z" transform="translate(-760.981 -4791.979)" fill="#1a2e35"/>
                                                        </g>
                                                      </g>
                                                    </g>
                                                  </g>
                                                </g>
                                              </g>
                                            </g>
                                          </g>
                                        </g>
                                      </g>
                                    </g>
                                  </g>
                                </g>
                              </g>
                            </g>
                          </g>
                        </g>
                        <g id="Grupo_56794" data-name="Grupo 56794" transform="translate(8.801 10.153)">
                          <g id="Grupo_56793" data-name="Grupo 56793">
                            <g id="Grupo_56792" data-name="Grupo 56792">
                              <g id="Grupo_56791" data-name="Grupo 56791">
                                <g id="Grupo_56790" data-name="Grupo 56790">
                                  <g id="Grupo_56789" data-name="Grupo 56789">
                                    <g id="Grupo_56788" data-name="Grupo 56788">
                                      <g id="Grupo_56787" data-name="Grupo 56787">
                                        <g id="Grupo_56786" data-name="Grupo 56786">
                                          <g id="Grupo_56785" data-name="Grupo 56785">
                                            <g id="Grupo_56784" data-name="Grupo 56784">
                                              <g id="Grupo_56783" data-name="Grupo 56783">
                                                <g id="Grupo_56782" data-name="Grupo 56782">
                                                  <g id="Grupo_56781" data-name="Grupo 56781">
                                                    <g id="Grupo_56780" data-name="Grupo 56780">
                                                      <g id="Grupo_56779" data-name="Grupo 56779">
                                                        <path id="Trazado_101956" data-name="Trazado 101956" d="M774.3,4802.666a3.517,3.517,0,0,1-3.642,3.292,3.365,3.365,0,0,1-3.386-3.43,3.521,3.521,0,0,1,3.639-3.294A3.368,3.368,0,0,1,774.3,4802.666Z" transform="translate(-767.268 -4799.234)" fill="#1a2e35"/>
                                                      </g>
                                                    </g>
                                                  </g>
                                                </g>
                                              </g>
                                            </g>
                                          </g>
                                        </g>
                                      </g>
                                    </g>
                                  </g>
                                </g>
                              </g>
                            </g>
                          </g>
                        </g>
                        <g id="Grupo_56810" data-name="Grupo 56810" transform="translate(26.853 1.444)">
                          <g id="Grupo_56809" data-name="Grupo 56809">
                            <g id="Grupo_56808" data-name="Grupo 56808">
                              <g id="Grupo_56807" data-name="Grupo 56807">
                                <g id="Grupo_56806" data-name="Grupo 56806">
                                  <g id="Grupo_56805" data-name="Grupo 56805">
                                    <g id="Grupo_56804" data-name="Grupo 56804">
                                      <g id="Grupo_56803" data-name="Grupo 56803">
                                        <g id="Grupo_56802" data-name="Grupo 56802">
                                          <g id="Grupo_56801" data-name="Grupo 56801">
                                            <g id="Grupo_56800" data-name="Grupo 56800">
                                              <g id="Grupo_56799" data-name="Grupo 56799">
                                                <g id="Grupo_56798" data-name="Grupo 56798">
                                                  <g id="Grupo_56797" data-name="Grupo 56797">
                                                    <g id="Grupo_56796" data-name="Grupo 56796">
                                                      <g id="Grupo_56795" data-name="Grupo 56795">
                                                        <path id="Trazado_101957" data-name="Trazado 101957" d="M780.165,4826.4c0-.228,2.511-.476,6.569-.7,1.027-.032,2.006-.163,2.228-.846.294-.721-.052-1.85-.459-3.071q-1.167-3.8-2.448-7.982c-3.379-11.357-5.746-20.665-5.287-20.8s3.569,8.967,6.948,20.323q1.214,4.2,2.318,8.018c.3,1.187.868,2.549.237,4.039a2.562,2.562,0,0,1-1.785,1.368,6.886,6.886,0,0,1-1.75.115C782.675,4826.8,780.164,4826.634,780.165,4826.4Z" transform="translate(-780.165 -4793.011)" fill="#1a2e35"/>
                                                      </g>
                                                    </g>
                                                  </g>
                                                </g>
                                              </g>
                                            </g>
                                          </g>
                                        </g>
                                      </g>
                                    </g>
                                  </g>
                                </g>
                              </g>
                            </g>
                          </g>
                        </g>
                      </g>
                    </g>
                  </g>
                  <g id="Grupo_56828" data-name="Grupo 56828">
                    <g id="Grupo_56827" data-name="Grupo 56827">
                      <g id="Grupo_56826" data-name="Grupo 56826">
                        <g id="Grupo_56825" data-name="Grupo 56825">
                          <g id="Grupo_56824" data-name="Grupo 56824">
                            <g id="Grupo_56823" data-name="Grupo 56823">
                              <g id="Grupo_56822" data-name="Grupo 56822">
                                <g id="Grupo_56821" data-name="Grupo 56821">
                                  <g id="Grupo_56820" data-name="Grupo 56820">
                                    <g id="Grupo_56819" data-name="Grupo 56819">
                                      <g id="Grupo_56818" data-name="Grupo 56818">
                                        <g id="Grupo_56817" data-name="Grupo 56817">
                                          <g id="Grupo_56816" data-name="Grupo 56816">
                                            <g id="Grupo_56815" data-name="Grupo 56815">
                                              <g id="Grupo_56814" data-name="Grupo 56814">
                                                <path id="Trazado_101958" data-name="Trazado 101958" d="M775.685,4784.514c-.421.962-3.9.237-8.069.452-4.172.125-7.595,1.13-8.078.205-.213-.443.435-1.332,1.852-2.19a13.637,13.637,0,0,1,12.3-.5C775.162,4783.22,775.869,4784.054,775.685,4784.514Z" transform="translate(-759.499 -4781.25)" fill="#1a2e35"/>
                                              </g>
                                            </g>
                                          </g>
                                        </g>
                                      </g>
                                    </g>
                                  </g>
                                </g>
                              </g>
                            </g>
                          </g>
                        </g>
                      </g>
                    </g>
                  </g>
                  <g id="Grupo_56843" data-name="Grupo 56843" transform="translate(41.529 7.945)">
                    <g id="Grupo_56842" data-name="Grupo 56842">
                      <g id="Grupo_56841" data-name="Grupo 56841">
                        <g id="Grupo_56840" data-name="Grupo 56840">
                          <g id="Grupo_56839" data-name="Grupo 56839">
                            <g id="Grupo_56838" data-name="Grupo 56838">
                              <g id="Grupo_56837" data-name="Grupo 56837">
                                <g id="Grupo_56836" data-name="Grupo 56836">
                                  <g id="Grupo_56835" data-name="Grupo 56835">
                                    <g id="Grupo_56834" data-name="Grupo 56834">
                                      <g id="Grupo_56833" data-name="Grupo 56833">
                                        <g id="Grupo_56832" data-name="Grupo 56832">
                                          <g id="Grupo_56831" data-name="Grupo 56831">
                                            <g id="Grupo_56830" data-name="Grupo 56830">
                                              <g id="Grupo_56829" data-name="Grupo 56829">
                                                <path id="Trazado_101959" data-name="Trazado 101959" d="M805.119,4790.3c-.456.786-3.849-.086-7.96-.214-4.112-.2-7.525.4-7.959-.42-.19-.393.487-1.1,1.92-1.721a14.354,14.354,0,0,1,6.082-1.006,14.859,14.859,0,0,1,6.047,1.49C804.662,4789.167,805.32,4789.924,805.119,4790.3Z" transform="translate(-789.168 -4786.927)" fill="#1a2e35"/>
                                              </g>
                                            </g>
                                          </g>
                                        </g>
                                      </g>
                                    </g>
                                  </g>
                                </g>
                              </g>
                            </g>
                          </g>
                        </g>
                      </g>
                    </g>
                  </g>
                </g>
              </g>
              <g id="Grupo_56858" data-name="Grupo 56858" transform="translate(0 67.683)">
                <g id="Grupo_56857" data-name="Grupo 56857">
                  <g id="Grupo_56856" data-name="Grupo 56856">
                    <g id="Grupo_56855" data-name="Grupo 56855">
                      <g id="Grupo_56854" data-name="Grupo 56854">
                        <g id="Grupo_56853" data-name="Grupo 56853">
                          <g id="Grupo_56852" data-name="Grupo 56852">
                            <g id="Grupo_56851" data-name="Grupo 56851">
                              <g id="Grupo_56850" data-name="Grupo 56850">
                                <g id="Grupo_56849" data-name="Grupo 56849">
                                  <g id="Grupo_56848" data-name="Grupo 56848">
                                    <g id="Grupo_56847" data-name="Grupo 56847">
                                      <g id="Grupo_56846" data-name="Grupo 56846">
                                        <path id="Trazado_101960" data-name="Trazado 101960" d="M745.652,4802.881c-.43-.224-17.461-6.582-18.191,11.216s17.291,14.86,17.342,14.353S745.652,4802.881,745.652,4802.881Z" transform="translate(-727.44 -4801.597)" fill="#ffbf9d"/>
                                      </g>
                                    </g>
                                  </g>
                                </g>
                              </g>
                            </g>
                          </g>
                        </g>
                      </g>
                    </g>
                  </g>
                </g>
              </g>
              <g id="Grupo_56872" data-name="Grupo 56872" transform="translate(4.52 73.349)">
                <g id="Grupo_56871" data-name="Grupo 56871">
                  <g id="Grupo_56870" data-name="Grupo 56870">
                    <g id="Grupo_56869" data-name="Grupo 56869">
                      <g id="Grupo_56868" data-name="Grupo 56868">
                        <g id="Grupo_56867" data-name="Grupo 56867">
                          <g id="Grupo_56866" data-name="Grupo 56866">
                            <g id="Grupo_56865" data-name="Grupo 56865">
                              <g id="Grupo_56864" data-name="Grupo 56864">
                                <g id="Grupo_56863" data-name="Grupo 56863">
                                  <g id="Grupo_56862" data-name="Grupo 56862">
                                    <g id="Grupo_56861" data-name="Grupo 56861">
                                      <g id="Grupo_56860" data-name="Grupo 56860">
                                        <g id="Grupo_56859" data-name="Grupo 56859">
                                          <path id="Trazado_101961" data-name="Trazado 101961" d="M738.352,4819.866c-.077-.061-.319.2-.852.422a3.1,3.1,0,0,1-2.321-.046c-1.852-.768-3.313-3.818-3.268-7.03a10.264,10.264,0,0,1,1.05-4.4,3.59,3.59,0,0,1,2.431-2.285,1.583,1.583,0,0,1,1.794.926c.219.508.091.856.183.893.049.046.395-.283.281-1.025a1.981,1.981,0,0,0-.655-1.144,2.352,2.352,0,0,0-1.7-.523,4.36,4.36,0,0,0-3.352,2.625,10.548,10.548,0,0,0-1.279,4.918c-.032,3.593,1.666,7.024,4.209,7.874a3.333,3.333,0,0,0,2.854-.354C738.3,4820.294,738.412,4819.9,738.352,4819.866Z" transform="translate(-730.669 -4805.645)" fill="#ff9a6c"/>
                                        </g>
                                      </g>
                                    </g>
                                  </g>
                                </g>
                              </g>
                            </g>
                          </g>
                        </g>
                      </g>
                    </g>
                  </g>
                </g>
              </g>
              <g id="Grupo_56873" data-name="Grupo 56873" transform="translate(60.181 89.922)">
                <path id="Trazado_101962" data-name="Trazado 101962" d="M779.855,4828.943c.194-.447-3.294-1.491-5.744-4.764a20,20,0,0,1-2.464-4.646c-.519-1.294-.913-2.106-1.1-2.046s-.137.932.149,2.337a13.147,13.147,0,0,0,2.291,5.207,10.638,10.638,0,0,0,4.546,3.48C778.888,4829.063,779.807,4829.1,779.855,4828.943Z" transform="translate(-770.435 -4817.485)" fill="#1a2e35"/>
              </g>
              <g id="Grupo_56882" data-name="Grupo 56882" transform="translate(86.587 55.86)">
                <g id="Grupo_56881" data-name="Grupo 56881">
                  <g id="Grupo_56880" data-name="Grupo 56880">
                    <g id="Grupo_56879" data-name="Grupo 56879">
                      <g id="Grupo_56878" data-name="Grupo 56878">
                        <g id="Grupo_56877" data-name="Grupo 56877">
                          <g id="Grupo_56876" data-name="Grupo 56876">
                            <g id="Grupo_56875" data-name="Grupo 56875">
                              <g id="Grupo_56874" data-name="Grupo 56874">
                                <path id="Trazado_101963" data-name="Trazado 101963" d="M805.261,4797.741c-.516.525-3.512-1.889-7.861-2-4.342-.182-7.595,2.018-8.051,1.458-.225-.251.312-1.211,1.729-2.2a10.887,10.887,0,0,1,6.464-1.835,10.5,10.5,0,0,1,6.239,2.271C805.089,4796.516,805.514,4797.508,805.261,4797.741Z" transform="translate(-789.299 -4793.149)" fill="#1a2e35"/>
                              </g>
                            </g>
                          </g>
                        </g>
                      </g>
                    </g>
                  </g>
                </g>
              </g>
              <g id="Grupo_56890" data-name="Grupo 56890" transform="translate(94.805 65.638)">
                <g id="Grupo_56889" data-name="Grupo 56889">
                  <g id="Grupo_56888" data-name="Grupo 56888">
                    <g id="Grupo_56887" data-name="Grupo 56887">
                      <g id="Grupo_56886" data-name="Grupo 56886">
                        <g id="Grupo_56885" data-name="Grupo 56885">
                          <g id="Grupo_56884" data-name="Grupo 56884">
                            <g id="Grupo_56883" data-name="Grupo 56883">
                              <path id="Trazado_101964" data-name="Trazado 101964" d="M802.2,4803.566a3.52,3.52,0,0,1-3.642,3.295,3.367,3.367,0,0,1-3.384-3.429,3.523,3.523,0,0,1,3.639-3.3A3.369,3.369,0,0,1,802.2,4803.566Z" transform="translate(-795.171 -4800.135)" fill="#1a2e35"/>
                            </g>
                          </g>
                        </g>
                      </g>
                    </g>
                  </g>
                </g>
              </g>
            </g>
            <g id="Grupo_56892" data-name="Grupo 56892" transform="translate(1.449)">
              <path id="Trazado_101965" data-name="Trazado 101965" d="M852.408,4771.463a14.043,14.043,0,0,0-17.516-5.543,19.223,19.223,0,0,0-33.113-16.6,7.858,7.858,0,0,0-3.829-5.267,15.5,15.5,0,0,0-6.389-1.905,30.549,30.549,0,0,0-27.913,12.171,33.253,33.253,0,0,0-28.183,10.284c-8.362,9.26-9.938,30.728-.78,49.268l2.156,11.625c2.872-.007,5.5.2,7.27,1.791,2.406,2.162,3.481,6.232,7.479,4.687,2.035-.786,3.891-5.054,4.573-7.126a101.287,101.287,0,0,0,4.385-42.875,32.587,32.587,0,0,1,10.053-7.254l-.307.275c7.252-2.518,15.457-5,22.338-1.59,5.339,2.641,8.475,8.18,12.466,12.6a40.759,40.759,0,0,0,29.041,13.412c.383,7.308-.23,17.637.154,24.944l6.148-11.706,0,.058c.5-.855.92-1.719,1.323-2.586l.137-.262v-.034l0-.008c1.124-.914,1.978-2.588,3.877-4.762a15.328,15.328,0,0,0,2.518-15.687A14.046,14.046,0,0,0,852.408,4771.463Z" transform="translate(-728.474 -4741.973)" fill="#1a2e35"/>
              <path id="Trazado_101966" data-name="Trazado 101966" d="M811.038,4787.534l-.024-.021h0Z" transform="translate(-695.482 -4723.771)" fill="#1a2e35"/>
            </g>
            <g id="Grupo_56893" data-name="Grupo 56893" transform="translate(84.369 29.757)">
              <path id="Trazado_101967" data-name="Trazado 101967" d="M818.089,4763.232c.018,0,.063.126.13.383a5.235,5.235,0,0,1,.164,1.149,7.723,7.723,0,0,1-1.036,4.172,7.947,7.947,0,0,1-1.989,2.3,7.112,7.112,0,0,1-3.243,1.383,8.031,8.031,0,0,1-7.422-2.793l.442-.38a4.9,4.9,0,0,1,1.253,3.489,6.445,6.445,0,0,1-1.989,4.487,7.275,7.275,0,0,1-4.209,1.792,11.315,11.315,0,0,1-7.318-2.014,23.924,23.924,0,0,1-3.911-3.324,9.771,9.771,0,0,1-1.246-1.4,13.365,13.365,0,0,1,1.405,1.24,27.574,27.574,0,0,0,3.977,3.136,11.041,11.041,0,0,0,7.035,1.825,6.779,6.779,0,0,0,3.872-1.669,5.914,5.914,0,0,0,1.8-4.08,4.337,4.337,0,0,0-1.09-3.077l.441-.38a7.552,7.552,0,0,0,6.885,2.645,6.973,6.973,0,0,0,4.977-3.375,7.861,7.861,0,0,0,1.159-3.97C818.181,4763.781,818.036,4763.243,818.089,4763.232Z" transform="translate(-787.715 -4763.232)" fill="#375a64"/>
            </g>
            <g id="Grupo_56894" data-name="Grupo 56894" transform="translate(75.13 10.248)">
              <path id="Trazado_101968" data-name="Trazado 101968" d="M798.456,4749.3c.009-.018.141.044.382.17a8.013,8.013,0,0,1,.992.669,8.671,8.671,0,0,1,2.685,3.488,6.822,6.822,0,0,1-.612,6.411,5.263,5.263,0,0,1-3.243,2.227,5.336,5.336,0,0,1-4.147-.8,4.586,4.586,0,0,1-.987-.982l.51-.288a4.983,4.983,0,0,1-.133,4,5.465,5.465,0,0,1-2.589,2.653,7.21,7.21,0,0,1-6.064-.012,9.686,9.686,0,0,1-3.267-2.463,4.685,4.685,0,0,1-.866-1.214c.038-.027.357.394,1.027,1.063a10.338,10.338,0,0,0,3.266,2.243,6.863,6.863,0,0,0,5.666-.092,4.968,4.968,0,0,0,2.308-2.411,4.432,4.432,0,0,0,.112-3.533l-.941-2.183,1.45,1.9a4.1,4.1,0,0,0,.853.847,4.8,4.8,0,0,0,3.684.716,4.724,4.724,0,0,0,2.917-1.969,6.448,6.448,0,0,0,.669-5.951,9.008,9.008,0,0,0-2.444-3.463C798.925,4749.631,798.427,4749.343,798.456,4749.3Z" transform="translate(-781.115 -4749.294)" fill="#375a64"/>
            </g>
          </g>
          <g id="Grupo_56940" data-name="Grupo 56940" transform="translate(0 137.291)">
            <g id="Grupo_56910" data-name="Grupo 56910" transform="translate(265.757)">
              <g id="Grupo_56896" data-name="Grupo 56896" transform="translate(2.415)">
                <path id="Trazado_101969" data-name="Trazado 101969" d="M913.74,4842.789l-41.068,31.357a5.319,5.319,0,0,0-.787,7.715h0a5.317,5.317,0,0,0,7.279.713l40.729-31.65,5.511-10.866Z" transform="translate(-870.581 -4840.059)" fill="#d9a171"/>
                <path id="Trazado_101970" data-name="Trazado 101970" d="M907.909,4840.938l2.913,3.392-3.148,6.242s-3.015.152-2.738-2.841a2.2,2.2,0,0,1-2.485-2.852s-2.136-.189-.931-2.444Z" transform="translate(-858.362 -4839.705)" fill="#fff" opacity="0.5"/>
                <path id="Trazado_101971" data-name="Trazado 101971" d="M872.075,4864.967l6.74,8.233,2.262-1.758-6.464-8.416Z" transform="translate(-869.984 -4830.875)" fill="#1a2e35"/>
              </g>
              <g id="Grupo_56897" data-name="Grupo 56897" transform="translate(0 5.313)">
                <path id="Trazado_101972" data-name="Trazado 101972" d="M870.333,4951.247l-1.477-.265,30.256-52.889-4.782-15.246s-5.544-21.716-.924-27.262c0,0,10.106-11.895,13.384-11.731s5.9.821,6.557,3.279c0,0,5.574-.654,7.049,1.147a28.354,28.354,0,0,1,2.623,3.933s6.065-.492,7.7,4.757c0,0,5.737,2.949,6.229,7.21s-1.148,24.1-2.95,29.178-8.524,15.735-10.491,31.472-8.9,25.952-15.061,48.951l-16.739,6.618Z" transform="translate(-868.856 -4843.853)" fill="#ffbf9d"/>
              </g>
              <g id="Grupo_56899" data-name="Grupo 56899" transform="translate(38.451 8.243)">
                <g id="Grupo_56898" data-name="Grupo 56898">
                  <path id="Trazado_101973" data-name="Trazado 101973" d="M902.078,4845.959c.123.175-1.959,1.551-3.531,4.091-1.609,2.52-1.946,4.991-2.154,4.958-.171.018-.132-2.643,1.573-5.322C899.642,4846.989,902.023,4845.8,902.078,4845.959Z" transform="translate(-896.326 -4845.945)" fill="#ff9a6c"/>
                </g>
              </g>
              <g id="Grupo_56901" data-name="Grupo 56901" transform="translate(48.051 13.649)">
                <g id="Grupo_56900" data-name="Grupo 56900">
                  <path id="Trazado_101974" data-name="Trazado 101974" d="M908.97,4849.825c.112.179-1.876,1.377-3.456,3.661-1.615,2.262-2.07,4.537-2.276,4.491-.172.008,0-2.468,1.713-4.886C906.643,4850.659,908.918,4849.659,908.97,4849.825Z" transform="translate(-903.185 -4849.808)" fill="#ff9a6c"/>
                </g>
              </g>
              <g id="Grupo_56903" data-name="Grupo 56903" transform="translate(56.439 18.249)">
                <g id="Grupo_56902" data-name="Grupo 56902">
                  <path id="Trazado_101975" data-name="Trazado 101975" d="M914.283,4853.108c.129.159-1.379,1.476-2.76,3.475-1.4,1.985-2.117,3.854-2.311,3.789-.171-.04.278-2.095,1.747-4.183S914.188,4852.959,914.283,4853.108Z" transform="translate(-909.177 -4853.095)" fill="#ff9a6c"/>
                </g>
              </g>
              <g id="Grupo_56905" data-name="Grupo 56905" transform="translate(26.514 18.731)">
                <g id="Grupo_56904" data-name="Grupo 56904">
                  <path id="Trazado_101976" data-name="Trazado 101976" d="M894.417,4854.71c-.108.168-1.471-.729-3.359-.575-1.891.1-3.121,1.175-3.25,1.026-.06-.059.161-.429.711-.836a4.965,4.965,0,0,1,5.081-.344C894.2,4854.309,894.469,4854.645,894.417,4854.71Z" transform="translate(-887.798 -4853.44)" fill="#ff9a6c"/>
                </g>
              </g>
              <g id="Grupo_56907" data-name="Grupo 56907" transform="translate(39.156 22.808)">
                <g id="Grupo_56906" data-name="Grupo 56906">
                  <path id="Trazado_101977" data-name="Trazado 101977" d="M902.871,4861.09c-.191.069-.759-1.7-2.5-2.987-1.706-1.337-3.56-1.416-3.544-1.619,0-.083.466-.192,1.228-.093a6.024,6.024,0,0,1,4.58,3.492C902.934,4860.592,902.952,4861.071,902.871,4861.09Z" transform="translate(-896.83 -4856.352)" fill="#ff9a6c"/>
                </g>
              </g>
              <g id="Grupo_56909" data-name="Grupo 56909" transform="translate(49.269 27.27)">
                <g id="Grupo_56908" data-name="Grupo 56908">
                  <path id="Trazado_101978" data-name="Trazado 101978" d="M911.965,4862.374c-.147.145-1.463-1.349-3.721-1.933-2.243-.635-4.132-.01-4.188-.208-.03-.08.4-.354,1.2-.542a6.751,6.751,0,0,1,5.951,1.61C911.8,4861.867,912.03,4862.321,911.965,4862.374Z" transform="translate(-904.055 -4859.54)" fill="#ff9a6c"/>
                </g>
              </g>
            </g>
            <g id="Grupo_56934" data-name="Grupo 56934" transform="translate(0 12.867)">
              <g id="Grupo_56911" data-name="Grupo 56911" transform="translate(0 74.925)">
                <path id="Trazado_101979" data-name="Trazado 101979" d="M696.67,4902.78s-18.542,105.317-17.648,115.165,5.827,25.513,17.014,28.2a49.24,49.24,0,0,0,21.482,0l-13.429-129.358Z" transform="translate(-678.991 -4902.78)" fill="#fd9826"/>
              </g>
              <g id="Grupo_56912" data-name="Grupo 56912" transform="translate(17.445)">
                <path id="Trazado_101980" data-name="Trazado 101980" d="M745.983,4869.853s-22.191,15.776-27.1,20.414c-20.516,19.4-24.809,27.345-27.2,33.909s14.243,159.046,14.243,159.046l3.369,26.642h0l155.759.4h0V4974.151l-23.4-95.79-14.4-4.1-2.907-11.417s-17.891-13.21-47.4-13.591c-9.078-.119-21.92,3.449-29.093,9.016h0Z" transform="translate(-691.454 -4849.25)" fill="#fd9826"/>
              </g>
              <g id="Grupo_56913" data-name="Grupo 56913" transform="translate(133.37 27.105)">
                <path id="Trazado_101981" data-name="Trazado 101981" d="M789.994,4870.466s16.008-.72,17.421-.395c4.934,1.137,18.483,13.56,33.915,28.866,14.722,14.6,43.69,44.981,43.69,44.981s5.207-5.256,11.143,1.76l22.869-33.264s34.324,4.217,39.721,30.124c0,0-10.52,20.085-19.137,34.448,0,0-31.9,52.936-57.1,43.35-23.017-8.755-51.876-32.173-55.94-37.174l-33.886-24.181s-23.209-44.256-12.954-66.386Z" transform="translate(-777.123 -4869.987)" fill="#fd9826"/>
              </g>
              <g id="Grupo_56915" data-name="Grupo 56915" transform="translate(71.973 17.663)">
                <g id="Grupo_56914" data-name="Grupo 56914">
                  <path id="Trazado_101982" data-name="Trazado 101982" d="M811.688,4869.219a4.047,4.047,0,0,1-.822-.168l-2.311-.609c-2.01-.509-4.93-1.212-8.573-1.9A239.131,239.131,0,0,0,771.235,4863a196.758,196.758,0,0,0-28.953.085c-3.693.316-6.66.778-8.7,1.148l-2.343.465a4.244,4.244,0,0,1-.83.116,3.621,3.621,0,0,1,.8-.253c.6-.153,1.372-.349,2.324-.587a75.863,75.863,0,0,1,8.7-1.372,177.642,177.642,0,0,1,29.044-.287,212.554,212.554,0,0,1,28.8,3.751c3.643.753,6.556,1.529,8.549,2.121.935.3,1.691.545,2.282.734A3.848,3.848,0,0,1,811.688,4869.219Z" transform="translate(-730.411 -4861.869)" fill="#1a2e35"/>
                </g>
              </g>
              <g id="Grupo_56917" data-name="Grupo 56917" transform="translate(90.881 5.348)">
                <g id="Grupo_56916" data-name="Grupo 56916">
                  <path id="Trazado_101983" data-name="Trazado 101983" d="M745.619,4864.813c-.189.028-.705-2.581-1.156-5.823s-.663-5.89-.475-5.918.705,2.581,1.155,5.824S745.807,4864.785,745.619,4864.813Z" transform="translate(-743.92 -4853.071)" fill="#1a2e35"/>
                </g>
              </g>
              <g id="Grupo_56919" data-name="Grupo 56919" transform="translate(96.972 4.802)">
                <g id="Grupo_56918" data-name="Grupo 56918">
                  <path id="Trazado_101984" data-name="Trazado 101984" d="M749.7,4864.468c-.164.062-1.149-2.49-1.37-5.825-.241-3.335.382-6,.553-5.961.2.029-.1,2.67.133,5.913C749.226,4861.838,749.893,4864.41,749.7,4864.468Z" transform="translate(-748.271 -4852.681)" fill="#1a2e35"/>
                </g>
              </g>
              <g id="Grupo_56921" data-name="Grupo 56921" transform="translate(72.486 18.105)" opacity="0.3">
                <g id="Grupo_56920" data-name="Grupo 56920">
                  <path id="Trazado_101985" data-name="Trazado 101985" d="M730.778,4864.547c24.376,4.317,49.085.041,74.882,3.093-24.909-5.154-50.849-7.6-74.882-3.093" transform="translate(-730.778 -4862.185)"/>
                </g>
              </g>
              <g id="Grupo_56923" data-name="Grupo 56923" transform="translate(18.259 115.214)" opacity="0.3">
                <g id="Grupo_56922" data-name="Grupo 56922">
                  <path id="Trazado_101986" data-name="Trazado 101986" d="M703.487,5034.837c-13.711-32.112-12.088-68.408-10.229-103.275Z" transform="translate(-692.036 -4931.562)"/>
                </g>
              </g>
              <g id="Grupo_56925" data-name="Grupo 56925" transform="translate(17.671 97.887)">
                <g id="Grupo_56924" data-name="Grupo 56924">
                  <path id="Trazado_101987" data-name="Trazado 101987" d="M691.624,4919.184a1.8,1.8,0,0,1,.073.4c.036.309.084.7.144,1.2.116,1.1.279,2.637.487,4.595.4,4.043.972,9.811,1.674,16.915,1.393,14.286,3.3,34.021,5.564,55.8s4.545,41.482,6.362,55.719c.894,7.118,1.664,12.875,2.2,16.85.259,1.953.461,3.489.606,4.582.057.5.1.889.14,1.194a1.719,1.719,0,0,1,.024.412,1.862,1.862,0,0,1-.094-.4c-.053-.3-.122-.693-.207-1.184-.175-1.089-.421-2.618-.733-4.562-.622-3.967-1.466-9.712-2.422-16.826-1.941-14.224-4.289-33.92-6.563-55.713s-4.1-41.529-5.365-55.824c-.612-7.117-1.109-12.89-1.457-16.937-.153-1.966-.273-3.505-.358-4.607-.031-.5-.056-.893-.076-1.2A1.834,1.834,0,0,1,691.624,4919.184Z" transform="translate(-691.616 -4919.184)" fill="#1a2e35"/>
                </g>
              </g>
              <g id="Grupo_56927" data-name="Grupo 56927" transform="translate(25.432 80.357)">
                <g id="Grupo_56926" data-name="Grupo 56926">
                  <path id="Trazado_101988" data-name="Trazado 101988" d="M794.861,4906.958a5.211,5.211,0,0,1-1,.055l-2.877.019c-2.5-.01-6.111.025-10.572.132-8.923.2-21.246.855-34.77,2.456-13.527,1.617-25.661,3.873-34.383,5.772-4.361.948-7.882,1.759-10.306,2.356-1.165.27-2.1.489-2.8.653a6.384,6.384,0,0,1-.988.187,5.132,5.132,0,0,1,.953-.318l2.769-.783c2.406-.674,5.914-1.563,10.268-2.568a325.66,325.66,0,0,1,69.25-8.243c4.47-.04,8.086,0,10.583.091,1.2.045,2.153.08,2.876.108A5.52,5.52,0,0,1,794.861,4906.958Z" transform="translate(-697.161 -4906.659)" fill="#1a2e35"/>
                </g>
              </g>
              <g id="Grupo_56929" data-name="Grupo 56929" transform="translate(63.269 49.637)">
                <g id="Grupo_56928" data-name="Grupo 56928">
                  <path id="Trazado_101989" data-name="Trazado 101989" d="M724.243,4949.832c-.19-.007.168-14.591.8-32.571s1.3-32.555,1.487-32.548-.168,14.587-.8,32.575S724.432,4949.838,724.243,4949.832Z" transform="translate(-724.192 -4884.712)" fill="#1a2e35"/>
                </g>
              </g>
              <g id="Grupo_56931" data-name="Grupo 56931" transform="translate(125.41 27.105)">
                <g id="Grupo_56930" data-name="Grupo 56930">
                  <path id="Trazado_101990" data-name="Trazado 101990" d="M786.1,4954.467a6.775,6.775,0,0,1-.585-.917c-.388-.669-.908-1.561-1.561-2.684l-5.747-9.872a85.706,85.706,0,0,1-7.209-15.36,50.341,50.341,0,0,1-2.15-9.823,59.161,59.161,0,0,1-.031-10.789c.679-7.343,2.262-14.338,5.143-20.106a33.148,33.148,0,0,1,5.07-7.564,28.805,28.805,0,0,1,6.09-5.084,23.225,23.225,0,0,1,10.806-3.621,15.214,15.214,0,0,1,4.188.235,38.024,38.024,0,0,0-4.167.033,23.571,23.571,0,0,0-10.568,3.763,28.679,28.679,0,0,0-5.925,5.057,32.877,32.877,0,0,0-4.926,7.463c-2.8,5.689-4.352,12.6-5.026,19.89a59.349,59.349,0,0,0,.016,10.654,50.431,50.431,0,0,0,2.083,9.7,88.313,88.313,0,0,0,7.029,15.317c2.321,4.167,4.21,7.563,5.557,9.979q.909,1.723,1.449,2.75A6.122,6.122,0,0,1,786.1,4954.467Z" transform="translate(-768.588 -4868.614)" fill="#1a2e35"/>
                </g>
              </g>
              <g id="Grupo_56933" data-name="Grupo 56933" transform="translate(27.369 80.963)" opacity="0.3">
                <g id="Grupo_56932" data-name="Grupo 56932">
                  <path id="Trazado_101991" data-name="Trazado 101991" d="M699.129,4918.331a185.413,185.413,0,0,0,29.27-3.859,44.625,44.625,0,0,0-1.639,13.093,30.044,30.044,0,0,0,6.508-11.977,18.12,18.12,0,0,0,7.383,12.116,39.578,39.578,0,0,0,.658-13.342q21.846-2.632,43.4-7.183a294.3,294.3,0,0,0-86.165,10.727" transform="translate(-698.545 -4907.092)"/>
                </g>
              </g>
            </g>
            <g id="Grupo_56935" data-name="Grupo 56935" transform="translate(153.679 131.785)">
              <path id="Trazado_101992" data-name="Trazado 101992" d="M850.31,4980.093a4.015,4.015,0,0,1-.67-.4l-1.862-1.242c-1.61-1.086-3.922-2.687-6.765-4.684-5.686-3.989-13.479-9.592-21.977-15.927s-16.091-12.211-21.537-16.525c-2.724-2.152-4.916-3.913-6.416-5.145-.711-.591-1.282-1.063-1.722-1.429a3.852,3.852,0,0,1-.575-.529,3.916,3.916,0,0,1,.65.435l1.789,1.344c1.6,1.221,3.814,2.917,6.531,5,5.511,4.226,13.139,10.044,21.634,16.379s16.245,11.984,21.866,16.062c2.768,2.009,5.028,3.649,6.654,4.833.742.549,1.338.99,1.8,1.332A3.663,3.663,0,0,1,850.31,4980.093Z" transform="translate(-788.784 -4934.209)" fill="#1a2e35"/>
            </g>
            <g id="Grupo_56936" data-name="Grupo 56936" transform="translate(244.359 114.442)">
              <path id="Trazado_101993" data-name="Trazado 101993" d="M862.432,4950.326c-.1-.005-.036-1.711-.235-4.447a46.619,46.619,0,0,0-6.3-20.262c-1.387-2.367-2.409-3.736-2.326-3.8a4.708,4.708,0,0,1,.8.9,29.909,29.909,0,0,1,1.884,2.68,41.43,41.43,0,0,1,6.358,20.456,29.624,29.624,0,0,1-.034,3.275A4.74,4.74,0,0,1,862.432,4950.326Z" transform="translate(-853.569 -4921.818)" fill="#1a2e35"/>
            </g>
            <g id="Grupo_56937" data-name="Grupo 56937" transform="translate(257.529 117.002)">
              <path id="Trazado_101994" data-name="Trazado 101994" d="M865.679,4947.035c-.094-.016.122-1.337.285-3.483a43.537,43.537,0,0,0-1.907-16.576c-.646-2.05-1.158-3.29-1.069-3.329a2.989,2.989,0,0,1,.47.824,24.267,24.267,0,0,1,.994,2.372,36.447,36.447,0,0,1,1.927,16.749,24.417,24.417,0,0,1-.428,2.537A2.905,2.905,0,0,1,865.679,4947.035Z" transform="translate(-862.978 -4923.646)" fill="#1a2e35"/>
            </g>
            <g id="Grupo_56938" data-name="Grupo 56938" transform="translate(274.219 92.975)">
              <path id="Trazado_101995" data-name="Trazado 101995" d="M914.051,4939.328c-.034.009.016-.217-.263-.425a1.341,1.341,0,0,1-.459-.5c-.133-.235-.218-.527-.381-.8-.3-.565-1.054-1.006-1.6-1.843a11.968,11.968,0,0,1-1.365-2.985,19.9,19.9,0,0,0-3.883-7.326,32.31,32.31,0,0,0-3.5-3.488,37.167,37.167,0,0,0-4.22-3.224,34.537,34.537,0,0,0-4.516-2.8c-1.551-.759-3.049-1.494-4.479-2.192-1.432-.676-2.759-1.377-4.06-1.935l-3.624-1.543a15.9,15.9,0,0,1-1.576-.72c-.48-.288-.881-.6-1.286-.821l-1.174-.626c-.369-.2-.668-.45-.938-.622-.557-.347-1.05-.539-1.362-.709s-.473-.267-.464-.286a2.515,2.515,0,0,1,.511.179,10.929,10.929,0,0,1,1.433.623,15.373,15.373,0,0,0,2.151,1.152c.437.225.857.53,1.315.787s1.015.43,1.559.664l3.641,1.472c1.306.537,2.665,1.231,4.114,1.9,1.436.689,2.939,1.413,4.5,2.162a33.97,33.97,0,0,1,4.584,2.828,35.822,35.822,0,0,1,4.276,3.281,31.781,31.781,0,0,1,3.536,3.572,19.822,19.822,0,0,1,3.862,7.542,12.128,12.128,0,0,0,1.243,2.934c.472.795,1.2,1.26,1.526,1.916.165.315.23.608.337.833a1.351,1.351,0,0,0,.382.49C914.157,4939.089,914.056,4939.349,914.051,4939.328Z" transform="translate(-874.901 -4906.481)" fill="#1a2e35"/>
            </g>
            <g id="Grupo_56939" data-name="Grupo 56939" transform="translate(167.925 143.374)">
              <path id="Trazado_101996" data-name="Trazado 101996" d="M799.258,5070.358c-.164,0-.3-28.627-.3-63.933s.132-63.937.3-63.937.294,28.621.294,63.938S799.42,5070.358,799.258,5070.358Z" transform="translate(-798.962 -4942.488)" fill="#1a2e35"/>
            </g>
          </g>
        </g>
      </g>
    </g>
  </g>
</svg>
