<svg xmlns="http://www.w3.org/2000/svg" xmlns:xlink="http://www.w3.org/1999/xlink" width="99.896" height="99.896" viewBox="0 0 99.896 99.896">
  <defs>
    <filter id="Trazado_896985" x="0" y="0" width="99.896" height="99.896" filterUnits="userSpaceOnUse">
      <feOffset dy="3" input="SourceAlpha"/>
      <feGaussianBlur stdDeviation="3" result="blur"/>
      <feFlood flood-opacity="0.161"/>
      <feComposite operator="in" in2="blur"/>
      <feComposite in="SourceGraphic"/>
    </filter>
  </defs>
  <g id="Grupo_1177057" data-name="Grupo 1177057" transform="translate(-725.337 -5718)">
    <g id="Grupo_1176898" data-name="Grupo 1176898" transform="translate(734.337 5724)">
      <g id="Grupo_1111318" data-name="Grupo 1111318" transform="translate(0 0)">
        <g id="Grupo_1109826" data-name="Grupo 1109826">
          <g id="Grupo_1098742" data-name="Grupo 1098742">
            <g transform="matrix(1, 0, 0, 1, -9, -6)" filter="url(#Trazado_896985)">
              <g id="Trazado_896985-2" data-name="Trazado 896985" transform="translate(9 6)" fill="#edf7fe" opacity="0.859">
                <path d="M 40.94818878173828 80.39647674560547 C 35.6220588684082 80.39647674560547 30.45603561401367 79.35368347167969 25.59363555908203 77.29705810546875 C 20.89635276794434 75.31027221679688 16.67744827270508 72.46570587158203 13.05410671234131 68.84237670898438 C 9.430765151977539 65.21903991699219 6.586200714111328 61.0001335144043 4.599423885345459 56.30284881591797 C 2.542800664901733 51.44044876098633 1.500000596046448 46.2744255065918 1.500000596046448 40.94829559326172 C 1.500000596046448 35.62206268310547 2.542800664901733 30.4560375213623 4.599423885345459 25.59363746643066 C 6.586200714111328 20.8963565826416 9.430765151977539 16.67745018005371 13.05410671234131 13.05410861968994 C 16.67744827270508 9.430768013000488 20.89635276794434 6.586203098297119 25.59363555908203 4.599426746368408 C 30.45603561401367 2.542803049087524 35.6220588684082 1.500003099441528 40.94818878173828 1.500003099441528 C 46.27431869506836 1.500003099441528 51.44034194946289 2.542803049087524 56.30274200439453 4.599426746368408 C 61.00002288818359 6.586203098297119 65.21893310546875 9.430768013000488 68.84226989746094 13.05410861968994 C 72.46561431884766 16.67745018005371 75.3101806640625 20.8963565826416 77.29695129394531 25.59363746643066 C 79.35357666015625 30.4560375213623 80.39637756347656 35.62206268310547 80.39637756347656 40.94819259643555 C 80.39637756347656 46.2744255065918 79.35357666015625 51.44044876098633 77.29695129394531 56.30284881591797 C 75.3101806640625 61.0001335144043 72.46561431884766 65.21903991699219 68.84226989746094 68.84237670898438 C 65.21893310546875 72.46570587158203 61.00002288818359 75.31027221679688 56.30274200439453 77.29705810546875 C 51.44034194946289 79.35368347167969 46.27431869506836 80.39647674560547 40.94818878173828 80.39647674560547 Z" stroke="none"/>
                <path d="M 40.94818878173828 3 C 35.82389450073242 3 30.85446929931641 4.0029296875 26.17796325683594 5.980918884277344 C 21.65948104858398 7.892074584960938 17.600830078125 10.62870788574219 14.11477661132812 14.11476898193359 C 10.62870788574219 17.60082244873047 7.892082214355469 21.65947723388672 5.980918884277344 26.17795944213867 C 4.002937316894531 30.85446548461914 3 35.82389068603516 3 40.94829177856445 C 3 46.07258605957031 4.002937316894531 51.04201126098633 5.980918884277344 55.71852111816406 C 7.892082214355469 60.23701095581055 10.62870788574219 64.295654296875 14.11477661132812 67.78171539306641 C 17.600830078125 71.26776885986328 21.65948104858398 74.00439453125 26.17796325683594 75.91555786132812 C 30.85446929931641 77.89354705810547 35.82389450073242 78.89647674560547 40.94818878173828 78.89647674560547 C 46.07248306274414 78.89647674560547 51.04190826416016 77.89354705810547 55.71841430664062 75.91555786132812 C 60.23689270019531 74.00439453125 64.29554748535156 71.26776885986328 67.78160095214844 67.78171539306641 C 71.26766967773438 64.295654296875 74.00429534912109 60.23701095581055 75.91545867919922 55.71852111816406 C 77.89344024658203 51.04201126098633 78.89637756347656 46.07258605957031 78.89637756347656 40.94818496704102 C 78.89637756347656 35.82389068603516 77.89344024658203 30.85446548461914 75.91545867919922 26.17795944213867 C 74.00429534912109 21.65947723388672 71.26766967773438 17.60082244873047 67.78160095214844 14.11476898193359 C 64.29554748535156 10.62870788574219 60.23689270019531 7.892074584960938 55.71841430664062 5.980918884277344 C 51.04190826416016 4.0029296875 46.07248306274414 3 40.94818878173828 3 M 40.94818878173828 0 C 63.56324005126953 0 81.89637756347656 18.3331298828125 81.89637756347656 40.94818496704102 L 81.89637756347656 40.94829177856445 C 81.89637756347656 63.56335830688477 63.56324005126953 81.89647674560547 40.94818878173828 81.89647674560547 C 18.33313369750977 81.89647674560547 0 63.56335830688477 0 40.94829177856445 L 0 40.94818496704102 C 0 18.3331298828125 18.33313369750977 0 40.94818878173828 0 Z" stroke="none" fill="#5ab4f9"/>
              </g>
            </g>
          </g>
        </g>
      </g>
    </g>
    <g id="reserve_3785187" transform="translate(752.77 5742.75)">
      <g id="Grupo_1177055" data-name="Grupo 1177055" transform="translate(0.754 0.754)">
        <g id="Grupo_1177042" data-name="Grupo 1177042">
          <path id="Trazado_1032353" data-name="Trazado 1032353" d="M30.017,1H3.663A2.662,2.662,0,0,0,1,3.663V43.594a2.662,2.662,0,0,0,2.663,2.663H30.017a2.662,2.662,0,0,0,2.663-2.663V3.663A2.662,2.662,0,0,0,30.017,1Z" transform="translate(-1 -1)" fill="#ccd1d9"/>
        </g>
        <g id="Grupo_1177043" data-name="Grupo 1177043" transform="translate(42.24 17.349)">
          <path id="Trazado_1032354" data-name="Trazado 1032354" d="M60.017,25.509v7.543a1.513,1.513,0,0,1-1.509,1.509H57V24h1.509A1.513,1.513,0,0,1,60.017,25.509Z" transform="translate(-57 -24)" fill="#aab2bd"/>
        </g>
        <g id="Grupo_1177044" data-name="Grupo 1177044" transform="translate(28.663 1.509)">
          <path id="Trazado_1032355" data-name="Trazado 1032355" d="M51.823,45.24l-9.806-1.154L39,43.731V4.509l3.017-.355L51.823,3h.754V45.24Z" transform="translate(-39 -3)" fill="#ccd1d9"/>
        </g>
        <g id="Grupo_1177045" data-name="Grupo 1177045" transform="translate(3.017 3.017)">
          <path id="Trazado_1032356" data-name="Trazado 1032356" d="M5.754,5A.757.757,0,0,0,5,5.754V43.468a.757.757,0,0,0,.754.754H30.646V5Z" transform="translate(-5 -5)" fill="#e6e9ed"/>
        </g>
        <g id="Grupo_1177046" data-name="Grupo 1177046" transform="translate(3.017 13.577)">
          <path id="Trazado_1032357" data-name="Trazado 1032357" d="M9.526,20.509v7.543A1.513,1.513,0,0,1,8.017,29.56H5V19H8.017A1.513,1.513,0,0,1,9.526,20.509Z" transform="translate(-5 -19)" fill="#fcd770"/>
        </g>
        <g id="Grupo_1177047" data-name="Grupo 1177047" transform="translate(10.56 6.034)">
          <path id="Trazado_1032358" data-name="Trazado 1032358" d="M20.28,12.771,21.789,9h.437A7.981,7.981,0,0,1,26.9,10.509l-1.7,4.526H17.881a4.376,4.376,0,0,0-1.29.189L15,12.017a3.31,3.31,0,0,1,1.207-1.637,3.264,3.264,0,0,1,1.931-.626h.634Z" transform="translate(-15 -9)" fill="#a0d468"/>
        </g>
        <g id="Grupo_1177048" data-name="Grupo 1177048" transform="translate(12.944 15.086)">
          <path id="Trazado_1032359" data-name="Trazado 1032359" d="M24.074,21a1.513,1.513,0,0,0,1.509,1.509,1.52,1.52,0,0,0-1.509,1.509,1.513,1.513,0,0,0,1.509,1.509,1.52,1.52,0,0,0-1.509,1.509h-5.28l-.634-3.8a4.472,4.472,0,0,0,2.715-1.3L21.811,21Z" transform="translate(-18.16 -21)" fill="#a0d468"/>
        </g>
        <g id="Grupo_1177049" data-name="Grupo 1177049" transform="translate(7.543 21.12)">
          <path id="Trazado_1032360" data-name="Trazado 1032360" d="M28.582,36.03a8.237,8.237,0,0,0-1.493-2.5H25.331a1.513,1.513,0,0,1-1.509-1.509,1.52,1.52,0,0,1,1.509-1.509H23.823A1.513,1.513,0,0,1,22.314,29h-5.28l-3.2,3.6-.762.86A8.194,8.194,0,0,0,19.2,47.1h1.7A8.2,8.2,0,0,0,28.582,36.03Z" transform="translate(-11 -29)" fill="#b4dd7f"/>
        </g>
        <g id="Grupo_1177050" data-name="Grupo 1177050" transform="translate(20.366 22.629)">
          <path id="Trazado_1032361" data-name="Trazado 1032361" d="M31.771,31a1.513,1.513,0,0,1,1.509,1.509,1.52,1.52,0,0,1-1.509,1.509H29.509A1.513,1.513,0,0,1,28,32.509,1.52,1.52,0,0,1,29.509,31Z" transform="translate(-28 -31)" fill="#f0d0b4"/>
        </g>
        <g id="Grupo_1177051" data-name="Grupo 1177051" transform="translate(18.857 19.611)">
          <path id="Trazado_1032362" data-name="Trazado 1032362" d="M31.28,27a1.513,1.513,0,0,1,1.509,1.509,1.52,1.52,0,0,1-1.509,1.509H27.509A1.513,1.513,0,0,1,26,28.509,1.52,1.52,0,0,1,27.509,27Z" transform="translate(-26 -27)" fill="#f0d0b4"/>
        </g>
        <g id="Grupo_1177052" data-name="Grupo 1177052" transform="translate(18.857 16.594)">
          <path id="Trazado_1032363" data-name="Trazado 1032363" d="M31.28,23a1.513,1.513,0,0,1,1.509,1.509,1.52,1.52,0,0,1-1.509,1.509H27.509A1.513,1.513,0,0,1,26,24.509,1.52,1.52,0,0,1,27.509,23Z" transform="translate(-26 -23)" fill="#f0d0b4"/>
        </g>
        <g id="Grupo_1177053" data-name="Grupo 1177053" transform="translate(18.857 13.577)">
          <path id="Trazado_1032364" data-name="Trazado 1032364" d="M31.28,19a1.513,1.513,0,0,1,1.509,1.509,1.52,1.52,0,0,1-1.509,1.509H27.509A1.513,1.513,0,0,1,26,20.509h1.509a2.257,2.257,0,0,0,1.6-.664L29.636,19H31.28Z" transform="translate(-26 -19)" fill="#f0d0b4"/>
        </g>
        <g id="Grupo_1177054" data-name="Grupo 1177054" transform="translate(7.543 12.069)">
          <path id="Trazado_1032365" data-name="Trazado 1032365" d="M16.4,22.25l.634,3.8-3.2,3.6L11,27.56V20.017l3.387-2.255a4.311,4.311,0,0,1,1.222-.573A4.376,4.376,0,0,1,16.9,17h8.433a.757.757,0,0,1,.754.754,2.091,2.091,0,0,1-.136.754l-.528.845a2.257,2.257,0,0,1-1.6.664H20.051l-.935.935a4.472,4.472,0,0,1-2.715,1.3Z" transform="translate(-11 -17)" fill="#f0d0b4"/>
        </g>
      </g>
      <g id="Grupo_1177056" data-name="Grupo 1177056" transform="translate(0)">
        <path id="Trazado_1032366" data-name="Trazado 1032366" d="M21.017,44.069v1.509h1.509V44.069a3.017,3.017,0,0,0,0-6.034H21.017a1.509,1.509,0,0,1,0-3.017h1.509a1.51,1.51,0,0,1,1.509,1.509h1.509a3.02,3.02,0,0,0-3.017-3.017V32H21.017v1.509a3.017,3.017,0,0,0,0,6.034h1.509a1.509,1.509,0,1,1,0,3.017H21.017a1.51,1.51,0,0,1-1.509-1.509V40.3H18v.754A3.02,3.02,0,0,0,21.017,44.069Z" transform="translate(-4.423 -7.863)"/>
        <path id="Trazado_1032367" data-name="Trazado 1032367" d="M44.5,17.349h-.754V1.509H42.24L33.074,2.583A3.415,3.415,0,0,0,29.772,0H3.416A3.42,3.42,0,0,0,0,3.416V43.349a3.42,3.42,0,0,0,3.416,3.417H29.772a3.414,3.414,0,0,0,3.3-2.582l9.079,1.068,1.6.005V29.417H44.5a2.266,2.266,0,0,0,2.263-2.263V19.611A2.266,2.266,0,0,0,44.5,17.349ZM29.772,45.257H3.416a1.91,1.91,0,0,1-1.908-1.908V3.416A1.91,1.91,0,0,1,3.416,1.509H29.772a1.906,1.906,0,0,1,1.785,1.253l-2.184.256H4.526A1.51,1.51,0,0,0,3.017,4.526V42.24a1.51,1.51,0,0,0,1.509,1.509H29.37l2.186.257a1.905,1.905,0,0,1-1.784,1.251Zm-1.11-3.017H4.526V25.646H6.789a2.257,2.257,0,0,0,1.9-1.039l1.334.983-.216.244a8.952,8.952,0,0,0,6.691,14.9H18.2a8.941,8.941,0,0,0,7.549-13.749,2.248,2.248,0,0,0,.815-3.6,2.228,2.228,0,0,0,0-3.017,2.228,2.228,0,0,0,0-3.017,2.253,2.253,0,0,0-1.675-3.771h-.754a1.51,1.51,0,0,0-1.509-1.509h-.035L24.12,8.023l-.468-.337a8.677,8.677,0,0,0-5.109-1.651h-.95L16.517,8.72l-.965-1.932h-1.1A4.057,4.057,0,0,0,10.6,9.568l-.1.3,1.368,2.75a5.259,5.259,0,0,0-.6.342L8.71,14.66a2.255,2.255,0,0,0-1.921-1.082H4.526V4.526H28.663ZM4.526,15.086H6.789a.755.755,0,0,1,.754.754v7.543a.755.755,0,0,1-.754.754H4.526Zm7.614-5.316A2.551,2.551,0,0,1,14.454,8.3h.166l1.886,3.771H14.193a5.24,5.24,0,0,0-.871.078Zm8.842,2.3H16.8l1.81-4.526a7.175,7.175,0,0,1,3.679,1.049Zm-6.789,1.509h8.436a1.51,1.51,0,0,1-1.509,1.509H17.036l-1.158,1.158a3.749,3.749,0,0,1-2.667,1.105h-1.9v1.509h1.75l.464,2.786-2.5,2.815L9.051,23V16.244l3.05-2.033a3.755,3.755,0,0,1,2.092-.634Zm9.525,1.509h1.174a.754.754,0,1,1,0,1.509H21.12a3.007,3.007,0,0,0,2.6-1.509Zm1.928,9.806a.755.755,0,0,1-.754.754H22.629a.754.754,0,0,1,0-1.509h2.263A.755.755,0,0,1,25.646,24.891ZM10.931,26.834l3.739-4.206H19a2.258,2.258,0,0,0,1.536,1.421,2.255,2.255,0,0,0,2.1,3.1h1.4A7.434,7.434,0,0,1,18.2,39.223H16.495a7.444,7.444,0,0,1-5.564-12.388Zm14.715-7.977a.755.755,0,0,1-.754.754H21.12a.754.754,0,0,1,0-1.509h3.771A.755.755,0,0,1,25.646,18.857Zm0,3.017a.755.755,0,0,1-.754.754H21.12a.754.754,0,0,1,0-1.509h3.771A.755.755,0,0,1,25.646,21.874ZM19,16.594a2.242,2.242,0,0,0,.45.754,2.228,2.228,0,0,0,0,3.017,2.242,2.242,0,0,0-.45.754H14.97l-.407-2.443a5.245,5.245,0,0,0,2.381-1.367l.716-.716ZM42.24,43.743l-12.069-1.42V4.443L42.24,3.022Zm3.017-16.589a.755.755,0,0,1-.754.754h-.754V18.857H44.5a.755.755,0,0,1,.754.754Z" transform="translate(0)"/>
        <path id="Trazado_1032368" data-name="Trazado 1032368" d="M52,46h1.509v1.509H52Z" transform="translate(-12.777 -11.303)"/>
        <path id="Trazado_1032369" data-name="Trazado 1032369" d="M52,42h1.509v1.509H52Z" transform="translate(-12.777 -10.32)"/>
        <path id="Trazado_1032370" data-name="Trazado 1032370" d="M52,50h1.509v1.509H52Z" transform="translate(-12.777 -12.286)"/>
        <path id="Trazado_1032371" data-name="Trazado 1032371" d="M52,54h1.509v1.509H52Z" transform="translate(-12.777 -13.269)"/>
      </g>
    </g>
  </g>
</svg>
