<svg xmlns="http://www.w3.org/2000/svg" xmlns:xlink="http://www.w3.org/1999/xlink" width="254.199" height="256.626" viewBox="0 0 254.199 256.626">
  <defs>
    <filter id="Trazado_103149" x="110.304" y="219.797" width="38.719" height="36.829" filterUnits="userSpaceOnUse">
      <feOffset dy="3" input="SourceAlpha"/>
      <feGaussianBlur stdDeviation="3" result="blur"/>
      <feFlood flood-opacity="0.161"/>
      <feComposite operator="in" in2="blur"/>
      <feComposite in="SourceGraphic"/>
    </filter>
    <filter id="Trazado_103154" x="0" y="63.611" width="50.742" height="47.57" filterUnits="userSpaceOnUse">
      <feOffset dy="3" input="SourceAlpha"/>
      <feGaussianBlur stdDeviation="3" result="blur-2"/>
      <feFlood flood-opacity="0.161"/>
      <feComposite operator="in" in2="blur-2"/>
      <feComposite in="SourceGraphic"/>
    </filter>
    <filter id="Trazado_103156" x="95.007" y="38.263" width="56.711" height="55.702" filterUnits="userSpaceOnUse">
      <feOffset dy="3" input="SourceAlpha"/>
      <feGaussianBlur stdDeviation="3" result="blur-3"/>
      <feFlood flood-opacity="0.161"/>
      <feComposite operator="in" in2="blur-3"/>
      <feComposite in="SourceGraphic"/>
    </filter>
    <filter id="Trazado_103158" x="35.646" y="3.966" width="59.51" height="53.201" filterUnits="userSpaceOnUse">
      <feOffset dy="3" input="SourceAlpha"/>
      <feGaussianBlur stdDeviation="3" result="blur-4"/>
      <feFlood flood-opacity="0.161"/>
      <feComposite operator="in" in2="blur-4"/>
      <feComposite in="SourceGraphic"/>
    </filter>
    <filter id="Trazado_110714" x="119.394" y="22.054" width="46.393" height="46.331" filterUnits="userSpaceOnUse">
      <feOffset dy="3" input="SourceAlpha"/>
      <feGaussianBlur stdDeviation="3" result="blur-5"/>
      <feFlood flood-opacity="0.161"/>
      <feComposite operator="in" in2="blur-5"/>
      <feComposite in="SourceGraphic"/>
    </filter>
    <filter id="Trazado_110736" x="176.189" y="155.8" width="42.289" height="39.267" filterUnits="userSpaceOnUse">
      <feOffset dy="3" input="SourceAlpha"/>
      <feGaussianBlur stdDeviation="3" result="blur-6"/>
      <feFlood flood-opacity="0.161"/>
      <feComposite operator="in" in2="blur-6"/>
      <feComposite in="SourceGraphic"/>
    </filter>
  </defs>
  <g id="Grupo_1111435" data-name="Grupo 1111435" transform="translate(19.764)">
    <path id="Trazado_1032172" data-name="Trazado 1032172" d="M14.941,0H218.556A14.941,14.941,0,0,1,233.5,14.941V208.049a14.941,14.941,0,0,1-14.941,14.941H14.941A14.941,14.941,0,0,1,0,208.049V14.941A14.941,14.941,0,0,1,14.941,0Z" transform="translate(0.908 16.137)" fill="#fed6a8"/>
    <g id="Grupo_1111430" data-name="Grupo 1111430" transform="translate(-10.764)">
      <g id="Grupo_59377" data-name="Grupo 59377">
        <g id="freepik--background-complete--inject-46">
          <g transform="matrix(1, 0, 0, 1, -9, 0)" filter="url(#Trazado_103149)">
            <path id="Trazado_103149-2" data-name="Trazado 103149" d="M2303.323,5700.157a5.1,5.1,0,0,1-1.185-5.848,4.753,4.753,0,0,1,2.479-1.948,9.762,9.762,0,0,0,2.741-1.574c1.487-1.394,1.894-3.719,2.88-5.584,1.13-2.14,3.242-3.741,5.452-3.631,2.553.131,4.684,2.441,5.651,5.074a25.156,25.156,0,0,1,1.021,8.4c0,1.574-.054,3.346-1.1,4.388-.962.982-2.409.993-3.713.95l-13.963-.478" transform="translate(-2182.34 -5455.77)" fill="#fff"/>
          </g>
          <path id="Trazado_103150" data-name="Trazado 103150" d="M2321.553,5637.995h-36.721l6.617,43.649a4.726,4.726,0,0,0,3.133,3.884l.129.038a3.133,3.133,0,0,0,.327.093,4.072,4.072,0,0,0,.743.1v.038l.179-.033h16.357a3.994,3.994,0,0,0,.9-.1,4.69,4.69,0,0,0,3.713-4.262l3.192-30.073.144-1.2h0l1.264-11.915Zm-6.94,27.845h-3.767l.381-12.672h4.367Zm1.344-12.672h3.608l-1.334,12.7h-3.241Zm-10.762,26.71-.233-11h5.428l-.332,11Zm-5.869-11h5.274l.228,11H2300.1Zm.406,11h-4.422c-.416-2.967-.991-6.829-1.556-11h5.2Zm-.609-14.01-.888-12.672h6.048l.263,12.672Zm5.789,0-.267-12.672h6.226l-.377,12.672Zm-.327-15.706-.248-11.733h6.989l-.352,11.733Zm-.367,0h-6.2l-.828-11.733h6.781Zm-6.563,0H2291.1c-.233-1.646-.456-3.154-.654-4.536-.684-4.739-.942-6.528-1.081-7.2h7.47Zm.213,3.034.887,12.672h-5.423c-.183-1.289-.367-2.59-.55-3.89-.427-2.989-.853-5.979-1.254-8.777Zm-4.883,12.672h-3.544l-1.919-12.672h3.658C2291.722,5657.09,2292.342,5661.44,2292.986,5665.867Zm.431,3.034c.541,3.807,1.071,7.564,1.556,11h-3.425l-1.666-11Zm17.037,11,.332-11h3.624l-.848,11Zm.892-29.744.352-11.733h5.066l-.907,11.733Zm-22.306-11.733c.144.85.813,5.486,1.71,11.733h-3.713l-1.78-11.733Zm27.729,41.478H2313.9l.853-11h3.153Zm3.153-29.744h-3.693l.9-11.733h4.035Z" transform="translate(-2182.861 -5436.099)" fill="#fd9826"/>
          <rect id="Rectángulo_5512" data-name="Rectángulo 5512" width="19.133" height="41.976" transform="translate(151.5 38.789)" fill="#7ec7ff"/>
          <rect id="Rectángulo_5513" data-name="Rectángulo 5513" width="20.675" height="41.976" transform="translate(171.372 38.789)" fill="#7ec7ff"/>
          <rect id="Rectángulo_5514" data-name="Rectángulo 5514" width="20.675" height="40.561" transform="translate(171.372 83.701)" fill="#7ec7ff"/>
          <path id="Trazado_103151" data-name="Trazado 103151" d="M2471.9,5308.02h21.771v-37.237h.739v37.237h17.716v-38.065H2471.9Z" transform="translate(-2277.204 -5269.954)" fill="#7ec7ff"/>
          <rect id="Rectángulo_5515" data-name="Rectángulo 5515" width="17.721" height="41.976" transform="translate(217.208 38.789)" fill="#7ec7ff"/>
          <rect id="Rectángulo_5516" data-name="Rectángulo 5516" width="17.721" height="40.561" transform="translate(217.208 83.701)" fill="#7ec7ff"/>
          <rect id="Rectángulo_5517" data-name="Rectángulo 5517" width="19.133" height="40.561" transform="translate(151.5 83.701)" fill="#aed3f2"/>
          <rect id="Rectángulo_5518" data-name="Rectángulo 5518" width="21.775" height="40.561" transform="translate(194.699 83.701)" fill="#7ec7ff"/>
          <rect id="Rectángulo_5519" data-name="Rectángulo 5519" width="19.133" height="36.551" transform="translate(151.5 124.986)" fill="#7ec7ff"/>
          <rect id="Rectángulo_5520" data-name="Rectángulo 5520" width="17.721" height="36.551" transform="translate(217.208 124.986)" fill="#7ec7ff"/>
          <path id="Trazado_103152" data-name="Trazado 103152" d="M2403.885,5308.02v-37.237h.739v37.237H2425.3v-38.065h-40.547v38.065Z" transform="translate(-2233.253 -5269.954)" fill="#7ec7ff"/>
          <rect id="Rectángulo_5521" data-name="Rectángulo 5521" width="21.775" height="36.551" transform="translate(194.699 124.986)" fill="#7ec7ff"/>
          <rect id="Rectángulo_5522" data-name="Rectángulo 5522" width="20.675" height="36.551" transform="translate(171.372 124.986)" fill="#7ec7ff"/>
          <rect id="Rectángulo_5523" data-name="Rectángulo 5523" width="21.775" height="41.976" transform="translate(194.699 38.789)" fill="#7ec7ff"/>
          <path id="Trazado_103153" data-name="Trazado 103153" d="M2107.531,5433.29a1.934,1.934,0,0,1-2.385-1.5l-4.377-18.1a1.8,1.8,0,0,1,1.2-2.139l1.537-.455a1.778,1.778,0,0,0,1.225-1.4l.148-.839a1.782,1.782,0,0,1,1.224-1.4l7.292-2.155a1.574,1.574,0,0,1,1.581.411l.5.521a1.578,1.578,0,0,0,1.581.407l9.289-2.744a1.592,1.592,0,0,1,1.983,1.191l4.461,18.476a2.182,2.182,0,0,1-1.373,2.633Z" transform="translate(-2090.016 -5330.39)" fill="#e0e0e0"/>
          <g transform="matrix(1, 0, 0, 1, -9, 0)" filter="url(#Trazado_103154)">
            <path id="Trazado_103154-2" data-name="Trazado 103154" d="M2115.544,5406.854l-5.914,1.745-.8-.937a1.97,1.97,0,0,0-2.077-.609l-5.775,1.717a2.085,2.085,0,0,0-1.393,2.479l.178.746,4.759,19.617a2.094,2.094,0,0,0,2.647,1.563h0l23.47-6.978a2.361,2.361,0,0,0,1.584-2.811l0-.009-4.5-18.519a1.391,1.391,0,0,0-1.709-1.1l-.006,0Z" transform="translate(-2090.53 -5334.1)" fill="#fff"/>
          </g>
          <path id="Trazado_103155" data-name="Trazado 103155" d="M2272.5,5381.805a2.631,2.631,0,0,1-1.735-3.143l4.8-21.981a1.934,1.934,0,0,1,2.394-1.5l1.869.5a1.905,1.905,0,0,0,2.032-.707l.6-.79a1.906,1.906,0,0,1,2.027-.7l8.868,2.37a2.116,2.116,0,0,1,1.487,1.443l.268.882a2.127,2.127,0,0,0,1.487,1.443l11.3,3.023a2.161,2.161,0,0,1,1.512,2.545l-4.907,22.492a2.348,2.348,0,0,1-2.834,1.92h0Z" transform="translate(-2175.734 -5307.627)" fill="#e0e0e0"/>
          <g transform="matrix(1, 0, 0, 1, -9, 0)" filter="url(#Trazado_103156)">
            <path id="Trazado_103156-2" data-name="Trazado 103156" d="M2295.483,5358.07l-7.188-1.942-.352-1.5a2.685,2.685,0,0,0-1.894-1.991l-7.029-1.9a2.244,2.244,0,0,0-2.776,1.745l-.2.9-5.21,23.874a2.852,2.852,0,0,0,1.982,3.358l28.552,7.63a2.548,2.548,0,0,0,3.152-1.98l4.922-22.552a1.888,1.888,0,0,0-1.244-2.258h0Z" transform="translate(-2166.78 -5306.38)" fill="#fff"/>
          </g>
          <path id="Trazado_103157" data-name="Trazado 103157" d="M2157.158,5322.49a2.719,2.719,0,0,1-2.915-2.584l-2.479-25.233a2.357,2.357,0,0,1,2.01-2.6h0l2.141-.264a2.3,2.3,0,0,0,1.9-1.6l.357-1.1a2.32,2.32,0,0,1,1.9-1.6l10.182-1.239a2.177,2.177,0,0,1,2.042.9l.59.818a2.193,2.193,0,0,0,2.042.911l12.977-1.58a2.233,2.233,0,0,1,2.478,2.046v0l2.563,25.811a2.864,2.864,0,0,1-2.327,3.225h-.007Z" transform="translate(-2115.75 -5277.315)" fill="#e0e0e0"/>
          <g transform="matrix(1, 0, 0, 1, -9, 0)" filter="url(#Trazado_103158)">
            <path id="Trazado_103158-2" data-name="Trazado 103158" d="M2173.266,5289.911l-8.233.981-.887-1.432a2.758,2.758,0,0,0-2.687-1.311l-8.09.981a2.736,2.736,0,0,0-2.334,3.013l.1,1.041,2.721,27.429a2.94,2.94,0,0,0,3.242,2.677l32.775-3.987a3.1,3.1,0,0,0,2.652-3.421v0l-2.573-25.887a1.955,1.955,0,0,0-2.094-1.859h0Z" transform="translate(-2106.38 -5278.16)" fill="#fff"/>
          </g>
          <path id="Trazado_103159" data-name="Trazado 103159" d="M2192.772,5315.332a3.67,3.67,0,0,0,1.571-3.489,3.024,3.024,0,1,0-6.018-.028,3.758,3.758,0,0,0,.069.725,3.483,3.483,0,0,0,2.226,3.056c-4.511,1.322-3.757,6.819-3.757,6.819l10.86-1.262S2197.4,5315.54,2192.772,5315.332Z" transform="translate(-2133.43 -5287.355)" fill="#e0e0e0"/>
          <path id="Trazado_103160" data-name="Trazado 103160" d="M2115.122,5343.655a6.385,6.385,0,0,1,1.581-.477l.483-1.454,2.524.251.186,1.52a6.091,6.091,0,0,1,1.455.785l1.372-.686,1.6,1.958-.938,1.207a6.3,6.3,0,0,1,.478,1.58l1.449.489-.252,2.519-1.52.191a6.17,6.17,0,0,1-.78,1.454l.687,1.393-1.959,1.608-1.207-.944a6.271,6.271,0,0,1-1.586.478l-.483,1.455-2.541-.281-.192-1.52a6.332,6.332,0,0,1-1.454-.8l-1.372.681-1.6-1.958.944-1.208a6.109,6.109,0,0,1-.478-1.579l-1.454-.489.253-2.517,1.52-.187a6.162,6.162,0,0,1,.779-1.459l-.68-1.366,1.959-1.607Zm.944,3.506a2.743,2.743,0,1,0,3.86.406l-.018-.022A2.746,2.746,0,0,0,2116.066,5347.161Z" transform="translate(-2098.538 -5301.414)" fill="#6595bf"/>
          <path id="Trazado_103161" data-name="Trazado 103161" d="M2126,5517.854a1.541,1.541,0,0,0,.595-.109,1.25,1.25,0,0,0,.555-.5,1.327,1.327,0,0,0,.173-.466c.03-.18.045-.384.069-.592.193-1.7.466-4.131.808-7.132l.273-2.359c.045-.412.094-.828.144-1.256l.074-.641a3.5,3.5,0,0,0,.045-.631,1.26,1.26,0,0,0-.6-.982,1.4,1.4,0,0,0-.571-.159l-.634-.094-2.622-.372-11.683-1.685a1.1,1.1,0,0,0-1.14.691,1.538,1.538,0,0,0-.1.368l-.05.422c-.035.28-.064.548-.1.839q-.2,1.678-.392,3.291c-.263,2.162-.5,4.246-.749,6.238-.059.493-.119.981-.173,1.464a1.272,1.272,0,0,0,.5,1.1,1.061,1.061,0,0,0,.55.214l.62.093,1.219.181,4.461.664,6.444.982,1.745.279.451.083a.433.433,0,0,1,.153.039h-.153l-.457-.05-1.755-.23-6.444-.889-4.461-.63-1.219-.176-.62-.087a1.46,1.46,0,0,1-1.234-1.607c.055-.489.109-.982.169-1.482.233-1.985.5-4.07.734-6.231q.193-1.646.392-3.292c.03-.279.064-.547.1-.839l.05-.422a1.808,1.808,0,0,1,.119-.45,1.347,1.347,0,0,1,1.413-.851l11.678,1.707,2.622.389.635.093a1.645,1.645,0,0,1,.639.187,1.5,1.5,0,0,1,.719,1.173,3.259,3.259,0,0,1-.05.686,4.763,4.763,0,0,1-.079.648c-.05.427-.1.844-.154,1.255-.1.818-.194,1.6-.288,2.354-.372,2.99-.674,5.415-.887,7.132-.03.208-.045.4-.079.592a1.487,1.487,0,0,1-.2.494,1.277,1.277,0,0,1-.6.511.984.984,0,0,1-.456.077A.789.789,0,0,1,2126,5517.854Z" transform="translate(-2094.547 -5374.063)" fill="#e0e0e0"/>
          <path id="Trazado_103162" data-name="Trazado 103162" d="M2127.578,5521.073a1.237,1.237,0,0,1-.149-.208l-.381-.631c-.342-.593-.8-1.383-1.363-2.337l-.931-1.646-.253-.438a.353.353,0,0,0-.327-.176c-.134,0-.223.1-.361.23l-.4.378-.818.773a1.93,1.93,0,0,1-.243.2.534.534,0,0,1-.342.07.525.525,0,0,1-.322-.154.62.62,0,0,1-.119-.143l-.08-.131c-.421-.708-.853-1.442-1.3-2.195l-.659-1.1-.322-.549a.345.345,0,0,0-.367-.186.321.321,0,0,0-.184.1l-.2.218-.4.434-.768.839-2.657,2.9-1.814,1.953-.5.515a.97.97,0,0,1-.188.165,1.151,1.151,0,0,1,.149-.208l.5-.549,1.75-2c.754-.844,1.641-1.837,2.617-2.939l.763-.846.392-.438.2-.219a.565.565,0,0,1,.312-.181.589.589,0,0,1,.625.307l.322.548.659,1.1,1.3,2.2a.4.4,0,0,0,.511.292.414.414,0,0,0,.222-.193l.823-.768.4-.367a2.147,2.147,0,0,1,.208-.187.532.532,0,0,1,.292-.1.566.566,0,0,1,.5.291c.089.153.173.3.253.449l.907,1.646,1.294,2.386.342.658C2127.543,5520.984,2127.578,5521.068,2127.578,5521.073Z" transform="translate(-2095.771 -5379.481)" fill="#e0e0e0"/>
          <path id="Trazado_103163" data-name="Trazado 103163" d="M2133.169,5509.91a2.219,2.219,0,0,0-.05-.395,1.7,1.7,0,0,0-.441-.9,1.3,1.3,0,0,0-1.259-.372,1.508,1.508,0,0,0-1.015,1.795,1.485,1.485,0,0,0,.683.985,1.265,1.265,0,0,0,1.309,0,1.549,1.549,0,0,0,.634-.741c.094-.229.114-.372.139-.367a.815.815,0,0,1-.05.406,1.573,1.573,0,0,1-.634.878,1.424,1.424,0,0,1-1.487.065,1.836,1.836,0,0,1-.729-2.339,1.611,1.611,0,0,1,1.12-.952,1.455,1.455,0,0,1,1.438.488,1.7,1.7,0,0,1,.392,1.048A.809.809,0,0,1,2133.169,5509.91Z" transform="translate(-2104.832 -5377.387)" fill="#e0e0e0"/>
          <path id="Trazado_103164" data-name="Trazado 103164" d="M2284.357,5316.2a1.49,1.49,0,0,0,.585.175,1.138,1.138,0,0,0,.689-.208,1.156,1.156,0,0,0,.332-.345c.094-.149.183-.33.282-.5l3.375-6.133,1.12-2.03c.2-.351.4-.713.6-1.1l.307-.549a3.052,3.052,0,0,0,.272-.548,1.356,1.356,0,0,0-.188-1.174,1.6,1.6,0,0,0-.461-.4l-.545-.368-2.25-1.536-10.043-6.834a1.043,1.043,0,0,0-1.511.411h0l-.2.362-.411.736c-.535.954-1.066,1.9-1.581,2.825-1.041,1.854-2.042,3.642-2.974,5.348l-.7,1.256a1.324,1.324,0,0,0,.441,1.695l.536.368,1.041.713,3.782,2.606,5.5,3.84,1.487,1.047.382.274.124.1-.139-.077-.4-.253-1.512-1-5.542-3.768-3.8-2.59-1.051-.708-.535-.367a1.477,1.477,0,0,1-.5-.549,1.614,1.614,0,0,1-.035-1.5c.228-.422.461-.845.7-1.273l2.974-5.354,1.581-2.836.4-.719.2-.362a1.707,1.707,0,0,1,.278-.357,1.274,1.274,0,0,1,1.606-.137l10.018,6.857,2.245,1.547.545.373a1.687,1.687,0,0,1,.5.461,1.6,1.6,0,0,1,.218,1.393,2.821,2.821,0,0,1-.3.6l-.312.549c-.2.367-.406.725-.6,1.1-.392.7-.773,1.377-1.135,2.019l-3.41,6.078c-.109.181-.193.351-.3.51a1.2,1.2,0,0,1-.367.356,1.139,1.139,0,0,1-.733.192,1.034,1.034,0,0,1-.446-.137A.616.616,0,0,1,2284.357,5316.2Z" transform="translate(-2175.72 -5280.88)" fill="#6595bf"/>
          <path id="Trazado_103165" data-name="Trazado 103165" d="M2291.291,5311.135l.917,2.029a.584.584,0,0,1-.165.755.457.457,0,0,1-.331.074l-2.087-.07-2.027-.067a.558.558,0,0,1-.484-.613.621.621,0,0,1,.083-.275l1.145-1.936,1.155-1.953a.471.471,0,0,1,.672-.221.529.529,0,0,1,.225.281Z" transform="translate(-2184.011 -5287.486)" fill="#6595bf"/>
        </g>
        <g id="freepik--Floor--inject-46" transform="translate(19.414 249.697)">
          <path id="Trazado_103166" data-name="Trazado 103166" d="M2332.419,5725.314c0,.074-47.933.128-107.068.128s-107.068-.054-107.068-.128,47.923-.129,107.068-.129S2332.419,5725.245,2332.419,5725.314Z" transform="translate(-2118.282 -5725.185)" fill="#263238"/>
        </g>
        <g id="freepik--filing-cabinet--inject-46" transform="translate(30.369 73.773)">
          <rect id="Rectángulo_5525" data-name="Rectángulo 5525" width="75.334" height="176.053" transform="translate(0)" fill="#455a64"/>
          <g id="Grupo_59358" data-name="Grupo 59358" transform="translate(0)" opacity="0.3">
            <rect id="Rectángulo_5526" data-name="Rectángulo 5526" width="20.596" height="176.053" fill="#344154"/>
          </g>
          <path id="Trazado_103184" data-name="Trazado 103184" d="M2236.849,5429.14V5419.6c0-6.077-.034-14.791-.054-25.384l.1.1-49.142.025h0l.129-.129v34.926l-.114-.119,35.427.06,10.1.029h.05l-10.072.035-35.506.06h-.119v-35.12h.134l49.142.024h.1v.1c-.025,10.618-.044,19.332-.054,25.454,0,3.029,0,5.4-.03,7.018v1.835A1.5,1.5,0,0,1,2236.849,5429.14Z" transform="translate(-2164.221 -5382.282)" fill="#263238"/>
          <g id="Grupo_59359" data-name="Grupo 59359" transform="translate(38.51 33.419)" opacity="0.3">
            <rect id="Rectángulo_5527" data-name="Rectángulo 5527" width="20.006" height="3.386" fill="#344154"/>
          </g>
          <g id="Grupo_59360" data-name="Grupo 59360" transform="translate(22.906 49.504)" opacity="0.4">
            <rect id="Rectángulo_5528" data-name="Rectángulo 5528" width="42.842" height="33.285" fill="#344154"/>
          </g>
          <path id="Trazado_103185" data-name="Trazado 103185" d="M2215.107,5470.965h-8.164l-.5-.818a1.788,1.788,0,0,0-1.542-.882h-5.993a1.789,1.789,0,0,0-1.789,1.7h-2.136a1.676,1.676,0,0,0-1.676,1.676h0v4.153h23.446v-4.153A1.676,1.676,0,0,0,2215.107,5470.965Z" transform="translate(-2167.076 -5420.197)" fill="#e0e0e0"/>
          <path id="Trazado_103186" data-name="Trazado 103186" d="M2223.758,5470.965h-8.139l-.5-.818a1.784,1.784,0,0,0-1.541-.882h-5.993a1.785,1.785,0,0,0-1.785,1.7h-2.141a1.676,1.676,0,0,0-1.67,1.676v4.153h23.441v-4.153a1.676,1.676,0,0,0-1.676-1.676Z" transform="translate(-2171.453 -5420.197)" fill="#ebebeb"/>
          <path id="Trazado_103187" data-name="Trazado 103187" d="M2235.033,5470.965h-8.145l-.5-.818a1.8,1.8,0,0,0-1.546-.882h-5.988a1.785,1.785,0,0,0-1.784,1.7h-2.136a1.676,1.676,0,0,0-1.675,1.676h0v4.153H2236.7v-4.153A1.676,1.676,0,0,0,2235.033,5470.965Z" transform="translate(-2177.137 -5420.197)" fill="#aed3f2"/>
          <path id="Trazado_103188" data-name="Trazado 103188" d="M2219.073,5491.7v-19.961a1.724,1.724,0,0,1,1.8-1.646h1.72a1.815,1.815,0,0,0,1.631-.962l.372-.733a1.818,1.818,0,0,1,1.631-.957h8.164a1.833,1.833,0,0,1,1.552.813l.4.62a1.84,1.84,0,0,0,1.547.813h10.41a1.725,1.725,0,0,1,1.8,1.646V5491.7Z" transform="translate(-2180.067 -5419.279)" fill="#ef9548"/>
          <g id="Grupo_59361" data-name="Grupo 59361" transform="translate(39.005 48.165)" opacity="0.3">
            <path id="Trazado_103189" data-name="Trazado 103189" d="M2219.073,5491.7v-19.961a1.724,1.724,0,0,1,1.8-1.646h1.72a1.815,1.815,0,0,0,1.631-.962l.372-.733a1.818,1.818,0,0,1,1.631-.957h8.164a1.833,1.833,0,0,1,1.552.813l.4.62a1.84,1.84,0,0,0,1.547.813h10.41a1.725,1.725,0,0,1,1.8,1.646V5491.7Z" transform="translate(-2219.073 -5467.445)" fill="#344154"/>
          </g>
          <path id="Trazado_103190" data-name="Trazado 103190" d="M2232.222,5465.162V5449.41a2.35,2.35,0,0,1,2.344-2.355h25.116a2.354,2.354,0,0,1,2.355,2.355h0v15.316Z" transform="translate(-2186.698 -5408.997)" fill="#fff"/>
          <path id="Trazado_103191" data-name="Trazado 103191" d="M2234.2,5468.184v-19.956a1.731,1.731,0,0,1,1.8-1.651h1.71a1.82,1.82,0,0,0,1.636-.956l.367-.733a1.824,1.824,0,0,1,1.636-.962h8.164a1.838,1.838,0,0,1,1.547.813l.4.619a1.829,1.829,0,0,0,1.552.813h10.409a1.726,1.726,0,0,1,1.8,1.646v20.368Z" transform="translate(-2187.698 -5407.418)" fill="#ef9548"/>
          <path id="Trazado_103192" data-name="Trazado 103192" d="M2234.2,5468.078h2.295l6.379-.03,22.351-.06-.119.119v-19.887a5.535,5.535,0,0,0,0-.714,1.514,1.514,0,0,0-.779-1.065,1.792,1.792,0,0,0-.6-.2,4.861,4.861,0,0,0-.664,0h-9.988a2,2,0,0,1-.674-.1,1.9,1.9,0,0,1-1.051-.824l-.342-.535a1.631,1.631,0,0,0-.4-.431,1.774,1.774,0,0,0-1.1-.352h-8.372a1.741,1.741,0,0,0-.956.436c-.526.451-.58,1.363-1.264,1.814a1.974,1.974,0,0,1-1.071.372h-1.075a8.861,8.861,0,0,0-1.031,0,1.711,1.711,0,0,0-.877.391,1.514,1.514,0,0,0-.5.788,5.14,5.14,0,0,0-.045.966v3.758c0,4.793-.035,8.674-.05,11.371v.06c0-2.7-.03-6.592-.05-11.4v-3.782a5.174,5.174,0,0,1,.045-1.021,1.714,1.714,0,0,1,.461-.912,1.986,1.986,0,0,1,.991-.441,9.7,9.7,0,0,1,1.066-.029h1.066a1.758,1.758,0,0,0,.951-.333c.6-.381.63-1.229,1.24-1.8a1.99,1.99,0,0,1,1.08-.5c.406-.035.773,0,1.165,0h7.237a1.984,1.984,0,0,1,1.244.4,1.8,1.8,0,0,1,.456.5l.347.536a1.662,1.662,0,0,0,.917.719,1.7,1.7,0,0,0,.595.089h9.983a4.237,4.237,0,0,1,.7.025,2.024,2.024,0,0,1,.689.232,1.78,1.78,0,0,1,.9,1.249,5.551,5.551,0,0,1,.025.754V5468.2h-.119l-22.425-.059-6.355-.03h-2.106Z" transform="translate(-2187.697 -5407.311)" fill="#263238"/>
          <path id="Trazado_103193" data-name="Trazado 103193" d="M2256.115,5447.417a42.372,42.372,0,0,1-6.593,0,42.212,42.212,0,0,1,6.593,0Z" transform="translate(-2195.423 -5409.106)" fill="#fff"/>
          <path id="Trazado_103194" data-name="Trazado 103194" d="M2253.682,5485.127v-19.971a1.875,1.875,0,0,1,2.037-1.646h1.943a2.111,2.111,0,0,0,1.844-.957l.421-.723a2.109,2.109,0,0,1,1.844-.956H2271a2.153,2.153,0,0,1,1.755.813l.451.62a2.17,2.17,0,0,0,1.75.813h11.743a1.869,1.869,0,0,1,2.032,1.646v20.363Z" transform="translate(-2197.521 -5415.965)" fill="#ef9548"/>
          <path id="Trazado_103195" data-name="Trazado 103195" d="M2253.623,5485h2.607l7.237-.034,25.216-.055-.119.119v-20.546a1.488,1.488,0,0,0-.739-1.062,2.326,2.326,0,0,0-1.343-.317h-11.4a2.561,2.561,0,0,1-1.383-.312,1.907,1.907,0,0,1-.56-.456c-.154-.193-.272-.367-.411-.555a1.885,1.885,0,0,0-.991-.783,3.377,3.377,0,0,0-1.274-.139h-8.888a2.2,2.2,0,0,0-1.075.342,1.7,1.7,0,0,0-.417.377,4.532,4.532,0,0,0-.3.5c-.1.172-.188.336-.3.5a1.777,1.777,0,0,1-.421.446,2.311,2.311,0,0,1-1.1.446c-.788.05-1.487,0-2.25,0a2.053,2.053,0,0,0-1.78.843,1.489,1.489,0,0,0-.213.947v3c0,5.15-.04,9.314-.05,12.208,0,1.438,0,2.563-.025,3.331v.04c0-.768,0-1.884-.025-3.316,0-2.9-.03-7.079-.05-12.238v-3.014a1.73,1.73,0,0,1,.238-1.055,2.266,2.266,0,0,1,1.948-.942c.724,0,1.487,0,2.221-.03a2.092,2.092,0,0,0,.991-.406,2.472,2.472,0,0,0,.659-.9,5.373,5.373,0,0,1,.317-.5,1.793,1.793,0,0,1,.466-.421,2.406,2.406,0,0,1,1.184-.387h8.9a3.457,3.457,0,0,1,1.358.154,2.123,2.123,0,0,1,1.091.867c.134.178.268.372.4.54a1.834,1.834,0,0,0,.5.4,2.349,2.349,0,0,0,1.264.277h11.4a2.583,2.583,0,0,1,1.487.353,1.725,1.725,0,0,1,.853,1.258v20.651h-.119l-25.28-.06-7.267-.07h-2.558Z" transform="translate(-2197.462 -5415.837)" fill="#263238"/>
          <path id="Trazado_103196" data-name="Trazado 103196" d="M2278.946,5464.876a73.253,73.253,0,0,1-8.7,0,73.53,73.53,0,0,1,8.7,0Z" transform="translate(-2205.873 -5417.91)" fill="#fff"/>
          <rect id="Rectángulo_5529" data-name="Rectángulo 5529" width="31.179" height="26.876" transform="translate(22.906 56.156)" fill="#455a64"/>
          <g id="Grupo_59362" data-name="Grupo 59362" transform="translate(22.906 56.156)" opacity="0.3">
            <rect id="Rectángulo_5530" data-name="Rectángulo 5530" width="31.179" height="26.876" fill="#344154"/>
          </g>
          <rect id="Rectángulo_5531" data-name="Rectángulo 5531" width="49.147" height="34.926" transform="translate(54.084 49.068)" fill="#455a64"/>
          <path id="Trazado_103197" data-name="Trazado 103197" d="M2298.533,5504v-2.494c0-1.625,0-4-.024-7.043,0-6.077-.035-14.8-.055-25.384l.1.1-49.142.024h0l.128-.128V5504l-.119-.114,35.427.055,10.1.035H2295l-10.072.029-35.506.06h-.144v-35.17h49.38V5469c-.025,10.618-.045,19.332-.055,25.449,0,3.029,0,5.4-.03,7.019v1.834A4.717,4.717,0,0,1,2298.533,5504Z" transform="translate(-2195.302 -5420.01)" fill="#263238"/>
          <g id="Grupo_59363" data-name="Grupo 59363" transform="translate(69.912 72.073)" opacity="0.3">
            <rect id="Rectángulo_5532" data-name="Rectángulo 5532" width="22.802" height="3.386" transform="translate(0)" fill="#344154"/>
          </g>
          <path id="Trazado_103198" data-name="Trazado 103198" d="M2236.849,5582.475v-9.542c0-6.077-.034-14.8-.054-25.384l.1.1-49.142.025h0l.129-.129v34.927l-.114-.119,35.427.059,10.1.03h.05l-10.072.03-35.506.059h-.119v-35.169h.134l49.142.024h.1v.1c-.025,10.617-.044,19.356-.054,25.449,0,3.033,0,5.4-.03,7.023v1.834A2.017,2.017,0,0,1,2236.849,5582.475Z" transform="translate(-2164.221 -5459.583)" fill="#263238"/>
          <g id="Grupo_59364" data-name="Grupo 59364" transform="translate(38.51 109.433)" opacity="0.3">
            <rect id="Rectángulo_5533" data-name="Rectángulo 5533" width="20.789" height="3.386" transform="translate(0)" fill="#344154"/>
          </g>
          <path id="Trazado_103199" data-name="Trazado 103199" d="M2236.834,5659.149v-9.542c0-6.077-.035-14.792-.054-25.384l.1.1-49.143.024h0l.129-.129v34.926l-.114-.119,35.427.059,10.1.03h.034l-10.072.03-35.506.059h-.119v-35.173H2237v.1c-.025,10.618-.044,19.357-.054,25.454,0,3.028,0,5.4-.03,7.019v1.834A2.693,2.693,0,0,1,2236.834,5659.149Z" transform="translate(-2164.207 -5498.25)" fill="#263238"/>
          <g id="Grupo_59365" data-name="Grupo 59365" transform="translate(38.51 147.442)" opacity="0.3">
            <rect id="Rectángulo_5534" data-name="Rectángulo 5534" width="20.789" height="3.386" transform="translate(0)" fill="#344154"/>
          </g>
          <g id="Grupo_59370" data-name="Grupo 59370" transform="translate(32.958 2.837)">
            <rect id="Rectángulo_5535" data-name="Rectángulo 5535" width="32.611" height="9.795" rx="2.49" transform="translate(0.421 15.518)" fill="#fff"/>
            <rect id="Rectángulo_5536" data-name="Rectángulo 5536" width="32.611" height="9.795" rx="2.49" transform="translate(29.935 56.135)" fill="#fff"/>
            <rect id="Rectángulo_5537" data-name="Rectángulo 5537" width="32.611" height="9.795" rx="2.49" transform="translate(0 93.435)" fill="#fff"/>
            <rect id="Rectángulo_5538" data-name="Rectángulo 5538" width="32.611" height="9.795" rx="2.49" transform="translate(0 131.321)" fill="#fff"/>
            <text id="Articulo" transform="translate(13.567 20.937)" fill="#12263f" font-size="5" font-family="Roboto-Bold, Roboto" font-weight="700"><tspan x="-8.942" y="0">Articulo</tspan></text>
            <text id="Articulo-2" data-name="Articulo" transform="translate(43.45 61.777)" fill="#12263f" font-size="5" font-family="Roboto-Bold, Roboto" font-weight="700"><tspan x="-8.942" y="0">Articulo</tspan></text>
            <text id="Articulo-3" data-name="Articulo" transform="translate(13.567 99.629)" fill="#12263f" font-size="5" font-family="Roboto-Bold, Roboto" font-weight="700"><tspan x="-8.942" y="0">Articulo</tspan></text>
            <text id="Articulo-4" data-name="Articulo" transform="translate(13.567 136.484)" fill="#12263f" font-size="5" font-family="Roboto-Bold, Roboto" font-weight="700"><tspan x="-8.942" y="0">Articulo</tspan></text>
            <text id="Leyes" transform="translate(13.552 4)" fill="#fff" font-size="4" font-family="Roboto-Bold, Roboto" font-weight="700"><tspan x="-5.277" y="0">Leyes</tspan></text>
          </g>
        </g>
        <g id="freepik--speech-bubble--inject-46" transform="translate(171.753 43.083)">
          <path id="Trazado_103216" data-name="Trazado 103216" d="M2429.153,5357.25a1.646,1.646,0,1,1-1.646-1.646,1.646,1.646,0,0,1,1.646,1.646Z" transform="translate(-2425.737 -5332.185)" fill="#fff"/>
          <path id="Trazado_103217" data-name="Trazado 103217" d="M2429.027,5357.162a3.578,3.578,0,0,0-.1-.386,1.656,1.656,0,0,0-.6-.847,1.558,1.558,0,0,0-1.462-.2,1.532,1.532,0,0,0,0,2.87,1.56,1.56,0,0,0,1.462-.2,1.651,1.651,0,0,0,.6-.847c.074-.244.079-.392.1-.392a.764.764,0,0,1,0,.417,1.634,1.634,0,0,1-.6.992,1.72,1.72,0,0,1-1.65.277,1.76,1.76,0,0,1,0-3.316,1.708,1.708,0,0,1,1.65.277,1.64,1.64,0,0,1,.6.992A.6.6,0,0,1,2429.027,5357.162Z" transform="translate(-2425.61 -5332.098)" fill="#263238"/>
          <ellipse id="Elipse_4026" data-name="Elipse 4026" cx="13.617" cy="13.616" rx="13.617" ry="13.616" transform="translate(4.071 0.096)" fill="#fff"/>
          <path id="Trazado_103218" data-name="Trazado 103218" d="M2460.9,5322.073a1.115,1.115,0,0,1-.025-.219l-.049-.649a4.763,4.763,0,0,0-.03-.5,4.337,4.337,0,0,0-.084-.565,10.328,10.328,0,0,0-.288-1.4,13.124,13.124,0,0,0-1.487-3.6,13.524,13.524,0,0,0-16.234-5.765,14.783,14.783,0,0,0-1.76.773c-.283.16-.555.338-.838.5a6.845,6.845,0,0,0-.818.56,15.084,15.084,0,0,0-1.551,1.343,14.92,14.92,0,0,0-1.323,1.562,13.131,13.131,0,0,0-1.928,3.718,13.407,13.407,0,0,0,0,8.515,13,13,0,0,0,1.928,3.718,14.865,14.865,0,0,0,1.323,1.561,15.029,15.029,0,0,0,1.527,1.3,6.861,6.861,0,0,0,.818.561c.283.168.555.352.837.5a14.424,14.424,0,0,0,1.76.773,13.492,13.492,0,0,0,16.214-5.76,13.164,13.164,0,0,0,1.487-3.608,10.269,10.269,0,0,0,.288-1.4c.03-.2.069-.392.084-.565s.025-.333.03-.5l.05-.644a1.108,1.108,0,0,1,.025-.223v1.368a5,5,0,0,1-.074.575,9.419,9.419,0,0,1-.268,1.412,12.8,12.8,0,0,1-1.487,3.653,13.662,13.662,0,0,1-16.437,5.914,14.4,14.4,0,0,1-1.795-.784c-.292-.158-.57-.342-.858-.5a7.256,7.256,0,0,1-.827-.57,15.232,15.232,0,0,1-1.562-1.323,15.023,15.023,0,0,1-1.349-1.591,13.185,13.185,0,0,1-1.982-3.787,13.624,13.624,0,0,1,0-8.674,13.317,13.317,0,0,1,1.982-3.788,16.21,16.21,0,0,1,1.349-1.591,15.23,15.23,0,0,1,1.571-1.313,7.3,7.3,0,0,1,.828-.57c.288-.168.57-.352.858-.5a15.015,15.015,0,0,1,1.794-.783,13.539,13.539,0,0,1,16.437,5.863,12.847,12.847,0,0,1,1.487,3.654,9.428,9.428,0,0,1,.268,1.418c.025.2.06.4.074.57s0,.337,0,.5v.65A.46.46,0,0,0,2460.9,5322.073Z" transform="translate(-2429.595 -5308.36)" fill="#263238"/>
          <path id="Trazado_103219" data-name="Trazado 103219" d="M2455.616,5333.323a4.124,4.124,0,1,1,4.124-4.124,4.124,4.124,0,0,1-4.124,4.124Zm0-7.748a3.628,3.628,0,1,0,3.628,3.629v-.005A3.629,3.629,0,0,0,2455.616,5325.575Z" transform="translate(-2438.663 -5316.789)" fill="#6595bf"/>
          <rect id="Rectángulo_5539" data-name="Rectángulo 5539" width="0.496" height="4.02" transform="translate(18.901 15.791) rotate(-35.98)" fill="#6595bf"/>
          <path id="Trazado_103220" data-name="Trazado 103220" d="M2455.338,5330.325a2.375,2.375,0,0,0,.407,3.333,2.2,2.2,0,0,0,.3.2" transform="translate(-2440.348 -5319.437)" fill="#fff"/>
          <path id="Trazado_103221" data-name="Trazado 103221" d="M2455.914,5333.843a1.3,1.3,0,0,1-.54-.292,2.3,2.3,0,0,1-.57-2.761,1.138,1.138,0,0,1,.386-.5c.025,0-.1.218-.218.556a2.561,2.561,0,0,0-.1,1.353,2.591,2.591,0,0,0,.629,1.205C2455.755,5333.68,2455.948,5333.8,2455.914,5333.843Z" transform="translate(-2440.214 -5319.422)" fill="#263238"/>
        </g>
        <g id="freepik--Character--inject-46" transform="translate(95.036 54.481)">
          <path id="Trazado_103222" data-name="Trazado 103222" d="M2397.289,5378.529c-.739-13.274-6.672-19.446-8.427-29.82-.873-5.21-.649-10.544-4.342-14.316a11.074,11.074,0,0,0-5.7-2.974,7.561,7.561,0,0,0-3.574.352,7.923,7.923,0,0,0-3.768,0,10.161,10.161,0,0,0-4.436,2.7c-2.632,3.212-3.172,7.629-3.217,11.783a69.2,69.2,0,0,0,2.771,19.857,2.783,2.783,0,0,0,.927,1.631,2.726,2.726,0,0,0,1.983.2,39.591,39.591,0,0,0,7.495-1.953,2.506,2.506,0,0,0,.952-.5c.669-.684.387-1.814.079-2.721l6.727-5.755c-.446,4-1.735,7.866-2.3,11.852a33.564,33.564,0,0,0,1.09,14.256,21.681,21.681,0,0,1,7.931-.179c.63.1,1.656,5.09,2.216,4.778C2394.667,5387.179,2397.354,5379.659,2397.289,5378.529Z" transform="translate(-2317.736 -5331.355)" fill="#263238"/>
          <path id="Trazado_103223" data-name="Trazado 103223" d="M2375.712,5337.7l1.908-.213,7.287,2.935a2.037,2.037,0,0,1,1.924,1.982l-.065,23.749a6.649,6.649,0,0,1-1.284,4.287l-1.026,1.353a5.376,5.376,0,0,1-8.982-.57,2.693,2.693,0,0,1-.258-.614,4.133,4.133,0,0,1-.109-.531,16.914,16.914,0,0,1-.228-3.563c-.129-2.1-.174-2.975-.174-2.939s-4.461-.5-5.67-6.246a61.806,61.806,0,0,1-.644-11.43C2368.435,5342.412,2371.419,5337.692,2375.712,5337.7Z" transform="translate(-2320.031 -5334.446)" fill="#ffbe9d"/>
          <path id="Trazado_103224" data-name="Trazado 103224" d="M2371.192,5362.824a.755.755,0,0,0,.754.713.709.709,0,0,0,.729-.688v-.021a.744.744,0,0,0-.748-.714.714.714,0,0,0-.733.694Z" transform="translate(-2321.45 -5346.867)" fill="#263238"/>
          <path id="Trazado_103225" data-name="Trazado 103225" d="M2386.152,5361.888a.739.739,0,0,0,.753.714.709.709,0,0,0,.729-.689v-.015a.739.739,0,0,0-.749-.714.709.709,0,0,0-.733.684Z" transform="translate(-2328.994 -5346.398)" fill="#263238"/>
          <path id="Trazado_103226" data-name="Trazado 103226" d="M2370.627,5358.375c.094.095.635-.352,1.432-.387s1.4.328,1.487.229-.059-.218-.322-.387a2.059,2.059,0,0,0-1.195-.307,1.985,1.985,0,0,0-1.135.432C2370.652,5358.157,2370.578,5358.335,2370.627,5358.375Z" transform="translate(-2321.158 -5344.55)" fill="#263238"/>
          <path id="Trazado_103227" data-name="Trazado 103227" d="M2385.887,5357.5c.1.089.625-.367,1.423-.432s1.407.293,1.487.188-.064-.213-.337-.376a2.016,2.016,0,0,0-2.325.194C2385.907,5357.28,2385.837,5357.458,2385.887,5357.5Z" transform="translate(-2328.853 -5344.085)" fill="#263238"/>
          <path id="Trazado_103228" data-name="Trazado 103228" d="M2379.242,5364.182a5.448,5.448,0,0,0-1.309-.168c-.2,0-.4-.04-.436-.179a.992.992,0,0,1,.1-.609c.169-.5.342-1.026.526-1.581a25.979,25.979,0,0,0,1.145-4.12,27.21,27.21,0,0,0-1.487,4.02l-.5,1.586a1.169,1.169,0,0,0-.069.808.5.5,0,0,0,.352.277,1.254,1.254,0,0,0,.347.029A4.791,4.791,0,0,0,2379.242,5364.182Z" transform="translate(-2324.469 -5344.552)" fill="#263238"/>
          <path id="Trazado_103229" data-name="Trazado 103229" d="M2381.182,5387.554a14.743,14.743,0,0,0,7.633-2.45s-1.745,4.1-7.554,3.842Z" transform="translate(-2326.488 -5358.461)" fill="#eb996e"/>
          <path id="Trazado_103230" data-name="Trazado 103230" d="M2382.15,5374.191a1.439,1.439,0,0,1,1.265-.6,1.3,1.3,0,0,1,.927.441.823.823,0,0,1,.114.947.991.991,0,0,1-1.031.317,2.979,2.979,0,0,1-1.051-.56.8.8,0,0,1-.238-.223.263.263,0,0,1,0-.3" transform="translate(-2326.945 -5352.654)" fill="#eb996e"/>
          <path id="Trazado_103231" data-name="Trazado 103231" d="M2383.656,5371.805c-.129,0-.089.862-.8,1.517s-1.636.6-1.636.724.213.158.6.148a2.165,2.165,0,0,0,1.368-.556,1.873,1.873,0,0,0,.609-1.269C2383.82,5372.023,2383.73,5371.805,2383.656,5371.805Z" transform="translate(-2326.508 -5351.755)" fill="#263238"/>
          <path id="Trazado_103232" data-name="Trazado 103232" d="M2385.888,5351.581c.119.192.784-.075,1.616-.164s1.552,0,1.611-.219c.025-.1-.134-.271-.451-.41a2.472,2.472,0,0,0-1.274-.174,2.414,2.414,0,0,0-1.185.461C2385.942,5351.283,2385.833,5351.486,2385.888,5351.581Z" transform="translate(-2328.854 -5341.058)" fill="#263238"/>
          <path id="Trazado_103233" data-name="Trazado 103233" d="M2370.26,5352.232c.148.178.689-.04,1.348-.08s1.225.059,1.348-.138c.05-.094-.049-.268-.3-.432a1.844,1.844,0,0,0-1.11-.237,1.87,1.87,0,0,0-1.061.416C2370.26,5351.96,2370.2,5352.148,2370.26,5352.232Z" transform="translate(-2320.969 -5341.432)" fill="#263238"/>
          <path id="Trazado_103234" data-name="Trazado 103234" d="M2403.283,5365.347c0-.426.426-1.488.847-1.557,1.125-.233,3.177-.243,3.341,2.637.223,3.936-3.777,3.346-3.792,3.236S2403.372,5366.833,2403.283,5365.347Z" transform="translate(-2337.634 -5347.666)" fill="#ffbe9d"/>
          <path id="Trazado_103235" data-name="Trazado 103235" d="M2406.378,5369.366a1.082,1.082,0,0,0,.188.089.659.659,0,0,0,.5,0,1.71,1.71,0,0,0,.7-1.571,2.222,2.222,0,0,0-.248-.991.8.8,0,0,0-.545-.5.358.358,0,0,0-.4.213c-.045.114,0,.188-.035.2s-.089-.064-.069-.228a.44.44,0,0,1,.144-.252.5.5,0,0,1,.372-.125.994.994,0,0,1,.753.57,2.332,2.332,0,0,1,.3,1.085,1.809,1.809,0,0,1-.9,1.755.722.722,0,0,1-.635-.069C2406.388,5369.475,2406.363,5369.376,2406.378,5369.366Z" transform="translate(-2339.193 -5348.929)" fill="#eb996e"/>
          <path id="Trazado_103236" data-name="Trazado 103236" d="M2386.654,5344.744c.278-1.571-.312-3.772-.719-5.3a5.759,5.759,0,0,0-2.359-3.1,9.606,9.606,0,0,0-5.948-1.794l-.789.258a3.244,3.244,0,0,0-3.048,1.095h0v-1.056a7.793,7.793,0,0,0-5.2,3.41,18.422,18.422,0,0,0-2.478,5.869,64.706,64.706,0,0,0,7.594-7.648c2.275,2.974,5.646,4.887,8.719,7.113a11.446,11.446,0,0,1,.679,4.521c0,3.867.818,7.361,1.12,11.223.173,2.225.159,4.129,2.434,3.936C2386.951,5356.141,2385.429,5351.748,2386.654,5344.744Z" transform="translate(-2318.888 -5332.962)" fill="#263238"/>
          <path id="Trazado_103237" data-name="Trazado 103237" d="M2405.308,5353.343a3.7,3.7,0,0,1-1.1.2,10.615,10.615,0,0,1-2.677-.1,12.68,12.68,0,0,1-2.573-.744,3.97,3.97,0,0,1-.991-.5c.035-.084,1.576.634,3.609.991A21.056,21.056,0,0,0,2405.308,5353.343Z" transform="translate(-2334.956 -5341.863)" fill="#455a64"/>
          <path id="Trazado_103238" data-name="Trazado 103238" d="M2396.63,5344.212a3.4,3.4,0,0,1-.63-.04c-.406-.039-.991-.123-1.7-.257a29.042,29.042,0,0,1-10.454-4.238c-.6-.4-1.081-.748-1.4-.991a2.686,2.686,0,0,1-.5-.412,3.207,3.207,0,0,1,.535.332c.337.229.828.546,1.438.927a33.287,33.287,0,0,0,10.389,4.213c.7.154,1.279.268,1.68.337A2.624,2.624,0,0,1,2396.63,5344.212Z" transform="translate(-2326.877 -5334.844)" fill="#455a64"/>
          <path id="Trazado_103239" data-name="Trazado 103239" d="M2366.321,5351.174a3.828,3.828,0,0,1-.907,1.056,3.9,3.9,0,0,1-1.085.877c-.05-.055.357-.525.907-1.061A3.845,3.845,0,0,1,2366.321,5351.174Z" transform="translate(-2317.987 -5341.35)" fill="#455a64"/>
          <path id="Trazado_103240" data-name="Trazado 103240" d="M2339.076,5399.936c.441-.769.109-3.912.109-3.912l-1.021,1.839a45.225,45.225,0,0,0-5.948,2.618c-1.244.872-2.93,4.549-2.93,4.549l-10.409,13.176-19.456-3.41-1.829,9.771,6.573,1.363,11.559,1.487c3.247.7,6.4.957,8.922-1.175l.174-.336c-.917,13.135.347,27.619.778,40.775a7.115,7.115,0,0,0,.55,3.013c.664,1.3,3.123,1.983,4.565,1.789s.991-1.115,1.293-2.538c.169-.778-.56-1.859-.655-2.647q-2.126-17.15-4.248-34.3c-.044-.7-.094-1.358-.144-1.938-.5-6.042-.57-7.673-.3-10.44C2327.076,5415.357,2336.1,5405.125,2339.076,5399.936Z" transform="translate(-2284.333 -5363.968)" fill="#fd9826"/>
          <path id="Trazado_103241" data-name="Trazado 103241" d="M2355.229,5421.135a3,3,0,0,1-.3.594c-.208.368-.5.912-.818,1.6a26.953,26.953,0,0,0-2.681,11.445c0,.757,0,1.372.024,1.794a2.85,2.85,0,0,1,0,.664,3.772,3.772,0,0,1-.1-.654,18.05,18.05,0,0,1-.109-1.8,24.345,24.345,0,0,1,2.7-11.544,17.653,17.653,0,0,1,.9-1.572A3.444,3.444,0,0,1,2355.229,5421.135Z" transform="translate(-2311.39 -5376.632)" fill="#263238"/>
          <g id="Grupo_59371" data-name="Grupo 59371" transform="translate(38.507 46.778)" opacity="0.3">
            <path id="Trazado_103242" data-name="Trazado 103242" d="M2352.5,5425.725a22.943,22.943,0,0,0-3.589,7.153c-.669,2.6-.248,4.07-.307,6.8l1.562.352C2349.819,5435.138,2349.982,5431.911,2352.5,5425.725Z" transform="translate(-2348.527 -5425.725)" fill="#344154"/>
          </g>
          <path id="Trazado_103243" data-name="Trazado 103243" d="M2355.384,5419.775a1.012,1.012,0,0,1,0-.258c.03-.163.045-.416.119-.728a20.978,20.978,0,0,1,.8-2.593,76.2,76.2,0,0,1,3.7-8.129c.456-.882.907-1.735,1.353-2.548l.034-.064h.075l1.64-.03-.109.169a1.634,1.634,0,0,0-.64-.718l-.114-.075.089-.1a37.686,37.686,0,0,1,3.519-3.7c.456-.416.828-.733,1.085-.946a2.53,2.53,0,0,1,.411-.312,2.47,2.47,0,0,1-.362.367l-1.041.992a44.739,44.739,0,0,0-3.435,3.737l-.03-.169a1.843,1.843,0,0,1,.734.818l.079.163h-.184l-1.64.045.1-.065c-.437.808-.887,1.661-1.343,2.542-1.591,3.1-2.935,5.95-3.757,8.076a24.5,24.5,0,0,0-.868,2.553A8.425,8.425,0,0,1,2355.384,5419.775Z" transform="translate(-2313.473 -5365.845)" fill="#263238"/>
          <path id="Trazado_103244" data-name="Trazado 103244" d="M2394.26,5672.264l6.39,10.286s-8.308,9.953-7.312,11.966l20.393-11.673-9.324-16.437Z" transform="translate(-2332.577 -5500.326)" fill="#ef9548"/>
          <path id="Trazado_103245" data-name="Trazado 103245" d="M2419.143,5689.889a.957.957,0,0,1,1.12.62.923.923,0,0,1-.6,1.116.992.992,0,0,1-1.18-.664.952.952,0,0,1,.759-1.09" transform="translate(-2345.291 -5512.156)" fill="#e0e0e0"/>
          <g id="Grupo_59372" data-name="Grupo 59372" transform="translate(60.576 180.895)" opacity="0.6">
            <path id="Trazado_103246" data-name="Trazado 103246" d="M2413.606,5697.916l-.991-1.621-19.188,11.8s-.685.912-.213,1.487Z" transform="translate(-2393.048 -5696.294)" fill="#fff"/>
          </g>
          <path id="Trazado_103247" data-name="Trazado 103247" d="M2407.345,5698.634c.059.1.585-.138,1.254-.1s1.175.307,1.244.213-.407-.58-1.225-.615S2407.271,5698.555,2407.345,5698.634Z" transform="translate(-2339.679 -5516.326)" fill="#263238"/>
          <path id="Trazado_103248" data-name="Trazado 103248" d="M2404.049,5703.174c.034.109.56.03,1.14.258s.932.619,1.031.555-.164-.66-.887-.928S2404,5703.075,2404.049,5703.174Z" transform="translate(-2338.018 -5518.754)" fill="#263238"/>
          <path id="Trazado_103249" data-name="Trazado 103249" d="M2402.767,5708.646c.1-.035-.044-.609-.61-.991s-1.16-.352-1.155-.243.461.233.922.565S2402.663,5708.69,2402.767,5708.646Z" transform="translate(-2336.484 -5520.97)" fill="#263238"/>
          <path id="Trazado_103250" data-name="Trazado 103250" d="M2404.914,5692.842c.094.064.5-.332,1.056-.615s1.125-.362,1.13-.5-.619-.228-1.3.114S2404.82,5692.792,2404.914,5692.842Z" transform="translate(-2338.448 -5513.036)" fill="#263238"/>
          <path id="Trazado_103251" data-name="Trazado 103251" d="M2385.373,5686.458l.689,12.094s-12.06,4.759-12.149,7l23.491-.5-.3-18.886Z" transform="translate(-2322.822 -5510.296)" fill="#ef9548"/>
          <path id="Trazado_103252" data-name="Trazado 103252" d="M2411.9,5708.792a.992.992,0,0,1,.689,1.086.927.927,0,0,1-1.066.689,1.021,1.021,0,0,1-.723-1.15.962.962,0,0,1,1.189-.6" transform="translate(-2341.417 -5521.695)" fill="#e0e0e0"/>
          <g id="Grupo_59373" data-name="Grupo 59373" transform="translate(51.078 192.866)" opacity="0.6">
            <path id="Trazado_103253" data-name="Trazado 103253" d="M2397.381,5722.348l-.1-1.9-22.475,1.171s-1.036.5-.9,1.209Z" transform="translate(-2373.888 -5720.444)" fill="#fff"/>
          </g>
          <path id="Trazado_103254" data-name="Trazado 103254" d="M2397.651,5710.792c0,.114.581.153,1.15.5s.882.833.991.788-.08-.709-.778-1.13S2397.621,5710.689,2397.651,5710.792Z" transform="translate(-2334.793 -5522.65)" fill="#263238"/>
          <path id="Trazado_103255" data-name="Trazado 103255" d="M2392.721,5713.029c-.025.114.5.3.877.774s.521.991.635.991.174-.659-.332-1.239S2392.721,5712.92,2392.721,5713.029Z" transform="translate(-2332.306 -5523.816)" fill="#263238"/>
          <path id="Trazado_103256" data-name="Trazado 103256" d="M2389.049,5717.092c.1.024.253-.556-.054-1.176s-.853-.862-.9-.763.292.421.536.938S2388.935,5717.083,2389.049,5717.092Z" transform="translate(-2329.973 -5524.9)" fill="#263238"/>
          <path id="Trazado_103257" data-name="Trazado 103257" d="M2397.947,5704.879c.05.1.57-.07,1.22-.035s1.159.223,1.219.124-.437-.5-1.2-.525S2397.888,5704.79,2397.947,5704.879Z" transform="translate(-2334.94 -5519.508)" fill="#263238"/>
          <path id="Trazado_103258" data-name="Trazado 103258" d="M2361.169,5504.515s-1.08,51.457-.109,55.021,20.859,39.982,20.859,39.982l12-5.893-15.911-38.455,3.509-49.445Z" transform="translate(-2316.136 -5418.683)" fill="#263238"/>
          <path id="Trazado_103259" data-name="Trazado 103259" d="M2388.109,5498.715s6.9,11.266,5.68,18.023c-.5,2.771-4.278,8.922-4.278,8.922v32.978l2.915,44.038h-13.983l-6.012-38.833a31.71,31.71,0,0,1-2.915-6.636c-.808-3.074-3.44-39.437-3.44-39.437l-4.184-14.787Z" transform="translate(-2316.76 -5415.757)" fill="#263238"/>
          <path id="Trazado_103260" data-name="Trazado 103260" d="M2420.7,5661.525a6.123,6.123,0,0,0,0,.927c0,.6.06,1.458.119,2.522.119,2.127.332,5.062.58,8.3s.456,6.176.595,8.3c.064,1.026.124,1.874.164,2.518a6.21,6.21,0,0,0,.094.922,5.148,5.148,0,0,0,0-.926c0-.6-.03-1.458-.074-2.523-.084-2.131-.263-5.071-.5-8.313s-.5-6.125-.659-8.3c-.089-1.026-.158-1.873-.218-2.518A5.629,5.629,0,0,0,2420.7,5661.525Z" transform="translate(-2346.411 -5497.864)" fill="#455a64"/>
          <path id="Trazado_103261" data-name="Trazado 103261" d="M2398.488,5510.333a1.892,1.892,0,0,1-.376.427,8.4,8.4,0,0,1-1.2.991,9.563,9.563,0,0,1-9.75.575,8.429,8.429,0,0,1-1.309-.827,2.1,2.1,0,0,1-.421-.377,19.678,19.678,0,0,0,1.809,1.037,9.859,9.859,0,0,0,9.572-.6A19.214,19.214,0,0,0,2398.488,5510.333Z" transform="translate(-2328.631 -5421.614)" fill="#455a64"/>
          <path id="Trazado_103262" data-name="Trazado 103262" d="M2370.572,5531.225a.77.77,0,0,1,0,.184c0,.134.025.307.044.53.035.5.089,1.174.154,2.058.119,1.8.3,4.376.5,7.554.446,6.375.991,15.193,1.858,24.9.119,1.323.253,2.632.4,3.906.084.639.154,1.279.292,1.878a14.858,14.858,0,0,0,.585,1.775c.863,2.325,1.784,4.521,2.667,6.573v.03c.932,5.978,1.72,11.039,2.281,14.617l.674,4.15c.084.47.149.832.2,1.1s.084.372.079.376a2.482,2.482,0,0,1-.119-.367c-.054-.248-.139-.61-.233-1.091-.188-.956-.436-2.358-.743-4.139-.61-3.559-1.428-8.615-2.37-14.607v.029c-.892-2.052-1.819-4.248-2.692-6.577a15.088,15.088,0,0,1-.59-1.794c-.148-.64-.218-1.274-.3-1.913-.154-1.284-.287-2.592-.4-3.917-.853-9.72-1.383-18.539-1.785-24.918l-.377-7.569c-.044-.883-.079-1.572-.1-2.058v-.535A.907.907,0,0,1,2370.572,5531.225Z" transform="translate(-2321.137 -5432.152)" fill="#455a64"/>
          <path id="Trazado_103263" data-name="Trazado 103263" d="M2366.989,5397.727s-.149,2.256,1.685,2.256c2.577,0,7.98-4.958,7.98-4.958l-10.409,24.845v30.068l-8.828.9s-1.036-.148-1.244-1.635c-.412-2.91-.352-8.213-.689-10.41-1.051-6.791-3.113-10.488-2.821-15.862.431-8,11.683-21.81,11.683-21.81Z" transform="translate(-2312.092 -5363.465)" fill="#fff"/>
          <path id="Trazado_103264" data-name="Trazado 103264" d="M2382.311,5388.715a67.784,67.784,0,0,1-4.352,7.044c-2.25,3.128-16.506,24.968-16.506,24.968l5.7,44.3.635,3.753a1.873,1.873,0,0,0,2.154,1.542c.029,0,.058-.01.086-.016l25.181-4.427a2.285,2.285,0,0,0,1.855-2.646,2.244,2.244,0,0,0-.066-.274l-11.242-31.574,7.261-28.042s-.268-4.085-4.689-8.229c-.843-.787-4.317-3.668-4.892-4.461Z" transform="translate(-2316.538 -5360.283)" fill="#fd9826"/>
          <g id="Grupo_59374" data-name="Grupo 59374" transform="translate(46.297 71.091)" opacity="0.3">
            <path id="Trazado_103265" data-name="Trazado 103265" d="M2364.648,5478.052s11.594,9.2,17.235,9.279,8.575-4.694,8.575-4.694l-11.347.313-14.87-8.174Z" transform="translate(-2364.242 -5474.775)" fill="#344154"/>
          </g>
          <path id="Trazado_103266" data-name="Trazado 103266" d="M2347.7,5434.267s10.459,6.91,12.392,8.223,11.059,6.608,12.249,6.989,8.571.432,9.914-2.077,2.27-7.862,2.27-7.862l1.779-25.057a10.084,10.084,0,0,0-1.8-6.553c-1.081-1.527-2.508-2.905-4.055-2.672-3.3.5-10.384,8.462-10.042,12.556s.352,15.5.352,15.5l-18.673-6.181Z" transform="translate(-2309.604 -5368.613)" fill="#fd9826"/>
          <path id="Trazado_103267" data-name="Trazado 103267" d="M2384.355,5410.675a5.448,5.448,0,0,1,.342.5,9.067,9.067,0,0,1,.793,1.522,9.89,9.89,0,0,1,.684,2.677,20.419,20.419,0,0,1-.084,3.733c-.386,5.581-.942,13.526-1.6,23.034h0q-.282,1.606-.684,3.246a28.1,28.1,0,0,1-.991,3.3,6.816,6.816,0,0,1-.793,1.6,3.911,3.911,0,0,1-1.427,1.135,11.141,11.141,0,0,1-3.534,1.052,15.3,15.3,0,0,1-3.782.1,5.142,5.142,0,0,1-1.878-.5c-.58-.288-1.145-.6-1.71-.917q-3.406-1.9-6.871-3.964c-2.771-1.607-5.343-3.421-7.9-5.091l-7.436-4.958-.1-.064.064-.1,4.4-7.257.05-.08.089.03,18.648,6.315-.109.074c.382-4.653.684-8.362.892-10.9.109-1.263.194-2.24.253-2.91.03-.322.05-.575.07-.749s.03-.258.03-.258v.258c0,.169-.03.427-.049.753-.05.67-.119,1.651-.208,2.915-.188,2.552-.466,6.256-.818,10.905v.109l-.1-.035-18.682-6.271.139-.05-4.392,7.262-.034-.163,7.435,4.932c2.568,1.676,5.125,3.47,7.886,5.081q3.47,2.068,6.865,3.966c.565.313,1.13.625,1.7.912a4.939,4.939,0,0,0,1.794.5,15.039,15.039,0,0,0,3.718-.093,10.987,10.987,0,0,0,3.47-1.016,3.783,3.783,0,0,0,1.348-1.066,6.5,6.5,0,0,0,.763-1.546,27.714,27.714,0,0,0,.991-3.271c.273-1.086.5-2.167.689-3.223h0c.7-9.5,1.279-17.447,1.69-23.03a20.517,20.517,0,0,0,.114-3.711,9.814,9.814,0,0,0-.645-2.663,9.916,9.916,0,0,0-.758-1.526c-.1-.168-.183-.288-.233-.372Z" transform="translate(-2309.443 -5371.357)" fill="#263238"/>
          <path id="Trazado_103268" data-name="Trazado 103268" d="M2367.862,5417.775a1.911,1.911,0,0,1,.228-.263c.168-.188.4-.431.674-.733l2.479-2.692,3.722-3.966c1.423-1.487,2.945-3.142,4.744-4.719v.188l-.148-.169-1.259-1.393-.208-.232h.312l2.33.119-.115.064,4.689-8.164,1.388-2.37.382-.629a.915.915,0,0,1,.148-.214,1.514,1.514,0,0,1-.109.233c-.089.168-.2.387-.347.649l-1.323,2.409-4.615,8.208-.04.064h-.079l-2.33-.119.1-.213,1.254,1.393.154.168.084.094-.1.089c-1.77,1.552-3.306,3.216-4.739,4.684l-3.757,3.937c-1.07,1.12-1.943,2.022-2.553,2.637-.3.308-.54.545-.709.7A1.436,1.436,0,0,1,2367.862,5417.775Z" transform="translate(-2319.771 -5362.244)" fill="#263238"/>
          <g id="Grupo_59375" data-name="Grupo 59375" transform="translate(47.254 40.403)" opacity="0.3">
            <path id="Trazado_103269" data-name="Trazado 103269" d="M2366.172,5429.381l14.182-13.368-1.209-1.324h1.209l.317-1.823-.8,1.408-2.335-.12,1.378,1.259-11.782,12.458Z" transform="translate(-2366.172 -5412.866)" fill="#344154"/>
          </g>
          <path id="Trazado_103270" data-name="Trazado 103270" d="M2384.282,5513.686l.238-.06.723-.153,2.737-.575,9.557-1.942h.084l.045.073,2.632,4.288.1.158-.183.036-.312.059-13.939,2.618h-.07l-.025-.07-1.189-3.276c-.124-.357-.228-.64-.3-.858a2.054,2.054,0,0,1-.094-.291,2.868,2.868,0,0,1,.139.312c.084.218.2.5.347.868l1.259,3.187-.094-.055,13.919-2.7.312-.06-.084.193-2.627-4.293.128.061-9.487,1.8-2.781.5-.753.128A1.792,1.792,0,0,1,2384.282,5513.686Z" transform="translate(-2328.052 -5421.93)" fill="#263238"/>
          <g id="Grupo_59376" data-name="Grupo 59376" transform="translate(56.365 92.178)" opacity="0.3">
            <path id="Trazado_103271" data-name="Trazado 103271" d="M2384.552,5517.316l1.006,5.2,14.434-2.6-.4-1.205-13.532,2.583Z" transform="translate(-2384.552 -5517.316)" fill="#344154"/>
          </g>
          <path id="Trazado_103272" data-name="Trazado 103272" d="M2397.642,5466.242c-.074.035-.674-1.155-1.75-2.37s-2.176-1.983-2.131-2.038A8.714,8.714,0,0,1,2397.642,5466.242Z" transform="translate(-2332.831 -5397.157)" fill="#263238"/>
          <path id="Trazado_103273" data-name="Trazado 103273" d="M2283.681,5434.4a39.424,39.424,0,0,1-5.066-3.554s-2.107-.664-3.073.665a9.022,9.022,0,0,0-2.528,1.031c-.3.417-2.171,3.306-2.171,3.306s.991,3.446,1.085,3.619c.178.377.585.773.927.356a.722.722,0,0,0,.158-.495v-.229l.541-.381s.243,1.338.966,1.13a12.556,12.556,0,0,0,2.35-1.412,13.527,13.527,0,0,0,3.495,1.437,38.178,38.178,0,0,1,3.965.888l1.219-6.547Z" transform="translate(-2270.843 -5381.446)" fill="#ffbe9d"/>
          <path id="Trazado_103274" data-name="Trazado 103274" d="M2274.145,5441.614a.3.3,0,0,1-.282.055.742.742,0,0,1-.5-.6,10.7,10.7,0,0,1,0-2.518,23.22,23.22,0,0,1,.4-2.479,4.279,4.279,0,0,1,.268-.991c.089,0-.193,1.571-.407,3.47a14.8,14.8,0,0,0-.089,2.479.627.627,0,0,0,.367.53C2274.041,5441.633,2274.14,5441.593,2274.145,5441.614Z" transform="translate(-2272.078 -5383.667)" fill="#eb996e"/>
          <path id="Trazado_103275" data-name="Trazado 103275" d="M2281.3,5436.854a2.886,2.886,0,0,1-1.71.793l.1-.093-.03.128a8.113,8.113,0,0,1-.595,1.914,7.9,7.9,0,0,1,.342-1.983l.035-.124v-.084h.084A12.45,12.45,0,0,0,2281.3,5436.854Z" transform="translate(-2274.993 -5384.559)" fill="#eb996e"/>
          <path id="Trazado_103276" data-name="Trazado 103276" d="M2282.712,5437.247a1.777,1.777,0,0,0-1.982-.406l-.376.5-2.855,2.379a4.4,4.4,0,0,0-1.279,1.442,1.488,1.488,0,0,0,.3,1.775,1.706,1.706,0,0,0,2.022-.268c.57-.461.991-1.105,1.576-1.537.922-.678,2.261-.863,2.826-1.854A1.778,1.778,0,0,0,2282.712,5437.247Z" transform="translate(-2273.468 -5384.481)" fill="#ffbe9d"/>
          <path id="Trazado_103277" data-name="Trazado 103277" d="M2280.5,5435.955a1.577,1.577,0,0,1-.253,1.035,3.859,3.859,0,0,1-.719.928,9.371,9.371,0,0,1-1.115.867,6.949,6.949,0,0,0-1.889,1.621,6.172,6.172,0,0,0-.5.912,1.676,1.676,0,0,1,.332-1.016,4.283,4.283,0,0,1,.763-.882,11.98,11.98,0,0,1,1.13-.848,9.876,9.876,0,0,0,1.1-.832,3.992,3.992,0,0,0,.724-.838A5.1,5.1,0,0,0,2280.5,5435.955Z" transform="translate(-2273.46 -5384.106)" fill="#eb996e"/>
          <path id="Trazado_103278" data-name="Trazado 103278" d="M2314.022,5451.929s.1-3.549.991-4.6,6.156-2.4,6.156-2.4l13.206,3.063-3.069,4.958-.927-.872s-4.154,1.249-6.206.8a23.323,23.323,0,0,1-3.579-1.066l-2.152.149s-1.551,1.606-2.052,1.606-1.051-.451-.8-.952l-.446-.753S2314.225,5452.38,2314.022,5451.929Z" transform="translate(-2292.619 -5388.63)" fill="#ffbe9d"/>
          <path id="Trazado_103279" data-name="Trazado 103279" d="M2322.52,5454.059a2.2,2.2,0,0,1-.942.322,16.086,16.086,0,0,0-2.3.451,3.22,3.22,0,0,0-1.656,1.517,5.447,5.447,0,0,1-.5.848,2.756,2.756,0,0,1,.337-.932,3.945,3.945,0,0,1,.6-.917,2.76,2.76,0,0,1,1.125-.759,11.028,11.028,0,0,1,2.364-.392C2322.158,5454.133,2322.5,5454.023,2322.52,5454.059Z" transform="translate(-2294.182 -5393.233)" fill="#eb996e"/>
          <path id="Trazado_103280" data-name="Trazado 103280" d="M2320.917,5448.793c0,.034-.421.1-1.076.337a10.821,10.821,0,0,0-1.12.451,5.474,5.474,0,0,0-1.249.744,2.9,2.9,0,0,0-.426.6c-.124.213-.238.421-.337.625a6.056,6.056,0,0,0-.431,1.121c-.173.664-.144,1.095-.188,1.1a2.277,2.277,0,0,1,0-1.14,5.253,5.253,0,0,1,.392-1.185c.1-.213.213-.431.337-.649a2.887,2.887,0,0,1,.471-.665,5.3,5.3,0,0,1,1.338-.793,9.467,9.467,0,0,1,1.17-.412A2.71,2.71,0,0,1,2320.917,5448.793Z" transform="translate(-2293.624 -5390.575)" fill="#eb996e"/>
        </g>
        <text id="Art._452" data-name="Art. 452" transform="translate(79.577 112.813)" fill="#fff" font-size="12" font-family="Roboto-Regular, Roboto"><tspan x="0" y="13">Art. </tspan><tspan x="0" y="27.4">452</tspan></text>
        <g id="Grupo_76107" data-name="Grupo 76107" transform="translate(119.394 28.054)">
          <g id="Grupo_74537" data-name="Grupo 74537" transform="translate(0)">
            <g id="Grupo_74529" data-name="Grupo 74529">
              <g id="Grupo_74528" data-name="Grupo 74528">
                <g id="Grupo_74527" data-name="Grupo 74527">
                  <g transform="matrix(1, 0, 0, 1, -128.39, -28.05)" filter="url(#Trazado_110714)">
                    <path id="Trazado_110714-2" data-name="Trazado 110714" d="M332.84,52.2a14.2,14.2,0,1,1-16.085-11.974A14.18,14.18,0,0,1,332.84,52.2Z" transform="translate(-176.2 -12.02)" fill="#fff"/>
                  </g>
                </g>
              </g>
            </g>
            <g id="Grupo_74532" data-name="Grupo 74532" transform="translate(3.378 3.37)">
              <g id="Grupo_74531" data-name="Grupo 74531">
                <g id="Grupo_74530" data-name="Grupo 74530">
                  <path id="Trazado_110715" data-name="Trazado 110715" d="M336.57,59.739a10.818,10.818,0,1,1-12.257-9.125A10.806,10.806,0,0,1,336.57,59.739Z" transform="translate(-315.046 -50.5)" fill="#ebebeb"/>
                </g>
              </g>
            </g>
            <g id="Grupo_74536" data-name="Grupo 74536" transform="translate(3.182 2.96)">
              <g id="Grupo_74535" data-name="Grupo 74535">
                <g id="Grupo_74534" data-name="Grupo 74534">
                  <g id="Grupo_74533" data-name="Grupo 74533">
                    <path id="Trazado_110716" data-name="Trazado 110716" d="M336.107,58.544a6.409,6.409,0,0,1-.47-1.246,11.479,11.479,0,0,0-1.712-3.1,11.082,11.082,0,0,0-1.7-1.739A10.837,10.837,0,0,0,329.862,51a10.609,10.609,0,0,0-2.941-.847,10.489,10.489,0,0,0-1.618-.094,10.58,10.58,0,0,0-3.278.582,10.529,10.529,0,0,0-1.487.646,10.6,10.6,0,0,0-2.47,1.807,10.819,10.819,0,0,0-1.716,2.186,11.088,11.088,0,0,0-1,2.218,11.485,11.485,0,0,0-.538,3.5,6.344,6.344,0,0,1-.012,1.331,3.177,3.177,0,0,1-.31-1.314,10.006,10.006,0,0,1,.3-3.682,10.84,10.84,0,0,1,2.734-4.778,10.486,10.486,0,0,1,1.21-1.069,10.593,10.593,0,0,1,1.417-.915,11,11,0,0,1,1.6-.709,11.094,11.094,0,0,1,3.535-.627,11.064,11.064,0,0,1,1.745.115,11.026,11.026,0,0,1,3.15.958,10.839,10.839,0,0,1,4.213,3.544,10.014,10.014,0,0,1,1.548,3.354A3.175,3.175,0,0,1,336.107,58.544Z" transform="translate(-314.439 -49.23)" fill="#e0e0e0"/>
                  </g>
                </g>
              </g>
            </g>
          </g>
          <g id="Grupo_74542" data-name="Grupo 74542" transform="translate(9.39 6.619)">
            <g id="Grupo_74541" data-name="Grupo 74541">
              <g id="Grupo_74540" data-name="Grupo 74540">
                <g id="Grupo_74539" data-name="Grupo 74539">
                  <g id="Grupo_74538" data-name="Grupo 74538">
                    <path id="Trazado_110717" data-name="Trazado 110717" d="M340.591,74.3l.3,1.861-1.661.265-.29-1.81a7.973,7.973,0,0,1-4.349-.667l.589-2.173a6.8,6.8,0,0,0,3.412.664l-.444-2.775c-1.916-.153-4.074-.438-4.454-2.814-.282-1.761.755-3.477,3.332-4.2l-.3-1.844,1.661-.266.29,1.811a7.612,7.612,0,0,1,3.534.473l-.5,2.177a6.9,6.9,0,0,0-2.68-.457l.452,2.825c1.913.136,4.039.427,4.413,2.769C344.172,71.874,343.149,73.572,340.591,74.3Zm-2.836-7.077-.378-2.359c-.848.34-1.12.878-1.032,1.426C336.437,66.876,336.986,67.113,337.755,67.228Zm3.5,3.546c-.093-.582-.625-.82-1.38-.955l.367,2.293C341.042,71.8,341.338,71.306,341.253,70.774Z" transform="translate(-333.646 -60.549)" fill="#455a64"/>
                  </g>
                </g>
              </g>
            </g>
          </g>
        </g>
        <g id="Grupo_76108" data-name="Grupo 76108" transform="translate(161.234 24.046)">
          <g id="Grupo_74554" data-name="Grupo 74554" transform="translate(0)">
            <g id="Grupo_74546" data-name="Grupo 74546">
              <g id="Grupo_74545" data-name="Grupo 74545">
                <g id="Grupo_74544" data-name="Grupo 74544">
                  <path id="Trazado_110718" data-name="Trazado 110718" d="M452.592,37.59a9.29,9.29,0,1,1-8.619-9.9A9.279,9.279,0,0,1,452.592,37.59Z" transform="translate(-434.034 -27.671)" fill="#f5f5f5"/>
                </g>
              </g>
            </g>
            <g id="Grupo_74549" data-name="Grupo 74549" transform="translate(2.211 2.205)">
              <g id="Grupo_74548" data-name="Grupo 74548">
                <g id="Grupo_74547" data-name="Grupo 74547">
                  <path id="Trazado_110719" data-name="Trazado 110719" d="M455.015,42.052a7.08,7.08,0,1,1-6.568-7.541A7.072,7.072,0,0,1,455.015,42.052Z" transform="translate(-440.873 -34.493)" fill="#ebebeb"/>
                </g>
              </g>
            </g>
            <g id="Grupo_74553" data-name="Grupo 74553" transform="translate(2.174 1.937)">
              <g id="Grupo_74552" data-name="Grupo 74552">
                <g id="Grupo_74551" data-name="Grupo 74551">
                  <g id="Grupo_74550" data-name="Grupo 74550">
                    <path id="Trazado_110720" data-name="Trazado 110720" d="M454.953,41.268a4.164,4.164,0,0,1-.127-.862,7.517,7.517,0,0,0-.663-2.222,7.274,7.274,0,0,0-.845-1.349,7.088,7.088,0,0,0-1.309-1.263,6.941,6.941,0,0,0-1.763-.951,6.839,6.839,0,0,0-1.022-.285,6.925,6.925,0,0,0-2.177-.084,6.913,6.913,0,0,0-1.041.206,6.944,6.944,0,0,0-1.831.812,7.08,7.08,0,0,0-1.4,1.159,7.261,7.261,0,0,0-.946,1.28A7.522,7.522,0,0,0,441,39.872a4.159,4.159,0,0,1-.193.849,2.079,2.079,0,0,1-.016-.883,6.546,6.546,0,0,1,.7-2.313A7.09,7.09,0,0,1,443.9,34.85a6.845,6.845,0,0,1,.923-.515,6.936,6.936,0,0,1,1.033-.388,7.221,7.221,0,0,1,1.122-.23,7.243,7.243,0,0,1,2.348.091,7.279,7.279,0,0,1,1.1.316,7.229,7.229,0,0,1,1.881,1.051,7.092,7.092,0,0,1,2.2,2.853,6.553,6.553,0,0,1,.523,2.361A2.077,2.077,0,0,1,454.953,41.268Z" transform="translate(-440.76 -33.662)" fill="#e0e0e0"/>
                  </g>
                </g>
              </g>
            </g>
          </g>
          <g id="Grupo_74559" data-name="Grupo 74559" transform="translate(6.005 4.373)">
            <g id="Grupo_74558" data-name="Grupo 74558">
              <g id="Grupo_74557" data-name="Grupo 74557">
                <g id="Grupo_74556" data-name="Grupo 74556">
                  <g id="Grupo_74555" data-name="Grupo 74555">
                    <path id="Trazado_110721" data-name="Trazado 110721" d="M456.4,50.365l-.068,1.232-1.1-.061.067-1.2a5.219,5.219,0,0,1-2.688-1.031L453.289,48a4.451,4.451,0,0,0,2.089.9l.1-1.836c-1.2-.364-2.544-.847-2.457-2.419.065-1.165.967-2.119,2.715-2.22l.068-1.221,1.1.061-.067,1.2a4.977,4.977,0,0,1,2.194.795l-.625,1.322a4.52,4.52,0,0,0-1.65-.666l-.1,1.869c1.2.353,2.523.835,2.437,2.385C459.028,49.309,458.137,50.252,456.4,50.365Zm-.829-4.92.086-1.561c-.59.1-.839.406-.859.768C454.777,45.037,455.1,45.264,455.571,45.445Zm1.744,2.755c.021-.385-.286-.611-.75-.8l-.084,1.517C457.037,48.823,457.294,48.551,457.314,48.2Z" transform="translate(-452.61 -41.201)" fill="#e0e0e0"/>
                  </g>
                </g>
              </g>
            </g>
          </g>
        </g>
        <g id="Grupo_76109" data-name="Grupo 76109" transform="translate(221.902 84.245)">
          <g id="Grupo_74608" data-name="Grupo 74608" transform="translate(0)">
            <g id="Grupo_74599" data-name="Grupo 74599">
              <g id="Grupo_74598" data-name="Grupo 74598">
                <g id="Grupo_74597" data-name="Grupo 74597">
                  <g id="Grupo_74596" data-name="Grupo 74596">
                    <g id="Grupo_74595" data-name="Grupo 74595">
                      <g id="Grupo_74594" data-name="Grupo 74594">
                        <g id="Grupo_74593" data-name="Grupo 74593">
                          <g id="Grupo_74592" data-name="Grupo 74592">
                            <path id="Trazado_110727" data-name="Trazado 110727" d="M626.419,93.179l-13.29-6.472a1.85,1.85,0,0,1-.853-2.473l8.958-18.4a1.85,1.85,0,0,1,2.473-.853l8.429,4.1,3.25,9.9-6.493,13.334A1.85,1.85,0,0,1,626.419,93.179Z" transform="translate(-612.088 -64.798)" fill="#fff"/>
                          </g>
                        </g>
                      </g>
                    </g>
                  </g>
                </g>
              </g>
            </g>
            <g id="Grupo_74607" data-name="Grupo 74607" transform="translate(17.352 4.292)">
              <g id="Grupo_74606" data-name="Grupo 74606" transform="translate(0)">
                <g id="Grupo_74605" data-name="Grupo 74605">
                  <g id="Grupo_74604" data-name="Grupo 74604">
                    <g id="Grupo_74603" data-name="Grupo 74603">
                      <g id="Grupo_74602" data-name="Grupo 74602">
                        <g id="Grupo_74601" data-name="Grupo 74601">
                          <g id="Grupo_74600" data-name="Grupo 74600">
                            <path id="Trazado_110728" data-name="Trazado 110728" d="M668.464,78.075l-2.521,5.177a1.72,1.72,0,0,0,.793,2.3l4.978,2.425Z" transform="translate(-665.769 -78.075)" fill="#e0e0e0"/>
                          </g>
                        </g>
                      </g>
                    </g>
                  </g>
                </g>
              </g>
            </g>
          </g>
          <g id="Grupo_74615" data-name="Grupo 74615" transform="translate(10.365 5.716)">
            <g id="Grupo_74614" data-name="Grupo 74614" transform="translate(0)">
              <g id="Grupo_74613" data-name="Grupo 74613">
                <g id="Grupo_74612" data-name="Grupo 74612">
                  <g id="Grupo_74611" data-name="Grupo 74611">
                    <g id="Grupo_74610" data-name="Grupo 74610">
                      <g id="Grupo_74609" data-name="Grupo 74609">
                        <path id="Trazado_110729" data-name="Trazado 110729" d="M650.3,85.481A21.888,21.888,0,0,1,647.17,84.1a21.977,21.977,0,0,1-3.016-1.618,43.728,43.728,0,0,1,6.149,2.994Z" transform="translate(-644.153 -82.482)" fill="#fff"/>
                      </g>
                    </g>
                  </g>
                </g>
              </g>
            </g>
          </g>
          <g id="Grupo_74622" data-name="Grupo 74622" transform="translate(8.939 8.645)">
            <g id="Grupo_74621" data-name="Grupo 74621">
              <g id="Grupo_74620" data-name="Grupo 74620">
                <g id="Grupo_74619" data-name="Grupo 74619">
                  <g id="Grupo_74618" data-name="Grupo 74618">
                    <g id="Grupo_74617" data-name="Grupo 74617">
                      <g id="Grupo_74616" data-name="Grupo 74616">
                        <path id="Trazado_110730" data-name="Trazado 110730" d="M649.864,96.474c-.033.067-2.324-.983-5.118-2.344s-5.034-2.518-5-2.585,2.324.983,5.119,2.344S649.9,96.407,649.864,96.474Z" transform="translate(-639.744 -91.543)" fill="#e0e0e0"/>
                      </g>
                    </g>
                  </g>
                </g>
              </g>
            </g>
          </g>
          <g id="Grupo_74629" data-name="Grupo 74629" transform="translate(7.749 11.09)">
            <g id="Grupo_74628" data-name="Grupo 74628">
              <g id="Grupo_74627" data-name="Grupo 74627">
                <g id="Grupo_74626" data-name="Grupo 74626">
                  <g id="Grupo_74625" data-name="Grupo 74625">
                    <g id="Grupo_74624" data-name="Grupo 74624">
                      <g id="Grupo_74623" data-name="Grupo 74623">
                        <path id="Trazado_110731" data-name="Trazado 110731" d="M647.094,104.48c-.033.067-2.528-1.082-5.574-2.565s-5.49-2.74-5.457-2.807,2.528,1.082,5.575,2.566S647.126,104.414,647.094,104.48Z" transform="translate(-636.062 -99.106)" fill="#e0e0e0"/>
                      </g>
                    </g>
                  </g>
                </g>
              </g>
            </g>
          </g>
          <g id="Grupo_74636" data-name="Grupo 74636" transform="translate(6.626 13.396)">
            <g id="Grupo_74635" data-name="Grupo 74635">
              <g id="Grupo_74634" data-name="Grupo 74634">
                <g id="Grupo_74633" data-name="Grupo 74633">
                  <g id="Grupo_74632" data-name="Grupo 74632">
                    <g id="Grupo_74631" data-name="Grupo 74631">
                      <g id="Grupo_74630" data-name="Grupo 74630">
                        <path id="Trazado_110732" data-name="Trazado 110732" d="M643.619,111.615c-.032.067-2.528-1.082-5.574-2.565s-5.49-2.74-5.457-2.807,2.528,1.082,5.574,2.566S643.652,111.549,643.619,111.615Z" transform="translate(-632.588 -106.24)" fill="#e0e0e0"/>
                      </g>
                    </g>
                  </g>
                </g>
              </g>
            </g>
          </g>
          <g id="Grupo_74643" data-name="Grupo 74643" transform="translate(5.503 15.702)">
            <g id="Grupo_74642" data-name="Grupo 74642">
              <g id="Grupo_74641" data-name="Grupo 74641">
                <g id="Grupo_74640" data-name="Grupo 74640">
                  <g id="Grupo_74639" data-name="Grupo 74639">
                    <g id="Grupo_74638" data-name="Grupo 74638">
                      <g id="Grupo_74637" data-name="Grupo 74637">
                        <path id="Trazado_110733" data-name="Trazado 110733" d="M640.145,118.75c-.032.067-2.528-1.082-5.574-2.565s-5.49-2.74-5.457-2.806,2.528,1.082,5.575,2.566S640.177,118.684,640.145,118.75Z" transform="translate(-629.113 -113.375)" fill="#e0e0e0"/>
                      </g>
                    </g>
                  </g>
                </g>
              </g>
            </g>
          </g>
          <g id="Grupo_74650" data-name="Grupo 74650" transform="translate(4.38 18.008)">
            <g id="Grupo_74649" data-name="Grupo 74649">
              <g id="Grupo_74648" data-name="Grupo 74648">
                <g id="Grupo_74647" data-name="Grupo 74647">
                  <g id="Grupo_74646" data-name="Grupo 74646">
                    <g id="Grupo_74645" data-name="Grupo 74645">
                      <g id="Grupo_74644" data-name="Grupo 74644">
                        <path id="Trazado_110734" data-name="Trazado 110734" d="M636.671,125.884c-.032.067-2.528-1.082-5.574-2.565s-5.49-2.74-5.457-2.807,2.528,1.082,5.575,2.566S636.7,125.818,636.671,125.884Z" transform="translate(-625.639 -120.509)" fill="#e0e0e0"/>
                      </g>
                    </g>
                  </g>
                </g>
              </g>
            </g>
          </g>
        </g>
        <g id="Grupo_76110" data-name="Grupo 76110" transform="translate(176.19 161.8)">
          <g id="Grupo_74667" data-name="Grupo 74667" transform="translate(0)">
            <g id="Grupo_74660" data-name="Grupo 74660" transform="translate(0.013 0.803)">
              <g id="Grupo_74659" data-name="Grupo 74659">
                <g id="Grupo_74658" data-name="Grupo 74658">
                  <g id="Grupo_74657" data-name="Grupo 74657">
                    <g id="Grupo_74656" data-name="Grupo 74656">
                      <g id="Grupo_74655" data-name="Grupo 74655">
                        <g id="Grupo_74654" data-name="Grupo 74654">
                          <g id="Grupo_74653" data-name="Grupo 74653">
                            <g id="Grupo_74652" data-name="Grupo 74652">
                              <path id="Trazado_110735" data-name="Trazado 110735" d="M145.669,163.94a1.479,1.479,0,0,1-1.11-1.774l2.887-12.534a1.227,1.227,0,0,1,1.5-.871l1.179.271a1.273,1.273,0,0,0,1.274-.413l.372-.456a1.274,1.274,0,0,1,1.274-.413l5.595,1.289a1.283,1.283,0,0,1,.931.812l.175.5a1.285,1.285,0,0,0,.931.812l7.132,1.642a1.228,1.228,0,0,1,.967,1.439l-2.953,12.82a1.48,1.48,0,0,1-1.774,1.11Z" transform="translate(-144.521 -147.716)" fill="#e0e0e0"/>
                            </g>
                          </g>
                        </g>
                      </g>
                    </g>
                  </g>
                </g>
              </g>
            </g>
            <g id="Grupo_74666" data-name="Grupo 74666">
              <g id="Grupo_74665" data-name="Grupo 74665">
                <g id="Grupo_74664" data-name="Grupo 74664">
                  <g id="Grupo_74663" data-name="Grupo 74663">
                    <g id="Grupo_74662" data-name="Grupo 74662">
                      <g id="Grupo_74661" data-name="Grupo 74661">
                        <g transform="matrix(1, 0, 0, 1, -185.19, -161.8)" filter="url(#Trazado_110736)">
                          <path id="Trazado_110736-2" data-name="Trazado 110736" d="M159.913,149.322l-4.535-1.055-.231-.851a1.607,1.607,0,0,0-1.2-1.122l-4.435-1.021a1.422,1.422,0,0,0-1.738,1.009l-.119.517-3.135,13.61a1.616,1.616,0,0,0,1.274,1.895l18.015,4.149a1.616,1.616,0,0,0,1.974-1.147l2.961-12.857a1.066,1.066,0,0,0-.8-1.278Z" transform="translate(40.71 16.57)" fill="#ebebeb"/>
                        </g>
                      </g>
                    </g>
                  </g>
                </g>
              </g>
            </g>
          </g>
          <g id="Grupo_74669" data-name="Grupo 74669" transform="translate(6.602 7.623)">
            <g id="Grupo_74668" data-name="Grupo 74668" transform="translate(0 0)">
              <rect id="Rectángulo_8319" data-name="Rectángulo 8319" width="11.002" height="4.629" transform="translate(1.039 0) rotate(12.969)" fill="#fff"/>
            </g>
          </g>
          <g id="Grupo_74672" data-name="Grupo 74672" transform="translate(8.886 10.001)">
            <g id="Grupo_74671" data-name="Grupo 74671">
              <g id="Grupo_74670" data-name="Grupo 74670">
                <path id="Trazado_110737" data-name="Trazado 110737" d="M179.34,177.871c-.009.04-1.666-.307-3.7-.776s-3.676-.881-3.667-.921,1.666.308,3.7.776S179.349,177.831,179.34,177.871Z" transform="translate(-171.973 -176.171)" fill="#e0e0e0"/>
              </g>
            </g>
          </g>
          <g id="Grupo_74675" data-name="Grupo 74675" transform="translate(8.665 10.962)">
            <g id="Grupo_74674" data-name="Grupo 74674">
              <g id="Grupo_74673" data-name="Grupo 74673">
                <path id="Trazado_110738" data-name="Trazado 110738" d="M178.655,180.844c-.009.04-1.666-.308-3.7-.776s-3.676-.881-3.667-.921,1.666.308,3.7.776S178.664,180.8,178.655,180.844Z" transform="translate(-171.288 -179.144)" fill="#e0e0e0"/>
              </g>
            </g>
          </g>
        </g>
      </g>
      <g id="Grupo_76106" data-name="Grupo 76106" transform="translate(191.104 210.215)">
        <g id="Grupo_75759" data-name="Grupo 75759" transform="translate(0 12.891)">
          <g id="Grupo_75738" data-name="Grupo 75738">
            <path id="Rectángulo_8338" data-name="Rectángulo 8338" d="M3.755,0h43.9a3.756,3.756,0,0,1,3.756,3.756V9.633a3.756,3.756,0,0,1-3.756,3.756H3.755A3.755,3.755,0,0,1,0,9.633V3.755A3.755,3.755,0,0,1,3.755,0Z" fill="#263238"/>
          </g>
          <g id="Grupo_75739" data-name="Grupo 75739" transform="translate(23.14 3.196)">
            <rect id="Rectángulo_8339" data-name="Rectángulo 8339" width="22.797" height="7.56" rx="0.708" fill="#fff"/>
          </g>
          <g id="Grupo_75740" data-name="Grupo 75740" transform="translate(8.526 3.779)">
            <ellipse id="Elipse_4159" data-name="Elipse 4159" cx="2.737" cy="2.737" rx="2.737" ry="2.737" transform="translate(0.459 0.46)" fill="#263238"/>
            <path id="Trazado_110898" data-name="Trazado 110898" d="M130.887,430.095a3.2,3.2,0,1,1,3.2-3.2A3.2,3.2,0,0,1,130.887,430.095Zm0-5.474a2.278,2.278,0,1,0,2.277,2.278A2.28,2.28,0,0,0,130.887,424.621Z" transform="translate(-127.691 -423.702)" fill="#e0e0e0"/>
          </g>
          <g id="Grupo_75742" data-name="Grupo 75742" transform="translate(25.406 4.488)">
            <g id="Grupo_75741" data-name="Grupo 75741" transform="translate(0)">
              <path id="Trazado_110899" data-name="Trazado 110899" d="M164.562,425.245a26.841,26.841,0,0,1,0,5.068,26.94,26.94,0,0,1,0-5.068Z" transform="translate(-164.443 -425.245)" fill="#e0e0e0"/>
            </g>
          </g>
          <g id="Grupo_75744" data-name="Grupo 75744" transform="translate(27.624 4.488)">
            <g id="Grupo_75743" data-name="Grupo 75743" transform="translate(0)">
              <path id="Trazado_110900" data-name="Trazado 110900" d="M169.391,425.245a26.844,26.844,0,0,1,0,5.068,26.937,26.937,0,0,1,0-5.068Z" transform="translate(-169.272 -425.245)" fill="#e0e0e0"/>
            </g>
          </g>
          <g id="Grupo_75746" data-name="Grupo 75746" transform="translate(29.842 4.488)">
            <g id="Grupo_75745" data-name="Grupo 75745" transform="translate(0)">
              <path id="Trazado_110901" data-name="Trazado 110901" d="M174.22,425.245a26.944,26.944,0,0,1,0,5.068,26.838,26.838,0,0,1,0-5.068Z" transform="translate(-174.1 -425.245)" fill="#e0e0e0"/>
            </g>
          </g>
          <g id="Grupo_75748" data-name="Grupo 75748" transform="translate(32.06 4.488)">
            <g id="Grupo_75747" data-name="Grupo 75747" transform="translate(0)">
              <path id="Trazado_110902" data-name="Trazado 110902" d="M179.049,425.245a26.944,26.944,0,0,1,0,5.068,26.838,26.838,0,0,1,0-5.068Z" transform="translate(-178.929 -425.245)" fill="#e0e0e0"/>
            </g>
          </g>
          <g id="Grupo_75750" data-name="Grupo 75750" transform="translate(34.278 4.488)">
            <g id="Grupo_75749" data-name="Grupo 75749" transform="translate(0)">
              <path id="Trazado_110903" data-name="Trazado 110903" d="M183.877,425.245a26.838,26.838,0,0,1,0,5.068,26.944,26.944,0,0,1,0-5.068Z" transform="translate(-183.758 -425.245)" fill="#e0e0e0"/>
            </g>
          </g>
          <g id="Grupo_75752" data-name="Grupo 75752" transform="translate(36.496 4.488)">
            <g id="Grupo_75751" data-name="Grupo 75751" transform="translate(0)">
              <path id="Trazado_110904" data-name="Trazado 110904" d="M188.706,425.245a26.944,26.944,0,0,1,0,5.068,26.944,26.944,0,0,1,0-5.068Z" transform="translate(-188.587 -425.245)" fill="#e0e0e0"/>
            </g>
          </g>
          <g id="Grupo_75754" data-name="Grupo 75754" transform="translate(38.713 4.488)">
            <g id="Grupo_75753" data-name="Grupo 75753" transform="translate(0)">
              <path id="Trazado_110905" data-name="Trazado 110905" d="M193.535,425.245a26.944,26.944,0,0,1,0,5.068,26.841,26.841,0,0,1,0-5.068Z" transform="translate(-193.415 -425.245)" fill="#e0e0e0"/>
            </g>
          </g>
          <g id="Grupo_75756" data-name="Grupo 75756" transform="translate(40.931 4.488)">
            <g id="Grupo_75755" data-name="Grupo 75755" transform="translate(0)">
              <path id="Trazado_110906" data-name="Trazado 110906" d="M198.364,425.245a26.947,26.947,0,0,1,0,5.068,26.844,26.844,0,0,1,0-5.068Z" transform="translate(-198.244 -425.245)" fill="#e0e0e0"/>
            </g>
          </g>
          <g id="Grupo_75758" data-name="Grupo 75758" transform="translate(43.149 4.488)">
            <g id="Grupo_75757" data-name="Grupo 75757" transform="translate(0)">
              <path id="Trazado_110907" data-name="Trazado 110907" d="M203.192,425.245a26.841,26.841,0,0,1,0,5.068,26.94,26.94,0,0,1,0-5.068Z" transform="translate(-203.073 -425.245)" fill="#e0e0e0"/>
            </g>
          </g>
        </g>
        <g id="Grupo_75781" data-name="Grupo 75781">
          <g id="Grupo_75760" data-name="Grupo 75760">
            <path id="Rectángulo_8340" data-name="Rectángulo 8340" d="M3.755,0h43.9a3.756,3.756,0,0,1,3.756,3.756V9.633a3.756,3.756,0,0,1-3.756,3.756H3.755A3.755,3.755,0,0,1,0,9.633V3.755A3.755,3.755,0,0,1,3.755,0Z" fill="#455a64"/>
          </g>
          <g id="Grupo_75761" data-name="Grupo 75761" transform="translate(23.14 3.196)">
            <rect id="Rectángulo_8341" data-name="Rectángulo 8341" width="22.797" height="7.56" rx="0.708" fill="#fff"/>
          </g>
          <g id="Grupo_75762" data-name="Grupo 75762" transform="translate(8.526 3.78)">
            <ellipse id="Elipse_4160" data-name="Elipse 4160" cx="2.737" cy="2.737" rx="2.737" ry="2.737" transform="translate(0.459 0.459)" fill="#263238"/>
            <path id="Trazado_110908" data-name="Trazado 110908" d="M130.887,402.027a3.2,3.2,0,1,1,3.2-3.2A3.2,3.2,0,0,1,130.887,402.027Zm0-5.473a2.277,2.277,0,1,0,2.277,2.277A2.28,2.28,0,0,0,130.887,396.554Z" transform="translate(-127.691 -395.635)" fill="#e0e0e0"/>
          </g>
          <g id="Grupo_75764" data-name="Grupo 75764" transform="translate(25.406 4.488)">
            <g id="Grupo_75763" data-name="Grupo 75763" transform="translate(0)">
              <path id="Trazado_110909" data-name="Trazado 110909" d="M164.562,397.177a26.841,26.841,0,0,1,0,5.068,26.94,26.94,0,0,1,0-5.068Z" transform="translate(-164.443 -397.177)" fill="#e0e0e0"/>
            </g>
          </g>
          <g id="Grupo_75766" data-name="Grupo 75766" transform="translate(27.624 4.488)">
            <g id="Grupo_75765" data-name="Grupo 75765" transform="translate(0)">
              <path id="Trazado_110910" data-name="Trazado 110910" d="M169.391,397.177a26.845,26.845,0,0,1,0,5.068,26.937,26.937,0,0,1,0-5.068Z" transform="translate(-169.272 -397.177)" fill="#e0e0e0"/>
            </g>
          </g>
          <g id="Grupo_75768" data-name="Grupo 75768" transform="translate(29.842 4.488)">
            <g id="Grupo_75767" data-name="Grupo 75767" transform="translate(0)">
              <path id="Trazado_110911" data-name="Trazado 110911" d="M174.22,397.177a26.944,26.944,0,0,1,0,5.068,26.838,26.838,0,0,1,0-5.068Z" transform="translate(-174.1 -397.177)" fill="#e0e0e0"/>
            </g>
          </g>
          <g id="Grupo_75770" data-name="Grupo 75770" transform="translate(32.06 4.488)">
            <g id="Grupo_75769" data-name="Grupo 75769" transform="translate(0)">
              <path id="Trazado_110912" data-name="Trazado 110912" d="M179.049,397.177a26.944,26.944,0,0,1,0,5.068,26.838,26.838,0,0,1,0-5.068Z" transform="translate(-178.929 -397.177)" fill="#e0e0e0"/>
            </g>
          </g>
          <g id="Grupo_75772" data-name="Grupo 75772" transform="translate(34.278 4.488)">
            <g id="Grupo_75771" data-name="Grupo 75771" transform="translate(0)">
              <path id="Trazado_110913" data-name="Trazado 110913" d="M183.877,397.177a26.838,26.838,0,0,1,0,5.068,26.944,26.944,0,0,1,0-5.068Z" transform="translate(-183.758 -397.177)" fill="#e0e0e0"/>
            </g>
          </g>
          <g id="Grupo_75774" data-name="Grupo 75774" transform="translate(36.496 4.488)">
            <g id="Grupo_75773" data-name="Grupo 75773" transform="translate(0)">
              <path id="Trazado_110914" data-name="Trazado 110914" d="M188.706,397.177a26.944,26.944,0,0,1,0,5.068,26.944,26.944,0,0,1,0-5.068Z" transform="translate(-188.587 -397.177)" fill="#e0e0e0"/>
            </g>
          </g>
          <g id="Grupo_75776" data-name="Grupo 75776" transform="translate(38.713 4.488)">
            <g id="Grupo_75775" data-name="Grupo 75775" transform="translate(0)">
              <path id="Trazado_110915" data-name="Trazado 110915" d="M193.535,397.177a26.944,26.944,0,0,1,0,5.068,26.841,26.841,0,0,1,0-5.068Z" transform="translate(-193.415 -397.177)" fill="#e0e0e0"/>
            </g>
          </g>
          <g id="Grupo_75778" data-name="Grupo 75778" transform="translate(40.931 4.488)">
            <g id="Grupo_75777" data-name="Grupo 75777" transform="translate(0)">
              <path id="Trazado_110916" data-name="Trazado 110916" d="M198.364,397.177a26.947,26.947,0,0,1,0,5.068,26.845,26.845,0,0,1,0-5.068Z" transform="translate(-198.244 -397.177)" fill="#e0e0e0"/>
            </g>
          </g>
          <g id="Grupo_75780" data-name="Grupo 75780" transform="translate(43.149 4.488)">
            <g id="Grupo_75779" data-name="Grupo 75779" transform="translate(0)">
              <path id="Trazado_110917" data-name="Trazado 110917" d="M203.192,397.177a26.841,26.841,0,0,1,0,5.068,26.94,26.94,0,0,1,0-5.068Z" transform="translate(-203.073 -397.177)" fill="#e0e0e0"/>
            </g>
          </g>
        </g>
        <g id="Grupo_75803" data-name="Grupo 75803" transform="translate(0 26.351)">
          <g id="Grupo_75782" data-name="Grupo 75782">
            <path id="Rectángulo_8342" data-name="Rectángulo 8342" d="M3.755,0h43.9a3.756,3.756,0,0,1,3.756,3.756V9.633a3.756,3.756,0,0,1-3.756,3.756H3.755A3.755,3.755,0,0,1,0,9.633V3.755A3.755,3.755,0,0,1,3.755,0Z" fill="#aed3f2"/>
          </g>
          <g id="Grupo_75783" data-name="Grupo 75783" transform="translate(23.14 3.196)">
            <rect id="Rectángulo_8343" data-name="Rectángulo 8343" width="22.797" height="7.56" rx="0.708" fill="#fff"/>
          </g>
          <g id="Grupo_75784" data-name="Grupo 75784" transform="translate(8.526 3.779)">
            <path id="Trazado_110918" data-name="Trazado 110918" d="M134.164,456.745a2.737,2.737,0,1,0-2.736,2.736A2.737,2.737,0,0,0,134.164,456.745Z" transform="translate(-128.232 -453.549)" fill="#263238"/>
            <path id="Trazado_110919" data-name="Trazado 110919" d="M130.887,459.4a3.2,3.2,0,1,1,3.2-3.2A3.2,3.2,0,0,1,130.887,459.4Zm0-5.473a2.277,2.277,0,1,0,2.277,2.278A2.28,2.28,0,0,0,130.887,453.927Z" transform="translate(-127.691 -453.008)" fill="#f5f5f5"/>
          </g>
          <g id="Grupo_75786" data-name="Grupo 75786" transform="translate(25.406 4.488)">
            <g id="Grupo_75785" data-name="Grupo 75785" transform="translate(0)">
              <path id="Trazado_110920" data-name="Trazado 110920" d="M164.562,454.55a26.847,26.847,0,0,1,0,5.068,26.946,26.946,0,0,1,0-5.068Z" transform="translate(-164.443 -454.55)" fill="#e0e0e0"/>
            </g>
          </g>
          <g id="Grupo_75788" data-name="Grupo 75788" transform="translate(27.624 4.488)">
            <g id="Grupo_75787" data-name="Grupo 75787" transform="translate(0)">
              <path id="Trazado_110921" data-name="Trazado 110921" d="M169.391,454.55a26.85,26.85,0,0,1,0,5.068,26.942,26.942,0,0,1,0-5.068Z" transform="translate(-169.272 -454.55)" fill="#e0e0e0"/>
            </g>
          </g>
          <g id="Grupo_75790" data-name="Grupo 75790" transform="translate(29.842 4.488)">
            <g id="Grupo_75789" data-name="Grupo 75789" transform="translate(0)">
              <path id="Trazado_110922" data-name="Trazado 110922" d="M174.22,454.55a26.949,26.949,0,0,1,0,5.068,26.843,26.843,0,0,1,0-5.068Z" transform="translate(-174.1 -454.55)" fill="#e0e0e0"/>
            </g>
          </g>
          <g id="Grupo_75792" data-name="Grupo 75792" transform="translate(32.06 4.488)">
            <g id="Grupo_75791" data-name="Grupo 75791" transform="translate(0)">
              <path id="Trazado_110923" data-name="Trazado 110923" d="M179.049,454.55a26.949,26.949,0,0,1,0,5.068,26.843,26.843,0,0,1,0-5.068Z" transform="translate(-178.929 -454.55)" fill="#e0e0e0"/>
            </g>
          </g>
          <g id="Grupo_75794" data-name="Grupo 75794" transform="translate(34.278 4.488)">
            <g id="Grupo_75793" data-name="Grupo 75793" transform="translate(0)">
              <path id="Trazado_110924" data-name="Trazado 110924" d="M183.877,454.55a26.843,26.843,0,0,1,0,5.068,26.949,26.949,0,0,1,0-5.068Z" transform="translate(-183.758 -454.55)" fill="#e0e0e0"/>
            </g>
          </g>
          <g id="Grupo_75796" data-name="Grupo 75796" transform="translate(36.496 4.488)">
            <g id="Grupo_75795" data-name="Grupo 75795" transform="translate(0)">
              <path id="Trazado_110925" data-name="Trazado 110925" d="M188.706,454.55a26.949,26.949,0,0,1,0,5.068,26.949,26.949,0,0,1,0-5.068Z" transform="translate(-188.587 -454.55)" fill="#e0e0e0"/>
            </g>
          </g>
          <g id="Grupo_75798" data-name="Grupo 75798" transform="translate(38.713 4.488)">
            <g id="Grupo_75797" data-name="Grupo 75797" transform="translate(0)">
              <path id="Trazado_110926" data-name="Trazado 110926" d="M193.535,454.55a26.949,26.949,0,0,1,0,5.068,26.847,26.847,0,0,1,0-5.068Z" transform="translate(-193.415 -454.55)" fill="#e0e0e0"/>
            </g>
          </g>
          <g id="Grupo_75800" data-name="Grupo 75800" transform="translate(40.931 4.488)">
            <g id="Grupo_75799" data-name="Grupo 75799" transform="translate(0)">
              <path id="Trazado_110927" data-name="Trazado 110927" d="M198.364,454.55a26.952,26.952,0,0,1,0,5.068,26.85,26.85,0,0,1,0-5.068Z" transform="translate(-198.244 -454.55)" fill="#e0e0e0"/>
            </g>
          </g>
          <g id="Grupo_75802" data-name="Grupo 75802" transform="translate(43.149 4.488)">
            <g id="Grupo_75801" data-name="Grupo 75801" transform="translate(0)">
              <path id="Trazado_110928" data-name="Trazado 110928" d="M203.192,454.55a26.847,26.847,0,0,1,0,5.068,26.946,26.946,0,0,1,0-5.068Z" transform="translate(-203.073 -454.55)" fill="#e0e0e0"/>
            </g>
          </g>
        </g>
      </g>
    </g>
  </g>
</svg>
