<svg xmlns="http://www.w3.org/2000/svg" xmlns:xlink="http://www.w3.org/1999/xlink" width="109.102" height="97.57" viewBox="0 0 109.102 97.57">
  <defs>
    <filter id="Union_15" x="0" y="0" width="109.102" height="97.57" filterUnits="userSpaceOnUse">
      <feOffset dy="3" input="SourceAlpha"/>
      <feGaussianBlur stdDeviation="3" result="blur"/>
      <feFlood flood-opacity="0.161"/>
      <feComposite operator="in" in2="blur"/>
      <feComposite in="SourceGraphic"/>
    </filter>
  </defs>
  <g id="Group_1099680" data-name="Group 1099680" transform="translate(9 6)">
    <g transform="matrix(1, 0, 0, 1, -9, -6)" filter="url(#Union_15)">
      <path id="Union_15-2" data-name="Union 15" d="M52.061,62.759H5a5,5,0,0,1-5-5V5A5,5,0,0,1,5,0H86.1a5,5,0,0,1,5,5V57.758a5,5,0,0,1-5,5H75.641L80.933,79.57Z" transform="translate(9 6)" fill="#f6f6f6"/>
    </g>
    <circle id="Ellipse_11717" data-name="Ellipse 11717" cx="6.073" cy="6.073" r="6.073" transform="translate(14.171 25.306)" fill="#12263f"/>
    <circle id="Ellipse_11718" data-name="Ellipse 11718" cx="6.073" cy="6.073" r="6.073" transform="translate(38.465 25.306)" fill="#12263f"/>
    <circle id="Ellipse_11719" data-name="Ellipse 11719" cx="6.073" cy="6.073" r="6.073" transform="translate(62.759 25.306)" fill="#12263f"/>
  </g>
</svg>
