<svg xmlns="http://www.w3.org/2000/svg" xmlns:xlink="http://www.w3.org/1999/xlink" width="99.896" height="99.896" viewBox="0 0 99.896 99.896">
  <defs>
    <filter id="Trazado_896985" x="0" y="0" width="99.896" height="99.896" filterUnits="userSpaceOnUse">
      <feOffset dy="3" input="SourceAlpha"/>
      <feGaussianBlur stdDeviation="3" result="blur"/>
      <feFlood flood-opacity="0.161"/>
      <feComposite operator="in" in2="blur"/>
      <feComposite in="SourceGraphic"/>
    </filter>
  </defs>
  <g id="Grupo_1177041" data-name="Grupo 1177041" transform="translate(-201.337 -498)">
    <g id="Grupo_1176860" data-name="Grupo 1176860" transform="translate(-69.714 -4065)">
      <g id="Grupo_1111318" data-name="Grupo 1111318" transform="translate(280.051 4569)">
        <g id="Grupo_1109826" data-name="Grupo 1109826" transform="translate(0 0)">
          <g id="Grupo_1098742" data-name="Grupo 1098742">
            <g transform="matrix(1, 0, 0, 1, -9, -6)" filter="url(#Trazado_896985)">
              <g id="Trazado_896985-2" data-name="Trazado 896985" transform="translate(9 6)" fill="#fd9826" opacity="0.859">
                <path d="M 40.94818878173828 80.39647674560547 C 35.6220588684082 80.39647674560547 30.45603561401367 79.35368347167969 25.59363555908203 77.29705810546875 C 20.89635276794434 75.31027221679688 16.67744827270508 72.46570587158203 13.05410671234131 68.84237670898438 C 9.430765151977539 65.21903991699219 6.586200714111328 61.0001335144043 4.599423885345459 56.30284881591797 C 2.542800664901733 51.44044876098633 1.500000596046448 46.2744255065918 1.500000596046448 40.94829559326172 C 1.500000596046448 35.62206268310547 2.542800664901733 30.4560375213623 4.599423885345459 25.59363746643066 C 6.586200714111328 20.8963565826416 9.430765151977539 16.67745018005371 13.05410671234131 13.05410861968994 C 16.67744827270508 9.430768013000488 20.89635276794434 6.586203098297119 25.59363555908203 4.599426746368408 C 30.45603561401367 2.542803049087524 35.6220588684082 1.500003099441528 40.94818878173828 1.500003099441528 C 46.27431869506836 1.500003099441528 51.44034194946289 2.542803049087524 56.30274200439453 4.599426746368408 C 61.00002288818359 6.586203098297119 65.21893310546875 9.430768013000488 68.84226989746094 13.05410861968994 C 72.46561431884766 16.67745018005371 75.3101806640625 20.8963565826416 77.29695129394531 25.59363746643066 C 79.35357666015625 30.4560375213623 80.39637756347656 35.62206268310547 80.39637756347656 40.94819259643555 C 80.39637756347656 46.2744255065918 79.35357666015625 51.44044876098633 77.29695129394531 56.30284881591797 C 75.3101806640625 61.0001335144043 72.46561431884766 65.21903991699219 68.84226989746094 68.84237670898438 C 65.21893310546875 72.46570587158203 61.00002288818359 75.31027221679688 56.30274200439453 77.29705810546875 C 51.44034194946289 79.35368347167969 46.27431869506836 80.39647674560547 40.94818878173828 80.39647674560547 Z" stroke="none"/>
                <path d="M 40.94818878173828 3 C 35.82389450073242 3 30.85446929931641 4.0029296875 26.17796325683594 5.980918884277344 C 21.65948104858398 7.892074584960938 17.600830078125 10.62870788574219 14.11477661132812 14.11476898193359 C 10.62870788574219 17.60082244873047 7.892082214355469 21.65947723388672 5.980918884277344 26.17795944213867 C 4.002937316894531 30.85446548461914 3 35.82389068603516 3 40.94829177856445 C 3 46.07258605957031 4.002937316894531 51.04201126098633 5.980918884277344 55.71852111816406 C 7.892082214355469 60.23701095581055 10.62870788574219 64.295654296875 14.11477661132812 67.78171539306641 C 17.600830078125 71.26776885986328 21.65948104858398 74.00439453125 26.17796325683594 75.91555786132812 C 30.85446929931641 77.89354705810547 35.82389450073242 78.89647674560547 40.94818878173828 78.89647674560547 C 46.07248306274414 78.89647674560547 51.04190826416016 77.89354705810547 55.71841430664062 75.91555786132812 C 60.23689270019531 74.00439453125 64.29554748535156 71.26776885986328 67.78160095214844 67.78171539306641 C 71.26766967773438 64.295654296875 74.00429534912109 60.23701095581055 75.91545867919922 55.71852111816406 C 77.89344024658203 51.04201126098633 78.89637756347656 46.07258605957031 78.89637756347656 40.94818496704102 C 78.89637756347656 35.82389068603516 77.89344024658203 30.85446548461914 75.91545867919922 26.17795944213867 C 74.00429534912109 21.65947723388672 71.26766967773438 17.60082244873047 67.78160095214844 14.11476898193359 C 64.29554748535156 10.62870788574219 60.23689270019531 7.892074584960938 55.71841430664062 5.980918884277344 C 51.04190826416016 4.0029296875 46.07248306274414 3 40.94818878173828 3 M 40.94818878173828 0 C 63.56324005126953 0 81.89637756347656 18.3331298828125 81.89637756347656 40.94818496704102 L 81.89637756347656 40.94829177856445 C 81.89637756347656 63.56335830688477 63.56324005126953 81.89647674560547 40.94818878173828 81.89647674560547 C 18.33313369750977 81.89647674560547 0 63.56335830688477 0 40.94829177856445 L 0 40.94818496704102 C 0 18.3331298828125 18.33313369750977 0 40.94818878173828 0 Z" stroke="none" fill="#fff"/>
              </g>
            </g>
          </g>
        </g>
      </g>
    </g>
    <g id="business-finance_1733219" transform="translate(227.654 522.119)">
      <path id="Trazado_1032326" data-name="Trazado 1032326" d="M271.7,34.192H264V8h16.948v4.622h4.622v21.57H274.785" transform="translate(-238.578 -7.23)" fill="#b8cbd9"/>
      <path id="Trazado_1032327" data-name="Trazado 1032327" d="M275.463,8H264V34.192h.941c7.025-2.3,12.155-9.534,12.155-18.1A20.594,20.594,0,0,0,275.463,8Zm0,0" transform="translate(-238.578 -7.23)" fill="#e8eff4"/>
      <path id="Trazado_1032328" data-name="Trazado 1032328" d="M444.622,12.622,440,8v4.622Zm0,0" transform="translate(-397.631 -7.23)" fill="#e8eff4"/>
      <path id="Trazado_1032329" data-name="Trazado 1032329" d="M29.57,274.785A10.785,10.785,0,1,1,18.785,264,10.785,10.785,0,0,1,29.57,274.785Zm0,0" transform="translate(-7.23 -238.578)" fill="#8bd2f5"/>
      <path id="Trazado_1032330" data-name="Trazado 1032330" d="M42.488,17.244A9.244,9.244,0,1,1,33.244,8,9.244,9.244,0,0,1,42.488,17.244Zm0,0" transform="translate(-21.689 -7.23)" fill="#d1a339"/>
      <path id="Trazado_1032331" data-name="Trazado 1032331" d="M61.866,38.933A6.933,6.933,0,1,1,54.933,32,6.933,6.933,0,0,1,61.866,38.933Zm0,0" transform="translate(-43.378 -28.919)" fill="#f0d365"/>
      <path id="Trazado_1032332" data-name="Trazado 1032332" d="M341.866,244.326h-1.541l-1.541-2.311h-1.541L335.7,239.7h-1.541l-1.541,2.311v-8.474a1.541,1.541,0,1,0-3.081,0v10.015l.77,2.311L328,247.407l.77,3.852,3.081,5.392H341.1l2.311-5.392v-4.622Zm0,0" transform="translate(-296.416 -209.66)" fill="#efbe9a"/>
      <path id="Trazado_1032333" data-name="Trazado 1032333" d="M333.871,250.192h-9.244a.771.771,0,0,1-.669-.388l-3.081-5.392a.744.744,0,0,1-.086-.231l-.77-3.852a.771.771,0,0,1,.328-.792l1.821-1.214-.584-1.752a.786.786,0,0,1-.04-.244V226.311a2.311,2.311,0,1,1,4.622,0v5.929l.129-.194a.772.772,0,0,1,.641-.343h1.541a.772.772,0,0,1,.641.343l1.312,1.968h1.128a.772.772,0,0,1,.641.343l1.312,1.968h1.128a.772.772,0,0,1,.641.343l1.541,2.311a.776.776,0,0,1,.129.428v4.622a.756.756,0,0,1-.062.3l-2.311,5.392A.769.769,0,0,1,333.871,250.192Zm-8.8-1.541h8.29l2.049-4.78v-4.231l-1.183-1.774H333.1a.772.772,0,0,1-.641-.343l-1.312-1.968H330.02a.772.772,0,0,1-.641-.343l-1.312-1.968h-.716l-1.312,1.968a.77.77,0,0,1-1.411-.428v-8.474a.77.77,0,0,0-1.541,0v9.89l1.5,4.5-1.461.487-.451-1.354-1.043.695.645,3.223Zm0,0" transform="translate(-289.191 -202.43)"/>
      <path id="Trazado_1032334" data-name="Trazado 1032334" d="M11.555,279.111a11.555,11.555,0,1,1,11.555-11.555A11.568,11.568,0,0,1,11.555,279.111Zm0-21.57A10.015,10.015,0,1,0,21.57,267.555,10.026,10.026,0,0,0,11.555,257.541Zm0,0" transform="translate(0 -231.349)"/>
      <path id="Trazado_1032335" data-name="Trazado 1032335" d="M75.555,330.015H64.77a.769.769,0,0,1-.77-.77v-1.086a2.3,2.3,0,0,1,1.791-2.252l8.223-1.9v-2.468H65.541V320h9.244a.769.769,0,0,1,.77.77v3.852a.771.771,0,0,1-.6.751l-8.821,2.036a.764.764,0,0,0-.6.749v.315H75.555Zm0,0" transform="translate(-57.837 -289.186)"/>
      <path id="Trazado_1032336" data-name="Trazado 1032336" d="M58.316,311.788l-.695-6.247H56V304h2.311a.77.77,0,0,1,.766.686l.77,6.933Zm0,0" transform="translate(-50.608 -274.727)"/>
      <path id="Trazado_1032337" data-name="Trazado 1032337" d="M66.311,412.622a2.311,2.311,0,1,1,2.311-2.311A2.314,2.314,0,0,1,66.311,412.622Zm0-3.081a.77.77,0,1,0,.77.77A.771.771,0,0,0,66.311,409.541Zm0,0" transform="translate(-57.837 -368.712)"/>
      <path id="Trazado_1032338" data-name="Trazado 1032338" d="M130.311,412.622a2.311,2.311,0,1,1,2.311-2.311A2.314,2.314,0,0,1,130.311,412.622Zm0-3.081a.77.77,0,1,0,.77.77A.771.771,0,0,0,130.311,409.541Zm0,0" transform="translate(-115.674 -368.712)"/>
      <path id="Trazado_1032339" data-name="Trazado 1032339" d="M136,328h1.541v4.622H136Zm0,0" transform="translate(-122.904 -296.416)"/>
      <path id="Trazado_1032340" data-name="Trazado 1032340" d="M104,328h1.541v5.392H104Zm0,0" transform="translate(-93.985 -296.416)"/>
      <path id="Trazado_1032341" data-name="Trazado 1032341" d="M278.34,27.733H267.555V26.192H277.57V6.163h-3.852a.77.77,0,0,1-.77-.77V1.541H257.541V26.192h6.933v1.541h-7.7a.769.769,0,0,1-.77-.77V.77a.77.77,0,0,1,.77-.77h16.948a.77.77,0,0,1,.77.77V4.622h3.852a.77.77,0,0,1,.77.77v21.57A.769.769,0,0,1,278.34,27.733Zm0,0" transform="translate(-231.349)"/>
      <path id="Trazado_1032342" data-name="Trazado 1032342" d="M434.34,3.433l1.089-1.089,4.622,4.622-1.089,1.089Zm0,0" transform="translate(-392.516 -2.118)"/>
      <path id="Trazado_1032343" data-name="Trazado 1032343" d="M293.392,38.163H288.77a.77.77,0,0,1-.77-.77V32.77a.77.77,0,0,1,.77-.77h4.622a.77.77,0,0,1,.77.77v4.622A.77.77,0,0,1,293.392,38.163Zm-3.852-1.541h3.081V33.541h-3.081Zm0,0" transform="translate(-260.267 -28.919)"/>
      <path id="Trazado_1032344" data-name="Trazado 1032344" d="M293.392,118.163H288.77a.77.77,0,0,1-.77-.77V112.77a.77.77,0,0,1,.77-.77h4.622a.77.77,0,0,1,.77.77v4.622A.77.77,0,0,1,293.392,118.163Zm-3.852-1.541h3.081v-3.081h-3.081Zm0,0" transform="translate(-260.267 -101.215)"/>
      <path id="Trazado_1032345" data-name="Trazado 1032345" d="M368,160h9.244v1.541H368Zm0,0" transform="translate(-332.564 -144.593)"/>
      <path id="Trazado_1032346" data-name="Trazado 1032346" d="M368,128h7.7v1.541H368Zm0,0" transform="translate(-332.564 -115.674)"/>
      <path id="Trazado_1032347" data-name="Trazado 1032347" d="M98.311,58.785A2.314,2.314,0,0,1,96,56.474V55.7h1.541v.77a.77.77,0,1,0,1.541,0V54.933a.771.771,0,0,0-.77-.77A2.314,2.314,0,0,1,96,51.852V50.311a2.311,2.311,0,1,1,4.622,0v.77H99.081v-.77a.77.77,0,1,0-1.541,0v1.541a.771.771,0,0,0,.77.77,2.314,2.314,0,0,1,2.311,2.311v1.541A2.314,2.314,0,0,1,98.311,58.785Zm0,0" transform="translate(-86.756 -43.378)"/>
      <path id="Trazado_1032348" data-name="Trazado 1032348" d="M112,32h1.541v2.311H112Zm0,0" transform="translate(-101.215 -28.919)"/>
      <path id="Trazado_1032349" data-name="Trazado 1032349" d="M112,152h1.541v2.311H112Zm0,0" transform="translate(-101.215 -137.363)"/>
      <path id="Trazado_1032350" data-name="Trazado 1032350" d="M26.015,20.029A10.015,10.015,0,1,1,36.029,10.015,10.026,10.026,0,0,1,26.015,20.029Zm0-18.488a8.474,8.474,0,1,0,8.474,8.474A8.484,8.484,0,0,0,26.015,1.541Zm0,0" transform="translate(-14.459)"/>
      <path id="Trazado_1032351" data-name="Trazado 1032351" d="M216,96h4.622v1.541H216Zm0,0" transform="translate(-195.201 -86.756)"/>
      <path id="Trazado_1032352" data-name="Trazado 1032352" d="M112,200h1.541v6.163H112Zm0,0" transform="translate(-101.215 -180.741)"/>
    </g>
  </g>
</svg>
