<svg xmlns="http://www.w3.org/2000/svg" xmlns:xlink="http://www.w3.org/1999/xlink" width="118" height="118" viewBox="0 0 118 118">
  <defs>
    <filter id="Trazado_896985" x="0" y="0" width="118" height="118" filterUnits="userSpaceOnUse">
      <feOffset dy="3" input="SourceAlpha"/>
      <feGaussianBlur stdDeviation="3" result="blur"/>
      <feFlood flood-opacity="0.161"/>
      <feComposite operator="in" in2="blur"/>
      <feComposite in="SourceGraphic"/>
    </filter>
  </defs>
  <g id="Grupo_1177104" data-name="Grupo 1177104" transform="translate(-426.051 -4407.329)">
    <g id="Grupo_1177095" data-name="Grupo 1177095" transform="translate(435.051 4413.329)">
      <g id="Grupo_1111320" data-name="Grupo 1111320" transform="translate(0 0)">
        <g id="Grupo_1109828" data-name="Grupo 1109828">
          <g id="Grupo_1098742" data-name="Grupo 1098742">
            <g transform="matrix(1, 0, 0, 1, -9, -6)" filter="url(#Trazado_896985)">
              <g id="Trazado_896985-2" data-name="Trazado 896985" transform="translate(9 6)" fill="#5ab4f9" opacity="0.859">
                <path d="M 49.99993515014648 98.5 C 43.45182037353516 98.5 37.10037612915039 97.21788024902344 31.12203598022461 94.68925476074219 C 25.34687805175781 92.24656677246094 20.15993499755859 88.74932098388672 15.70530700683594 84.29469299316406 C 11.25067806243896 79.84006500244141 7.753435134887695 74.65312194824219 5.310749530792236 68.87796783447266 C 2.782120943069458 62.89962387084961 1.500006556510925 56.54818344116211 1.500006556510925 50.00006866455078 C 1.500006556510925 43.45180892944336 2.782120943069458 37.10036849975586 5.310749530792236 31.12202453613281 C 7.753435134887695 25.34686851501465 11.25067806243896 20.15992546081543 15.70530700683594 15.70529651641846 C 20.15993499755859 11.25066757202148 25.34687805175781 7.753424644470215 31.12203598022461 5.310739040374756 C 37.10037612915039 2.782110452651978 43.45182037353516 1.499996185302734 49.99993515014648 1.499996185302734 C 56.54804992675781 1.499996185302734 62.89949417114258 2.782110452651978 68.87783813476562 5.310739040374756 C 74.65299224853516 7.753424644470215 79.83993530273438 11.25066757202148 84.29457855224609 15.70529651641846 C 88.74920654296875 20.15992546081543 92.24643707275391 25.34686851501465 94.68911743164062 31.12202453613281 C 97.21775054931641 37.10036849975586 98.4998779296875 43.45180892944336 98.4998779296875 49.99992370605469 C 98.4998779296875 56.54818344116211 97.21775054931641 62.89962387084961 94.68911743164062 68.87796783447266 C 92.24643707275391 74.65312194824219 88.74920654296875 79.84006500244141 84.29457855224609 84.29469299316406 C 79.83993530273438 88.74932098388672 74.65299224853516 92.24656677246094 68.87783813476562 94.68925476074219 C 62.89949417114258 97.21788024902344 56.54804992675781 98.5 49.99993515014648 98.5 Z" stroke="none"/>
                <path d="M 49.99993515014648 2.999992370605469 C 43.65365982055664 2.999992370605469 37.49881362915039 4.242256164550781 31.70636749267578 6.6922607421875 C 26.10999298095703 9.059318542480469 21.08332061767578 12.44859313964844 16.76596832275391 16.76596832275391 C 12.44859313964844 21.08332061767578 9.059318542480469 26.10999298095703 6.6922607421875 31.70636749267578 C 4.242256164550781 37.49880981445312 3 43.65365600585938 3 50.00005722045898 C 3 56.34633636474609 4.242256164550781 62.50118255615234 6.6922607421875 68.29362487792969 C 9.059318542480469 73.88999938964844 12.44859313964844 78.91667175292969 16.76596832275391 83.23402404785156 C 21.08332061767578 87.55139923095703 26.10999298095703 90.940673828125 31.70636749267578 93.30773162841797 C 37.49881362915039 95.75773620605469 43.65365982055664 97 49.99993515014648 97 C 56.34621047973633 97 62.50105667114258 95.75773620605469 68.29350280761719 93.30773162841797 C 73.88987731933594 90.940673828125 78.91654968261719 87.55139923095703 83.23390197753906 83.23402404785156 C 87.55126953125 78.91667175292969 90.9405517578125 73.88999938964844 93.30760955810547 68.29362487792969 C 95.75761413574219 62.50118255615234 96.99987030029297 56.34633636474609 96.99987030029297 49.99993515014648 C 96.99987030029297 43.65365600585938 95.75761413574219 37.49880981445312 93.30760955810547 31.70636749267578 C 90.9405517578125 26.10999298095703 87.55126953125 21.08332061767578 83.23390197753906 16.76596832275391 C 78.91654968261719 12.44859313964844 73.88987731933594 9.059318542480469 68.29350280761719 6.6922607421875 C 62.50105667114258 4.242256164550781 56.34621047973633 2.999992370605469 49.99993515014648 2.999992370605469 M 49.99993515014648 -7.62939453125e-06 C 77.6141357421875 -7.62939453125e-06 99.99987030029297 22.38573455810547 99.99987030029297 49.99993515014648 L 99.99987030029297 50.00005722045898 C 99.99987030029297 77.6142578125 77.6141357421875 100 49.99993515014648 100 C 22.38573455810547 100 0 77.6142578125 0 50.00005722045898 L 0 49.99993515014648 C 0 22.38573455810547 22.38573455810547 -7.62939453125e-06 49.99993515014648 -7.62939453125e-06 Z" stroke="none" fill="#fff"/>
              </g>
            </g>
            <g id="Rectángulo_400907" data-name="Rectángulo 400907" transform="translate(0)" fill="none" stroke="#fff" stroke-width="3">
              <rect width="100" height="100" rx="50" stroke="none"/>
              <rect x="1.5" y="1.5" width="97" height="97" rx="48.5" fill="none"/>
            </g>
          </g>
        </g>
      </g>
    </g>
    <g id="Layer_14" data-name="Layer 14" transform="translate(452.051 4432)">
      <path id="Trazado_1032388" data-name="Trazado 1032388" d="M40.4,34.335l-3.3-7.542A8,8,0,0,0,29.768,22H14.232A8,8,0,0,0,6.9,26.793L3.6,34.335A19.131,19.131,0,0,0,2,42,20,20,0,0,0,22,62V56H33V50h7.336A19.941,19.941,0,0,0,42,42,19.131,19.131,0,0,0,40.4,34.335Z" fill="#74574a"/>
      <path id="Trazado_1032389" data-name="Trazado 1032389" d="M14.232,22H29.768c.078,0,.154.015.232.017V18a2,2,0,0,0-2-2H16a2,2,0,0,0-2,2v4.017c.078,0,.154-.017.232-.017Z" fill="#594139"/>
      <circle id="Elipse_13116" data-name="Elipse 13116" cx="11" cy="11" r="11" transform="translate(11 30)" fill="#f7c244"/>
      <path id="Trazado_1032390" data-name="Trazado 1032390" d="M22,30a10.992,10.992,0,0,0-9.213,17H26a3,3,0,0,0,3-3V32.515A10.955,10.955,0,0,0,22,30Z" fill="#f9ce69"/>
      <path id="Trazado_1032391" data-name="Trazado 1032391" d="M22,56H40v6H22Z" fill="#f7c244"/>
      <path id="Trazado_1032392" data-name="Trazado 1032392" d="M22,56v4H36a2,2,0,0,0,2-2V56Z" fill="#f9ce69"/>
      <path id="Trazado_1032393" data-name="Trazado 1032393" d="M33,50H51v6H33Z" fill="#f7c244"/>
      <path id="Trazado_1032394" data-name="Trazado 1032394" d="M33,50v4H47a2,2,0,0,0,2-2V50Z" fill="#f9ce69"/>
      <path id="Trazado_1032395" data-name="Trazado 1032395" d="M44,56H62v6H44Z" fill="#f7c244"/>
      <path id="Trazado_1032396" data-name="Trazado 1032396" d="M44,56v4H58a2,2,0,0,0,2-2V56Z" fill="#f9ce69"/>
      <path id="Trazado_1032397" data-name="Trazado 1032397" d="M16,16,11.955,4.673A2,2,0,0,1,13.838,2H23l2,4,2-4h3.162a2,2,0,0,1,1.883,2.673L28,16Z" fill="#74574a"/>
      <path id="Trazado_1032398" data-name="Trazado 1032398" d="M55,32V24h4v8h3l-5,5-5-5Z" fill="#b3bec4"/>
      <path id="Trazado_1032399" data-name="Trazado 1032399" d="M55,31h1a1,1,0,0,0,1-1V24H55Z" fill="#d1d8dc"/>
      <path id="Trazado_1032400" data-name="Trazado 1032400" d="M44,22V14h4v8h3l-5,5-5-5Z" fill="#b3bec4"/>
      <path id="Trazado_1032401" data-name="Trazado 1032401" d="M44,21h1a1,1,0,0,0,1-1V14H44Z" fill="#d1d8dc"/>
      <path id="Trazado_1032402" data-name="Trazado 1032402" d="M62,55H52V50a1,1,0,0,0-1-1H41.78A20.86,20.86,0,0,0,43,42a19.974,19.974,0,0,0-1.688-8.065l-3.3-7.542A8.993,8.993,0,0,0,31,21.091V18a3,3,0,0,0-1.693-2.688l3.68-10.3A3,3,0,0,0,30.162,1H27a1,1,0,0,0-.9.553L25,3.764,23.9,1.553A1,1,0,0,0,23,1H13.838a3,3,0,0,0-2.825,4.009l3.68,10.3A3,3,0,0,0,13,18v3.091a8.993,8.993,0,0,0-7.013,5.3l-3.3,7.542A19.989,19.989,0,0,0,1,42,21.119,21.119,0,0,0,18.852,62.765l.3-1.977A19.107,19.107,0,0,1,3,42a18.02,18.02,0,0,1,1.52-7.264l3.3-7.542A7,7,0,0,1,14.232,23H29.768a7,7,0,0,1,6.413,4.194l3.3,7.542A18.02,18.02,0,0,1,41,42a18.858,18.858,0,0,1-1.354,7H33a1,1,0,0,0-1,1v5H22a1,1,0,0,0-1,1v6a1,1,0,0,0,1,1H40a1,1,0,0,0,1-1V57h2v5a1,1,0,0,0,1,1H62a1,1,0,0,0,1-1V56A1,1,0,0,0,62,55ZM16,17H28a1,1,0,0,1,1,1v3H15V18A1,1,0,0,1,16,17ZM13.021,3.424A.987.987,0,0,1,13.838,3h8.544L24.1,6.447a1.042,1.042,0,0,0,1.79,0L27.618,3h2.544A1,1,0,0,1,31.1,4.336L27.3,15H16.7L12.9,4.337a.986.986,0,0,1,.121-.913ZM43,55V53H41v2H39V53H37v2H34V51H50v4H47V53H45v2Zm-4,2v4H36V59H34v2H32V59H30v2H28V59H26v2H23V57Zm22,0v4H58V59H56v2H54V59H52v2H50V59H48v2H45V57Z"/>
      <path id="Trazado_1032403" data-name="Trazado 1032403" d="M23,50V47.858A3.992,3.992,0,0,0,22,40a2,2,0,1,1,2-2h2a4,4,0,0,0-3-3.858V32H21v2.142A3.992,3.992,0,0,0,22,42a2,2,0,1,1-2,2H18a4,4,0,0,0,3,3.858V50Z"/>
      <path id="Trazado_1032404" data-name="Trazado 1032404" d="M34,41A12,12,0,1,0,22,53,12,12,0,0,0,34,41ZM12,41A10,10,0,1,1,22,51,10,10,0,0,1,12,41Z"/>
      <path id="Trazado_1032405" data-name="Trazado 1032405" d="M51.076,31.617a1,1,0,0,0,.217,1.09l5,5a1,1,0,0,0,1.414,0l5-5A1,1,0,0,0,62,31H60V24a1,1,0,0,0-1-1H55a1,1,0,0,0-1,1v7H52a1,1,0,0,0-.924.617ZM55,33a1,1,0,0,0,1-1V25h2v7a1,1,0,0,0,1,1h.586L57,35.586,54.414,33Z"/>
      <path id="Trazado_1032406" data-name="Trazado 1032406" d="M45.293,27.707a1,1,0,0,0,1.414,0l5-5A1,1,0,0,0,51,21H49V14a1,1,0,0,0-1-1H44a1,1,0,0,0-1,1v7H41a1,1,0,0,0-.707,1.707ZM44,23a1,1,0,0,0,1-1V15h2v7a1,1,0,0,0,1,1h.586L46,25.586,43.414,23Z"/>
      <path id="Trazado_1032407" data-name="Trazado 1032407" d="M58,13h2v8H58Z"/>
      <path id="Trazado_1032408" data-name="Trazado 1032408" d="M54,17h2v4H54Z"/>
      <path id="Trazado_1032409" data-name="Trazado 1032409" d="M54,13h2v2H54Z"/>
    </g>
  </g>
</svg>
