<svg id="law-education_18531646" xmlns="http://www.w3.org/2000/svg" width="76.087" height="79.918" viewBox="0 0 76.087 79.918">
  <path id="Trazado_1031453" data-name="Trazado 1031453" d="M20.228,82.607h30.85v32.717H20.228Z" transform="translate(-18.974 -69.707)" fill="#a9a9ae"/>
  <path id="Trazado_1031454" data-name="Trazado 1031454" d="M217.917,82.607h30.85v32.717h-30.85Z" transform="translate(-185.813 -69.707)" fill="#89898d"/>
  <path id="Trazado_1031455" data-name="Trazado 1031455" d="M59.6,8.611c8.237-1.03,16.469-1.358,24.706,4.03V48.194c-8-4.158-16.182-6.229-24.706-4.588Z" transform="translate(-52.202 -6.743)" fill="#eceff1" fill-rule="evenodd"/>
  <path id="Trazado_1031456" data-name="Trazado 1031456" d="M242.616,8.611c-8.232-1.03-16.469-1.358-24.7,4.03V48.194c7.993-4.158,16.182-6.229,24.7-4.588Z" transform="translate(-185.81 -6.743)" fill="#bfc2c3" fill-rule="evenodd"/>
  <path id="Trazado_1031457" data-name="Trazado 1031457" d="M166.609,450.64h50.744v-1.411c0-4.149-4.189-7.529-9.321-7.529h-32.1c-5.131,0-9.321,3.38-9.321,7.529Z" transform="translate(-142.511 -372.761)" fill="#8a4c1d" fill-rule="evenodd"/>
  <path id="Trazado_1031458" data-name="Trazado 1031458" d="M226.817,409.073h31.952v5.092H226.817Z" transform="translate(-193.324 -345.226)" fill="#aa5d24"/>
  <path id="Trazado_1031459" data-name="Trazado 1031459" d="M63.635,328.013l15.372-17.137,9.736-7.772-2.9-2.929-2.906-2.929-7.848,9.675L57.826,322.156C53.222,326.216,59.72,332.379,63.635,328.013Z" transform="translate(-49.366 -250.85)" fill="#995420" fill-rule="evenodd"/>
  <path id="Trazado_1031460" data-name="Trazado 1031460" d="M176.619,333.217l3.924,3.955a2.451,2.451,0,0,1-3.481,3.45l-3.924-3.955a2.451,2.451,0,0,1,3.482-3.45Z" transform="translate(-147.425 -280.596)" fill="#aa5d24" fill-rule="evenodd"/>
  <path id="Trazado_1031461" data-name="Trazado 1031461" d="M0,0H20.817V8.252H0Z" transform="matrix(0.71, -0.704, 0.704, 0.71, 33.558, 46.421)" fill="#cfa851"/>
  <g id="Grupo_1176583" data-name="Grupo 1176583" transform="translate(25.554 1.505)">
    <path id="Trazado_1031462" data-name="Trazado 1031462" d="M217.419,192.954l-6.9,6.848,2.614,3.835,7.5-7.44,7.277-7.219-3.813-2.65Z" transform="translate(-205.122 -158.745)" fill="#cfa851" fill-rule="evenodd"/>
    <path id="Trazado_1031463" data-name="Trazado 1031463" d="M194.6,154.259l-1.535-1.544a2.456,2.456,0,0,0-3.455-.013l-12.944,12.815a2.438,2.438,0,0,0-.013,3.446l1.531,1.544a2.456,2.456,0,0,0,3.455.013l12.944-12.815A2.442,2.442,0,0,0,194.6,154.259Z" transform="translate(-175.942 -129.774)" fill="#ffd064" fill-rule="evenodd"/>
    <path id="Trazado_1031464" data-name="Trazado 1031464" d="M275.232,251.295l-6.9,6.848-3.813-2.645,7.5-7.441,7.281-7.219,2.614,3.831Z" transform="translate(-250.695 -204.749)" fill="#cfa851" fill-rule="evenodd"/>
    <path id="Trazado_1031465" data-name="Trazado 1031465" d="M305.289,264.952l-1.535-1.544a2.456,2.456,0,0,0-3.455-.013L287.355,276.21a2.438,2.438,0,0,0-.013,3.446l1.531,1.544a2.457,2.457,0,0,0,3.455.013L305.271,268.4A2.442,2.442,0,0,0,305.289,264.952Z" transform="translate(-269.361 -223.193)" fill="#ffd064" fill-rule="evenodd"/>
    <path id="Trazado_1031466" data-name="Trazado 1031466" d="M382.3,409.073v5.092h7.688v-5.092Z" transform="translate(-350.095 -346.731)" fill="#8a4c1d" fill-rule="evenodd"/>
    <path id="Trazado_1031467" data-name="Trazado 1031467" d="M390.393,441.7H382.78c5.131,0,9.32,3.38,9.32,7.529v1.411h7.688v-1.411c0-4.149-4.189-7.529-9.321-7.529Z" transform="translate(-350.502 -374.266)" fill="#703d17" fill-rule="evenodd"/>
    <path id="Trazado_1031468" data-name="Trazado 1031468" d="M355.057,20.981V44.489a29.409,29.409,0,0,1,3.3.456v-35c-1.1-.137-2.2-.261-3.3-.363Z" transform="translate(-327.105 -9.586)" fill="#9b9e9e" fill-rule="evenodd"/>
  </g>
  <path id="Trazado_1031469" data-name="Trazado 1031469" d="M78.888,67.694V63.8a1.25,1.25,0,0,0-1.25-1.25H45.682a1.25,1.25,0,0,0-1.25,1.25v3.9c-5.275.489-9.391,4.214-9.391,8.724v1.411a1.25,1.25,0,0,0,1.25,1.25H87.03a1.25,1.25,0,0,0,1.25-1.25V76.417c0-4.51-4.116-8.235-9.391-8.724ZM46.932,65.045H76.389v2.592H46.932ZM85.781,76.578H37.54v-.162c0-3.462,3.621-6.279,8.071-6.279h32.1c4.45,0,8.071,2.817,8.071,6.279ZM43.547,61.947h.022a3.69,3.69,0,0,0,3.7-3.684,3.734,3.734,0,0,0-.116-.936l4.468-3.568,2.254,1.564a3.725,3.725,0,0,0-.1.855,3.672,3.672,0,0,0,1.07,2.625l1.531,1.54a3.7,3.7,0,0,0,5.22.02L74.537,47.547a3.682,3.682,0,0,0,.572-.731h.035a1.25,1.25,0,0,0,1.25-1.25V12.849a1.25,1.25,0,0,0-1.25-1.25H70.249V1.816A1.25,1.25,0,0,0,69.154.576c-7.9-.988-16.309-1.5-24.861,3.79A28.883,28.883,0,0,0,32.082.182,53.317,53.317,0,0,0,19.436.576a1.25,1.25,0,0,0-1.094,1.24V11.6h-4.9a1.25,1.25,0,0,0-1.25,1.25V45.566a1.249,1.249,0,0,0,1.249,1.249H43.765l-3.168,3.9a3.723,3.723,0,0,0-.935-.123h-.018a3.7,3.7,0,0,0-3.38,5.2L19.822,70.317a5.279,5.279,0,0,0-1.868,5.274,5.77,5.77,0,0,0,4.125,4.11,5.213,5.213,0,0,0,1.272.16,5.405,5.405,0,0,0,4.04-1.915L42.037,61.618a3.7,3.7,0,0,0,1.51.329Zm8.026-11.513-4.048-4.082,4.47-4.435,8.531-8.465,4.052,4.083-4.724,4.687ZM39.342,38.084,52.283,25.271a1.22,1.22,0,0,1,1.695,0l1.531,1.544,0,0A1.192,1.192,0,0,1,55.5,28.5L42.555,41.312a1.2,1.2,0,0,1-1.689-.007l-1.529-1.538a1.188,1.188,0,0,1-.345-.849,1.17,1.17,0,0,1,.35-.834Zm5.409,4.57L56.867,30.663l1.718,1.192L45.943,44.4Zm8.761,9.376L66.159,39.486l1.184,1.735-12.118,12ZM72.778,45.77,59.83,58.586a1.2,1.2,0,0,1-1.689-.007l-1.529-1.538a1.188,1.188,0,0,1-.345-.849,1.17,1.17,0,0,1,.35-.834L69.558,42.545a1.219,1.219,0,0,1,1.694,0l1.531,1.544,0,0a1.192,1.192,0,0,1-.007,1.676ZM69,38.061a1.25,1.25,0,0,0,1.25-1.25V14.1h3.645V41.663l-.868-.876a3.7,3.7,0,0,0-3.6-.952l-1.3-1.911c.215.037.429.073.642.114a1.251,1.251,0,0,0,.238.022ZM67.75,2.923V35.333c-.685-.1-1.376-.177-2.066-.232l-4.265-4.3c-.012-.012-.024-.022-.036-.033l-.044-.04c-.022-.019-.044-.036-.067-.052s-.018-.016-.028-.022l-3.008-2.086a3.733,3.733,0,0,0,.114-.905,3.655,3.655,0,0,0-1.067-2.608l-1.532-1.545a3.71,3.71,0,0,0-5.224-.02l-4.984,4.935V6.534C53.051,1.871,60.6,2.086,67.75,2.923Zm-46.908,0c7.147-.837,14.7-1.055,22.2,3.608V30.9l-5.459,5.4a3.688,3.688,0,0,0-.52.645,34.813,34.813,0,0,0-16.224-1.619ZM14.693,14.1h3.648V36.812a1.25,1.25,0,0,0,1.486,1.227,32.147,32.147,0,0,1,16.7,1.369,3.667,3.667,0,0,0,1.039,2.121l1.531,1.54a3.685,3.685,0,0,0,3.568.961l.2.288H14.692ZM45.852,48.212l3.848,3.88-3.922,3.131-3.09-3.114ZM38.8,53.44a1.187,1.187,0,0,1,.845-.346h.006a1.181,1.181,0,0,1,.842.351l0,0L44.421,57.4a1.2,1.2,0,0,1-1.7,1.689l-3.925-3.956a1.2,1.2,0,0,1,.009-1.7ZM25.531,76.277a2.754,2.754,0,0,1-2.842,1A3.254,3.254,0,0,1,20.383,75a2.8,2.8,0,0,1,1.092-2.81L37.849,57.736l2.265,2.283Z" transform="translate(-12.193 0.057)"/>
</svg>
