<svg xmlns="http://www.w3.org/2000/svg" xmlns:xlink="http://www.w3.org/1999/xlink" width="173.5" height="173.5" viewBox="0 0 173.5 173.5">
  <defs>
    <filter id="Trazado_896985" x="0" y="0" width="173.5" height="173.5" filterUnits="userSpaceOnUse">
      <feOffset dy="3" input="SourceAlpha"/>
      <feGaussianBlur stdDeviation="3" result="blur"/>
      <feFlood flood-opacity="0.161"/>
      <feComposite operator="in" in2="blur"/>
      <feComposite in="SourceGraphic"/>
    </filter>
  </defs>
  <g id="Grupo_1177000" data-name="Grupo 1177000" transform="translate(8983.98 603.953)">
    <g id="Grupo_1176847" data-name="Grupo 1176847" transform="translate(-9255.031 -5166.953)">
      <g id="Grupo_1111318" data-name="Grupo 1111318" transform="translate(280.051 4569)">
        <g id="Grupo_1109826" data-name="Grupo 1109826" transform="translate(0 0)">
          <g id="Grupo_1098742" data-name="Grupo 1098742">
            <g transform="matrix(1, 0, 0, 1, -9, -6)" filter="url(#Trazado_896985)">
              <g id="Trazado_896985-2" data-name="Trazado 896985" transform="translate(9 6)" fill="#fd9826" opacity="0.859">
                <path d="M 77.74990081787109 154 C 67.45556640625 154 57.46996307373047 151.9841613769531 48.07046508789062 148.0085144042969 C 43.55267333984375 146.0976715087891 39.19512939453125 143.7324523925781 35.11890029907227 140.9786071777344 C 31.08102607727051 138.2506713867188 27.28392219543457 135.1177673339844 23.83308792114258 131.6669311523438 C 20.38225555419922 128.2161102294922 17.24933815002441 124.4189987182617 14.52140045166016 120.381103515625 C 11.76754665374756 116.3048782348633 9.402359008789062 111.9473571777344 7.49148416519165 107.4295654296875 C 3.515838384628296 98.03004455566406 1.500005006790161 88.04444122314453 1.500005006790161 77.75010681152344 C 1.500005006790161 67.45555877685547 3.515838384628296 57.4699592590332 7.49148416519165 48.07045745849609 C 9.402359008789062 43.55266571044922 11.76754665374756 39.19512557983398 14.52140045166016 35.118896484375 C 17.24933815002441 31.08102035522461 20.38225555419922 27.28391647338867 23.83308792114258 23.83308410644531 C 27.28392219543457 20.38224983215332 31.08102607727051 17.24933242797852 35.11890029907227 14.52139568328857 C 39.19512939453125 11.76754188537598 43.55267333984375 9.40235424041748 48.07046508789062 7.491479396820068 C 57.46996307373047 3.515833377838135 67.45556640625 1.5 77.74990081787109 1.5 C 88.04423522949219 1.5 98.02983856201172 3.515833377838135 107.4293365478516 7.491479396820068 C 111.9471282958984 9.40235424041748 116.3046722412109 11.76754188537598 120.3808975219727 14.52139568328857 C 124.4187774658203 17.24933242797852 128.2158813476562 20.38224983215332 131.6667175292969 23.83308410644531 C 135.1175537109375 27.28391647338867 138.2504577636719 31.08102035522461 140.9783935546875 35.118896484375 C 143.7322540283203 39.19512557983398 146.0974426269531 43.55266571044922 148.0083160400391 48.07045745849609 C 151.9839630126953 57.4699592590332 153.9998016357422 67.45555877685547 153.9998016357422 77.74989318847656 C 153.9998016357422 88.04444122314453 151.9839630126953 98.03004455566406 148.0083160400391 107.4295654296875 C 146.0974426269531 111.9473571777344 143.7322540283203 116.3048782348633 140.9783935546875 120.381103515625 C 138.2504577636719 124.4189987182617 135.1175537109375 128.2161102294922 131.6667175292969 131.6669311523438 C 128.2158813476562 135.1177673339844 124.4187774658203 138.2506713867188 120.3808975219727 140.9786071777344 C 116.3046722412109 143.7324523925781 111.9471282958984 146.0976715087891 107.4293365478516 148.0085144042969 C 98.02983856201172 151.9841613769531 88.04423522949219 154 77.74990081787109 154 Z" stroke="none"/>
                <path d="M 77.74990081787109 3 C 67.65740203857422 3 57.86840057373047 4.9759521484375 48.65479278564453 8.87298583984375 C 44.22618103027344 10.74612426757812 39.95457458496094 13.064697265625 35.95859527587891 15.76432800292969 C 31.99983215332031 18.43882751464844 28.27707672119141 21.51040649414062 24.89372253417969 24.89373779296875 C 21.51040649414062 28.27706146240234 18.43881225585938 31.99982452392578 15.76431274414062 35.95861053466797 C 13.06471252441406 39.95456695556641 10.74612426757812 44.2261962890625 8.872970581054688 48.65478515625 C 4.975936889648438 57.86839294433594 2.999984741210938 67.65739440917969 2.999984741210938 77.75010681152344 C 2.999984741210938 87.84260559082031 4.975936889648438 97.63160705566406 8.872970581054688 106.84521484375 C 10.74612426757812 111.2738037109375 13.06471252441406 115.5454330444336 15.76431274414062 119.541389465332 C 18.43881225585938 123.5001754760742 21.51040649414062 127.2229309082031 24.89372253417969 130.6062622070312 C 28.27707672119141 133.9895935058594 31.99983215332031 137.0611724853516 35.95859527587891 139.7356719970703 C 39.95457458496094 142.435302734375 44.22618103027344 144.7538757324219 48.65479278564453 146.6270141601562 C 57.86840057373047 150.5240478515625 67.65740203857422 152.5 77.74990081787109 152.5 C 87.84239959716797 152.5 97.63140106201172 150.5240478515625 106.8450088500977 146.6270141601562 C 111.2736206054688 144.7538757324219 115.5452270507812 142.435302734375 119.5411834716797 139.7356719970703 C 123.4999694824219 137.0611724853516 127.2227249145508 133.9895935058594 130.6060485839844 130.6062622070312 C 133.9893798828125 127.2229309082031 137.0609741210938 123.5001754760742 139.7354736328125 119.541389465332 C 142.4350891113281 115.5454330444336 144.753662109375 111.2738265991211 146.6268157958984 106.84521484375 C 150.5238342285156 97.63160705566406 152.4997863769531 87.84260559082031 152.4997863769531 77.74989318847656 C 152.4997863769531 67.65739440917969 150.5238342285156 57.86839294433594 146.6268157958984 48.65478515625 C 144.753662109375 44.22617340087891 142.4350891113281 39.95456695556641 139.7354736328125 35.95861053466797 C 137.0609741210938 31.99982452392578 133.9893798828125 28.27706146240234 130.6060485839844 24.89373779296875 C 127.2227249145508 21.51040649414062 123.4999694824219 18.43882751464844 119.5411834716797 15.76432800292969 C 115.5452270507812 13.064697265625 111.2736206054688 10.74612426757812 106.8450088500977 8.87298583984375 C 97.63140106201172 4.9759521484375 87.84239959716797 3 77.74990081787109 3 M 77.74990081787109 0 C 120.6899871826172 0 155.4997863769531 34.80980682373047 155.4997863769531 77.74989318847656 L 155.4997863769531 77.75010681152344 C 155.4997863769531 120.6902008056641 120.6899871826172 155.5 77.74990081787109 155.5 C 34.809814453125 155.5 -1.52587890625e-05 120.6902008056641 -1.52587890625e-05 77.75010681152344 L -1.52587890625e-05 77.74989318847656 C -1.52587890625e-05 34.80980682373047 34.809814453125 0 77.74990081787109 0 Z" stroke="none" fill="#fff"/>
              </g>
            </g>
          </g>
        </g>
      </g>
    </g>
    <g id="income_18467423_1_" data-name="income_18467423 (1)" transform="translate(-8950.883 -570.149)">
      <g id="Grupo_1176999" data-name="Grupo 1176999" transform="translate(8.492 7.145)">
        <g id="Grupo_1176992" data-name="Grupo 1176992" transform="translate(29.157)">
          <path id="Trazado_1032256" data-name="Trazado 1032256" d="M216.052,13.5h42.662a1.36,1.36,0,0,1,.987.407l7.814,7.814a1.36,1.36,0,0,1,.407.987V81.137a1.4,1.4,0,0,1-1.394,1.389H216.052a1.394,1.394,0,0,1-1.389-1.389V14.891a1.4,1.4,0,0,1,1.389-1.394Z" transform="translate(-206.31 -13.497)" fill="#d1d1d6" fill-rule="evenodd"/>
          <path id="Trazado_1032257" data-name="Trazado 1032257" d="M449.974,14.148a1.353,1.353,0,0,1,.411.283l7.814,7.814a1.332,1.332,0,0,1,.283.407h-7.809a.7.7,0,0,1-.7-.695Z" transform="translate(-396.994 -14.025)" fill="#b1b1b5" fill-rule="evenodd"/>
          <path id="Trazado_1032258" data-name="Trazado 1032258" d="M172.011,57.543h42.662a1.325,1.325,0,0,1,.982.407l7.814,7.814a1.342,1.342,0,0,1,.407.982v58.432a1.392,1.392,0,0,1-1.389,1.389H172.011a1.392,1.392,0,0,1-1.394-1.389V58.932a1.392,1.392,0,0,1,1.394-1.389Z" transform="translate(-170.617 -49.19)" fill="#eceff1" fill-rule="evenodd"/>
          <path id="Trazado_1032259" data-name="Trazado 1032259" d="M172.011,57.543h3.258v69.024h-3.258a1.392,1.392,0,0,1-1.394-1.389V58.932a1.392,1.392,0,0,1,1.394-1.389Z" transform="translate(-170.617 -49.19)" fill="#d1d1d6" fill-rule="evenodd"/>
          <path id="Trazado_1032260" data-name="Trazado 1032260" d="M405.953,58.169a1.441,1.441,0,0,1,.407.288l7.814,7.814a1.44,1.44,0,0,1,.288.407h-7.814a.7.7,0,0,1-.695-.694Z" transform="translate(-361.321 -49.697)" fill="#b1b1b5" fill-rule="evenodd"/>
        </g>
        <g id="Grupo_1176993" data-name="Grupo 1176993" transform="translate(0 61.744)">
          <path id="Trazado_1032261" data-name="Trazado 1032261" d="M41.536,348.953l13.673-7.92c2.567-1.488,5.176-2.543,8-1.628,3.144,1.022,8.279,3.21,13.516,4.154a3.8,3.8,0,0,1,2.629,4.549c-.532,1.974-2.2,2.992-4.554,2.629l1.834.293a8.5,8.5,0,0,0,5.86-1.022l13.145-7.657c10.22-5.95,11.72,3.206,8.324,5.3L80.1,362.342a8.757,8.757,0,0,1-7.084,1l-17.3-4.636L49.3,362.4a2.59,2.59,0,0,1-3.528-.948l-5.184-8.975A2.593,2.593,0,0,1,41.536,348.953Z" transform="translate(-35.816 -339.064)" fill="#f6dccd" fill-rule="evenodd"/>
          <path id="Trazado_1032262" data-name="Trazado 1032262" d="M185.859,377.138c-.729,1.43-2.238,2.118-4.24,1.809-2.831-.75-5.666-1.516-8.5-2.275a1.423,1.423,0,1,1,.738-2.749Z" transform="translate(-142.636 -367.273)" fill="#f1cbbc" fill-rule="evenodd"/>
          <path id="Trazado_1032263" data-name="Trazado 1032263" d="M41.536,348.953l13.673-7.92c2.567-1.488,5.176-2.543,8-1.628,1.681.544,3.935,1.426,6.466,2.271l-26.489,15.3-2.592-4.492A2.593,2.593,0,0,1,41.536,348.953Z" transform="translate(-35.816 -339.064)" fill="#f1cbbc" fill-rule="evenodd"/>
          <path id="Trazado_1032264" data-name="Trazado 1032264" d="M24.181,366.239,35.027,385.4a1.944,1.944,0,0,1-.729,2.637l-3.692,2.089a1.944,1.944,0,0,1-2.637-.734L17.126,370.232a1.936,1.936,0,0,1,.729-2.637l3.688-2.089A1.941,1.941,0,0,1,24.181,366.239Z" transform="translate(-16.875 -360.289)" fill="#d1d1d6" fill-rule="evenodd"/>
          <path id="Trazado_1032265" data-name="Trazado 1032265" d="M51.477,379.4l1.916,3.392,1.9,3.354a1.939,1.939,0,0,1-.725,2.633l1.319-.746a1.944,1.944,0,0,0,.729-2.637l-1.9-3.367-3.824-6.758-3.828-6.762-1.29-2.275a1.943,1.943,0,0,0-2.254-.9l2.229,3.94,3.824,6.758,1.9,3.362Z" transform="translate(-38.463 -360.289)" fill="#b1b1b5" fill-rule="evenodd"/>
        </g>
        <g id="Grupo_1176997" data-name="Grupo 1176997" transform="translate(40.882 28.13)">
          <g id="Grupo_1176994" data-name="Grupo 1176994" transform="translate(0 10.985)">
            <path id="Trazado_1032266" data-name="Trazado 1032266" d="M233.387,231.452a.948.948,0,0,1-.948-.948v-9.812a.948.948,0,0,1,.948-.948h4.769a.948.948,0,0,1,.948.948V230.5a.948.948,0,0,1-.948.948Z" transform="translate(-232.439 -219.743)" fill="#fe646f" fill-rule="evenodd"/>
            <path id="Trazado_1032267" data-name="Trazado 1032267" d="M253.633,219.743h1.7a.948.948,0,0,1,.948.948V230.5a.948.948,0,0,1-.948.948h-1.7a.948.948,0,0,0,.948-.948v-9.812A.948.948,0,0,0,253.633,219.743Z" transform="translate(-249.614 -219.743)" fill="#fd4755" fill-rule="evenodd"/>
          </g>
          <g id="Grupo_1176995" data-name="Grupo 1176995" transform="translate(11.37 5.491)">
            <path id="Trazado_1032268" data-name="Trazado 1032268" d="M293.337,207.977a.948.948,0,0,1-.948-.948V191.722a.948.948,0,0,1,.948-.948h4.769a.948.948,0,0,1,.948.948v15.306a.948.948,0,0,1-.948.948Z" transform="translate(-292.389 -190.774)" fill="#ffe177" fill-rule="evenodd"/>
            <path id="Trazado_1032269" data-name="Trazado 1032269" d="M313.583,190.774h1.7a.948.948,0,0,1,.948.948v15.306a.948.948,0,0,1-.948.948h-1.7a.948.948,0,0,0,.948-.948V191.722A.948.948,0,0,0,313.583,190.774Z" transform="translate(-309.564 -190.774)" fill="#ffd064" fill-rule="evenodd"/>
          </g>
          <g id="Grupo_1176996" data-name="Grupo 1176996" transform="translate(22.739)">
            <path id="Trazado_1032270" data-name="Trazado 1032270" d="M353.288,184.515a.948.948,0,0,1-.948-.948v-20.8a.948.948,0,0,1,.948-.948h4.772a.948.948,0,0,1,.948.948v20.8a.948.948,0,0,1-.948.948Z" transform="translate(-352.34 -161.821)" fill="#6cf5c2" fill-rule="evenodd"/>
            <path id="Trazado_1032271" data-name="Trazado 1032271" d="M373.549,161.821h1.7a.948.948,0,0,1,.948.948v20.8a.948.948,0,0,1-.948.948h-1.7a.948.948,0,0,0,.948-.948v-20.8a.948.948,0,0,0-.948-.948Z" transform="translate(-369.527 -161.821)" fill="#00e499" fill-rule="evenodd"/>
          </g>
        </g>
        <g id="Grupo_1176998" data-name="Grupo 1176998" transform="translate(17.758 33.254)">
          <path id="Trazado_1032272" data-name="Trazado 1032272" d="M123.027,213.876a12.517,12.517,0,1,1,12.519-12.517A12.541,12.541,0,0,1,123.027,213.876Z" transform="translate(-110.51 -188.842)" fill="#ffc338" fill-rule="evenodd"/>
          <path id="Trazado_1032273" data-name="Trazado 1032273" d="M184.35,201.359a12.518,12.518,0,0,0-11.77-12.5c.246-.013.5-.021.745-.021a12.517,12.517,0,1,1,0,25.034c-.25,0-.5-.008-.745-.021a12.518,12.518,0,0,0,11.77-12.5Z" transform="translate(-160.808 -188.842)" fill="#f5b829" fill-rule="evenodd"/>
        </g>
      </g>
      <path id="Trazado_1032274" data-name="Trazado 1032274" d="M26.626,91.3l.952,1.681,0,0a3.471,3.471,0,0,1-1.309,4.71l-3.7,2.1,0,0a3.472,3.472,0,0,1-4.711-1.31L6.978,79.26a3.466,3.466,0,0,1,1.3-4.715l3.7-2.1h0a3.474,3.474,0,0,1,4.711,1.3l0,0,.752,1.329,9.507-5.5c2.965-1.715,6-2.82,9.253-1.762C39.32,68.827,44.394,71,49.572,71.936a1.506,1.506,0,0,1,.2.049,5.319,5.319,0,0,1,3.631,6.4,6.244,6.244,0,0,1-.252.75,7.1,7.1,0,0,0,1.176-.551l13.19-7.682c4.87-2.837,8.121-2.5,9.958-1.263a5.678,5.678,0,0,1-.051,9.181L53.489,93.56A10.246,10.246,0,0,1,45.2,94.74h0L28.439,90.25Zm-7.68-13.57,6.185,10.929,2.335-1.348a1.516,1.516,0,0,1,1.151-.152l17.36,4.653a7.31,7.31,0,0,0,5.918-.831h0L75.831,76.241a2.318,2.318,0,0,0,.918-1.952c.061-2.31-2.263-3.931-7.706-.76l-13.19,7.682a10.021,10.021,0,0,1-6.884,1.214h-.005l-1.635-.266h0l-.061-.011h0c-2.981-.612-5.745-1.512-8.812-2.336a1.517,1.517,0,0,1,.788-2.93c2.985.8,5.675,1.682,8.573,2.282A2.222,2.222,0,0,0,50.471,77.6h0a2.289,2.289,0,0,0-1.551-2.7c-5.291-.974-10.468-3.167-13.645-4.2h0c-2.407-.782-4.606.236-6.8,1.5ZM14.06,75.254v0a.43.43,0,0,0-.58-.161l-3.7,2.1h0a.424.424,0,0,0-.157.577h0L20.5,96.986h0a.428.428,0,0,0,.581.159l3.7-2.095h0a.428.428,0,0,0,.159-.581Zm-1.209,1.919a1.535,1.535,0,1,1-1.3,1.739,1.535,1.535,0,0,1,1.3-1.739ZM80.661,17.1H38.81V36.429a1.517,1.517,0,0,1-3.034,0V15.578a1.517,1.517,0,0,1,1.517-1.517h6.885V7.175A1.517,1.517,0,0,1,45.7,5.658H90.581a1.517,1.517,0,0,1,1.073.445l8.677,8.684a1.517,1.517,0,0,1,.444,1.072V76.6a1.517,1.517,0,0,1-1.517,1.517H92.372V85a1.517,1.517,0,0,1-1.517,1.517H72.476a1.517,1.517,0,0,1,0-3.034H89.338V25.772H82.179a1.517,1.517,0,0,1-1.517-1.517ZM47.212,14.061H82.179a1.516,1.516,0,0,1,1.073.444l8.677,8.677a1.517,1.517,0,0,1,.444,1.073v50.83H97.74V17.376H90.581a1.517,1.517,0,0,1-1.517-1.517V8.692H47.212Zm39.98,8.677-3.5-3.5v3.5Zm8.4-8.4-3.5-3.5v3.5ZM51.637,47.807a13.922,13.922,0,1,1-1.688-3.034h6.087a1.517,1.517,0,0,1,1.517,1.517V58a1.517,1.517,0,0,1-3.034,0V47.807ZM38.764,63.775A10.829,10.829,0,1,0,27.935,52.946,10.852,10.852,0,0,0,38.764,63.775ZM37.247,45.569v-.436a1.517,1.517,0,0,1,3.034,0v.42A5.155,5.155,0,0,1,43.8,48.606,1.517,1.517,0,1,1,41,49.782a2.449,2.449,0,0,0-3.22-1.2,1.444,1.444,0,0,0-1.049,1.384,1.182,1.182,0,0,0,.786,1,5.5,5.5,0,0,0,1.5.434c2.327.381,4.852,1.479,5.19,4.246v0c.318,2.637-1.708,4.226-3.929,4.714v.392a1.517,1.517,0,1,1-3.034,0v-.414a5.112,5.112,0,0,1-3.915-3.712,1.517,1.517,0,0,1,2.945-.733,2.423,2.423,0,0,0,2.613,1.594,3.838,3.838,0,0,0,1.563-.355,1.1,1.1,0,0,0,.746-1.121,1.484,1.484,0,0,0-1-1.164,6.691,6.691,0,0,0-1.665-.454h0c-2.289-.377-4.7-1.564-4.829-4.285h0a4.382,4.382,0,0,1,2.968-4.354,5.538,5.538,0,0,1,.578-.192Zm36.081-16.71A74.54,74.54,0,0,1,50.264,41.631a1.517,1.517,0,1,1-1-2.866,71.625,71.625,0,0,0,21.824-12l-.654.036a1.517,1.517,0,0,1-.167-3.03l5.068-.279a1.517,1.517,0,0,1,1.585,1.733l-.731,5.027a1.517,1.517,0,0,1-3-.437ZM54.181,66.6a1.517,1.517,0,0,1,0-3.034H79.931a1.517,1.517,0,1,1,0,3.034Zm0,5.957a1.517,1.517,0,0,1,0-3.034h7.03a1.517,1.517,0,0,1,0,3.034ZM73.626,58a1.517,1.517,0,1,1-3.034,0V35.3a1.517,1.517,0,0,1,1.517-1.517h6.669A1.517,1.517,0,0,1,80.3,35.3V58a1.517,1.517,0,0,1-3.034,0V36.822H73.626Zm-11.37,0a1.517,1.517,0,0,1-3.034,0V40.8a1.517,1.517,0,0,1,1.517-1.517h6.666A1.517,1.517,0,0,1,68.922,40.8V58a1.517,1.517,0,0,1-3.034,0V42.313H62.257Z" transform="translate(0)" fill-rule="evenodd"/>
    </g>
  </g>
</svg>
